G75*
%MOIN*%
%OFA0B0*%
%FSLAX24Y24*%
%IPPOS*%
%LPD*%
%AMOC8*
5,1,8,0,0,1.08239X$1,22.5*
%
%ADD10C,0.0160*%
%ADD11C,0.0000*%
%ADD12C,0.0020*%
%ADD13C,0.0630*%
%ADD14C,0.0480*%
%ADD15C,0.0540*%
%ADD16C,0.0660*%
%ADD17R,0.1000X0.0500*%
%ADD18R,0.0500X0.1000*%
%ADD19C,0.0550*%
%ADD20C,0.0310*%
%ADD21C,0.0340*%
%ADD22C,0.0100*%
%ADD23C,0.0120*%
%ADD24C,0.0396*%
%ADD25C,0.0060*%
%ADD26C,0.0320*%
%ADD27C,0.0240*%
D10*
X001143Y001227D02*
X001348Y001078D01*
X001469Y001039D01*
X001469Y001132D01*
X001539Y001301D01*
X001668Y001430D01*
X001837Y001500D01*
X002020Y001500D01*
X002189Y001430D01*
X002319Y001301D01*
X002389Y001132D01*
X002389Y000990D01*
X005006Y000990D01*
X005006Y001106D01*
X005068Y001256D01*
X005183Y001372D01*
X005334Y001434D01*
X005497Y001434D01*
X005648Y001372D01*
X005763Y001256D01*
X005826Y001106D01*
X005826Y000990D01*
X007475Y000990D01*
X007477Y000991D01*
X007546Y000990D01*
X007549Y000990D01*
X007671Y000996D01*
X007909Y001057D01*
X008026Y001122D01*
X007893Y001177D01*
X007778Y001292D01*
X007715Y001443D01*
X007715Y001606D01*
X007778Y001756D01*
X007893Y001872D01*
X008044Y001934D01*
X008207Y001934D01*
X008357Y001872D01*
X008473Y001756D01*
X008478Y001745D01*
X008492Y001794D01*
X008501Y001916D01*
X008501Y005076D01*
X008497Y005072D01*
X008347Y005009D01*
X008184Y005009D01*
X008033Y005072D01*
X007918Y005187D01*
X007855Y005338D01*
X007855Y005501D01*
X007918Y005652D01*
X008033Y005767D01*
X008184Y005829D01*
X008347Y005829D01*
X008497Y005767D01*
X008501Y005763D01*
X008501Y009375D01*
X008497Y009372D01*
X008347Y009309D01*
X008184Y009309D01*
X008033Y009372D01*
X007918Y009487D01*
X007855Y009638D01*
X007855Y009801D01*
X007918Y009951D01*
X008033Y010067D01*
X008184Y010129D01*
X008347Y010129D01*
X008497Y010067D01*
X008501Y010063D01*
X008501Y010850D01*
X008344Y010850D01*
X008193Y010913D01*
X008078Y011028D01*
X008015Y011179D01*
X008015Y011342D01*
X008078Y011493D01*
X008193Y011608D01*
X008344Y011670D01*
X008501Y011670D01*
X008501Y012023D01*
X008488Y012156D01*
X008400Y012409D01*
X008239Y012622D01*
X008019Y012775D01*
X007763Y012852D01*
X007630Y012860D01*
X007625Y012860D01*
X007558Y012859D01*
X007554Y012860D01*
X007169Y012860D01*
X007301Y012728D01*
X007373Y012553D01*
X007373Y012364D01*
X007301Y012190D01*
X007167Y012056D01*
X006993Y011984D01*
X006804Y011984D01*
X006629Y012056D01*
X006496Y012190D01*
X006423Y012364D01*
X006423Y012467D01*
X006348Y012391D01*
X006197Y012329D01*
X006034Y012329D01*
X005883Y012391D01*
X005768Y012506D01*
X005705Y012657D01*
X005705Y012820D01*
X005722Y012860D01*
X002270Y012860D01*
X002270Y012729D01*
X002207Y012578D01*
X002092Y012463D01*
X001941Y012400D01*
X001778Y012400D01*
X001627Y012463D01*
X001512Y012578D01*
X001450Y012729D01*
X001450Y012780D01*
X001262Y012672D01*
X001094Y012504D01*
X000976Y012298D01*
X000946Y012189D01*
X001080Y012244D01*
X001275Y012244D01*
X001455Y012170D01*
X001593Y012032D01*
X001668Y011852D01*
X001668Y011657D01*
X001593Y011477D01*
X001455Y011339D01*
X001275Y011264D01*
X001080Y011264D01*
X000906Y011336D01*
X000906Y011188D01*
X001080Y011260D01*
X001275Y011260D01*
X001455Y011185D01*
X001593Y011047D01*
X001668Y010867D01*
X001668Y010672D01*
X001593Y010492D01*
X001455Y010354D01*
X001275Y010280D01*
X001080Y010280D01*
X000906Y010352D01*
X000906Y010204D01*
X001080Y010276D01*
X001275Y010276D01*
X001455Y010201D01*
X001593Y010063D01*
X001668Y009883D01*
X001668Y009688D01*
X001593Y009508D01*
X001455Y009370D01*
X001275Y009296D01*
X001080Y009296D01*
X000906Y009368D01*
X000906Y007463D01*
X001010Y007506D01*
X001174Y007506D01*
X001324Y007443D01*
X001440Y007328D01*
X001502Y007177D01*
X001502Y007014D01*
X001440Y006864D01*
X001324Y006748D01*
X001174Y006686D01*
X001010Y006686D01*
X000906Y006729D01*
X000906Y001798D01*
X000916Y001672D01*
X000994Y001431D01*
X001143Y001227D01*
X001202Y001184D02*
X001490Y001184D01*
X001580Y001343D02*
X001059Y001343D01*
X000972Y001501D02*
X007715Y001501D01*
X007737Y001660D02*
X000920Y001660D01*
X000906Y001818D02*
X007839Y001818D01*
X008861Y001912D02*
X008858Y001842D01*
X008851Y001772D01*
X008841Y001702D01*
X008827Y001633D01*
X008809Y001565D01*
X008787Y001498D01*
X008762Y001432D01*
X008733Y001368D01*
X008701Y001305D01*
X008666Y001245D01*
X008627Y001186D01*
X008585Y001129D01*
X008540Y001075D01*
X008492Y001023D01*
X008442Y000974D01*
X008389Y000928D01*
X008333Y000884D01*
X008276Y000844D01*
X008216Y000807D01*
X008154Y000773D01*
X008091Y000743D01*
X008026Y000716D01*
X007959Y000692D01*
X007892Y000673D01*
X007823Y000657D01*
X007754Y000644D01*
X007684Y000636D01*
X007614Y000631D01*
X007543Y000630D01*
X007544Y000630D02*
X001715Y000630D01*
X002389Y001026D02*
X005006Y001026D01*
X005038Y001184D02*
X002367Y001184D01*
X002277Y001343D02*
X005154Y001343D01*
X005677Y001343D02*
X007757Y001343D01*
X007885Y001184D02*
X005793Y001184D01*
X005826Y001026D02*
X007786Y001026D01*
X008411Y001818D02*
X008493Y001818D01*
X008501Y001977D02*
X000906Y001977D01*
X000906Y002135D02*
X006342Y002135D01*
X006285Y002159D02*
X005385Y003059D01*
X005295Y003149D01*
X005246Y003266D01*
X005246Y004517D01*
X005139Y004615D01*
X005085Y004730D01*
X005079Y004857D01*
X005122Y004977D01*
X005208Y005071D01*
X005323Y005125D01*
X005450Y005131D01*
X005570Y005087D01*
X005653Y005012D01*
X005660Y005009D01*
X005699Y004970D01*
X005741Y004932D01*
X005744Y004925D01*
X005792Y004876D01*
X005838Y004831D01*
X005838Y004831D01*
X005862Y004773D01*
X005886Y004714D01*
X005886Y004714D01*
X005886Y004713D01*
X005886Y004650D01*
X005886Y003463D01*
X006738Y002611D01*
X008501Y002611D01*
X008501Y002769D02*
X006580Y002769D01*
X006738Y002611D02*
X006786Y002494D01*
X006786Y002366D01*
X006738Y002249D01*
X006648Y002159D01*
X006530Y002110D01*
X006403Y002110D01*
X006285Y002159D01*
X006150Y002294D02*
X000906Y002294D01*
X000906Y002452D02*
X005992Y002452D01*
X005833Y002611D02*
X000906Y002611D01*
X000906Y002769D02*
X005675Y002769D01*
X005516Y002928D02*
X000906Y002928D01*
X000906Y003086D02*
X005358Y003086D01*
X005255Y003245D02*
X000906Y003245D01*
X000906Y003403D02*
X005246Y003403D01*
X005246Y003562D02*
X000906Y003562D01*
X000906Y003720D02*
X005246Y003720D01*
X005246Y003879D02*
X000906Y003879D01*
X000906Y004037D02*
X005246Y004037D01*
X005246Y004196D02*
X000906Y004196D01*
X000906Y004354D02*
X005246Y004354D01*
X005246Y004513D02*
X000906Y004513D01*
X000906Y004671D02*
X005112Y004671D01*
X005080Y004830D02*
X000906Y004830D01*
X000906Y004988D02*
X005132Y004988D01*
X005681Y004988D02*
X008501Y004988D01*
X008501Y004830D02*
X005838Y004830D01*
X005838Y004831D02*
X005838Y004831D01*
X005886Y004671D02*
X008501Y004671D01*
X008501Y004513D02*
X005886Y004513D01*
X005886Y004354D02*
X008501Y004354D01*
X008501Y004196D02*
X005886Y004196D01*
X005886Y004037D02*
X008501Y004037D01*
X008501Y003879D02*
X005886Y003879D01*
X005886Y003720D02*
X008501Y003720D01*
X008501Y003562D02*
X005886Y003562D01*
X005946Y003403D02*
X008501Y003403D01*
X008501Y003245D02*
X006104Y003245D01*
X006263Y003086D02*
X008501Y003086D01*
X008501Y002928D02*
X006421Y002928D01*
X006866Y003170D02*
X006876Y003170D01*
X006786Y002452D02*
X008501Y002452D01*
X008501Y002294D02*
X006756Y002294D01*
X006590Y002135D02*
X008501Y002135D01*
X008861Y001912D02*
X008861Y012030D01*
X008501Y011962D02*
X004100Y011962D01*
X004133Y011928D02*
X004045Y012017D01*
X003929Y012065D01*
X003804Y012065D01*
X003688Y012017D01*
X003599Y011928D01*
X003564Y011844D01*
X003008Y011287D01*
X003007Y011287D01*
X002968Y011248D01*
X002929Y011209D01*
X002929Y011208D01*
X002908Y011157D01*
X002886Y011106D01*
X002886Y011106D01*
X002886Y011105D01*
X002886Y011053D01*
X002754Y011185D01*
X002574Y011260D01*
X002379Y011260D01*
X002199Y011185D01*
X002061Y011047D01*
X001987Y010867D01*
X001987Y010672D01*
X002061Y010492D01*
X002199Y010354D01*
X002379Y010280D01*
X002574Y010280D01*
X002754Y010354D01*
X002887Y010487D01*
X002887Y010068D01*
X002754Y010201D01*
X002574Y010276D01*
X002379Y010276D01*
X002199Y010201D01*
X002061Y010063D01*
X001987Y009883D01*
X001987Y009688D01*
X002061Y009508D01*
X002199Y009370D01*
X002379Y009296D01*
X002574Y009296D01*
X002754Y009370D01*
X002888Y009503D01*
X002888Y008589D01*
X002853Y008505D01*
X002853Y008380D01*
X002901Y008264D01*
X002990Y008175D01*
X003106Y008127D01*
X003231Y008127D01*
X003347Y008175D01*
X003436Y008264D01*
X003483Y008380D01*
X003483Y008505D01*
X003448Y008590D01*
X003446Y010934D01*
X003960Y011448D01*
X004045Y011483D01*
X004133Y011572D01*
X004181Y011687D01*
X004181Y011813D01*
X004133Y011928D01*
X004181Y011804D02*
X008501Y011804D01*
X008282Y011645D02*
X004164Y011645D01*
X004048Y011487D02*
X008075Y011487D01*
X008015Y011328D02*
X003840Y011328D01*
X003682Y011170D02*
X008019Y011170D01*
X008095Y011011D02*
X003523Y011011D01*
X003446Y010853D02*
X008338Y010853D01*
X008501Y010694D02*
X003447Y010694D01*
X003447Y010536D02*
X008501Y010536D01*
X008501Y010377D02*
X003447Y010377D01*
X003447Y010219D02*
X008501Y010219D01*
X008026Y010060D02*
X003447Y010060D01*
X003447Y009902D02*
X007897Y009902D01*
X007855Y009743D02*
X003447Y009743D01*
X003448Y009585D02*
X007877Y009585D01*
X007979Y009426D02*
X003448Y009426D01*
X003448Y009268D02*
X008501Y009268D01*
X008501Y009109D02*
X003448Y009109D01*
X003448Y008951D02*
X004644Y008951D01*
X004588Y008927D02*
X004499Y008838D01*
X004451Y008723D01*
X004451Y008597D01*
X004499Y008482D01*
X004588Y008393D01*
X004639Y008372D01*
X004903Y008045D01*
X004909Y008031D01*
X004938Y008002D01*
X004964Y007971D01*
X004977Y007963D01*
X004988Y007952D01*
X005026Y007937D01*
X005061Y007917D01*
X005077Y007916D01*
X005091Y007910D01*
X005132Y007910D01*
X005172Y007906D01*
X005187Y007910D01*
X006006Y007913D01*
X006090Y007878D01*
X006215Y007878D01*
X006331Y007926D01*
X006419Y008015D01*
X006467Y008130D01*
X006467Y008256D01*
X006419Y008372D01*
X006331Y008460D01*
X006215Y008508D01*
X006090Y008508D01*
X006004Y008473D01*
X005280Y008470D01*
X005081Y008716D01*
X005081Y008723D01*
X005033Y008838D01*
X004945Y008927D01*
X004829Y008975D01*
X004704Y008975D01*
X004588Y008927D01*
X004480Y008792D02*
X003448Y008792D01*
X003448Y008634D02*
X004451Y008634D01*
X004506Y008475D02*
X003483Y008475D01*
X003457Y008317D02*
X004684Y008317D01*
X004812Y008158D02*
X003305Y008158D01*
X003032Y008158D02*
X000906Y008158D01*
X000906Y008000D02*
X004940Y008000D01*
X005276Y008475D02*
X006010Y008475D01*
X006295Y008475D02*
X008501Y008475D01*
X008501Y008317D02*
X006442Y008317D01*
X006467Y008158D02*
X008501Y008158D01*
X008501Y008000D02*
X006404Y008000D01*
X005148Y008634D02*
X008501Y008634D01*
X008501Y008792D02*
X005053Y008792D01*
X004888Y008951D02*
X008501Y008951D01*
X008501Y007841D02*
X000906Y007841D01*
X000906Y007683D02*
X008501Y007683D01*
X008501Y007524D02*
X000906Y007524D01*
X001402Y007366D02*
X008501Y007366D01*
X008501Y007207D02*
X001490Y007207D01*
X001502Y007049D02*
X008501Y007049D01*
X008501Y006890D02*
X001450Y006890D01*
X001284Y006732D02*
X008501Y006732D01*
X008501Y006573D02*
X000906Y006573D01*
X000906Y006415D02*
X008501Y006415D01*
X008501Y006256D02*
X000906Y006256D01*
X000906Y006098D02*
X008501Y006098D01*
X008501Y005939D02*
X000906Y005939D01*
X000906Y005781D02*
X008065Y005781D01*
X007905Y005622D02*
X000906Y005622D01*
X000906Y005464D02*
X007855Y005464D01*
X007869Y005305D02*
X000906Y005305D01*
X000906Y005147D02*
X007958Y005147D01*
X008465Y005781D02*
X008501Y005781D01*
X011568Y004025D02*
X011566Y003074D01*
X010775Y001219D02*
X010801Y001167D01*
X010831Y001117D01*
X010863Y001068D01*
X010899Y001022D01*
X010938Y000978D01*
X010979Y000937D01*
X011023Y000899D01*
X011069Y000863D01*
X011117Y000831D01*
X011167Y000801D01*
X011220Y000775D01*
X011273Y000753D01*
X011328Y000733D01*
X011384Y000718D01*
X011441Y000706D01*
X011499Y000698D01*
X011557Y000693D01*
X011616Y000692D01*
X011674Y000695D01*
X011732Y000702D01*
X011789Y000712D01*
X011846Y000726D01*
X011901Y000744D01*
X011955Y000765D01*
X012008Y000790D01*
X012010Y000806D01*
X022207Y005156D01*
X022270Y005193D01*
X022335Y005228D01*
X022401Y005258D01*
X022469Y005285D01*
X022538Y005309D01*
X022608Y005328D01*
X022680Y005344D01*
X022752Y005356D01*
X022824Y005364D01*
X022897Y005368D01*
X022970Y005369D01*
X023043Y005365D01*
X023116Y005357D01*
X023188Y005346D01*
X023260Y005331D01*
X023330Y005312D01*
X023400Y005289D01*
X023468Y005262D01*
X023534Y005232D01*
X023599Y005198D01*
X023662Y005161D01*
X023723Y005121D01*
X023782Y005077D01*
X023782Y005078D02*
X026384Y003479D01*
X026432Y003450D01*
X026481Y003424D01*
X026532Y003402D01*
X026585Y003383D01*
X026639Y003369D01*
X026693Y003358D01*
X026749Y003350D01*
X026804Y003347D01*
X026860Y003348D01*
X026916Y003353D01*
X026971Y003361D01*
X027025Y003374D01*
X027079Y003390D01*
X027131Y003410D01*
X027181Y003433D01*
X027230Y003460D01*
X027277Y003491D01*
X027321Y003524D01*
X027363Y003561D01*
X027403Y003601D01*
X027439Y003643D01*
X027473Y003687D01*
X027503Y003734D01*
X027530Y003783D01*
X027553Y003834D01*
X028664Y006495D01*
X028691Y006558D01*
X028714Y006622D01*
X028733Y006688D01*
X028749Y006754D01*
X028760Y006822D01*
X028768Y006890D01*
X028772Y006958D01*
X028771Y007027D01*
X028767Y007095D01*
X028759Y007163D01*
X028748Y007230D01*
X028732Y007297D01*
X028712Y007362D01*
X028689Y007427D01*
X028662Y007490D01*
X028632Y007551D01*
X028598Y007611D01*
X028561Y007668D01*
X028520Y007723D01*
X028477Y007776D01*
X028430Y007826D01*
X028229Y008020D01*
X010776Y001220D02*
X010621Y002132D01*
X010488Y003047D01*
X010378Y003965D01*
X010289Y004886D01*
X010223Y005809D01*
X010178Y006733D01*
X010157Y007657D01*
X010157Y008582D01*
X010180Y009507D01*
X010225Y010431D01*
X010292Y011353D01*
X010381Y012274D01*
X010493Y013192D01*
X010626Y014108D01*
X010782Y015019D01*
X010959Y015927D01*
X011159Y016830D01*
X011380Y017729D01*
X011622Y018621D01*
X012523Y019660D02*
X014851Y021121D01*
X014831Y021122D02*
X014897Y021153D01*
X014964Y021181D01*
X015033Y021205D01*
X015102Y021225D01*
X015173Y021242D01*
X015245Y021255D01*
X015317Y021264D01*
X015390Y021269D01*
X015463Y021270D01*
X015535Y021267D01*
X015608Y021260D01*
X015680Y021250D01*
X015751Y021235D01*
X015822Y021217D01*
X015891Y021195D01*
X015959Y021169D01*
X016026Y021140D01*
X016091Y021107D01*
X016154Y021071D01*
X016215Y021031D01*
X016274Y020988D01*
X016330Y020942D01*
X016384Y020894D01*
X016435Y020842D01*
X016483Y020787D01*
X012522Y019659D02*
X012447Y019615D01*
X012374Y019567D01*
X012302Y019516D01*
X012233Y019462D01*
X012166Y019405D01*
X012102Y019346D01*
X012041Y019283D01*
X011982Y019218D01*
X011926Y019151D01*
X011873Y019081D01*
X011823Y019009D01*
X011776Y018935D01*
X011732Y018859D01*
X011692Y018781D01*
X011655Y018702D01*
X011622Y018621D01*
X007622Y013220D02*
X001816Y013220D01*
X001450Y012755D02*
X001405Y012755D01*
X001505Y012596D02*
X001186Y012596D01*
X001056Y012438D02*
X001688Y012438D01*
X002031Y012438D02*
X005837Y012438D01*
X005731Y012596D02*
X002215Y012596D01*
X002270Y012755D02*
X005705Y012755D01*
X006394Y012438D02*
X006423Y012438D01*
X006459Y012279D02*
X000970Y012279D01*
X001504Y012121D02*
X002150Y012121D01*
X002199Y012170D02*
X002061Y012032D01*
X001987Y011852D01*
X001987Y011657D01*
X002061Y011477D01*
X002199Y011339D01*
X002379Y011264D01*
X002574Y011264D01*
X002754Y011339D01*
X002892Y011477D01*
X002967Y011657D01*
X002967Y011852D01*
X002892Y012032D01*
X002754Y012170D01*
X002574Y012244D01*
X002379Y012244D01*
X002199Y012170D01*
X002033Y011962D02*
X001622Y011962D01*
X001668Y011804D02*
X001987Y011804D01*
X001992Y011645D02*
X001663Y011645D01*
X001597Y011487D02*
X002057Y011487D01*
X002225Y011328D02*
X001429Y011328D01*
X001471Y011170D02*
X002183Y011170D01*
X002046Y011011D02*
X001608Y011011D01*
X001668Y010853D02*
X001987Y010853D01*
X001987Y010694D02*
X001668Y010694D01*
X001611Y010536D02*
X002044Y010536D01*
X002177Y010377D02*
X001478Y010377D01*
X001413Y010219D02*
X002241Y010219D01*
X002060Y010060D02*
X001594Y010060D01*
X001660Y009902D02*
X001994Y009902D01*
X001987Y009743D02*
X001668Y009743D01*
X001625Y009585D02*
X002030Y009585D01*
X002143Y009426D02*
X001511Y009426D01*
X000906Y009268D02*
X002888Y009268D01*
X002888Y009426D02*
X002810Y009426D01*
X002888Y009109D02*
X000906Y009109D01*
X000906Y008951D02*
X002888Y008951D01*
X002888Y008792D02*
X000906Y008792D01*
X000906Y008634D02*
X002888Y008634D01*
X002853Y008475D02*
X000906Y008475D01*
X000906Y008317D02*
X002880Y008317D01*
X002887Y010219D02*
X002712Y010219D01*
X002777Y010377D02*
X002887Y010377D01*
X002913Y011170D02*
X002770Y011170D01*
X002929Y011208D02*
X002929Y011208D01*
X003048Y011328D02*
X002729Y011328D01*
X002896Y011487D02*
X003207Y011487D01*
X003365Y011645D02*
X002962Y011645D01*
X002967Y011804D02*
X003524Y011804D01*
X003633Y011962D02*
X002921Y011962D01*
X002803Y012121D02*
X006565Y012121D01*
X007232Y012121D02*
X008492Y012121D01*
X008445Y012279D02*
X007338Y012279D01*
X007373Y012438D02*
X008378Y012438D01*
X008258Y012596D02*
X007356Y012596D01*
X007274Y012755D02*
X008048Y012755D01*
X007621Y013220D02*
X007690Y013219D01*
X007758Y013215D01*
X007825Y013207D01*
X007892Y013195D01*
X007959Y013179D01*
X008024Y013160D01*
X008088Y013137D01*
X008151Y013110D01*
X008212Y013080D01*
X008272Y013047D01*
X008329Y013010D01*
X008384Y012970D01*
X008437Y012927D01*
X008488Y012881D01*
X008535Y012833D01*
X008580Y012782D01*
X008623Y012728D01*
X008662Y012672D01*
X008697Y012614D01*
X008730Y012554D01*
X008759Y012493D01*
X008784Y012429D01*
X008806Y012365D01*
X008825Y012299D01*
X008839Y012233D01*
X008850Y012165D01*
X008857Y012098D01*
X008861Y012030D01*
X012671Y010550D02*
X013270Y011150D01*
X014966Y011150D01*
X013585Y008308D02*
X012766Y008310D01*
X001816Y013220D02*
X001747Y013218D01*
X001679Y013213D01*
X001611Y013203D01*
X001543Y013190D01*
X001476Y013174D01*
X001410Y013154D01*
X001346Y013130D01*
X001283Y013103D01*
X001221Y013072D01*
X001161Y013038D01*
X001103Y013001D01*
X001047Y012961D01*
X000994Y012918D01*
X000943Y012872D01*
X000894Y012823D01*
X000848Y012772D01*
X000805Y012719D01*
X000765Y012663D01*
X000728Y012605D01*
X000694Y012545D01*
X000663Y012483D01*
X000636Y012420D01*
X000612Y012356D01*
X000592Y012290D01*
X000576Y012223D01*
X000563Y012155D01*
X000553Y012087D01*
X000548Y012019D01*
X000546Y011950D01*
X000546Y001798D01*
X000547Y001798D02*
X000549Y001730D01*
X000555Y001662D01*
X000565Y001595D01*
X000578Y001529D01*
X000596Y001463D01*
X000617Y001399D01*
X000643Y001335D01*
X000671Y001274D01*
X000703Y001214D01*
X000739Y001156D01*
X000778Y001101D01*
X000820Y001047D01*
X000865Y000996D01*
X000913Y000948D01*
X000964Y000903D01*
X001018Y000861D01*
X001073Y000822D01*
X001131Y000786D01*
X001191Y000754D01*
X001252Y000726D01*
X001316Y000700D01*
X001380Y000679D01*
X001446Y000661D01*
X001512Y000648D01*
X001579Y000638D01*
X001647Y000632D01*
X001715Y000630D01*
X000942Y010219D02*
X000906Y010219D01*
X000906Y011328D02*
X000926Y011328D01*
X016483Y020786D02*
X017408Y019503D01*
X018364Y018243D01*
X019349Y017005D01*
X020363Y015792D01*
X021406Y014603D01*
X022477Y013439D01*
X023575Y012301D01*
X024700Y011189D01*
X025851Y010105D01*
X027028Y009048D01*
X028229Y008019D01*
D11*
X027859Y007202D02*
X027861Y007228D01*
X027867Y007254D01*
X027876Y007278D01*
X027889Y007301D01*
X027905Y007322D01*
X027924Y007340D01*
X027945Y007356D01*
X027969Y007368D01*
X027993Y007376D01*
X028019Y007381D01*
X028046Y007382D01*
X028072Y007379D01*
X028097Y007372D01*
X028121Y007362D01*
X028144Y007348D01*
X028164Y007332D01*
X028181Y007312D01*
X028196Y007290D01*
X028207Y007266D01*
X028215Y007241D01*
X028219Y007215D01*
X028219Y007189D01*
X028215Y007163D01*
X028207Y007138D01*
X028196Y007114D01*
X028181Y007092D01*
X028164Y007072D01*
X028144Y007056D01*
X028121Y007042D01*
X028097Y007032D01*
X028072Y007025D01*
X028046Y007022D01*
X028019Y007023D01*
X027993Y007028D01*
X027969Y007036D01*
X027945Y007048D01*
X027924Y007064D01*
X027905Y007082D01*
X027889Y007103D01*
X027876Y007126D01*
X027867Y007150D01*
X027861Y007176D01*
X027859Y007202D01*
X025315Y009616D02*
X025317Y009642D01*
X025323Y009668D01*
X025332Y009692D01*
X025345Y009715D01*
X025361Y009736D01*
X025380Y009754D01*
X025401Y009770D01*
X025425Y009782D01*
X025449Y009790D01*
X025475Y009795D01*
X025502Y009796D01*
X025528Y009793D01*
X025553Y009786D01*
X025577Y009776D01*
X025600Y009762D01*
X025620Y009746D01*
X025637Y009726D01*
X025652Y009704D01*
X025663Y009680D01*
X025671Y009655D01*
X025675Y009629D01*
X025675Y009603D01*
X025671Y009577D01*
X025663Y009552D01*
X025652Y009528D01*
X025637Y009506D01*
X025620Y009486D01*
X025600Y009470D01*
X025577Y009456D01*
X025553Y009446D01*
X025528Y009439D01*
X025502Y009436D01*
X025475Y009437D01*
X025449Y009442D01*
X025425Y009450D01*
X025401Y009462D01*
X025380Y009478D01*
X025361Y009496D01*
X025345Y009517D01*
X025332Y009540D01*
X025323Y009564D01*
X025317Y009590D01*
X025315Y009616D01*
X023814Y011364D02*
X023816Y011390D01*
X023822Y011416D01*
X023831Y011440D01*
X023844Y011463D01*
X023860Y011484D01*
X023879Y011502D01*
X023900Y011518D01*
X023924Y011530D01*
X023948Y011538D01*
X023974Y011543D01*
X024001Y011544D01*
X024027Y011541D01*
X024052Y011534D01*
X024076Y011524D01*
X024099Y011510D01*
X024119Y011494D01*
X024136Y011474D01*
X024151Y011452D01*
X024162Y011428D01*
X024170Y011403D01*
X024174Y011377D01*
X024174Y011351D01*
X024170Y011325D01*
X024162Y011300D01*
X024151Y011276D01*
X024136Y011254D01*
X024119Y011234D01*
X024099Y011218D01*
X024076Y011204D01*
X024052Y011194D01*
X024027Y011187D01*
X024001Y011184D01*
X023974Y011185D01*
X023948Y011190D01*
X023924Y011198D01*
X023900Y011210D01*
X023879Y011226D01*
X023860Y011244D01*
X023844Y011265D01*
X023831Y011288D01*
X023822Y011312D01*
X023816Y011338D01*
X023814Y011364D01*
X022002Y013016D02*
X022004Y013042D01*
X022010Y013068D01*
X022019Y013092D01*
X022032Y013115D01*
X022048Y013136D01*
X022067Y013154D01*
X022088Y013170D01*
X022112Y013182D01*
X022136Y013190D01*
X022162Y013195D01*
X022189Y013196D01*
X022215Y013193D01*
X022240Y013186D01*
X022264Y013176D01*
X022287Y013162D01*
X022307Y013146D01*
X022324Y013126D01*
X022339Y013104D01*
X022350Y013080D01*
X022358Y013055D01*
X022362Y013029D01*
X022362Y013003D01*
X022358Y012977D01*
X022350Y012952D01*
X022339Y012928D01*
X022324Y012906D01*
X022307Y012886D01*
X022287Y012870D01*
X022264Y012856D01*
X022240Y012846D01*
X022215Y012839D01*
X022189Y012836D01*
X022162Y012837D01*
X022136Y012842D01*
X022112Y012850D01*
X022088Y012862D01*
X022067Y012878D01*
X022048Y012896D01*
X022032Y012917D01*
X022019Y012940D01*
X022010Y012964D01*
X022004Y012990D01*
X022002Y013016D01*
X020961Y014116D02*
X020963Y014142D01*
X020969Y014168D01*
X020978Y014192D01*
X020991Y014215D01*
X021007Y014236D01*
X021026Y014254D01*
X021047Y014270D01*
X021071Y014282D01*
X021095Y014290D01*
X021121Y014295D01*
X021148Y014296D01*
X021174Y014293D01*
X021199Y014286D01*
X021223Y014276D01*
X021246Y014262D01*
X021266Y014246D01*
X021283Y014226D01*
X021298Y014204D01*
X021309Y014180D01*
X021317Y014155D01*
X021321Y014129D01*
X021321Y014103D01*
X021317Y014077D01*
X021309Y014052D01*
X021298Y014028D01*
X021283Y014006D01*
X021266Y013986D01*
X021246Y013970D01*
X021223Y013956D01*
X021199Y013946D01*
X021174Y013939D01*
X021148Y013936D01*
X021121Y013937D01*
X021095Y013942D01*
X021071Y013950D01*
X021047Y013962D01*
X021026Y013978D01*
X021007Y013996D01*
X020991Y014017D01*
X020978Y014040D01*
X020969Y014064D01*
X020963Y014090D01*
X020961Y014116D01*
X019848Y015511D02*
X019850Y015537D01*
X019856Y015563D01*
X019865Y015587D01*
X019878Y015610D01*
X019894Y015631D01*
X019913Y015649D01*
X019934Y015665D01*
X019958Y015677D01*
X019982Y015685D01*
X020008Y015690D01*
X020035Y015691D01*
X020061Y015688D01*
X020086Y015681D01*
X020110Y015671D01*
X020133Y015657D01*
X020153Y015641D01*
X020170Y015621D01*
X020185Y015599D01*
X020196Y015575D01*
X020204Y015550D01*
X020208Y015524D01*
X020208Y015498D01*
X020204Y015472D01*
X020196Y015447D01*
X020185Y015423D01*
X020170Y015401D01*
X020153Y015381D01*
X020133Y015365D01*
X020110Y015351D01*
X020086Y015341D01*
X020061Y015334D01*
X020035Y015331D01*
X020008Y015332D01*
X019982Y015337D01*
X019958Y015345D01*
X019934Y015357D01*
X019913Y015373D01*
X019894Y015391D01*
X019878Y015412D01*
X019865Y015435D01*
X019856Y015459D01*
X019850Y015485D01*
X019848Y015511D01*
X018867Y016492D02*
X018869Y016518D01*
X018875Y016544D01*
X018884Y016568D01*
X018897Y016591D01*
X018913Y016612D01*
X018932Y016630D01*
X018953Y016646D01*
X018977Y016658D01*
X019001Y016666D01*
X019027Y016671D01*
X019054Y016672D01*
X019080Y016669D01*
X019105Y016662D01*
X019129Y016652D01*
X019152Y016638D01*
X019172Y016622D01*
X019189Y016602D01*
X019204Y016580D01*
X019215Y016556D01*
X019223Y016531D01*
X019227Y016505D01*
X019227Y016479D01*
X019223Y016453D01*
X019215Y016428D01*
X019204Y016404D01*
X019189Y016382D01*
X019172Y016362D01*
X019152Y016346D01*
X019129Y016332D01*
X019105Y016322D01*
X019080Y016315D01*
X019054Y016312D01*
X019027Y016313D01*
X019001Y016318D01*
X018977Y016326D01*
X018953Y016338D01*
X018932Y016354D01*
X018913Y016372D01*
X018897Y016393D01*
X018884Y016416D01*
X018875Y016440D01*
X018869Y016466D01*
X018867Y016492D01*
X015123Y020629D02*
X015125Y020655D01*
X015131Y020681D01*
X015140Y020705D01*
X015153Y020728D01*
X015169Y020749D01*
X015188Y020767D01*
X015209Y020783D01*
X015233Y020795D01*
X015257Y020803D01*
X015283Y020808D01*
X015310Y020809D01*
X015336Y020806D01*
X015361Y020799D01*
X015385Y020789D01*
X015408Y020775D01*
X015428Y020759D01*
X015445Y020739D01*
X015460Y020717D01*
X015471Y020693D01*
X015479Y020668D01*
X015483Y020642D01*
X015483Y020616D01*
X015479Y020590D01*
X015471Y020565D01*
X015460Y020541D01*
X015445Y020519D01*
X015428Y020499D01*
X015408Y020483D01*
X015385Y020469D01*
X015361Y020459D01*
X015336Y020452D01*
X015310Y020449D01*
X015283Y020450D01*
X015257Y020455D01*
X015233Y020463D01*
X015209Y020475D01*
X015188Y020491D01*
X015169Y020509D01*
X015153Y020530D01*
X015140Y020553D01*
X015131Y020577D01*
X015125Y020603D01*
X015123Y020629D01*
X012293Y018901D02*
X012295Y018927D01*
X012301Y018953D01*
X012310Y018977D01*
X012323Y019000D01*
X012339Y019021D01*
X012358Y019039D01*
X012379Y019055D01*
X012403Y019067D01*
X012427Y019075D01*
X012453Y019080D01*
X012480Y019081D01*
X012506Y019078D01*
X012531Y019071D01*
X012555Y019061D01*
X012578Y019047D01*
X012598Y019031D01*
X012615Y019011D01*
X012630Y018989D01*
X012641Y018965D01*
X012649Y018940D01*
X012653Y018914D01*
X012653Y018888D01*
X012649Y018862D01*
X012641Y018837D01*
X012630Y018813D01*
X012615Y018791D01*
X012598Y018771D01*
X012578Y018755D01*
X012555Y018741D01*
X012531Y018731D01*
X012506Y018724D01*
X012480Y018721D01*
X012453Y018722D01*
X012427Y018727D01*
X012403Y018735D01*
X012379Y018747D01*
X012358Y018763D01*
X012339Y018781D01*
X012323Y018802D01*
X012310Y018825D01*
X012301Y018849D01*
X012295Y018875D01*
X012293Y018901D01*
X011496Y016853D02*
X011498Y016879D01*
X011504Y016905D01*
X011513Y016929D01*
X011526Y016952D01*
X011542Y016973D01*
X011561Y016991D01*
X011582Y017007D01*
X011606Y017019D01*
X011630Y017027D01*
X011656Y017032D01*
X011683Y017033D01*
X011709Y017030D01*
X011734Y017023D01*
X011758Y017013D01*
X011781Y016999D01*
X011801Y016983D01*
X011818Y016963D01*
X011833Y016941D01*
X011844Y016917D01*
X011852Y016892D01*
X011856Y016866D01*
X011856Y016840D01*
X011852Y016814D01*
X011844Y016789D01*
X011833Y016765D01*
X011818Y016743D01*
X011801Y016723D01*
X011781Y016707D01*
X011758Y016693D01*
X011734Y016683D01*
X011709Y016676D01*
X011683Y016673D01*
X011656Y016674D01*
X011630Y016679D01*
X011606Y016687D01*
X011582Y016699D01*
X011561Y016715D01*
X011542Y016733D01*
X011526Y016754D01*
X011513Y016777D01*
X011504Y016801D01*
X011498Y016827D01*
X011496Y016853D01*
X005985Y012739D02*
X005987Y012762D01*
X005993Y012783D01*
X006002Y012804D01*
X006015Y012823D01*
X006031Y012839D01*
X006050Y012852D01*
X006071Y012861D01*
X006092Y012867D01*
X006115Y012869D01*
X006138Y012867D01*
X006159Y012861D01*
X006180Y012852D01*
X006199Y012839D01*
X006215Y012823D01*
X006228Y012804D01*
X006237Y012783D01*
X006243Y012762D01*
X006245Y012739D01*
X006243Y012716D01*
X006237Y012695D01*
X006228Y012674D01*
X006215Y012655D01*
X006199Y012639D01*
X006180Y012626D01*
X006159Y012617D01*
X006138Y012611D01*
X006115Y012609D01*
X006092Y012611D01*
X006071Y012617D01*
X006050Y012626D01*
X006031Y012639D01*
X006015Y012655D01*
X006002Y012674D01*
X005993Y012695D01*
X005987Y012716D01*
X005985Y012739D01*
X008295Y011260D02*
X008297Y011283D01*
X008303Y011304D01*
X008312Y011325D01*
X008325Y011344D01*
X008341Y011360D01*
X008360Y011373D01*
X008381Y011382D01*
X008402Y011388D01*
X008425Y011390D01*
X008448Y011388D01*
X008469Y011382D01*
X008490Y011373D01*
X008509Y011360D01*
X008525Y011344D01*
X008538Y011325D01*
X008547Y011304D01*
X008553Y011283D01*
X008555Y011260D01*
X008553Y011237D01*
X008547Y011216D01*
X008538Y011195D01*
X008525Y011176D01*
X008509Y011160D01*
X008490Y011147D01*
X008469Y011138D01*
X008448Y011132D01*
X008425Y011130D01*
X008402Y011132D01*
X008381Y011138D01*
X008360Y011147D01*
X008341Y011160D01*
X008325Y011176D01*
X008312Y011195D01*
X008303Y011216D01*
X008297Y011237D01*
X008295Y011260D01*
X008135Y009719D02*
X008137Y009742D01*
X008143Y009763D01*
X008152Y009784D01*
X008165Y009803D01*
X008181Y009819D01*
X008200Y009832D01*
X008221Y009841D01*
X008242Y009847D01*
X008265Y009849D01*
X008288Y009847D01*
X008309Y009841D01*
X008330Y009832D01*
X008349Y009819D01*
X008365Y009803D01*
X008378Y009784D01*
X008387Y009763D01*
X008393Y009742D01*
X008395Y009719D01*
X008393Y009696D01*
X008387Y009675D01*
X008378Y009654D01*
X008365Y009635D01*
X008349Y009619D01*
X008330Y009606D01*
X008309Y009597D01*
X008288Y009591D01*
X008265Y009589D01*
X008242Y009591D01*
X008221Y009597D01*
X008200Y009606D01*
X008181Y009619D01*
X008165Y009635D01*
X008152Y009654D01*
X008143Y009675D01*
X008137Y009696D01*
X008135Y009719D01*
X010524Y007483D02*
X010526Y007509D01*
X010532Y007535D01*
X010541Y007559D01*
X010554Y007582D01*
X010570Y007603D01*
X010589Y007621D01*
X010610Y007637D01*
X010634Y007649D01*
X010658Y007657D01*
X010684Y007662D01*
X010711Y007663D01*
X010737Y007660D01*
X010762Y007653D01*
X010786Y007643D01*
X010809Y007629D01*
X010829Y007613D01*
X010846Y007593D01*
X010861Y007571D01*
X010872Y007547D01*
X010880Y007522D01*
X010884Y007496D01*
X010884Y007470D01*
X010880Y007444D01*
X010872Y007419D01*
X010861Y007395D01*
X010846Y007373D01*
X010829Y007353D01*
X010809Y007337D01*
X010786Y007323D01*
X010762Y007313D01*
X010737Y007306D01*
X010711Y007303D01*
X010684Y007304D01*
X010658Y007309D01*
X010634Y007317D01*
X010610Y007329D01*
X010589Y007345D01*
X010570Y007363D01*
X010554Y007384D01*
X010541Y007407D01*
X010532Y007431D01*
X010526Y007457D01*
X010524Y007483D01*
X008135Y005419D02*
X008137Y005442D01*
X008143Y005463D01*
X008152Y005484D01*
X008165Y005503D01*
X008181Y005519D01*
X008200Y005532D01*
X008221Y005541D01*
X008242Y005547D01*
X008265Y005549D01*
X008288Y005547D01*
X008309Y005541D01*
X008330Y005532D01*
X008349Y005519D01*
X008365Y005503D01*
X008378Y005484D01*
X008387Y005463D01*
X008393Y005442D01*
X008395Y005419D01*
X008393Y005396D01*
X008387Y005375D01*
X008378Y005354D01*
X008365Y005335D01*
X008349Y005319D01*
X008330Y005306D01*
X008309Y005297D01*
X008288Y005291D01*
X008265Y005289D01*
X008242Y005291D01*
X008221Y005297D01*
X008200Y005306D01*
X008181Y005319D01*
X008165Y005335D01*
X008152Y005354D01*
X008143Y005375D01*
X008137Y005396D01*
X008135Y005419D01*
X007995Y001524D02*
X007997Y001547D01*
X008003Y001568D01*
X008012Y001589D01*
X008025Y001608D01*
X008041Y001624D01*
X008060Y001637D01*
X008081Y001646D01*
X008102Y001652D01*
X008125Y001654D01*
X008148Y001652D01*
X008169Y001646D01*
X008190Y001637D01*
X008209Y001624D01*
X008225Y001608D01*
X008238Y001589D01*
X008247Y001568D01*
X008253Y001547D01*
X008255Y001524D01*
X008253Y001501D01*
X008247Y001480D01*
X008238Y001459D01*
X008225Y001440D01*
X008209Y001424D01*
X008190Y001411D01*
X008169Y001402D01*
X008148Y001396D01*
X008125Y001394D01*
X008102Y001396D01*
X008081Y001402D01*
X008060Y001411D01*
X008041Y001424D01*
X008025Y001440D01*
X008012Y001459D01*
X008003Y001480D01*
X007997Y001501D01*
X007995Y001524D01*
X005286Y001024D02*
X005288Y001047D01*
X005294Y001068D01*
X005303Y001089D01*
X005316Y001108D01*
X005332Y001124D01*
X005351Y001137D01*
X005372Y001146D01*
X005393Y001152D01*
X005416Y001154D01*
X005439Y001152D01*
X005460Y001146D01*
X005481Y001137D01*
X005500Y001124D01*
X005516Y001108D01*
X005529Y001089D01*
X005538Y001068D01*
X005544Y001047D01*
X005546Y001024D01*
X005544Y001001D01*
X005538Y000980D01*
X005529Y000959D01*
X005516Y000940D01*
X005500Y000924D01*
X005481Y000911D01*
X005460Y000902D01*
X005439Y000896D01*
X005416Y000894D01*
X005393Y000896D01*
X005372Y000902D01*
X005351Y000911D01*
X005332Y000924D01*
X005316Y000940D01*
X005303Y000959D01*
X005294Y000980D01*
X005288Y001001D01*
X005286Y001024D01*
X001749Y001040D02*
X001751Y001066D01*
X001757Y001092D01*
X001766Y001116D01*
X001779Y001139D01*
X001795Y001160D01*
X001814Y001178D01*
X001835Y001194D01*
X001859Y001206D01*
X001883Y001214D01*
X001909Y001219D01*
X001936Y001220D01*
X001962Y001217D01*
X001987Y001210D01*
X002011Y001200D01*
X002034Y001186D01*
X002054Y001170D01*
X002071Y001150D01*
X002086Y001128D01*
X002097Y001104D01*
X002105Y001079D01*
X002109Y001053D01*
X002109Y001027D01*
X002105Y001001D01*
X002097Y000976D01*
X002086Y000952D01*
X002071Y000930D01*
X002054Y000910D01*
X002034Y000894D01*
X002011Y000880D01*
X001987Y000870D01*
X001962Y000863D01*
X001936Y000860D01*
X001909Y000861D01*
X001883Y000866D01*
X001859Y000874D01*
X001835Y000886D01*
X001814Y000902D01*
X001795Y000920D01*
X001779Y000941D01*
X001766Y000964D01*
X001757Y000988D01*
X001751Y001014D01*
X001749Y001040D01*
X000962Y007096D02*
X000964Y007119D01*
X000970Y007140D01*
X000979Y007161D01*
X000992Y007180D01*
X001008Y007196D01*
X001027Y007209D01*
X001048Y007218D01*
X001069Y007224D01*
X001092Y007226D01*
X001115Y007224D01*
X001136Y007218D01*
X001157Y007209D01*
X001176Y007196D01*
X001192Y007180D01*
X001205Y007161D01*
X001214Y007140D01*
X001220Y007119D01*
X001222Y007096D01*
X001220Y007073D01*
X001214Y007052D01*
X001205Y007031D01*
X001192Y007012D01*
X001176Y006996D01*
X001157Y006983D01*
X001136Y006974D01*
X001115Y006968D01*
X001092Y006966D01*
X001069Y006968D01*
X001048Y006974D01*
X001027Y006983D01*
X001008Y006996D01*
X000992Y007012D01*
X000979Y007031D01*
X000970Y007052D01*
X000964Y007073D01*
X000962Y007096D01*
X001730Y012810D02*
X001732Y012833D01*
X001738Y012854D01*
X001747Y012875D01*
X001760Y012894D01*
X001776Y012910D01*
X001795Y012923D01*
X001816Y012932D01*
X001837Y012938D01*
X001860Y012940D01*
X001883Y012938D01*
X001904Y012932D01*
X001925Y012923D01*
X001944Y012910D01*
X001960Y012894D01*
X001973Y012875D01*
X001982Y012854D01*
X001988Y012833D01*
X001990Y012810D01*
X001988Y012787D01*
X001982Y012766D01*
X001973Y012745D01*
X001960Y012726D01*
X001944Y012710D01*
X001925Y012697D01*
X001904Y012688D01*
X001883Y012682D01*
X001860Y012680D01*
X001837Y012682D01*
X001816Y012688D01*
X001795Y012697D01*
X001776Y012710D01*
X001760Y012726D01*
X001747Y012745D01*
X001738Y012766D01*
X001732Y012787D01*
X001730Y012810D01*
X010755Y011967D02*
X010757Y011993D01*
X010763Y012019D01*
X010772Y012043D01*
X010785Y012066D01*
X010801Y012087D01*
X010820Y012105D01*
X010841Y012121D01*
X010865Y012133D01*
X010889Y012141D01*
X010915Y012146D01*
X010942Y012147D01*
X010968Y012144D01*
X010993Y012137D01*
X011017Y012127D01*
X011040Y012113D01*
X011060Y012097D01*
X011077Y012077D01*
X011092Y012055D01*
X011103Y012031D01*
X011111Y012006D01*
X011115Y011980D01*
X011115Y011954D01*
X011111Y011928D01*
X011103Y011903D01*
X011092Y011879D01*
X011077Y011857D01*
X011060Y011837D01*
X011040Y011821D01*
X011017Y011807D01*
X010993Y011797D01*
X010968Y011790D01*
X010942Y011787D01*
X010915Y011788D01*
X010889Y011793D01*
X010865Y011801D01*
X010841Y011813D01*
X010820Y011829D01*
X010801Y011847D01*
X010785Y011868D01*
X010772Y011891D01*
X010763Y011915D01*
X010757Y011941D01*
X010755Y011967D01*
X021299Y005309D02*
X021301Y005335D01*
X021307Y005361D01*
X021316Y005385D01*
X021329Y005408D01*
X021345Y005429D01*
X021364Y005447D01*
X021385Y005463D01*
X021409Y005475D01*
X021433Y005483D01*
X021459Y005488D01*
X021486Y005489D01*
X021512Y005486D01*
X021537Y005479D01*
X021561Y005469D01*
X021584Y005455D01*
X021604Y005439D01*
X021621Y005419D01*
X021636Y005397D01*
X021647Y005373D01*
X021655Y005348D01*
X021659Y005322D01*
X021659Y005296D01*
X021655Y005270D01*
X021647Y005245D01*
X021636Y005221D01*
X021621Y005199D01*
X021604Y005179D01*
X021584Y005163D01*
X021561Y005149D01*
X021537Y005139D01*
X021512Y005132D01*
X021486Y005129D01*
X021459Y005130D01*
X021433Y005135D01*
X021409Y005143D01*
X021385Y005155D01*
X021364Y005171D01*
X021345Y005189D01*
X021329Y005210D01*
X021316Y005233D01*
X021307Y005257D01*
X021301Y005283D01*
X021299Y005309D01*
X024138Y005318D02*
X024140Y005344D01*
X024146Y005370D01*
X024155Y005394D01*
X024168Y005417D01*
X024184Y005438D01*
X024203Y005456D01*
X024224Y005472D01*
X024248Y005484D01*
X024272Y005492D01*
X024298Y005497D01*
X024325Y005498D01*
X024351Y005495D01*
X024376Y005488D01*
X024400Y005478D01*
X024423Y005464D01*
X024443Y005448D01*
X024460Y005428D01*
X024475Y005406D01*
X024486Y005382D01*
X024494Y005357D01*
X024498Y005331D01*
X024498Y005305D01*
X024494Y005279D01*
X024486Y005254D01*
X024475Y005230D01*
X024460Y005208D01*
X024443Y005188D01*
X024423Y005172D01*
X024400Y005158D01*
X024376Y005148D01*
X024351Y005141D01*
X024325Y005138D01*
X024298Y005139D01*
X024272Y005144D01*
X024248Y005152D01*
X024224Y005164D01*
X024203Y005180D01*
X024184Y005198D01*
X024168Y005219D01*
X024155Y005242D01*
X024146Y005266D01*
X024140Y005292D01*
X024138Y005318D01*
X026611Y003885D02*
X026613Y003911D01*
X026619Y003937D01*
X026628Y003961D01*
X026641Y003984D01*
X026657Y004005D01*
X026676Y004023D01*
X026697Y004039D01*
X026721Y004051D01*
X026745Y004059D01*
X026771Y004064D01*
X026798Y004065D01*
X026824Y004062D01*
X026849Y004055D01*
X026873Y004045D01*
X026896Y004031D01*
X026916Y004015D01*
X026933Y003995D01*
X026948Y003973D01*
X026959Y003949D01*
X026967Y003924D01*
X026971Y003898D01*
X026971Y003872D01*
X026967Y003846D01*
X026959Y003821D01*
X026948Y003797D01*
X026933Y003775D01*
X026916Y003755D01*
X026896Y003739D01*
X026873Y003725D01*
X026849Y003715D01*
X026824Y003708D01*
X026798Y003705D01*
X026771Y003706D01*
X026745Y003711D01*
X026721Y003719D01*
X026697Y003731D01*
X026676Y003747D01*
X026657Y003765D01*
X026641Y003786D01*
X026628Y003809D01*
X026619Y003833D01*
X026613Y003859D01*
X026611Y003885D01*
X016698Y003306D02*
X016700Y003332D01*
X016706Y003358D01*
X016715Y003382D01*
X016728Y003405D01*
X016744Y003426D01*
X016763Y003444D01*
X016784Y003460D01*
X016808Y003472D01*
X016832Y003480D01*
X016858Y003485D01*
X016885Y003486D01*
X016911Y003483D01*
X016936Y003476D01*
X016960Y003466D01*
X016983Y003452D01*
X017003Y003436D01*
X017020Y003416D01*
X017035Y003394D01*
X017046Y003370D01*
X017054Y003345D01*
X017058Y003319D01*
X017058Y003293D01*
X017054Y003267D01*
X017046Y003242D01*
X017035Y003218D01*
X017020Y003196D01*
X017003Y003176D01*
X016983Y003160D01*
X016960Y003146D01*
X016936Y003136D01*
X016911Y003129D01*
X016885Y003126D01*
X016858Y003127D01*
X016832Y003132D01*
X016808Y003140D01*
X016784Y003152D01*
X016763Y003168D01*
X016744Y003186D01*
X016728Y003207D01*
X016715Y003230D01*
X016706Y003254D01*
X016700Y003280D01*
X016698Y003306D01*
X014336Y002519D02*
X014338Y002545D01*
X014344Y002571D01*
X014353Y002595D01*
X014366Y002618D01*
X014382Y002639D01*
X014401Y002657D01*
X014422Y002673D01*
X014446Y002685D01*
X014470Y002693D01*
X014496Y002698D01*
X014523Y002699D01*
X014549Y002696D01*
X014574Y002689D01*
X014598Y002679D01*
X014621Y002665D01*
X014641Y002649D01*
X014658Y002629D01*
X014673Y002607D01*
X014684Y002583D01*
X014692Y002558D01*
X014696Y002532D01*
X014696Y002506D01*
X014692Y002480D01*
X014684Y002455D01*
X014673Y002431D01*
X014658Y002409D01*
X014641Y002389D01*
X014621Y002373D01*
X014598Y002359D01*
X014574Y002349D01*
X014549Y002342D01*
X014523Y002339D01*
X014496Y002340D01*
X014470Y002345D01*
X014446Y002353D01*
X014422Y002365D01*
X014401Y002381D01*
X014382Y002399D01*
X014366Y002420D01*
X014353Y002443D01*
X014344Y002467D01*
X014338Y002493D01*
X014336Y002519D01*
X011232Y001425D02*
X011234Y001451D01*
X011240Y001477D01*
X011249Y001501D01*
X011262Y001524D01*
X011278Y001545D01*
X011297Y001563D01*
X011318Y001579D01*
X011342Y001591D01*
X011366Y001599D01*
X011392Y001604D01*
X011419Y001605D01*
X011445Y001602D01*
X011470Y001595D01*
X011494Y001585D01*
X011517Y001571D01*
X011537Y001555D01*
X011554Y001535D01*
X011569Y001513D01*
X011580Y001489D01*
X011588Y001464D01*
X011592Y001438D01*
X011592Y001412D01*
X011588Y001386D01*
X011580Y001361D01*
X011569Y001337D01*
X011554Y001315D01*
X011537Y001295D01*
X011517Y001279D01*
X011494Y001265D01*
X011470Y001255D01*
X011445Y001248D01*
X011419Y001245D01*
X011392Y001246D01*
X011366Y001251D01*
X011342Y001259D01*
X011318Y001271D01*
X011297Y001287D01*
X011278Y001305D01*
X011262Y001326D01*
X011249Y001349D01*
X011240Y001373D01*
X011234Y001399D01*
X011232Y001425D01*
D12*
X013003Y006577D02*
X013223Y006577D01*
X013223Y006650D02*
X013223Y006503D01*
X013076Y006650D02*
X013003Y006577D01*
X012534Y007511D02*
X012534Y007658D01*
X012387Y007511D01*
X012351Y007511D01*
X012314Y007548D01*
X012314Y007621D01*
X012351Y007658D01*
X012663Y012199D02*
X012663Y012346D01*
X012663Y012272D02*
X012443Y012272D01*
X012517Y012346D01*
X012502Y012950D02*
X012466Y012987D01*
X012466Y013060D01*
X012502Y013097D01*
X012502Y012950D02*
X012539Y012950D01*
X012686Y013097D01*
X012686Y012950D01*
X015454Y018650D02*
X015600Y018650D01*
X015527Y018650D02*
X015527Y018870D01*
X015600Y018797D01*
X016417Y018810D02*
X016564Y018663D01*
X016417Y018663D01*
X016417Y018810D02*
X016417Y018847D01*
X016454Y018883D01*
X016527Y018883D01*
X016564Y018847D01*
D13*
X007764Y012469D03*
X006898Y012459D03*
D14*
X023867Y010073D03*
X024867Y010073D03*
X025576Y008590D03*
X026576Y008590D03*
D15*
X001201Y004582D03*
X001222Y003233D03*
X001207Y001971D03*
D16*
X001178Y009786D03*
X002477Y009786D03*
X002477Y010770D03*
X002477Y011754D03*
X001178Y011754D03*
X001178Y010770D03*
D17*
X012766Y008310D03*
X012766Y007200D03*
X012766Y006250D03*
X013256Y012300D03*
X013266Y013050D03*
X013266Y013800D03*
D18*
X015516Y018050D03*
X016516Y018050D03*
X017516Y018050D03*
D19*
X012219Y005273D03*
X012236Y004402D03*
X012333Y003720D03*
X012482Y003069D03*
X012659Y002393D03*
D20*
X011566Y003074D03*
X011568Y004025D03*
X014155Y005047D03*
X015928Y005241D03*
X017023Y006657D03*
X017026Y008096D03*
X016006Y008918D03*
X013585Y008308D03*
X011166Y009850D03*
X012428Y011511D03*
X014966Y011150D03*
X015646Y011290D03*
X015266Y013450D03*
X017855Y013461D03*
X019152Y013450D03*
X019866Y013450D03*
X018649Y014531D03*
X016735Y016460D03*
X018057Y017849D03*
X015679Y019264D03*
X021566Y011950D03*
X018766Y011450D03*
X018768Y011059D03*
X018757Y010661D03*
X018724Y010237D03*
X018784Y009850D03*
X018821Y009450D03*
X021006Y009310D03*
X023780Y006717D03*
X006866Y003170D03*
X006466Y002430D03*
X005401Y004808D03*
X006152Y008193D03*
X004766Y008660D03*
X003168Y008442D03*
X003866Y011750D03*
D21*
X006396Y010100D03*
X006466Y011250D03*
X002236Y005540D03*
D22*
X010551Y006066D02*
X011487Y006066D01*
X011487Y005968D02*
X010558Y005968D01*
X010564Y005869D02*
X011487Y005869D01*
X011486Y005771D02*
X010571Y005771D01*
X010577Y005672D02*
X011486Y005672D01*
X011486Y005574D02*
X010584Y005574D01*
X010590Y005475D02*
X011485Y005475D01*
X011485Y005377D02*
X010597Y005377D01*
X010603Y005278D02*
X011485Y005278D01*
X011484Y005180D02*
X010610Y005180D01*
X010616Y005081D02*
X011484Y005081D01*
X011484Y004983D02*
X010623Y004983D01*
X010629Y004884D02*
X011483Y004884D01*
X011483Y004887D02*
X011483Y004799D01*
X011486Y004796D01*
X011486Y004792D01*
X011550Y004732D01*
X011612Y004670D01*
X011616Y004670D01*
X011618Y004667D01*
X011706Y004670D01*
X011794Y004669D01*
X011797Y004672D01*
X011908Y004675D01*
X011872Y004625D01*
X011842Y004565D01*
X011821Y004502D01*
X011811Y004440D01*
X012198Y004440D01*
X012198Y004365D01*
X011811Y004365D01*
X011821Y004303D01*
X011842Y004239D01*
X011872Y004179D01*
X011911Y004125D01*
X011959Y004078D01*
X012013Y004039D01*
X012020Y004035D01*
X011956Y003972D01*
X011888Y003808D01*
X011888Y003631D01*
X011956Y003468D01*
X012081Y003343D01*
X012113Y003330D01*
X012105Y003321D01*
X012037Y003158D01*
X012037Y002981D01*
X012105Y002817D01*
X012230Y002692D01*
X012299Y002663D01*
X012281Y002645D01*
X012214Y002482D01*
X012214Y002305D01*
X012281Y002141D01*
X012407Y002016D01*
X012570Y001948D01*
X012747Y001948D01*
X012911Y002016D01*
X013036Y002141D01*
X013104Y002305D01*
X013104Y002482D01*
X013036Y002645D01*
X012911Y002770D01*
X012841Y002799D01*
X012859Y002817D01*
X012927Y002981D01*
X012927Y003158D01*
X012859Y003321D01*
X012734Y003447D01*
X012703Y003460D01*
X012711Y003468D01*
X012778Y003631D01*
X012778Y003808D01*
X012711Y003972D01*
X012586Y004097D01*
X012547Y004113D01*
X012560Y004125D01*
X012599Y004179D01*
X012629Y004239D01*
X012650Y004303D01*
X012660Y004365D01*
X012273Y004365D01*
X012273Y004440D01*
X012660Y004440D01*
X012650Y004502D01*
X012629Y004565D01*
X012599Y004625D01*
X012560Y004679D01*
X012556Y004683D01*
X018742Y004685D01*
X018831Y004684D01*
X018833Y004685D01*
X018835Y004685D01*
X018898Y004748D01*
X018962Y004811D01*
X018962Y004813D01*
X018964Y004814D01*
X018964Y004904D01*
X018983Y006157D01*
X023989Y006107D01*
X023993Y006103D01*
X024080Y006106D01*
X024167Y006105D01*
X024170Y006108D01*
X024175Y006108D01*
X024235Y006171D01*
X024297Y006232D01*
X024297Y006237D01*
X024300Y006241D01*
X024298Y006328D01*
X024299Y006415D01*
X024295Y006418D01*
X024275Y007145D01*
X024275Y007233D01*
X024273Y007236D01*
X024273Y007239D01*
X024209Y007300D01*
X024146Y007362D01*
X024143Y007362D01*
X024140Y007364D01*
X024052Y007362D01*
X020065Y007360D01*
X020065Y011288D01*
X021943Y011288D01*
X022072Y011417D01*
X022072Y012349D01*
X021943Y012477D01*
X018992Y012477D01*
X018990Y013166D01*
X019088Y013125D01*
X019217Y013125D01*
X019337Y013174D01*
X019382Y013220D01*
X019637Y013220D01*
X019682Y013174D01*
X019802Y013125D01*
X019931Y013125D01*
X020050Y013174D01*
X020142Y013266D01*
X020191Y013385D01*
X020191Y013515D01*
X020142Y013634D01*
X020050Y013726D01*
X019931Y013775D01*
X019802Y013775D01*
X019682Y013726D01*
X019637Y013680D01*
X019382Y013680D01*
X019337Y013726D01*
X019217Y013775D01*
X019088Y013775D01*
X018988Y013734D01*
X018987Y013829D01*
X018988Y013922D01*
X018987Y013924D01*
X018987Y013926D01*
X018921Y013991D01*
X018711Y014206D01*
X018714Y014206D01*
X018833Y014256D01*
X018925Y014347D01*
X018974Y014466D01*
X018974Y014596D01*
X018925Y014715D01*
X018833Y014807D01*
X018714Y014856D01*
X018584Y014856D01*
X018465Y014807D01*
X018417Y014758D01*
X017425Y014747D01*
X016972Y015206D01*
X016966Y016231D01*
X017011Y016276D01*
X017060Y016395D01*
X017060Y016525D01*
X017011Y016644D01*
X016919Y016735D01*
X016800Y016785D01*
X016671Y016785D01*
X016625Y016766D01*
X016688Y016830D01*
X016754Y016896D01*
X016754Y016897D01*
X016755Y016898D01*
X016755Y016992D01*
X016755Y017086D01*
X016754Y017087D01*
X016752Y017380D01*
X016837Y017380D01*
X016936Y017480D01*
X016936Y018620D01*
X016837Y018720D01*
X016824Y018720D01*
X016824Y018984D01*
X016821Y019006D01*
X016815Y019028D01*
X016807Y019048D01*
X016795Y019068D01*
X017311Y019068D01*
X017387Y018970D02*
X016824Y018970D01*
X016824Y018871D02*
X017463Y018871D01*
X017539Y018773D02*
X016824Y018773D01*
X016883Y018674D02*
X017181Y018674D01*
X017174Y018670D02*
X017146Y018642D01*
X017126Y018608D01*
X017116Y018570D01*
X017116Y018100D01*
X017466Y018100D01*
X017466Y018000D01*
X017116Y018000D01*
X017116Y017530D01*
X017126Y017492D01*
X017146Y017458D01*
X017174Y017430D01*
X017208Y017410D01*
X017247Y017400D01*
X017466Y017400D01*
X017466Y018000D01*
X017566Y018000D01*
X017566Y017400D01*
X017786Y017400D01*
X017824Y017410D01*
X017858Y017430D01*
X017886Y017458D01*
X017906Y017492D01*
X018525Y017492D01*
X018449Y017591D02*
X017916Y017591D01*
X017916Y017530D02*
X017916Y018000D01*
X017566Y018000D01*
X017566Y018100D01*
X017466Y018100D01*
X017466Y018700D01*
X017247Y018700D01*
X017208Y018690D01*
X017174Y018670D01*
X017118Y018576D02*
X016936Y018576D01*
X016936Y018477D02*
X017116Y018477D01*
X017116Y018379D02*
X016936Y018379D01*
X016936Y018280D02*
X017116Y018280D01*
X017116Y018182D02*
X016936Y018182D01*
X016936Y018083D02*
X017466Y018083D01*
X017466Y017985D02*
X017566Y017985D01*
X017566Y018083D02*
X018070Y018083D01*
X018146Y017985D02*
X017916Y017985D01*
X017916Y017886D02*
X018222Y017886D01*
X018298Y017788D02*
X017916Y017788D01*
X017916Y017689D02*
X018373Y017689D01*
X018601Y017394D02*
X016850Y017394D01*
X016936Y017492D02*
X017127Y017492D01*
X017116Y017591D02*
X016936Y017591D01*
X016936Y017689D02*
X017116Y017689D01*
X017116Y017788D02*
X016936Y017788D01*
X016936Y017886D02*
X017116Y017886D01*
X017116Y017985D02*
X016936Y017985D01*
X017466Y017886D02*
X017566Y017886D01*
X017566Y017788D02*
X017466Y017788D01*
X017466Y017689D02*
X017566Y017689D01*
X017566Y017591D02*
X017466Y017591D01*
X017466Y017492D02*
X017566Y017492D01*
X017906Y017492D02*
X017916Y017530D01*
X017916Y018100D02*
X017566Y018100D01*
X017566Y018700D01*
X017594Y018700D01*
X017051Y019405D01*
X017051Y019405D01*
X016225Y020580D01*
X016135Y020673D01*
X015909Y020829D01*
X015650Y020919D01*
X015619Y020921D01*
X015668Y020872D01*
X015733Y020714D01*
X015733Y020543D01*
X015668Y020385D01*
X015547Y020264D01*
X015389Y020199D01*
X015218Y020199D01*
X015060Y020264D01*
X014939Y020385D01*
X014873Y020543D01*
X014873Y020714D01*
X014891Y020757D01*
X013965Y020175D01*
X015428Y019643D01*
X015487Y019516D01*
X015347Y019130D01*
X015702Y019130D01*
X015724Y019127D01*
X015745Y019121D01*
X015766Y019113D01*
X015785Y019101D01*
X015803Y019088D01*
X015818Y019072D01*
X015832Y019054D01*
X015843Y019035D01*
X015852Y019015D01*
X015857Y018993D01*
X015860Y018971D01*
X015860Y018696D01*
X015936Y018620D01*
X015936Y017480D01*
X015837Y017380D01*
X015746Y017380D01*
X015746Y015558D01*
X015857Y015448D01*
X015862Y016563D01*
X015862Y016657D01*
X015863Y016657D01*
X015863Y016658D01*
X015930Y016725D01*
X016294Y017087D01*
X016292Y017380D01*
X016196Y017380D01*
X016096Y017480D01*
X016096Y018620D01*
X016130Y018655D01*
X016130Y018984D01*
X016133Y019006D01*
X016139Y019028D01*
X016148Y019048D01*
X016159Y019068D01*
X015822Y019068D01*
X015860Y018970D02*
X016130Y018970D01*
X016130Y018871D02*
X015860Y018871D01*
X015860Y018773D02*
X016130Y018773D01*
X016130Y018674D02*
X015883Y018674D01*
X015936Y018576D02*
X016096Y018576D01*
X016096Y018477D02*
X015936Y018477D01*
X015936Y018379D02*
X016096Y018379D01*
X016096Y018280D02*
X015936Y018280D01*
X015936Y018182D02*
X016096Y018182D01*
X016096Y018083D02*
X015936Y018083D01*
X015936Y017985D02*
X016096Y017985D01*
X016096Y017886D02*
X015936Y017886D01*
X015936Y017788D02*
X016096Y017788D01*
X016096Y017689D02*
X015936Y017689D01*
X015936Y017591D02*
X016096Y017591D01*
X016096Y017492D02*
X015936Y017492D01*
X015850Y017394D02*
X016182Y017394D01*
X016292Y017295D02*
X015746Y017295D01*
X015746Y017197D02*
X016293Y017197D01*
X016294Y017098D02*
X015746Y017098D01*
X015746Y017000D02*
X016206Y017000D01*
X016107Y016901D02*
X015746Y016901D01*
X015746Y016803D02*
X016008Y016803D01*
X015909Y016704D02*
X015746Y016704D01*
X015746Y016606D02*
X015862Y016606D01*
X015862Y016507D02*
X015746Y016507D01*
X015746Y016409D02*
X015861Y016409D01*
X015861Y016310D02*
X015746Y016310D01*
X015746Y016212D02*
X015860Y016212D01*
X015860Y016113D02*
X015746Y016113D01*
X015746Y016015D02*
X015860Y016015D01*
X015859Y015916D02*
X015746Y015916D01*
X015746Y015818D02*
X015859Y015818D01*
X015858Y015719D02*
X015746Y015719D01*
X015746Y015621D02*
X015858Y015621D01*
X015857Y015522D02*
X015782Y015522D01*
X015427Y015227D02*
X013926Y015227D01*
X013962Y015325D02*
X015329Y015325D01*
X015354Y015300D02*
X015421Y015233D01*
X015421Y015233D01*
X016844Y013812D01*
X016911Y013744D01*
X016912Y013744D01*
X017007Y013744D01*
X017689Y013744D01*
X017671Y013737D01*
X017624Y013690D01*
X015495Y013681D01*
X015450Y013726D01*
X015331Y013775D01*
X015202Y013775D01*
X015082Y013726D01*
X014991Y013634D01*
X014941Y013515D01*
X014941Y013385D01*
X014985Y013280D01*
X013936Y013280D01*
X013936Y013370D01*
X013868Y013439D01*
X013886Y013458D01*
X013906Y013492D01*
X013916Y013530D01*
X013916Y013750D01*
X013389Y013750D01*
X013425Y013850D01*
X013916Y013850D01*
X013916Y014070D01*
X013906Y014108D01*
X013886Y014142D01*
X013858Y014170D01*
X013824Y014190D01*
X013786Y014200D01*
X013553Y014200D01*
X015096Y018441D01*
X015096Y017480D01*
X015196Y017380D01*
X015286Y017380D01*
X015286Y015558D01*
X015286Y015463D01*
X015286Y015367D01*
X015354Y015300D01*
X015286Y015367D02*
X015286Y015367D01*
X015286Y015367D01*
X015286Y015424D02*
X013998Y015424D01*
X014034Y015522D02*
X015286Y015522D01*
X015286Y015558D02*
X015286Y015558D01*
X015286Y015621D02*
X014070Y015621D01*
X014105Y015719D02*
X015286Y015719D01*
X015286Y015818D02*
X014141Y015818D01*
X014177Y015916D02*
X015286Y015916D01*
X015286Y016015D02*
X014213Y016015D01*
X014249Y016113D02*
X015286Y016113D01*
X015286Y016212D02*
X014285Y016212D01*
X014321Y016310D02*
X015286Y016310D01*
X015286Y016409D02*
X014356Y016409D01*
X014392Y016507D02*
X015286Y016507D01*
X015286Y016606D02*
X014428Y016606D01*
X014464Y016704D02*
X015286Y016704D01*
X015286Y016803D02*
X014500Y016803D01*
X014536Y016901D02*
X015286Y016901D01*
X015286Y017000D02*
X014572Y017000D01*
X014607Y017098D02*
X015286Y017098D01*
X015286Y017197D02*
X014643Y017197D01*
X014679Y017295D02*
X015286Y017295D01*
X015182Y017394D02*
X014715Y017394D01*
X014751Y017492D02*
X015096Y017492D01*
X015096Y017591D02*
X014787Y017591D01*
X014822Y017689D02*
X015096Y017689D01*
X015096Y017788D02*
X014858Y017788D01*
X014894Y017886D02*
X015096Y017886D01*
X015096Y017985D02*
X014930Y017985D01*
X014966Y018083D02*
X015096Y018083D01*
X015096Y018182D02*
X015002Y018182D01*
X015038Y018280D02*
X015096Y018280D01*
X015096Y018379D02*
X015073Y018379D01*
X016159Y019068D02*
X016172Y019085D01*
X016188Y019101D01*
X016206Y019115D01*
X016225Y019126D01*
X016246Y019134D01*
X016267Y019140D01*
X016289Y019143D01*
X016665Y019143D01*
X016687Y019140D01*
X016709Y019134D01*
X016729Y019126D01*
X016748Y019115D01*
X016766Y019101D01*
X016782Y019085D01*
X016795Y019068D01*
X017083Y019364D02*
X015432Y019364D01*
X015468Y019462D02*
X017011Y019462D01*
X016942Y019561D02*
X015466Y019561D01*
X015384Y019659D02*
X016873Y019659D01*
X016803Y019758D02*
X015113Y019758D01*
X014843Y019856D02*
X016734Y019856D01*
X016665Y019955D02*
X014572Y019955D01*
X014302Y020053D02*
X016596Y020053D01*
X016526Y020152D02*
X014031Y020152D01*
X014084Y020250D02*
X015094Y020250D01*
X014975Y020349D02*
X014241Y020349D01*
X014398Y020447D02*
X014913Y020447D01*
X014873Y020546D02*
X014555Y020546D01*
X014712Y020644D02*
X014873Y020644D01*
X014869Y020743D02*
X014885Y020743D01*
X015513Y020250D02*
X016457Y020250D01*
X016388Y020349D02*
X015631Y020349D01*
X015693Y020447D02*
X016319Y020447D01*
X016249Y020546D02*
X015733Y020546D01*
X015733Y020644D02*
X016163Y020644D01*
X016035Y020743D02*
X015722Y020743D01*
X015681Y020841D02*
X015874Y020841D01*
X015396Y019265D02*
X017159Y019265D01*
X017235Y019167D02*
X015360Y019167D01*
X017466Y018674D02*
X017566Y018674D01*
X017566Y018576D02*
X017466Y018576D01*
X017466Y018477D02*
X017566Y018477D01*
X017566Y018379D02*
X017466Y018379D01*
X017466Y018280D02*
X017566Y018280D01*
X017566Y018182D02*
X017466Y018182D01*
X017916Y018182D02*
X017994Y018182D01*
X017916Y018100D02*
X017916Y018282D01*
X018830Y017096D01*
X018977Y016922D01*
X018961Y016922D01*
X018803Y016856D01*
X018682Y016735D01*
X018617Y016577D01*
X018617Y016406D01*
X018682Y016248D01*
X018803Y016127D01*
X018961Y016062D01*
X019132Y016062D01*
X019290Y016127D01*
X019411Y016248D01*
X019455Y016355D01*
X019840Y015898D01*
X019784Y015875D01*
X019663Y015754D01*
X019598Y015596D01*
X019598Y015425D01*
X019663Y015267D01*
X019784Y015146D01*
X019942Y015081D01*
X020113Y015081D01*
X020271Y015146D01*
X020381Y015256D01*
X020708Y014867D01*
X021018Y014530D01*
X020898Y014480D01*
X020777Y014359D01*
X020711Y014201D01*
X020711Y014030D01*
X020777Y013872D01*
X020898Y013751D01*
X021056Y013686D01*
X021227Y013686D01*
X021385Y013751D01*
X021506Y013872D01*
X021543Y013960D01*
X022038Y013422D01*
X021938Y013381D01*
X021817Y013260D01*
X021752Y013102D01*
X021752Y012931D01*
X021817Y012773D01*
X021938Y012652D01*
X022096Y012586D01*
X022267Y012586D01*
X022425Y012652D01*
X022546Y012773D01*
X022574Y012840D01*
X022682Y012722D01*
X023715Y011693D01*
X023630Y011607D01*
X023564Y011449D01*
X023564Y011278D01*
X023630Y011120D01*
X023751Y010999D01*
X023909Y010934D01*
X024080Y010934D01*
X024238Y010999D01*
X024325Y011086D01*
X024747Y010666D01*
X024946Y010483D01*
X024785Y010483D01*
X024635Y010421D01*
X024519Y010306D01*
X024457Y010155D01*
X024457Y009992D01*
X024519Y009841D01*
X024635Y009726D01*
X024785Y009663D01*
X024949Y009663D01*
X025069Y009713D01*
X025065Y009702D01*
X025065Y009531D01*
X025130Y009373D01*
X025251Y009252D01*
X025409Y009186D01*
X025580Y009186D01*
X025738Y009252D01*
X025859Y009373D01*
X025925Y009531D01*
X025925Y009591D01*
X026606Y008968D01*
X026606Y008620D01*
X026546Y008620D01*
X026546Y008560D01*
X026186Y008560D01*
X026186Y008552D01*
X026201Y008476D01*
X026231Y008405D01*
X026273Y008341D01*
X026328Y008287D01*
X026392Y008244D01*
X026462Y008215D01*
X026538Y008200D01*
X026546Y008200D01*
X026546Y008560D01*
X026606Y008560D01*
X026606Y008200D01*
X026615Y008200D01*
X026690Y008215D01*
X026761Y008244D01*
X026825Y008287D01*
X026879Y008341D01*
X026922Y008405D01*
X026951Y008476D01*
X026966Y008552D01*
X026966Y008560D01*
X026606Y008560D01*
X026606Y008620D01*
X026966Y008620D01*
X026966Y008628D01*
X026962Y008648D01*
X028009Y007774D01*
X028180Y007609D01*
X028124Y007632D01*
X027953Y007632D01*
X027795Y007566D01*
X027674Y007445D01*
X020065Y007445D01*
X020065Y007544D02*
X027772Y007544D01*
X027674Y007445D02*
X027609Y007287D01*
X027609Y007116D01*
X027674Y006958D01*
X027795Y006837D01*
X027953Y006772D01*
X028124Y006772D01*
X028282Y006837D01*
X028403Y006958D01*
X028436Y007038D01*
X028441Y007010D01*
X028408Y006754D01*
X028365Y006636D01*
X028361Y006627D01*
X028336Y006572D01*
X028336Y006567D01*
X027249Y003961D01*
X027221Y003907D01*
X027221Y003971D01*
X027155Y004129D01*
X027034Y004250D01*
X026876Y004315D01*
X026705Y004315D01*
X026547Y004250D01*
X026426Y004129D01*
X026361Y003971D01*
X026361Y003881D01*
X024581Y004974D01*
X024682Y005075D01*
X024748Y005233D01*
X024748Y005404D01*
X024682Y005562D01*
X024561Y005683D01*
X024403Y005748D01*
X024232Y005748D01*
X024074Y005683D01*
X023953Y005562D01*
X023891Y005412D01*
X023821Y005467D01*
X023438Y005638D01*
X023438Y005638D01*
X023024Y005710D01*
X022606Y005680D01*
X022606Y005680D01*
X022207Y005547D01*
X022053Y005449D01*
X021909Y005388D01*
X021909Y005395D01*
X021843Y005553D01*
X021722Y005674D01*
X021564Y005739D01*
X021393Y005739D01*
X021235Y005674D01*
X021114Y005553D01*
X021049Y005395D01*
X021049Y005223D01*
X021114Y005065D01*
X021126Y005054D01*
X017296Y003420D01*
X017243Y003549D01*
X017122Y003670D01*
X016964Y003736D01*
X016793Y003736D01*
X016634Y003670D01*
X016514Y003549D01*
X016448Y003391D01*
X016448Y003220D01*
X016505Y003082D01*
X014938Y002414D01*
X014946Y002433D01*
X014946Y002604D01*
X014880Y002762D01*
X014759Y002883D01*
X014601Y002949D01*
X014430Y002949D01*
X014272Y002883D01*
X014151Y002762D01*
X014086Y002604D01*
X014086Y002433D01*
X014151Y002275D01*
X014272Y002154D01*
X014301Y002142D01*
X011901Y001118D01*
X011860Y001107D01*
X011841Y001093D01*
X011820Y001084D01*
X011796Y001058D01*
X011774Y001049D01*
X011591Y001022D01*
X011572Y001026D01*
X011655Y001060D01*
X011776Y001181D01*
X011842Y001339D01*
X011842Y001510D01*
X011776Y001668D01*
X011655Y001789D01*
X011497Y001854D01*
X011326Y001854D01*
X011168Y001789D01*
X011047Y001668D01*
X011039Y001647D01*
X010921Y002352D01*
X010653Y004514D01*
X010510Y006687D01*
X010507Y007099D01*
X010618Y007053D01*
X010789Y007053D01*
X010947Y007118D01*
X011068Y007239D01*
X011134Y007397D01*
X011134Y007568D01*
X011068Y007726D01*
X010947Y007847D01*
X010789Y007913D01*
X010618Y007913D01*
X010500Y007864D01*
X010492Y008864D01*
X010597Y011039D01*
X010660Y011633D01*
X010691Y011602D01*
X010849Y011537D01*
X011020Y011537D01*
X011179Y011602D01*
X011299Y011723D01*
X011365Y011881D01*
X011365Y012052D01*
X011299Y012210D01*
X011179Y012331D01*
X011020Y012397D01*
X010849Y012397D01*
X010737Y012350D01*
X010796Y012912D01*
X012183Y012407D01*
X012183Y012071D01*
X012186Y012049D01*
X012192Y012028D01*
X012201Y012007D01*
X012203Y012003D01*
X011726Y012003D01*
X011635Y012003D01*
X011635Y012003D01*
X011635Y012003D01*
X011570Y011938D01*
X011506Y011874D01*
X011506Y011874D01*
X011506Y011874D01*
X011506Y011783D01*
X011484Y004978D01*
X011481Y004975D01*
X011483Y004887D01*
X011493Y004786D02*
X010636Y004786D01*
X010642Y004687D02*
X011595Y004687D01*
X011704Y004929D02*
X011726Y011783D01*
X012688Y011783D01*
X012742Y011728D01*
X012834Y011690D01*
X015283Y011690D01*
X015283Y010659D01*
X012946Y010630D01*
X012949Y008730D01*
X012196Y008730D01*
X012096Y008630D01*
X012096Y007990D01*
X012175Y007911D01*
X012169Y007909D01*
X012149Y007901D01*
X012130Y007890D01*
X012112Y007876D01*
X012096Y007860D01*
X012083Y007843D01*
X012071Y007824D01*
X012063Y007803D01*
X012057Y007781D01*
X012054Y007759D01*
X012054Y007384D01*
X012057Y007362D01*
X012063Y007340D01*
X012071Y007320D01*
X012083Y007300D01*
X012096Y007283D01*
X012096Y007282D01*
X012096Y006880D01*
X012196Y006780D01*
X012748Y006780D01*
X012746Y006773D01*
X012743Y006751D01*
X012743Y006670D01*
X012196Y006670D01*
X012096Y006570D01*
X012096Y005930D01*
X012196Y005830D01*
X013337Y005830D01*
X013359Y005852D01*
X013360Y005852D01*
X013426Y005784D01*
X013427Y005784D01*
X013427Y005784D01*
X013522Y005784D01*
X013616Y005783D01*
X013617Y005783D01*
X016057Y005779D01*
X016152Y005779D01*
X016247Y005779D01*
X016247Y005779D01*
X016248Y005779D01*
X016315Y005846D01*
X016382Y005913D01*
X016382Y005914D01*
X016705Y006236D01*
X016839Y006371D01*
X016839Y008070D01*
X017097Y008328D01*
X018396Y008328D01*
X018407Y008319D01*
X018490Y008328D01*
X018573Y008328D01*
X018583Y008337D01*
X018596Y008339D01*
X018649Y008404D01*
X018708Y008463D01*
X018708Y008476D01*
X018993Y008825D01*
X019052Y008885D01*
X019052Y008898D01*
X019060Y008908D01*
X019052Y008991D01*
X019051Y009221D01*
X019096Y009266D01*
X019146Y009385D01*
X019146Y009515D01*
X019096Y009634D01*
X019061Y009669D01*
X019109Y009785D01*
X019109Y009915D01*
X019060Y010034D01*
X019012Y010082D01*
X019049Y010172D01*
X019049Y010301D01*
X018999Y010421D01*
X018988Y010432D01*
X019033Y010477D01*
X019082Y010597D01*
X019845Y010597D01*
X019845Y010499D02*
X019042Y010499D01*
X019008Y010400D02*
X019845Y010400D01*
X019845Y010302D02*
X019049Y010302D01*
X019049Y010203D02*
X019845Y010203D01*
X019845Y010105D02*
X019021Y010105D01*
X019071Y010006D02*
X019845Y010006D01*
X019845Y009908D02*
X019109Y009908D01*
X019109Y009809D02*
X019845Y009809D01*
X019845Y009711D02*
X019078Y009711D01*
X019105Y009612D02*
X019845Y009612D01*
X019845Y009514D02*
X019146Y009514D01*
X019146Y009415D02*
X019845Y009415D01*
X019845Y009317D02*
X019117Y009317D01*
X019051Y009218D02*
X019845Y009218D01*
X019845Y009120D02*
X019051Y009120D01*
X019052Y009021D02*
X019845Y009021D01*
X019845Y008923D02*
X019059Y008923D01*
X018992Y008824D02*
X019845Y008824D01*
X019845Y008726D02*
X018911Y008726D01*
X018831Y008627D02*
X019845Y008627D01*
X019845Y008529D02*
X018751Y008529D01*
X018676Y008430D02*
X019845Y008430D01*
X019845Y008332D02*
X018577Y008332D01*
X019845Y008233D02*
X017002Y008233D01*
X016904Y008135D02*
X019845Y008135D01*
X019845Y008036D02*
X016839Y008036D01*
X016839Y007938D02*
X019845Y007938D01*
X019845Y007839D02*
X016839Y007839D01*
X016839Y007741D02*
X019845Y007741D01*
X019845Y007642D02*
X016839Y007642D01*
X016839Y007544D02*
X019845Y007544D01*
X019845Y007445D02*
X016839Y007445D01*
X016839Y007347D02*
X019845Y007347D01*
X019845Y007340D02*
X019850Y007140D01*
X024055Y007142D01*
X024078Y006326D01*
X018766Y006379D01*
X018744Y004905D01*
X013061Y004903D01*
X013015Y004949D01*
X013013Y004949D01*
X013012Y004950D01*
X012931Y004949D01*
X012849Y004949D01*
X012848Y004948D01*
X011704Y004929D01*
X011704Y004983D02*
X018745Y004983D01*
X018746Y005081D02*
X011704Y005081D01*
X011704Y005180D02*
X018748Y005180D01*
X018749Y005278D02*
X011705Y005278D01*
X011705Y005377D02*
X018751Y005377D01*
X018752Y005475D02*
X011705Y005475D01*
X011706Y005574D02*
X018754Y005574D01*
X018755Y005672D02*
X011706Y005672D01*
X011706Y005771D02*
X018757Y005771D01*
X018758Y005869D02*
X016338Y005869D01*
X016436Y005968D02*
X018760Y005968D01*
X018761Y006066D02*
X016535Y006066D01*
X016633Y006165D02*
X018763Y006165D01*
X018764Y006263D02*
X016732Y006263D01*
X016830Y006362D02*
X018766Y006362D01*
X018981Y006066D02*
X028127Y006066D01*
X028086Y005968D02*
X018980Y005968D01*
X018978Y005869D02*
X028045Y005869D01*
X028004Y005771D02*
X018977Y005771D01*
X018975Y005672D02*
X021234Y005672D01*
X021135Y005574D02*
X018974Y005574D01*
X018972Y005475D02*
X021082Y005475D01*
X021049Y005377D02*
X018971Y005377D01*
X018969Y005278D02*
X021049Y005278D01*
X021067Y005180D02*
X018968Y005180D01*
X018966Y005081D02*
X021108Y005081D01*
X020959Y004983D02*
X018965Y004983D01*
X018964Y004884D02*
X020728Y004884D01*
X020497Y004786D02*
X018936Y004786D01*
X018837Y004687D02*
X020266Y004687D01*
X020035Y004589D02*
X012618Y004589D01*
X012652Y004490D02*
X019805Y004490D01*
X019574Y004392D02*
X012273Y004392D01*
X012198Y004392D02*
X010669Y004392D01*
X010656Y004490D02*
X011819Y004490D01*
X011853Y004589D02*
X010648Y004589D01*
X010681Y004293D02*
X011376Y004293D01*
X011384Y004301D02*
X011292Y004210D01*
X011243Y004090D01*
X011243Y003961D01*
X011292Y003841D01*
X011317Y003816D01*
X011316Y003284D01*
X011290Y003258D01*
X011241Y003138D01*
X011241Y003009D01*
X011290Y002890D01*
X011381Y002798D01*
X011501Y002749D01*
X011630Y002749D01*
X011750Y002798D01*
X011841Y002890D01*
X011891Y003009D01*
X011891Y003138D01*
X011841Y003258D01*
X011816Y003283D01*
X011817Y003815D01*
X011843Y003841D01*
X011893Y003961D01*
X011893Y004090D01*
X011843Y004210D01*
X011752Y004301D01*
X011632Y004350D01*
X011503Y004350D01*
X011384Y004301D01*
X011286Y004195D02*
X010693Y004195D01*
X010705Y004096D02*
X011245Y004096D01*
X011243Y003998D02*
X010717Y003998D01*
X010729Y003899D02*
X011268Y003899D01*
X011317Y003801D02*
X010742Y003801D01*
X010754Y003702D02*
X011317Y003702D01*
X011317Y003604D02*
X010766Y003604D01*
X010778Y003505D02*
X011317Y003505D01*
X011316Y003407D02*
X010790Y003407D01*
X010802Y003308D02*
X011316Y003308D01*
X011270Y003210D02*
X010815Y003210D01*
X010827Y003111D02*
X011241Y003111D01*
X011241Y003013D02*
X010839Y003013D01*
X010851Y002914D02*
X011280Y002914D01*
X011364Y002816D02*
X010863Y002816D01*
X010875Y002717D02*
X012205Y002717D01*
X012270Y002619D02*
X010888Y002619D01*
X010900Y002520D02*
X012230Y002520D01*
X012214Y002422D02*
X010912Y002422D01*
X010925Y002323D02*
X012214Y002323D01*
X012247Y002225D02*
X010942Y002225D01*
X010958Y002126D02*
X012297Y002126D01*
X012395Y002028D02*
X010975Y002028D01*
X010991Y001929D02*
X013802Y001929D01*
X014033Y002028D02*
X012922Y002028D01*
X013021Y002126D02*
X014264Y002126D01*
X014202Y002225D02*
X013070Y002225D01*
X013104Y002323D02*
X014131Y002323D01*
X014091Y002422D02*
X013104Y002422D01*
X013088Y002520D02*
X014086Y002520D01*
X014092Y002619D02*
X013047Y002619D01*
X012964Y002717D02*
X014133Y002717D01*
X014205Y002816D02*
X012857Y002816D01*
X012899Y002914D02*
X014347Y002914D01*
X014685Y002914D02*
X016111Y002914D01*
X016341Y003013D02*
X012927Y003013D01*
X012927Y003111D02*
X016493Y003111D01*
X016453Y003210D02*
X012905Y003210D01*
X012865Y003308D02*
X016448Y003308D01*
X016454Y003407D02*
X012774Y003407D01*
X012726Y003505D02*
X016495Y003505D01*
X016568Y003604D02*
X012767Y003604D01*
X012778Y003702D02*
X016711Y003702D01*
X017045Y003702D02*
X017958Y003702D01*
X018188Y003801D02*
X012778Y003801D01*
X012741Y003899D02*
X018419Y003899D01*
X018650Y003998D02*
X012685Y003998D01*
X012587Y004096D02*
X018881Y004096D01*
X019112Y004195D02*
X012607Y004195D01*
X012647Y004293D02*
X019343Y004293D01*
X017727Y003604D02*
X017189Y003604D01*
X017261Y003505D02*
X017496Y003505D01*
X015880Y002816D02*
X014827Y002816D01*
X014899Y002717D02*
X015649Y002717D01*
X015418Y002619D02*
X014940Y002619D01*
X014946Y002520D02*
X015187Y002520D01*
X014956Y002422D02*
X014941Y002422D01*
X013571Y001831D02*
X011555Y001831D01*
X011712Y001732D02*
X013340Y001732D01*
X013109Y001634D02*
X011791Y001634D01*
X011831Y001535D02*
X012878Y001535D01*
X012647Y001437D02*
X011842Y001437D01*
X011841Y001338D02*
X012417Y001338D01*
X012186Y001240D02*
X011800Y001240D01*
X011736Y001141D02*
X011955Y001141D01*
X011728Y001043D02*
X011613Y001043D01*
X011111Y001732D02*
X011024Y001732D01*
X011008Y001831D02*
X011268Y001831D01*
X011767Y002816D02*
X012106Y002816D01*
X012064Y002914D02*
X011851Y002914D01*
X011891Y003013D02*
X012037Y003013D01*
X012037Y003111D02*
X011891Y003111D01*
X011861Y003210D02*
X012058Y003210D01*
X012099Y003308D02*
X011816Y003308D01*
X011816Y003407D02*
X012018Y003407D01*
X011941Y003505D02*
X011817Y003505D01*
X011817Y003604D02*
X011900Y003604D01*
X011888Y003702D02*
X011817Y003702D01*
X011817Y003801D02*
X011888Y003801D01*
X011867Y003899D02*
X011926Y003899D01*
X011893Y003998D02*
X011982Y003998D01*
X011941Y004096D02*
X011890Y004096D01*
X011864Y004195D02*
X011850Y004195D01*
X011824Y004293D02*
X011760Y004293D01*
X011707Y005869D02*
X012157Y005869D01*
X012096Y005968D02*
X011707Y005968D01*
X011707Y006066D02*
X012096Y006066D01*
X012096Y006165D02*
X011708Y006165D01*
X011708Y006263D02*
X012096Y006263D01*
X012096Y006362D02*
X011708Y006362D01*
X011709Y006460D02*
X012096Y006460D01*
X012096Y006559D02*
X011709Y006559D01*
X011709Y006657D02*
X012183Y006657D01*
X012122Y006854D02*
X011710Y006854D01*
X011709Y006756D02*
X012744Y006756D01*
X012096Y006953D02*
X011710Y006953D01*
X011710Y007051D02*
X012096Y007051D01*
X012096Y007150D02*
X011711Y007150D01*
X011711Y007248D02*
X012096Y007248D01*
X012061Y007347D02*
X011711Y007347D01*
X011712Y007445D02*
X012054Y007445D01*
X012054Y007544D02*
X011712Y007544D01*
X011712Y007642D02*
X012054Y007642D01*
X012054Y007741D02*
X011713Y007741D01*
X011713Y007839D02*
X012080Y007839D01*
X012148Y007938D02*
X011713Y007938D01*
X011714Y008036D02*
X012096Y008036D01*
X012096Y008135D02*
X011714Y008135D01*
X011714Y008233D02*
X012096Y008233D01*
X012096Y008332D02*
X011715Y008332D01*
X011715Y008430D02*
X012096Y008430D01*
X012096Y008529D02*
X011715Y008529D01*
X011716Y008627D02*
X012096Y008627D01*
X012191Y008726D02*
X011716Y008726D01*
X011716Y008824D02*
X012949Y008824D01*
X012949Y008923D02*
X011716Y008923D01*
X011717Y009021D02*
X012949Y009021D01*
X012949Y009120D02*
X011717Y009120D01*
X011717Y009218D02*
X012948Y009218D01*
X012948Y009317D02*
X011718Y009317D01*
X011718Y009415D02*
X012948Y009415D01*
X012948Y009514D02*
X011718Y009514D01*
X011719Y009612D02*
X012948Y009612D01*
X012947Y009711D02*
X011719Y009711D01*
X011719Y009809D02*
X012947Y009809D01*
X012947Y009908D02*
X011720Y009908D01*
X011720Y010006D02*
X012947Y010006D01*
X012947Y010105D02*
X011720Y010105D01*
X011721Y010203D02*
X012946Y010203D01*
X012946Y010302D02*
X011721Y010302D01*
X011721Y010400D02*
X012946Y010400D01*
X012946Y010499D02*
X011722Y010499D01*
X011722Y010597D02*
X012946Y010597D01*
X013166Y010412D02*
X015284Y010439D01*
X015374Y010439D01*
X015375Y010440D01*
X015376Y010440D01*
X015439Y010504D01*
X015503Y010567D01*
X015503Y010569D01*
X015504Y010570D01*
X015503Y010660D01*
X015503Y011690D01*
X017534Y011690D01*
X017536Y011691D01*
X017536Y010455D01*
X017902Y010089D01*
X017966Y010022D01*
X017969Y010022D01*
X017971Y010020D01*
X018064Y010020D01*
X018127Y010019D01*
X018127Y009324D01*
X016315Y009324D01*
X016187Y009195D01*
X016187Y008427D01*
X016107Y008348D01*
X016107Y006651D01*
X015998Y006542D01*
X013799Y006520D01*
X013749Y006570D01*
X013749Y007090D01*
X013588Y007251D01*
X013453Y007385D01*
X013436Y007385D01*
X013436Y007520D01*
X013337Y007620D01*
X013172Y007620D01*
X013171Y007910D01*
X013286Y007910D01*
X013324Y007920D01*
X013358Y007940D01*
X013386Y007968D01*
X013406Y008002D01*
X013416Y008040D01*
X013416Y008260D01*
X013170Y008260D01*
X013170Y008360D01*
X013416Y008360D01*
X013416Y008580D01*
X013406Y008618D01*
X013386Y008652D01*
X013358Y008680D01*
X013324Y008700D01*
X013286Y008710D01*
X013170Y008710D01*
X013166Y010412D01*
X013166Y010400D02*
X017591Y010400D01*
X017536Y010499D02*
X015434Y010499D01*
X015503Y010597D02*
X017536Y010597D01*
X017536Y010696D02*
X015503Y010696D01*
X015503Y010794D02*
X017536Y010794D01*
X017536Y010893D02*
X015503Y010893D01*
X015503Y010991D02*
X017536Y010991D01*
X017536Y011090D02*
X015503Y011090D01*
X015503Y011188D02*
X017536Y011188D01*
X017536Y011287D02*
X015503Y011287D01*
X015503Y011385D02*
X017536Y011385D01*
X017536Y011484D02*
X015503Y011484D01*
X015503Y011582D02*
X017536Y011582D01*
X017536Y011681D02*
X015503Y011681D01*
X015283Y011681D02*
X011725Y011681D01*
X011726Y011779D02*
X012691Y011779D01*
X012183Y012075D02*
X011356Y012075D01*
X011365Y011976D02*
X011608Y011976D01*
X011509Y011878D02*
X011363Y011878D01*
X011323Y011779D02*
X011506Y011779D01*
X011505Y011681D02*
X011257Y011681D01*
X011130Y011582D02*
X011505Y011582D01*
X011505Y011484D02*
X010644Y011484D01*
X010655Y011582D02*
X010740Y011582D01*
X010634Y011385D02*
X011504Y011385D01*
X011504Y011287D02*
X010624Y011287D01*
X010613Y011188D02*
X011504Y011188D01*
X011504Y011090D02*
X010603Y011090D01*
X010595Y010991D02*
X011503Y010991D01*
X011503Y010893D02*
X010590Y010893D01*
X010585Y010794D02*
X011503Y010794D01*
X011502Y010696D02*
X010581Y010696D01*
X010576Y010597D02*
X011502Y010597D01*
X011502Y010499D02*
X010571Y010499D01*
X010566Y010400D02*
X011501Y010400D01*
X011501Y010302D02*
X010561Y010302D01*
X010557Y010203D02*
X011501Y010203D01*
X011500Y010105D02*
X010552Y010105D01*
X010547Y010006D02*
X011500Y010006D01*
X011500Y009908D02*
X010542Y009908D01*
X010537Y009809D02*
X011499Y009809D01*
X011499Y009711D02*
X010533Y009711D01*
X010528Y009612D02*
X011499Y009612D01*
X011498Y009514D02*
X010523Y009514D01*
X010518Y009415D02*
X011498Y009415D01*
X011498Y009317D02*
X010514Y009317D01*
X010509Y009218D02*
X011497Y009218D01*
X011497Y009120D02*
X010504Y009120D01*
X010499Y009021D02*
X011497Y009021D01*
X011496Y008923D02*
X010494Y008923D01*
X010492Y008824D02*
X011496Y008824D01*
X011496Y008726D02*
X010493Y008726D01*
X010494Y008627D02*
X011496Y008627D01*
X011495Y008529D02*
X010494Y008529D01*
X010495Y008430D02*
X011495Y008430D01*
X011495Y008332D02*
X010496Y008332D01*
X010497Y008233D02*
X011494Y008233D01*
X011494Y008135D02*
X010498Y008135D01*
X010499Y008036D02*
X011494Y008036D01*
X011493Y007938D02*
X010500Y007938D01*
X010956Y007839D02*
X011493Y007839D01*
X011493Y007741D02*
X011054Y007741D01*
X011103Y007642D02*
X011492Y007642D01*
X011492Y007544D02*
X011134Y007544D01*
X011134Y007445D02*
X011492Y007445D01*
X011491Y007347D02*
X011113Y007347D01*
X011072Y007248D02*
X011491Y007248D01*
X011491Y007150D02*
X010979Y007150D01*
X010507Y007051D02*
X011490Y007051D01*
X011490Y006953D02*
X010508Y006953D01*
X010509Y006854D02*
X011490Y006854D01*
X011489Y006756D02*
X010510Y006756D01*
X010512Y006657D02*
X011489Y006657D01*
X011489Y006559D02*
X010519Y006559D01*
X010525Y006460D02*
X011489Y006460D01*
X011488Y006362D02*
X010532Y006362D01*
X010538Y006263D02*
X011488Y006263D01*
X011488Y006165D02*
X010545Y006165D01*
X013172Y007642D02*
X016107Y007642D01*
X016107Y007544D02*
X013413Y007544D01*
X013436Y007445D02*
X016107Y007445D01*
X016107Y007347D02*
X013492Y007347D01*
X013591Y007248D02*
X016107Y007248D01*
X016107Y007150D02*
X013689Y007150D01*
X013749Y007051D02*
X016107Y007051D01*
X016107Y006953D02*
X013749Y006953D01*
X013749Y006854D02*
X016107Y006854D01*
X016107Y006756D02*
X013749Y006756D01*
X013749Y006657D02*
X016107Y006657D01*
X016015Y006559D02*
X013761Y006559D01*
X013171Y007741D02*
X016107Y007741D01*
X016107Y007839D02*
X013171Y007839D01*
X013354Y007938D02*
X016107Y007938D01*
X016107Y008036D02*
X013415Y008036D01*
X013416Y008135D02*
X016107Y008135D01*
X016107Y008233D02*
X013416Y008233D01*
X013416Y008430D02*
X016187Y008430D01*
X016187Y008529D02*
X013416Y008529D01*
X013401Y008627D02*
X016187Y008627D01*
X016187Y008726D02*
X013169Y008726D01*
X013169Y008824D02*
X016187Y008824D01*
X016187Y008923D02*
X013169Y008923D01*
X013169Y009021D02*
X016187Y009021D01*
X016187Y009120D02*
X013169Y009120D01*
X013168Y009218D02*
X016209Y009218D01*
X016308Y009317D02*
X013168Y009317D01*
X013168Y009415D02*
X018127Y009415D01*
X018127Y009514D02*
X013168Y009514D01*
X013168Y009612D02*
X018127Y009612D01*
X018127Y009711D02*
X013167Y009711D01*
X013167Y009809D02*
X018127Y009809D01*
X018127Y009908D02*
X013167Y009908D01*
X013167Y010006D02*
X018127Y010006D01*
X017886Y010105D02*
X013167Y010105D01*
X013166Y010203D02*
X017788Y010203D01*
X017689Y010302D02*
X013166Y010302D01*
X011722Y010696D02*
X015283Y010696D01*
X015283Y010794D02*
X011723Y010794D01*
X011723Y010893D02*
X015283Y010893D01*
X015283Y010991D02*
X011723Y010991D01*
X011724Y011090D02*
X015283Y011090D01*
X015283Y011188D02*
X011724Y011188D01*
X011724Y011287D02*
X015283Y011287D01*
X015283Y011385D02*
X011724Y011385D01*
X011725Y011484D02*
X015283Y011484D01*
X015283Y011582D02*
X011725Y011582D01*
X011315Y012173D02*
X012183Y012173D01*
X012183Y012272D02*
X011238Y012272D01*
X011085Y012370D02*
X012183Y012370D01*
X012015Y012469D02*
X010749Y012469D01*
X010760Y012567D02*
X011744Y012567D01*
X011473Y012666D02*
X010770Y012666D01*
X010780Y012764D02*
X011203Y012764D01*
X010932Y012863D02*
X010791Y012863D01*
X010785Y012370D02*
X010739Y012370D01*
X013424Y013848D02*
X016808Y013848D01*
X016710Y013946D02*
X013916Y013946D01*
X013916Y014045D02*
X016611Y014045D01*
X016512Y014143D02*
X013885Y014143D01*
X013568Y014242D02*
X016414Y014242D01*
X016315Y014340D02*
X013604Y014340D01*
X013639Y014439D02*
X016216Y014439D01*
X016118Y014537D02*
X013675Y014537D01*
X013711Y014636D02*
X016019Y014636D01*
X015920Y014734D02*
X013747Y014734D01*
X013783Y014833D02*
X015822Y014833D01*
X015723Y014931D02*
X013819Y014931D01*
X013854Y015030D02*
X015625Y015030D01*
X015526Y015128D02*
X013890Y015128D01*
X013916Y013749D02*
X015139Y013749D01*
X015007Y013651D02*
X013916Y013651D01*
X013916Y013552D02*
X014957Y013552D01*
X014941Y013454D02*
X013882Y013454D01*
X013936Y013355D02*
X014954Y013355D01*
X015394Y013749D02*
X016907Y013749D01*
X016912Y013744D02*
X016912Y013744D01*
X017340Y014833D02*
X018528Y014833D01*
X018770Y014833D02*
X020740Y014833D01*
X020708Y014867D02*
X020708Y014867D01*
X020654Y014931D02*
X017243Y014931D01*
X017146Y015030D02*
X020571Y015030D01*
X020488Y015128D02*
X020228Y015128D01*
X020352Y015227D02*
X020406Y015227D01*
X019828Y015128D02*
X017049Y015128D01*
X016972Y015227D02*
X019704Y015227D01*
X019639Y015325D02*
X016971Y015325D01*
X016971Y015424D02*
X019598Y015424D01*
X019598Y015522D02*
X016970Y015522D01*
X016970Y015621D02*
X019608Y015621D01*
X019649Y015719D02*
X016969Y015719D01*
X016969Y015818D02*
X019726Y015818D01*
X019825Y015916D02*
X016968Y015916D01*
X016968Y016015D02*
X019742Y016015D01*
X019659Y016113D02*
X019256Y016113D01*
X019374Y016212D02*
X019576Y016212D01*
X019493Y016310D02*
X019437Y016310D01*
X018837Y016113D02*
X016967Y016113D01*
X016967Y016212D02*
X018719Y016212D01*
X018656Y016310D02*
X017025Y016310D01*
X017060Y016409D02*
X018617Y016409D01*
X018617Y016507D02*
X017060Y016507D01*
X017027Y016606D02*
X018628Y016606D01*
X018669Y016704D02*
X016951Y016704D01*
X016755Y016901D02*
X018911Y016901D01*
X018912Y017000D02*
X016755Y017000D01*
X016754Y017098D02*
X018829Y017098D01*
X018830Y017096D02*
X018830Y017096D01*
X018753Y017197D02*
X016753Y017197D01*
X016752Y017295D02*
X018677Y017295D01*
X018749Y016803D02*
X016661Y016803D01*
X017916Y018280D02*
X017918Y018280D01*
X018906Y014734D02*
X020831Y014734D01*
X020921Y014636D02*
X018958Y014636D01*
X018974Y014537D02*
X021012Y014537D01*
X020856Y014439D02*
X018962Y014439D01*
X018918Y014340D02*
X020769Y014340D01*
X020728Y014242D02*
X018799Y014242D01*
X018773Y014143D02*
X020711Y014143D01*
X020711Y014045D02*
X018869Y014045D01*
X018966Y013946D02*
X020746Y013946D01*
X020801Y013848D02*
X018988Y013848D01*
X018988Y013749D02*
X019025Y013749D01*
X019280Y013749D02*
X019739Y013749D01*
X019994Y013749D02*
X020903Y013749D01*
X021380Y013749D02*
X021737Y013749D01*
X021828Y013651D02*
X020125Y013651D01*
X020176Y013552D02*
X021918Y013552D01*
X022009Y013454D02*
X020191Y013454D01*
X020179Y013355D02*
X021912Y013355D01*
X021816Y013257D02*
X020132Y013257D01*
X020011Y013158D02*
X021775Y013158D01*
X021752Y013060D02*
X018990Y013060D01*
X018990Y013158D02*
X019008Y013158D01*
X018991Y012961D02*
X021752Y012961D01*
X021780Y012863D02*
X018991Y012863D01*
X018991Y012764D02*
X021826Y012764D01*
X021924Y012666D02*
X018992Y012666D01*
X018992Y012567D02*
X022838Y012567D01*
X022936Y012469D02*
X021952Y012469D01*
X022051Y012370D02*
X023035Y012370D01*
X023134Y012272D02*
X022072Y012272D01*
X022072Y012173D02*
X023233Y012173D01*
X023332Y012075D02*
X022072Y012075D01*
X022072Y011976D02*
X023431Y011976D01*
X023530Y011878D02*
X022072Y011878D01*
X022072Y011779D02*
X023629Y011779D01*
X023703Y011681D02*
X022072Y011681D01*
X022072Y011582D02*
X023619Y011582D01*
X023578Y011484D02*
X022072Y011484D01*
X022040Y011385D02*
X023564Y011385D01*
X023564Y011287D02*
X020065Y011287D01*
X020065Y011188D02*
X023601Y011188D01*
X023660Y011090D02*
X020065Y011090D01*
X020065Y010991D02*
X023770Y010991D01*
X024218Y010991D02*
X024420Y010991D01*
X024519Y010893D02*
X020065Y010893D01*
X020065Y010794D02*
X024618Y010794D01*
X024717Y010696D02*
X020065Y010696D01*
X020065Y010597D02*
X024822Y010597D01*
X024930Y010499D02*
X020065Y010499D01*
X020065Y010400D02*
X023614Y010400D01*
X023635Y010421D02*
X023519Y010306D01*
X023457Y010155D01*
X023457Y009992D01*
X023519Y009841D01*
X023635Y009726D01*
X023785Y009663D01*
X023949Y009663D01*
X024099Y009726D01*
X024215Y009841D01*
X024277Y009992D01*
X024277Y010155D01*
X024215Y010306D01*
X024099Y010421D01*
X023949Y010483D01*
X023785Y010483D01*
X023635Y010421D01*
X023518Y010302D02*
X020065Y010302D01*
X020065Y010203D02*
X023477Y010203D01*
X023457Y010105D02*
X020065Y010105D01*
X020065Y010006D02*
X023457Y010006D01*
X023492Y009908D02*
X020065Y009908D01*
X020065Y009809D02*
X023551Y009809D01*
X023671Y009711D02*
X020065Y009711D01*
X020065Y009612D02*
X025065Y009612D01*
X025063Y009711D02*
X025068Y009711D01*
X025072Y009514D02*
X020065Y009514D01*
X020065Y009415D02*
X025113Y009415D01*
X025186Y009317D02*
X020065Y009317D01*
X020065Y009218D02*
X025333Y009218D01*
X025495Y009000D02*
X025344Y008938D01*
X025229Y008822D01*
X025166Y008672D01*
X025166Y008508D01*
X025229Y008358D01*
X025344Y008242D01*
X025495Y008180D01*
X025658Y008180D01*
X025809Y008242D01*
X025924Y008358D01*
X025986Y008508D01*
X025986Y008672D01*
X025924Y008822D01*
X025809Y008938D01*
X025658Y009000D01*
X025495Y009000D01*
X025329Y008923D02*
X020065Y008923D01*
X020065Y009021D02*
X026549Y009021D01*
X026546Y008980D02*
X026538Y008980D01*
X026462Y008965D01*
X026392Y008936D01*
X026328Y008893D01*
X026273Y008839D01*
X026231Y008775D01*
X026201Y008704D01*
X026186Y008628D01*
X026186Y008620D01*
X026546Y008620D01*
X026546Y008980D01*
X026546Y008923D02*
X026606Y008923D01*
X026606Y008824D02*
X026546Y008824D01*
X026546Y008726D02*
X026606Y008726D01*
X026606Y008627D02*
X026546Y008627D01*
X026546Y008529D02*
X026606Y008529D01*
X026606Y008430D02*
X026546Y008430D01*
X026546Y008332D02*
X026606Y008332D01*
X026606Y008233D02*
X026546Y008233D01*
X026419Y008233D02*
X025786Y008233D01*
X025898Y008332D02*
X026283Y008332D01*
X026220Y008430D02*
X025954Y008430D01*
X025986Y008529D02*
X026191Y008529D01*
X026186Y008627D02*
X025986Y008627D01*
X025964Y008726D02*
X026210Y008726D01*
X026264Y008824D02*
X025922Y008824D01*
X025824Y008923D02*
X026372Y008923D01*
X026441Y009120D02*
X020065Y009120D01*
X020065Y008824D02*
X025230Y008824D01*
X025189Y008726D02*
X020065Y008726D01*
X020065Y008627D02*
X025166Y008627D01*
X025166Y008529D02*
X020065Y008529D01*
X020065Y008430D02*
X025199Y008430D01*
X025255Y008332D02*
X020065Y008332D01*
X020065Y008233D02*
X025367Y008233D01*
X025657Y009218D02*
X026333Y009218D01*
X026225Y009317D02*
X025803Y009317D01*
X025877Y009415D02*
X026117Y009415D01*
X026009Y009514D02*
X025917Y009514D01*
X024671Y009711D02*
X024063Y009711D01*
X024183Y009809D02*
X024551Y009809D01*
X024492Y009908D02*
X024242Y009908D01*
X024277Y010006D02*
X024457Y010006D01*
X024457Y010105D02*
X024277Y010105D01*
X024257Y010203D02*
X024477Y010203D01*
X024518Y010302D02*
X024216Y010302D01*
X024120Y010400D02*
X024614Y010400D01*
X026966Y008627D02*
X026988Y008627D01*
X026962Y008529D02*
X027106Y008529D01*
X027224Y008430D02*
X026932Y008430D01*
X026869Y008332D02*
X027341Y008332D01*
X027459Y008233D02*
X026734Y008233D01*
X027577Y008135D02*
X020065Y008135D01*
X020065Y008036D02*
X027695Y008036D01*
X027813Y007938D02*
X020065Y007938D01*
X020065Y007839D02*
X027931Y007839D01*
X028043Y007741D02*
X020065Y007741D01*
X020065Y007642D02*
X028145Y007642D01*
X027633Y007347D02*
X024162Y007347D01*
X024263Y007248D02*
X027609Y007248D01*
X027609Y007150D02*
X024275Y007150D01*
X024278Y007051D02*
X027636Y007051D01*
X027680Y006953D02*
X024281Y006953D01*
X024283Y006854D02*
X027779Y006854D01*
X028299Y006854D02*
X028421Y006854D01*
X028409Y006756D02*
X024286Y006756D01*
X024289Y006657D02*
X028373Y006657D01*
X028333Y006559D02*
X024291Y006559D01*
X024294Y006460D02*
X028292Y006460D01*
X028251Y006362D02*
X024298Y006362D01*
X024300Y006263D02*
X028210Y006263D01*
X028168Y006165D02*
X024228Y006165D01*
X024077Y006362D02*
X020523Y006362D01*
X021724Y005672D02*
X022583Y005672D01*
X022286Y005574D02*
X021822Y005574D01*
X021876Y005475D02*
X022093Y005475D01*
X022207Y005547D02*
X022207Y005547D01*
X023024Y005710D02*
X023024Y005710D01*
X023244Y005672D02*
X024063Y005672D01*
X023965Y005574D02*
X023582Y005574D01*
X023803Y005475D02*
X023917Y005475D01*
X023821Y005467D02*
X023821Y005467D01*
X024572Y005672D02*
X027963Y005672D01*
X027922Y005574D02*
X024671Y005574D01*
X024718Y005475D02*
X027881Y005475D01*
X027840Y005377D02*
X024748Y005377D01*
X024748Y005278D02*
X027798Y005278D01*
X027757Y005180D02*
X024726Y005180D01*
X024685Y005081D02*
X027716Y005081D01*
X027675Y004983D02*
X024590Y004983D01*
X024728Y004884D02*
X027634Y004884D01*
X027593Y004786D02*
X024888Y004786D01*
X025048Y004687D02*
X027552Y004687D01*
X027511Y004589D02*
X025209Y004589D01*
X025369Y004490D02*
X027470Y004490D01*
X027428Y004392D02*
X025530Y004392D01*
X025690Y004293D02*
X026651Y004293D01*
X026492Y004195D02*
X025850Y004195D01*
X026011Y004096D02*
X026412Y004096D01*
X026372Y003998D02*
X026171Y003998D01*
X026332Y003899D02*
X026361Y003899D01*
X026930Y004293D02*
X027387Y004293D01*
X027346Y004195D02*
X027089Y004195D01*
X027169Y004096D02*
X027305Y004096D01*
X027264Y003998D02*
X027210Y003998D01*
X024074Y006460D02*
X016839Y006460D01*
X016839Y006559D02*
X024071Y006559D01*
X024069Y006657D02*
X016839Y006657D01*
X016839Y006756D02*
X024066Y006756D01*
X024063Y006854D02*
X016839Y006854D01*
X016839Y006953D02*
X024061Y006953D01*
X024058Y007051D02*
X016839Y007051D01*
X016839Y007150D02*
X019849Y007150D01*
X019847Y007248D02*
X016839Y007248D01*
X016107Y008332D02*
X013170Y008332D01*
X016057Y005779D02*
X016057Y005779D01*
X019845Y007340D02*
X019845Y011508D01*
X021852Y011508D01*
X021852Y012258D01*
X018993Y012258D01*
X018995Y011680D01*
X019042Y011634D01*
X019091Y011515D01*
X019091Y011385D01*
X019845Y011385D01*
X019845Y011287D02*
X019050Y011287D01*
X019042Y011266D02*
X019091Y011385D01*
X019091Y011484D02*
X019845Y011484D01*
X019845Y011188D02*
X019067Y011188D01*
X019044Y011243D02*
X019031Y011256D01*
X019042Y011266D01*
X019044Y011243D02*
X019093Y011124D01*
X019093Y010994D01*
X019044Y010875D01*
X019024Y010854D01*
X019033Y010845D01*
X019082Y010726D01*
X019082Y010597D01*
X019082Y010696D02*
X019845Y010696D01*
X019845Y010794D02*
X019054Y010794D01*
X019051Y010893D02*
X019845Y010893D01*
X019845Y010991D02*
X019092Y010991D01*
X019093Y011090D02*
X019845Y011090D01*
X019063Y011582D02*
X021852Y011582D01*
X021852Y011681D02*
X018995Y011681D01*
X018995Y011779D02*
X021852Y011779D01*
X021852Y011878D02*
X018995Y011878D01*
X018994Y011976D02*
X021852Y011976D01*
X021852Y012075D02*
X018994Y012075D01*
X018994Y012173D02*
X021852Y012173D01*
X022439Y012666D02*
X022739Y012666D01*
X022682Y012722D02*
X022682Y012722D01*
X022643Y012764D02*
X022537Y012764D01*
X021646Y013848D02*
X021481Y013848D01*
X021537Y013946D02*
X021556Y013946D01*
X019722Y013158D02*
X019297Y013158D01*
X028398Y006953D02*
X028434Y006953D01*
D23*
X019866Y013450D02*
X019152Y013450D01*
X018757Y013829D02*
X018766Y011450D01*
X018768Y011059D02*
X018566Y011050D01*
X018466Y011150D01*
X018477Y013703D01*
X018204Y013974D01*
X017007Y013974D01*
X015516Y015463D01*
X015516Y018050D01*
X016516Y018050D02*
X016525Y016992D01*
X016092Y016561D01*
X016086Y015259D01*
X017124Y014207D01*
X018384Y014212D01*
X018757Y013829D01*
X018649Y014531D02*
X017329Y014516D01*
X016742Y015112D01*
X016735Y016460D01*
X017516Y018050D02*
X017546Y018090D01*
X017855Y013461D02*
X015266Y013450D01*
X014266Y012750D02*
X017466Y012750D01*
X017766Y012450D01*
X017766Y010550D01*
X018066Y010250D01*
X018724Y010237D01*
X018784Y009850D02*
X018602Y009850D01*
X018512Y009760D01*
X018512Y009024D01*
X018284Y008797D01*
X016882Y008797D01*
X016337Y008252D01*
X016337Y006555D01*
X016034Y006252D01*
X013742Y006252D01*
X013519Y006475D01*
X013519Y006995D01*
X013358Y007155D01*
X012811Y007155D01*
X012766Y007200D01*
X012766Y006250D02*
X013267Y006250D01*
X013291Y006250D01*
X013523Y006014D01*
X016152Y006009D01*
X016609Y006466D01*
X016609Y008165D01*
X017002Y008558D01*
X018478Y008558D01*
X018822Y008979D01*
X018821Y009450D01*
X018757Y010661D02*
X018366Y010650D01*
X018066Y010950D01*
X018066Y012750D01*
X017766Y013050D01*
X013266Y013050D01*
X013816Y012300D02*
X014266Y012750D01*
X013816Y012300D02*
X013256Y012300D01*
X012772Y011150D02*
X012673Y011051D01*
D24*
X019395Y005496D03*
X027021Y006955D03*
D25*
X012932Y004749D02*
X012932Y004100D01*
X012429Y004097D01*
X012410Y004105D01*
X012257Y004105D01*
X012235Y004096D01*
X011826Y004093D01*
X011792Y004176D01*
X011718Y004250D01*
X011620Y004290D01*
X011515Y004290D01*
X011418Y004250D01*
X011343Y004176D01*
X011308Y004090D01*
X011117Y004089D01*
X011117Y004720D01*
X012932Y004749D01*
X012932Y004704D02*
X011117Y004704D01*
X011117Y004645D02*
X012932Y004645D01*
X012932Y004587D02*
X011117Y004587D01*
X011117Y004528D02*
X012932Y004528D01*
X012932Y004470D02*
X011117Y004470D01*
X011117Y004411D02*
X012932Y004411D01*
X012932Y004353D02*
X011117Y004353D01*
X011117Y004294D02*
X012932Y004294D01*
X012932Y004236D02*
X011733Y004236D01*
X011791Y004177D02*
X012932Y004177D01*
X012932Y004119D02*
X011816Y004119D01*
X011403Y004236D02*
X011117Y004236D01*
X011117Y004177D02*
X011345Y004177D01*
X011319Y004119D02*
X011117Y004119D01*
D26*
X012160Y005240D02*
X012767Y005652D01*
X016333Y005650D01*
X016469Y005654D01*
X017031Y005654D01*
X017062Y005651D01*
X017345Y005649D01*
X017685Y005649D01*
X017985Y005949D01*
X017985Y006306D01*
X018330Y006650D01*
X023476Y006650D01*
X023780Y006717D01*
X019348Y008759D02*
X018721Y008132D01*
X017798Y008132D01*
X017501Y007835D01*
X017501Y006105D01*
X017062Y005651D01*
X017028Y006310D02*
X016401Y005685D01*
X016366Y005650D01*
X016333Y005650D01*
X017028Y006310D02*
X017023Y006657D01*
X017026Y008096D01*
X019348Y008759D02*
X019348Y011700D01*
X019598Y011950D01*
X021566Y011950D01*
X012673Y011051D02*
X012671Y010550D01*
X012666Y009550D01*
X011966Y008850D01*
X011966Y005389D01*
X012219Y005273D01*
X006466Y002430D02*
X005566Y003330D01*
X005566Y004650D01*
X005478Y004738D01*
X005401Y004808D01*
X012673Y011051D02*
X012428Y011511D01*
D27*
X006152Y008193D02*
X005146Y008190D01*
X004766Y008660D01*
X003168Y008442D02*
X003166Y011050D01*
X003866Y011750D01*
M02*
