G75*
%MOIN*%
%OFA0B0*%
%FSLAX24Y24*%
%IPPOS*%
%LPD*%
%AMOC8*
5,1,8,0,0,1.08239X$1,22.5*
%
%ADD10C,0.0160*%
%ADD11C,0.0020*%
%ADD12C,0.0000*%
%ADD13C,0.0100*%
%ADD14C,0.0120*%
%ADD15R,0.0118X0.0002*%
%ADD16R,0.0154X0.0002*%
%ADD17R,0.0105X0.0002*%
%ADD18R,0.0644X0.0002*%
%ADD19R,0.0256X0.0002*%
%ADD20R,0.0069X0.0002*%
%ADD21R,0.0205X0.0002*%
%ADD22R,0.0288X0.0002*%
%ADD23R,0.0154X0.0002*%
%ADD24R,0.0355X0.0002*%
%ADD25R,0.0187X0.0002*%
%ADD26R,0.0390X0.0002*%
%ADD27R,0.0426X0.0002*%
%ADD28R,0.0457X0.0002*%
%ADD29R,0.0457X0.0002*%
%ADD30R,0.0524X0.0002*%
%ADD31R,0.0172X0.0002*%
%ADD32R,0.0136X0.0002*%
%ADD33R,0.0221X0.0002*%
%ADD34R,0.0221X0.0002*%
%ADD35R,0.0190X0.0002*%
%ADD36R,0.0239X0.0002*%
%ADD37R,0.0169X0.0002*%
%ADD38R,0.0138X0.0002*%
%ADD39R,0.0087X0.0002*%
%ADD40R,0.0136X0.0002*%
%ADD41R,0.0105X0.0002*%
%ADD42R,0.0123X0.0002*%
%ADD43R,0.0152X0.0002*%
%ADD44R,0.0087X0.0002*%
%ADD45R,0.0103X0.0002*%
%ADD46R,0.0134X0.0002*%
%ADD47R,0.0038X0.0002*%
%ADD48R,0.0051X0.0002*%
%ADD49R,0.0085X0.0002*%
%ADD50R,0.0120X0.0002*%
%ADD51R,0.0103X0.0002*%
%ADD52R,0.0241X0.0002*%
%ADD53R,0.0054X0.0002*%
%ADD54R,0.0020X0.0002*%
%ADD55R,0.0223X0.0002*%
%ADD56R,0.0203X0.0002*%
%ADD57R,0.0270X0.0002*%
%ADD58R,0.0321X0.0002*%
%ADD59R,0.0172X0.0002*%
%ADD60R,0.0306X0.0002*%
%ADD61R,0.0339X0.0002*%
%ADD62R,0.0763X0.0002*%
%ADD63R,0.0760X0.0002*%
%ADD64R,0.0272X0.0002*%
%ADD65R,0.0169X0.0002*%
%ADD66R,0.0743X0.0002*%
%ADD67R,0.0745X0.0002*%
%ADD68R,0.0120X0.0002*%
%ADD69R,0.0123X0.0002*%
%ADD70R,0.0138X0.0002*%
%ADD71R,0.0323X0.0002*%
%ADD72R,0.0357X0.0002*%
%ADD73R,0.0341X0.0002*%
%ADD74R,0.0375X0.0002*%
%ADD75R,0.0473X0.0002*%
%ADD76R,0.0303X0.0002*%
%ADD77R,0.0408X0.0002*%
%ADD78R,0.0439X0.0002*%
%ADD79R,0.0372X0.0002*%
%ADD80R,0.0691X0.0002*%
%ADD81R,0.0390X0.0002*%
%ADD82R,0.0609X0.0002*%
%ADD83R,0.0542X0.0002*%
%ADD84R,0.0475X0.0002*%
%ADD85R,0.0408X0.0002*%
%ADD86R,0.0308X0.0002*%
%ADD87R,0.0290X0.0002*%
%ADD88R,0.0341X0.0002*%
%ADD89C,0.0030*%
%ADD90C,0.0050*%
%ADD91C,0.0080*%
%ADD92C,0.0039*%
%ADD93R,0.0157X0.0098*%
%ADD94R,0.0098X0.0157*%
%ADD95C,0.0060*%
%ADD96C,0.0220*%
D10*
X001715Y000630D02*
X007544Y000630D01*
X007543Y000630D02*
X007614Y000631D01*
X007684Y000636D01*
X007754Y000644D01*
X007823Y000657D01*
X007892Y000673D01*
X007959Y000692D01*
X008026Y000716D01*
X008091Y000743D01*
X008154Y000773D01*
X008216Y000807D01*
X008276Y000844D01*
X008333Y000884D01*
X008389Y000928D01*
X008442Y000974D01*
X008492Y001023D01*
X008540Y001075D01*
X008585Y001129D01*
X008627Y001186D01*
X008666Y001245D01*
X008701Y001305D01*
X008733Y001368D01*
X008762Y001432D01*
X008787Y001498D01*
X008809Y001565D01*
X008827Y001633D01*
X008841Y001702D01*
X008851Y001772D01*
X008858Y001842D01*
X008861Y001912D01*
X008861Y012030D01*
X008857Y012098D01*
X008850Y012165D01*
X008839Y012233D01*
X008825Y012299D01*
X008806Y012365D01*
X008784Y012429D01*
X008759Y012493D01*
X008730Y012554D01*
X008697Y012614D01*
X008662Y012672D01*
X008623Y012728D01*
X008580Y012782D01*
X008535Y012833D01*
X008488Y012881D01*
X008437Y012927D01*
X008384Y012970D01*
X008329Y013010D01*
X008272Y013047D01*
X008212Y013080D01*
X008151Y013110D01*
X008088Y013137D01*
X008024Y013160D01*
X007959Y013179D01*
X007892Y013195D01*
X007825Y013207D01*
X007758Y013215D01*
X007690Y013219D01*
X007621Y013220D01*
X007622Y013220D02*
X001816Y013220D01*
X001747Y013218D01*
X001679Y013213D01*
X001611Y013203D01*
X001543Y013190D01*
X001476Y013174D01*
X001410Y013154D01*
X001346Y013130D01*
X001283Y013103D01*
X001221Y013072D01*
X001161Y013038D01*
X001103Y013001D01*
X001047Y012961D01*
X000994Y012918D01*
X000943Y012872D01*
X000894Y012823D01*
X000848Y012772D01*
X000805Y012719D01*
X000765Y012663D01*
X000728Y012605D01*
X000694Y012545D01*
X000663Y012483D01*
X000636Y012420D01*
X000612Y012356D01*
X000592Y012290D01*
X000576Y012223D01*
X000563Y012155D01*
X000553Y012087D01*
X000548Y012019D01*
X000546Y011950D01*
X000546Y001798D01*
X000547Y001798D02*
X000549Y001730D01*
X000555Y001662D01*
X000565Y001595D01*
X000578Y001529D01*
X000596Y001463D01*
X000617Y001399D01*
X000643Y001335D01*
X000671Y001274D01*
X000703Y001214D01*
X000739Y001156D01*
X000778Y001101D01*
X000820Y001047D01*
X000865Y000996D01*
X000913Y000948D01*
X000964Y000903D01*
X001018Y000861D01*
X001073Y000822D01*
X001131Y000786D01*
X001191Y000754D01*
X001252Y000726D01*
X001316Y000700D01*
X001380Y000679D01*
X001446Y000661D01*
X001512Y000648D01*
X001579Y000638D01*
X001647Y000632D01*
X001715Y000630D01*
X010775Y001219D02*
X010801Y001167D01*
X010831Y001117D01*
X010863Y001068D01*
X010899Y001022D01*
X010938Y000978D01*
X010979Y000937D01*
X011023Y000899D01*
X011069Y000863D01*
X011117Y000831D01*
X011167Y000801D01*
X011220Y000775D01*
X011273Y000753D01*
X011328Y000733D01*
X011384Y000718D01*
X011441Y000706D01*
X011499Y000698D01*
X011557Y000693D01*
X011616Y000692D01*
X011674Y000695D01*
X011732Y000702D01*
X011789Y000712D01*
X011846Y000726D01*
X011901Y000744D01*
X011955Y000765D01*
X012008Y000790D01*
X012010Y000806D01*
X022207Y005156D01*
X022270Y005193D01*
X022335Y005228D01*
X022401Y005258D01*
X022469Y005285D01*
X022538Y005309D01*
X022608Y005328D01*
X022680Y005344D01*
X022752Y005356D01*
X022824Y005364D01*
X022897Y005368D01*
X022970Y005369D01*
X023043Y005365D01*
X023116Y005357D01*
X023188Y005346D01*
X023260Y005331D01*
X023330Y005312D01*
X023400Y005289D01*
X023468Y005262D01*
X023534Y005232D01*
X023599Y005198D01*
X023662Y005161D01*
X023723Y005121D01*
X023782Y005077D01*
X023782Y005078D02*
X026384Y003479D01*
X026432Y003450D01*
X026481Y003424D01*
X026532Y003402D01*
X026585Y003383D01*
X026639Y003369D01*
X026693Y003358D01*
X026749Y003350D01*
X026804Y003347D01*
X026860Y003348D01*
X026916Y003353D01*
X026971Y003361D01*
X027025Y003374D01*
X027079Y003390D01*
X027131Y003410D01*
X027181Y003433D01*
X027230Y003460D01*
X027277Y003491D01*
X027321Y003524D01*
X027363Y003561D01*
X027403Y003601D01*
X027439Y003643D01*
X027473Y003687D01*
X027503Y003734D01*
X027530Y003783D01*
X027553Y003834D01*
X028664Y006495D01*
X028691Y006558D01*
X028714Y006622D01*
X028733Y006688D01*
X028749Y006754D01*
X028760Y006822D01*
X028768Y006890D01*
X028772Y006958D01*
X028771Y007027D01*
X028767Y007095D01*
X028759Y007163D01*
X028748Y007230D01*
X028732Y007297D01*
X028712Y007362D01*
X028689Y007427D01*
X028662Y007490D01*
X028632Y007551D01*
X028598Y007611D01*
X028561Y007668D01*
X028520Y007723D01*
X028477Y007776D01*
X028430Y007826D01*
X028229Y008020D01*
X010776Y001220D02*
X010621Y002132D01*
X010488Y003047D01*
X010378Y003965D01*
X010289Y004886D01*
X010223Y005809D01*
X010178Y006733D01*
X010157Y007657D01*
X010157Y008582D01*
X010180Y009507D01*
X010225Y010431D01*
X010292Y011353D01*
X010381Y012274D01*
X010493Y013192D01*
X010626Y014108D01*
X010782Y015019D01*
X010959Y015927D01*
X011159Y016830D01*
X011380Y017729D01*
X011622Y018621D01*
X012523Y019660D02*
X014851Y021121D01*
X014831Y021122D02*
X014897Y021153D01*
X014964Y021181D01*
X015033Y021205D01*
X015102Y021225D01*
X015173Y021242D01*
X015245Y021255D01*
X015317Y021264D01*
X015390Y021269D01*
X015463Y021270D01*
X015535Y021267D01*
X015608Y021260D01*
X015680Y021250D01*
X015751Y021235D01*
X015822Y021217D01*
X015891Y021195D01*
X015959Y021169D01*
X016026Y021140D01*
X016091Y021107D01*
X016154Y021071D01*
X016215Y021031D01*
X016274Y020988D01*
X016330Y020942D01*
X016384Y020894D01*
X016435Y020842D01*
X016483Y020787D01*
X012522Y019659D02*
X012447Y019615D01*
X012374Y019567D01*
X012302Y019516D01*
X012233Y019462D01*
X012166Y019405D01*
X012102Y019346D01*
X012041Y019283D01*
X011982Y019218D01*
X011926Y019151D01*
X011873Y019081D01*
X011823Y019009D01*
X011776Y018935D01*
X011732Y018859D01*
X011692Y018781D01*
X011655Y018702D01*
X011622Y018621D01*
X016483Y020786D02*
X017408Y019503D01*
X018364Y018243D01*
X019349Y017005D01*
X020363Y015792D01*
X021406Y014603D01*
X022477Y013439D01*
X023575Y012301D01*
X024700Y011189D01*
X025851Y010105D01*
X027028Y009048D01*
X028229Y008019D01*
D11*
X025969Y008258D02*
X025969Y008405D01*
X025896Y008478D01*
X025823Y008405D01*
X025823Y008258D01*
X025823Y008368D02*
X025969Y008368D01*
X025075Y008593D02*
X025075Y008629D01*
X025038Y008666D01*
X024928Y008666D01*
X024928Y008593D01*
X024964Y008556D01*
X025038Y008556D01*
X025075Y008593D01*
X025001Y008740D02*
X024928Y008666D01*
X025001Y008740D02*
X025075Y008776D01*
X024854Y008740D02*
X024854Y008593D01*
X024817Y008556D01*
X024707Y008556D01*
X024707Y008776D01*
X024817Y008776D01*
X024854Y008740D01*
X023430Y009958D02*
X023430Y009995D01*
X023577Y010142D01*
X023577Y010179D01*
X023430Y010179D01*
X023356Y010142D02*
X023356Y009995D01*
X023319Y009958D01*
X023209Y009958D01*
X023209Y010179D01*
X023319Y010179D01*
X023356Y010142D01*
X024560Y010307D02*
X024560Y010454D01*
X024634Y010528D01*
X024707Y010454D01*
X024707Y010307D01*
X024707Y010417D02*
X024560Y010417D01*
X020634Y012490D02*
X020634Y012710D01*
X020524Y012600D01*
X020671Y012600D01*
X020450Y012673D02*
X020413Y012710D01*
X020340Y012710D01*
X020303Y012673D01*
X020303Y012526D01*
X020340Y012490D01*
X020413Y012490D01*
X020450Y012526D01*
X020229Y012490D02*
X020156Y012490D01*
X020193Y012490D02*
X020193Y012710D01*
X020229Y012710D02*
X020156Y012710D01*
X017534Y011291D02*
X017388Y011144D01*
X017424Y011108D01*
X017498Y011108D01*
X017534Y011144D01*
X017534Y011291D01*
X017498Y011328D01*
X017424Y011328D01*
X017388Y011291D01*
X017388Y011144D01*
X017313Y011108D02*
X017167Y011108D01*
X017240Y011108D02*
X017240Y011328D01*
X017167Y011254D01*
X017092Y011218D02*
X017056Y011181D01*
X016946Y011181D01*
X017019Y011181D02*
X017092Y011108D01*
X017092Y011218D02*
X017092Y011291D01*
X017056Y011328D01*
X016946Y011328D01*
X016946Y011108D01*
X016446Y010559D02*
X016373Y010559D01*
X016336Y010523D01*
X016336Y010486D01*
X016373Y010449D01*
X016483Y010449D01*
X016483Y010376D02*
X016483Y010523D01*
X016446Y010559D01*
X016483Y010376D02*
X016446Y010339D01*
X016373Y010339D01*
X016336Y010376D01*
X016262Y010339D02*
X016189Y010412D01*
X016225Y010412D02*
X016115Y010412D01*
X016115Y010339D02*
X016115Y010559D01*
X016225Y010559D01*
X016262Y010523D01*
X016262Y010449D01*
X016225Y010412D01*
X017049Y010065D02*
X017049Y009845D01*
X017049Y009919D02*
X017159Y009919D01*
X017196Y009955D01*
X017196Y010029D01*
X017159Y010065D01*
X017049Y010065D01*
X017123Y009919D02*
X017196Y009845D01*
X017270Y009845D02*
X017270Y009882D01*
X017417Y010029D01*
X017417Y010065D01*
X017270Y010065D01*
X016736Y009267D02*
X016773Y009230D01*
X016773Y009193D01*
X016736Y009157D01*
X016773Y009120D01*
X016773Y009083D01*
X016736Y009047D01*
X016663Y009047D01*
X016626Y009083D01*
X016552Y009047D02*
X016405Y009047D01*
X016478Y009047D02*
X016478Y009267D01*
X016405Y009193D01*
X016331Y009230D02*
X016294Y009267D01*
X016221Y009267D01*
X016184Y009230D01*
X016184Y009083D01*
X016221Y009047D01*
X016294Y009047D01*
X016331Y009083D01*
X016626Y009230D02*
X016663Y009267D01*
X016736Y009267D01*
X016736Y009157D02*
X016699Y009157D01*
X018265Y008569D02*
X018265Y008422D01*
X018301Y008386D01*
X018375Y008386D01*
X018411Y008422D01*
X018486Y008386D02*
X018632Y008386D01*
X018559Y008386D02*
X018559Y008606D01*
X018486Y008533D01*
X018411Y008569D02*
X018375Y008606D01*
X018301Y008606D01*
X018265Y008569D01*
X018707Y008569D02*
X018707Y008422D01*
X018853Y008569D01*
X018853Y008422D01*
X018817Y008386D01*
X018743Y008386D01*
X018707Y008422D01*
X018707Y008569D02*
X018743Y008606D01*
X018817Y008606D01*
X018853Y008569D01*
X017701Y007291D02*
X017554Y007291D01*
X017554Y007180D01*
X017627Y007217D01*
X017664Y007217D01*
X017701Y007180D01*
X017701Y007107D01*
X017664Y007070D01*
X017590Y007070D01*
X017554Y007107D01*
X017480Y007107D02*
X017443Y007070D01*
X017369Y007070D01*
X017333Y007107D01*
X017333Y007254D01*
X017369Y007291D01*
X017443Y007291D01*
X017480Y007254D01*
X018353Y005932D02*
X018500Y005932D01*
X018500Y005895D01*
X018353Y005749D01*
X018353Y005712D01*
X018500Y005712D01*
X016694Y005495D02*
X016694Y005458D01*
X016621Y005385D01*
X016621Y005275D01*
X016621Y005385D02*
X016547Y005458D01*
X016547Y005495D01*
X016473Y005385D02*
X016326Y005385D01*
X016400Y005458D02*
X016400Y005311D01*
X015477Y004532D02*
X015256Y004532D01*
X015366Y004422D01*
X015366Y004568D01*
X015477Y004347D02*
X015477Y004201D01*
X015477Y004274D02*
X015256Y004274D01*
X015330Y004201D01*
X015293Y004127D02*
X015256Y004090D01*
X015256Y004016D01*
X015293Y003980D01*
X015440Y003980D01*
X015477Y004016D01*
X015477Y004090D01*
X015440Y004127D01*
X014653Y004132D02*
X014653Y004279D01*
X014653Y004205D02*
X014433Y004205D01*
X014506Y004132D01*
X014469Y004058D02*
X014433Y004021D01*
X014433Y003948D01*
X014469Y003911D01*
X014616Y003911D01*
X014653Y003948D01*
X014653Y004021D01*
X014616Y004058D01*
X014653Y004353D02*
X014653Y004500D01*
X014653Y004426D02*
X014433Y004426D01*
X014506Y004353D01*
X013208Y004456D02*
X013208Y004603D01*
X013172Y004640D01*
X013062Y004640D01*
X013062Y004420D01*
X013172Y004420D01*
X013208Y004456D01*
X012987Y004420D02*
X012987Y004640D01*
X012841Y004640D02*
X012987Y004420D01*
X012841Y004420D02*
X012841Y004640D01*
X012766Y004603D02*
X012730Y004640D01*
X012656Y004640D01*
X012620Y004603D01*
X012620Y004456D01*
X012656Y004420D01*
X012730Y004420D01*
X012766Y004456D01*
X012766Y004530D01*
X012693Y004530D01*
X012740Y003896D02*
X012887Y003896D01*
X012813Y003896D02*
X012813Y003676D01*
X012961Y003676D02*
X013108Y003896D01*
X012961Y003896D02*
X013108Y003676D01*
X013107Y003231D02*
X013254Y003011D01*
X013107Y003011D02*
X013254Y003231D01*
X013033Y003195D02*
X013033Y003121D01*
X012996Y003084D01*
X012886Y003084D01*
X012886Y003011D02*
X012886Y003231D01*
X012996Y003231D01*
X013033Y003195D01*
X012959Y003084D02*
X013033Y003011D01*
X013057Y002566D02*
X013167Y002566D01*
X013203Y002530D01*
X013203Y002456D01*
X013167Y002419D01*
X013057Y002419D01*
X013057Y002346D02*
X013057Y002566D01*
X013130Y002419D02*
X013203Y002346D01*
X013278Y002383D02*
X013314Y002346D01*
X013388Y002346D01*
X013424Y002383D01*
X013424Y002419D01*
X013388Y002456D01*
X013314Y002456D01*
X013278Y002493D01*
X013278Y002530D01*
X013314Y002566D01*
X013388Y002566D01*
X013424Y002530D01*
X013499Y002566D02*
X013645Y002566D01*
X013572Y002566D02*
X013572Y002346D01*
X013720Y002346D02*
X013866Y002566D01*
X013196Y005285D02*
X013123Y005285D01*
X013086Y005322D01*
X013086Y005469D01*
X013123Y005506D01*
X013196Y005506D01*
X013233Y005469D01*
X013233Y005322D02*
X013196Y005285D01*
X013012Y005322D02*
X012975Y005285D01*
X012902Y005285D01*
X012865Y005322D01*
X012865Y005469D01*
X012902Y005506D01*
X012975Y005506D01*
X013012Y005469D01*
X012791Y005506D02*
X012791Y005359D01*
X012718Y005285D01*
X012644Y005359D01*
X012644Y005506D01*
X014461Y008233D02*
X014534Y008233D01*
X014497Y008233D02*
X014497Y008453D01*
X014461Y008453D02*
X014534Y008453D01*
X014608Y008416D02*
X014645Y008453D01*
X014718Y008453D01*
X014755Y008416D01*
X014829Y008453D02*
X014829Y008343D01*
X014902Y008379D01*
X014939Y008379D01*
X014976Y008343D01*
X014976Y008269D01*
X014939Y008233D01*
X014866Y008233D01*
X014829Y008269D01*
X014755Y008269D02*
X014718Y008233D01*
X014645Y008233D01*
X014608Y008269D01*
X014608Y008416D01*
X014829Y008453D02*
X014976Y008453D01*
X014665Y010360D02*
X014591Y010360D01*
X014555Y010396D01*
X014555Y010433D01*
X014591Y010470D01*
X014665Y010470D01*
X014701Y010433D01*
X014701Y010396D01*
X014665Y010360D01*
X014665Y010470D02*
X014701Y010506D01*
X014701Y010543D01*
X014665Y010580D01*
X014591Y010580D01*
X014555Y010543D01*
X014555Y010506D01*
X014591Y010470D01*
X014480Y010470D02*
X014444Y010433D01*
X014334Y010433D01*
X014407Y010433D02*
X014480Y010360D01*
X014480Y010470D02*
X014480Y010543D01*
X014444Y010580D01*
X014334Y010580D01*
X014334Y010360D01*
X012262Y010414D02*
X012262Y010561D01*
X012188Y010635D01*
X012115Y010561D01*
X012115Y010414D01*
X012115Y010524D02*
X012262Y010524D01*
X011889Y011360D02*
X011816Y011360D01*
X011779Y011397D01*
X011705Y011397D02*
X011668Y011360D01*
X011595Y011360D01*
X011558Y011397D01*
X011558Y011544D01*
X011595Y011580D01*
X011668Y011580D01*
X011705Y011544D01*
X011779Y011544D02*
X011816Y011580D01*
X011889Y011580D01*
X011926Y011544D01*
X011926Y011507D01*
X011889Y011470D01*
X011926Y011433D01*
X011926Y011397D01*
X011889Y011360D01*
X011889Y011470D02*
X011852Y011470D01*
X007934Y011463D02*
X007714Y011463D01*
X007714Y011610D02*
X007861Y011610D01*
X007934Y011684D01*
X007861Y011757D01*
X007714Y011757D01*
X007751Y011831D02*
X007714Y011868D01*
X007714Y011978D01*
X007934Y011978D01*
X007934Y011868D01*
X007898Y011831D01*
X007861Y011831D01*
X007824Y011868D01*
X007824Y011978D01*
X007824Y011868D02*
X007787Y011831D01*
X007751Y011831D01*
X007824Y011757D02*
X007824Y011610D01*
X007934Y011536D02*
X007934Y011389D01*
X007824Y011315D02*
X007824Y011168D01*
X007013Y011421D02*
X007013Y011568D01*
X007013Y011495D02*
X006792Y011495D01*
X006792Y011642D02*
X006939Y011642D01*
X007013Y011716D01*
X006939Y011789D01*
X006792Y011789D01*
X006829Y011863D02*
X006792Y011900D01*
X006792Y012010D01*
X007013Y012010D01*
X007013Y011900D01*
X006976Y011863D01*
X006939Y011863D01*
X006902Y011900D01*
X006902Y012010D01*
X006902Y011900D02*
X006866Y011863D01*
X006829Y011863D01*
X006902Y011789D02*
X006902Y011642D01*
X006902Y011347D02*
X006902Y011200D01*
X006829Y011274D02*
X006976Y011274D01*
X006222Y011033D02*
X006222Y010813D01*
X006149Y010813D02*
X006295Y010813D01*
X006149Y010959D02*
X006222Y011033D01*
X006074Y010996D02*
X006074Y010923D01*
X006038Y010886D01*
X005928Y010886D01*
X006001Y010886D02*
X006074Y010813D01*
X005928Y010813D02*
X005928Y011033D01*
X006038Y011033D01*
X006074Y010996D01*
X004895Y011669D02*
X004748Y011669D01*
X004821Y011669D02*
X004821Y011890D01*
X004748Y011816D01*
X004674Y011853D02*
X004637Y011890D01*
X004563Y011890D01*
X004527Y011853D01*
X004527Y011706D01*
X004563Y011669D01*
X004637Y011669D01*
X004674Y011706D01*
X004453Y011669D02*
X004379Y011669D01*
X004416Y011669D02*
X004416Y011890D01*
X004379Y011890D02*
X004453Y011890D01*
X005054Y012863D02*
X005164Y012863D01*
X005201Y012900D01*
X005201Y013047D01*
X005164Y013084D01*
X005054Y013084D01*
X005054Y012863D01*
X005275Y012863D02*
X005422Y012863D01*
X005469Y012866D02*
X005616Y012866D01*
X005616Y012903D02*
X005616Y012756D01*
X005469Y012756D02*
X005469Y012903D01*
X005543Y012976D01*
X005616Y012903D01*
X005348Y012863D02*
X005348Y013084D01*
X005275Y013010D01*
X002831Y012597D02*
X002684Y012597D01*
X002757Y012597D02*
X002757Y012818D01*
X002684Y012744D01*
X002610Y012781D02*
X002573Y012818D01*
X002500Y012818D01*
X002463Y012781D01*
X002463Y012744D01*
X002500Y012708D01*
X002573Y012708D01*
X002610Y012671D01*
X002610Y012634D01*
X002573Y012597D01*
X002500Y012597D01*
X002463Y012634D01*
X004359Y010425D02*
X004322Y010388D01*
X004322Y010241D01*
X004359Y010205D01*
X004433Y010205D01*
X004469Y010241D01*
X004543Y010241D02*
X004543Y010315D01*
X004654Y010315D01*
X004690Y010278D01*
X004690Y010241D01*
X004654Y010205D01*
X004580Y010205D01*
X004543Y010241D01*
X004543Y010315D02*
X004617Y010388D01*
X004690Y010425D01*
X004469Y010388D02*
X004433Y010425D01*
X004359Y010425D01*
X004847Y009058D02*
X004774Y008985D01*
X004774Y008838D01*
X004774Y008948D02*
X004920Y008948D01*
X004920Y008985D02*
X004920Y008838D01*
X004920Y008985D02*
X004847Y009058D01*
X006152Y009566D02*
X006188Y009529D01*
X006262Y009529D01*
X006298Y009566D01*
X006373Y009529D02*
X006519Y009676D01*
X006519Y009713D01*
X006483Y009749D01*
X006409Y009749D01*
X006373Y009713D01*
X006298Y009713D02*
X006262Y009749D01*
X006188Y009749D01*
X006152Y009713D01*
X006152Y009566D01*
X006373Y009529D02*
X006519Y009529D01*
X006845Y009457D02*
X006991Y009237D01*
X007066Y009237D02*
X007212Y009237D01*
X007139Y009237D02*
X007139Y009457D01*
X007066Y009384D01*
X006991Y009457D02*
X006845Y009237D01*
X003393Y008845D02*
X003357Y008881D01*
X003283Y008881D01*
X003246Y008845D01*
X003172Y008845D02*
X003136Y008881D01*
X003025Y008881D01*
X003025Y008661D01*
X003136Y008661D01*
X003172Y008698D01*
X003172Y008845D01*
X003246Y008661D02*
X003393Y008808D01*
X003393Y008845D01*
X003393Y008661D02*
X003246Y008661D01*
X001678Y008528D02*
X001678Y008381D01*
X001678Y008492D02*
X001532Y008492D01*
X001532Y008528D02*
X001605Y008602D01*
X001678Y008528D01*
X001532Y008528D02*
X001532Y008381D01*
X001592Y007514D02*
X001702Y007514D01*
X001739Y007477D01*
X001739Y007404D01*
X001702Y007367D01*
X001592Y007367D01*
X001592Y007294D02*
X001592Y007514D01*
X001666Y007367D02*
X001739Y007294D01*
X001813Y007404D02*
X001960Y007404D01*
X001923Y007294D02*
X001923Y007514D01*
X001813Y007404D01*
X001482Y005853D02*
X001555Y005780D01*
X001555Y005633D01*
X001555Y005743D02*
X001409Y005743D01*
X001409Y005780D02*
X001482Y005853D01*
X001409Y005780D02*
X001409Y005633D01*
X000796Y005651D02*
X000796Y005504D01*
X000796Y005577D02*
X000575Y005577D01*
X000649Y005504D01*
X000612Y005430D02*
X000575Y005393D01*
X000575Y005320D01*
X000612Y005283D01*
X000759Y005283D01*
X000796Y005320D01*
X000796Y005393D01*
X000759Y005430D01*
X002122Y004889D02*
X002195Y004889D01*
X002159Y004889D02*
X002159Y004706D01*
X002122Y004669D01*
X002085Y004669D01*
X002049Y004706D01*
X002270Y004743D02*
X002380Y004743D01*
X002416Y004779D01*
X002416Y004853D01*
X002380Y004889D01*
X002270Y004889D01*
X002270Y004669D01*
X002491Y004706D02*
X002527Y004669D01*
X002601Y004669D01*
X002637Y004706D01*
X002637Y004743D01*
X002601Y004779D01*
X002564Y004779D01*
X002601Y004779D02*
X002637Y004816D01*
X002637Y004853D01*
X002601Y004889D01*
X002527Y004889D01*
X002491Y004853D01*
X003063Y004288D02*
X003099Y004288D01*
X003136Y004251D01*
X003173Y004288D01*
X003210Y004288D01*
X003246Y004251D01*
X003246Y004178D01*
X003210Y004141D01*
X003246Y004067D02*
X003173Y003993D01*
X003173Y004030D02*
X003173Y003920D01*
X003246Y003920D02*
X003026Y003920D01*
X003026Y004030D01*
X003063Y004067D01*
X003136Y004067D01*
X003173Y004030D01*
X003063Y004141D02*
X003026Y004178D01*
X003026Y004251D01*
X003063Y004288D01*
X003136Y004251D02*
X003136Y004214D01*
X003824Y004189D02*
X003861Y004152D01*
X003824Y004189D02*
X003824Y004262D01*
X003861Y004299D01*
X003897Y004299D01*
X004044Y004152D01*
X004044Y004299D01*
X004044Y004078D02*
X003971Y004004D01*
X003971Y004041D02*
X003971Y003931D01*
X004044Y003931D02*
X003824Y003931D01*
X003824Y004041D01*
X003861Y004078D01*
X003934Y004078D01*
X003971Y004041D01*
X005542Y004868D02*
X005542Y005051D01*
X005689Y005051D02*
X005689Y004868D01*
X005652Y004831D01*
X005579Y004831D01*
X005542Y004868D01*
X005763Y004831D02*
X005910Y004831D01*
X005837Y004831D02*
X005837Y005051D01*
X005763Y004978D01*
X005733Y005826D02*
X005806Y005826D01*
X005843Y005863D01*
X005917Y005826D02*
X006064Y005973D01*
X006064Y006010D01*
X006027Y006047D01*
X005954Y006047D01*
X005917Y006010D01*
X005843Y006010D02*
X005806Y006047D01*
X005733Y006047D01*
X005696Y006010D01*
X005696Y005863D01*
X005733Y005826D01*
X005622Y005826D02*
X005549Y005826D01*
X005585Y005826D02*
X005585Y006047D01*
X005549Y006047D02*
X005622Y006047D01*
X005917Y005826D02*
X006064Y005826D01*
X007663Y003230D02*
X007626Y003193D01*
X007626Y003047D01*
X007663Y003010D01*
X007736Y003010D01*
X007773Y003047D01*
X007847Y003047D02*
X007884Y003010D01*
X007957Y003010D01*
X007994Y003047D01*
X007994Y003193D01*
X007957Y003230D01*
X007884Y003230D01*
X007847Y003193D01*
X007847Y003157D01*
X007884Y003120D01*
X007994Y003120D01*
X007773Y003193D02*
X007736Y003230D01*
X007663Y003230D01*
X003715Y002256D02*
X003715Y002182D01*
X003679Y002146D01*
X003642Y002146D01*
X003605Y002182D01*
X003605Y002256D01*
X003642Y002293D01*
X003679Y002293D01*
X003715Y002256D01*
X003605Y002256D02*
X003569Y002293D01*
X003532Y002293D01*
X003495Y002256D01*
X003495Y002182D01*
X003532Y002146D01*
X003569Y002146D01*
X003605Y002182D01*
X003532Y002072D02*
X003495Y002035D01*
X003495Y001962D01*
X003532Y001925D01*
X003679Y001925D01*
X003715Y001962D01*
X003715Y002035D01*
X003679Y002072D01*
X017940Y004079D02*
X018087Y004079D01*
X018014Y004153D02*
X018014Y004006D01*
X018161Y003969D02*
X018308Y004190D01*
X018161Y004190D02*
X018308Y003969D01*
X024519Y007199D02*
X024519Y007419D01*
X024629Y007419D01*
X024665Y007383D01*
X024665Y007309D01*
X024629Y007273D01*
X024519Y007273D01*
X024592Y007273D02*
X024665Y007199D01*
X024739Y007236D02*
X024776Y007199D01*
X024850Y007199D01*
X024886Y007236D01*
X024886Y007273D01*
X024850Y007309D01*
X024739Y007309D01*
X024739Y007236D01*
X024739Y007309D02*
X024813Y007383D01*
X024886Y007419D01*
X025524Y006780D02*
X025487Y006743D01*
X025487Y006596D01*
X025524Y006559D01*
X025597Y006559D01*
X025634Y006596D01*
X025708Y006669D02*
X025855Y006669D01*
X025818Y006559D02*
X025818Y006780D01*
X025708Y006669D01*
X025634Y006743D02*
X025597Y006780D01*
X025524Y006780D01*
X013650Y019205D02*
X013603Y019183D01*
X013534Y019208D01*
X013512Y019255D01*
X013442Y019281D02*
X013395Y019259D01*
X013326Y019284D01*
X013304Y019331D01*
X013354Y019469D01*
X013401Y019491D01*
X013470Y019466D01*
X013492Y019419D01*
X013562Y019393D02*
X013609Y019415D01*
X013678Y019390D01*
X013700Y019343D01*
X013687Y019308D01*
X013640Y019287D01*
X013662Y019240D01*
X013650Y019205D01*
X013640Y019287D02*
X013606Y019299D01*
X013222Y019322D02*
X013153Y019347D01*
X013188Y019334D02*
X013263Y019541D01*
X013297Y019529D02*
X013228Y019554D01*
D12*
X012293Y018901D02*
X012295Y018927D01*
X012301Y018953D01*
X012310Y018977D01*
X012323Y019000D01*
X012339Y019021D01*
X012358Y019039D01*
X012379Y019055D01*
X012403Y019067D01*
X012427Y019075D01*
X012453Y019080D01*
X012480Y019081D01*
X012506Y019078D01*
X012531Y019071D01*
X012555Y019061D01*
X012578Y019047D01*
X012598Y019031D01*
X012615Y019011D01*
X012630Y018989D01*
X012641Y018965D01*
X012649Y018940D01*
X012653Y018914D01*
X012653Y018888D01*
X012649Y018862D01*
X012641Y018837D01*
X012630Y018813D01*
X012615Y018791D01*
X012598Y018771D01*
X012578Y018755D01*
X012555Y018741D01*
X012531Y018731D01*
X012506Y018724D01*
X012480Y018721D01*
X012453Y018722D01*
X012427Y018727D01*
X012403Y018735D01*
X012379Y018747D01*
X012358Y018763D01*
X012339Y018781D01*
X012323Y018802D01*
X012310Y018825D01*
X012301Y018849D01*
X012295Y018875D01*
X012293Y018901D01*
X011496Y016853D02*
X011498Y016879D01*
X011504Y016905D01*
X011513Y016929D01*
X011526Y016952D01*
X011542Y016973D01*
X011561Y016991D01*
X011582Y017007D01*
X011606Y017019D01*
X011630Y017027D01*
X011656Y017032D01*
X011683Y017033D01*
X011709Y017030D01*
X011734Y017023D01*
X011758Y017013D01*
X011781Y016999D01*
X011801Y016983D01*
X011818Y016963D01*
X011833Y016941D01*
X011844Y016917D01*
X011852Y016892D01*
X011856Y016866D01*
X011856Y016840D01*
X011852Y016814D01*
X011844Y016789D01*
X011833Y016765D01*
X011818Y016743D01*
X011801Y016723D01*
X011781Y016707D01*
X011758Y016693D01*
X011734Y016683D01*
X011709Y016676D01*
X011683Y016673D01*
X011656Y016674D01*
X011630Y016679D01*
X011606Y016687D01*
X011582Y016699D01*
X011561Y016715D01*
X011542Y016733D01*
X011526Y016754D01*
X011513Y016777D01*
X011504Y016801D01*
X011498Y016827D01*
X011496Y016853D01*
X015123Y020629D02*
X015125Y020655D01*
X015131Y020681D01*
X015140Y020705D01*
X015153Y020728D01*
X015169Y020749D01*
X015188Y020767D01*
X015209Y020783D01*
X015233Y020795D01*
X015257Y020803D01*
X015283Y020808D01*
X015310Y020809D01*
X015336Y020806D01*
X015361Y020799D01*
X015385Y020789D01*
X015408Y020775D01*
X015428Y020759D01*
X015445Y020739D01*
X015460Y020717D01*
X015471Y020693D01*
X015479Y020668D01*
X015483Y020642D01*
X015483Y020616D01*
X015479Y020590D01*
X015471Y020565D01*
X015460Y020541D01*
X015445Y020519D01*
X015428Y020499D01*
X015408Y020483D01*
X015385Y020469D01*
X015361Y020459D01*
X015336Y020452D01*
X015310Y020449D01*
X015283Y020450D01*
X015257Y020455D01*
X015233Y020463D01*
X015209Y020475D01*
X015188Y020491D01*
X015169Y020509D01*
X015153Y020530D01*
X015140Y020553D01*
X015131Y020577D01*
X015125Y020603D01*
X015123Y020629D01*
X018867Y016492D02*
X018869Y016518D01*
X018875Y016544D01*
X018884Y016568D01*
X018897Y016591D01*
X018913Y016612D01*
X018932Y016630D01*
X018953Y016646D01*
X018977Y016658D01*
X019001Y016666D01*
X019027Y016671D01*
X019054Y016672D01*
X019080Y016669D01*
X019105Y016662D01*
X019129Y016652D01*
X019152Y016638D01*
X019172Y016622D01*
X019189Y016602D01*
X019204Y016580D01*
X019215Y016556D01*
X019223Y016531D01*
X019227Y016505D01*
X019227Y016479D01*
X019223Y016453D01*
X019215Y016428D01*
X019204Y016404D01*
X019189Y016382D01*
X019172Y016362D01*
X019152Y016346D01*
X019129Y016332D01*
X019105Y016322D01*
X019080Y016315D01*
X019054Y016312D01*
X019027Y016313D01*
X019001Y016318D01*
X018977Y016326D01*
X018953Y016338D01*
X018932Y016354D01*
X018913Y016372D01*
X018897Y016393D01*
X018884Y016416D01*
X018875Y016440D01*
X018869Y016466D01*
X018867Y016492D01*
X019848Y015511D02*
X019850Y015537D01*
X019856Y015563D01*
X019865Y015587D01*
X019878Y015610D01*
X019894Y015631D01*
X019913Y015649D01*
X019934Y015665D01*
X019958Y015677D01*
X019982Y015685D01*
X020008Y015690D01*
X020035Y015691D01*
X020061Y015688D01*
X020086Y015681D01*
X020110Y015671D01*
X020133Y015657D01*
X020153Y015641D01*
X020170Y015621D01*
X020185Y015599D01*
X020196Y015575D01*
X020204Y015550D01*
X020208Y015524D01*
X020208Y015498D01*
X020204Y015472D01*
X020196Y015447D01*
X020185Y015423D01*
X020170Y015401D01*
X020153Y015381D01*
X020133Y015365D01*
X020110Y015351D01*
X020086Y015341D01*
X020061Y015334D01*
X020035Y015331D01*
X020008Y015332D01*
X019982Y015337D01*
X019958Y015345D01*
X019934Y015357D01*
X019913Y015373D01*
X019894Y015391D01*
X019878Y015412D01*
X019865Y015435D01*
X019856Y015459D01*
X019850Y015485D01*
X019848Y015511D01*
X020961Y014116D02*
X020963Y014142D01*
X020969Y014168D01*
X020978Y014192D01*
X020991Y014215D01*
X021007Y014236D01*
X021026Y014254D01*
X021047Y014270D01*
X021071Y014282D01*
X021095Y014290D01*
X021121Y014295D01*
X021148Y014296D01*
X021174Y014293D01*
X021199Y014286D01*
X021223Y014276D01*
X021246Y014262D01*
X021266Y014246D01*
X021283Y014226D01*
X021298Y014204D01*
X021309Y014180D01*
X021317Y014155D01*
X021321Y014129D01*
X021321Y014103D01*
X021317Y014077D01*
X021309Y014052D01*
X021298Y014028D01*
X021283Y014006D01*
X021266Y013986D01*
X021246Y013970D01*
X021223Y013956D01*
X021199Y013946D01*
X021174Y013939D01*
X021148Y013936D01*
X021121Y013937D01*
X021095Y013942D01*
X021071Y013950D01*
X021047Y013962D01*
X021026Y013978D01*
X021007Y013996D01*
X020991Y014017D01*
X020978Y014040D01*
X020969Y014064D01*
X020963Y014090D01*
X020961Y014116D01*
X022002Y013016D02*
X022004Y013042D01*
X022010Y013068D01*
X022019Y013092D01*
X022032Y013115D01*
X022048Y013136D01*
X022067Y013154D01*
X022088Y013170D01*
X022112Y013182D01*
X022136Y013190D01*
X022162Y013195D01*
X022189Y013196D01*
X022215Y013193D01*
X022240Y013186D01*
X022264Y013176D01*
X022287Y013162D01*
X022307Y013146D01*
X022324Y013126D01*
X022339Y013104D01*
X022350Y013080D01*
X022358Y013055D01*
X022362Y013029D01*
X022362Y013003D01*
X022358Y012977D01*
X022350Y012952D01*
X022339Y012928D01*
X022324Y012906D01*
X022307Y012886D01*
X022287Y012870D01*
X022264Y012856D01*
X022240Y012846D01*
X022215Y012839D01*
X022189Y012836D01*
X022162Y012837D01*
X022136Y012842D01*
X022112Y012850D01*
X022088Y012862D01*
X022067Y012878D01*
X022048Y012896D01*
X022032Y012917D01*
X022019Y012940D01*
X022010Y012964D01*
X022004Y012990D01*
X022002Y013016D01*
X023814Y011364D02*
X023816Y011390D01*
X023822Y011416D01*
X023831Y011440D01*
X023844Y011463D01*
X023860Y011484D01*
X023879Y011502D01*
X023900Y011518D01*
X023924Y011530D01*
X023948Y011538D01*
X023974Y011543D01*
X024001Y011544D01*
X024027Y011541D01*
X024052Y011534D01*
X024076Y011524D01*
X024099Y011510D01*
X024119Y011494D01*
X024136Y011474D01*
X024151Y011452D01*
X024162Y011428D01*
X024170Y011403D01*
X024174Y011377D01*
X024174Y011351D01*
X024170Y011325D01*
X024162Y011300D01*
X024151Y011276D01*
X024136Y011254D01*
X024119Y011234D01*
X024099Y011218D01*
X024076Y011204D01*
X024052Y011194D01*
X024027Y011187D01*
X024001Y011184D01*
X023974Y011185D01*
X023948Y011190D01*
X023924Y011198D01*
X023900Y011210D01*
X023879Y011226D01*
X023860Y011244D01*
X023844Y011265D01*
X023831Y011288D01*
X023822Y011312D01*
X023816Y011338D01*
X023814Y011364D01*
X025315Y009616D02*
X025317Y009642D01*
X025323Y009668D01*
X025332Y009692D01*
X025345Y009715D01*
X025361Y009736D01*
X025380Y009754D01*
X025401Y009770D01*
X025425Y009782D01*
X025449Y009790D01*
X025475Y009795D01*
X025502Y009796D01*
X025528Y009793D01*
X025553Y009786D01*
X025577Y009776D01*
X025600Y009762D01*
X025620Y009746D01*
X025637Y009726D01*
X025652Y009704D01*
X025663Y009680D01*
X025671Y009655D01*
X025675Y009629D01*
X025675Y009603D01*
X025671Y009577D01*
X025663Y009552D01*
X025652Y009528D01*
X025637Y009506D01*
X025620Y009486D01*
X025600Y009470D01*
X025577Y009456D01*
X025553Y009446D01*
X025528Y009439D01*
X025502Y009436D01*
X025475Y009437D01*
X025449Y009442D01*
X025425Y009450D01*
X025401Y009462D01*
X025380Y009478D01*
X025361Y009496D01*
X025345Y009517D01*
X025332Y009540D01*
X025323Y009564D01*
X025317Y009590D01*
X025315Y009616D01*
X027859Y007202D02*
X027861Y007228D01*
X027867Y007254D01*
X027876Y007278D01*
X027889Y007301D01*
X027905Y007322D01*
X027924Y007340D01*
X027945Y007356D01*
X027969Y007368D01*
X027993Y007376D01*
X028019Y007381D01*
X028046Y007382D01*
X028072Y007379D01*
X028097Y007372D01*
X028121Y007362D01*
X028144Y007348D01*
X028164Y007332D01*
X028181Y007312D01*
X028196Y007290D01*
X028207Y007266D01*
X028215Y007241D01*
X028219Y007215D01*
X028219Y007189D01*
X028215Y007163D01*
X028207Y007138D01*
X028196Y007114D01*
X028181Y007092D01*
X028164Y007072D01*
X028144Y007056D01*
X028121Y007042D01*
X028097Y007032D01*
X028072Y007025D01*
X028046Y007022D01*
X028019Y007023D01*
X027993Y007028D01*
X027969Y007036D01*
X027945Y007048D01*
X027924Y007064D01*
X027905Y007082D01*
X027889Y007103D01*
X027876Y007126D01*
X027867Y007150D01*
X027861Y007176D01*
X027859Y007202D01*
X024138Y005318D02*
X024140Y005344D01*
X024146Y005370D01*
X024155Y005394D01*
X024168Y005417D01*
X024184Y005438D01*
X024203Y005456D01*
X024224Y005472D01*
X024248Y005484D01*
X024272Y005492D01*
X024298Y005497D01*
X024325Y005498D01*
X024351Y005495D01*
X024376Y005488D01*
X024400Y005478D01*
X024423Y005464D01*
X024443Y005448D01*
X024460Y005428D01*
X024475Y005406D01*
X024486Y005382D01*
X024494Y005357D01*
X024498Y005331D01*
X024498Y005305D01*
X024494Y005279D01*
X024486Y005254D01*
X024475Y005230D01*
X024460Y005208D01*
X024443Y005188D01*
X024423Y005172D01*
X024400Y005158D01*
X024376Y005148D01*
X024351Y005141D01*
X024325Y005138D01*
X024298Y005139D01*
X024272Y005144D01*
X024248Y005152D01*
X024224Y005164D01*
X024203Y005180D01*
X024184Y005198D01*
X024168Y005219D01*
X024155Y005242D01*
X024146Y005266D01*
X024140Y005292D01*
X024138Y005318D01*
X021299Y005309D02*
X021301Y005335D01*
X021307Y005361D01*
X021316Y005385D01*
X021329Y005408D01*
X021345Y005429D01*
X021364Y005447D01*
X021385Y005463D01*
X021409Y005475D01*
X021433Y005483D01*
X021459Y005488D01*
X021486Y005489D01*
X021512Y005486D01*
X021537Y005479D01*
X021561Y005469D01*
X021584Y005455D01*
X021604Y005439D01*
X021621Y005419D01*
X021636Y005397D01*
X021647Y005373D01*
X021655Y005348D01*
X021659Y005322D01*
X021659Y005296D01*
X021655Y005270D01*
X021647Y005245D01*
X021636Y005221D01*
X021621Y005199D01*
X021604Y005179D01*
X021584Y005163D01*
X021561Y005149D01*
X021537Y005139D01*
X021512Y005132D01*
X021486Y005129D01*
X021459Y005130D01*
X021433Y005135D01*
X021409Y005143D01*
X021385Y005155D01*
X021364Y005171D01*
X021345Y005189D01*
X021329Y005210D01*
X021316Y005233D01*
X021307Y005257D01*
X021301Y005283D01*
X021299Y005309D01*
X016698Y003306D02*
X016700Y003332D01*
X016706Y003358D01*
X016715Y003382D01*
X016728Y003405D01*
X016744Y003426D01*
X016763Y003444D01*
X016784Y003460D01*
X016808Y003472D01*
X016832Y003480D01*
X016858Y003485D01*
X016885Y003486D01*
X016911Y003483D01*
X016936Y003476D01*
X016960Y003466D01*
X016983Y003452D01*
X017003Y003436D01*
X017020Y003416D01*
X017035Y003394D01*
X017046Y003370D01*
X017054Y003345D01*
X017058Y003319D01*
X017058Y003293D01*
X017054Y003267D01*
X017046Y003242D01*
X017035Y003218D01*
X017020Y003196D01*
X017003Y003176D01*
X016983Y003160D01*
X016960Y003146D01*
X016936Y003136D01*
X016911Y003129D01*
X016885Y003126D01*
X016858Y003127D01*
X016832Y003132D01*
X016808Y003140D01*
X016784Y003152D01*
X016763Y003168D01*
X016744Y003186D01*
X016728Y003207D01*
X016715Y003230D01*
X016706Y003254D01*
X016700Y003280D01*
X016698Y003306D01*
X014336Y002519D02*
X014338Y002545D01*
X014344Y002571D01*
X014353Y002595D01*
X014366Y002618D01*
X014382Y002639D01*
X014401Y002657D01*
X014422Y002673D01*
X014446Y002685D01*
X014470Y002693D01*
X014496Y002698D01*
X014523Y002699D01*
X014549Y002696D01*
X014574Y002689D01*
X014598Y002679D01*
X014621Y002665D01*
X014641Y002649D01*
X014658Y002629D01*
X014673Y002607D01*
X014684Y002583D01*
X014692Y002558D01*
X014696Y002532D01*
X014696Y002506D01*
X014692Y002480D01*
X014684Y002455D01*
X014673Y002431D01*
X014658Y002409D01*
X014641Y002389D01*
X014621Y002373D01*
X014598Y002359D01*
X014574Y002349D01*
X014549Y002342D01*
X014523Y002339D01*
X014496Y002340D01*
X014470Y002345D01*
X014446Y002353D01*
X014422Y002365D01*
X014401Y002381D01*
X014382Y002399D01*
X014366Y002420D01*
X014353Y002443D01*
X014344Y002467D01*
X014338Y002493D01*
X014336Y002519D01*
X011232Y001425D02*
X011234Y001451D01*
X011240Y001477D01*
X011249Y001501D01*
X011262Y001524D01*
X011278Y001545D01*
X011297Y001563D01*
X011318Y001579D01*
X011342Y001591D01*
X011366Y001599D01*
X011392Y001604D01*
X011419Y001605D01*
X011445Y001602D01*
X011470Y001595D01*
X011494Y001585D01*
X011517Y001571D01*
X011537Y001555D01*
X011554Y001535D01*
X011569Y001513D01*
X011580Y001489D01*
X011588Y001464D01*
X011592Y001438D01*
X011592Y001412D01*
X011588Y001386D01*
X011580Y001361D01*
X011569Y001337D01*
X011554Y001315D01*
X011537Y001295D01*
X011517Y001279D01*
X011494Y001265D01*
X011470Y001255D01*
X011445Y001248D01*
X011419Y001245D01*
X011392Y001246D01*
X011366Y001251D01*
X011342Y001259D01*
X011318Y001271D01*
X011297Y001287D01*
X011278Y001305D01*
X011262Y001326D01*
X011249Y001349D01*
X011240Y001373D01*
X011234Y001399D01*
X011232Y001425D01*
X007995Y001524D02*
X007997Y001547D01*
X008003Y001568D01*
X008012Y001589D01*
X008025Y001608D01*
X008041Y001624D01*
X008060Y001637D01*
X008081Y001646D01*
X008102Y001652D01*
X008125Y001654D01*
X008148Y001652D01*
X008169Y001646D01*
X008190Y001637D01*
X008209Y001624D01*
X008225Y001608D01*
X008238Y001589D01*
X008247Y001568D01*
X008253Y001547D01*
X008255Y001524D01*
X008253Y001501D01*
X008247Y001480D01*
X008238Y001459D01*
X008225Y001440D01*
X008209Y001424D01*
X008190Y001411D01*
X008169Y001402D01*
X008148Y001396D01*
X008125Y001394D01*
X008102Y001396D01*
X008081Y001402D01*
X008060Y001411D01*
X008041Y001424D01*
X008025Y001440D01*
X008012Y001459D01*
X008003Y001480D01*
X007997Y001501D01*
X007995Y001524D01*
X005286Y001024D02*
X005288Y001047D01*
X005294Y001068D01*
X005303Y001089D01*
X005316Y001108D01*
X005332Y001124D01*
X005351Y001137D01*
X005372Y001146D01*
X005393Y001152D01*
X005416Y001154D01*
X005439Y001152D01*
X005460Y001146D01*
X005481Y001137D01*
X005500Y001124D01*
X005516Y001108D01*
X005529Y001089D01*
X005538Y001068D01*
X005544Y001047D01*
X005546Y001024D01*
X005544Y001001D01*
X005538Y000980D01*
X005529Y000959D01*
X005516Y000940D01*
X005500Y000924D01*
X005481Y000911D01*
X005460Y000902D01*
X005439Y000896D01*
X005416Y000894D01*
X005393Y000896D01*
X005372Y000902D01*
X005351Y000911D01*
X005332Y000924D01*
X005316Y000940D01*
X005303Y000959D01*
X005294Y000980D01*
X005288Y001001D01*
X005286Y001024D01*
X001749Y001040D02*
X001751Y001066D01*
X001757Y001092D01*
X001766Y001116D01*
X001779Y001139D01*
X001795Y001160D01*
X001814Y001178D01*
X001835Y001194D01*
X001859Y001206D01*
X001883Y001214D01*
X001909Y001219D01*
X001936Y001220D01*
X001962Y001217D01*
X001987Y001210D01*
X002011Y001200D01*
X002034Y001186D01*
X002054Y001170D01*
X002071Y001150D01*
X002086Y001128D01*
X002097Y001104D01*
X002105Y001079D01*
X002109Y001053D01*
X002109Y001027D01*
X002105Y001001D01*
X002097Y000976D01*
X002086Y000952D01*
X002071Y000930D01*
X002054Y000910D01*
X002034Y000894D01*
X002011Y000880D01*
X001987Y000870D01*
X001962Y000863D01*
X001936Y000860D01*
X001909Y000861D01*
X001883Y000866D01*
X001859Y000874D01*
X001835Y000886D01*
X001814Y000902D01*
X001795Y000920D01*
X001779Y000941D01*
X001766Y000964D01*
X001757Y000988D01*
X001751Y001014D01*
X001749Y001040D01*
X008135Y005419D02*
X008137Y005442D01*
X008143Y005463D01*
X008152Y005484D01*
X008165Y005503D01*
X008181Y005519D01*
X008200Y005532D01*
X008221Y005541D01*
X008242Y005547D01*
X008265Y005549D01*
X008288Y005547D01*
X008309Y005541D01*
X008330Y005532D01*
X008349Y005519D01*
X008365Y005503D01*
X008378Y005484D01*
X008387Y005463D01*
X008393Y005442D01*
X008395Y005419D01*
X008393Y005396D01*
X008387Y005375D01*
X008378Y005354D01*
X008365Y005335D01*
X008349Y005319D01*
X008330Y005306D01*
X008309Y005297D01*
X008288Y005291D01*
X008265Y005289D01*
X008242Y005291D01*
X008221Y005297D01*
X008200Y005306D01*
X008181Y005319D01*
X008165Y005335D01*
X008152Y005354D01*
X008143Y005375D01*
X008137Y005396D01*
X008135Y005419D01*
X010524Y007483D02*
X010526Y007509D01*
X010532Y007535D01*
X010541Y007559D01*
X010554Y007582D01*
X010570Y007603D01*
X010589Y007621D01*
X010610Y007637D01*
X010634Y007649D01*
X010658Y007657D01*
X010684Y007662D01*
X010711Y007663D01*
X010737Y007660D01*
X010762Y007653D01*
X010786Y007643D01*
X010809Y007629D01*
X010829Y007613D01*
X010846Y007593D01*
X010861Y007571D01*
X010872Y007547D01*
X010880Y007522D01*
X010884Y007496D01*
X010884Y007470D01*
X010880Y007444D01*
X010872Y007419D01*
X010861Y007395D01*
X010846Y007373D01*
X010829Y007353D01*
X010809Y007337D01*
X010786Y007323D01*
X010762Y007313D01*
X010737Y007306D01*
X010711Y007303D01*
X010684Y007304D01*
X010658Y007309D01*
X010634Y007317D01*
X010610Y007329D01*
X010589Y007345D01*
X010570Y007363D01*
X010554Y007384D01*
X010541Y007407D01*
X010532Y007431D01*
X010526Y007457D01*
X010524Y007483D01*
X008135Y009719D02*
X008137Y009742D01*
X008143Y009763D01*
X008152Y009784D01*
X008165Y009803D01*
X008181Y009819D01*
X008200Y009832D01*
X008221Y009841D01*
X008242Y009847D01*
X008265Y009849D01*
X008288Y009847D01*
X008309Y009841D01*
X008330Y009832D01*
X008349Y009819D01*
X008365Y009803D01*
X008378Y009784D01*
X008387Y009763D01*
X008393Y009742D01*
X008395Y009719D01*
X008393Y009696D01*
X008387Y009675D01*
X008378Y009654D01*
X008365Y009635D01*
X008349Y009619D01*
X008330Y009606D01*
X008309Y009597D01*
X008288Y009591D01*
X008265Y009589D01*
X008242Y009591D01*
X008221Y009597D01*
X008200Y009606D01*
X008181Y009619D01*
X008165Y009635D01*
X008152Y009654D01*
X008143Y009675D01*
X008137Y009696D01*
X008135Y009719D01*
X008295Y011260D02*
X008297Y011283D01*
X008303Y011304D01*
X008312Y011325D01*
X008325Y011344D01*
X008341Y011360D01*
X008360Y011373D01*
X008381Y011382D01*
X008402Y011388D01*
X008425Y011390D01*
X008448Y011388D01*
X008469Y011382D01*
X008490Y011373D01*
X008509Y011360D01*
X008525Y011344D01*
X008538Y011325D01*
X008547Y011304D01*
X008553Y011283D01*
X008555Y011260D01*
X008553Y011237D01*
X008547Y011216D01*
X008538Y011195D01*
X008525Y011176D01*
X008509Y011160D01*
X008490Y011147D01*
X008469Y011138D01*
X008448Y011132D01*
X008425Y011130D01*
X008402Y011132D01*
X008381Y011138D01*
X008360Y011147D01*
X008341Y011160D01*
X008325Y011176D01*
X008312Y011195D01*
X008303Y011216D01*
X008297Y011237D01*
X008295Y011260D01*
X005985Y012739D02*
X005987Y012762D01*
X005993Y012783D01*
X006002Y012804D01*
X006015Y012823D01*
X006031Y012839D01*
X006050Y012852D01*
X006071Y012861D01*
X006092Y012867D01*
X006115Y012869D01*
X006138Y012867D01*
X006159Y012861D01*
X006180Y012852D01*
X006199Y012839D01*
X006215Y012823D01*
X006228Y012804D01*
X006237Y012783D01*
X006243Y012762D01*
X006245Y012739D01*
X006243Y012716D01*
X006237Y012695D01*
X006228Y012674D01*
X006215Y012655D01*
X006199Y012639D01*
X006180Y012626D01*
X006159Y012617D01*
X006138Y012611D01*
X006115Y012609D01*
X006092Y012611D01*
X006071Y012617D01*
X006050Y012626D01*
X006031Y012639D01*
X006015Y012655D01*
X006002Y012674D01*
X005993Y012695D01*
X005987Y012716D01*
X005985Y012739D01*
X001730Y012810D02*
X001732Y012833D01*
X001738Y012854D01*
X001747Y012875D01*
X001760Y012894D01*
X001776Y012910D01*
X001795Y012923D01*
X001816Y012932D01*
X001837Y012938D01*
X001860Y012940D01*
X001883Y012938D01*
X001904Y012932D01*
X001925Y012923D01*
X001944Y012910D01*
X001960Y012894D01*
X001973Y012875D01*
X001982Y012854D01*
X001988Y012833D01*
X001990Y012810D01*
X001988Y012787D01*
X001982Y012766D01*
X001973Y012745D01*
X001960Y012726D01*
X001944Y012710D01*
X001925Y012697D01*
X001904Y012688D01*
X001883Y012682D01*
X001860Y012680D01*
X001837Y012682D01*
X001816Y012688D01*
X001795Y012697D01*
X001776Y012710D01*
X001760Y012726D01*
X001747Y012745D01*
X001738Y012766D01*
X001732Y012787D01*
X001730Y012810D01*
X000962Y007096D02*
X000964Y007119D01*
X000970Y007140D01*
X000979Y007161D01*
X000992Y007180D01*
X001008Y007196D01*
X001027Y007209D01*
X001048Y007218D01*
X001069Y007224D01*
X001092Y007226D01*
X001115Y007224D01*
X001136Y007218D01*
X001157Y007209D01*
X001176Y007196D01*
X001192Y007180D01*
X001205Y007161D01*
X001214Y007140D01*
X001220Y007119D01*
X001222Y007096D01*
X001220Y007073D01*
X001214Y007052D01*
X001205Y007031D01*
X001192Y007012D01*
X001176Y006996D01*
X001157Y006983D01*
X001136Y006974D01*
X001115Y006968D01*
X001092Y006966D01*
X001069Y006968D01*
X001048Y006974D01*
X001027Y006983D01*
X001008Y006996D01*
X000992Y007012D01*
X000979Y007031D01*
X000970Y007052D01*
X000964Y007073D01*
X000962Y007096D01*
X010755Y011967D02*
X010757Y011993D01*
X010763Y012019D01*
X010772Y012043D01*
X010785Y012066D01*
X010801Y012087D01*
X010820Y012105D01*
X010841Y012121D01*
X010865Y012133D01*
X010889Y012141D01*
X010915Y012146D01*
X010942Y012147D01*
X010968Y012144D01*
X010993Y012137D01*
X011017Y012127D01*
X011040Y012113D01*
X011060Y012097D01*
X011077Y012077D01*
X011092Y012055D01*
X011103Y012031D01*
X011111Y012006D01*
X011115Y011980D01*
X011115Y011954D01*
X011111Y011928D01*
X011103Y011903D01*
X011092Y011879D01*
X011077Y011857D01*
X011060Y011837D01*
X011040Y011821D01*
X011017Y011807D01*
X010993Y011797D01*
X010968Y011790D01*
X010942Y011787D01*
X010915Y011788D01*
X010889Y011793D01*
X010865Y011801D01*
X010841Y011813D01*
X010820Y011829D01*
X010801Y011847D01*
X010785Y011868D01*
X010772Y011891D01*
X010763Y011915D01*
X010757Y011941D01*
X010755Y011967D01*
X026611Y003885D02*
X026613Y003911D01*
X026619Y003937D01*
X026628Y003961D01*
X026641Y003984D01*
X026657Y004005D01*
X026676Y004023D01*
X026697Y004039D01*
X026721Y004051D01*
X026745Y004059D01*
X026771Y004064D01*
X026798Y004065D01*
X026824Y004062D01*
X026849Y004055D01*
X026873Y004045D01*
X026896Y004031D01*
X026916Y004015D01*
X026933Y003995D01*
X026948Y003973D01*
X026959Y003949D01*
X026967Y003924D01*
X026971Y003898D01*
X026971Y003872D01*
X026967Y003846D01*
X026959Y003821D01*
X026948Y003797D01*
X026933Y003775D01*
X026916Y003755D01*
X026896Y003739D01*
X026873Y003725D01*
X026849Y003715D01*
X026824Y003708D01*
X026798Y003705D01*
X026771Y003706D01*
X026745Y003711D01*
X026721Y003719D01*
X026697Y003731D01*
X026676Y003747D01*
X026657Y003765D01*
X026641Y003786D01*
X026628Y003809D01*
X026619Y003833D01*
X026613Y003859D01*
X026611Y003885D01*
D13*
X025370Y008966D02*
X025397Y009013D01*
X025427Y009058D01*
X025460Y009101D01*
X025496Y009141D01*
X025535Y009179D01*
X025576Y009214D01*
X025619Y009247D01*
X025664Y009276D01*
X025712Y009302D01*
X025761Y009325D01*
X025811Y009345D01*
X025862Y009361D01*
X025915Y009374D01*
X025968Y009383D01*
X026022Y009388D01*
X026076Y009390D01*
X025381Y008193D02*
X025411Y008145D01*
X025444Y008100D01*
X025480Y008057D01*
X025518Y008016D01*
X025560Y007979D01*
X025604Y007944D01*
X025650Y007913D01*
X025699Y007884D01*
X025749Y007860D01*
X025801Y007839D01*
X025855Y007821D01*
X025909Y007808D01*
X025964Y007798D01*
X026020Y007792D01*
X026076Y007790D01*
X026129Y007792D01*
X026183Y007797D01*
X026235Y007806D01*
X026287Y007818D01*
X026338Y007834D01*
X026388Y007853D01*
X026437Y007876D01*
X026484Y007902D01*
X026529Y007930D01*
X026572Y007962D01*
X026612Y007996D01*
X026651Y008034D01*
X026687Y008073D01*
X026691Y009102D02*
X026655Y009142D01*
X026616Y009180D01*
X026575Y009215D01*
X026532Y009247D01*
X026487Y009277D01*
X026440Y009303D01*
X026391Y009325D01*
X026340Y009345D01*
X026289Y009361D01*
X026237Y009374D01*
X026183Y009383D01*
X026130Y009388D01*
X026076Y009390D01*
X025062Y010470D02*
X025032Y010518D01*
X024999Y010563D01*
X024963Y010606D01*
X024925Y010647D01*
X024883Y010684D01*
X024839Y010719D01*
X024793Y010750D01*
X024744Y010779D01*
X024694Y010803D01*
X024642Y010824D01*
X024588Y010842D01*
X024534Y010855D01*
X024479Y010865D01*
X024423Y010871D01*
X024367Y010873D01*
X025073Y009697D02*
X025046Y009650D01*
X025016Y009605D01*
X024983Y009562D01*
X024947Y009522D01*
X024908Y009484D01*
X024867Y009449D01*
X024824Y009416D01*
X024779Y009387D01*
X024731Y009361D01*
X024682Y009338D01*
X024632Y009318D01*
X024581Y009302D01*
X024528Y009289D01*
X024475Y009280D01*
X024421Y009275D01*
X024367Y009273D01*
X023756Y010590D02*
X023792Y010629D01*
X023831Y010667D01*
X023871Y010701D01*
X023914Y010733D01*
X023959Y010761D01*
X024006Y010787D01*
X024055Y010810D01*
X024105Y010829D01*
X024156Y010845D01*
X024208Y010857D01*
X024260Y010866D01*
X024314Y010871D01*
X024367Y010873D01*
X023752Y009561D02*
X023788Y009521D01*
X023827Y009483D01*
X023868Y009448D01*
X023911Y009416D01*
X023956Y009386D01*
X024003Y009360D01*
X024052Y009338D01*
X024103Y009318D01*
X024154Y009302D01*
X024206Y009289D01*
X024260Y009280D01*
X024313Y009275D01*
X024367Y009273D01*
X018020Y005494D02*
X017710Y005171D01*
X017863Y005129D02*
X017863Y005535D01*
X017713Y005498D02*
X018014Y005180D01*
X018057Y005323D02*
X017651Y005337D01*
X017431Y005342D02*
X017435Y005382D01*
X017443Y005422D01*
X017454Y005462D01*
X017469Y005499D01*
X017488Y005536D01*
X017510Y005570D01*
X017535Y005602D01*
X017563Y005632D01*
X017594Y005659D01*
X017627Y005683D01*
X017662Y005703D01*
X017699Y005721D01*
X017738Y005734D01*
X017778Y005744D01*
X017818Y005751D01*
X017859Y005753D01*
X017900Y005752D01*
X017940Y005746D01*
X017980Y005737D01*
X018019Y005725D01*
X018056Y005708D01*
X018092Y005688D01*
X018126Y005665D01*
X018157Y005639D01*
X018186Y005610D01*
X018212Y005579D01*
X018235Y005545D01*
X018254Y005509D01*
X018270Y005472D01*
X018283Y005433D01*
X018292Y005393D01*
X018297Y005352D01*
X018298Y005311D01*
X018295Y005271D01*
X018289Y005230D01*
X018279Y005191D01*
X018265Y005152D01*
X018247Y005115D01*
X018226Y005080D01*
X018202Y005047D01*
X018175Y005017D01*
X018146Y004989D01*
X018113Y004964D01*
X018079Y004942D01*
X018042Y004923D01*
X018004Y004908D01*
X017965Y004897D01*
X017925Y004889D01*
X017884Y004885D01*
X017844Y004885D01*
X017803Y004889D01*
X017763Y004897D01*
X017724Y004908D01*
X017686Y004923D01*
X017649Y004942D01*
X017661Y004939D02*
X017810Y004798D01*
X017662Y004937D02*
X017816Y005009D01*
X017306Y004939D02*
X017306Y005139D01*
X017306Y004939D02*
X017159Y004973D01*
X017306Y004939D02*
X017293Y004971D01*
X017277Y005001D01*
X017258Y005030D01*
X017236Y005056D01*
X017211Y005079D01*
X017184Y005100D01*
X017154Y005118D01*
X017123Y005132D01*
X017091Y005143D01*
X017057Y005151D01*
X017023Y005155D01*
X016989Y005155D01*
X016955Y005151D01*
X016921Y005143D01*
X016889Y005132D01*
X016858Y005118D01*
X016828Y005100D01*
X016801Y005079D01*
X016776Y005056D01*
X016754Y005030D01*
X016735Y005001D01*
X016719Y004971D01*
X016706Y004939D01*
X016906Y005439D02*
X017006Y005639D01*
X017007Y005638D02*
X017106Y005439D01*
X017007Y005638D02*
X017007Y004462D01*
X017006Y004439D02*
X018306Y004439D01*
X018106Y004339D01*
X018106Y004539D02*
X018306Y004439D01*
X017819Y004139D02*
X017591Y004119D01*
X017598Y004128D02*
X017635Y004267D01*
X017591Y004118D02*
X017624Y004131D01*
X017656Y004146D01*
X017686Y004165D01*
X017713Y004188D01*
X017739Y004213D01*
X017761Y004240D01*
X017780Y004270D01*
X017796Y004302D01*
X017808Y004336D01*
X017816Y004370D01*
X017821Y004405D01*
X017822Y004441D01*
X017819Y004476D01*
X017812Y004511D01*
X017802Y004545D01*
X017787Y004577D01*
X017770Y004608D01*
X017749Y004637D01*
X017725Y004663D01*
X017699Y004687D01*
X017670Y004707D01*
X017639Y004725D01*
X017606Y004739D01*
X008466Y006623D02*
X008466Y008591D01*
X007690Y009132D02*
X006893Y009132D01*
X006893Y008985D01*
X006893Y006229D02*
X006893Y006082D01*
X007690Y006082D01*
D14*
X017006Y005639D02*
X017007Y005638D01*
D15*
X020267Y007334D03*
X020267Y007336D03*
X020267Y007338D03*
X020267Y007340D03*
X020267Y007343D03*
X020267Y007345D03*
X020503Y007229D03*
X020503Y007227D03*
X020503Y007224D03*
X020503Y007222D03*
X020503Y007220D03*
X020503Y007218D03*
X020503Y007215D03*
X020503Y007213D03*
X021127Y007907D03*
X021127Y007909D03*
X021127Y007911D03*
X021127Y007913D03*
X021127Y007916D03*
X021127Y007918D03*
X021127Y007920D03*
X021127Y007922D03*
X021127Y007925D03*
X021127Y007927D03*
X021127Y007929D03*
X021127Y007931D03*
X021127Y007934D03*
X021127Y007936D03*
X021279Y008058D03*
X021279Y008061D03*
X021279Y008063D03*
X021279Y008065D03*
X021279Y008067D03*
X021279Y008070D03*
X021752Y007989D03*
X021752Y007987D03*
X021752Y007985D03*
X021752Y007983D03*
X021752Y007980D03*
X021752Y007978D03*
X021752Y007976D03*
X021801Y008038D03*
X021801Y008041D03*
X021801Y008043D03*
X021801Y008045D03*
X021801Y008047D03*
X021801Y008049D03*
X021801Y008052D03*
X021801Y008054D03*
X022022Y007615D03*
X022022Y007612D03*
X022022Y007610D03*
X022022Y007608D03*
X022022Y007606D03*
X022022Y007603D03*
X022240Y007414D03*
X022240Y007412D03*
X022240Y007409D03*
X022240Y007407D03*
X022240Y007405D03*
X022240Y007403D03*
X022240Y007401D03*
X022240Y007398D03*
X022543Y007740D03*
X022543Y007742D03*
X022543Y007744D03*
X022543Y007746D03*
X022543Y007748D03*
X022543Y007751D03*
X022561Y007773D03*
X022561Y007775D03*
X022561Y007777D03*
X022561Y007780D03*
X022561Y007782D03*
X022561Y007784D03*
X022561Y007786D03*
X022561Y007789D03*
X022561Y007791D03*
X022561Y007793D03*
X022561Y007795D03*
X022561Y007797D03*
X022561Y007800D03*
X022561Y007802D03*
X022561Y007804D03*
X022561Y007806D03*
X022561Y007809D03*
X022561Y007811D03*
X022561Y007813D03*
X022561Y007815D03*
X022561Y007818D03*
X022561Y007820D03*
X022561Y007822D03*
X022561Y007824D03*
X022561Y007826D03*
X022561Y007829D03*
X022561Y007831D03*
X022561Y007833D03*
X022561Y007835D03*
X022561Y007838D03*
X022561Y007871D03*
X022561Y007873D03*
X022561Y007876D03*
X022561Y007878D03*
X022561Y007880D03*
X022561Y007882D03*
X022561Y007884D03*
X022561Y007887D03*
X022561Y007889D03*
X022561Y007891D03*
X022561Y007893D03*
X022561Y007896D03*
X022561Y007898D03*
X022561Y007900D03*
X022561Y007902D03*
X022561Y007905D03*
X022561Y007907D03*
X022561Y007909D03*
X022561Y007911D03*
X022561Y007913D03*
X022561Y007916D03*
X022561Y007918D03*
X022543Y007940D03*
X022543Y007942D03*
X022543Y007945D03*
X022543Y007947D03*
X022543Y007949D03*
X022543Y007951D03*
X022543Y007954D03*
X022526Y007976D03*
X022526Y007978D03*
X022526Y007980D03*
X022526Y007983D03*
X022526Y007985D03*
X022526Y007987D03*
X022510Y007992D03*
X022510Y007994D03*
X022510Y007996D03*
X022510Y007998D03*
X022510Y008000D03*
X022510Y008003D03*
X022492Y008009D03*
X022492Y008012D03*
X022492Y008014D03*
X022492Y008016D03*
X022492Y008018D03*
X022492Y008020D03*
X023032Y007401D03*
X023032Y007398D03*
X023032Y007396D03*
X023032Y007394D03*
X023032Y007392D03*
X023032Y007389D03*
X023032Y007387D03*
X023032Y007385D03*
X023050Y007380D03*
X023050Y007378D03*
X023050Y007376D03*
X023050Y007374D03*
X023050Y007372D03*
X023050Y007369D03*
X023050Y007367D03*
X023065Y007363D03*
X023065Y007360D03*
X023065Y007358D03*
X023065Y007356D03*
X023065Y007354D03*
X023065Y007351D03*
X023083Y007345D03*
X023083Y007343D03*
X023083Y007340D03*
X023083Y007338D03*
X023083Y007336D03*
X023083Y007334D03*
X023623Y007334D03*
X023623Y007336D03*
X023623Y007338D03*
X023623Y007340D03*
X023623Y007343D03*
X023623Y007345D03*
X023641Y007351D03*
X023641Y007354D03*
X023641Y007356D03*
X023641Y007358D03*
X023641Y007360D03*
X023641Y007363D03*
X021752Y007436D03*
X021752Y007438D03*
X021752Y007441D03*
X021752Y007443D03*
X021752Y007445D03*
X021752Y007447D03*
X021734Y007452D03*
X021734Y007454D03*
X021734Y007456D03*
X021734Y007459D03*
X021734Y007461D03*
X021734Y007463D03*
X021718Y007483D03*
X021718Y007485D03*
X021718Y007488D03*
X021718Y007490D03*
X021718Y007492D03*
X021718Y007494D03*
X021718Y007496D03*
X020706Y008009D03*
X020706Y008012D03*
X020706Y008014D03*
X020706Y008016D03*
X020706Y008018D03*
X020706Y008020D03*
X020251Y008020D03*
X020251Y008018D03*
X020251Y008016D03*
X020251Y008014D03*
X020251Y008012D03*
X020251Y008009D03*
D16*
X020655Y008043D03*
X020655Y008045D03*
X020655Y008047D03*
X020655Y008049D03*
X020655Y008052D03*
X020655Y008054D03*
X021145Y007987D03*
X021145Y007985D03*
X021145Y007983D03*
X021145Y007980D03*
X021145Y007978D03*
X021145Y007976D03*
X021145Y007974D03*
X021145Y007971D03*
X021819Y008072D03*
X021819Y008074D03*
X022358Y007987D03*
X022358Y007985D03*
X022358Y007983D03*
X022358Y007980D03*
X022358Y007978D03*
X022358Y007976D03*
X022392Y007936D03*
X022392Y007934D03*
X022392Y007931D03*
X022392Y007929D03*
X022392Y007927D03*
X022392Y007925D03*
X022392Y007922D03*
X022392Y007920D03*
X022392Y007804D03*
X022358Y007766D03*
X022358Y007764D03*
X022358Y007762D03*
X022358Y007760D03*
X022358Y007757D03*
X022358Y007755D03*
X022392Y007632D03*
X022392Y007630D03*
X022392Y007628D03*
X022392Y007626D03*
X022392Y007624D03*
X022392Y007621D03*
X022510Y007702D03*
X022510Y007704D03*
X022055Y007229D03*
X022055Y007227D03*
X022055Y007224D03*
X022055Y007222D03*
X022055Y007220D03*
X022055Y007218D03*
X022055Y007215D03*
X022055Y007213D03*
X021970Y007251D03*
X021970Y007253D03*
X021970Y007256D03*
X021970Y007258D03*
X021970Y007260D03*
X021970Y007262D03*
X021937Y007267D03*
X021937Y007269D03*
X021937Y007271D03*
X021937Y007273D03*
X021937Y007276D03*
X021937Y007278D03*
X021801Y007367D03*
X021801Y007369D03*
X021801Y007372D03*
X021801Y007374D03*
X021801Y007376D03*
X021801Y007378D03*
X021801Y007380D03*
X021801Y007383D03*
X021785Y007398D03*
X021785Y007401D03*
X023117Y007329D03*
X023117Y007327D03*
X023117Y007325D03*
X023117Y007323D03*
X023117Y007320D03*
X023117Y007318D03*
X023150Y007311D03*
X023150Y007309D03*
X023150Y007307D03*
X023150Y007305D03*
X023150Y007302D03*
X023150Y007300D03*
X023556Y007300D03*
X023556Y007302D03*
X023556Y007305D03*
X023556Y007307D03*
X023556Y007309D03*
X023556Y007311D03*
X020318Y007311D03*
X020318Y007309D03*
X020318Y007307D03*
X020318Y007305D03*
X020318Y007302D03*
X020318Y007300D03*
X020284Y007331D03*
D17*
X020242Y007351D03*
X020242Y007354D03*
X020242Y007356D03*
X020242Y007358D03*
X020242Y007360D03*
X020242Y007363D03*
X020209Y007398D03*
X020209Y007401D03*
X020697Y007311D03*
X020697Y007309D03*
X020697Y007307D03*
X020697Y007305D03*
X020697Y007302D03*
X020697Y007300D03*
X020730Y007318D03*
X020730Y007320D03*
X020730Y007323D03*
X020730Y007325D03*
X020730Y007327D03*
X020730Y007329D03*
X020730Y007971D03*
X020730Y007974D03*
X020730Y007976D03*
X020730Y007978D03*
X020730Y007980D03*
X020730Y007983D03*
X020730Y007985D03*
X020730Y007987D03*
X021119Y007902D03*
X021119Y007900D03*
X021119Y007898D03*
X021119Y007896D03*
X021119Y007893D03*
X021119Y007891D03*
X021119Y007889D03*
X021119Y007887D03*
X021119Y007884D03*
X021119Y007882D03*
X021119Y007880D03*
X021119Y007878D03*
X021119Y007876D03*
X021119Y007873D03*
X021119Y007871D03*
X021255Y008043D03*
X021255Y008045D03*
X021255Y008047D03*
X021255Y008049D03*
X021255Y008052D03*
X021255Y008054D03*
X021676Y007855D03*
X021676Y007853D03*
X021676Y007851D03*
X021676Y007849D03*
X021676Y007847D03*
X021676Y007844D03*
X021676Y007842D03*
X021676Y007840D03*
X021676Y007838D03*
X021676Y007835D03*
X021676Y007833D03*
X021676Y007831D03*
X021676Y007829D03*
X021676Y007826D03*
X021676Y007824D03*
X021676Y007822D03*
X021676Y007820D03*
X021676Y007818D03*
X021676Y007815D03*
X021676Y007813D03*
X021676Y007811D03*
X021676Y007809D03*
X021676Y007806D03*
X021676Y007804D03*
X021709Y007891D03*
X021709Y007893D03*
X021709Y007896D03*
X021709Y007898D03*
X021709Y007900D03*
X021709Y007902D03*
X021709Y007905D03*
X021709Y007907D03*
X021709Y007909D03*
X021709Y007911D03*
X021709Y007913D03*
X021709Y007916D03*
X021709Y007918D03*
X021709Y007920D03*
X021709Y007922D03*
X021709Y007925D03*
X021709Y007927D03*
X021709Y007929D03*
X021709Y007931D03*
X021709Y007934D03*
X021709Y007936D03*
X021725Y007940D03*
X021725Y007942D03*
X021725Y007945D03*
X021725Y007947D03*
X021725Y007949D03*
X021725Y007951D03*
X021725Y007954D03*
X021743Y007958D03*
X021743Y007960D03*
X021743Y007963D03*
X021743Y007965D03*
X021743Y007967D03*
X021743Y007969D03*
X021759Y007992D03*
X021759Y007994D03*
X021759Y007996D03*
X021759Y007998D03*
X021759Y008000D03*
X021759Y008003D03*
X021676Y007601D03*
X021676Y007599D03*
X021676Y007597D03*
X021676Y007595D03*
X021676Y007592D03*
X021676Y007590D03*
X021676Y007588D03*
X021676Y007586D03*
X021676Y007583D03*
X021676Y007581D03*
X021676Y007579D03*
X021676Y007577D03*
X021676Y007574D03*
X021676Y007572D03*
X021676Y007570D03*
X021676Y007568D03*
X021676Y007566D03*
X021676Y007563D03*
X021676Y007561D03*
X021676Y007559D03*
X021676Y007557D03*
X021676Y007554D03*
X021709Y007514D03*
X021709Y007512D03*
X021709Y007510D03*
X021709Y007508D03*
X021709Y007505D03*
X021709Y007503D03*
X021725Y007481D03*
X021725Y007479D03*
X021725Y007476D03*
X021725Y007474D03*
X021725Y007472D03*
X021725Y007470D03*
X022013Y007583D03*
X022013Y007586D03*
X022013Y007588D03*
X022013Y007590D03*
X022013Y007592D03*
X022013Y007595D03*
X022013Y007597D03*
X022013Y007599D03*
X022164Y007548D03*
X022164Y007546D03*
X022164Y007543D03*
X022164Y007541D03*
X022164Y007539D03*
X022164Y007537D03*
X022164Y007534D03*
X022180Y007450D03*
X022180Y007447D03*
X022180Y007445D03*
X022180Y007443D03*
X022180Y007441D03*
X022180Y007438D03*
X022180Y007436D03*
X022956Y007499D03*
X022956Y007501D03*
X022956Y007503D03*
X022956Y007505D03*
X022956Y007508D03*
X022956Y007510D03*
X022956Y007512D03*
X022956Y007514D03*
X022956Y007517D03*
X023025Y007414D03*
X023025Y007412D03*
X023025Y007409D03*
X023025Y007407D03*
X023025Y007405D03*
X023025Y007403D03*
X023362Y007229D03*
X023362Y007227D03*
X023362Y007224D03*
X023362Y007222D03*
X023362Y007220D03*
X023362Y007218D03*
X023362Y007215D03*
X023362Y007213D03*
X023665Y007367D03*
X023665Y007369D03*
X023665Y007372D03*
X023665Y007374D03*
X023665Y007376D03*
X023665Y007378D03*
X023665Y007380D03*
X023681Y007385D03*
X023681Y007387D03*
X023681Y007389D03*
X023681Y007392D03*
X023681Y007394D03*
X023681Y007396D03*
X023681Y007398D03*
X023681Y007401D03*
X020209Y007976D03*
X020209Y007978D03*
X020209Y007980D03*
X020209Y007983D03*
X020209Y007985D03*
X020209Y007987D03*
X019787Y007905D03*
X019754Y007855D03*
X019754Y007853D03*
X019636Y007704D03*
X019636Y007702D03*
X019636Y007699D03*
X019636Y007697D03*
X019636Y007695D03*
X019636Y007693D03*
X019636Y007690D03*
X019636Y007688D03*
X019636Y007686D03*
X019533Y007568D03*
X019533Y007566D03*
X019533Y007563D03*
X019533Y007561D03*
X019533Y007559D03*
X019533Y007557D03*
X019533Y007554D03*
X019533Y007552D03*
X019533Y007550D03*
X019500Y007517D03*
X019500Y007514D03*
X019500Y007512D03*
X019500Y007510D03*
X019500Y007508D03*
X019500Y007505D03*
X019500Y007503D03*
X019500Y007501D03*
X019500Y007499D03*
X019484Y007483D03*
X019450Y007450D03*
X019450Y007447D03*
X019450Y007445D03*
X019450Y007443D03*
X019450Y007441D03*
X019450Y007438D03*
X019450Y007436D03*
X019450Y007434D03*
X019450Y007432D03*
D18*
X019618Y007316D03*
X019618Y007314D03*
X019618Y007311D03*
X019618Y007309D03*
X019618Y007307D03*
X019618Y007305D03*
X019618Y007302D03*
X019618Y007300D03*
X019618Y007298D03*
X019618Y007296D03*
X019618Y007294D03*
X019618Y007291D03*
X019618Y007289D03*
X019618Y007287D03*
X019618Y007285D03*
X019618Y007282D03*
X019618Y007280D03*
X019618Y007278D03*
X019618Y007276D03*
X019618Y007273D03*
X019618Y007271D03*
X019618Y007269D03*
X019618Y007267D03*
X019618Y007265D03*
X019618Y007262D03*
X019618Y007260D03*
X019618Y007258D03*
X019618Y007256D03*
X019618Y007253D03*
X019618Y007251D03*
X019618Y007249D03*
X019618Y007247D03*
X019618Y007244D03*
X019618Y007242D03*
X019618Y007240D03*
X019618Y007238D03*
X019618Y007236D03*
X019618Y007233D03*
X019618Y007231D03*
X019636Y008056D03*
X019636Y008058D03*
X019636Y008061D03*
X019636Y008063D03*
X019636Y008065D03*
X019636Y008067D03*
X019636Y008070D03*
X019636Y008072D03*
X019636Y008074D03*
X019636Y008076D03*
X019636Y008078D03*
X019636Y008081D03*
X019636Y008083D03*
X019636Y008085D03*
X019636Y008087D03*
X019636Y008090D03*
X019636Y008092D03*
X019636Y008094D03*
X019636Y008096D03*
X019636Y008099D03*
X019636Y008101D03*
X019636Y008103D03*
X019636Y008105D03*
X019636Y008107D03*
X019636Y008110D03*
X019636Y008112D03*
X019636Y008114D03*
X019636Y008116D03*
X019636Y008119D03*
X019636Y008121D03*
X019636Y008123D03*
X019636Y008125D03*
D19*
X020503Y007244D03*
X020503Y007242D03*
X020503Y007240D03*
X020503Y007238D03*
X020503Y007236D03*
X020503Y007233D03*
X020503Y007231D03*
X021413Y008110D03*
X021413Y008112D03*
X021413Y008114D03*
X021413Y008116D03*
X021413Y008119D03*
X021413Y008121D03*
X021413Y008123D03*
X021413Y008125D03*
X022122Y008377D03*
X022122Y008380D03*
X022122Y008382D03*
X022122Y008384D03*
X022122Y008386D03*
X022122Y008388D03*
X022122Y008391D03*
X022122Y008393D03*
X022122Y008395D03*
X022155Y008324D03*
X022155Y008322D03*
X022155Y008319D03*
X022155Y008317D03*
X022155Y008315D03*
X022155Y008313D03*
X022155Y008310D03*
X022155Y008308D03*
X022526Y008257D03*
X022526Y008255D03*
X022526Y008252D03*
X022526Y008250D03*
X022526Y008248D03*
X022526Y008246D03*
X022526Y008243D03*
X022526Y008241D03*
X022274Y007601D03*
D20*
X022147Y007514D03*
X022147Y007512D03*
X022147Y007510D03*
X022147Y007508D03*
X022147Y007505D03*
X022147Y007503D03*
X022147Y007501D03*
X022147Y007499D03*
X022147Y007496D03*
X022147Y007494D03*
X022147Y007492D03*
X022147Y007490D03*
X022147Y007488D03*
X022147Y007485D03*
X022164Y007463D03*
X022164Y007461D03*
X022164Y007459D03*
X022164Y007456D03*
X022164Y007454D03*
X022164Y007452D03*
X022113Y007363D03*
X022113Y007360D03*
X022113Y007358D03*
X022113Y007356D03*
X022113Y007354D03*
X022113Y007351D03*
X022113Y007349D03*
X022113Y007347D03*
X022046Y007385D03*
X022046Y007387D03*
X022046Y007389D03*
X022046Y007392D03*
X022046Y007394D03*
X022046Y007396D03*
X022028Y007403D03*
X022028Y007405D03*
X022028Y007407D03*
X022028Y007409D03*
X022028Y007412D03*
X022028Y007414D03*
X022028Y007416D03*
X022013Y007432D03*
X022013Y007434D03*
X022013Y007436D03*
X022013Y007438D03*
X022013Y007441D03*
X022013Y007443D03*
X022013Y007445D03*
X022013Y007447D03*
X021995Y007452D03*
X021995Y007454D03*
X021995Y007456D03*
X021995Y007459D03*
X021995Y007461D03*
X021995Y007463D03*
X021995Y007465D03*
X021995Y007467D03*
X021995Y007470D03*
X021995Y007472D03*
X021995Y007474D03*
X021995Y007476D03*
X021995Y007479D03*
X021995Y007481D03*
X021995Y007483D03*
X021995Y007485D03*
X021995Y007488D03*
X021995Y007490D03*
X021995Y007492D03*
X021995Y007494D03*
X021995Y007496D03*
X021103Y007496D03*
X021103Y007494D03*
X021103Y007492D03*
X021103Y007490D03*
X021103Y007488D03*
X021103Y007485D03*
X021103Y007483D03*
X021103Y007481D03*
X021103Y007479D03*
X021103Y007476D03*
X021103Y007474D03*
X021103Y007472D03*
X021103Y007470D03*
X021103Y007467D03*
X021103Y007465D03*
X021103Y007463D03*
X021103Y007461D03*
X021103Y007459D03*
X021103Y007456D03*
X021103Y007454D03*
X021103Y007452D03*
X021103Y007450D03*
X021103Y007447D03*
X021103Y007445D03*
X021103Y007443D03*
X021103Y007441D03*
X021103Y007438D03*
X021103Y007436D03*
X021103Y007434D03*
X021103Y007432D03*
X021103Y007430D03*
X021103Y007427D03*
X021103Y007425D03*
X021103Y007423D03*
X021103Y007421D03*
X021103Y007418D03*
X021103Y007416D03*
X021103Y007414D03*
X021103Y007412D03*
X021103Y007409D03*
X021103Y007407D03*
X021103Y007405D03*
X021103Y007403D03*
X021103Y007401D03*
X021103Y007398D03*
X021103Y007396D03*
X021103Y007394D03*
X021103Y007392D03*
X021103Y007389D03*
X021103Y007387D03*
X021103Y007385D03*
X021103Y007383D03*
X021103Y007380D03*
X021103Y007378D03*
X021103Y007376D03*
X021103Y007374D03*
X021103Y007372D03*
X021103Y007369D03*
X021103Y007367D03*
X021103Y007365D03*
X021103Y007363D03*
X021103Y007360D03*
X021103Y007358D03*
X021103Y007356D03*
X021103Y007354D03*
X021103Y007351D03*
X021103Y007349D03*
X021103Y007347D03*
X021103Y007345D03*
X021103Y007343D03*
X021103Y007340D03*
X021103Y007338D03*
X021103Y007336D03*
X021103Y007334D03*
X021103Y007331D03*
X021103Y007329D03*
X021103Y007327D03*
X021103Y007325D03*
X021103Y007323D03*
X021103Y007320D03*
X021103Y007318D03*
X021103Y007316D03*
X021103Y007314D03*
X021103Y007311D03*
X021103Y007309D03*
X021103Y007307D03*
X021103Y007305D03*
X021103Y007302D03*
X021103Y007300D03*
X021103Y007298D03*
X021103Y007296D03*
X021103Y007294D03*
X021103Y007291D03*
X021103Y007289D03*
X021103Y007287D03*
X021103Y007285D03*
X021103Y007282D03*
X021103Y007280D03*
X021103Y007278D03*
X021103Y007276D03*
X021103Y007273D03*
X021103Y007271D03*
X021103Y007269D03*
X021103Y007267D03*
X021103Y007265D03*
X021103Y007262D03*
X021103Y007260D03*
X021103Y007258D03*
X021103Y007256D03*
X021103Y007253D03*
X021103Y007251D03*
X021103Y007249D03*
X021103Y007247D03*
X021103Y007244D03*
X021103Y007242D03*
X021103Y007240D03*
X021103Y007238D03*
X021103Y007236D03*
X021103Y007233D03*
X021103Y007231D03*
X021103Y007499D03*
X021103Y007501D03*
X021103Y007503D03*
X021103Y007505D03*
X021103Y007508D03*
X021103Y007510D03*
X021103Y007512D03*
X021103Y007514D03*
X021103Y007517D03*
X021103Y007519D03*
X021103Y007521D03*
X021103Y007523D03*
X021103Y007525D03*
X021103Y007528D03*
X021103Y007530D03*
X021103Y007532D03*
X021103Y007534D03*
X021103Y007537D03*
X021103Y007539D03*
X021103Y007541D03*
X021103Y007543D03*
X021103Y007546D03*
X021103Y007548D03*
X021103Y007550D03*
X021103Y007552D03*
X021103Y007554D03*
X021103Y007557D03*
X021103Y007559D03*
X021103Y007561D03*
X021103Y007563D03*
X021103Y007566D03*
X021103Y007568D03*
X021103Y007570D03*
X021103Y007572D03*
X021103Y007574D03*
X021103Y007577D03*
X021103Y007579D03*
X021103Y007581D03*
X021103Y007583D03*
X021103Y007586D03*
X021103Y007588D03*
X021103Y007590D03*
X021103Y007592D03*
X021103Y007595D03*
X021103Y007597D03*
X021103Y007599D03*
X021103Y007601D03*
X021103Y007603D03*
X021103Y007606D03*
X021103Y007608D03*
X021103Y007610D03*
X021103Y007612D03*
X021103Y007615D03*
X021103Y007617D03*
X021103Y007619D03*
X021103Y007621D03*
X021103Y007624D03*
X021103Y007626D03*
X021103Y007628D03*
X021103Y007630D03*
X021103Y007632D03*
X021103Y007635D03*
X021103Y007637D03*
X021103Y007639D03*
X021103Y007641D03*
X021103Y007644D03*
X021103Y007646D03*
X021103Y007648D03*
X021103Y007650D03*
X021103Y007653D03*
X021103Y007655D03*
X021103Y007657D03*
X021103Y007659D03*
X021103Y007661D03*
X021103Y007664D03*
X021103Y007666D03*
X021103Y007668D03*
X021103Y007670D03*
X021103Y007673D03*
X021103Y007675D03*
X021103Y007677D03*
X021103Y007679D03*
X021103Y007682D03*
X021103Y007684D03*
X021103Y007686D03*
X021103Y007688D03*
X021103Y007690D03*
X021103Y007693D03*
X021103Y007695D03*
X021103Y007697D03*
X021103Y007699D03*
X021103Y007702D03*
X021103Y007704D03*
X021103Y007706D03*
X021103Y007708D03*
X021103Y007711D03*
X021103Y007713D03*
X021103Y007715D03*
X021103Y007717D03*
X021103Y007719D03*
X021103Y007722D03*
X021103Y007724D03*
X021103Y007726D03*
X021103Y007728D03*
X021103Y007731D03*
X021103Y007733D03*
X021103Y007735D03*
X021103Y007737D03*
X021103Y007740D03*
X021103Y007742D03*
X021103Y007744D03*
X021103Y007746D03*
X021103Y007748D03*
X021103Y007751D03*
X021103Y007753D03*
X021103Y007755D03*
X021103Y007757D03*
X021103Y007760D03*
X021103Y007762D03*
X021103Y007764D03*
X021103Y007766D03*
X021103Y007769D03*
X021103Y007771D03*
X021103Y007773D03*
X021103Y007775D03*
X021103Y007777D03*
X021103Y007780D03*
X021103Y007782D03*
X021103Y007784D03*
X021103Y007786D03*
X021103Y007789D03*
X021103Y007791D03*
X021103Y007793D03*
X021103Y007795D03*
X021103Y007797D03*
X021103Y007800D03*
X021103Y007802D03*
X021103Y007804D03*
X021103Y007806D03*
X021103Y007809D03*
X021103Y007811D03*
X021103Y007813D03*
X021103Y007815D03*
X021103Y007818D03*
X021103Y007992D03*
X021103Y007994D03*
X021103Y007996D03*
X021103Y007998D03*
X021103Y008000D03*
X021103Y008003D03*
X021103Y008005D03*
X021103Y008007D03*
X021103Y008009D03*
X021103Y008012D03*
X021103Y008014D03*
X021103Y008016D03*
X021103Y008018D03*
X021103Y008020D03*
X021103Y008023D03*
X021103Y008025D03*
X021103Y008027D03*
X021103Y008029D03*
X021103Y008032D03*
X021103Y008034D03*
X021103Y008036D03*
X021103Y008038D03*
X021103Y008041D03*
X021103Y008043D03*
X021103Y008045D03*
X021103Y008047D03*
X021103Y008049D03*
X021103Y008052D03*
X021103Y008054D03*
X021103Y008056D03*
X021103Y008058D03*
X021103Y008061D03*
X021103Y008063D03*
X021103Y008065D03*
X021103Y008067D03*
X021103Y008070D03*
X021103Y008072D03*
X021103Y008074D03*
X021103Y008076D03*
X021103Y008078D03*
X021103Y008081D03*
X021103Y008083D03*
X021103Y008085D03*
X021103Y008087D03*
X021103Y008090D03*
X021103Y008092D03*
X021103Y008094D03*
X021103Y008096D03*
X021103Y008099D03*
X021103Y008101D03*
X021103Y008103D03*
X021103Y008105D03*
X021203Y008003D03*
X021203Y008000D03*
X021203Y007998D03*
X021203Y007996D03*
X021203Y007994D03*
X021203Y007992D03*
X020800Y007802D03*
X020800Y007800D03*
X020800Y007797D03*
X020800Y007795D03*
X020800Y007793D03*
X020800Y007791D03*
X020800Y007789D03*
X020764Y007365D03*
X020764Y007363D03*
X020764Y007360D03*
X020764Y007358D03*
X020764Y007356D03*
X020764Y007354D03*
X020764Y007351D03*
X020142Y007519D03*
X020142Y007521D03*
X020142Y007523D03*
X020142Y007525D03*
X020142Y007528D03*
X020142Y007530D03*
X020142Y007532D03*
X020124Y007570D03*
X020124Y007572D03*
X020124Y007574D03*
X020124Y007577D03*
X020124Y007579D03*
X020124Y007581D03*
X020124Y007583D03*
X020124Y007586D03*
X020124Y007588D03*
X020124Y007590D03*
X020124Y007592D03*
X020124Y007595D03*
X020124Y007597D03*
X020124Y007599D03*
X020108Y007688D03*
X020108Y007690D03*
X020108Y007693D03*
X020108Y007695D03*
X020108Y007697D03*
X020108Y007699D03*
X020124Y007789D03*
X020124Y007791D03*
X020124Y007793D03*
X020124Y007795D03*
X020124Y007797D03*
X020124Y007800D03*
X020124Y007802D03*
X020124Y007804D03*
X020124Y007806D03*
X020124Y007809D03*
X020124Y007811D03*
X020124Y007813D03*
X020124Y007815D03*
X020124Y007818D03*
X022923Y007648D03*
X022923Y007646D03*
X022923Y007644D03*
X022923Y007641D03*
X022923Y007639D03*
X022923Y007637D03*
X022923Y007635D03*
X022923Y007632D03*
X022923Y007630D03*
X022923Y007628D03*
X022923Y007626D03*
X022923Y007624D03*
X022923Y007621D03*
X022940Y007566D03*
X022940Y007563D03*
X022940Y007561D03*
X022940Y007559D03*
X022940Y007557D03*
X022940Y007554D03*
X023766Y007548D03*
X023766Y007546D03*
X023766Y007543D03*
X023766Y007541D03*
X023766Y007539D03*
X023766Y007537D03*
X023783Y007588D03*
X023783Y007590D03*
X023783Y007592D03*
X023783Y007595D03*
X023783Y007597D03*
X023783Y007599D03*
X023783Y007601D03*
X023783Y007603D03*
X023783Y007606D03*
X023783Y007608D03*
X023783Y007610D03*
X023783Y007612D03*
X023783Y007615D03*
X024290Y007615D03*
X024290Y007617D03*
X024290Y007619D03*
X024290Y007621D03*
X024290Y007624D03*
X024290Y007626D03*
X024290Y007628D03*
X024290Y007630D03*
X024290Y007632D03*
X024290Y007635D03*
X024290Y007637D03*
X024290Y007639D03*
X024290Y007641D03*
X024290Y007644D03*
X024290Y007646D03*
X024290Y007648D03*
X024290Y007650D03*
X024290Y007653D03*
X024290Y007655D03*
X024290Y007657D03*
X024290Y007659D03*
X024290Y007661D03*
X024290Y007664D03*
X024290Y007666D03*
X024290Y007668D03*
X024290Y007670D03*
X024290Y007673D03*
X024290Y007675D03*
X024290Y007677D03*
X024290Y007679D03*
X024290Y007682D03*
X024290Y007684D03*
X024290Y007686D03*
X024290Y007688D03*
X024290Y007690D03*
X024290Y007693D03*
X024290Y007695D03*
X024290Y007697D03*
X024290Y007699D03*
X024290Y007702D03*
X024290Y007704D03*
X024290Y007706D03*
X024290Y007708D03*
X024290Y007711D03*
X024290Y007713D03*
X024290Y007715D03*
X024290Y007717D03*
X024290Y007719D03*
X024290Y007722D03*
X024290Y007724D03*
X024290Y007726D03*
X024290Y007728D03*
X024290Y007731D03*
X024290Y007733D03*
X024290Y007735D03*
X024290Y007737D03*
X024290Y007740D03*
X024290Y007742D03*
X024290Y007744D03*
X024290Y007746D03*
X024290Y007748D03*
X024290Y007751D03*
X024290Y007753D03*
X024290Y007755D03*
X024290Y007757D03*
X024290Y007760D03*
X024290Y007762D03*
X024290Y007764D03*
X024290Y007766D03*
X024290Y007769D03*
X024290Y007771D03*
X024290Y007773D03*
X024290Y007775D03*
X024290Y007777D03*
X024290Y007780D03*
X024290Y007782D03*
X024290Y007784D03*
X024290Y007786D03*
X024290Y007789D03*
X024290Y007791D03*
X024290Y007793D03*
X024290Y007795D03*
X024290Y007797D03*
X024290Y007800D03*
X024290Y007802D03*
X024290Y007804D03*
X024290Y007806D03*
X024290Y007809D03*
X024290Y007811D03*
X024290Y007813D03*
X024290Y007815D03*
X024290Y007818D03*
X024290Y007820D03*
X024290Y007822D03*
X024290Y007824D03*
X024290Y007826D03*
X024290Y007829D03*
X024290Y007831D03*
X024290Y007833D03*
X024290Y007835D03*
X024290Y007838D03*
X024290Y007840D03*
X024290Y007842D03*
X024290Y007844D03*
X024290Y007847D03*
X024290Y007849D03*
X024290Y007851D03*
X024290Y007853D03*
X024290Y007855D03*
X024290Y007858D03*
X024290Y007860D03*
X024290Y007862D03*
X024290Y007864D03*
X024290Y007867D03*
X024290Y007869D03*
X024290Y007871D03*
X024290Y007873D03*
X024290Y007876D03*
X024290Y007878D03*
X024290Y007880D03*
X024290Y007882D03*
X024290Y007884D03*
X024290Y007887D03*
X024290Y007889D03*
X024290Y007891D03*
X024290Y007893D03*
X024290Y007896D03*
X024290Y007898D03*
X024290Y007900D03*
X024290Y007902D03*
X024290Y007905D03*
X024290Y007907D03*
X024290Y007909D03*
X024290Y007911D03*
X024290Y007913D03*
X024290Y007916D03*
X024290Y007918D03*
X024290Y007920D03*
X024290Y007922D03*
X024290Y007925D03*
X024290Y007927D03*
X024290Y007929D03*
X024290Y007931D03*
X024290Y007934D03*
X024290Y007936D03*
X024290Y007938D03*
X024290Y007940D03*
X024290Y007942D03*
X024290Y007945D03*
X024290Y007947D03*
X024290Y007949D03*
X024290Y007951D03*
X024290Y007954D03*
X024290Y007956D03*
X024290Y007958D03*
X024290Y007960D03*
X024290Y007963D03*
X024290Y007965D03*
X024290Y007967D03*
X024290Y007969D03*
X024290Y007971D03*
X024290Y007974D03*
X024290Y007976D03*
X024290Y007978D03*
X024290Y007980D03*
X024290Y007983D03*
X024290Y007985D03*
X024290Y007987D03*
X024290Y007989D03*
X024290Y007992D03*
X024290Y007994D03*
X024290Y007996D03*
X024290Y007998D03*
X024290Y008000D03*
X024290Y008003D03*
X024290Y008005D03*
X024290Y008007D03*
X024290Y008009D03*
X024290Y008012D03*
X024290Y008014D03*
X024290Y008016D03*
X024290Y008018D03*
X024290Y008020D03*
X024290Y008023D03*
X024290Y008025D03*
X024290Y008027D03*
X024290Y008029D03*
X024290Y008032D03*
X024290Y008034D03*
X024290Y008036D03*
X024290Y008038D03*
X024290Y008041D03*
X024290Y008043D03*
X024290Y008045D03*
X024290Y008047D03*
X024290Y008049D03*
X024290Y008052D03*
X024290Y008054D03*
X024290Y008056D03*
X024290Y008058D03*
X024290Y008061D03*
X024290Y008063D03*
X024290Y008065D03*
X024290Y008067D03*
X024290Y008070D03*
X024290Y008072D03*
X024290Y008074D03*
X024290Y008076D03*
X024290Y008078D03*
X024290Y008081D03*
X024290Y008083D03*
X024290Y008085D03*
X024290Y008087D03*
X024290Y008090D03*
X024290Y008092D03*
X024290Y008094D03*
X024290Y008096D03*
X024290Y008099D03*
X024290Y008101D03*
X024290Y008103D03*
X024290Y008105D03*
X024290Y008107D03*
X024290Y008110D03*
X024290Y008112D03*
X024290Y008114D03*
X024290Y008116D03*
X024290Y008119D03*
X024290Y008121D03*
X024290Y008123D03*
X024290Y008125D03*
X024290Y008128D03*
X024290Y008130D03*
X024290Y008132D03*
X024290Y008134D03*
X024290Y008136D03*
X024290Y008139D03*
X024290Y008141D03*
X024290Y008143D03*
X024290Y008145D03*
X024290Y008148D03*
X024290Y008150D03*
X024290Y008152D03*
X024290Y008154D03*
X024290Y008157D03*
X024290Y008159D03*
X024290Y008161D03*
X024290Y008163D03*
X024290Y008165D03*
X024290Y008168D03*
X024290Y008170D03*
X024290Y008172D03*
X024290Y008174D03*
X024290Y008177D03*
X024290Y008179D03*
X024290Y008181D03*
X024290Y008183D03*
X024290Y008186D03*
X024290Y008188D03*
X024290Y008190D03*
X024290Y008192D03*
X024290Y008194D03*
X024290Y008197D03*
X024290Y008199D03*
X024290Y008201D03*
X024290Y008203D03*
X024290Y008206D03*
X024290Y008208D03*
X024290Y008210D03*
X024290Y008212D03*
X024290Y008215D03*
X024290Y008217D03*
X024290Y008219D03*
X024290Y008221D03*
X024290Y008223D03*
X024290Y008226D03*
X024290Y008228D03*
X024290Y008230D03*
X024290Y008232D03*
X024290Y008235D03*
X024290Y008237D03*
X024290Y008239D03*
X024290Y008241D03*
X024290Y008243D03*
X024290Y008246D03*
X024290Y008248D03*
X024290Y008250D03*
X024290Y008252D03*
X024290Y008255D03*
X024290Y008257D03*
X024290Y008259D03*
X024290Y008261D03*
X024290Y008264D03*
X024290Y008266D03*
X024290Y008268D03*
X024290Y008270D03*
X024290Y008272D03*
X024290Y008275D03*
X024290Y008277D03*
X024290Y008279D03*
X024290Y008281D03*
X024290Y008284D03*
X024290Y008286D03*
X024290Y008288D03*
X024290Y008290D03*
X024290Y008293D03*
X024290Y008295D03*
X024290Y008297D03*
X024290Y008299D03*
X024290Y008301D03*
X024290Y008304D03*
X024290Y008306D03*
X024290Y008308D03*
X024290Y008310D03*
X024290Y008313D03*
X024290Y008315D03*
X024290Y008317D03*
X024290Y008319D03*
X024290Y008322D03*
X024290Y008324D03*
X024290Y008326D03*
X024290Y008328D03*
X024290Y008330D03*
X024290Y008333D03*
X024290Y008335D03*
X024290Y008337D03*
X024290Y008339D03*
X024290Y008342D03*
X024290Y008344D03*
X024290Y008346D03*
X024290Y008348D03*
X024290Y008351D03*
X024290Y008353D03*
X024290Y008355D03*
X024290Y008357D03*
X024290Y008359D03*
X024290Y008362D03*
X024290Y008364D03*
X024290Y008366D03*
X024290Y008368D03*
X024290Y008371D03*
X024290Y008373D03*
X024290Y008375D03*
X024290Y008377D03*
X024290Y008380D03*
X024290Y008382D03*
X024290Y008384D03*
X024290Y008386D03*
X024290Y008388D03*
X024290Y008391D03*
X024290Y008393D03*
X024290Y008395D03*
X024290Y008397D03*
X024290Y008400D03*
X024290Y008402D03*
X024290Y008404D03*
X024290Y008406D03*
X024290Y008409D03*
X024290Y008411D03*
X024290Y008413D03*
X024290Y008415D03*
X024290Y008417D03*
X024290Y008420D03*
X024290Y008422D03*
X024290Y008424D03*
X024290Y008426D03*
X024290Y008429D03*
X024290Y008431D03*
X024290Y008433D03*
X024290Y008435D03*
X024290Y008438D03*
X024290Y008440D03*
X024290Y008442D03*
X024290Y008444D03*
X024290Y008446D03*
X024290Y008449D03*
X024290Y008451D03*
X024290Y008453D03*
X024290Y008455D03*
X024290Y008458D03*
X024290Y008460D03*
X024290Y008462D03*
X024290Y008464D03*
X024290Y008466D03*
X024290Y008469D03*
X024290Y008471D03*
X024290Y008473D03*
X024290Y008475D03*
X024290Y008478D03*
X024290Y008480D03*
X024290Y008482D03*
X024290Y008484D03*
X024290Y008487D03*
X024290Y008489D03*
X024290Y008491D03*
X024290Y008493D03*
X024290Y008495D03*
X024290Y008498D03*
X024290Y008500D03*
X024290Y008502D03*
X024290Y008504D03*
X024290Y008507D03*
X024290Y008509D03*
X024290Y008511D03*
X024290Y007612D03*
X024290Y007610D03*
X024290Y007608D03*
X024290Y007606D03*
X024290Y007603D03*
X024290Y007601D03*
X024290Y007599D03*
X024290Y007597D03*
X024290Y007595D03*
X024290Y007592D03*
X024290Y007590D03*
X024290Y007588D03*
X024290Y007586D03*
X024290Y007583D03*
X024290Y007581D03*
X024290Y007579D03*
X024290Y007577D03*
X024290Y007574D03*
X024290Y007572D03*
X024290Y007570D03*
X024290Y007568D03*
X024290Y007566D03*
X024290Y007563D03*
X024290Y007561D03*
X024290Y007559D03*
X024290Y007557D03*
X024290Y007554D03*
X024290Y007552D03*
X024290Y007550D03*
X024290Y007548D03*
X024290Y007546D03*
X024290Y007543D03*
X024290Y007541D03*
X024290Y007539D03*
X024290Y007537D03*
X024290Y007534D03*
X024290Y007532D03*
X024290Y007530D03*
X024290Y007528D03*
X024290Y007525D03*
X024290Y007523D03*
X024290Y007521D03*
X024290Y007519D03*
X024290Y007517D03*
X024290Y007514D03*
X024290Y007512D03*
X024290Y007510D03*
X024290Y007508D03*
X024290Y007505D03*
X024290Y007503D03*
X024290Y007501D03*
X024290Y007499D03*
X024290Y007496D03*
X024290Y007494D03*
X024290Y007492D03*
X024290Y007490D03*
X024290Y007488D03*
X024290Y007485D03*
X024290Y007483D03*
X024290Y007481D03*
X024290Y007479D03*
X024290Y007476D03*
X024290Y007474D03*
X024290Y007472D03*
X024290Y007470D03*
X024290Y007467D03*
X024290Y007465D03*
X024290Y007463D03*
X024290Y007461D03*
X024290Y007459D03*
X024290Y007456D03*
X024290Y007454D03*
X024290Y007452D03*
X024290Y007450D03*
X024290Y007447D03*
X024290Y007445D03*
X024290Y007443D03*
X024290Y007441D03*
X024290Y007438D03*
X024290Y007436D03*
X024290Y007434D03*
X024290Y007432D03*
X024290Y007430D03*
X024290Y007427D03*
X024290Y007425D03*
X024290Y007423D03*
X024290Y007421D03*
X024290Y007418D03*
X024290Y007416D03*
X024290Y007414D03*
X024290Y007412D03*
X024290Y007409D03*
X024290Y007407D03*
X024290Y007405D03*
X024290Y007403D03*
X024290Y007401D03*
X024290Y007398D03*
X024290Y007396D03*
X024290Y007394D03*
X024290Y007392D03*
X024290Y007389D03*
X024290Y007387D03*
X024290Y007385D03*
X024290Y007383D03*
X024290Y007380D03*
X024290Y007378D03*
X024290Y007376D03*
X024290Y007374D03*
X024290Y007372D03*
X024290Y007369D03*
X024290Y007367D03*
X024290Y007365D03*
X024290Y007363D03*
X024290Y007360D03*
X024290Y007358D03*
X024290Y007356D03*
X024290Y007354D03*
X024290Y007351D03*
X024290Y007349D03*
X024290Y007347D03*
X024290Y007345D03*
X024290Y007343D03*
X024290Y007340D03*
X024290Y007338D03*
X024290Y007336D03*
X024290Y007334D03*
X024290Y007331D03*
X024290Y007329D03*
X024290Y007327D03*
X024290Y007325D03*
X024290Y007323D03*
X024290Y007320D03*
X024290Y007318D03*
X024290Y007316D03*
X024290Y007314D03*
X024290Y007311D03*
X024290Y007309D03*
X024290Y007307D03*
X024290Y007305D03*
X024290Y007302D03*
X024290Y007300D03*
X024290Y007298D03*
X024290Y007296D03*
X024290Y007294D03*
X024290Y007291D03*
X024290Y007289D03*
X024290Y007287D03*
X024290Y007285D03*
X024290Y007282D03*
X024290Y007280D03*
X024290Y007278D03*
X024290Y007276D03*
X024290Y007273D03*
X024290Y007271D03*
X024290Y007269D03*
X024290Y007267D03*
X024290Y007265D03*
X024290Y007262D03*
X024290Y007260D03*
X024290Y007258D03*
X024290Y007256D03*
X024290Y007253D03*
X024290Y007251D03*
X024290Y007249D03*
X024290Y007247D03*
X024290Y007244D03*
X024290Y007242D03*
X024290Y007240D03*
X024290Y007238D03*
X024290Y007236D03*
X024290Y007233D03*
X024290Y007231D03*
D21*
X022417Y007635D03*
X022029Y007231D03*
X021860Y007331D03*
X020344Y007298D03*
D22*
X021379Y008076D03*
X021379Y008078D03*
X021379Y008081D03*
X021379Y008083D03*
X021379Y008085D03*
X021379Y008087D03*
X021397Y008092D03*
X021397Y008094D03*
X021397Y008096D03*
X021397Y008099D03*
X021397Y008101D03*
X021397Y008103D03*
X021397Y008105D03*
X021397Y008107D03*
X022140Y008243D03*
X022140Y008246D03*
X022140Y008248D03*
X022140Y008250D03*
X022140Y008252D03*
X022140Y008255D03*
X022140Y008257D03*
X022155Y008261D03*
X022155Y008264D03*
X022155Y008266D03*
X022155Y008268D03*
X022155Y008270D03*
X022155Y008272D03*
X022155Y008326D03*
X022155Y008328D03*
X022155Y008330D03*
X022155Y008333D03*
X022155Y008335D03*
X022155Y008337D03*
X022155Y008339D03*
X022240Y007717D03*
X022240Y007715D03*
X022240Y007713D03*
X022240Y007711D03*
X022240Y007708D03*
X022240Y007706D03*
X022122Y007653D03*
X022122Y007650D03*
X023353Y007244D03*
X023353Y007242D03*
X023353Y007240D03*
X023353Y007238D03*
X023353Y007236D03*
X023353Y007233D03*
X023353Y007231D03*
D23*
X022459Y007655D03*
X022459Y007657D03*
X022459Y007659D03*
X022459Y007661D03*
X022459Y007664D03*
X022459Y007666D03*
X022374Y007773D03*
X022374Y007775D03*
X022374Y007777D03*
X022374Y007780D03*
X022374Y007782D03*
X022374Y007784D03*
X022374Y007786D03*
X022374Y007940D03*
X022374Y007942D03*
X022374Y007945D03*
X022374Y007947D03*
X022374Y007949D03*
X022374Y007951D03*
X022374Y007954D03*
X022374Y007956D03*
X022374Y007958D03*
X022374Y007960D03*
X022374Y007963D03*
X022374Y007965D03*
X022374Y007967D03*
X022374Y007969D03*
X022341Y007992D03*
X022341Y007994D03*
X022341Y007996D03*
X022341Y007998D03*
X022341Y008000D03*
X022341Y008003D03*
X022325Y007615D03*
X022325Y007612D03*
X022325Y007610D03*
X022325Y007608D03*
X022325Y007606D03*
X022325Y007603D03*
X022037Y007617D03*
X022037Y007619D03*
X022037Y007621D03*
X022037Y007624D03*
X022037Y007626D03*
X022037Y007628D03*
X022037Y007630D03*
X022037Y007632D03*
X021767Y007416D03*
X022004Y007244D03*
X022004Y007242D03*
X022004Y007240D03*
X022004Y007238D03*
X022004Y007236D03*
X022004Y007233D03*
X020673Y007298D03*
D24*
X020503Y007262D03*
X020503Y007260D03*
X020503Y007258D03*
X020503Y007256D03*
X020503Y007253D03*
X020503Y007251D03*
X020503Y007249D03*
X020503Y007247D03*
X022104Y008194D03*
X022104Y008197D03*
X022104Y008199D03*
X022104Y008201D03*
X022104Y008203D03*
X022104Y008206D03*
X022492Y008295D03*
X022492Y008297D03*
X022492Y008299D03*
X022492Y008301D03*
X022492Y008304D03*
X022492Y008306D03*
D25*
X022442Y007653D03*
X022442Y007650D03*
X021987Y007249D03*
X021987Y007247D03*
X021954Y007265D03*
X021920Y007280D03*
X021920Y007282D03*
X021835Y007347D03*
X021835Y007349D03*
X023133Y007316D03*
X023133Y007314D03*
X023573Y007314D03*
X023573Y007316D03*
X020319Y008056D03*
D26*
X022477Y008293D03*
X023353Y007262D03*
X023353Y007260D03*
X023353Y007258D03*
X023353Y007256D03*
X023353Y007253D03*
X023353Y007251D03*
X023353Y007249D03*
X023353Y007247D03*
D27*
X022089Y008143D03*
X022089Y008145D03*
X022089Y008148D03*
X022089Y008150D03*
X022089Y008152D03*
X022089Y008154D03*
X022089Y008157D03*
X022089Y008159D03*
X020503Y007278D03*
X020503Y007276D03*
X020503Y007273D03*
X020503Y007271D03*
X020503Y007269D03*
X020503Y007267D03*
X020503Y007265D03*
D28*
X023353Y007267D03*
X023353Y007269D03*
X023353Y007271D03*
X023353Y007273D03*
X023353Y007276D03*
X023353Y007278D03*
X023353Y007265D03*
D29*
X020503Y007280D03*
X020503Y007282D03*
D30*
X023353Y007282D03*
X023353Y007280D03*
D31*
X022434Y007637D03*
X022434Y007639D03*
X022434Y007641D03*
X022434Y007644D03*
X022434Y007646D03*
X022434Y007648D03*
X022198Y007581D03*
X022198Y007579D03*
X022198Y007577D03*
X022198Y007574D03*
X022198Y007572D03*
X022198Y007570D03*
X022198Y007568D03*
X022249Y007430D03*
X022249Y007427D03*
X022249Y007425D03*
X022249Y007423D03*
X022249Y007421D03*
X022249Y007418D03*
X022249Y007416D03*
X021912Y007296D03*
X021912Y007294D03*
X021912Y007291D03*
X021912Y007289D03*
X021912Y007287D03*
X021912Y007285D03*
X021895Y007300D03*
X021895Y007302D03*
X021895Y007305D03*
X021895Y007307D03*
X021895Y007309D03*
X021895Y007311D03*
X021877Y007318D03*
X021877Y007320D03*
X021877Y007323D03*
X021877Y007325D03*
X021877Y007327D03*
X021877Y007329D03*
X021843Y007334D03*
X021843Y007336D03*
X021843Y007338D03*
X021843Y007340D03*
X021843Y007343D03*
X021843Y007345D03*
X021828Y007351D03*
X021828Y007354D03*
X021828Y007356D03*
X021828Y007358D03*
X021828Y007360D03*
X021828Y007363D03*
X022383Y007938D03*
X022349Y007989D03*
X022334Y008005D03*
X022334Y008007D03*
X022334Y008009D03*
X022334Y008012D03*
X022334Y008014D03*
X022334Y008016D03*
X022334Y008018D03*
X022334Y008020D03*
X022485Y008157D03*
X022485Y008159D03*
X022485Y008161D03*
X022485Y008163D03*
X022485Y008165D03*
X022485Y008168D03*
X022485Y008170D03*
X022485Y008172D03*
X020664Y008041D03*
X020664Y008038D03*
X020327Y008058D03*
X020327Y008061D03*
X020327Y008063D03*
X020327Y008065D03*
X020327Y008067D03*
X020327Y008070D03*
X020360Y007296D03*
X020360Y007294D03*
X020360Y007291D03*
X020360Y007289D03*
X020360Y007287D03*
X020360Y007285D03*
D32*
X020258Y007347D03*
X020258Y007349D03*
X020664Y007296D03*
X020664Y007294D03*
X020664Y007291D03*
X020664Y007289D03*
X020664Y007287D03*
X020664Y007285D03*
X021136Y007938D03*
X021136Y007940D03*
X021136Y007942D03*
X021136Y007945D03*
X021136Y007947D03*
X021136Y007949D03*
X021136Y007951D03*
X021136Y007954D03*
X021136Y007956D03*
X021136Y007958D03*
X021136Y007960D03*
X021136Y007963D03*
X021136Y007965D03*
X021136Y007967D03*
X021136Y007969D03*
X021270Y008056D03*
X021828Y008076D03*
X021828Y008078D03*
X021828Y008081D03*
X021828Y008083D03*
X021828Y008085D03*
X021828Y008087D03*
X022401Y007918D03*
X022401Y007916D03*
X022401Y007913D03*
X022401Y007911D03*
X022401Y007909D03*
X022401Y007907D03*
X022401Y007905D03*
X022401Y007902D03*
X022401Y007900D03*
X022401Y007898D03*
X022401Y007896D03*
X022401Y007893D03*
X022401Y007891D03*
X022401Y007889D03*
X022401Y007887D03*
X022401Y007884D03*
X022401Y007882D03*
X022401Y007880D03*
X022401Y007878D03*
X022401Y007876D03*
X022401Y007873D03*
X022401Y007871D03*
X022401Y007869D03*
X022401Y007867D03*
X022401Y007864D03*
X022401Y007862D03*
X022401Y007860D03*
X022401Y007858D03*
X022401Y007855D03*
X022401Y007853D03*
X022401Y007851D03*
X022401Y007849D03*
X022401Y007847D03*
X022401Y007844D03*
X022401Y007842D03*
X022401Y007840D03*
X022401Y007838D03*
X022401Y007835D03*
X022401Y007833D03*
X022401Y007831D03*
X022401Y007829D03*
X022401Y007826D03*
X022401Y007824D03*
X022401Y007822D03*
X022401Y007820D03*
X022401Y007818D03*
X022401Y007815D03*
X022401Y007813D03*
X022401Y007811D03*
X022401Y007809D03*
X022401Y007806D03*
X022383Y007802D03*
X022383Y007800D03*
X022383Y007797D03*
X022383Y007795D03*
X022383Y007793D03*
X022383Y007791D03*
X022383Y007789D03*
X022485Y007684D03*
X022485Y007682D03*
X022485Y007679D03*
X022485Y007677D03*
X022485Y007675D03*
X022485Y007673D03*
X022485Y007670D03*
X022501Y007688D03*
X022501Y007690D03*
X022501Y007693D03*
X022501Y007695D03*
X022501Y007697D03*
X022501Y007699D03*
X022535Y007722D03*
X022535Y007724D03*
X022535Y007726D03*
X022535Y007728D03*
X022535Y007731D03*
X022535Y007733D03*
X022535Y007735D03*
X022535Y007737D03*
X022552Y007753D03*
X022552Y007755D03*
X022552Y007757D03*
X022552Y007760D03*
X022552Y007762D03*
X022552Y007764D03*
X022552Y007766D03*
X022552Y007769D03*
X022552Y007771D03*
X022501Y008005D03*
X022501Y008007D03*
X022468Y008141D03*
X022468Y008143D03*
X022468Y008145D03*
X022468Y008148D03*
X022468Y008150D03*
X022468Y008152D03*
X022468Y008154D03*
X022180Y007566D03*
X022180Y007563D03*
X022180Y007561D03*
X022180Y007559D03*
X022180Y007557D03*
X022180Y007554D03*
X022180Y007552D03*
X022180Y007550D03*
X021794Y007396D03*
X021794Y007394D03*
X021794Y007392D03*
X021794Y007389D03*
X021794Y007387D03*
X021794Y007385D03*
X021776Y007403D03*
X021776Y007405D03*
X021776Y007407D03*
X021776Y007409D03*
X021776Y007412D03*
X021776Y007414D03*
X021759Y007418D03*
X021759Y007421D03*
X021759Y007423D03*
X021759Y007425D03*
X021759Y007427D03*
X021759Y007430D03*
X021759Y007432D03*
X021759Y007434D03*
X021743Y007450D03*
X020681Y008025D03*
X020681Y008027D03*
X020681Y008029D03*
X020681Y008032D03*
X020681Y008034D03*
X020681Y008036D03*
X020260Y008036D03*
X020260Y008034D03*
X020260Y008032D03*
X020260Y008029D03*
X020260Y008027D03*
X020260Y008025D03*
X020260Y008023D03*
X023041Y007383D03*
X023074Y007349D03*
X023074Y007347D03*
X023598Y007329D03*
X023598Y007327D03*
X023598Y007325D03*
X023598Y007323D03*
X023598Y007320D03*
X023598Y007318D03*
X023632Y007347D03*
X023632Y007349D03*
X023650Y007365D03*
D33*
X023201Y007296D03*
X023201Y007294D03*
X023201Y007291D03*
X023201Y007289D03*
X023201Y007287D03*
X023201Y007285D03*
D34*
X023505Y007285D03*
X023505Y007287D03*
X023505Y007289D03*
X023505Y007291D03*
X023505Y007294D03*
X023505Y007296D03*
X022358Y007617D03*
X022358Y007619D03*
X022071Y007635D03*
X022104Y008397D03*
X022104Y008400D03*
X022104Y008402D03*
X022104Y008404D03*
X022104Y008406D03*
X022104Y008409D03*
X022104Y008411D03*
X022104Y008413D03*
X022104Y008415D03*
X022104Y008417D03*
X022104Y008420D03*
X022104Y008422D03*
X022104Y008424D03*
X020621Y008056D03*
D35*
X021431Y008128D03*
X021431Y008130D03*
X021431Y008132D03*
X021431Y008134D03*
X021431Y008136D03*
X021431Y008139D03*
X021431Y008141D03*
X021819Y007365D03*
X021886Y007316D03*
X021886Y007314D03*
X021903Y007298D03*
X022240Y007588D03*
X022240Y007590D03*
X022240Y007592D03*
X022240Y007595D03*
X022240Y007597D03*
X022240Y007599D03*
X022492Y008174D03*
X022492Y008177D03*
X022492Y008179D03*
X022492Y008181D03*
X022492Y008183D03*
X022492Y008186D03*
X022492Y008188D03*
D36*
X022519Y008208D03*
X022519Y008210D03*
X022519Y008212D03*
X022519Y008215D03*
X022519Y008217D03*
X022519Y008219D03*
X022519Y008221D03*
X022519Y008223D03*
X022519Y008226D03*
X022519Y008228D03*
X022519Y008230D03*
X022519Y008232D03*
X022519Y008235D03*
X022519Y008237D03*
X022519Y008239D03*
X022147Y008279D03*
X022147Y008281D03*
X022147Y008284D03*
X022147Y008286D03*
X022147Y008288D03*
X022147Y008290D03*
X022147Y008293D03*
X022147Y008295D03*
X022147Y008297D03*
X022147Y008299D03*
X022147Y008301D03*
X022147Y008304D03*
X022147Y008306D03*
X022113Y008346D03*
X022113Y008348D03*
X022113Y008351D03*
X022113Y008353D03*
X022113Y008355D03*
X022113Y008357D03*
X022113Y008359D03*
X022113Y008362D03*
X022113Y008364D03*
X022113Y008366D03*
X022113Y008368D03*
X022113Y008371D03*
X022113Y008373D03*
X022113Y008375D03*
X022283Y007733D03*
X022283Y007731D03*
X022283Y007728D03*
X022283Y007726D03*
X022283Y007724D03*
X022283Y007722D03*
X023192Y007298D03*
X023514Y007298D03*
X020478Y008128D03*
X020478Y008130D03*
X020478Y008132D03*
X020478Y008134D03*
X020478Y008136D03*
X020478Y008139D03*
X020478Y008141D03*
D37*
X020277Y008041D03*
X020277Y008038D03*
X020310Y007316D03*
X020310Y007314D03*
X023109Y007331D03*
D38*
X020714Y007316D03*
X020714Y007314D03*
D39*
X020757Y007334D03*
X020757Y007336D03*
X020757Y007338D03*
X020757Y007340D03*
X020757Y007343D03*
X020757Y007345D03*
X020757Y007347D03*
X020757Y007349D03*
X020218Y007385D03*
X020218Y007387D03*
X020218Y007389D03*
X020218Y007392D03*
X020218Y007394D03*
X020218Y007396D03*
X020200Y007403D03*
X020200Y007405D03*
X020200Y007407D03*
X020200Y007409D03*
X020200Y007412D03*
X020200Y007414D03*
X020184Y007436D03*
X020184Y007438D03*
X020184Y007441D03*
X020184Y007443D03*
X020184Y007445D03*
X020184Y007447D03*
X020148Y007485D03*
X020148Y007488D03*
X020148Y007490D03*
X020148Y007492D03*
X020148Y007494D03*
X020148Y007496D03*
X020148Y007499D03*
X020148Y007501D03*
X020148Y007503D03*
X020148Y007505D03*
X020148Y007508D03*
X020148Y007510D03*
X020148Y007512D03*
X020148Y007514D03*
X020148Y007517D03*
X020115Y007601D03*
X020115Y007603D03*
X020115Y007606D03*
X020115Y007608D03*
X020115Y007610D03*
X020115Y007612D03*
X020115Y007615D03*
X020115Y007617D03*
X020115Y007619D03*
X020115Y007621D03*
X020115Y007624D03*
X020115Y007626D03*
X020115Y007628D03*
X020115Y007630D03*
X020115Y007632D03*
X020115Y007635D03*
X020115Y007637D03*
X020115Y007639D03*
X020115Y007641D03*
X020115Y007644D03*
X020115Y007646D03*
X020115Y007648D03*
X020115Y007650D03*
X020115Y007653D03*
X020115Y007655D03*
X020115Y007657D03*
X020115Y007659D03*
X020115Y007661D03*
X020115Y007664D03*
X020115Y007666D03*
X020115Y007668D03*
X020115Y007670D03*
X020115Y007673D03*
X020115Y007675D03*
X020115Y007677D03*
X020115Y007679D03*
X020115Y007682D03*
X020115Y007684D03*
X020115Y007686D03*
X020115Y007702D03*
X020115Y007704D03*
X020115Y007706D03*
X020115Y007708D03*
X020115Y007711D03*
X020115Y007713D03*
X020115Y007715D03*
X020115Y007717D03*
X020148Y007858D03*
X020148Y007860D03*
X020148Y007862D03*
X020148Y007864D03*
X020148Y007867D03*
X020148Y007869D03*
X020148Y007871D03*
X020148Y007873D03*
X020148Y007876D03*
X020148Y007878D03*
X020148Y007880D03*
X020148Y007882D03*
X020148Y007884D03*
X019896Y008043D03*
X019896Y008045D03*
X019896Y008047D03*
X019896Y008049D03*
X019896Y008052D03*
X019896Y008054D03*
X019879Y008036D03*
X019879Y008034D03*
X019879Y008032D03*
X019879Y008029D03*
X019879Y008027D03*
X019879Y008025D03*
X019845Y007987D03*
X019845Y007985D03*
X019845Y007983D03*
X019845Y007980D03*
X019845Y007978D03*
X019845Y007976D03*
X019812Y007936D03*
X019812Y007934D03*
X019812Y007931D03*
X019812Y007929D03*
X019812Y007927D03*
X019812Y007925D03*
X019796Y007918D03*
X019796Y007916D03*
X019796Y007913D03*
X019796Y007911D03*
X019796Y007909D03*
X019796Y007907D03*
X019778Y007902D03*
X019778Y007900D03*
X019778Y007898D03*
X019778Y007896D03*
X019778Y007893D03*
X019778Y007891D03*
X019763Y007869D03*
X019763Y007867D03*
X019763Y007864D03*
X019763Y007862D03*
X019763Y007860D03*
X019763Y007858D03*
X019745Y007851D03*
X019745Y007849D03*
X019745Y007847D03*
X019745Y007844D03*
X019745Y007842D03*
X019745Y007840D03*
X019727Y007835D03*
X019727Y007833D03*
X019727Y007831D03*
X019727Y007829D03*
X019727Y007826D03*
X019727Y007824D03*
X019694Y007784D03*
X019694Y007782D03*
X019694Y007780D03*
X019694Y007777D03*
X019694Y007775D03*
X019694Y007773D03*
X019660Y007733D03*
X019660Y007731D03*
X019660Y007728D03*
X019660Y007726D03*
X019660Y007724D03*
X019660Y007722D03*
X019644Y007717D03*
X019644Y007715D03*
X019644Y007713D03*
X019644Y007711D03*
X019644Y007708D03*
X019644Y007706D03*
X019627Y007684D03*
X019627Y007682D03*
X019627Y007679D03*
X019627Y007677D03*
X019627Y007675D03*
X019627Y007673D03*
X019627Y007670D03*
X019593Y007648D03*
X019593Y007646D03*
X019593Y007644D03*
X019593Y007641D03*
X019593Y007639D03*
X019593Y007637D03*
X019542Y007581D03*
X019542Y007579D03*
X019542Y007577D03*
X019542Y007574D03*
X019542Y007572D03*
X019542Y007570D03*
X019508Y007532D03*
X019508Y007530D03*
X019508Y007528D03*
X019508Y007525D03*
X019508Y007523D03*
X019508Y007521D03*
X019508Y007519D03*
X019493Y007496D03*
X019493Y007494D03*
X019493Y007492D03*
X019493Y007490D03*
X019493Y007488D03*
X019493Y007485D03*
X019475Y007481D03*
X019475Y007479D03*
X019475Y007476D03*
X019475Y007474D03*
X019475Y007472D03*
X019475Y007470D03*
X019442Y007430D03*
X019442Y007427D03*
X019442Y007425D03*
X019442Y007423D03*
X019442Y007421D03*
X019442Y007418D03*
X019390Y007363D03*
X019390Y007360D03*
X019390Y007358D03*
X019390Y007356D03*
X019390Y007354D03*
X019390Y007351D03*
X019357Y007329D03*
X019357Y007327D03*
X019357Y007325D03*
X019357Y007323D03*
X019357Y007320D03*
X019357Y007318D03*
X020791Y007804D03*
X020791Y007806D03*
X020791Y007809D03*
X020791Y007811D03*
X020791Y007813D03*
X020791Y007815D03*
X020791Y007818D03*
X020791Y007820D03*
X020791Y007822D03*
X020791Y007824D03*
X020791Y007826D03*
X020791Y007829D03*
X020791Y007831D03*
X020791Y007833D03*
X020791Y007835D03*
X020791Y007838D03*
X020791Y007840D03*
X020791Y007842D03*
X020791Y007844D03*
X020791Y007847D03*
X020791Y007849D03*
X020791Y007851D03*
X020791Y007853D03*
X020791Y007855D03*
X020791Y007858D03*
X020791Y007860D03*
X020791Y007862D03*
X020791Y007864D03*
X020791Y007867D03*
X020791Y007869D03*
X020757Y007925D03*
X020757Y007927D03*
X020757Y007929D03*
X020757Y007931D03*
X020757Y007934D03*
X020757Y007936D03*
X020739Y007958D03*
X020739Y007960D03*
X020739Y007963D03*
X020739Y007965D03*
X020739Y007967D03*
X020739Y007969D03*
X021094Y008107D03*
X021094Y008110D03*
X021094Y008112D03*
X021094Y008114D03*
X021094Y008116D03*
X021094Y008119D03*
X021094Y008121D03*
X021094Y008123D03*
X021094Y008125D03*
X021212Y008020D03*
X021212Y008018D03*
X021212Y008016D03*
X021212Y008014D03*
X021212Y008012D03*
X021212Y008009D03*
X021212Y008007D03*
X021212Y008005D03*
X021110Y007869D03*
X021110Y007867D03*
X021110Y007864D03*
X021110Y007862D03*
X021110Y007860D03*
X021110Y007858D03*
X021110Y007855D03*
X021110Y007853D03*
X021110Y007851D03*
X021110Y007849D03*
X021110Y007847D03*
X021110Y007844D03*
X021110Y007842D03*
X021110Y007840D03*
X021110Y007838D03*
X021110Y007835D03*
X021110Y007833D03*
X021110Y007831D03*
X021110Y007829D03*
X021110Y007826D03*
X021110Y007824D03*
X021110Y007822D03*
X021110Y007820D03*
X021667Y007802D03*
X021667Y007800D03*
X021667Y007797D03*
X021667Y007795D03*
X021667Y007793D03*
X021667Y007791D03*
X021667Y007789D03*
X021667Y007786D03*
X021667Y007784D03*
X021667Y007782D03*
X021667Y007780D03*
X021667Y007777D03*
X021667Y007775D03*
X021667Y007773D03*
X021667Y007632D03*
X021667Y007630D03*
X021667Y007628D03*
X021667Y007626D03*
X021667Y007624D03*
X021667Y007621D03*
X021667Y007619D03*
X021667Y007617D03*
X021667Y007615D03*
X021667Y007612D03*
X021667Y007610D03*
X021667Y007608D03*
X021667Y007606D03*
X021667Y007603D03*
X021988Y007566D03*
X021988Y007563D03*
X021988Y007561D03*
X021988Y007559D03*
X021988Y007557D03*
X021988Y007554D03*
X021988Y007552D03*
X021988Y007550D03*
X021988Y007548D03*
X021988Y007546D03*
X021988Y007543D03*
X021988Y007541D03*
X021988Y007539D03*
X021988Y007537D03*
X021988Y007534D03*
X021988Y007532D03*
X021988Y007530D03*
X021988Y007528D03*
X021988Y007525D03*
X021988Y007523D03*
X021988Y007521D03*
X021988Y007519D03*
X021988Y007517D03*
X021988Y007514D03*
X021988Y007512D03*
X021988Y007510D03*
X021988Y007508D03*
X021988Y007505D03*
X021988Y007503D03*
X021988Y007501D03*
X021988Y007499D03*
X022004Y007450D03*
X022037Y007401D03*
X022037Y007398D03*
X022155Y007465D03*
X022155Y007467D03*
X022155Y007470D03*
X022155Y007472D03*
X022155Y007474D03*
X022155Y007476D03*
X022155Y007479D03*
X022155Y007481D03*
X022155Y007483D03*
X022155Y007517D03*
X022155Y007519D03*
X022155Y007521D03*
X022155Y007523D03*
X022155Y007525D03*
X022155Y007528D03*
X022155Y007530D03*
X022155Y007532D03*
X022004Y007570D03*
X022004Y007572D03*
X022004Y007574D03*
X022004Y007577D03*
X022004Y007579D03*
X022004Y007581D03*
X022914Y007650D03*
X022914Y007653D03*
X022914Y007655D03*
X022914Y007657D03*
X022914Y007659D03*
X022914Y007661D03*
X022914Y007664D03*
X022914Y007666D03*
X022914Y007668D03*
X022914Y007670D03*
X022914Y007673D03*
X022914Y007675D03*
X022914Y007677D03*
X022914Y007679D03*
X022914Y007682D03*
X022914Y007684D03*
X022914Y007686D03*
X022914Y007688D03*
X022914Y007690D03*
X022914Y007693D03*
X022914Y007695D03*
X022914Y007697D03*
X022914Y007699D03*
X022914Y007702D03*
X022914Y007704D03*
X022914Y007706D03*
X022914Y007708D03*
X022914Y007711D03*
X022914Y007713D03*
X022914Y007715D03*
X022914Y007717D03*
X022914Y007719D03*
X022914Y007722D03*
X022914Y007724D03*
X022914Y007726D03*
X022914Y007728D03*
X022914Y007731D03*
X022914Y007733D03*
X022914Y007735D03*
X022914Y007737D03*
X022914Y007740D03*
X022914Y007742D03*
X022914Y007744D03*
X022914Y007746D03*
X022914Y007748D03*
X022914Y007751D03*
X022914Y007753D03*
X022914Y007755D03*
X022914Y007757D03*
X022914Y007760D03*
X022914Y007762D03*
X022914Y007764D03*
X022914Y007766D03*
X022914Y007769D03*
X022914Y007771D03*
X022914Y007773D03*
X022914Y007775D03*
X022914Y007777D03*
X022914Y007780D03*
X022914Y007782D03*
X022914Y007784D03*
X022914Y007786D03*
X022914Y007789D03*
X022914Y007791D03*
X022914Y007793D03*
X022914Y007795D03*
X022914Y007797D03*
X022914Y007800D03*
X022914Y007802D03*
X022914Y007804D03*
X022914Y007806D03*
X022914Y007809D03*
X022914Y007811D03*
X022914Y007813D03*
X022914Y007815D03*
X022914Y007818D03*
X022914Y007820D03*
X022914Y007822D03*
X022914Y007824D03*
X022914Y007826D03*
X022914Y007829D03*
X022914Y007831D03*
X022914Y007833D03*
X022914Y007835D03*
X022914Y007838D03*
X022914Y007840D03*
X022914Y007842D03*
X022914Y007844D03*
X022914Y007847D03*
X022914Y007849D03*
X022914Y007851D03*
X022914Y007853D03*
X022914Y007855D03*
X022914Y007858D03*
X022914Y007860D03*
X022914Y007862D03*
X022914Y007864D03*
X022914Y007867D03*
X022914Y007869D03*
X022914Y007871D03*
X022914Y007873D03*
X022914Y007876D03*
X022914Y007878D03*
X022914Y007880D03*
X022914Y007882D03*
X022914Y007884D03*
X022914Y007887D03*
X022914Y007889D03*
X022914Y007891D03*
X022914Y007893D03*
X022914Y007896D03*
X022914Y007898D03*
X022914Y007900D03*
X022914Y007902D03*
X022914Y007905D03*
X022914Y007907D03*
X022914Y007909D03*
X022914Y007911D03*
X022914Y007913D03*
X022914Y007916D03*
X022914Y007918D03*
X022914Y007920D03*
X022914Y007922D03*
X022914Y007925D03*
X022914Y007927D03*
X022914Y007929D03*
X022914Y007931D03*
X022914Y007934D03*
X022914Y007936D03*
X022914Y007938D03*
X022914Y007940D03*
X022914Y007942D03*
X022914Y007945D03*
X022914Y007947D03*
X022914Y007949D03*
X022914Y007951D03*
X022914Y007954D03*
X022914Y007956D03*
X022914Y007958D03*
X022914Y007960D03*
X022914Y007963D03*
X022914Y007965D03*
X022914Y007967D03*
X022914Y007969D03*
X022914Y007971D03*
X022914Y007974D03*
X022914Y007976D03*
X022914Y007978D03*
X022914Y007980D03*
X022914Y007983D03*
X022914Y007985D03*
X022914Y007987D03*
X022914Y007989D03*
X022914Y007992D03*
X022914Y007994D03*
X022914Y007996D03*
X022914Y007998D03*
X022914Y008000D03*
X022914Y008003D03*
X022914Y008005D03*
X022914Y008007D03*
X022914Y008009D03*
X022914Y008012D03*
X022914Y008014D03*
X022914Y008016D03*
X022914Y008018D03*
X022914Y008020D03*
X022914Y008023D03*
X022914Y008025D03*
X022914Y008027D03*
X022914Y008029D03*
X022914Y008032D03*
X022914Y008034D03*
X022914Y008036D03*
X022914Y008038D03*
X022914Y008041D03*
X022914Y008043D03*
X022914Y008045D03*
X022914Y008047D03*
X022914Y008049D03*
X022914Y008052D03*
X022914Y008054D03*
X022914Y008056D03*
X022914Y008058D03*
X022914Y008061D03*
X022914Y008063D03*
X022914Y008065D03*
X022914Y008067D03*
X022914Y008070D03*
X022914Y008072D03*
X022914Y008074D03*
X022914Y008076D03*
X022914Y008078D03*
X022914Y008081D03*
X022914Y008083D03*
X022914Y008085D03*
X022914Y008087D03*
X022914Y008090D03*
X022914Y008092D03*
X022914Y008094D03*
X022914Y008096D03*
X022914Y008099D03*
X022914Y008101D03*
X022914Y008103D03*
X022914Y008105D03*
X022914Y008107D03*
X022914Y008110D03*
X022914Y008112D03*
X022914Y008114D03*
X022914Y008116D03*
X022914Y008119D03*
X022914Y008121D03*
X022914Y008123D03*
X022914Y008125D03*
X022914Y008128D03*
X022914Y008130D03*
X022914Y008132D03*
X022914Y008134D03*
X022914Y008136D03*
X022914Y008139D03*
X022914Y008141D03*
X022914Y008143D03*
X022914Y008145D03*
X022914Y008148D03*
X022914Y008150D03*
X022914Y008152D03*
X022914Y008154D03*
X022914Y008157D03*
X022914Y008159D03*
X022914Y008161D03*
X022914Y008163D03*
X022914Y008165D03*
X022914Y008168D03*
X022914Y008170D03*
X022914Y008172D03*
X022914Y008174D03*
X022914Y008177D03*
X022914Y008179D03*
X022914Y008181D03*
X022914Y008183D03*
X022914Y008186D03*
X022914Y008188D03*
X022914Y008190D03*
X022914Y008192D03*
X022914Y008194D03*
X022914Y008197D03*
X022914Y008199D03*
X022914Y008201D03*
X022914Y008203D03*
X022914Y008206D03*
X022914Y008208D03*
X022914Y008210D03*
X022914Y008212D03*
X022914Y008215D03*
X022914Y008217D03*
X022914Y008219D03*
X022914Y008221D03*
X022914Y008223D03*
X022914Y008226D03*
X022914Y008228D03*
X022914Y008230D03*
X022914Y008232D03*
X022914Y008235D03*
X022914Y008237D03*
X022914Y008239D03*
X022914Y008241D03*
X022914Y008243D03*
X022914Y008246D03*
X022914Y008248D03*
X022914Y008250D03*
X022914Y008252D03*
X022914Y008255D03*
X022914Y008257D03*
X022914Y008259D03*
X022914Y008261D03*
X022914Y008264D03*
X022914Y008266D03*
X022914Y008268D03*
X022914Y008270D03*
X022914Y008272D03*
X022914Y008275D03*
X022914Y008277D03*
X022914Y008279D03*
X022914Y008281D03*
X022914Y008284D03*
X022914Y008286D03*
X022914Y008288D03*
X022914Y008290D03*
X022914Y008293D03*
X022914Y008295D03*
X022914Y008297D03*
X022914Y008299D03*
X022914Y008301D03*
X022914Y008304D03*
X022914Y008306D03*
X022914Y008308D03*
X022914Y008310D03*
X022914Y008313D03*
X022914Y008315D03*
X022914Y008317D03*
X022914Y008319D03*
X022914Y008322D03*
X022914Y008324D03*
X022914Y008326D03*
X022914Y008328D03*
X022914Y008330D03*
X022914Y008333D03*
X022914Y008335D03*
X022914Y008337D03*
X022914Y008339D03*
X022914Y008342D03*
X022914Y008344D03*
X022914Y008346D03*
X022914Y008348D03*
X022914Y008351D03*
X022914Y008353D03*
X022914Y008355D03*
X022914Y008357D03*
X022914Y008359D03*
X022914Y008362D03*
X022914Y008364D03*
X022914Y008366D03*
X022914Y008368D03*
X022914Y008371D03*
X022914Y008373D03*
X022914Y008375D03*
X022914Y008377D03*
X022914Y008380D03*
X022914Y008382D03*
X022914Y008384D03*
X022914Y008386D03*
X022914Y008388D03*
X022914Y008391D03*
X022914Y008393D03*
X022914Y008395D03*
X022914Y008397D03*
X022914Y008400D03*
X022914Y008402D03*
X022914Y008404D03*
X022914Y008406D03*
X022914Y008409D03*
X022914Y008411D03*
X022914Y008413D03*
X022914Y008415D03*
X022914Y008417D03*
X022914Y008420D03*
X022914Y008422D03*
X022914Y008424D03*
X022914Y008426D03*
X022914Y008429D03*
X022914Y008431D03*
X022914Y008433D03*
X022914Y008435D03*
X022914Y008438D03*
X022914Y008440D03*
X022914Y008442D03*
X022914Y008444D03*
X022914Y008446D03*
X022914Y008449D03*
X022914Y008451D03*
X022914Y008453D03*
X022914Y008455D03*
X022914Y008458D03*
X022914Y008460D03*
X022914Y008462D03*
X022914Y008464D03*
X022914Y008466D03*
X022914Y008469D03*
X022914Y008471D03*
X022914Y008473D03*
X022914Y008475D03*
X022914Y008478D03*
X022914Y008480D03*
X022914Y008482D03*
X022914Y008484D03*
X022914Y008487D03*
X022914Y008489D03*
X022914Y008491D03*
X022914Y008493D03*
X022914Y008495D03*
X022914Y008498D03*
X022914Y008500D03*
X022914Y008502D03*
X022914Y008504D03*
X022914Y008507D03*
X022914Y008509D03*
X022914Y008511D03*
X023792Y008511D03*
X023792Y008509D03*
X023792Y008507D03*
X023792Y008504D03*
X023792Y008502D03*
X023792Y008500D03*
X023792Y008498D03*
X023792Y008495D03*
X023792Y008493D03*
X023792Y008491D03*
X023792Y008489D03*
X023792Y008487D03*
X023792Y008484D03*
X023792Y008482D03*
X023792Y008480D03*
X023792Y008478D03*
X023792Y008475D03*
X023792Y008473D03*
X023792Y008471D03*
X023792Y008469D03*
X023792Y008466D03*
X023792Y008464D03*
X023792Y008462D03*
X023792Y008460D03*
X023792Y008458D03*
X023792Y008455D03*
X023792Y008453D03*
X023792Y008451D03*
X023792Y008449D03*
X023792Y008446D03*
X023792Y008444D03*
X023792Y008442D03*
X023792Y008440D03*
X023792Y008438D03*
X023792Y008435D03*
X023792Y008433D03*
X023792Y008431D03*
X023792Y008429D03*
X023792Y008426D03*
X023792Y008424D03*
X023792Y008422D03*
X023792Y008420D03*
X023792Y008417D03*
X023792Y008415D03*
X023792Y008413D03*
X023792Y008411D03*
X023792Y008409D03*
X023792Y008406D03*
X023792Y008404D03*
X023792Y008402D03*
X023792Y008400D03*
X023792Y008397D03*
X023792Y008395D03*
X023792Y008393D03*
X023792Y008391D03*
X023792Y008388D03*
X023792Y008386D03*
X023792Y008384D03*
X023792Y008382D03*
X023792Y008380D03*
X023792Y008377D03*
X023792Y008375D03*
X023792Y008373D03*
X023792Y008371D03*
X023792Y008368D03*
X023792Y008366D03*
X023792Y008364D03*
X023792Y008362D03*
X023792Y008359D03*
X023792Y008357D03*
X023792Y008355D03*
X023792Y008353D03*
X023792Y008351D03*
X023792Y008348D03*
X023792Y008346D03*
X023792Y008344D03*
X023792Y008342D03*
X023792Y008339D03*
X023792Y008337D03*
X023792Y008335D03*
X023792Y008333D03*
X023792Y008330D03*
X023792Y008328D03*
X023792Y008326D03*
X023792Y008324D03*
X023792Y008322D03*
X023792Y008319D03*
X023792Y008317D03*
X023792Y008315D03*
X023792Y008313D03*
X023792Y008310D03*
X023792Y008308D03*
X023792Y008306D03*
X023792Y008304D03*
X023792Y008301D03*
X023792Y008299D03*
X023792Y008297D03*
X023792Y008295D03*
X023792Y008293D03*
X023792Y008290D03*
X023792Y008288D03*
X023792Y008286D03*
X023792Y008284D03*
X023792Y008281D03*
X023792Y008279D03*
X023792Y008277D03*
X023792Y008275D03*
X023792Y008272D03*
X023792Y008270D03*
X023792Y008268D03*
X023792Y008266D03*
X023792Y008264D03*
X023792Y008261D03*
X023792Y008259D03*
X023792Y008257D03*
X023792Y008255D03*
X023792Y008252D03*
X023792Y008250D03*
X023792Y008248D03*
X023792Y008246D03*
X023792Y008243D03*
X023792Y008241D03*
X023792Y008239D03*
X023792Y008237D03*
X023792Y008235D03*
X023792Y008232D03*
X023792Y008230D03*
X023792Y008228D03*
X023792Y008226D03*
X023792Y008223D03*
X023792Y008221D03*
X023792Y008219D03*
X023792Y008217D03*
X023792Y008215D03*
X023792Y008212D03*
X023792Y008210D03*
X023792Y008208D03*
X023792Y008206D03*
X023792Y008203D03*
X023792Y008201D03*
X023792Y008199D03*
X023792Y008197D03*
X023792Y008194D03*
X023792Y008192D03*
X023792Y008190D03*
X023792Y008188D03*
X023792Y008186D03*
X023792Y008183D03*
X023792Y008181D03*
X023792Y008179D03*
X023792Y008177D03*
X023792Y008174D03*
X023792Y008172D03*
X023792Y008170D03*
X023792Y008168D03*
X023792Y008165D03*
X023792Y008163D03*
X023792Y008161D03*
X023792Y008159D03*
X023792Y008157D03*
X023792Y008154D03*
X023792Y008152D03*
X023792Y008150D03*
X023792Y008148D03*
X023792Y008145D03*
X023792Y008143D03*
X023792Y008141D03*
X023792Y008139D03*
X023792Y008136D03*
X023792Y008134D03*
X023792Y008132D03*
X023792Y008130D03*
X023792Y008128D03*
X023792Y008125D03*
X023792Y008123D03*
X023792Y008121D03*
X023792Y008119D03*
X023792Y008116D03*
X023792Y008114D03*
X023792Y008112D03*
X023792Y008110D03*
X023792Y008107D03*
X023792Y008105D03*
X023792Y008103D03*
X023792Y008101D03*
X023792Y008099D03*
X023792Y008096D03*
X023792Y008094D03*
X023792Y008092D03*
X023792Y008090D03*
X023792Y008087D03*
X023792Y008085D03*
X023792Y008083D03*
X023792Y008081D03*
X023792Y008078D03*
X023792Y008076D03*
X023792Y008074D03*
X023792Y008072D03*
X023792Y008070D03*
X023792Y008067D03*
X023792Y008065D03*
X023792Y008063D03*
X023792Y008061D03*
X023792Y008058D03*
X023792Y008056D03*
X023792Y008054D03*
X023792Y008052D03*
X023792Y008049D03*
X023792Y008047D03*
X023792Y008045D03*
X023792Y008043D03*
X023792Y008041D03*
X023792Y008038D03*
X023792Y008036D03*
X023792Y008034D03*
X023792Y008032D03*
X023792Y008029D03*
X023792Y008027D03*
X023792Y008025D03*
X023792Y008023D03*
X023792Y008020D03*
X023792Y008018D03*
X023792Y008016D03*
X023792Y008014D03*
X023792Y008012D03*
X023792Y008009D03*
X023792Y008007D03*
X023792Y008005D03*
X023792Y008003D03*
X023792Y008000D03*
X023792Y007998D03*
X023792Y007996D03*
X023792Y007994D03*
X023792Y007992D03*
X023792Y007989D03*
X023792Y007987D03*
X023792Y007985D03*
X023792Y007983D03*
X023792Y007980D03*
X023792Y007978D03*
X023792Y007976D03*
X023792Y007974D03*
X023792Y007971D03*
X023792Y007969D03*
X023792Y007967D03*
X023792Y007965D03*
X023792Y007963D03*
X023792Y007960D03*
X023792Y007958D03*
X023792Y007956D03*
X023792Y007954D03*
X023792Y007951D03*
X023792Y007949D03*
X023792Y007947D03*
X023792Y007945D03*
X023792Y007942D03*
X023792Y007940D03*
X023792Y007938D03*
X023792Y007936D03*
X023792Y007934D03*
X023792Y007931D03*
X023792Y007929D03*
X023792Y007927D03*
X023792Y007925D03*
X023792Y007922D03*
X023792Y007920D03*
X023792Y007918D03*
X023792Y007916D03*
X023792Y007913D03*
X023792Y007911D03*
X023792Y007909D03*
X023792Y007907D03*
X023792Y007905D03*
X023792Y007902D03*
X023792Y007900D03*
X023792Y007898D03*
X023792Y007896D03*
X023792Y007893D03*
X023792Y007891D03*
X023792Y007889D03*
X023792Y007887D03*
X023792Y007884D03*
X023792Y007882D03*
X023792Y007880D03*
X023792Y007878D03*
X023792Y007876D03*
X023792Y007873D03*
X023792Y007871D03*
X023792Y007869D03*
X023792Y007867D03*
X023792Y007864D03*
X023792Y007862D03*
X023792Y007860D03*
X023792Y007858D03*
X023792Y007855D03*
X023792Y007853D03*
X023792Y007851D03*
X023792Y007849D03*
X023792Y007847D03*
X023792Y007844D03*
X023792Y007842D03*
X023792Y007840D03*
X023792Y007838D03*
X023792Y007835D03*
X023792Y007833D03*
X023792Y007831D03*
X023792Y007829D03*
X023792Y007826D03*
X023792Y007824D03*
X023792Y007822D03*
X023792Y007820D03*
X023792Y007818D03*
X023792Y007815D03*
X023792Y007813D03*
X023792Y007811D03*
X023792Y007809D03*
X023792Y007806D03*
X023792Y007804D03*
X023792Y007802D03*
X023792Y007800D03*
X023792Y007797D03*
X023792Y007795D03*
X023792Y007793D03*
X023792Y007791D03*
X023792Y007789D03*
X023792Y007786D03*
X023792Y007784D03*
X023792Y007782D03*
X023792Y007780D03*
X023792Y007777D03*
X023792Y007775D03*
X023792Y007773D03*
X023792Y007771D03*
X023792Y007769D03*
X023792Y007766D03*
X023792Y007764D03*
X023792Y007762D03*
X023792Y007760D03*
X023792Y007757D03*
X023792Y007755D03*
X023792Y007753D03*
X023792Y007751D03*
X023792Y007748D03*
X023792Y007746D03*
X023792Y007744D03*
X023792Y007742D03*
X023792Y007740D03*
X023792Y007737D03*
X023792Y007735D03*
X023792Y007733D03*
X023792Y007731D03*
X023792Y007728D03*
X023792Y007726D03*
X023792Y007724D03*
X023792Y007722D03*
X023792Y007719D03*
X023792Y007717D03*
X023792Y007715D03*
X023792Y007713D03*
X023792Y007711D03*
X023792Y007708D03*
X023792Y007706D03*
X023792Y007704D03*
X023792Y007702D03*
X023792Y007699D03*
X023792Y007697D03*
X023792Y007695D03*
X023792Y007693D03*
X023792Y007690D03*
X023792Y007688D03*
X023792Y007686D03*
X023792Y007684D03*
X023792Y007682D03*
X023792Y007679D03*
X023792Y007677D03*
X023792Y007675D03*
X023792Y007673D03*
X023792Y007670D03*
X023792Y007668D03*
X023792Y007666D03*
X023792Y007664D03*
X023792Y007661D03*
X023792Y007659D03*
X023792Y007657D03*
X023792Y007655D03*
X023792Y007653D03*
X023792Y007650D03*
X023792Y007648D03*
X023792Y007646D03*
X023792Y007644D03*
X023792Y007641D03*
X023792Y007639D03*
X023792Y007637D03*
X023792Y007635D03*
X023792Y007632D03*
X023792Y007630D03*
X023792Y007628D03*
X023792Y007626D03*
X023792Y007624D03*
X023792Y007621D03*
X023792Y007619D03*
X023792Y007617D03*
X023774Y007586D03*
X023774Y007583D03*
X023774Y007581D03*
X023774Y007579D03*
X023774Y007577D03*
X023774Y007574D03*
X023774Y007572D03*
X023774Y007570D03*
X023774Y007568D03*
X023774Y007566D03*
X023774Y007563D03*
X023774Y007561D03*
X023774Y007559D03*
X023774Y007557D03*
X023774Y007554D03*
X023774Y007552D03*
X023774Y007550D03*
X023723Y007463D03*
X023723Y007461D03*
X023723Y007459D03*
X023723Y007456D03*
X023723Y007454D03*
X023723Y007452D03*
X023690Y007414D03*
X023690Y007412D03*
X023690Y007409D03*
X023690Y007407D03*
X023690Y007405D03*
X023690Y007403D03*
X022983Y007452D03*
X022983Y007454D03*
X022983Y007456D03*
X022983Y007459D03*
X022983Y007461D03*
X022983Y007463D03*
X022965Y007485D03*
X022965Y007488D03*
X022965Y007490D03*
X022965Y007492D03*
X022965Y007494D03*
X022965Y007496D03*
X022931Y007568D03*
X022931Y007570D03*
X022931Y007572D03*
X022931Y007574D03*
X022931Y007577D03*
X022931Y007579D03*
X022931Y007581D03*
X022931Y007583D03*
X022931Y007586D03*
X022931Y007588D03*
X022931Y007590D03*
X022931Y007592D03*
X022931Y007595D03*
X022931Y007597D03*
X022931Y007599D03*
X022931Y007601D03*
X022931Y007603D03*
X022931Y007606D03*
X022931Y007608D03*
X022931Y007610D03*
X022931Y007612D03*
X022931Y007615D03*
X022931Y007617D03*
X022931Y007619D03*
D40*
X022519Y007706D03*
X022519Y007708D03*
X022519Y007711D03*
X022519Y007713D03*
X022519Y007715D03*
X022519Y007717D03*
X021810Y008056D03*
X021810Y008058D03*
X021810Y008061D03*
X021810Y008063D03*
X021810Y008065D03*
X021810Y008067D03*
X021810Y008070D03*
X020293Y008054D03*
X020293Y008052D03*
X020293Y008049D03*
X020293Y008047D03*
X020293Y008045D03*
X020293Y008043D03*
X020293Y007329D03*
X020293Y007327D03*
X020293Y007325D03*
X020293Y007323D03*
X020293Y007320D03*
X020293Y007318D03*
D41*
X020224Y007367D03*
X020224Y007369D03*
X020224Y007372D03*
X020224Y007374D03*
X020224Y007376D03*
X020224Y007378D03*
X020224Y007380D03*
X020224Y007383D03*
X020191Y007416D03*
X020191Y007418D03*
X020191Y007421D03*
X020191Y007423D03*
X020191Y007425D03*
X020191Y007427D03*
X020191Y007430D03*
X020191Y007432D03*
X020191Y007434D03*
X020175Y007450D03*
X020157Y007483D03*
X019669Y007735D03*
X019669Y007737D03*
X019687Y007753D03*
X019687Y007755D03*
X019687Y007757D03*
X019687Y007760D03*
X019687Y007762D03*
X019687Y007764D03*
X019687Y007766D03*
X019687Y007769D03*
X019687Y007771D03*
X019702Y007786D03*
X019720Y007804D03*
X019720Y007806D03*
X019720Y007809D03*
X019720Y007811D03*
X019720Y007813D03*
X019720Y007815D03*
X019720Y007818D03*
X019720Y007820D03*
X019720Y007822D03*
X019736Y007838D03*
X019769Y007871D03*
X019769Y007873D03*
X019769Y007876D03*
X019769Y007878D03*
X019769Y007880D03*
X019769Y007882D03*
X019769Y007884D03*
X019769Y007887D03*
X019769Y007889D03*
X019821Y007938D03*
X019821Y007940D03*
X019821Y007942D03*
X019821Y007945D03*
X019821Y007947D03*
X019821Y007949D03*
X019821Y007951D03*
X019821Y007954D03*
X019821Y007956D03*
X019854Y007989D03*
X019854Y007992D03*
X019854Y007994D03*
X019854Y007996D03*
X019854Y007998D03*
X019854Y008000D03*
X019854Y008003D03*
X019872Y008009D03*
X019872Y008012D03*
X019872Y008014D03*
X019872Y008016D03*
X019872Y008018D03*
X019872Y008020D03*
X019872Y008023D03*
X019888Y008038D03*
X019888Y008041D03*
X020157Y007905D03*
X020157Y007902D03*
X020157Y007900D03*
X020157Y007898D03*
X020157Y007896D03*
X020157Y007893D03*
X020157Y007891D03*
X020157Y007889D03*
X020157Y007887D03*
X020175Y007920D03*
X020175Y007922D03*
X020175Y007925D03*
X020175Y007927D03*
X020175Y007929D03*
X020175Y007931D03*
X020175Y007934D03*
X020175Y007936D03*
X020191Y007940D03*
X020191Y007942D03*
X020191Y007945D03*
X020191Y007947D03*
X020191Y007949D03*
X020191Y007951D03*
X020191Y007954D03*
X020191Y007956D03*
X020191Y007958D03*
X020191Y007960D03*
X020191Y007963D03*
X020191Y007965D03*
X020191Y007967D03*
X020191Y007969D03*
X020224Y007992D03*
X020224Y007994D03*
X020224Y007996D03*
X020224Y007998D03*
X020224Y008000D03*
X020224Y008003D03*
X020715Y008003D03*
X020715Y008000D03*
X020715Y007998D03*
X020715Y007996D03*
X020715Y007994D03*
X020715Y007992D03*
X020748Y007956D03*
X020748Y007954D03*
X020748Y007951D03*
X020748Y007949D03*
X020748Y007947D03*
X020748Y007945D03*
X020748Y007942D03*
X020748Y007940D03*
X020748Y007938D03*
X020782Y007871D03*
X021658Y007771D03*
X021658Y007769D03*
X021658Y007766D03*
X021658Y007764D03*
X021658Y007762D03*
X021658Y007760D03*
X021658Y007757D03*
X021658Y007755D03*
X021658Y007753D03*
X021658Y007751D03*
X021658Y007748D03*
X021658Y007746D03*
X021658Y007744D03*
X021658Y007742D03*
X021658Y007740D03*
X021658Y007737D03*
X021658Y007735D03*
X021658Y007733D03*
X021658Y007731D03*
X021658Y007728D03*
X021658Y007726D03*
X021658Y007724D03*
X021658Y007722D03*
X021658Y007719D03*
X021658Y007717D03*
X021658Y007715D03*
X021658Y007713D03*
X021658Y007711D03*
X021658Y007708D03*
X021658Y007706D03*
X021658Y007704D03*
X021658Y007702D03*
X021658Y007699D03*
X021658Y007697D03*
X021658Y007695D03*
X021658Y007693D03*
X021658Y007690D03*
X021658Y007688D03*
X021658Y007686D03*
X021658Y007684D03*
X021658Y007682D03*
X021658Y007679D03*
X021658Y007677D03*
X021658Y007675D03*
X021658Y007673D03*
X021658Y007670D03*
X021658Y007668D03*
X021658Y007666D03*
X021658Y007664D03*
X021658Y007661D03*
X021658Y007659D03*
X021658Y007657D03*
X021658Y007655D03*
X021658Y007653D03*
X021658Y007650D03*
X021658Y007648D03*
X021658Y007646D03*
X021658Y007644D03*
X021658Y007641D03*
X021658Y007639D03*
X021658Y007637D03*
X021658Y007635D03*
X021692Y007548D03*
X021692Y007546D03*
X021692Y007543D03*
X021692Y007541D03*
X021692Y007539D03*
X021692Y007537D03*
X021692Y007534D03*
X021692Y007532D03*
X021692Y007530D03*
X021692Y007528D03*
X021692Y007525D03*
X021692Y007523D03*
X021692Y007521D03*
X021692Y007519D03*
X021692Y007871D03*
X021692Y007873D03*
X021692Y007876D03*
X021692Y007878D03*
X021692Y007880D03*
X021692Y007882D03*
X021692Y007884D03*
X021776Y008009D03*
X021776Y008012D03*
X021776Y008014D03*
X021776Y008016D03*
X021776Y008018D03*
X021776Y008020D03*
X021794Y008025D03*
X021794Y008027D03*
X021794Y008029D03*
X021794Y008032D03*
X021794Y008034D03*
X021794Y008036D03*
X022216Y008431D03*
X022216Y008433D03*
X022216Y008435D03*
X022216Y008438D03*
X022216Y008440D03*
X022216Y008442D03*
X022216Y008444D03*
X022535Y007969D03*
X022535Y007967D03*
X022535Y007965D03*
X022535Y007963D03*
X022535Y007960D03*
X022535Y007958D03*
X022552Y007936D03*
X022552Y007934D03*
X022552Y007931D03*
X022552Y007929D03*
X022552Y007927D03*
X022552Y007925D03*
X022568Y007869D03*
X022568Y007867D03*
X022568Y007864D03*
X022568Y007862D03*
X022568Y007860D03*
X022568Y007858D03*
X022568Y007855D03*
X022568Y007853D03*
X022568Y007851D03*
X022568Y007849D03*
X022568Y007847D03*
X022568Y007844D03*
X022568Y007842D03*
X022568Y007840D03*
X022974Y007483D03*
X022974Y007481D03*
X022974Y007479D03*
X022974Y007476D03*
X022974Y007474D03*
X022974Y007472D03*
X022974Y007470D03*
X022974Y007467D03*
X022974Y007465D03*
X022989Y007450D03*
X022989Y007447D03*
X022989Y007445D03*
X022989Y007443D03*
X022989Y007441D03*
X022989Y007438D03*
X022989Y007436D03*
X023007Y007430D03*
X023007Y007427D03*
X023007Y007425D03*
X023007Y007423D03*
X023007Y007421D03*
X023007Y007418D03*
X023699Y007416D03*
X023716Y007432D03*
X023716Y007434D03*
X023716Y007436D03*
X023716Y007438D03*
X023716Y007441D03*
X023716Y007443D03*
X023716Y007445D03*
X023716Y007447D03*
X023716Y007450D03*
X023732Y007465D03*
X023732Y007467D03*
X019618Y007668D03*
X019584Y007635D03*
X019584Y007632D03*
X019584Y007630D03*
X019584Y007628D03*
X019584Y007626D03*
X019584Y007624D03*
X019584Y007621D03*
X019584Y007619D03*
X019584Y007617D03*
X019551Y007586D03*
X019551Y007583D03*
X019517Y007534D03*
X019466Y007467D03*
X019466Y007465D03*
X019433Y007416D03*
X019399Y007383D03*
X019399Y007380D03*
X019399Y007378D03*
X019399Y007376D03*
X019399Y007374D03*
X019399Y007372D03*
X019399Y007369D03*
X019399Y007367D03*
X019399Y007365D03*
X019366Y007331D03*
D42*
X019863Y008005D03*
X019863Y008007D03*
X020200Y007974D03*
X020200Y007971D03*
X020233Y007365D03*
X020739Y007331D03*
X021246Y008038D03*
X021246Y008041D03*
X021701Y007889D03*
X021701Y007887D03*
X021767Y008005D03*
X021767Y008007D03*
X021785Y008023D03*
X021701Y007517D03*
X022998Y007434D03*
X022998Y007432D03*
X023016Y007416D03*
D43*
X022527Y007719D03*
X022493Y007686D03*
X023606Y007331D03*
X020689Y008023D03*
D44*
X020773Y007918D03*
X020773Y007916D03*
X020773Y007913D03*
X020773Y007911D03*
X020773Y007909D03*
X020773Y007907D03*
X020773Y007905D03*
X020773Y007902D03*
X020773Y007900D03*
X020773Y007898D03*
X020773Y007896D03*
X020773Y007893D03*
X020773Y007891D03*
X020773Y007889D03*
X020773Y007887D03*
X020773Y007884D03*
X020773Y007882D03*
X020773Y007880D03*
X020773Y007878D03*
X020773Y007876D03*
X020773Y007873D03*
X021228Y008025D03*
X021228Y008027D03*
X021228Y008029D03*
X021228Y008032D03*
X021228Y008034D03*
X021228Y008036D03*
X021683Y007869D03*
X021683Y007867D03*
X021683Y007864D03*
X021683Y007862D03*
X021683Y007860D03*
X021683Y007858D03*
X022949Y007552D03*
X022949Y007550D03*
X022949Y007548D03*
X022949Y007546D03*
X022949Y007543D03*
X022949Y007541D03*
X022949Y007539D03*
X022949Y007537D03*
X022949Y007534D03*
X022949Y007532D03*
X022949Y007530D03*
X022949Y007528D03*
X022949Y007525D03*
X022949Y007523D03*
X022949Y007521D03*
X022949Y007519D03*
X023708Y007430D03*
X023708Y007427D03*
X023708Y007425D03*
X023708Y007423D03*
X023708Y007421D03*
X023708Y007418D03*
X023741Y007470D03*
X023741Y007472D03*
X023741Y007474D03*
X023741Y007476D03*
X023741Y007479D03*
X023741Y007481D03*
X023741Y007483D03*
X023741Y007485D03*
X023741Y007488D03*
X023741Y007490D03*
X023741Y007492D03*
X023741Y007494D03*
X023741Y007496D03*
X023757Y007503D03*
X023757Y007505D03*
X023757Y007508D03*
X023757Y007510D03*
X023757Y007512D03*
X023757Y007514D03*
X023757Y007517D03*
X023757Y007519D03*
X023757Y007521D03*
X023757Y007523D03*
X023757Y007525D03*
X023757Y007528D03*
X023757Y007530D03*
X023757Y007532D03*
X023757Y007534D03*
X020166Y007481D03*
X020166Y007479D03*
X020166Y007476D03*
X020166Y007474D03*
X020166Y007472D03*
X020166Y007470D03*
X020166Y007467D03*
X020166Y007465D03*
X020166Y007463D03*
X020166Y007461D03*
X020166Y007459D03*
X020166Y007456D03*
X020166Y007454D03*
X020166Y007452D03*
X020133Y007534D03*
X020133Y007537D03*
X020133Y007539D03*
X020133Y007541D03*
X020133Y007543D03*
X020133Y007546D03*
X020133Y007548D03*
X020133Y007550D03*
X020133Y007552D03*
X020133Y007554D03*
X020133Y007557D03*
X020133Y007559D03*
X020133Y007561D03*
X020133Y007563D03*
X020133Y007566D03*
X020133Y007568D03*
X020133Y007820D03*
X020133Y007822D03*
X020133Y007824D03*
X020133Y007826D03*
X020133Y007829D03*
X020133Y007831D03*
X020133Y007833D03*
X020133Y007835D03*
X020133Y007838D03*
X020133Y007840D03*
X020133Y007842D03*
X020133Y007844D03*
X020133Y007847D03*
X020133Y007849D03*
X020133Y007851D03*
X020166Y007907D03*
X020166Y007909D03*
X020166Y007911D03*
X020166Y007913D03*
X020166Y007916D03*
X020166Y007918D03*
X019830Y007958D03*
X019830Y007960D03*
X019830Y007963D03*
X019830Y007965D03*
X019830Y007967D03*
X019830Y007969D03*
X019711Y007802D03*
X019711Y007800D03*
X019711Y007797D03*
X019711Y007795D03*
X019711Y007793D03*
X019711Y007791D03*
X019711Y007789D03*
X019678Y007751D03*
X019678Y007748D03*
X019678Y007746D03*
X019678Y007744D03*
X019678Y007742D03*
X019678Y007740D03*
X019609Y007666D03*
X019609Y007664D03*
X019609Y007661D03*
X019609Y007659D03*
X019609Y007657D03*
X019609Y007655D03*
X019575Y007615D03*
X019575Y007612D03*
X019575Y007610D03*
X019575Y007608D03*
X019575Y007606D03*
X019575Y007603D03*
X019560Y007599D03*
X019560Y007597D03*
X019560Y007595D03*
X019560Y007592D03*
X019560Y007590D03*
X019560Y007588D03*
X019526Y007548D03*
X019526Y007546D03*
X019526Y007543D03*
X019526Y007541D03*
X019526Y007539D03*
X019526Y007537D03*
X019457Y007463D03*
X019457Y007461D03*
X019457Y007459D03*
X019457Y007456D03*
X019457Y007454D03*
X019457Y007452D03*
X019424Y007414D03*
X019424Y007412D03*
X019424Y007409D03*
X019424Y007407D03*
X019424Y007405D03*
X019424Y007403D03*
X019408Y007396D03*
X019408Y007394D03*
X019408Y007392D03*
X019408Y007389D03*
X019408Y007387D03*
X019408Y007385D03*
X019375Y007345D03*
X019375Y007343D03*
X019375Y007340D03*
X019375Y007338D03*
X019375Y007336D03*
X019375Y007334D03*
D45*
X019382Y007347D03*
X019382Y007349D03*
X019601Y007650D03*
X019601Y007653D03*
X019652Y007719D03*
X019804Y007920D03*
X019804Y007922D03*
X019837Y007971D03*
X019837Y007974D03*
X020141Y007855D03*
X020141Y007853D03*
X020765Y007920D03*
X020765Y007922D03*
X021220Y008023D03*
X021996Y007568D03*
X022096Y007365D03*
D46*
X022518Y007989D03*
X023057Y007365D03*
D47*
X022383Y007465D03*
X022383Y007467D03*
X022349Y007447D03*
X022349Y007445D03*
X022349Y007443D03*
X022349Y007441D03*
X022349Y007438D03*
X022349Y007436D03*
X022283Y008346D03*
X022283Y008348D03*
X022283Y008351D03*
X022283Y008353D03*
X022283Y008355D03*
X022283Y008357D03*
X022283Y008359D03*
X022283Y008411D03*
X020764Y007383D03*
X020764Y007380D03*
X020764Y007378D03*
X020764Y007376D03*
X020764Y007374D03*
X020764Y007372D03*
X020764Y007369D03*
X020764Y007367D03*
D48*
X020470Y008143D03*
X020470Y008145D03*
X020470Y008148D03*
X020470Y008150D03*
X020470Y008152D03*
X020470Y008154D03*
X020470Y008157D03*
X020470Y008159D03*
X022055Y008431D03*
X022055Y008433D03*
X022055Y008435D03*
X022055Y008438D03*
X022055Y008440D03*
X022055Y008442D03*
X022055Y008444D03*
X022222Y008446D03*
X022222Y008449D03*
X022222Y008451D03*
X022222Y008453D03*
X022222Y008455D03*
X022222Y008458D03*
X022222Y008460D03*
X022222Y008462D03*
X022307Y008290D03*
X022307Y008288D03*
X022307Y008286D03*
X022307Y008284D03*
X022307Y008281D03*
X022307Y008279D03*
X022022Y007430D03*
X022022Y007427D03*
X022022Y007425D03*
X022022Y007423D03*
X022022Y007421D03*
X022022Y007418D03*
X022071Y007380D03*
X022071Y007378D03*
X022071Y007376D03*
X022071Y007374D03*
X022071Y007372D03*
X022071Y007369D03*
X022071Y007367D03*
D49*
X022054Y007383D03*
D50*
X022021Y007601D03*
X021733Y007467D03*
X021733Y007465D03*
X021717Y007499D03*
X021717Y007501D03*
X021684Y007550D03*
X021684Y007552D03*
X021717Y007938D03*
X021751Y007971D03*
X021751Y007974D03*
X021126Y007905D03*
X020723Y007989D03*
X020216Y007989D03*
X022542Y007956D03*
X022545Y007938D03*
X023673Y007383D03*
D51*
X023749Y007499D03*
X023749Y007501D03*
X019568Y007601D03*
X019416Y007401D03*
X019416Y007398D03*
D52*
X022248Y007432D03*
X022248Y007434D03*
D53*
X022357Y007450D03*
D54*
X022374Y007452D03*
X022374Y007454D03*
X022374Y007456D03*
X022374Y007459D03*
X022374Y007461D03*
X022374Y007463D03*
X022392Y007470D03*
X022392Y007472D03*
X022392Y007474D03*
X022392Y007476D03*
X022392Y007479D03*
X022392Y007481D03*
X022392Y007483D03*
X022291Y008362D03*
X022291Y008364D03*
X022291Y008366D03*
X022291Y008368D03*
X022291Y008371D03*
X022291Y008373D03*
X022291Y008375D03*
X022291Y008377D03*
X022291Y008380D03*
X022291Y008382D03*
X022291Y008384D03*
X022291Y008386D03*
X022291Y008388D03*
X022291Y008391D03*
X022291Y008393D03*
X022291Y008395D03*
X022291Y008397D03*
X022291Y008400D03*
X022291Y008402D03*
X022291Y008404D03*
X022291Y008406D03*
X022291Y008409D03*
X022274Y008413D03*
X022274Y008415D03*
X022274Y008417D03*
X022274Y008420D03*
X022274Y008422D03*
X022274Y008424D03*
X022222Y008464D03*
X022222Y008466D03*
X022222Y008469D03*
X022222Y008471D03*
X022222Y008473D03*
X022222Y008475D03*
X022222Y008478D03*
D55*
X022509Y008192D03*
X022509Y008190D03*
X022223Y007586D03*
X022223Y007583D03*
D56*
X022080Y007637D03*
X022080Y007639D03*
X022080Y007641D03*
X022080Y007644D03*
X022080Y007646D03*
X022080Y007648D03*
X022334Y007740D03*
X022334Y007742D03*
X022334Y007744D03*
X022334Y007746D03*
X022334Y007748D03*
X022334Y007751D03*
X022334Y007753D03*
X022519Y008194D03*
X022519Y008197D03*
X022519Y008199D03*
X022519Y008201D03*
X022519Y008203D03*
X022519Y008206D03*
X022401Y008549D03*
X022401Y008551D03*
X022401Y008553D03*
X022401Y008556D03*
X022401Y008558D03*
X022401Y008560D03*
X022401Y008562D03*
X020612Y008070D03*
X020612Y008067D03*
X020612Y008065D03*
X020612Y008063D03*
X020612Y008061D03*
X020612Y008058D03*
D57*
X022131Y007666D03*
X022131Y007664D03*
X022131Y007661D03*
X022131Y007659D03*
X022131Y007657D03*
X022131Y007655D03*
X022519Y008259D03*
X022519Y008261D03*
X022519Y008264D03*
X022519Y008266D03*
X022519Y008268D03*
X022519Y008270D03*
X022519Y008272D03*
X022401Y008531D03*
X022401Y008533D03*
X022401Y008536D03*
X022401Y008538D03*
X022401Y008540D03*
X022401Y008542D03*
X022401Y008545D03*
X022401Y008547D03*
D58*
X022172Y008277D03*
X022172Y008275D03*
X022157Y007668D03*
D59*
X022468Y007668D03*
D60*
X022249Y007719D03*
X022198Y007699D03*
X022198Y007697D03*
X022198Y007695D03*
X022198Y007693D03*
X022198Y007690D03*
X022198Y007688D03*
X022164Y007684D03*
X022164Y007682D03*
X022164Y007679D03*
X022164Y007677D03*
X022164Y007675D03*
X022164Y007673D03*
X022164Y007670D03*
X022131Y008228D03*
X022131Y008230D03*
X022131Y008232D03*
X022131Y008235D03*
X022131Y008237D03*
X022131Y008239D03*
X022131Y008241D03*
X022501Y008380D03*
X022501Y008382D03*
X022501Y008384D03*
X022501Y008386D03*
X022501Y008388D03*
X022501Y008391D03*
X021388Y008090D03*
D61*
X022181Y007686D03*
X022215Y007702D03*
X022215Y007704D03*
X022382Y008023D03*
X022484Y008426D03*
X022484Y008429D03*
D62*
X020453Y007719D03*
D63*
X020454Y007722D03*
X020454Y007724D03*
X020454Y007726D03*
X020454Y007728D03*
X020454Y007731D03*
X020454Y007733D03*
X020454Y007735D03*
X020454Y007737D03*
X020454Y007740D03*
X020454Y007742D03*
X020454Y007744D03*
X020454Y007746D03*
X020454Y007748D03*
X020454Y007751D03*
X020454Y007753D03*
X020454Y007755D03*
X020454Y007757D03*
X020454Y007760D03*
X020454Y007762D03*
X020454Y007764D03*
X020454Y007766D03*
X020454Y007769D03*
X020454Y007771D03*
D64*
X022299Y007737D03*
X022299Y007735D03*
D65*
X022366Y007769D03*
X022366Y007771D03*
X022366Y007971D03*
X022366Y007974D03*
X021153Y007989D03*
D66*
X020461Y007784D03*
X020461Y007782D03*
X020461Y007780D03*
X020461Y007777D03*
X020461Y007775D03*
X020461Y007773D03*
D67*
X020462Y007786D03*
D68*
X020183Y007938D03*
X020707Y008005D03*
X020707Y008007D03*
X022527Y007974D03*
X022527Y007971D03*
X022560Y007922D03*
X022560Y007920D03*
D69*
X021734Y007956D03*
D70*
X020241Y008005D03*
X020241Y008007D03*
D71*
X020470Y008110D03*
X020470Y008112D03*
X020470Y008114D03*
X020470Y008116D03*
X020470Y008119D03*
X020470Y008121D03*
X020470Y008123D03*
X020470Y008125D03*
X022122Y008210D03*
X022122Y008212D03*
X022122Y008215D03*
X022122Y008217D03*
X022122Y008219D03*
X022122Y008221D03*
X022122Y008223D03*
X022122Y008226D03*
X022374Y008036D03*
X022374Y008034D03*
X022374Y008032D03*
X022374Y008029D03*
X022374Y008027D03*
X022374Y008025D03*
X022510Y008275D03*
X022510Y008277D03*
X022510Y008279D03*
X022510Y008281D03*
X022510Y008284D03*
X022510Y008286D03*
X022510Y008288D03*
X022510Y008290D03*
X022510Y008328D03*
X022510Y008330D03*
X022510Y008333D03*
X022510Y008335D03*
X022510Y008337D03*
X022510Y008339D03*
X022510Y008342D03*
X022510Y008344D03*
X022510Y008346D03*
X022510Y008348D03*
X022510Y008351D03*
X022510Y008353D03*
X022510Y008355D03*
X022510Y008357D03*
X022510Y008359D03*
X022510Y008362D03*
X022510Y008364D03*
X022510Y008366D03*
X022510Y008368D03*
X022510Y008371D03*
X022510Y008373D03*
X022510Y008375D03*
X022510Y008377D03*
X022492Y008393D03*
X022492Y008395D03*
X022492Y008397D03*
X022492Y008400D03*
X022492Y008402D03*
X022492Y008404D03*
X022492Y008406D03*
X022492Y008409D03*
X022492Y008411D03*
X022492Y008413D03*
X022492Y008415D03*
X022492Y008417D03*
X022492Y008420D03*
X022492Y008422D03*
X022492Y008424D03*
X022477Y008431D03*
X022477Y008433D03*
X022477Y008435D03*
X022477Y008438D03*
X022477Y008440D03*
X022477Y008442D03*
X022459Y008446D03*
X022459Y008449D03*
X022459Y008451D03*
X022459Y008453D03*
X022459Y008455D03*
X022459Y008458D03*
X022443Y008480D03*
X022443Y008482D03*
X022443Y008484D03*
X022443Y008487D03*
X022443Y008489D03*
X022443Y008491D03*
X022425Y008498D03*
X022425Y008500D03*
X022425Y008502D03*
X022425Y008504D03*
X022425Y008507D03*
X022425Y008509D03*
D72*
X022409Y008511D03*
X022493Y008310D03*
X022493Y008308D03*
X022357Y008041D03*
X022357Y008038D03*
X022105Y008208D03*
D73*
X022316Y008070D03*
X022316Y008067D03*
X022316Y008065D03*
X022316Y008063D03*
X022316Y008061D03*
X022316Y008058D03*
X022349Y008054D03*
X022349Y008052D03*
X022349Y008049D03*
X022349Y008047D03*
X022349Y008045D03*
X022349Y008043D03*
X022501Y008313D03*
X022501Y008315D03*
X022501Y008317D03*
X022501Y008319D03*
X022501Y008322D03*
X022501Y008324D03*
X022501Y008326D03*
X022468Y008444D03*
X022434Y008493D03*
X022434Y008495D03*
X022401Y008513D03*
X022401Y008516D03*
X022401Y008518D03*
X022401Y008520D03*
X022401Y008522D03*
X022401Y008524D03*
X022401Y008527D03*
X022401Y008529D03*
D74*
X022333Y008056D03*
D75*
X020477Y008072D03*
X020477Y008074D03*
D76*
X021372Y008074D03*
X021372Y008072D03*
X022148Y008259D03*
D77*
X022283Y008074D03*
X022283Y008072D03*
D78*
X020478Y008076D03*
X020478Y008078D03*
X020478Y008081D03*
X020478Y008083D03*
X020478Y008085D03*
X020478Y008087D03*
X020478Y008090D03*
D79*
X022097Y008177D03*
X022097Y008179D03*
X022097Y008181D03*
X022097Y008183D03*
X022097Y008186D03*
X022097Y008188D03*
X022097Y008190D03*
X022097Y008192D03*
X022265Y008087D03*
X022265Y008085D03*
X022265Y008083D03*
X022265Y008081D03*
X022265Y008078D03*
X022265Y008076D03*
D80*
X022105Y008090D03*
D81*
X020470Y008092D03*
X020470Y008094D03*
X020470Y008096D03*
X020470Y008099D03*
X020470Y008101D03*
X020470Y008103D03*
X020470Y008105D03*
X020470Y008107D03*
D82*
X022097Y008107D03*
X022097Y008105D03*
X022097Y008103D03*
X022097Y008101D03*
X022097Y008099D03*
X022097Y008096D03*
X022097Y008094D03*
X022097Y008092D03*
D83*
X022080Y008110D03*
X022080Y008112D03*
X022080Y008114D03*
X022080Y008116D03*
X022080Y008119D03*
X022080Y008121D03*
X022080Y008123D03*
X022080Y008125D03*
D84*
X022097Y008128D03*
X022097Y008130D03*
X022097Y008132D03*
X022097Y008134D03*
X022097Y008136D03*
X022097Y008139D03*
X022097Y008141D03*
D85*
X022097Y008161D03*
X022097Y008163D03*
X022097Y008165D03*
X022097Y008168D03*
X022097Y008170D03*
X022097Y008172D03*
X022097Y008174D03*
D86*
X022148Y008342D03*
X022148Y008344D03*
D87*
X022139Y008426D03*
X022139Y008429D03*
D88*
X022450Y008460D03*
X022450Y008462D03*
X022450Y008464D03*
X022450Y008466D03*
X022450Y008469D03*
X022450Y008471D03*
X022450Y008473D03*
X022450Y008475D03*
X022450Y008478D03*
D89*
X022208Y007035D02*
X022208Y006745D01*
X022160Y006745D02*
X022256Y006745D01*
X022356Y006793D02*
X022356Y006890D01*
X022404Y006938D01*
X022501Y006938D01*
X022549Y006890D01*
X022549Y006842D01*
X022356Y006842D01*
X022356Y006793D02*
X022404Y006745D01*
X022501Y006745D01*
X022208Y007035D02*
X022160Y007035D01*
X022058Y006938D02*
X022058Y006745D01*
X021913Y006745D01*
X021865Y006793D01*
X021865Y006938D01*
X021764Y006938D02*
X021619Y006938D01*
X021570Y006890D01*
X021570Y006793D01*
X021619Y006745D01*
X021764Y006745D01*
X021764Y007035D01*
X021469Y006890D02*
X021421Y006938D01*
X021324Y006938D01*
X021276Y006890D01*
X021276Y006793D01*
X021324Y006745D01*
X021421Y006745D01*
X021469Y006793D01*
X021469Y006890D01*
X021174Y007035D02*
X021174Y006745D01*
X020981Y006745D02*
X020981Y007035D01*
X021078Y006938D01*
X021174Y007035D01*
X020585Y006890D02*
X020585Y006842D01*
X020392Y006842D01*
X020392Y006890D02*
X020440Y006938D01*
X020537Y006938D01*
X020585Y006890D01*
X020537Y006745D02*
X020440Y006745D01*
X020392Y006793D01*
X020392Y006890D01*
X020290Y006938D02*
X020194Y006745D01*
X020097Y006938D01*
X019996Y006890D02*
X019947Y006938D01*
X019851Y006938D01*
X019802Y006890D01*
X019802Y006793D01*
X019851Y006745D01*
X019947Y006745D01*
X019996Y006793D01*
X019996Y006890D01*
X019703Y006745D02*
X019606Y006745D01*
X019654Y006745D02*
X019654Y007035D01*
X019606Y007035D01*
X019505Y006987D02*
X019456Y007035D01*
X019360Y007035D01*
X019311Y006987D01*
X019311Y006793D01*
X019360Y006745D01*
X019456Y006745D01*
X019505Y006793D01*
X019505Y006890D01*
X019408Y006890D01*
X019311Y006555D02*
X019311Y006362D01*
X019408Y006265D01*
X019505Y006362D01*
X019505Y006555D01*
X019606Y006458D02*
X019703Y006555D01*
X019703Y006265D01*
X019799Y006265D02*
X019606Y006265D01*
X019901Y006265D02*
X019949Y006265D01*
X019949Y006313D01*
X019901Y006313D01*
X019901Y006265D01*
X020048Y006265D02*
X020241Y006458D01*
X020241Y006507D01*
X020193Y006555D01*
X020096Y006555D01*
X020048Y006507D01*
X020048Y006265D02*
X020241Y006265D01*
D90*
X014609Y008083D02*
X014611Y008092D01*
X014616Y008099D01*
X014624Y008104D01*
X014633Y008105D01*
X014642Y008102D01*
X014649Y008096D01*
X014653Y008088D01*
X014653Y008078D01*
X014649Y008070D01*
X014642Y008064D01*
X014633Y008061D01*
X014624Y008062D01*
X014616Y008067D01*
X014611Y008074D01*
X014609Y008083D01*
X012026Y010470D02*
X012026Y011270D01*
X005601Y011221D02*
X005050Y011221D01*
X005050Y012284D01*
X005601Y012284D01*
X005601Y011221D01*
X004956Y009729D02*
X004956Y008929D01*
X003205Y008440D02*
X003065Y008440D01*
X002975Y008840D02*
X002975Y008040D01*
X002285Y008040D01*
X001485Y008040D02*
X000795Y008040D01*
X000795Y008840D01*
X001485Y008840D01*
X000798Y008998D02*
X000798Y012542D01*
X002852Y012542D01*
X002852Y008998D01*
X000798Y008998D01*
X000835Y007980D02*
X000835Y007840D01*
X000905Y007910D02*
X000765Y007910D01*
X002285Y008840D02*
X002975Y008840D01*
X001576Y006520D02*
X001576Y005720D01*
X001626Y004560D02*
X001916Y004560D01*
X002536Y004130D02*
X002536Y003910D01*
X002536Y002570D02*
X002536Y002330D01*
X001916Y001990D02*
X001596Y001990D01*
D91*
X005536Y001335D02*
X007076Y001335D01*
X007076Y004745D01*
X005536Y004745D01*
X005536Y001335D01*
X007255Y001540D02*
X007257Y001554D01*
X007262Y001566D01*
X007271Y001577D01*
X007283Y001585D01*
X007296Y001590D01*
X007309Y001591D01*
X007323Y001588D01*
X007335Y001582D01*
X007346Y001572D01*
X007353Y001560D01*
X007357Y001547D01*
X007357Y001533D01*
X007353Y001520D01*
X007346Y001508D01*
X007335Y001498D01*
X007323Y001492D01*
X007309Y001489D01*
X007296Y001490D01*
X007283Y001495D01*
X007271Y001503D01*
X007262Y001514D01*
X007257Y001526D01*
X007255Y001540D01*
X002711Y005648D02*
X002120Y005648D01*
X002711Y005648D02*
X002711Y006592D01*
X002120Y006592D01*
X001333Y006592D02*
X000899Y006592D01*
X000742Y006435D01*
X000742Y005805D01*
X000899Y005648D01*
X001333Y005648D01*
X003476Y006130D02*
X006056Y006130D01*
X006056Y007430D01*
X003476Y007430D01*
X003476Y006130D01*
X004279Y008857D02*
X004713Y008857D01*
X004279Y008857D02*
X004122Y009014D01*
X004122Y009644D01*
X004279Y009802D01*
X004713Y009802D01*
X005500Y009802D02*
X006091Y009802D01*
X006091Y008857D01*
X005500Y008857D01*
X010892Y010398D02*
X010892Y011342D01*
X011483Y011342D01*
X012270Y011342D02*
X012703Y011342D01*
X012861Y011185D01*
X012861Y010555D01*
X012703Y010398D01*
X012270Y010398D01*
X011483Y010398D02*
X010892Y010398D01*
X011153Y013459D02*
X010899Y013551D01*
X012951Y019189D01*
X014605Y018587D01*
X018345Y017226D02*
X018589Y017137D01*
X016537Y011499D01*
X016302Y011585D01*
X020102Y012393D02*
X020102Y009047D01*
X022071Y009047D01*
X022071Y012393D01*
X020102Y012393D01*
X020298Y012120D02*
X020300Y012138D01*
X020306Y012156D01*
X020315Y012172D01*
X020327Y012185D01*
X020342Y012196D01*
X020359Y012204D01*
X020377Y012208D01*
X020395Y012208D01*
X020413Y012204D01*
X020430Y012196D01*
X020445Y012185D01*
X020457Y012172D01*
X020466Y012156D01*
X020472Y012138D01*
X020474Y012120D01*
X020472Y012102D01*
X020466Y012084D01*
X020457Y012068D01*
X020445Y012055D01*
X020430Y012044D01*
X020413Y012036D01*
X020395Y012032D01*
X020377Y012032D01*
X020359Y012036D01*
X020342Y012044D01*
X020327Y012055D01*
X020315Y012068D01*
X020306Y012084D01*
X020300Y012102D01*
X020298Y012120D01*
D92*
X016108Y008190D02*
X014533Y008190D01*
X014533Y006615D01*
X016108Y006615D01*
X016108Y008190D01*
D93*
X016029Y007895D03*
X016029Y007698D03*
X016029Y007501D03*
X016029Y007304D03*
X016029Y007107D03*
X016029Y006910D03*
X014612Y006910D03*
X014612Y007107D03*
X014612Y007304D03*
X014612Y007501D03*
X014612Y007698D03*
X014612Y007895D03*
D94*
X014829Y008111D03*
X015025Y008111D03*
X015222Y008111D03*
X015419Y008111D03*
X015616Y008111D03*
X015813Y008111D03*
X015813Y006694D03*
X015616Y006694D03*
X015419Y006694D03*
X015222Y006694D03*
X015025Y006694D03*
X014829Y006694D03*
D95*
X012519Y005563D02*
X012519Y005463D01*
X012519Y005563D02*
X012419Y005563D01*
X012019Y005573D02*
X011919Y005573D01*
X011919Y005473D01*
X011919Y005073D02*
X011919Y004973D01*
X012019Y004973D01*
X012036Y004702D02*
X011936Y004702D01*
X011936Y004602D01*
X012436Y004692D02*
X012536Y004692D01*
X012536Y004592D01*
X012519Y004973D02*
X012419Y004973D01*
X012519Y004973D02*
X012519Y005073D01*
X012536Y004202D02*
X012536Y004102D01*
X012436Y004102D01*
X012533Y004010D02*
X012633Y004010D01*
X012633Y003910D01*
X012633Y003520D02*
X012633Y003420D01*
X012533Y003420D01*
X012682Y003359D02*
X012782Y003359D01*
X012782Y003259D01*
X012282Y003369D02*
X012182Y003369D01*
X012182Y003269D01*
X012133Y003420D02*
X012033Y003420D01*
X012033Y003520D01*
X012033Y003920D02*
X012033Y004020D01*
X012133Y004020D01*
X012036Y004102D02*
X011936Y004102D01*
X011936Y004202D01*
X012182Y002869D02*
X012182Y002769D01*
X012282Y002769D01*
X012359Y002693D02*
X012359Y002593D01*
X012359Y002693D02*
X012459Y002693D01*
X012682Y002769D02*
X012782Y002769D01*
X012782Y002869D01*
X012859Y002683D02*
X012959Y002683D01*
X012959Y002583D01*
X012959Y002193D02*
X012959Y002093D01*
X012859Y002093D01*
X012459Y002093D02*
X012359Y002093D01*
X012359Y002193D01*
X024367Y010673D02*
X024412Y010671D01*
X024458Y010666D01*
X024502Y010658D01*
X024546Y010646D01*
X024589Y010630D01*
X024631Y010612D01*
X024671Y010590D01*
X024709Y010566D01*
X024745Y010539D01*
X024780Y010509D01*
X024811Y010476D01*
X024841Y010441D01*
X024367Y009473D02*
X024320Y009475D01*
X024272Y009481D01*
X024226Y009490D01*
X024180Y009503D01*
X024136Y009519D01*
X024092Y009540D01*
X024051Y009563D01*
X024012Y009589D01*
X023975Y009619D01*
X023940Y009652D01*
X023908Y009687D01*
X023879Y009724D01*
X024367Y009473D02*
X024413Y009475D01*
X024459Y009480D01*
X024505Y009489D01*
X024550Y009501D01*
X024593Y009517D01*
X024635Y009536D01*
X024676Y009559D01*
X024715Y009584D01*
X024751Y009612D01*
X024786Y009643D01*
X024818Y009677D01*
X024847Y009713D01*
X024367Y010673D02*
X024322Y010671D01*
X024276Y010666D01*
X024232Y010658D01*
X024188Y010646D01*
X024145Y010630D01*
X024103Y010612D01*
X024063Y010590D01*
X024025Y010566D01*
X023989Y010539D01*
X023954Y010509D01*
X023923Y010476D01*
X023893Y010441D01*
X026076Y009190D02*
X026123Y009188D01*
X026171Y009182D01*
X026217Y009173D01*
X026263Y009160D01*
X026307Y009144D01*
X026351Y009123D01*
X026392Y009100D01*
X026431Y009074D01*
X026468Y009044D01*
X026503Y009011D01*
X026535Y008976D01*
X026564Y008939D01*
X026076Y007990D02*
X026031Y007992D01*
X025985Y007997D01*
X025941Y008005D01*
X025897Y008017D01*
X025854Y008033D01*
X025812Y008051D01*
X025772Y008073D01*
X025734Y008097D01*
X025698Y008124D01*
X025663Y008154D01*
X025632Y008187D01*
X025602Y008222D01*
X026076Y007990D02*
X026121Y007992D01*
X026167Y007997D01*
X026211Y008005D01*
X026255Y008017D01*
X026298Y008033D01*
X026340Y008051D01*
X026380Y008073D01*
X026418Y008097D01*
X026454Y008124D01*
X026489Y008154D01*
X026520Y008187D01*
X026550Y008222D01*
X026076Y009190D02*
X026030Y009188D01*
X025984Y009183D01*
X025938Y009174D01*
X025893Y009162D01*
X025850Y009146D01*
X025808Y009127D01*
X025767Y009104D01*
X025728Y009079D01*
X025692Y009051D01*
X025657Y009020D01*
X025625Y008986D01*
X025596Y008950D01*
X008064Y012169D02*
X008064Y012269D01*
X008064Y012169D02*
X007964Y012169D01*
X007564Y012169D02*
X007464Y012169D01*
X007464Y012269D01*
X007198Y012259D02*
X007198Y012159D01*
X007098Y012159D01*
X006698Y012159D02*
X006598Y012159D01*
X006598Y012259D01*
X006598Y012659D02*
X006598Y012759D01*
X006698Y012759D01*
X007098Y012759D02*
X007198Y012759D01*
X007198Y012659D01*
X007464Y012669D02*
X007464Y012769D01*
X007564Y012769D01*
X007964Y012769D02*
X008064Y012769D01*
X008064Y012669D01*
D96*
X005336Y010340D02*
X005336Y010315D01*
X014111Y004214D02*
X014135Y004214D01*
X014974Y004210D02*
X014998Y004210D01*
X018005Y007215D02*
X018029Y007215D01*
X018022Y008444D02*
X017998Y008444D01*
X016372Y009496D02*
X016372Y009520D01*
X008242Y003141D02*
X008218Y003141D01*
X003975Y002132D02*
X003951Y002132D01*
X025687Y006327D02*
X025687Y006351D01*
M02*
