%
M48
M72
T01C0.0150
T02C0.0240
T03C0.0320
T04C0.0354
T05C0.0360
%
T01
X2204Y6260
X2204Y6960
X12810Y11289
X14374Y10235
X15315Y10738
X15979Y10230
X18119Y8788
X18818Y8802
X19415Y8738
X19915Y8738
X20715Y8738
X21015Y7138
X20634Y6411
X19742Y6106
X18869Y4468
X16915Y3738
X14707Y3404
X21242Y4468
X24084Y7036
X22726Y10066
X21721Y10616
X23109Y11058
X21415Y12838
X18518Y12798
X18508Y13810
X16679Y16094
X17825Y17673
X17553Y7899
T02
X20756Y13537
T03
X24316Y9561
X25316Y9561
X26029Y8077
X27029Y8077
T04
X993Y712
X3377Y728
X5464Y712
X8474Y712
X11860Y912
X14964Y2006
X17327Y2794
X21927Y4797
X24737Y3831
X27455Y3690
X26668Y1722
X28508Y6053
X27677Y7637
X25943Y9104
X24443Y10851
X22630Y12504
X21590Y13603
X20476Y14998
X19495Y15979
X12922Y18389
X15752Y20116
X12124Y16341
X8194Y12553
X6104Y12520
X8474Y10948
X8474Y9267
X11152Y8271
X11384Y11455
X2978Y12458
X1026Y12406
X1026Y11606
X1178Y10391
X1178Y9407
X1178Y8423
X2477Y8423
X2477Y9407
X2477Y10391
X993Y7011
X993Y5043
X8374Y5067
X11321Y4961
T05
X13185Y4778
X13795Y4188
X13205Y3588
X13815Y2988
X13205Y2398
X7270Y6010
X7880Y6607
X7280Y7205
X7890Y7802
X7290Y8410
X7612Y11777
X6677Y11786
M30
