G75*
%MOIN*%
%OFA0B0*%
%FSLAX24Y24*%
%IPPOS*%
%LPD*%
%AMOC8*
5,1,8,0,0,1.08239X$1,22.5*
%
%ADD10C,0.0160*%
%ADD11C,0.0000*%
%ADD12C,0.0030*%
%ADD13C,0.0120*%
%ADD14C,0.0100*%
%ADD15C,0.0010*%
%ADD16C,0.0050*%
%ADD17C,0.0020*%
%ADD18C,0.0080*%
%ADD19C,0.0039*%
%ADD20R,0.0157X0.0098*%
%ADD21R,0.0098X0.0157*%
%ADD22C,0.0060*%
%ADD23C,0.0220*%
D10*
X000600Y000318D02*
X008867Y000318D01*
X008867Y012917D01*
X000600Y012917D01*
X000600Y000318D01*
X011224Y000707D02*
X011250Y000655D01*
X011280Y000605D01*
X011312Y000556D01*
X011348Y000510D01*
X011387Y000466D01*
X011428Y000425D01*
X011472Y000387D01*
X011518Y000351D01*
X011566Y000319D01*
X011616Y000289D01*
X011669Y000263D01*
X011722Y000241D01*
X011777Y000221D01*
X011833Y000206D01*
X011890Y000194D01*
X011948Y000186D01*
X012006Y000181D01*
X012065Y000180D01*
X012123Y000183D01*
X012181Y000190D01*
X012238Y000200D01*
X012295Y000214D01*
X012350Y000232D01*
X012404Y000253D01*
X012457Y000278D01*
X012504Y000294D01*
X021579Y004152D01*
X023826Y003775D02*
X026378Y000829D01*
X026378Y000828D02*
X026405Y000801D01*
X026436Y000777D01*
X026468Y000756D01*
X026502Y000738D01*
X026538Y000723D01*
X026575Y000712D01*
X026613Y000704D01*
X026652Y000701D01*
X026691Y000700D01*
X026729Y000704D01*
X026767Y000711D01*
X026805Y000722D01*
X026841Y000736D01*
X026875Y000754D01*
X026908Y000775D01*
X026938Y000799D01*
X026966Y000826D01*
X026991Y000855D01*
X027014Y000887D01*
X027033Y000921D01*
X027031Y000924D02*
X029154Y005992D01*
X029154Y005991D02*
X029179Y006055D01*
X029200Y006120D01*
X029217Y006186D01*
X029230Y006253D01*
X029240Y006321D01*
X029245Y006389D01*
X029247Y006458D01*
X029245Y006526D01*
X029239Y006594D01*
X029228Y006662D01*
X029215Y006728D01*
X029197Y006795D01*
X029175Y006859D01*
X029150Y006923D01*
X029121Y006985D01*
X029089Y007045D01*
X029053Y007104D01*
X029014Y007160D01*
X028972Y007214D01*
X028927Y007265D01*
X028879Y007314D01*
X028678Y007507D01*
X023826Y003775D02*
X023764Y003835D01*
X023698Y003892D01*
X023631Y003947D01*
X023561Y003998D01*
X023488Y004046D01*
X023414Y004091D01*
X023338Y004132D01*
X023260Y004170D01*
X023180Y004205D01*
X023099Y004236D01*
X023017Y004264D01*
X022934Y004288D01*
X022849Y004308D01*
X022764Y004324D01*
X022678Y004337D01*
X022592Y004346D01*
X022505Y004351D01*
X022418Y004352D01*
X022332Y004349D01*
X022245Y004343D01*
X022159Y004333D01*
X022073Y004319D01*
X021988Y004301D01*
X021904Y004279D01*
X021821Y004254D01*
X021739Y004225D01*
X021659Y004193D01*
X021580Y004157D01*
X011225Y000707D02*
X011070Y001619D01*
X010937Y002534D01*
X010827Y003452D01*
X010738Y004373D01*
X010672Y005296D01*
X010627Y006220D01*
X010606Y007144D01*
X010606Y008069D01*
X010629Y008994D01*
X010674Y009918D01*
X010741Y010840D01*
X010830Y011761D01*
X010942Y012679D01*
X011075Y013595D01*
X011231Y014506D01*
X011408Y015414D01*
X011608Y016317D01*
X011829Y017216D01*
X012071Y018108D01*
X012971Y019147D02*
X015299Y020609D01*
X015280Y020609D02*
X015346Y020640D01*
X015413Y020668D01*
X015482Y020692D01*
X015551Y020712D01*
X015622Y020729D01*
X015694Y020742D01*
X015766Y020751D01*
X015839Y020756D01*
X015912Y020757D01*
X015984Y020754D01*
X016057Y020747D01*
X016129Y020737D01*
X016200Y020722D01*
X016271Y020704D01*
X016340Y020682D01*
X016408Y020656D01*
X016475Y020627D01*
X016540Y020594D01*
X016603Y020558D01*
X016664Y020518D01*
X016723Y020475D01*
X016779Y020429D01*
X016833Y020381D01*
X016884Y020329D01*
X016932Y020274D01*
X012971Y019147D02*
X012896Y019103D01*
X012823Y019055D01*
X012751Y019004D01*
X012682Y018950D01*
X012615Y018893D01*
X012551Y018834D01*
X012490Y018771D01*
X012431Y018706D01*
X012375Y018639D01*
X012322Y018569D01*
X012272Y018497D01*
X012225Y018423D01*
X012181Y018347D01*
X012141Y018269D01*
X012104Y018190D01*
X012071Y018109D01*
X016931Y020274D02*
X017856Y018991D01*
X018812Y017731D01*
X019797Y016493D01*
X020811Y015280D01*
X021854Y014091D01*
X022925Y012927D01*
X024023Y011789D01*
X025148Y010677D01*
X026299Y009593D01*
X027476Y008536D01*
X028677Y007507D01*
D11*
X027500Y007637D02*
X027502Y007663D01*
X027508Y007689D01*
X027518Y007714D01*
X027531Y007737D01*
X027547Y007757D01*
X027567Y007775D01*
X027589Y007790D01*
X027612Y007802D01*
X027638Y007810D01*
X027664Y007814D01*
X027690Y007814D01*
X027716Y007810D01*
X027742Y007802D01*
X027766Y007790D01*
X027787Y007775D01*
X027807Y007757D01*
X027823Y007737D01*
X027836Y007714D01*
X027846Y007689D01*
X027852Y007663D01*
X027854Y007637D01*
X027852Y007611D01*
X027846Y007585D01*
X027836Y007560D01*
X027823Y007537D01*
X027807Y007517D01*
X027787Y007499D01*
X027765Y007484D01*
X027742Y007472D01*
X027716Y007464D01*
X027690Y007460D01*
X027664Y007460D01*
X027638Y007464D01*
X027612Y007472D01*
X027588Y007484D01*
X027567Y007499D01*
X027547Y007517D01*
X027531Y007537D01*
X027518Y007560D01*
X027508Y007585D01*
X027502Y007611D01*
X027500Y007637D01*
X025766Y009104D02*
X025768Y009130D01*
X025774Y009156D01*
X025784Y009181D01*
X025797Y009204D01*
X025813Y009224D01*
X025833Y009242D01*
X025855Y009257D01*
X025878Y009269D01*
X025904Y009277D01*
X025930Y009281D01*
X025956Y009281D01*
X025982Y009277D01*
X026008Y009269D01*
X026032Y009257D01*
X026053Y009242D01*
X026073Y009224D01*
X026089Y009204D01*
X026102Y009181D01*
X026112Y009156D01*
X026118Y009130D01*
X026120Y009104D01*
X026118Y009078D01*
X026112Y009052D01*
X026102Y009027D01*
X026089Y009004D01*
X026073Y008984D01*
X026053Y008966D01*
X026031Y008951D01*
X026008Y008939D01*
X025982Y008931D01*
X025956Y008927D01*
X025930Y008927D01*
X025904Y008931D01*
X025878Y008939D01*
X025854Y008951D01*
X025833Y008966D01*
X025813Y008984D01*
X025797Y009004D01*
X025784Y009027D01*
X025774Y009052D01*
X025768Y009078D01*
X025766Y009104D01*
X024266Y010851D02*
X024268Y010877D01*
X024274Y010903D01*
X024284Y010928D01*
X024297Y010951D01*
X024313Y010971D01*
X024333Y010989D01*
X024355Y011004D01*
X024378Y011016D01*
X024404Y011024D01*
X024430Y011028D01*
X024456Y011028D01*
X024482Y011024D01*
X024508Y011016D01*
X024532Y011004D01*
X024553Y010989D01*
X024573Y010971D01*
X024589Y010951D01*
X024602Y010928D01*
X024612Y010903D01*
X024618Y010877D01*
X024620Y010851D01*
X024618Y010825D01*
X024612Y010799D01*
X024602Y010774D01*
X024589Y010751D01*
X024573Y010731D01*
X024553Y010713D01*
X024531Y010698D01*
X024508Y010686D01*
X024482Y010678D01*
X024456Y010674D01*
X024430Y010674D01*
X024404Y010678D01*
X024378Y010686D01*
X024354Y010698D01*
X024333Y010713D01*
X024313Y010731D01*
X024297Y010751D01*
X024284Y010774D01*
X024274Y010799D01*
X024268Y010825D01*
X024266Y010851D01*
X022453Y012504D02*
X022455Y012530D01*
X022461Y012556D01*
X022471Y012581D01*
X022484Y012604D01*
X022500Y012624D01*
X022520Y012642D01*
X022542Y012657D01*
X022565Y012669D01*
X022591Y012677D01*
X022617Y012681D01*
X022643Y012681D01*
X022669Y012677D01*
X022695Y012669D01*
X022719Y012657D01*
X022740Y012642D01*
X022760Y012624D01*
X022776Y012604D01*
X022789Y012581D01*
X022799Y012556D01*
X022805Y012530D01*
X022807Y012504D01*
X022805Y012478D01*
X022799Y012452D01*
X022789Y012427D01*
X022776Y012404D01*
X022760Y012384D01*
X022740Y012366D01*
X022718Y012351D01*
X022695Y012339D01*
X022669Y012331D01*
X022643Y012327D01*
X022617Y012327D01*
X022591Y012331D01*
X022565Y012339D01*
X022541Y012351D01*
X022520Y012366D01*
X022500Y012384D01*
X022484Y012404D01*
X022471Y012427D01*
X022461Y012452D01*
X022455Y012478D01*
X022453Y012504D01*
X021413Y013603D02*
X021415Y013629D01*
X021421Y013655D01*
X021431Y013680D01*
X021444Y013703D01*
X021460Y013723D01*
X021480Y013741D01*
X021502Y013756D01*
X021525Y013768D01*
X021551Y013776D01*
X021577Y013780D01*
X021603Y013780D01*
X021629Y013776D01*
X021655Y013768D01*
X021679Y013756D01*
X021700Y013741D01*
X021720Y013723D01*
X021736Y013703D01*
X021749Y013680D01*
X021759Y013655D01*
X021765Y013629D01*
X021767Y013603D01*
X021765Y013577D01*
X021759Y013551D01*
X021749Y013526D01*
X021736Y013503D01*
X021720Y013483D01*
X021700Y013465D01*
X021678Y013450D01*
X021655Y013438D01*
X021629Y013430D01*
X021603Y013426D01*
X021577Y013426D01*
X021551Y013430D01*
X021525Y013438D01*
X021501Y013450D01*
X021480Y013465D01*
X021460Y013483D01*
X021444Y013503D01*
X021431Y013526D01*
X021421Y013551D01*
X021415Y013577D01*
X021413Y013603D01*
X020299Y014998D02*
X020301Y015024D01*
X020307Y015050D01*
X020317Y015075D01*
X020330Y015098D01*
X020346Y015118D01*
X020366Y015136D01*
X020388Y015151D01*
X020411Y015163D01*
X020437Y015171D01*
X020463Y015175D01*
X020489Y015175D01*
X020515Y015171D01*
X020541Y015163D01*
X020565Y015151D01*
X020586Y015136D01*
X020606Y015118D01*
X020622Y015098D01*
X020635Y015075D01*
X020645Y015050D01*
X020651Y015024D01*
X020653Y014998D01*
X020651Y014972D01*
X020645Y014946D01*
X020635Y014921D01*
X020622Y014898D01*
X020606Y014878D01*
X020586Y014860D01*
X020564Y014845D01*
X020541Y014833D01*
X020515Y014825D01*
X020489Y014821D01*
X020463Y014821D01*
X020437Y014825D01*
X020411Y014833D01*
X020387Y014845D01*
X020366Y014860D01*
X020346Y014878D01*
X020330Y014898D01*
X020317Y014921D01*
X020307Y014946D01*
X020301Y014972D01*
X020299Y014998D01*
X019318Y015979D02*
X019320Y016005D01*
X019326Y016031D01*
X019336Y016056D01*
X019349Y016079D01*
X019365Y016099D01*
X019385Y016117D01*
X019407Y016132D01*
X019430Y016144D01*
X019456Y016152D01*
X019482Y016156D01*
X019508Y016156D01*
X019534Y016152D01*
X019560Y016144D01*
X019584Y016132D01*
X019605Y016117D01*
X019625Y016099D01*
X019641Y016079D01*
X019654Y016056D01*
X019664Y016031D01*
X019670Y016005D01*
X019672Y015979D01*
X019670Y015953D01*
X019664Y015927D01*
X019654Y015902D01*
X019641Y015879D01*
X019625Y015859D01*
X019605Y015841D01*
X019583Y015826D01*
X019560Y015814D01*
X019534Y015806D01*
X019508Y015802D01*
X019482Y015802D01*
X019456Y015806D01*
X019430Y015814D01*
X019406Y015826D01*
X019385Y015841D01*
X019365Y015859D01*
X019349Y015879D01*
X019336Y015902D01*
X019326Y015927D01*
X019320Y015953D01*
X019318Y015979D01*
X012745Y018389D02*
X012747Y018415D01*
X012753Y018441D01*
X012763Y018466D01*
X012776Y018489D01*
X012792Y018509D01*
X012812Y018527D01*
X012834Y018542D01*
X012857Y018554D01*
X012883Y018562D01*
X012909Y018566D01*
X012935Y018566D01*
X012961Y018562D01*
X012987Y018554D01*
X013011Y018542D01*
X013032Y018527D01*
X013052Y018509D01*
X013068Y018489D01*
X013081Y018466D01*
X013091Y018441D01*
X013097Y018415D01*
X013099Y018389D01*
X013097Y018363D01*
X013091Y018337D01*
X013081Y018312D01*
X013068Y018289D01*
X013052Y018269D01*
X013032Y018251D01*
X013010Y018236D01*
X012987Y018224D01*
X012961Y018216D01*
X012935Y018212D01*
X012909Y018212D01*
X012883Y018216D01*
X012857Y018224D01*
X012833Y018236D01*
X012812Y018251D01*
X012792Y018269D01*
X012776Y018289D01*
X012763Y018312D01*
X012753Y018337D01*
X012747Y018363D01*
X012745Y018389D01*
X015575Y020116D02*
X015577Y020142D01*
X015583Y020168D01*
X015593Y020193D01*
X015606Y020216D01*
X015622Y020236D01*
X015642Y020254D01*
X015664Y020269D01*
X015687Y020281D01*
X015713Y020289D01*
X015739Y020293D01*
X015765Y020293D01*
X015791Y020289D01*
X015817Y020281D01*
X015841Y020269D01*
X015862Y020254D01*
X015882Y020236D01*
X015898Y020216D01*
X015911Y020193D01*
X015921Y020168D01*
X015927Y020142D01*
X015929Y020116D01*
X015927Y020090D01*
X015921Y020064D01*
X015911Y020039D01*
X015898Y020016D01*
X015882Y019996D01*
X015862Y019978D01*
X015840Y019963D01*
X015817Y019951D01*
X015791Y019943D01*
X015765Y019939D01*
X015739Y019939D01*
X015713Y019943D01*
X015687Y019951D01*
X015663Y019963D01*
X015642Y019978D01*
X015622Y019996D01*
X015606Y020016D01*
X015593Y020039D01*
X015583Y020064D01*
X015577Y020090D01*
X015575Y020116D01*
X011947Y016341D02*
X011949Y016367D01*
X011955Y016393D01*
X011965Y016418D01*
X011978Y016441D01*
X011994Y016461D01*
X012014Y016479D01*
X012036Y016494D01*
X012059Y016506D01*
X012085Y016514D01*
X012111Y016518D01*
X012137Y016518D01*
X012163Y016514D01*
X012189Y016506D01*
X012213Y016494D01*
X012234Y016479D01*
X012254Y016461D01*
X012270Y016441D01*
X012283Y016418D01*
X012293Y016393D01*
X012299Y016367D01*
X012301Y016341D01*
X012299Y016315D01*
X012293Y016289D01*
X012283Y016264D01*
X012270Y016241D01*
X012254Y016221D01*
X012234Y016203D01*
X012212Y016188D01*
X012189Y016176D01*
X012163Y016168D01*
X012137Y016164D01*
X012111Y016164D01*
X012085Y016168D01*
X012059Y016176D01*
X012035Y016188D01*
X012014Y016203D01*
X011994Y016221D01*
X011978Y016241D01*
X011965Y016264D01*
X011955Y016289D01*
X011949Y016315D01*
X011947Y016341D01*
X008017Y012553D02*
X008019Y012579D01*
X008025Y012605D01*
X008035Y012630D01*
X008048Y012653D01*
X008064Y012673D01*
X008084Y012691D01*
X008106Y012706D01*
X008129Y012718D01*
X008155Y012726D01*
X008181Y012730D01*
X008207Y012730D01*
X008233Y012726D01*
X008259Y012718D01*
X008283Y012706D01*
X008304Y012691D01*
X008324Y012673D01*
X008340Y012653D01*
X008353Y012630D01*
X008363Y012605D01*
X008369Y012579D01*
X008371Y012553D01*
X008369Y012527D01*
X008363Y012501D01*
X008353Y012476D01*
X008340Y012453D01*
X008324Y012433D01*
X008304Y012415D01*
X008282Y012400D01*
X008259Y012388D01*
X008233Y012380D01*
X008207Y012376D01*
X008181Y012376D01*
X008155Y012380D01*
X008129Y012388D01*
X008105Y012400D01*
X008084Y012415D01*
X008064Y012433D01*
X008048Y012453D01*
X008035Y012476D01*
X008025Y012501D01*
X008019Y012527D01*
X008017Y012553D01*
X005927Y012520D02*
X005929Y012546D01*
X005935Y012572D01*
X005945Y012597D01*
X005958Y012620D01*
X005974Y012640D01*
X005994Y012658D01*
X006016Y012673D01*
X006039Y012685D01*
X006065Y012693D01*
X006091Y012697D01*
X006117Y012697D01*
X006143Y012693D01*
X006169Y012685D01*
X006193Y012673D01*
X006214Y012658D01*
X006234Y012640D01*
X006250Y012620D01*
X006263Y012597D01*
X006273Y012572D01*
X006279Y012546D01*
X006281Y012520D01*
X006279Y012494D01*
X006273Y012468D01*
X006263Y012443D01*
X006250Y012420D01*
X006234Y012400D01*
X006214Y012382D01*
X006192Y012367D01*
X006169Y012355D01*
X006143Y012347D01*
X006117Y012343D01*
X006091Y012343D01*
X006065Y012347D01*
X006039Y012355D01*
X006015Y012367D01*
X005994Y012382D01*
X005974Y012400D01*
X005958Y012420D01*
X005945Y012443D01*
X005935Y012468D01*
X005929Y012494D01*
X005927Y012520D01*
X002801Y012458D02*
X002803Y012484D01*
X002809Y012510D01*
X002819Y012535D01*
X002832Y012558D01*
X002848Y012578D01*
X002868Y012596D01*
X002890Y012611D01*
X002913Y012623D01*
X002939Y012631D01*
X002965Y012635D01*
X002991Y012635D01*
X003017Y012631D01*
X003043Y012623D01*
X003067Y012611D01*
X003088Y012596D01*
X003108Y012578D01*
X003124Y012558D01*
X003137Y012535D01*
X003147Y012510D01*
X003153Y012484D01*
X003155Y012458D01*
X003153Y012432D01*
X003147Y012406D01*
X003137Y012381D01*
X003124Y012358D01*
X003108Y012338D01*
X003088Y012320D01*
X003066Y012305D01*
X003043Y012293D01*
X003017Y012285D01*
X002991Y012281D01*
X002965Y012281D01*
X002939Y012285D01*
X002913Y012293D01*
X002889Y012305D01*
X002868Y012320D01*
X002848Y012338D01*
X002832Y012358D01*
X002819Y012381D01*
X002809Y012406D01*
X002803Y012432D01*
X002801Y012458D01*
X000849Y012406D02*
X000851Y012432D01*
X000857Y012458D01*
X000867Y012483D01*
X000880Y012506D01*
X000896Y012526D01*
X000916Y012544D01*
X000938Y012559D01*
X000961Y012571D01*
X000987Y012579D01*
X001013Y012583D01*
X001039Y012583D01*
X001065Y012579D01*
X001091Y012571D01*
X001115Y012559D01*
X001136Y012544D01*
X001156Y012526D01*
X001172Y012506D01*
X001185Y012483D01*
X001195Y012458D01*
X001201Y012432D01*
X001203Y012406D01*
X001201Y012380D01*
X001195Y012354D01*
X001185Y012329D01*
X001172Y012306D01*
X001156Y012286D01*
X001136Y012268D01*
X001114Y012253D01*
X001091Y012241D01*
X001065Y012233D01*
X001039Y012229D01*
X001013Y012229D01*
X000987Y012233D01*
X000961Y012241D01*
X000937Y012253D01*
X000916Y012268D01*
X000896Y012286D01*
X000880Y012306D01*
X000867Y012329D01*
X000857Y012354D01*
X000851Y012380D01*
X000849Y012406D01*
X000849Y011606D02*
X000851Y011632D01*
X000857Y011658D01*
X000867Y011683D01*
X000880Y011706D01*
X000896Y011726D01*
X000916Y011744D01*
X000938Y011759D01*
X000961Y011771D01*
X000987Y011779D01*
X001013Y011783D01*
X001039Y011783D01*
X001065Y011779D01*
X001091Y011771D01*
X001115Y011759D01*
X001136Y011744D01*
X001156Y011726D01*
X001172Y011706D01*
X001185Y011683D01*
X001195Y011658D01*
X001201Y011632D01*
X001203Y011606D01*
X001201Y011580D01*
X001195Y011554D01*
X001185Y011529D01*
X001172Y011506D01*
X001156Y011486D01*
X001136Y011468D01*
X001114Y011453D01*
X001091Y011441D01*
X001065Y011433D01*
X001039Y011429D01*
X001013Y011429D01*
X000987Y011433D01*
X000961Y011441D01*
X000937Y011453D01*
X000916Y011468D01*
X000896Y011486D01*
X000880Y011506D01*
X000867Y011529D01*
X000857Y011554D01*
X000851Y011580D01*
X000849Y011606D01*
X008297Y010948D02*
X008299Y010974D01*
X008305Y011000D01*
X008315Y011025D01*
X008328Y011048D01*
X008344Y011068D01*
X008364Y011086D01*
X008386Y011101D01*
X008409Y011113D01*
X008435Y011121D01*
X008461Y011125D01*
X008487Y011125D01*
X008513Y011121D01*
X008539Y011113D01*
X008563Y011101D01*
X008584Y011086D01*
X008604Y011068D01*
X008620Y011048D01*
X008633Y011025D01*
X008643Y011000D01*
X008649Y010974D01*
X008651Y010948D01*
X008649Y010922D01*
X008643Y010896D01*
X008633Y010871D01*
X008620Y010848D01*
X008604Y010828D01*
X008584Y010810D01*
X008562Y010795D01*
X008539Y010783D01*
X008513Y010775D01*
X008487Y010771D01*
X008461Y010771D01*
X008435Y010775D01*
X008409Y010783D01*
X008385Y010795D01*
X008364Y010810D01*
X008344Y010828D01*
X008328Y010848D01*
X008315Y010871D01*
X008305Y010896D01*
X008299Y010922D01*
X008297Y010948D01*
X008297Y009267D02*
X008299Y009293D01*
X008305Y009319D01*
X008315Y009344D01*
X008328Y009367D01*
X008344Y009387D01*
X008364Y009405D01*
X008386Y009420D01*
X008409Y009432D01*
X008435Y009440D01*
X008461Y009444D01*
X008487Y009444D01*
X008513Y009440D01*
X008539Y009432D01*
X008563Y009420D01*
X008584Y009405D01*
X008604Y009387D01*
X008620Y009367D01*
X008633Y009344D01*
X008643Y009319D01*
X008649Y009293D01*
X008651Y009267D01*
X008649Y009241D01*
X008643Y009215D01*
X008633Y009190D01*
X008620Y009167D01*
X008604Y009147D01*
X008584Y009129D01*
X008562Y009114D01*
X008539Y009102D01*
X008513Y009094D01*
X008487Y009090D01*
X008461Y009090D01*
X008435Y009094D01*
X008409Y009102D01*
X008385Y009114D01*
X008364Y009129D01*
X008344Y009147D01*
X008328Y009167D01*
X008315Y009190D01*
X008305Y009215D01*
X008299Y009241D01*
X008297Y009267D01*
X010975Y008271D02*
X010977Y008297D01*
X010983Y008323D01*
X010993Y008348D01*
X011006Y008371D01*
X011022Y008391D01*
X011042Y008409D01*
X011064Y008424D01*
X011087Y008436D01*
X011113Y008444D01*
X011139Y008448D01*
X011165Y008448D01*
X011191Y008444D01*
X011217Y008436D01*
X011241Y008424D01*
X011262Y008409D01*
X011282Y008391D01*
X011298Y008371D01*
X011311Y008348D01*
X011321Y008323D01*
X011327Y008297D01*
X011329Y008271D01*
X011327Y008245D01*
X011321Y008219D01*
X011311Y008194D01*
X011298Y008171D01*
X011282Y008151D01*
X011262Y008133D01*
X011240Y008118D01*
X011217Y008106D01*
X011191Y008098D01*
X011165Y008094D01*
X011139Y008094D01*
X011113Y008098D01*
X011087Y008106D01*
X011063Y008118D01*
X011042Y008133D01*
X011022Y008151D01*
X011006Y008171D01*
X010993Y008194D01*
X010983Y008219D01*
X010977Y008245D01*
X010975Y008271D01*
X011207Y011455D02*
X011209Y011481D01*
X011215Y011507D01*
X011225Y011532D01*
X011238Y011555D01*
X011254Y011575D01*
X011274Y011593D01*
X011296Y011608D01*
X011319Y011620D01*
X011345Y011628D01*
X011371Y011632D01*
X011397Y011632D01*
X011423Y011628D01*
X011449Y011620D01*
X011473Y011608D01*
X011494Y011593D01*
X011514Y011575D01*
X011530Y011555D01*
X011543Y011532D01*
X011553Y011507D01*
X011559Y011481D01*
X011561Y011455D01*
X011559Y011429D01*
X011553Y011403D01*
X011543Y011378D01*
X011530Y011355D01*
X011514Y011335D01*
X011494Y011317D01*
X011472Y011302D01*
X011449Y011290D01*
X011423Y011282D01*
X011397Y011278D01*
X011371Y011278D01*
X011345Y011282D01*
X011319Y011290D01*
X011295Y011302D01*
X011274Y011317D01*
X011254Y011335D01*
X011238Y011355D01*
X011225Y011378D01*
X011215Y011403D01*
X011209Y011429D01*
X011207Y011455D01*
X000816Y007011D02*
X000818Y007037D01*
X000824Y007063D01*
X000834Y007088D01*
X000847Y007111D01*
X000863Y007131D01*
X000883Y007149D01*
X000905Y007164D01*
X000928Y007176D01*
X000954Y007184D01*
X000980Y007188D01*
X001006Y007188D01*
X001032Y007184D01*
X001058Y007176D01*
X001082Y007164D01*
X001103Y007149D01*
X001123Y007131D01*
X001139Y007111D01*
X001152Y007088D01*
X001162Y007063D01*
X001168Y007037D01*
X001170Y007011D01*
X001168Y006985D01*
X001162Y006959D01*
X001152Y006934D01*
X001139Y006911D01*
X001123Y006891D01*
X001103Y006873D01*
X001081Y006858D01*
X001058Y006846D01*
X001032Y006838D01*
X001006Y006834D01*
X000980Y006834D01*
X000954Y006838D01*
X000928Y006846D01*
X000904Y006858D01*
X000883Y006873D01*
X000863Y006891D01*
X000847Y006911D01*
X000834Y006934D01*
X000824Y006959D01*
X000818Y006985D01*
X000816Y007011D01*
X000816Y005043D02*
X000818Y005069D01*
X000824Y005095D01*
X000834Y005120D01*
X000847Y005143D01*
X000863Y005163D01*
X000883Y005181D01*
X000905Y005196D01*
X000928Y005208D01*
X000954Y005216D01*
X000980Y005220D01*
X001006Y005220D01*
X001032Y005216D01*
X001058Y005208D01*
X001082Y005196D01*
X001103Y005181D01*
X001123Y005163D01*
X001139Y005143D01*
X001152Y005120D01*
X001162Y005095D01*
X001168Y005069D01*
X001170Y005043D01*
X001168Y005017D01*
X001162Y004991D01*
X001152Y004966D01*
X001139Y004943D01*
X001123Y004923D01*
X001103Y004905D01*
X001081Y004890D01*
X001058Y004878D01*
X001032Y004870D01*
X001006Y004866D01*
X000980Y004866D01*
X000954Y004870D01*
X000928Y004878D01*
X000904Y004890D01*
X000883Y004905D01*
X000863Y004923D01*
X000847Y004943D01*
X000834Y004966D01*
X000824Y004991D01*
X000818Y005017D01*
X000816Y005043D01*
X000816Y000712D02*
X000818Y000738D01*
X000824Y000764D01*
X000834Y000789D01*
X000847Y000812D01*
X000863Y000832D01*
X000883Y000850D01*
X000905Y000865D01*
X000928Y000877D01*
X000954Y000885D01*
X000980Y000889D01*
X001006Y000889D01*
X001032Y000885D01*
X001058Y000877D01*
X001082Y000865D01*
X001103Y000850D01*
X001123Y000832D01*
X001139Y000812D01*
X001152Y000789D01*
X001162Y000764D01*
X001168Y000738D01*
X001170Y000712D01*
X001168Y000686D01*
X001162Y000660D01*
X001152Y000635D01*
X001139Y000612D01*
X001123Y000592D01*
X001103Y000574D01*
X001081Y000559D01*
X001058Y000547D01*
X001032Y000539D01*
X001006Y000535D01*
X000980Y000535D01*
X000954Y000539D01*
X000928Y000547D01*
X000904Y000559D01*
X000883Y000574D01*
X000863Y000592D01*
X000847Y000612D01*
X000834Y000635D01*
X000824Y000660D01*
X000818Y000686D01*
X000816Y000712D01*
X003200Y000728D02*
X003202Y000754D01*
X003208Y000780D01*
X003218Y000805D01*
X003231Y000828D01*
X003247Y000848D01*
X003267Y000866D01*
X003289Y000881D01*
X003312Y000893D01*
X003338Y000901D01*
X003364Y000905D01*
X003390Y000905D01*
X003416Y000901D01*
X003442Y000893D01*
X003466Y000881D01*
X003487Y000866D01*
X003507Y000848D01*
X003523Y000828D01*
X003536Y000805D01*
X003546Y000780D01*
X003552Y000754D01*
X003554Y000728D01*
X003552Y000702D01*
X003546Y000676D01*
X003536Y000651D01*
X003523Y000628D01*
X003507Y000608D01*
X003487Y000590D01*
X003465Y000575D01*
X003442Y000563D01*
X003416Y000555D01*
X003390Y000551D01*
X003364Y000551D01*
X003338Y000555D01*
X003312Y000563D01*
X003288Y000575D01*
X003267Y000590D01*
X003247Y000608D01*
X003231Y000628D01*
X003218Y000651D01*
X003208Y000676D01*
X003202Y000702D01*
X003200Y000728D01*
X005287Y000712D02*
X005289Y000738D01*
X005295Y000764D01*
X005305Y000789D01*
X005318Y000812D01*
X005334Y000832D01*
X005354Y000850D01*
X005376Y000865D01*
X005399Y000877D01*
X005425Y000885D01*
X005451Y000889D01*
X005477Y000889D01*
X005503Y000885D01*
X005529Y000877D01*
X005553Y000865D01*
X005574Y000850D01*
X005594Y000832D01*
X005610Y000812D01*
X005623Y000789D01*
X005633Y000764D01*
X005639Y000738D01*
X005641Y000712D01*
X005639Y000686D01*
X005633Y000660D01*
X005623Y000635D01*
X005610Y000612D01*
X005594Y000592D01*
X005574Y000574D01*
X005552Y000559D01*
X005529Y000547D01*
X005503Y000539D01*
X005477Y000535D01*
X005451Y000535D01*
X005425Y000539D01*
X005399Y000547D01*
X005375Y000559D01*
X005354Y000574D01*
X005334Y000592D01*
X005318Y000612D01*
X005305Y000635D01*
X005295Y000660D01*
X005289Y000686D01*
X005287Y000712D01*
X008297Y000712D02*
X008299Y000738D01*
X008305Y000764D01*
X008315Y000789D01*
X008328Y000812D01*
X008344Y000832D01*
X008364Y000850D01*
X008386Y000865D01*
X008409Y000877D01*
X008435Y000885D01*
X008461Y000889D01*
X008487Y000889D01*
X008513Y000885D01*
X008539Y000877D01*
X008563Y000865D01*
X008584Y000850D01*
X008604Y000832D01*
X008620Y000812D01*
X008633Y000789D01*
X008643Y000764D01*
X008649Y000738D01*
X008651Y000712D01*
X008649Y000686D01*
X008643Y000660D01*
X008633Y000635D01*
X008620Y000612D01*
X008604Y000592D01*
X008584Y000574D01*
X008562Y000559D01*
X008539Y000547D01*
X008513Y000539D01*
X008487Y000535D01*
X008461Y000535D01*
X008435Y000539D01*
X008409Y000547D01*
X008385Y000559D01*
X008364Y000574D01*
X008344Y000592D01*
X008328Y000612D01*
X008315Y000635D01*
X008305Y000660D01*
X008299Y000686D01*
X008297Y000712D01*
X011683Y000912D02*
X011685Y000938D01*
X011691Y000964D01*
X011701Y000989D01*
X011714Y001012D01*
X011730Y001032D01*
X011750Y001050D01*
X011772Y001065D01*
X011795Y001077D01*
X011821Y001085D01*
X011847Y001089D01*
X011873Y001089D01*
X011899Y001085D01*
X011925Y001077D01*
X011949Y001065D01*
X011970Y001050D01*
X011990Y001032D01*
X012006Y001012D01*
X012019Y000989D01*
X012029Y000964D01*
X012035Y000938D01*
X012037Y000912D01*
X012035Y000886D01*
X012029Y000860D01*
X012019Y000835D01*
X012006Y000812D01*
X011990Y000792D01*
X011970Y000774D01*
X011948Y000759D01*
X011925Y000747D01*
X011899Y000739D01*
X011873Y000735D01*
X011847Y000735D01*
X011821Y000739D01*
X011795Y000747D01*
X011771Y000759D01*
X011750Y000774D01*
X011730Y000792D01*
X011714Y000812D01*
X011701Y000835D01*
X011691Y000860D01*
X011685Y000886D01*
X011683Y000912D01*
X014787Y002006D02*
X014789Y002032D01*
X014795Y002058D01*
X014805Y002083D01*
X014818Y002106D01*
X014834Y002126D01*
X014854Y002144D01*
X014876Y002159D01*
X014899Y002171D01*
X014925Y002179D01*
X014951Y002183D01*
X014977Y002183D01*
X015003Y002179D01*
X015029Y002171D01*
X015053Y002159D01*
X015074Y002144D01*
X015094Y002126D01*
X015110Y002106D01*
X015123Y002083D01*
X015133Y002058D01*
X015139Y002032D01*
X015141Y002006D01*
X015139Y001980D01*
X015133Y001954D01*
X015123Y001929D01*
X015110Y001906D01*
X015094Y001886D01*
X015074Y001868D01*
X015052Y001853D01*
X015029Y001841D01*
X015003Y001833D01*
X014977Y001829D01*
X014951Y001829D01*
X014925Y001833D01*
X014899Y001841D01*
X014875Y001853D01*
X014854Y001868D01*
X014834Y001886D01*
X014818Y001906D01*
X014805Y001929D01*
X014795Y001954D01*
X014789Y001980D01*
X014787Y002006D01*
X017150Y002794D02*
X017152Y002820D01*
X017158Y002846D01*
X017168Y002871D01*
X017181Y002894D01*
X017197Y002914D01*
X017217Y002932D01*
X017239Y002947D01*
X017262Y002959D01*
X017288Y002967D01*
X017314Y002971D01*
X017340Y002971D01*
X017366Y002967D01*
X017392Y002959D01*
X017416Y002947D01*
X017437Y002932D01*
X017457Y002914D01*
X017473Y002894D01*
X017486Y002871D01*
X017496Y002846D01*
X017502Y002820D01*
X017504Y002794D01*
X017502Y002768D01*
X017496Y002742D01*
X017486Y002717D01*
X017473Y002694D01*
X017457Y002674D01*
X017437Y002656D01*
X017415Y002641D01*
X017392Y002629D01*
X017366Y002621D01*
X017340Y002617D01*
X017314Y002617D01*
X017288Y002621D01*
X017262Y002629D01*
X017238Y002641D01*
X017217Y002656D01*
X017197Y002674D01*
X017181Y002694D01*
X017168Y002717D01*
X017158Y002742D01*
X017152Y002768D01*
X017150Y002794D01*
X021750Y004797D02*
X021752Y004823D01*
X021758Y004849D01*
X021768Y004874D01*
X021781Y004897D01*
X021797Y004917D01*
X021817Y004935D01*
X021839Y004950D01*
X021862Y004962D01*
X021888Y004970D01*
X021914Y004974D01*
X021940Y004974D01*
X021966Y004970D01*
X021992Y004962D01*
X022016Y004950D01*
X022037Y004935D01*
X022057Y004917D01*
X022073Y004897D01*
X022086Y004874D01*
X022096Y004849D01*
X022102Y004823D01*
X022104Y004797D01*
X022102Y004771D01*
X022096Y004745D01*
X022086Y004720D01*
X022073Y004697D01*
X022057Y004677D01*
X022037Y004659D01*
X022015Y004644D01*
X021992Y004632D01*
X021966Y004624D01*
X021940Y004620D01*
X021914Y004620D01*
X021888Y004624D01*
X021862Y004632D01*
X021838Y004644D01*
X021817Y004659D01*
X021797Y004677D01*
X021781Y004697D01*
X021768Y004720D01*
X021758Y004745D01*
X021752Y004771D01*
X021750Y004797D01*
X024560Y003831D02*
X024562Y003857D01*
X024568Y003883D01*
X024578Y003908D01*
X024591Y003931D01*
X024607Y003951D01*
X024627Y003969D01*
X024649Y003984D01*
X024672Y003996D01*
X024698Y004004D01*
X024724Y004008D01*
X024750Y004008D01*
X024776Y004004D01*
X024802Y003996D01*
X024826Y003984D01*
X024847Y003969D01*
X024867Y003951D01*
X024883Y003931D01*
X024896Y003908D01*
X024906Y003883D01*
X024912Y003857D01*
X024914Y003831D01*
X024912Y003805D01*
X024906Y003779D01*
X024896Y003754D01*
X024883Y003731D01*
X024867Y003711D01*
X024847Y003693D01*
X024825Y003678D01*
X024802Y003666D01*
X024776Y003658D01*
X024750Y003654D01*
X024724Y003654D01*
X024698Y003658D01*
X024672Y003666D01*
X024648Y003678D01*
X024627Y003693D01*
X024607Y003711D01*
X024591Y003731D01*
X024578Y003754D01*
X024568Y003779D01*
X024562Y003805D01*
X024560Y003831D01*
X027278Y003690D02*
X027280Y003716D01*
X027286Y003742D01*
X027296Y003767D01*
X027309Y003790D01*
X027325Y003810D01*
X027345Y003828D01*
X027367Y003843D01*
X027390Y003855D01*
X027416Y003863D01*
X027442Y003867D01*
X027468Y003867D01*
X027494Y003863D01*
X027520Y003855D01*
X027544Y003843D01*
X027565Y003828D01*
X027585Y003810D01*
X027601Y003790D01*
X027614Y003767D01*
X027624Y003742D01*
X027630Y003716D01*
X027632Y003690D01*
X027630Y003664D01*
X027624Y003638D01*
X027614Y003613D01*
X027601Y003590D01*
X027585Y003570D01*
X027565Y003552D01*
X027543Y003537D01*
X027520Y003525D01*
X027494Y003517D01*
X027468Y003513D01*
X027442Y003513D01*
X027416Y003517D01*
X027390Y003525D01*
X027366Y003537D01*
X027345Y003552D01*
X027325Y003570D01*
X027309Y003590D01*
X027296Y003613D01*
X027286Y003638D01*
X027280Y003664D01*
X027278Y003690D01*
X026491Y001722D02*
X026493Y001748D01*
X026499Y001774D01*
X026509Y001799D01*
X026522Y001822D01*
X026538Y001842D01*
X026558Y001860D01*
X026580Y001875D01*
X026603Y001887D01*
X026629Y001895D01*
X026655Y001899D01*
X026681Y001899D01*
X026707Y001895D01*
X026733Y001887D01*
X026757Y001875D01*
X026778Y001860D01*
X026798Y001842D01*
X026814Y001822D01*
X026827Y001799D01*
X026837Y001774D01*
X026843Y001748D01*
X026845Y001722D01*
X026843Y001696D01*
X026837Y001670D01*
X026827Y001645D01*
X026814Y001622D01*
X026798Y001602D01*
X026778Y001584D01*
X026756Y001569D01*
X026733Y001557D01*
X026707Y001549D01*
X026681Y001545D01*
X026655Y001545D01*
X026629Y001549D01*
X026603Y001557D01*
X026579Y001569D01*
X026558Y001584D01*
X026538Y001602D01*
X026522Y001622D01*
X026509Y001645D01*
X026499Y001670D01*
X026493Y001696D01*
X026491Y001722D01*
X028331Y006053D02*
X028333Y006079D01*
X028339Y006105D01*
X028349Y006130D01*
X028362Y006153D01*
X028378Y006173D01*
X028398Y006191D01*
X028420Y006206D01*
X028443Y006218D01*
X028469Y006226D01*
X028495Y006230D01*
X028521Y006230D01*
X028547Y006226D01*
X028573Y006218D01*
X028597Y006206D01*
X028618Y006191D01*
X028638Y006173D01*
X028654Y006153D01*
X028667Y006130D01*
X028677Y006105D01*
X028683Y006079D01*
X028685Y006053D01*
X028683Y006027D01*
X028677Y006001D01*
X028667Y005976D01*
X028654Y005953D01*
X028638Y005933D01*
X028618Y005915D01*
X028596Y005900D01*
X028573Y005888D01*
X028547Y005880D01*
X028521Y005876D01*
X028495Y005876D01*
X028469Y005880D01*
X028443Y005888D01*
X028419Y005900D01*
X028398Y005915D01*
X028378Y005933D01*
X028362Y005953D01*
X028349Y005976D01*
X028339Y006001D01*
X028333Y006027D01*
X028331Y006053D01*
X011144Y004961D02*
X011146Y004987D01*
X011152Y005013D01*
X011162Y005038D01*
X011175Y005061D01*
X011191Y005081D01*
X011211Y005099D01*
X011233Y005114D01*
X011256Y005126D01*
X011282Y005134D01*
X011308Y005138D01*
X011334Y005138D01*
X011360Y005134D01*
X011386Y005126D01*
X011410Y005114D01*
X011431Y005099D01*
X011451Y005081D01*
X011467Y005061D01*
X011480Y005038D01*
X011490Y005013D01*
X011496Y004987D01*
X011498Y004961D01*
X011496Y004935D01*
X011490Y004909D01*
X011480Y004884D01*
X011467Y004861D01*
X011451Y004841D01*
X011431Y004823D01*
X011409Y004808D01*
X011386Y004796D01*
X011360Y004788D01*
X011334Y004784D01*
X011308Y004784D01*
X011282Y004788D01*
X011256Y004796D01*
X011232Y004808D01*
X011211Y004823D01*
X011191Y004841D01*
X011175Y004861D01*
X011162Y004884D01*
X011152Y004909D01*
X011146Y004935D01*
X011144Y004961D01*
X008197Y005067D02*
X008199Y005093D01*
X008205Y005119D01*
X008215Y005144D01*
X008228Y005167D01*
X008244Y005187D01*
X008264Y005205D01*
X008286Y005220D01*
X008309Y005232D01*
X008335Y005240D01*
X008361Y005244D01*
X008387Y005244D01*
X008413Y005240D01*
X008439Y005232D01*
X008463Y005220D01*
X008484Y005205D01*
X008504Y005187D01*
X008520Y005167D01*
X008533Y005144D01*
X008543Y005119D01*
X008549Y005093D01*
X008551Y005067D01*
X008549Y005041D01*
X008543Y005015D01*
X008533Y004990D01*
X008520Y004967D01*
X008504Y004947D01*
X008484Y004929D01*
X008462Y004914D01*
X008439Y004902D01*
X008413Y004894D01*
X008387Y004890D01*
X008361Y004890D01*
X008335Y004894D01*
X008309Y004902D01*
X008285Y004914D01*
X008264Y004929D01*
X008244Y004947D01*
X008228Y004967D01*
X008215Y004990D01*
X008205Y005015D01*
X008199Y005041D01*
X008197Y005067D01*
D12*
X003750Y007101D02*
X003653Y007197D01*
X003460Y007197D01*
X003557Y007299D02*
X003460Y007395D01*
X003750Y007395D01*
X003750Y007299D02*
X003750Y007492D01*
X003750Y007593D02*
X003702Y007593D01*
X003702Y007642D01*
X003750Y007642D01*
X003750Y007593D01*
X003702Y007741D02*
X003750Y007789D01*
X003750Y007886D01*
X003702Y007934D01*
X003508Y007934D01*
X003702Y007741D01*
X003508Y007741D01*
X003460Y007789D01*
X003460Y007886D01*
X003508Y007934D01*
X003270Y007936D02*
X003270Y008081D01*
X002980Y008081D01*
X003077Y008081D02*
X003077Y007936D01*
X003125Y007888D01*
X003222Y007888D01*
X003270Y007936D01*
X003270Y007787D02*
X003125Y007787D01*
X003077Y007738D01*
X003077Y007593D01*
X003270Y007593D01*
X003270Y007492D02*
X003270Y007347D01*
X003222Y007299D01*
X003173Y007347D01*
X003173Y007492D01*
X003125Y007492D02*
X003270Y007492D01*
X003125Y007492D02*
X003077Y007444D01*
X003077Y007347D01*
X003125Y007197D02*
X003125Y007004D01*
X003270Y007004D02*
X002980Y007004D01*
X002980Y007197D02*
X003270Y007197D01*
X003460Y007004D02*
X003653Y007004D01*
X003750Y007101D01*
X003847Y008035D02*
X003750Y008132D01*
X003750Y008084D01*
X003702Y008084D01*
X003702Y008132D01*
X003750Y008132D01*
X003750Y008526D02*
X003460Y008526D01*
X003750Y008720D01*
X003460Y008720D01*
X003557Y008821D02*
X003557Y008869D01*
X003750Y008869D01*
X003750Y008821D02*
X003750Y008918D01*
X003750Y009017D02*
X003460Y009017D01*
X003460Y008869D02*
X003411Y008869D01*
X003270Y008867D02*
X003270Y008722D01*
X003222Y008674D01*
X003173Y008722D01*
X003173Y008867D01*
X003125Y008867D02*
X003270Y008867D01*
X003125Y008867D02*
X003077Y008819D01*
X003077Y008722D01*
X003125Y008572D02*
X003270Y008572D01*
X003270Y008476D02*
X003125Y008476D01*
X003077Y008524D01*
X003125Y008572D01*
X003125Y008476D02*
X003077Y008427D01*
X003077Y008379D01*
X003270Y008379D01*
X003270Y008279D02*
X003270Y008182D01*
X003270Y008231D02*
X003077Y008231D01*
X003077Y008182D01*
X002980Y008231D02*
X002931Y008231D01*
X003077Y008968D02*
X003077Y009065D01*
X003028Y009017D02*
X003222Y009017D01*
X003270Y009065D01*
X003222Y009165D02*
X003125Y009165D01*
X003077Y009213D01*
X003077Y009310D01*
X003125Y009358D01*
X003173Y009358D01*
X003173Y009165D01*
X003222Y009165D02*
X003270Y009213D01*
X003270Y009310D01*
X003460Y009263D02*
X003750Y009263D01*
X003750Y009162D02*
X003653Y009017D01*
X003557Y009162D01*
X003605Y009263D02*
X003557Y009311D01*
X003557Y009408D01*
X003605Y009456D01*
X003750Y009456D01*
X003750Y009558D02*
X003750Y009654D01*
X003750Y009606D02*
X003557Y009606D01*
X003557Y009558D01*
X003460Y009606D02*
X003411Y009606D01*
X003460Y009754D02*
X003460Y009802D01*
X003750Y009802D01*
X003750Y009754D02*
X003750Y009851D01*
X003702Y010245D02*
X003750Y010293D01*
X003750Y010342D01*
X003702Y010390D01*
X003460Y010390D01*
X003460Y010342D02*
X003460Y010439D01*
X003557Y010588D02*
X003557Y010685D01*
X003605Y010733D01*
X003750Y010733D01*
X003750Y010588D01*
X003702Y010540D01*
X003653Y010588D01*
X003653Y010733D01*
X003750Y010834D02*
X003750Y010931D01*
X003750Y010883D02*
X003460Y010883D01*
X003460Y010834D01*
X003270Y010883D02*
X003222Y010834D01*
X003125Y010834D01*
X003077Y010883D01*
X003077Y010979D01*
X003125Y011028D01*
X003173Y011028D01*
X003173Y010834D01*
X003270Y010883D02*
X003270Y010979D01*
X003411Y011079D02*
X003460Y011079D01*
X003557Y011079D02*
X003750Y011079D01*
X003750Y011031D02*
X003750Y011128D01*
X003557Y011079D02*
X003557Y011031D01*
X003125Y011129D02*
X003125Y011323D01*
X003125Y011424D02*
X003125Y011569D01*
X003173Y011617D01*
X003222Y011617D01*
X003270Y011569D01*
X003270Y011424D01*
X002980Y011424D01*
X002980Y011569D01*
X003028Y011617D01*
X003077Y011617D01*
X003125Y011569D01*
X003077Y010733D02*
X003270Y010636D01*
X003077Y010540D01*
X003125Y010439D02*
X003077Y010390D01*
X003077Y010293D01*
X003125Y010245D01*
X003222Y010245D01*
X003270Y010293D01*
X003270Y010390D01*
X003222Y010439D01*
X003125Y010439D01*
X003270Y010145D02*
X003270Y010049D01*
X003270Y010097D02*
X002980Y010097D01*
X002980Y010049D01*
X003028Y009947D02*
X002980Y009899D01*
X002980Y009802D01*
X003028Y009754D01*
X003222Y009754D01*
X003270Y009802D01*
X003270Y009899D01*
X003222Y009947D01*
X003125Y009947D01*
X003125Y009851D01*
X013579Y010174D02*
X013628Y010125D01*
X013724Y010125D01*
X013773Y010174D01*
X013874Y010174D02*
X013874Y010125D01*
X013874Y010174D02*
X014067Y010367D01*
X014067Y010415D01*
X013874Y010415D01*
X013773Y010367D02*
X013724Y010415D01*
X013628Y010415D01*
X013579Y010367D01*
X013579Y010174D01*
D13*
X023426Y005318D02*
X023426Y005040D01*
X023426Y005179D02*
X023612Y005179D01*
X023612Y005318D02*
X023612Y005040D01*
X023793Y005087D02*
X023839Y005133D01*
X023978Y005133D01*
X023978Y005179D02*
X023978Y005040D01*
X023839Y005040D01*
X023793Y005087D01*
X023839Y005226D02*
X023932Y005226D01*
X023978Y005179D01*
X024159Y005226D02*
X024298Y005226D01*
X024344Y005179D01*
X024344Y005040D01*
X024159Y005040D02*
X024159Y005226D01*
X024525Y005179D02*
X024525Y005087D01*
X024571Y005040D01*
X024710Y005040D01*
X024710Y005318D01*
X024710Y005226D02*
X024571Y005226D01*
X024525Y005179D01*
X024891Y005226D02*
X024937Y005226D01*
X024937Y005040D01*
X024891Y005040D02*
X024984Y005040D01*
X025135Y005040D02*
X025135Y005226D01*
X025181Y005226D01*
X025228Y005179D01*
X025274Y005226D01*
X025320Y005179D01*
X025320Y005040D01*
X025228Y005040D02*
X025228Y005179D01*
X025501Y005087D02*
X025548Y005133D01*
X025686Y005133D01*
X025686Y005179D02*
X025686Y005040D01*
X025548Y005040D01*
X025501Y005087D01*
X025548Y005226D02*
X025640Y005226D01*
X025686Y005179D01*
X025867Y005226D02*
X025960Y005226D01*
X025914Y005272D02*
X025914Y005087D01*
X025960Y005040D01*
X026111Y005087D02*
X026111Y005179D01*
X026158Y005226D01*
X026250Y005226D01*
X026297Y005179D01*
X026297Y005133D01*
X026111Y005133D01*
X026111Y005087D02*
X026158Y005040D01*
X026250Y005040D01*
X026233Y004849D02*
X026233Y004571D01*
X026233Y004710D02*
X026280Y004756D01*
X026372Y004756D01*
X026419Y004710D01*
X026419Y004571D01*
X026600Y004571D02*
X026692Y004571D01*
X026646Y004571D02*
X026646Y004756D01*
X026600Y004756D01*
X026646Y004849D02*
X026646Y004895D01*
X026844Y004849D02*
X026890Y004849D01*
X026890Y004571D01*
X026844Y004571D02*
X026936Y004571D01*
X027454Y004618D02*
X027500Y004571D01*
X027547Y004571D01*
X027593Y004618D01*
X027593Y004849D01*
X027547Y004849D02*
X027639Y004849D01*
X027593Y005040D02*
X027500Y005040D01*
X027454Y005087D01*
X027454Y005179D01*
X027500Y005226D01*
X027593Y005226D01*
X027639Y005179D01*
X027639Y005087D01*
X027593Y005040D01*
X027302Y005040D02*
X027210Y005040D01*
X027256Y005040D02*
X027256Y005318D01*
X027210Y005318D01*
X027029Y005272D02*
X026983Y005318D01*
X026890Y005318D01*
X026844Y005272D01*
X026844Y005087D01*
X026890Y005040D01*
X026983Y005040D01*
X027029Y005087D01*
X027029Y005179D01*
X026936Y005179D01*
X027820Y005226D02*
X027913Y005040D01*
X028005Y005226D01*
X028186Y005179D02*
X028233Y005226D01*
X028325Y005226D01*
X028371Y005179D01*
X028371Y005133D01*
X028186Y005133D01*
X028186Y005087D02*
X028186Y005179D01*
X028186Y005087D02*
X028233Y005040D01*
X028325Y005040D01*
X028477Y004895D02*
X028477Y004849D01*
X028477Y004756D02*
X028477Y004571D01*
X028523Y004571D02*
X028430Y004571D01*
X028279Y004571D02*
X028186Y004571D01*
X028233Y004571D02*
X028233Y004849D01*
X028186Y004849D01*
X028005Y004710D02*
X028005Y004571D01*
X027866Y004571D01*
X027820Y004618D01*
X027866Y004664D01*
X028005Y004664D01*
X028005Y004710D02*
X027959Y004756D01*
X027866Y004756D01*
X028430Y004756D02*
X028477Y004756D01*
X028919Y005040D02*
X028919Y005226D01*
X029011Y005318D01*
X029104Y005226D01*
X029104Y005040D01*
X029104Y005179D02*
X028919Y005179D01*
X028738Y005179D02*
X028552Y005179D01*
X026067Y004756D02*
X025928Y004664D01*
X026067Y004571D01*
X025928Y004571D02*
X025928Y004849D01*
X025731Y004849D02*
X025731Y004895D01*
X025731Y004756D02*
X025731Y004571D01*
X025777Y004571D02*
X025684Y004571D01*
X025503Y004571D02*
X025503Y004849D01*
X025318Y004849D02*
X025503Y004571D01*
X025318Y004571D02*
X025318Y004849D01*
X025684Y004756D02*
X025731Y004756D01*
X024801Y004618D02*
X024754Y004618D01*
X024754Y004571D01*
X024801Y004571D01*
X024801Y004618D01*
X024801Y004571D02*
X024708Y004479D01*
X024527Y004618D02*
X024527Y004803D01*
X024342Y004618D01*
X024388Y004571D01*
X024481Y004571D01*
X024527Y004618D01*
X024527Y004803D02*
X024481Y004849D01*
X024388Y004849D01*
X024342Y004803D01*
X024342Y004618D01*
X024205Y004618D02*
X024205Y004571D01*
X024159Y004571D01*
X024159Y004618D01*
X024205Y004618D01*
X023978Y004571D02*
X023793Y004571D01*
X023885Y004571D02*
X023885Y004849D01*
X023793Y004756D01*
X023612Y004664D02*
X023612Y004849D01*
X023612Y004664D02*
X023519Y004571D01*
X023426Y004664D01*
X023426Y004849D01*
X024937Y005318D02*
X024937Y005365D01*
X026121Y007031D02*
X026122Y007031D01*
D14*
X026221Y006831D01*
X026021Y006831D02*
X026121Y007031D01*
X026122Y007031D02*
X026122Y005855D01*
X026121Y005831D02*
X027421Y005831D01*
X027221Y005731D01*
X027221Y005931D02*
X027421Y005831D01*
X026934Y005532D02*
X026706Y005512D01*
X026713Y005521D02*
X026749Y005660D01*
X026706Y005511D02*
X026739Y005524D01*
X026771Y005539D01*
X026801Y005558D01*
X026828Y005581D01*
X026854Y005606D01*
X026876Y005633D01*
X026895Y005663D01*
X026911Y005695D01*
X026923Y005729D01*
X026931Y005763D01*
X026936Y005798D01*
X026937Y005834D01*
X026934Y005869D01*
X026927Y005904D01*
X026917Y005938D01*
X026902Y005970D01*
X026885Y006001D01*
X026864Y006030D01*
X026840Y006056D01*
X026814Y006080D01*
X026785Y006100D01*
X026754Y006118D01*
X026721Y006132D01*
X026421Y006331D02*
X026274Y006366D01*
X026421Y006331D02*
X026421Y006531D01*
X026421Y006331D02*
X026408Y006363D01*
X026392Y006393D01*
X026373Y006422D01*
X026351Y006448D01*
X026326Y006471D01*
X026299Y006492D01*
X026269Y006510D01*
X026238Y006524D01*
X026206Y006535D01*
X026172Y006543D01*
X026138Y006547D01*
X026104Y006547D01*
X026070Y006543D01*
X026036Y006535D01*
X026004Y006524D01*
X025973Y006510D01*
X025943Y006492D01*
X025916Y006471D01*
X025891Y006448D01*
X025869Y006422D01*
X025850Y006393D01*
X025834Y006363D01*
X025821Y006331D01*
X025172Y006316D02*
X024765Y006330D01*
X024828Y006491D02*
X025128Y006173D01*
X024978Y006122D02*
X024978Y006528D01*
X025135Y006486D02*
X024824Y006164D01*
X024931Y006002D02*
X024776Y005930D01*
X024776Y005932D02*
X024925Y005791D01*
X024764Y005934D02*
X024801Y005915D01*
X024839Y005900D01*
X024878Y005889D01*
X024918Y005881D01*
X024959Y005877D01*
X024999Y005877D01*
X025040Y005881D01*
X025080Y005889D01*
X025119Y005900D01*
X025157Y005915D01*
X025194Y005934D01*
X025228Y005956D01*
X025261Y005981D01*
X025290Y006009D01*
X025317Y006039D01*
X025341Y006072D01*
X025362Y006107D01*
X025380Y006144D01*
X025394Y006183D01*
X025404Y006222D01*
X025410Y006263D01*
X025413Y006303D01*
X025412Y006344D01*
X025407Y006385D01*
X025398Y006425D01*
X025385Y006464D01*
X025369Y006501D01*
X025350Y006537D01*
X025327Y006571D01*
X025301Y006602D01*
X025272Y006631D01*
X025241Y006657D01*
X025207Y006680D01*
X025171Y006700D01*
X025134Y006717D01*
X025095Y006729D01*
X025055Y006738D01*
X025015Y006744D01*
X024974Y006745D01*
X024933Y006743D01*
X024893Y006736D01*
X024853Y006726D01*
X024814Y006713D01*
X024777Y006695D01*
X024742Y006675D01*
X024709Y006651D01*
X024678Y006624D01*
X024650Y006594D01*
X024625Y006562D01*
X024603Y006528D01*
X024584Y006491D01*
X024569Y006454D01*
X024558Y006414D01*
X024550Y006374D01*
X024546Y006334D01*
X026529Y007277D02*
X026583Y007279D01*
X026637Y007284D01*
X026690Y007293D01*
X026743Y007306D01*
X026794Y007322D01*
X026844Y007342D01*
X026893Y007365D01*
X026941Y007391D01*
X026986Y007420D01*
X027029Y007453D01*
X027070Y007488D01*
X027109Y007526D01*
X027145Y007566D01*
X027178Y007609D01*
X027208Y007654D01*
X027235Y007701D01*
X027224Y008474D02*
X027194Y008522D01*
X027161Y008567D01*
X027125Y008610D01*
X027087Y008651D01*
X027045Y008688D01*
X027001Y008723D01*
X026955Y008754D01*
X026906Y008783D01*
X026856Y008807D01*
X026804Y008828D01*
X026750Y008846D01*
X026696Y008859D01*
X026641Y008869D01*
X026585Y008875D01*
X026529Y008877D01*
X026476Y008875D01*
X026422Y008870D01*
X026370Y008861D01*
X026318Y008849D01*
X026267Y008833D01*
X026217Y008814D01*
X026168Y008791D01*
X026121Y008765D01*
X026076Y008737D01*
X026033Y008705D01*
X025993Y008671D01*
X025954Y008633D01*
X025918Y008594D01*
X025914Y007565D02*
X025950Y007525D01*
X025989Y007487D01*
X026030Y007452D01*
X026073Y007420D01*
X026118Y007390D01*
X026165Y007364D01*
X026214Y007342D01*
X026265Y007322D01*
X026316Y007306D01*
X026368Y007293D01*
X026422Y007284D01*
X026475Y007279D01*
X026529Y007277D01*
X025511Y009958D02*
X025481Y010006D01*
X025448Y010051D01*
X025412Y010094D01*
X025374Y010135D01*
X025332Y010172D01*
X025288Y010207D01*
X025242Y010238D01*
X025193Y010267D01*
X025143Y010291D01*
X025091Y010312D01*
X025037Y010330D01*
X024983Y010343D01*
X024928Y010353D01*
X024872Y010359D01*
X024816Y010361D01*
X025522Y009185D02*
X025495Y009138D01*
X025465Y009093D01*
X025432Y009050D01*
X025396Y009010D01*
X025357Y008972D01*
X025316Y008937D01*
X025273Y008904D01*
X025228Y008875D01*
X025180Y008849D01*
X025131Y008826D01*
X025081Y008806D01*
X025030Y008790D01*
X024977Y008777D01*
X024924Y008768D01*
X024870Y008763D01*
X024816Y008761D01*
X024205Y010078D02*
X024241Y010117D01*
X024280Y010155D01*
X024320Y010189D01*
X024363Y010221D01*
X024408Y010249D01*
X024455Y010275D01*
X024504Y010298D01*
X024554Y010317D01*
X024605Y010333D01*
X024657Y010345D01*
X024709Y010354D01*
X024763Y010359D01*
X024816Y010361D01*
X024201Y009049D02*
X024237Y009009D01*
X024276Y008971D01*
X024317Y008936D01*
X024360Y008904D01*
X024405Y008874D01*
X024452Y008848D01*
X024501Y008826D01*
X024552Y008806D01*
X024603Y008790D01*
X024655Y008777D01*
X024709Y008768D01*
X024762Y008763D01*
X024816Y008761D01*
D15*
X025363Y005950D02*
X025463Y005950D01*
X025463Y005925D01*
X025363Y005825D01*
X025363Y005800D01*
X025463Y005800D01*
X019640Y012843D02*
X019590Y012843D01*
X019564Y012868D01*
X019665Y012968D01*
X019665Y012868D01*
X019640Y012843D01*
X019564Y012868D02*
X019564Y012968D01*
X019590Y012993D01*
X019640Y012993D01*
X019665Y012968D01*
X019517Y012843D02*
X019417Y012843D01*
X019467Y012843D02*
X019467Y012993D01*
X019417Y012943D01*
X019370Y012968D02*
X019345Y012993D01*
X019295Y012993D01*
X019270Y012968D01*
X019270Y012868D01*
X019295Y012843D01*
X019345Y012843D01*
X019370Y012868D01*
D16*
X013670Y010020D02*
X013670Y009220D01*
X005390Y009423D02*
X005390Y008623D01*
X002852Y007635D02*
X000798Y007635D01*
X000798Y011179D01*
X002852Y011179D01*
X002852Y007635D01*
X002907Y005762D02*
X002907Y004962D01*
X001964Y004248D02*
X001674Y004248D01*
X002584Y003818D02*
X002584Y003598D01*
X002584Y002258D02*
X002584Y002018D01*
X001964Y001678D02*
X001644Y001678D01*
X014895Y003598D02*
X015695Y003598D01*
X022735Y006328D02*
X023535Y006328D01*
X005520Y010839D02*
X004969Y010839D01*
X004969Y011902D01*
X005520Y011902D01*
X005520Y010839D01*
D17*
X005141Y010642D02*
X005141Y010495D01*
X005141Y010421D02*
X005068Y010348D01*
X005068Y010385D02*
X005068Y010274D01*
X005141Y010274D02*
X004921Y010274D01*
X004921Y010385D01*
X004958Y010421D01*
X005031Y010421D01*
X005068Y010385D01*
X004994Y010495D02*
X004921Y010569D01*
X005141Y010569D01*
X004894Y011120D02*
X004894Y011194D01*
X004894Y011157D02*
X004674Y011157D01*
X004674Y011120D02*
X004674Y011194D01*
X004710Y011268D02*
X004857Y011268D01*
X004894Y011304D01*
X004894Y011378D01*
X004857Y011415D01*
X004894Y011489D02*
X004894Y011636D01*
X004894Y011562D02*
X004674Y011562D01*
X004747Y011489D01*
X004710Y011415D02*
X004674Y011378D01*
X004674Y011304D01*
X004710Y011268D01*
X005210Y012402D02*
X005321Y012402D01*
X005357Y012439D01*
X005357Y012586D01*
X005321Y012622D01*
X005210Y012622D01*
X005210Y012402D01*
X005431Y012402D02*
X005578Y012402D01*
X005505Y012402D02*
X005505Y012622D01*
X005431Y012549D01*
X006571Y011338D02*
X006571Y011228D01*
X006608Y011191D01*
X006644Y011191D01*
X006681Y011228D01*
X006681Y011338D01*
X006571Y011338D02*
X006791Y011338D01*
X006791Y011228D01*
X006754Y011191D01*
X006718Y011191D01*
X006681Y011228D01*
X006681Y011117D02*
X006681Y010970D01*
X006718Y010970D02*
X006571Y010970D01*
X006571Y011117D02*
X006718Y011117D01*
X006791Y011043D01*
X006718Y010970D01*
X006791Y010896D02*
X006791Y010749D01*
X006791Y010822D02*
X006571Y010822D01*
X006681Y010675D02*
X006681Y010528D01*
X006754Y010601D02*
X006608Y010601D01*
X006622Y010083D02*
X006585Y010083D01*
X006548Y010046D01*
X006548Y009936D01*
X006622Y009936D01*
X006658Y009973D01*
X006658Y010046D01*
X006622Y010083D01*
X006475Y010010D02*
X006548Y009936D01*
X006475Y010010D02*
X006438Y010083D01*
X006475Y009862D02*
X006438Y009825D01*
X006438Y009752D01*
X006475Y009715D01*
X006622Y009715D01*
X006658Y009752D01*
X006658Y009825D01*
X006622Y009862D01*
X006637Y009483D02*
X006600Y009447D01*
X006600Y009373D01*
X006637Y009337D01*
X006637Y009262D02*
X006600Y009226D01*
X006600Y009152D01*
X006637Y009116D01*
X006783Y009116D01*
X006820Y009152D01*
X006820Y009226D01*
X006783Y009262D01*
X006820Y009337D02*
X006673Y009483D01*
X006637Y009483D01*
X006820Y009483D02*
X006820Y009337D01*
X007501Y009353D02*
X007501Y009243D01*
X007721Y009243D01*
X007721Y009353D01*
X007685Y009390D01*
X007538Y009390D01*
X007501Y009353D01*
X007611Y009464D02*
X007611Y009611D01*
X007611Y009685D02*
X007611Y009832D01*
X007575Y009832D02*
X007721Y009832D01*
X007575Y009832D02*
X007501Y009758D01*
X007575Y009685D01*
X007721Y009685D01*
X007721Y009169D02*
X007501Y009169D01*
X007501Y009022D02*
X007721Y009169D01*
X007721Y009022D02*
X007501Y009022D01*
X007538Y008948D02*
X007501Y008911D01*
X007501Y008838D01*
X007538Y008801D01*
X007685Y008801D01*
X007721Y008838D01*
X007721Y008911D01*
X007685Y008948D01*
X007611Y008948D01*
X007611Y008874D01*
X008305Y008280D02*
X008378Y008353D01*
X008525Y008353D01*
X008415Y008353D02*
X008415Y008206D01*
X008378Y008206D02*
X008305Y008280D01*
X008378Y008206D02*
X008525Y008206D01*
X008415Y008132D02*
X008415Y007985D01*
X008342Y007911D02*
X008305Y007874D01*
X008305Y007801D01*
X008342Y007764D01*
X008488Y007764D01*
X008525Y007801D01*
X008525Y007874D01*
X008488Y007911D01*
X008488Y007690D02*
X008525Y007653D01*
X008525Y007580D01*
X008488Y007543D01*
X008342Y007543D01*
X008305Y007580D01*
X008305Y007653D01*
X008342Y007690D01*
X008305Y007469D02*
X008452Y007469D01*
X008525Y007396D01*
X008452Y007322D01*
X008305Y007322D01*
X008383Y006853D02*
X008530Y006853D01*
X008420Y006853D02*
X008420Y006707D01*
X008383Y006707D02*
X008310Y006780D01*
X008383Y006853D01*
X008383Y006707D02*
X008530Y006707D01*
X008420Y006632D02*
X008420Y006486D01*
X008530Y006411D02*
X008310Y006265D01*
X008346Y006190D02*
X008420Y006190D01*
X008457Y006154D01*
X008457Y006044D01*
X008530Y006044D02*
X008310Y006044D01*
X008310Y006154D01*
X008346Y006190D01*
X008457Y006117D02*
X008530Y006190D01*
X008530Y006265D02*
X008310Y006411D01*
X007774Y005520D02*
X007627Y005520D01*
X007554Y005446D01*
X007627Y005373D01*
X007774Y005373D01*
X007664Y005373D02*
X007664Y005520D01*
X007664Y005299D02*
X007664Y005152D01*
X007554Y005078D02*
X007554Y004931D01*
X007554Y005004D02*
X007774Y005004D01*
X007737Y004857D02*
X007774Y004820D01*
X007774Y004747D01*
X007737Y004710D01*
X007664Y004747D02*
X007664Y004820D01*
X007701Y004857D01*
X007737Y004857D01*
X007664Y004747D02*
X007627Y004710D01*
X007591Y004710D01*
X007554Y004747D01*
X007554Y004820D01*
X007591Y004857D01*
X007591Y004636D02*
X007664Y004636D01*
X007701Y004599D01*
X007701Y004489D01*
X007774Y004489D02*
X007554Y004489D01*
X007554Y004599D01*
X007591Y004636D01*
X007701Y004562D02*
X007774Y004636D01*
X007554Y004415D02*
X007774Y004268D01*
X006917Y004677D02*
X006917Y004751D01*
X006880Y004787D01*
X006697Y004787D01*
X006770Y004862D02*
X006697Y004935D01*
X006917Y004935D01*
X006917Y004862D02*
X006917Y005008D01*
X006917Y004677D02*
X006880Y004641D01*
X006697Y004641D01*
X006093Y005289D02*
X006093Y005362D01*
X006093Y005325D02*
X005872Y005325D01*
X005872Y005289D02*
X005872Y005362D01*
X005909Y005436D02*
X006056Y005436D01*
X006093Y005473D01*
X006093Y005546D01*
X006056Y005583D01*
X006093Y005657D02*
X005946Y005804D01*
X005909Y005804D01*
X005872Y005767D01*
X005872Y005694D01*
X005909Y005657D01*
X005909Y005583D02*
X005872Y005546D01*
X005872Y005473D01*
X005909Y005436D01*
X006093Y005657D02*
X006093Y005804D01*
X006692Y006856D02*
X006692Y007003D01*
X006692Y006929D02*
X006913Y006929D01*
X006913Y007077D02*
X006692Y007224D01*
X006802Y007298D02*
X006802Y007445D01*
X006802Y007519D02*
X006802Y007666D01*
X006766Y007666D02*
X006913Y007666D01*
X006913Y007519D02*
X006766Y007519D01*
X006692Y007592D01*
X006766Y007666D01*
X006913Y007224D02*
X006692Y007077D01*
X004028Y005631D02*
X004028Y005485D01*
X004028Y005558D02*
X003808Y005558D01*
X003881Y005485D01*
X003844Y005410D02*
X003808Y005374D01*
X003808Y005300D01*
X003844Y005264D01*
X003991Y005264D01*
X004028Y005300D01*
X004028Y005374D01*
X003991Y005410D01*
X004000Y004587D02*
X004110Y004587D01*
X004146Y004550D01*
X004146Y004477D01*
X004110Y004440D01*
X004000Y004440D01*
X004073Y004440D02*
X004146Y004367D01*
X004221Y004367D02*
X004367Y004514D01*
X004367Y004550D01*
X004331Y004587D01*
X004257Y004587D01*
X004221Y004550D01*
X004221Y004367D02*
X004367Y004367D01*
X004000Y004367D02*
X004000Y004587D01*
X003977Y003700D02*
X004088Y003700D01*
X004124Y003664D01*
X004124Y003590D01*
X004088Y003553D01*
X003977Y003553D01*
X003977Y003480D02*
X003977Y003700D01*
X004051Y003553D02*
X004124Y003480D01*
X004198Y003517D02*
X004235Y003480D01*
X004308Y003480D01*
X004345Y003517D01*
X004345Y003553D01*
X004308Y003590D01*
X004272Y003590D01*
X004308Y003590D02*
X004345Y003627D01*
X004345Y003664D01*
X004308Y003700D01*
X004235Y003700D01*
X004198Y003664D01*
X002914Y003563D02*
X002694Y003563D01*
X002694Y003673D01*
X002731Y003710D01*
X002804Y003710D01*
X002841Y003673D01*
X002841Y003563D01*
X002877Y003452D02*
X002694Y003452D01*
X002694Y003416D02*
X002694Y003489D01*
X002877Y003452D02*
X002914Y003416D01*
X002914Y003379D01*
X002877Y003342D01*
X002877Y003784D02*
X002914Y003821D01*
X002914Y003894D01*
X002877Y003931D01*
X002841Y003931D01*
X002804Y003894D01*
X002804Y003858D01*
X002804Y003894D02*
X002767Y003931D01*
X002731Y003931D01*
X002694Y003894D01*
X002694Y003821D01*
X002731Y003784D01*
X004001Y002803D02*
X004001Y002656D01*
X004037Y002619D01*
X004111Y002619D01*
X004147Y002656D01*
X004222Y002656D02*
X004222Y002693D01*
X004258Y002729D01*
X004332Y002729D01*
X004368Y002693D01*
X004368Y002656D01*
X004332Y002619D01*
X004258Y002619D01*
X004222Y002656D01*
X004258Y002729D02*
X004222Y002766D01*
X004222Y002803D01*
X004258Y002840D01*
X004332Y002840D01*
X004368Y002803D01*
X004368Y002766D01*
X004332Y002729D01*
X004147Y002803D02*
X004111Y002840D01*
X004037Y002840D01*
X004001Y002803D01*
X008445Y002361D02*
X008445Y002288D01*
X008482Y002251D01*
X008519Y002251D01*
X008556Y002288D01*
X008556Y002398D01*
X008629Y002398D02*
X008482Y002398D01*
X008445Y002361D01*
X008482Y002177D02*
X008445Y002140D01*
X008445Y002067D01*
X008482Y002030D01*
X008629Y002030D01*
X008666Y002067D01*
X008666Y002140D01*
X008629Y002177D01*
X008629Y002251D02*
X008666Y002288D01*
X008666Y002361D01*
X008629Y002398D01*
X011511Y002221D02*
X011658Y002442D01*
X011732Y002442D02*
X011842Y002442D01*
X011879Y002405D01*
X011879Y002332D01*
X011842Y002295D01*
X011732Y002295D01*
X011805Y002295D02*
X011879Y002221D01*
X011953Y002258D02*
X011989Y002221D01*
X012063Y002221D01*
X012100Y002258D01*
X012100Y002295D01*
X012063Y002332D01*
X011989Y002332D01*
X011953Y002368D01*
X011953Y002405D01*
X011989Y002442D01*
X012063Y002442D01*
X012100Y002405D01*
X012174Y002442D02*
X012321Y002442D01*
X012247Y002442D02*
X012247Y002221D01*
X012395Y002332D02*
X012542Y002332D01*
X012616Y002332D02*
X012726Y002332D01*
X012763Y002295D01*
X012763Y002258D01*
X012726Y002221D01*
X012616Y002221D01*
X012616Y002442D01*
X012726Y002442D01*
X012763Y002405D01*
X012763Y002368D01*
X012726Y002332D01*
X012731Y002857D02*
X012877Y003077D01*
X012952Y002967D02*
X013098Y002967D01*
X013173Y002967D02*
X013283Y002967D01*
X013319Y002930D01*
X013319Y002893D01*
X013283Y002857D01*
X013173Y002857D01*
X013173Y003077D01*
X013283Y003077D01*
X013319Y003040D01*
X013319Y003003D01*
X013283Y002967D01*
X012877Y002857D02*
X012731Y003077D01*
X012656Y003040D02*
X012656Y002967D01*
X012620Y002930D01*
X012510Y002930D01*
X012583Y002930D02*
X012656Y002857D01*
X012510Y002857D02*
X012510Y003077D01*
X012620Y003077D01*
X012656Y003040D01*
X012708Y003399D02*
X012598Y003399D01*
X012598Y003619D01*
X012708Y003619D01*
X012745Y003583D01*
X012745Y003546D01*
X012708Y003509D01*
X012598Y003509D01*
X012524Y003509D02*
X012377Y003509D01*
X012303Y003399D02*
X012156Y003619D01*
X012082Y003619D02*
X011935Y003619D01*
X012009Y003619D02*
X012009Y003399D01*
X012156Y003399D02*
X012303Y003619D01*
X012708Y003509D02*
X012745Y003473D01*
X012745Y003436D01*
X012708Y003399D01*
X012727Y004042D02*
X012801Y004042D01*
X012837Y004079D01*
X012912Y004152D02*
X013058Y004152D01*
X013133Y004152D02*
X013243Y004152D01*
X013279Y004115D01*
X013279Y004079D01*
X013243Y004042D01*
X013133Y004042D01*
X013133Y004262D01*
X013243Y004262D01*
X013279Y004225D01*
X013279Y004189D01*
X013243Y004152D01*
X012837Y004225D02*
X012801Y004262D01*
X012727Y004262D01*
X012691Y004225D01*
X012691Y004079D01*
X012727Y004042D01*
X012616Y004079D02*
X012580Y004042D01*
X012506Y004042D01*
X012470Y004079D01*
X012470Y004225D01*
X012506Y004262D01*
X012580Y004262D01*
X012616Y004225D01*
X012395Y004262D02*
X012395Y004115D01*
X012322Y004042D01*
X012249Y004115D01*
X012249Y004262D01*
X012225Y004628D02*
X012225Y004848D01*
X012372Y004628D01*
X012372Y004848D01*
X012446Y004848D02*
X012556Y004848D01*
X012593Y004812D01*
X012593Y004665D01*
X012556Y004628D01*
X012446Y004628D01*
X012446Y004848D01*
X012667Y004738D02*
X012814Y004738D01*
X012888Y004738D02*
X012998Y004738D01*
X013035Y004702D01*
X013035Y004665D01*
X012998Y004628D01*
X012888Y004628D01*
X012888Y004848D01*
X012998Y004848D01*
X013035Y004812D01*
X013035Y004775D01*
X012998Y004738D01*
X012151Y004738D02*
X012078Y004738D01*
X012151Y004738D02*
X012151Y004665D01*
X012114Y004628D01*
X012041Y004628D01*
X012004Y004665D01*
X012004Y004812D01*
X012041Y004848D01*
X012114Y004848D01*
X012151Y004812D01*
X014573Y003591D02*
X014610Y003628D01*
X014646Y003628D01*
X014683Y003591D01*
X014720Y003628D01*
X014756Y003628D01*
X014793Y003591D01*
X014793Y003518D01*
X014756Y003481D01*
X014756Y003407D02*
X014793Y003370D01*
X014793Y003297D01*
X014756Y003260D01*
X014610Y003260D01*
X014573Y003297D01*
X014573Y003370D01*
X014610Y003407D01*
X014610Y003481D02*
X014573Y003518D01*
X014573Y003591D01*
X014683Y003591D02*
X014683Y003554D01*
X016654Y003525D02*
X016654Y003378D01*
X016764Y003378D01*
X016727Y003451D01*
X016727Y003488D01*
X016764Y003525D01*
X016837Y003525D01*
X016874Y003488D01*
X016874Y003415D01*
X016837Y003378D01*
X016837Y003304D02*
X016874Y003267D01*
X016874Y003194D01*
X016837Y003157D01*
X016690Y003157D01*
X016654Y003194D01*
X016654Y003267D01*
X016690Y003304D01*
X017403Y004750D02*
X017403Y004970D01*
X017513Y004970D01*
X017549Y004934D01*
X017549Y004860D01*
X017513Y004823D01*
X017403Y004823D01*
X017476Y004823D02*
X017549Y004750D01*
X017624Y004750D02*
X017770Y004750D01*
X017697Y004750D02*
X017697Y004970D01*
X017624Y004897D01*
X017845Y004934D02*
X017845Y004787D01*
X017991Y004934D01*
X017991Y004787D01*
X017955Y004750D01*
X017881Y004750D01*
X017845Y004787D01*
X017845Y004934D02*
X017881Y004970D01*
X017955Y004970D01*
X017991Y004934D01*
X021726Y005597D02*
X021799Y005597D01*
X021762Y005597D02*
X021762Y005817D01*
X021726Y005817D02*
X021799Y005817D01*
X021873Y005780D02*
X021873Y005633D01*
X021910Y005597D01*
X021983Y005597D01*
X022020Y005633D01*
X022094Y005707D02*
X022241Y005707D01*
X022204Y005597D02*
X022204Y005817D01*
X022094Y005707D01*
X022020Y005780D02*
X021983Y005817D01*
X021910Y005817D01*
X021873Y005780D01*
X022373Y006306D02*
X022410Y006269D01*
X022556Y006269D01*
X022593Y006306D01*
X022593Y006379D01*
X022556Y006416D01*
X022483Y006490D02*
X022483Y006637D01*
X022373Y006600D02*
X022483Y006490D01*
X022410Y006416D02*
X022373Y006379D01*
X022373Y006306D01*
X022373Y006600D02*
X022593Y006600D01*
X022615Y007837D02*
X022651Y007874D01*
X022615Y007837D02*
X022541Y007837D01*
X022505Y007874D01*
X022505Y008021D01*
X022541Y008058D01*
X022615Y008058D01*
X022651Y008021D01*
X022726Y007984D02*
X022799Y008058D01*
X022799Y007837D01*
X022726Y007837D02*
X022872Y007837D01*
X022947Y007948D02*
X023093Y007948D01*
X023057Y008058D02*
X023057Y007837D01*
X022947Y007948D02*
X023057Y008058D01*
X024456Y007391D02*
X024566Y007391D01*
X024603Y007354D01*
X024603Y007281D01*
X024566Y007244D01*
X024456Y007244D01*
X024456Y007171D02*
X024456Y007391D01*
X024529Y007244D02*
X024603Y007171D01*
X024677Y007208D02*
X024714Y007171D01*
X024787Y007171D01*
X024824Y007208D01*
X024824Y007244D01*
X024787Y007281D01*
X024677Y007281D01*
X024677Y007208D01*
X024677Y007281D02*
X024750Y007354D01*
X024824Y007391D01*
X025580Y008264D02*
X025690Y008264D01*
X025727Y008301D01*
X025727Y008448D01*
X025690Y008485D01*
X025580Y008485D01*
X025580Y008264D01*
X025801Y008301D02*
X025838Y008264D01*
X025911Y008264D01*
X025948Y008301D01*
X025948Y008338D01*
X025911Y008374D01*
X025801Y008374D01*
X025801Y008301D01*
X025801Y008374D02*
X025875Y008448D01*
X025948Y008485D01*
X024207Y010328D02*
X024207Y010365D01*
X024354Y010512D01*
X024354Y010548D01*
X024207Y010548D01*
X024133Y010512D02*
X024096Y010548D01*
X023986Y010548D01*
X023986Y010328D01*
X024096Y010328D01*
X024133Y010365D01*
X024133Y010512D01*
X021645Y011349D02*
X021499Y011349D01*
X021645Y011496D01*
X021645Y011532D01*
X021609Y011569D01*
X021535Y011569D01*
X021499Y011532D01*
X021424Y011459D02*
X021278Y011459D01*
X021203Y011569D02*
X021203Y011349D01*
X021057Y011349D02*
X021057Y011569D01*
X021130Y011496D01*
X021203Y011569D01*
X020982Y011569D02*
X020836Y011569D01*
X020836Y011349D01*
X020836Y011459D02*
X020909Y011459D01*
X019555Y011968D02*
X019555Y012115D01*
X019518Y012151D01*
X019445Y012151D01*
X019408Y012115D01*
X019408Y012078D01*
X019445Y012041D01*
X019555Y012041D01*
X019555Y011968D02*
X019518Y011931D01*
X019445Y011931D01*
X019408Y011968D01*
X019334Y011931D02*
X019261Y012005D01*
X019297Y012005D02*
X019187Y012005D01*
X019187Y011931D02*
X019187Y012151D01*
X019297Y012151D01*
X019334Y012115D01*
X019334Y012041D01*
X019297Y012005D01*
X020275Y012605D02*
X020275Y012825D01*
X020422Y012825D01*
X020496Y012825D02*
X020569Y012752D01*
X020643Y012825D01*
X020643Y012605D01*
X020717Y012715D02*
X020864Y012715D01*
X020938Y012752D02*
X021011Y012825D01*
X021011Y012605D01*
X020938Y012605D02*
X021085Y012605D01*
X020496Y012605D02*
X020496Y012825D01*
X020348Y012715D02*
X020275Y012715D01*
X019978Y013044D02*
X019832Y013044D01*
X019978Y013191D01*
X019978Y013227D01*
X019942Y013264D01*
X019868Y013264D01*
X019832Y013227D01*
X019757Y013154D02*
X019611Y013154D01*
X019537Y013044D02*
X019463Y013044D01*
X019500Y013044D02*
X019500Y013264D01*
X019463Y013264D02*
X019537Y013264D01*
X019389Y013264D02*
X019242Y013264D01*
X019242Y013044D01*
X019242Y013154D02*
X019316Y013154D01*
X019218Y014372D02*
X019218Y014592D01*
X019365Y014592D01*
X019439Y014592D02*
X019513Y014592D01*
X019476Y014592D02*
X019476Y014372D01*
X019439Y014372D02*
X019513Y014372D01*
X019587Y014482D02*
X019733Y014482D01*
X019808Y014518D02*
X019881Y014592D01*
X019881Y014372D01*
X019808Y014372D02*
X019954Y014372D01*
X019292Y014482D02*
X019218Y014482D01*
X019231Y010744D02*
X019267Y010744D01*
X019304Y010707D01*
X019304Y010634D01*
X019267Y010597D01*
X019231Y010597D01*
X019194Y010634D01*
X019194Y010707D01*
X019231Y010744D01*
X019194Y010707D02*
X019157Y010744D01*
X019121Y010744D01*
X019084Y010707D01*
X019084Y010634D01*
X019121Y010597D01*
X019157Y010597D01*
X019194Y010634D01*
X019194Y010523D02*
X019231Y010486D01*
X019231Y010376D01*
X019304Y010376D02*
X019084Y010376D01*
X019084Y010486D01*
X019121Y010523D01*
X019194Y010523D01*
X019231Y010449D02*
X019304Y010523D01*
X020641Y010273D02*
X020641Y010200D01*
X020677Y010163D01*
X020751Y010237D02*
X020751Y010273D01*
X020787Y010310D01*
X020824Y010310D01*
X020861Y010273D01*
X020861Y010200D01*
X020824Y010163D01*
X020861Y010089D02*
X020861Y009942D01*
X020861Y010016D02*
X020641Y010016D01*
X020714Y009942D01*
X020677Y009868D02*
X020641Y009831D01*
X020641Y009758D01*
X020677Y009721D01*
X020824Y009721D01*
X020861Y009758D01*
X020861Y009831D01*
X020824Y009868D01*
X020751Y010273D02*
X020714Y010310D01*
X020677Y010310D01*
X020641Y010273D01*
X017878Y007853D02*
X017878Y007816D01*
X017731Y007669D01*
X017731Y007633D01*
X017657Y007633D02*
X017583Y007706D01*
X017620Y007706D02*
X017510Y007706D01*
X017510Y007633D02*
X017510Y007853D01*
X017620Y007853D01*
X017657Y007816D01*
X017657Y007743D01*
X017620Y007706D01*
X017731Y007853D02*
X017878Y007853D01*
X014046Y007701D02*
X014046Y007554D01*
X013900Y007701D01*
X013863Y007701D01*
X013826Y007664D01*
X013826Y007591D01*
X013863Y007554D01*
X013936Y007480D02*
X013936Y007333D01*
X013826Y007259D02*
X013826Y007112D01*
X013826Y007185D02*
X014046Y007185D01*
X013936Y006964D02*
X013936Y006891D01*
X013826Y006891D02*
X013826Y007038D01*
X013826Y006891D02*
X014046Y006891D01*
X013426Y006910D02*
X013206Y006910D01*
X013206Y007057D01*
X013206Y007131D02*
X013206Y007278D01*
X013206Y007205D02*
X013426Y007205D01*
X013316Y007352D02*
X013316Y007499D01*
X013279Y007573D02*
X013206Y007647D01*
X013426Y007647D01*
X013426Y007720D02*
X013426Y007573D01*
X013316Y006984D02*
X013316Y006910D01*
X007673Y010476D02*
X007673Y010623D01*
X007783Y010697D02*
X007783Y010844D01*
X007783Y010770D02*
X007563Y010770D01*
X007563Y010918D02*
X007709Y010918D01*
X007783Y010991D01*
X007709Y011065D01*
X007563Y011065D01*
X007599Y011139D02*
X007563Y011176D01*
X007563Y011286D01*
X007783Y011286D01*
X007783Y011176D01*
X007746Y011139D01*
X007709Y011139D01*
X007673Y011176D01*
X007673Y011286D01*
X007673Y011176D02*
X007636Y011139D01*
X007599Y011139D01*
X007673Y011065D02*
X007673Y010918D01*
X001711Y011242D02*
X001564Y011242D01*
X001711Y011389D01*
X001711Y011426D01*
X001674Y011462D01*
X001601Y011462D01*
X001564Y011426D01*
X001490Y011426D02*
X001490Y011352D01*
X001453Y011316D01*
X001343Y011316D01*
X001343Y011242D02*
X001343Y011462D01*
X001453Y011462D01*
X001490Y011426D01*
X001269Y011462D02*
X001196Y011462D01*
X001232Y011462D02*
X001232Y011279D01*
X001196Y011242D01*
X001159Y011242D01*
X001122Y011279D01*
X013602Y018834D02*
X013671Y018809D01*
X013636Y018822D02*
X013711Y019029D01*
X013677Y019041D02*
X013746Y019016D01*
X013803Y018957D02*
X013753Y018819D01*
X013775Y018772D01*
X013844Y018746D01*
X013891Y018768D01*
X013960Y018743D02*
X013982Y018696D01*
X014051Y018671D01*
X014098Y018693D01*
X014111Y018727D01*
X014089Y018774D01*
X014054Y018787D01*
X014089Y018774D02*
X014136Y018796D01*
X014148Y018831D01*
X014126Y018878D01*
X014058Y018903D01*
X014010Y018881D01*
X013941Y018906D02*
X013919Y018953D01*
X013850Y018978D01*
X013803Y018957D01*
X011732Y002442D02*
X011732Y002221D01*
D18*
X014822Y002463D02*
X014822Y003054D01*
X014822Y002463D02*
X015767Y002463D01*
X015767Y003054D01*
X015767Y003841D02*
X015767Y004275D01*
X015610Y004432D01*
X014980Y004432D01*
X014822Y004275D01*
X014822Y003841D01*
X018312Y005533D02*
X018312Y007502D01*
X021658Y007502D01*
X021658Y005533D01*
X018312Y005533D01*
X021297Y007218D02*
X021299Y007236D01*
X021305Y007254D01*
X021314Y007270D01*
X021326Y007283D01*
X021341Y007294D01*
X021358Y007302D01*
X021376Y007306D01*
X021394Y007306D01*
X021412Y007302D01*
X021429Y007294D01*
X021444Y007283D01*
X021456Y007270D01*
X021465Y007254D01*
X021471Y007236D01*
X021473Y007218D01*
X021471Y007200D01*
X021465Y007182D01*
X021456Y007166D01*
X021444Y007153D01*
X021429Y007142D01*
X021412Y007134D01*
X021394Y007130D01*
X021376Y007130D01*
X021358Y007134D01*
X021341Y007142D01*
X021326Y007153D01*
X021314Y007166D01*
X021305Y007182D01*
X021299Y007200D01*
X021297Y007218D01*
X022662Y007462D02*
X022662Y006871D01*
X022662Y007462D02*
X023607Y007462D01*
X023607Y006871D01*
X023607Y006084D02*
X023607Y005651D01*
X023450Y005493D01*
X022820Y005493D01*
X022662Y005651D01*
X022662Y006084D01*
X014805Y009147D02*
X014214Y009147D01*
X014805Y009147D02*
X014805Y010092D01*
X014214Y010092D01*
X013427Y010092D02*
X012994Y010092D01*
X012836Y009935D01*
X012836Y009305D01*
X012994Y009147D01*
X013427Y009147D01*
X016751Y011072D02*
X016986Y010987D01*
X019038Y016625D01*
X018793Y016714D01*
X015054Y018075D02*
X013400Y018677D01*
X011348Y013039D01*
X011601Y012947D01*
X006524Y009495D02*
X005934Y009495D01*
X006524Y009495D02*
X006524Y008551D01*
X005934Y008551D01*
X005146Y008551D02*
X004713Y008551D01*
X004556Y008708D01*
X004556Y009338D01*
X004713Y009495D01*
X005146Y009495D01*
X003866Y007260D02*
X006446Y007260D01*
X006446Y005960D01*
X003866Y005960D01*
X003866Y007260D01*
X003584Y005835D02*
X003151Y005835D01*
X003584Y005835D02*
X003741Y005677D01*
X003741Y005047D01*
X003584Y004890D01*
X003151Y004890D01*
X002363Y004890D02*
X001773Y004890D01*
X001773Y005835D01*
X002363Y005835D01*
X005594Y004435D02*
X005594Y001025D01*
X007134Y001025D01*
X007134Y004435D01*
X005594Y004435D01*
X007313Y001230D02*
X007315Y001244D01*
X007320Y001256D01*
X007329Y001267D01*
X007341Y001275D01*
X007354Y001280D01*
X007367Y001281D01*
X007381Y001278D01*
X007393Y001272D01*
X007404Y001262D01*
X007411Y001250D01*
X007415Y001237D01*
X007415Y001223D01*
X007411Y001210D01*
X007404Y001198D01*
X007393Y001188D01*
X007381Y001182D01*
X007367Y001179D01*
X007354Y001180D01*
X007341Y001185D01*
X007329Y001193D01*
X007320Y001204D01*
X007315Y001216D01*
X007313Y001230D01*
D19*
X022027Y009050D02*
X022027Y010625D01*
X023602Y010625D01*
X023602Y009050D01*
X022027Y009050D01*
D20*
X022106Y009346D03*
X022106Y009542D03*
X022106Y009739D03*
X022106Y009936D03*
X022106Y010133D03*
X022106Y010330D03*
X023523Y010330D03*
X023523Y010133D03*
X023523Y009936D03*
X023523Y009739D03*
X023523Y009542D03*
X023523Y009346D03*
D21*
X023307Y009129D03*
X023110Y009129D03*
X022913Y009129D03*
X022716Y009129D03*
X022520Y009129D03*
X022323Y009129D03*
X022323Y010546D03*
X022520Y010546D03*
X022716Y010546D03*
X022913Y010546D03*
X023110Y010546D03*
X023307Y010546D03*
D22*
X024816Y010161D02*
X024861Y010159D01*
X024907Y010154D01*
X024951Y010146D01*
X024995Y010134D01*
X025038Y010118D01*
X025080Y010100D01*
X025120Y010078D01*
X025158Y010054D01*
X025194Y010027D01*
X025229Y009997D01*
X025260Y009964D01*
X025290Y009929D01*
X024816Y008961D02*
X024769Y008963D01*
X024721Y008969D01*
X024675Y008978D01*
X024629Y008991D01*
X024585Y009007D01*
X024541Y009028D01*
X024500Y009051D01*
X024461Y009077D01*
X024424Y009107D01*
X024389Y009140D01*
X024357Y009175D01*
X024328Y009212D01*
X024816Y008961D02*
X024862Y008963D01*
X024908Y008968D01*
X024954Y008977D01*
X024999Y008989D01*
X025042Y009005D01*
X025084Y009024D01*
X025125Y009047D01*
X025164Y009072D01*
X025200Y009100D01*
X025235Y009131D01*
X025267Y009165D01*
X025296Y009201D01*
X024816Y010161D02*
X024771Y010159D01*
X024725Y010154D01*
X024681Y010146D01*
X024637Y010134D01*
X024594Y010118D01*
X024552Y010100D01*
X024512Y010078D01*
X024474Y010054D01*
X024438Y010027D01*
X024403Y009997D01*
X024372Y009964D01*
X024342Y009929D01*
X026529Y008677D02*
X026574Y008675D01*
X026620Y008670D01*
X026664Y008662D01*
X026708Y008650D01*
X026751Y008634D01*
X026793Y008616D01*
X026833Y008594D01*
X026871Y008570D01*
X026907Y008543D01*
X026942Y008513D01*
X026973Y008480D01*
X027003Y008445D01*
X026529Y007477D02*
X026482Y007479D01*
X026434Y007485D01*
X026388Y007494D01*
X026342Y007507D01*
X026298Y007523D01*
X026254Y007544D01*
X026213Y007567D01*
X026174Y007593D01*
X026137Y007623D01*
X026102Y007656D01*
X026070Y007691D01*
X026041Y007728D01*
X026529Y007477D02*
X026575Y007479D01*
X026621Y007484D01*
X026667Y007493D01*
X026712Y007505D01*
X026755Y007521D01*
X026797Y007540D01*
X026838Y007563D01*
X026877Y007588D01*
X026913Y007616D01*
X026948Y007647D01*
X026980Y007681D01*
X027009Y007717D01*
X026529Y008677D02*
X026484Y008675D01*
X026438Y008670D01*
X026394Y008662D01*
X026350Y008650D01*
X026307Y008634D01*
X026265Y008616D01*
X026225Y008594D01*
X026187Y008570D01*
X026151Y008543D01*
X026116Y008513D01*
X026085Y008480D01*
X026055Y008445D01*
X014095Y004488D02*
X014095Y004388D01*
X014095Y004488D02*
X013995Y004488D01*
X013595Y004488D02*
X013495Y004488D01*
X013495Y004388D01*
X013485Y004478D02*
X013485Y004578D01*
X013485Y004478D02*
X013385Y004478D01*
X012985Y004478D02*
X012885Y004478D01*
X012885Y004578D01*
X012885Y004978D02*
X012885Y005078D01*
X012985Y005078D01*
X013385Y005078D02*
X013485Y005078D01*
X013485Y004978D01*
X013495Y003988D02*
X013495Y003888D01*
X013595Y003888D01*
X013505Y003888D02*
X013405Y003888D01*
X013505Y003888D02*
X013505Y003788D01*
X013005Y003888D02*
X012905Y003888D01*
X012905Y003788D01*
X012905Y003388D02*
X012905Y003288D01*
X013005Y003288D01*
X013405Y003288D02*
X013505Y003288D01*
X013505Y003388D01*
X013515Y003288D02*
X013515Y003188D01*
X013515Y003288D02*
X013615Y003288D01*
X014015Y003288D02*
X014115Y003288D01*
X014115Y003188D01*
X014115Y002788D02*
X014115Y002688D01*
X014015Y002688D01*
X013615Y002688D02*
X013515Y002688D01*
X013515Y002788D01*
X013505Y002698D02*
X013405Y002698D01*
X013505Y002698D02*
X013505Y002598D01*
X013505Y002198D02*
X013505Y002098D01*
X013405Y002098D01*
X013005Y002098D02*
X012905Y002098D01*
X012905Y002198D01*
X012905Y002598D02*
X012905Y002698D01*
X013005Y002698D01*
X013995Y003888D02*
X014095Y003888D01*
X014095Y003988D01*
X008180Y006307D02*
X008180Y006407D01*
X008180Y006307D02*
X008080Y006307D01*
X007680Y006307D02*
X007580Y006307D01*
X007580Y006407D01*
X007570Y006310D02*
X007470Y006310D01*
X007570Y006310D02*
X007570Y006210D01*
X007070Y006310D02*
X006970Y006310D01*
X006970Y006210D01*
X006970Y005810D02*
X006970Y005710D01*
X007070Y005710D01*
X007470Y005710D02*
X007570Y005710D01*
X007570Y005810D01*
X007580Y006807D02*
X007580Y006907D01*
X007680Y006907D01*
X007580Y006905D02*
X007580Y007005D01*
X007580Y006905D02*
X007480Y006905D01*
X007080Y006905D02*
X006980Y006905D01*
X006980Y007005D01*
X006980Y007405D02*
X006980Y007505D01*
X007080Y007505D01*
X007480Y007505D02*
X007580Y007505D01*
X007580Y007405D01*
X007590Y007502D02*
X007690Y007502D01*
X007590Y007502D02*
X007590Y007602D01*
X007590Y008002D02*
X007590Y008102D01*
X007690Y008102D01*
X007590Y008110D02*
X007590Y008210D01*
X007590Y008110D02*
X007490Y008110D01*
X007090Y008110D02*
X006990Y008110D01*
X006990Y008210D01*
X006990Y008610D02*
X006990Y008710D01*
X007090Y008710D01*
X007490Y008710D02*
X007590Y008710D01*
X007590Y008610D01*
X008090Y008102D02*
X008190Y008102D01*
X008190Y008002D01*
X008190Y007602D02*
X008190Y007502D01*
X008090Y007502D01*
X008080Y006907D02*
X008180Y006907D01*
X008180Y006807D01*
X007912Y011477D02*
X007812Y011477D01*
X007912Y011477D02*
X007912Y011577D01*
X007412Y011477D02*
X007312Y011477D01*
X007312Y011577D01*
X006977Y011586D02*
X006977Y011486D01*
X006877Y011486D01*
X006477Y011486D02*
X006377Y011486D01*
X006377Y011586D01*
X006377Y011986D02*
X006377Y012086D01*
X006477Y012086D01*
X006877Y012086D02*
X006977Y012086D01*
X006977Y011986D01*
X007312Y011977D02*
X007312Y012077D01*
X007412Y012077D01*
X007812Y012077D02*
X007912Y012077D01*
X007912Y011977D01*
D23*
X005824Y009823D02*
X005824Y009799D01*
X016403Y003378D02*
X016427Y003378D01*
X008230Y002108D02*
X008206Y002108D01*
X004177Y002339D02*
X004177Y002363D01*
X021081Y010042D02*
X021105Y010042D01*
X022735Y008340D02*
X022735Y008316D01*
X019615Y012526D02*
X019615Y012550D01*
M02*
