G75*
%MOIN*%
%OFA0B0*%
%FSLAX24Y24*%
%IPPOS*%
%LPD*%
%AMOC8*
5,1,8,0,0,1.08239X$1,22.5*
%
%ADD10C,0.0160*%
%ADD11C,0.0000*%
%ADD12R,0.0433X0.0217*%
%ADD13C,0.0320*%
%ADD14R,0.0335X0.0150*%
%ADD15R,0.0150X0.0335*%
%ADD16R,0.0137X0.0550*%
%ADD17R,0.0450X0.0150*%
%ADD18R,0.0276X0.0354*%
%ADD19OC8,0.0630*%
%ADD20R,0.0551X0.0630*%
%ADD21R,0.0630X0.0551*%
%ADD22R,0.0394X0.0433*%
%ADD23R,0.0433X0.0394*%
%ADD24R,0.0256X0.0197*%
%ADD25R,0.0276X0.0197*%
%ADD26R,0.0354X0.0276*%
%ADD27R,0.0500X0.1000*%
%ADD28R,0.1000X0.0500*%
%ADD29OC8,0.0520*%
%ADD30R,0.0480X0.0880*%
%ADD31R,0.1417X0.0866*%
%ADD32C,0.0660*%
%ADD33C,0.0394*%
%ADD34R,0.0531X0.0157*%
%ADD35R,0.0748X0.0591*%
%ADD36R,0.0500X0.0800*%
%ADD37C,0.0488*%
%ADD38C,0.0120*%
%ADD39C,0.0400*%
%ADD40C,0.0310*%
%ADD41C,0.0100*%
%ADD42C,0.0240*%
%ADD43C,0.0400*%
D10*
X000600Y000318D02*
X008867Y000318D01*
X008867Y012917D01*
X000600Y012917D01*
X000600Y000318D01*
X004511Y002351D02*
X004940Y002853D01*
X005309Y002855D01*
X005309Y003105D01*
X005309Y003355D01*
X005642Y003349D01*
X005834Y003540D01*
X005834Y004770D01*
X005534Y005070D01*
X007270Y006010D02*
X007534Y006010D01*
X007664Y005880D01*
X007660Y004710D01*
X008212Y003951D01*
X008218Y002443D01*
X008218Y001774D02*
X008150Y001599D01*
X007419Y001605D01*
X006485Y001914D02*
X006164Y001600D01*
X005408Y001600D01*
X006485Y001914D02*
X006475Y006326D01*
X007280Y007205D01*
X006066Y007830D02*
X006078Y008241D01*
X006091Y009023D02*
X006151Y009098D01*
X005152Y009040D02*
X004989Y009023D01*
X004992Y010489D02*
X004698Y010746D01*
X004693Y011016D01*
X004992Y010489D02*
X005532Y010489D01*
X012309Y008438D02*
X013109Y009138D01*
X013645Y009138D01*
X013925Y009548D01*
X013925Y011378D01*
X014299Y012348D01*
X013829Y012519D02*
X013485Y011553D01*
X014815Y010938D02*
X014815Y009138D01*
X014415Y008738D01*
X013209Y008738D01*
X012709Y008238D01*
X012709Y004184D01*
X013205Y003588D01*
X013205Y002848D02*
X013236Y002745D01*
X012330Y003852D01*
X012309Y008438D01*
X013715Y006742D02*
X013715Y005704D01*
X013185Y004778D01*
X015106Y004188D02*
X015295Y003999D01*
X015581Y003712D01*
X016415Y003712D01*
X016515Y003812D01*
X016515Y004838D01*
X016515Y005638D01*
X016672Y005795D01*
X017459Y005795D01*
X017557Y005795D01*
X018577Y007957D02*
X017042Y009291D01*
X017215Y009038D02*
X016315Y009038D01*
X015985Y009368D01*
X015979Y010230D01*
X014815Y010938D02*
X015239Y012006D01*
X022400Y008328D02*
X022411Y008296D01*
X022415Y008313D02*
X022400Y008328D01*
X022415Y008313D02*
X022415Y007338D01*
X022724Y007029D01*
X023135Y007029D01*
X024445Y007601D02*
X024445Y006314D01*
X024445Y006208D01*
X024164Y005927D01*
X023135Y005927D01*
X021581Y005905D01*
X021401Y005725D01*
X021392Y005078D01*
X021385Y005478D02*
X021325Y005538D01*
X021579Y004152D02*
X012504Y000294D01*
X012457Y000278D01*
X012404Y000253D01*
X012350Y000232D01*
X012295Y000214D01*
X012238Y000200D01*
X012181Y000190D01*
X012123Y000183D01*
X012065Y000180D01*
X012006Y000181D01*
X011948Y000186D01*
X011890Y000194D01*
X011833Y000206D01*
X011777Y000221D01*
X011722Y000241D01*
X011669Y000263D01*
X011616Y000289D01*
X011566Y000319D01*
X011518Y000351D01*
X011472Y000387D01*
X011428Y000425D01*
X011387Y000466D01*
X011348Y000510D01*
X011312Y000556D01*
X011280Y000605D01*
X011250Y000655D01*
X011224Y000707D01*
X013205Y002398D02*
X013205Y002848D01*
X021580Y004157D02*
X021659Y004193D01*
X021739Y004225D01*
X021821Y004254D01*
X021904Y004279D01*
X021988Y004301D01*
X022073Y004319D01*
X022159Y004333D01*
X022245Y004343D01*
X022332Y004349D01*
X022418Y004352D01*
X022505Y004351D01*
X022592Y004346D01*
X022678Y004337D01*
X022764Y004324D01*
X022849Y004308D01*
X022934Y004288D01*
X023017Y004264D01*
X023099Y004236D01*
X023180Y004205D01*
X023260Y004170D01*
X023338Y004132D01*
X023414Y004091D01*
X023488Y004046D01*
X023561Y003998D01*
X023631Y003947D01*
X023698Y003892D01*
X023764Y003835D01*
X023826Y003775D01*
X026378Y000829D01*
X026378Y000828D02*
X026405Y000801D01*
X026436Y000777D01*
X026468Y000756D01*
X026502Y000738D01*
X026538Y000723D01*
X026575Y000712D01*
X026613Y000704D01*
X026652Y000701D01*
X026691Y000700D01*
X026729Y000704D01*
X026767Y000711D01*
X026805Y000722D01*
X026841Y000736D01*
X026875Y000754D01*
X026908Y000775D01*
X026938Y000799D01*
X026966Y000826D01*
X026991Y000855D01*
X027014Y000887D01*
X027033Y000921D01*
X027031Y000924D02*
X029154Y005992D01*
X029154Y005991D02*
X029179Y006055D01*
X029200Y006120D01*
X029217Y006186D01*
X029230Y006253D01*
X029240Y006321D01*
X029245Y006389D01*
X029247Y006458D01*
X029245Y006526D01*
X029239Y006594D01*
X029228Y006662D01*
X029215Y006728D01*
X029197Y006795D01*
X029175Y006859D01*
X029150Y006923D01*
X029121Y006985D01*
X029089Y007045D01*
X029053Y007104D01*
X029014Y007160D01*
X028972Y007214D01*
X028927Y007265D01*
X028879Y007314D01*
X028678Y007507D01*
X027029Y008077D02*
X026572Y007605D01*
X024941Y007605D01*
X024941Y007920D02*
X024958Y007938D01*
X025215Y007938D01*
X025415Y008138D01*
X025415Y009538D01*
X025316Y009561D01*
X022716Y009060D02*
X022715Y009059D01*
X024445Y007601D02*
X024449Y007605D01*
X012071Y018109D02*
X012104Y018190D01*
X012141Y018269D01*
X012181Y018347D01*
X012225Y018423D01*
X012272Y018497D01*
X012322Y018569D01*
X012375Y018639D01*
X012431Y018706D01*
X012490Y018771D01*
X012551Y018834D01*
X012615Y018893D01*
X012682Y018950D01*
X012751Y019004D01*
X012823Y019055D01*
X012896Y019103D01*
X012971Y019147D01*
X015299Y020609D01*
X015280Y020609D02*
X015346Y020640D01*
X015413Y020668D01*
X015482Y020692D01*
X015551Y020712D01*
X015622Y020729D01*
X015694Y020742D01*
X015766Y020751D01*
X015839Y020756D01*
X015912Y020757D01*
X015984Y020754D01*
X016057Y020747D01*
X016129Y020737D01*
X016200Y020722D01*
X016271Y020704D01*
X016340Y020682D01*
X016408Y020656D01*
X016475Y020627D01*
X016540Y020594D01*
X016603Y020558D01*
X016664Y020518D01*
X016723Y020475D01*
X016779Y020429D01*
X016833Y020381D01*
X016884Y020329D01*
X016932Y020274D01*
X012071Y018108D02*
X011829Y017216D01*
X011608Y016317D01*
X011408Y015414D01*
X011231Y014506D01*
X011075Y013595D01*
X010942Y012679D01*
X010830Y011761D01*
X010741Y010840D01*
X010674Y009918D01*
X010629Y008994D01*
X010606Y008069D01*
X010606Y007144D01*
X010627Y006220D01*
X010672Y005296D01*
X010738Y004373D01*
X010827Y003452D01*
X010937Y002534D01*
X011070Y001619D01*
X011225Y000707D01*
X003084Y003450D02*
X002614Y003450D01*
X002314Y003446D01*
X003084Y003450D02*
X003084Y003560D01*
X016931Y020274D02*
X017856Y018991D01*
X018812Y017731D01*
X019797Y016493D01*
X020811Y015280D01*
X021854Y014091D01*
X022925Y012927D01*
X024023Y011789D01*
X025148Y010677D01*
X026299Y009593D01*
X027476Y008536D01*
X028677Y007507D01*
D11*
X027500Y007637D02*
X027502Y007663D01*
X027508Y007689D01*
X027518Y007714D01*
X027531Y007737D01*
X027547Y007757D01*
X027567Y007775D01*
X027589Y007790D01*
X027612Y007802D01*
X027638Y007810D01*
X027664Y007814D01*
X027690Y007814D01*
X027716Y007810D01*
X027742Y007802D01*
X027766Y007790D01*
X027787Y007775D01*
X027807Y007757D01*
X027823Y007737D01*
X027836Y007714D01*
X027846Y007689D01*
X027852Y007663D01*
X027854Y007637D01*
X027852Y007611D01*
X027846Y007585D01*
X027836Y007560D01*
X027823Y007537D01*
X027807Y007517D01*
X027787Y007499D01*
X027765Y007484D01*
X027742Y007472D01*
X027716Y007464D01*
X027690Y007460D01*
X027664Y007460D01*
X027638Y007464D01*
X027612Y007472D01*
X027588Y007484D01*
X027567Y007499D01*
X027547Y007517D01*
X027531Y007537D01*
X027518Y007560D01*
X027508Y007585D01*
X027502Y007611D01*
X027500Y007637D01*
X025766Y009104D02*
X025768Y009130D01*
X025774Y009156D01*
X025784Y009181D01*
X025797Y009204D01*
X025813Y009224D01*
X025833Y009242D01*
X025855Y009257D01*
X025878Y009269D01*
X025904Y009277D01*
X025930Y009281D01*
X025956Y009281D01*
X025982Y009277D01*
X026008Y009269D01*
X026032Y009257D01*
X026053Y009242D01*
X026073Y009224D01*
X026089Y009204D01*
X026102Y009181D01*
X026112Y009156D01*
X026118Y009130D01*
X026120Y009104D01*
X026118Y009078D01*
X026112Y009052D01*
X026102Y009027D01*
X026089Y009004D01*
X026073Y008984D01*
X026053Y008966D01*
X026031Y008951D01*
X026008Y008939D01*
X025982Y008931D01*
X025956Y008927D01*
X025930Y008927D01*
X025904Y008931D01*
X025878Y008939D01*
X025854Y008951D01*
X025833Y008966D01*
X025813Y008984D01*
X025797Y009004D01*
X025784Y009027D01*
X025774Y009052D01*
X025768Y009078D01*
X025766Y009104D01*
X024266Y010851D02*
X024268Y010877D01*
X024274Y010903D01*
X024284Y010928D01*
X024297Y010951D01*
X024313Y010971D01*
X024333Y010989D01*
X024355Y011004D01*
X024378Y011016D01*
X024404Y011024D01*
X024430Y011028D01*
X024456Y011028D01*
X024482Y011024D01*
X024508Y011016D01*
X024532Y011004D01*
X024553Y010989D01*
X024573Y010971D01*
X024589Y010951D01*
X024602Y010928D01*
X024612Y010903D01*
X024618Y010877D01*
X024620Y010851D01*
X024618Y010825D01*
X024612Y010799D01*
X024602Y010774D01*
X024589Y010751D01*
X024573Y010731D01*
X024553Y010713D01*
X024531Y010698D01*
X024508Y010686D01*
X024482Y010678D01*
X024456Y010674D01*
X024430Y010674D01*
X024404Y010678D01*
X024378Y010686D01*
X024354Y010698D01*
X024333Y010713D01*
X024313Y010731D01*
X024297Y010751D01*
X024284Y010774D01*
X024274Y010799D01*
X024268Y010825D01*
X024266Y010851D01*
X022453Y012504D02*
X022455Y012530D01*
X022461Y012556D01*
X022471Y012581D01*
X022484Y012604D01*
X022500Y012624D01*
X022520Y012642D01*
X022542Y012657D01*
X022565Y012669D01*
X022591Y012677D01*
X022617Y012681D01*
X022643Y012681D01*
X022669Y012677D01*
X022695Y012669D01*
X022719Y012657D01*
X022740Y012642D01*
X022760Y012624D01*
X022776Y012604D01*
X022789Y012581D01*
X022799Y012556D01*
X022805Y012530D01*
X022807Y012504D01*
X022805Y012478D01*
X022799Y012452D01*
X022789Y012427D01*
X022776Y012404D01*
X022760Y012384D01*
X022740Y012366D01*
X022718Y012351D01*
X022695Y012339D01*
X022669Y012331D01*
X022643Y012327D01*
X022617Y012327D01*
X022591Y012331D01*
X022565Y012339D01*
X022541Y012351D01*
X022520Y012366D01*
X022500Y012384D01*
X022484Y012404D01*
X022471Y012427D01*
X022461Y012452D01*
X022455Y012478D01*
X022453Y012504D01*
X021413Y013603D02*
X021415Y013629D01*
X021421Y013655D01*
X021431Y013680D01*
X021444Y013703D01*
X021460Y013723D01*
X021480Y013741D01*
X021502Y013756D01*
X021525Y013768D01*
X021551Y013776D01*
X021577Y013780D01*
X021603Y013780D01*
X021629Y013776D01*
X021655Y013768D01*
X021679Y013756D01*
X021700Y013741D01*
X021720Y013723D01*
X021736Y013703D01*
X021749Y013680D01*
X021759Y013655D01*
X021765Y013629D01*
X021767Y013603D01*
X021765Y013577D01*
X021759Y013551D01*
X021749Y013526D01*
X021736Y013503D01*
X021720Y013483D01*
X021700Y013465D01*
X021678Y013450D01*
X021655Y013438D01*
X021629Y013430D01*
X021603Y013426D01*
X021577Y013426D01*
X021551Y013430D01*
X021525Y013438D01*
X021501Y013450D01*
X021480Y013465D01*
X021460Y013483D01*
X021444Y013503D01*
X021431Y013526D01*
X021421Y013551D01*
X021415Y013577D01*
X021413Y013603D01*
X020299Y014998D02*
X020301Y015024D01*
X020307Y015050D01*
X020317Y015075D01*
X020330Y015098D01*
X020346Y015118D01*
X020366Y015136D01*
X020388Y015151D01*
X020411Y015163D01*
X020437Y015171D01*
X020463Y015175D01*
X020489Y015175D01*
X020515Y015171D01*
X020541Y015163D01*
X020565Y015151D01*
X020586Y015136D01*
X020606Y015118D01*
X020622Y015098D01*
X020635Y015075D01*
X020645Y015050D01*
X020651Y015024D01*
X020653Y014998D01*
X020651Y014972D01*
X020645Y014946D01*
X020635Y014921D01*
X020622Y014898D01*
X020606Y014878D01*
X020586Y014860D01*
X020564Y014845D01*
X020541Y014833D01*
X020515Y014825D01*
X020489Y014821D01*
X020463Y014821D01*
X020437Y014825D01*
X020411Y014833D01*
X020387Y014845D01*
X020366Y014860D01*
X020346Y014878D01*
X020330Y014898D01*
X020317Y014921D01*
X020307Y014946D01*
X020301Y014972D01*
X020299Y014998D01*
X019318Y015979D02*
X019320Y016005D01*
X019326Y016031D01*
X019336Y016056D01*
X019349Y016079D01*
X019365Y016099D01*
X019385Y016117D01*
X019407Y016132D01*
X019430Y016144D01*
X019456Y016152D01*
X019482Y016156D01*
X019508Y016156D01*
X019534Y016152D01*
X019560Y016144D01*
X019584Y016132D01*
X019605Y016117D01*
X019625Y016099D01*
X019641Y016079D01*
X019654Y016056D01*
X019664Y016031D01*
X019670Y016005D01*
X019672Y015979D01*
X019670Y015953D01*
X019664Y015927D01*
X019654Y015902D01*
X019641Y015879D01*
X019625Y015859D01*
X019605Y015841D01*
X019583Y015826D01*
X019560Y015814D01*
X019534Y015806D01*
X019508Y015802D01*
X019482Y015802D01*
X019456Y015806D01*
X019430Y015814D01*
X019406Y015826D01*
X019385Y015841D01*
X019365Y015859D01*
X019349Y015879D01*
X019336Y015902D01*
X019326Y015927D01*
X019320Y015953D01*
X019318Y015979D01*
X012745Y018389D02*
X012747Y018415D01*
X012753Y018441D01*
X012763Y018466D01*
X012776Y018489D01*
X012792Y018509D01*
X012812Y018527D01*
X012834Y018542D01*
X012857Y018554D01*
X012883Y018562D01*
X012909Y018566D01*
X012935Y018566D01*
X012961Y018562D01*
X012987Y018554D01*
X013011Y018542D01*
X013032Y018527D01*
X013052Y018509D01*
X013068Y018489D01*
X013081Y018466D01*
X013091Y018441D01*
X013097Y018415D01*
X013099Y018389D01*
X013097Y018363D01*
X013091Y018337D01*
X013081Y018312D01*
X013068Y018289D01*
X013052Y018269D01*
X013032Y018251D01*
X013010Y018236D01*
X012987Y018224D01*
X012961Y018216D01*
X012935Y018212D01*
X012909Y018212D01*
X012883Y018216D01*
X012857Y018224D01*
X012833Y018236D01*
X012812Y018251D01*
X012792Y018269D01*
X012776Y018289D01*
X012763Y018312D01*
X012753Y018337D01*
X012747Y018363D01*
X012745Y018389D01*
X015575Y020116D02*
X015577Y020142D01*
X015583Y020168D01*
X015593Y020193D01*
X015606Y020216D01*
X015622Y020236D01*
X015642Y020254D01*
X015664Y020269D01*
X015687Y020281D01*
X015713Y020289D01*
X015739Y020293D01*
X015765Y020293D01*
X015791Y020289D01*
X015817Y020281D01*
X015841Y020269D01*
X015862Y020254D01*
X015882Y020236D01*
X015898Y020216D01*
X015911Y020193D01*
X015921Y020168D01*
X015927Y020142D01*
X015929Y020116D01*
X015927Y020090D01*
X015921Y020064D01*
X015911Y020039D01*
X015898Y020016D01*
X015882Y019996D01*
X015862Y019978D01*
X015840Y019963D01*
X015817Y019951D01*
X015791Y019943D01*
X015765Y019939D01*
X015739Y019939D01*
X015713Y019943D01*
X015687Y019951D01*
X015663Y019963D01*
X015642Y019978D01*
X015622Y019996D01*
X015606Y020016D01*
X015593Y020039D01*
X015583Y020064D01*
X015577Y020090D01*
X015575Y020116D01*
X011947Y016341D02*
X011949Y016367D01*
X011955Y016393D01*
X011965Y016418D01*
X011978Y016441D01*
X011994Y016461D01*
X012014Y016479D01*
X012036Y016494D01*
X012059Y016506D01*
X012085Y016514D01*
X012111Y016518D01*
X012137Y016518D01*
X012163Y016514D01*
X012189Y016506D01*
X012213Y016494D01*
X012234Y016479D01*
X012254Y016461D01*
X012270Y016441D01*
X012283Y016418D01*
X012293Y016393D01*
X012299Y016367D01*
X012301Y016341D01*
X012299Y016315D01*
X012293Y016289D01*
X012283Y016264D01*
X012270Y016241D01*
X012254Y016221D01*
X012234Y016203D01*
X012212Y016188D01*
X012189Y016176D01*
X012163Y016168D01*
X012137Y016164D01*
X012111Y016164D01*
X012085Y016168D01*
X012059Y016176D01*
X012035Y016188D01*
X012014Y016203D01*
X011994Y016221D01*
X011978Y016241D01*
X011965Y016264D01*
X011955Y016289D01*
X011949Y016315D01*
X011947Y016341D01*
X008017Y012553D02*
X008019Y012579D01*
X008025Y012605D01*
X008035Y012630D01*
X008048Y012653D01*
X008064Y012673D01*
X008084Y012691D01*
X008106Y012706D01*
X008129Y012718D01*
X008155Y012726D01*
X008181Y012730D01*
X008207Y012730D01*
X008233Y012726D01*
X008259Y012718D01*
X008283Y012706D01*
X008304Y012691D01*
X008324Y012673D01*
X008340Y012653D01*
X008353Y012630D01*
X008363Y012605D01*
X008369Y012579D01*
X008371Y012553D01*
X008369Y012527D01*
X008363Y012501D01*
X008353Y012476D01*
X008340Y012453D01*
X008324Y012433D01*
X008304Y012415D01*
X008282Y012400D01*
X008259Y012388D01*
X008233Y012380D01*
X008207Y012376D01*
X008181Y012376D01*
X008155Y012380D01*
X008129Y012388D01*
X008105Y012400D01*
X008084Y012415D01*
X008064Y012433D01*
X008048Y012453D01*
X008035Y012476D01*
X008025Y012501D01*
X008019Y012527D01*
X008017Y012553D01*
X005927Y012520D02*
X005929Y012546D01*
X005935Y012572D01*
X005945Y012597D01*
X005958Y012620D01*
X005974Y012640D01*
X005994Y012658D01*
X006016Y012673D01*
X006039Y012685D01*
X006065Y012693D01*
X006091Y012697D01*
X006117Y012697D01*
X006143Y012693D01*
X006169Y012685D01*
X006193Y012673D01*
X006214Y012658D01*
X006234Y012640D01*
X006250Y012620D01*
X006263Y012597D01*
X006273Y012572D01*
X006279Y012546D01*
X006281Y012520D01*
X006279Y012494D01*
X006273Y012468D01*
X006263Y012443D01*
X006250Y012420D01*
X006234Y012400D01*
X006214Y012382D01*
X006192Y012367D01*
X006169Y012355D01*
X006143Y012347D01*
X006117Y012343D01*
X006091Y012343D01*
X006065Y012347D01*
X006039Y012355D01*
X006015Y012367D01*
X005994Y012382D01*
X005974Y012400D01*
X005958Y012420D01*
X005945Y012443D01*
X005935Y012468D01*
X005929Y012494D01*
X005927Y012520D01*
X002801Y012458D02*
X002803Y012484D01*
X002809Y012510D01*
X002819Y012535D01*
X002832Y012558D01*
X002848Y012578D01*
X002868Y012596D01*
X002890Y012611D01*
X002913Y012623D01*
X002939Y012631D01*
X002965Y012635D01*
X002991Y012635D01*
X003017Y012631D01*
X003043Y012623D01*
X003067Y012611D01*
X003088Y012596D01*
X003108Y012578D01*
X003124Y012558D01*
X003137Y012535D01*
X003147Y012510D01*
X003153Y012484D01*
X003155Y012458D01*
X003153Y012432D01*
X003147Y012406D01*
X003137Y012381D01*
X003124Y012358D01*
X003108Y012338D01*
X003088Y012320D01*
X003066Y012305D01*
X003043Y012293D01*
X003017Y012285D01*
X002991Y012281D01*
X002965Y012281D01*
X002939Y012285D01*
X002913Y012293D01*
X002889Y012305D01*
X002868Y012320D01*
X002848Y012338D01*
X002832Y012358D01*
X002819Y012381D01*
X002809Y012406D01*
X002803Y012432D01*
X002801Y012458D01*
X000849Y012406D02*
X000851Y012432D01*
X000857Y012458D01*
X000867Y012483D01*
X000880Y012506D01*
X000896Y012526D01*
X000916Y012544D01*
X000938Y012559D01*
X000961Y012571D01*
X000987Y012579D01*
X001013Y012583D01*
X001039Y012583D01*
X001065Y012579D01*
X001091Y012571D01*
X001115Y012559D01*
X001136Y012544D01*
X001156Y012526D01*
X001172Y012506D01*
X001185Y012483D01*
X001195Y012458D01*
X001201Y012432D01*
X001203Y012406D01*
X001201Y012380D01*
X001195Y012354D01*
X001185Y012329D01*
X001172Y012306D01*
X001156Y012286D01*
X001136Y012268D01*
X001114Y012253D01*
X001091Y012241D01*
X001065Y012233D01*
X001039Y012229D01*
X001013Y012229D01*
X000987Y012233D01*
X000961Y012241D01*
X000937Y012253D01*
X000916Y012268D01*
X000896Y012286D01*
X000880Y012306D01*
X000867Y012329D01*
X000857Y012354D01*
X000851Y012380D01*
X000849Y012406D01*
X000849Y011606D02*
X000851Y011632D01*
X000857Y011658D01*
X000867Y011683D01*
X000880Y011706D01*
X000896Y011726D01*
X000916Y011744D01*
X000938Y011759D01*
X000961Y011771D01*
X000987Y011779D01*
X001013Y011783D01*
X001039Y011783D01*
X001065Y011779D01*
X001091Y011771D01*
X001115Y011759D01*
X001136Y011744D01*
X001156Y011726D01*
X001172Y011706D01*
X001185Y011683D01*
X001195Y011658D01*
X001201Y011632D01*
X001203Y011606D01*
X001201Y011580D01*
X001195Y011554D01*
X001185Y011529D01*
X001172Y011506D01*
X001156Y011486D01*
X001136Y011468D01*
X001114Y011453D01*
X001091Y011441D01*
X001065Y011433D01*
X001039Y011429D01*
X001013Y011429D01*
X000987Y011433D01*
X000961Y011441D01*
X000937Y011453D01*
X000916Y011468D01*
X000896Y011486D01*
X000880Y011506D01*
X000867Y011529D01*
X000857Y011554D01*
X000851Y011580D01*
X000849Y011606D01*
X008297Y010948D02*
X008299Y010974D01*
X008305Y011000D01*
X008315Y011025D01*
X008328Y011048D01*
X008344Y011068D01*
X008364Y011086D01*
X008386Y011101D01*
X008409Y011113D01*
X008435Y011121D01*
X008461Y011125D01*
X008487Y011125D01*
X008513Y011121D01*
X008539Y011113D01*
X008563Y011101D01*
X008584Y011086D01*
X008604Y011068D01*
X008620Y011048D01*
X008633Y011025D01*
X008643Y011000D01*
X008649Y010974D01*
X008651Y010948D01*
X008649Y010922D01*
X008643Y010896D01*
X008633Y010871D01*
X008620Y010848D01*
X008604Y010828D01*
X008584Y010810D01*
X008562Y010795D01*
X008539Y010783D01*
X008513Y010775D01*
X008487Y010771D01*
X008461Y010771D01*
X008435Y010775D01*
X008409Y010783D01*
X008385Y010795D01*
X008364Y010810D01*
X008344Y010828D01*
X008328Y010848D01*
X008315Y010871D01*
X008305Y010896D01*
X008299Y010922D01*
X008297Y010948D01*
X008297Y009267D02*
X008299Y009293D01*
X008305Y009319D01*
X008315Y009344D01*
X008328Y009367D01*
X008344Y009387D01*
X008364Y009405D01*
X008386Y009420D01*
X008409Y009432D01*
X008435Y009440D01*
X008461Y009444D01*
X008487Y009444D01*
X008513Y009440D01*
X008539Y009432D01*
X008563Y009420D01*
X008584Y009405D01*
X008604Y009387D01*
X008620Y009367D01*
X008633Y009344D01*
X008643Y009319D01*
X008649Y009293D01*
X008651Y009267D01*
X008649Y009241D01*
X008643Y009215D01*
X008633Y009190D01*
X008620Y009167D01*
X008604Y009147D01*
X008584Y009129D01*
X008562Y009114D01*
X008539Y009102D01*
X008513Y009094D01*
X008487Y009090D01*
X008461Y009090D01*
X008435Y009094D01*
X008409Y009102D01*
X008385Y009114D01*
X008364Y009129D01*
X008344Y009147D01*
X008328Y009167D01*
X008315Y009190D01*
X008305Y009215D01*
X008299Y009241D01*
X008297Y009267D01*
X010975Y008271D02*
X010977Y008297D01*
X010983Y008323D01*
X010993Y008348D01*
X011006Y008371D01*
X011022Y008391D01*
X011042Y008409D01*
X011064Y008424D01*
X011087Y008436D01*
X011113Y008444D01*
X011139Y008448D01*
X011165Y008448D01*
X011191Y008444D01*
X011217Y008436D01*
X011241Y008424D01*
X011262Y008409D01*
X011282Y008391D01*
X011298Y008371D01*
X011311Y008348D01*
X011321Y008323D01*
X011327Y008297D01*
X011329Y008271D01*
X011327Y008245D01*
X011321Y008219D01*
X011311Y008194D01*
X011298Y008171D01*
X011282Y008151D01*
X011262Y008133D01*
X011240Y008118D01*
X011217Y008106D01*
X011191Y008098D01*
X011165Y008094D01*
X011139Y008094D01*
X011113Y008098D01*
X011087Y008106D01*
X011063Y008118D01*
X011042Y008133D01*
X011022Y008151D01*
X011006Y008171D01*
X010993Y008194D01*
X010983Y008219D01*
X010977Y008245D01*
X010975Y008271D01*
X011207Y011455D02*
X011209Y011481D01*
X011215Y011507D01*
X011225Y011532D01*
X011238Y011555D01*
X011254Y011575D01*
X011274Y011593D01*
X011296Y011608D01*
X011319Y011620D01*
X011345Y011628D01*
X011371Y011632D01*
X011397Y011632D01*
X011423Y011628D01*
X011449Y011620D01*
X011473Y011608D01*
X011494Y011593D01*
X011514Y011575D01*
X011530Y011555D01*
X011543Y011532D01*
X011553Y011507D01*
X011559Y011481D01*
X011561Y011455D01*
X011559Y011429D01*
X011553Y011403D01*
X011543Y011378D01*
X011530Y011355D01*
X011514Y011335D01*
X011494Y011317D01*
X011472Y011302D01*
X011449Y011290D01*
X011423Y011282D01*
X011397Y011278D01*
X011371Y011278D01*
X011345Y011282D01*
X011319Y011290D01*
X011295Y011302D01*
X011274Y011317D01*
X011254Y011335D01*
X011238Y011355D01*
X011225Y011378D01*
X011215Y011403D01*
X011209Y011429D01*
X011207Y011455D01*
X000816Y007011D02*
X000818Y007037D01*
X000824Y007063D01*
X000834Y007088D01*
X000847Y007111D01*
X000863Y007131D01*
X000883Y007149D01*
X000905Y007164D01*
X000928Y007176D01*
X000954Y007184D01*
X000980Y007188D01*
X001006Y007188D01*
X001032Y007184D01*
X001058Y007176D01*
X001082Y007164D01*
X001103Y007149D01*
X001123Y007131D01*
X001139Y007111D01*
X001152Y007088D01*
X001162Y007063D01*
X001168Y007037D01*
X001170Y007011D01*
X001168Y006985D01*
X001162Y006959D01*
X001152Y006934D01*
X001139Y006911D01*
X001123Y006891D01*
X001103Y006873D01*
X001081Y006858D01*
X001058Y006846D01*
X001032Y006838D01*
X001006Y006834D01*
X000980Y006834D01*
X000954Y006838D01*
X000928Y006846D01*
X000904Y006858D01*
X000883Y006873D01*
X000863Y006891D01*
X000847Y006911D01*
X000834Y006934D01*
X000824Y006959D01*
X000818Y006985D01*
X000816Y007011D01*
X000816Y005043D02*
X000818Y005069D01*
X000824Y005095D01*
X000834Y005120D01*
X000847Y005143D01*
X000863Y005163D01*
X000883Y005181D01*
X000905Y005196D01*
X000928Y005208D01*
X000954Y005216D01*
X000980Y005220D01*
X001006Y005220D01*
X001032Y005216D01*
X001058Y005208D01*
X001082Y005196D01*
X001103Y005181D01*
X001123Y005163D01*
X001139Y005143D01*
X001152Y005120D01*
X001162Y005095D01*
X001168Y005069D01*
X001170Y005043D01*
X001168Y005017D01*
X001162Y004991D01*
X001152Y004966D01*
X001139Y004943D01*
X001123Y004923D01*
X001103Y004905D01*
X001081Y004890D01*
X001058Y004878D01*
X001032Y004870D01*
X001006Y004866D01*
X000980Y004866D01*
X000954Y004870D01*
X000928Y004878D01*
X000904Y004890D01*
X000883Y004905D01*
X000863Y004923D01*
X000847Y004943D01*
X000834Y004966D01*
X000824Y004991D01*
X000818Y005017D01*
X000816Y005043D01*
X000816Y000712D02*
X000818Y000738D01*
X000824Y000764D01*
X000834Y000789D01*
X000847Y000812D01*
X000863Y000832D01*
X000883Y000850D01*
X000905Y000865D01*
X000928Y000877D01*
X000954Y000885D01*
X000980Y000889D01*
X001006Y000889D01*
X001032Y000885D01*
X001058Y000877D01*
X001082Y000865D01*
X001103Y000850D01*
X001123Y000832D01*
X001139Y000812D01*
X001152Y000789D01*
X001162Y000764D01*
X001168Y000738D01*
X001170Y000712D01*
X001168Y000686D01*
X001162Y000660D01*
X001152Y000635D01*
X001139Y000612D01*
X001123Y000592D01*
X001103Y000574D01*
X001081Y000559D01*
X001058Y000547D01*
X001032Y000539D01*
X001006Y000535D01*
X000980Y000535D01*
X000954Y000539D01*
X000928Y000547D01*
X000904Y000559D01*
X000883Y000574D01*
X000863Y000592D01*
X000847Y000612D01*
X000834Y000635D01*
X000824Y000660D01*
X000818Y000686D01*
X000816Y000712D01*
X003200Y000728D02*
X003202Y000754D01*
X003208Y000780D01*
X003218Y000805D01*
X003231Y000828D01*
X003247Y000848D01*
X003267Y000866D01*
X003289Y000881D01*
X003312Y000893D01*
X003338Y000901D01*
X003364Y000905D01*
X003390Y000905D01*
X003416Y000901D01*
X003442Y000893D01*
X003466Y000881D01*
X003487Y000866D01*
X003507Y000848D01*
X003523Y000828D01*
X003536Y000805D01*
X003546Y000780D01*
X003552Y000754D01*
X003554Y000728D01*
X003552Y000702D01*
X003546Y000676D01*
X003536Y000651D01*
X003523Y000628D01*
X003507Y000608D01*
X003487Y000590D01*
X003465Y000575D01*
X003442Y000563D01*
X003416Y000555D01*
X003390Y000551D01*
X003364Y000551D01*
X003338Y000555D01*
X003312Y000563D01*
X003288Y000575D01*
X003267Y000590D01*
X003247Y000608D01*
X003231Y000628D01*
X003218Y000651D01*
X003208Y000676D01*
X003202Y000702D01*
X003200Y000728D01*
X005287Y000712D02*
X005289Y000738D01*
X005295Y000764D01*
X005305Y000789D01*
X005318Y000812D01*
X005334Y000832D01*
X005354Y000850D01*
X005376Y000865D01*
X005399Y000877D01*
X005425Y000885D01*
X005451Y000889D01*
X005477Y000889D01*
X005503Y000885D01*
X005529Y000877D01*
X005553Y000865D01*
X005574Y000850D01*
X005594Y000832D01*
X005610Y000812D01*
X005623Y000789D01*
X005633Y000764D01*
X005639Y000738D01*
X005641Y000712D01*
X005639Y000686D01*
X005633Y000660D01*
X005623Y000635D01*
X005610Y000612D01*
X005594Y000592D01*
X005574Y000574D01*
X005552Y000559D01*
X005529Y000547D01*
X005503Y000539D01*
X005477Y000535D01*
X005451Y000535D01*
X005425Y000539D01*
X005399Y000547D01*
X005375Y000559D01*
X005354Y000574D01*
X005334Y000592D01*
X005318Y000612D01*
X005305Y000635D01*
X005295Y000660D01*
X005289Y000686D01*
X005287Y000712D01*
X008297Y000712D02*
X008299Y000738D01*
X008305Y000764D01*
X008315Y000789D01*
X008328Y000812D01*
X008344Y000832D01*
X008364Y000850D01*
X008386Y000865D01*
X008409Y000877D01*
X008435Y000885D01*
X008461Y000889D01*
X008487Y000889D01*
X008513Y000885D01*
X008539Y000877D01*
X008563Y000865D01*
X008584Y000850D01*
X008604Y000832D01*
X008620Y000812D01*
X008633Y000789D01*
X008643Y000764D01*
X008649Y000738D01*
X008651Y000712D01*
X008649Y000686D01*
X008643Y000660D01*
X008633Y000635D01*
X008620Y000612D01*
X008604Y000592D01*
X008584Y000574D01*
X008562Y000559D01*
X008539Y000547D01*
X008513Y000539D01*
X008487Y000535D01*
X008461Y000535D01*
X008435Y000539D01*
X008409Y000547D01*
X008385Y000559D01*
X008364Y000574D01*
X008344Y000592D01*
X008328Y000612D01*
X008315Y000635D01*
X008305Y000660D01*
X008299Y000686D01*
X008297Y000712D01*
X011683Y000912D02*
X011685Y000938D01*
X011691Y000964D01*
X011701Y000989D01*
X011714Y001012D01*
X011730Y001032D01*
X011750Y001050D01*
X011772Y001065D01*
X011795Y001077D01*
X011821Y001085D01*
X011847Y001089D01*
X011873Y001089D01*
X011899Y001085D01*
X011925Y001077D01*
X011949Y001065D01*
X011970Y001050D01*
X011990Y001032D01*
X012006Y001012D01*
X012019Y000989D01*
X012029Y000964D01*
X012035Y000938D01*
X012037Y000912D01*
X012035Y000886D01*
X012029Y000860D01*
X012019Y000835D01*
X012006Y000812D01*
X011990Y000792D01*
X011970Y000774D01*
X011948Y000759D01*
X011925Y000747D01*
X011899Y000739D01*
X011873Y000735D01*
X011847Y000735D01*
X011821Y000739D01*
X011795Y000747D01*
X011771Y000759D01*
X011750Y000774D01*
X011730Y000792D01*
X011714Y000812D01*
X011701Y000835D01*
X011691Y000860D01*
X011685Y000886D01*
X011683Y000912D01*
X014787Y002006D02*
X014789Y002032D01*
X014795Y002058D01*
X014805Y002083D01*
X014818Y002106D01*
X014834Y002126D01*
X014854Y002144D01*
X014876Y002159D01*
X014899Y002171D01*
X014925Y002179D01*
X014951Y002183D01*
X014977Y002183D01*
X015003Y002179D01*
X015029Y002171D01*
X015053Y002159D01*
X015074Y002144D01*
X015094Y002126D01*
X015110Y002106D01*
X015123Y002083D01*
X015133Y002058D01*
X015139Y002032D01*
X015141Y002006D01*
X015139Y001980D01*
X015133Y001954D01*
X015123Y001929D01*
X015110Y001906D01*
X015094Y001886D01*
X015074Y001868D01*
X015052Y001853D01*
X015029Y001841D01*
X015003Y001833D01*
X014977Y001829D01*
X014951Y001829D01*
X014925Y001833D01*
X014899Y001841D01*
X014875Y001853D01*
X014854Y001868D01*
X014834Y001886D01*
X014818Y001906D01*
X014805Y001929D01*
X014795Y001954D01*
X014789Y001980D01*
X014787Y002006D01*
X017150Y002794D02*
X017152Y002820D01*
X017158Y002846D01*
X017168Y002871D01*
X017181Y002894D01*
X017197Y002914D01*
X017217Y002932D01*
X017239Y002947D01*
X017262Y002959D01*
X017288Y002967D01*
X017314Y002971D01*
X017340Y002971D01*
X017366Y002967D01*
X017392Y002959D01*
X017416Y002947D01*
X017437Y002932D01*
X017457Y002914D01*
X017473Y002894D01*
X017486Y002871D01*
X017496Y002846D01*
X017502Y002820D01*
X017504Y002794D01*
X017502Y002768D01*
X017496Y002742D01*
X017486Y002717D01*
X017473Y002694D01*
X017457Y002674D01*
X017437Y002656D01*
X017415Y002641D01*
X017392Y002629D01*
X017366Y002621D01*
X017340Y002617D01*
X017314Y002617D01*
X017288Y002621D01*
X017262Y002629D01*
X017238Y002641D01*
X017217Y002656D01*
X017197Y002674D01*
X017181Y002694D01*
X017168Y002717D01*
X017158Y002742D01*
X017152Y002768D01*
X017150Y002794D01*
X021750Y004797D02*
X021752Y004823D01*
X021758Y004849D01*
X021768Y004874D01*
X021781Y004897D01*
X021797Y004917D01*
X021817Y004935D01*
X021839Y004950D01*
X021862Y004962D01*
X021888Y004970D01*
X021914Y004974D01*
X021940Y004974D01*
X021966Y004970D01*
X021992Y004962D01*
X022016Y004950D01*
X022037Y004935D01*
X022057Y004917D01*
X022073Y004897D01*
X022086Y004874D01*
X022096Y004849D01*
X022102Y004823D01*
X022104Y004797D01*
X022102Y004771D01*
X022096Y004745D01*
X022086Y004720D01*
X022073Y004697D01*
X022057Y004677D01*
X022037Y004659D01*
X022015Y004644D01*
X021992Y004632D01*
X021966Y004624D01*
X021940Y004620D01*
X021914Y004620D01*
X021888Y004624D01*
X021862Y004632D01*
X021838Y004644D01*
X021817Y004659D01*
X021797Y004677D01*
X021781Y004697D01*
X021768Y004720D01*
X021758Y004745D01*
X021752Y004771D01*
X021750Y004797D01*
X024560Y003831D02*
X024562Y003857D01*
X024568Y003883D01*
X024578Y003908D01*
X024591Y003931D01*
X024607Y003951D01*
X024627Y003969D01*
X024649Y003984D01*
X024672Y003996D01*
X024698Y004004D01*
X024724Y004008D01*
X024750Y004008D01*
X024776Y004004D01*
X024802Y003996D01*
X024826Y003984D01*
X024847Y003969D01*
X024867Y003951D01*
X024883Y003931D01*
X024896Y003908D01*
X024906Y003883D01*
X024912Y003857D01*
X024914Y003831D01*
X024912Y003805D01*
X024906Y003779D01*
X024896Y003754D01*
X024883Y003731D01*
X024867Y003711D01*
X024847Y003693D01*
X024825Y003678D01*
X024802Y003666D01*
X024776Y003658D01*
X024750Y003654D01*
X024724Y003654D01*
X024698Y003658D01*
X024672Y003666D01*
X024648Y003678D01*
X024627Y003693D01*
X024607Y003711D01*
X024591Y003731D01*
X024578Y003754D01*
X024568Y003779D01*
X024562Y003805D01*
X024560Y003831D01*
X027278Y003690D02*
X027280Y003716D01*
X027286Y003742D01*
X027296Y003767D01*
X027309Y003790D01*
X027325Y003810D01*
X027345Y003828D01*
X027367Y003843D01*
X027390Y003855D01*
X027416Y003863D01*
X027442Y003867D01*
X027468Y003867D01*
X027494Y003863D01*
X027520Y003855D01*
X027544Y003843D01*
X027565Y003828D01*
X027585Y003810D01*
X027601Y003790D01*
X027614Y003767D01*
X027624Y003742D01*
X027630Y003716D01*
X027632Y003690D01*
X027630Y003664D01*
X027624Y003638D01*
X027614Y003613D01*
X027601Y003590D01*
X027585Y003570D01*
X027565Y003552D01*
X027543Y003537D01*
X027520Y003525D01*
X027494Y003517D01*
X027468Y003513D01*
X027442Y003513D01*
X027416Y003517D01*
X027390Y003525D01*
X027366Y003537D01*
X027345Y003552D01*
X027325Y003570D01*
X027309Y003590D01*
X027296Y003613D01*
X027286Y003638D01*
X027280Y003664D01*
X027278Y003690D01*
X026491Y001722D02*
X026493Y001748D01*
X026499Y001774D01*
X026509Y001799D01*
X026522Y001822D01*
X026538Y001842D01*
X026558Y001860D01*
X026580Y001875D01*
X026603Y001887D01*
X026629Y001895D01*
X026655Y001899D01*
X026681Y001899D01*
X026707Y001895D01*
X026733Y001887D01*
X026757Y001875D01*
X026778Y001860D01*
X026798Y001842D01*
X026814Y001822D01*
X026827Y001799D01*
X026837Y001774D01*
X026843Y001748D01*
X026845Y001722D01*
X026843Y001696D01*
X026837Y001670D01*
X026827Y001645D01*
X026814Y001622D01*
X026798Y001602D01*
X026778Y001584D01*
X026756Y001569D01*
X026733Y001557D01*
X026707Y001549D01*
X026681Y001545D01*
X026655Y001545D01*
X026629Y001549D01*
X026603Y001557D01*
X026579Y001569D01*
X026558Y001584D01*
X026538Y001602D01*
X026522Y001622D01*
X026509Y001645D01*
X026499Y001670D01*
X026493Y001696D01*
X026491Y001722D01*
X028331Y006053D02*
X028333Y006079D01*
X028339Y006105D01*
X028349Y006130D01*
X028362Y006153D01*
X028378Y006173D01*
X028398Y006191D01*
X028420Y006206D01*
X028443Y006218D01*
X028469Y006226D01*
X028495Y006230D01*
X028521Y006230D01*
X028547Y006226D01*
X028573Y006218D01*
X028597Y006206D01*
X028618Y006191D01*
X028638Y006173D01*
X028654Y006153D01*
X028667Y006130D01*
X028677Y006105D01*
X028683Y006079D01*
X028685Y006053D01*
X028683Y006027D01*
X028677Y006001D01*
X028667Y005976D01*
X028654Y005953D01*
X028638Y005933D01*
X028618Y005915D01*
X028596Y005900D01*
X028573Y005888D01*
X028547Y005880D01*
X028521Y005876D01*
X028495Y005876D01*
X028469Y005880D01*
X028443Y005888D01*
X028419Y005900D01*
X028398Y005915D01*
X028378Y005933D01*
X028362Y005953D01*
X028349Y005976D01*
X028339Y006001D01*
X028333Y006027D01*
X028331Y006053D01*
X011144Y004961D02*
X011146Y004987D01*
X011152Y005013D01*
X011162Y005038D01*
X011175Y005061D01*
X011191Y005081D01*
X011211Y005099D01*
X011233Y005114D01*
X011256Y005126D01*
X011282Y005134D01*
X011308Y005138D01*
X011334Y005138D01*
X011360Y005134D01*
X011386Y005126D01*
X011410Y005114D01*
X011431Y005099D01*
X011451Y005081D01*
X011467Y005061D01*
X011480Y005038D01*
X011490Y005013D01*
X011496Y004987D01*
X011498Y004961D01*
X011496Y004935D01*
X011490Y004909D01*
X011480Y004884D01*
X011467Y004861D01*
X011451Y004841D01*
X011431Y004823D01*
X011409Y004808D01*
X011386Y004796D01*
X011360Y004788D01*
X011334Y004784D01*
X011308Y004784D01*
X011282Y004788D01*
X011256Y004796D01*
X011232Y004808D01*
X011211Y004823D01*
X011191Y004841D01*
X011175Y004861D01*
X011162Y004884D01*
X011152Y004909D01*
X011146Y004935D01*
X011144Y004961D01*
X008197Y005067D02*
X008199Y005093D01*
X008205Y005119D01*
X008215Y005144D01*
X008228Y005167D01*
X008244Y005187D01*
X008264Y005205D01*
X008286Y005220D01*
X008309Y005232D01*
X008335Y005240D01*
X008361Y005244D01*
X008387Y005244D01*
X008413Y005240D01*
X008439Y005232D01*
X008463Y005220D01*
X008484Y005205D01*
X008504Y005187D01*
X008520Y005167D01*
X008533Y005144D01*
X008543Y005119D01*
X008549Y005093D01*
X008551Y005067D01*
X008549Y005041D01*
X008543Y005015D01*
X008533Y004990D01*
X008520Y004967D01*
X008504Y004947D01*
X008484Y004929D01*
X008462Y004914D01*
X008439Y004902D01*
X008413Y004894D01*
X008387Y004890D01*
X008361Y004890D01*
X008335Y004894D01*
X008309Y004902D01*
X008285Y004914D01*
X008264Y004929D01*
X008244Y004947D01*
X008228Y004967D01*
X008215Y004990D01*
X008205Y005015D01*
X008199Y005041D01*
X008197Y005067D01*
D12*
X005795Y011016D03*
X005795Y011390D03*
X005795Y011764D03*
X004693Y011764D03*
X004693Y011016D03*
D13*
X004646Y011730D02*
X004693Y011764D01*
X002493Y010381D02*
X003824Y009050D01*
X003824Y008428D01*
X004246Y007830D01*
X004989Y009023D02*
X005482Y009295D01*
X005489Y009811D01*
X006158Y009811D02*
X006151Y009098D01*
X006091Y009023D02*
X006834Y008980D01*
X007290Y008724D01*
X007290Y008410D01*
X006078Y008241D02*
X006091Y009023D01*
X002493Y010381D02*
X002477Y010391D01*
X005169Y006750D02*
X005159Y006600D01*
X002206Y005362D02*
X002196Y005241D01*
X014128Y011879D02*
X014470Y012817D01*
X014000Y012988D02*
X013658Y012050D01*
X013188Y012221D02*
X013530Y013159D01*
X013061Y013330D02*
X012719Y012392D01*
X012249Y012563D02*
X012591Y013501D01*
X012121Y013672D02*
X011779Y012734D01*
X014598Y011708D02*
X014940Y012646D01*
X015410Y012475D02*
X015068Y011537D01*
X015538Y011366D02*
X015880Y012304D01*
X016350Y012133D02*
X016008Y011195D01*
X016477Y011024D02*
X016819Y011962D01*
X018274Y015989D02*
X018616Y016927D01*
X018146Y017098D02*
X017804Y016160D01*
X017334Y016331D02*
X017676Y017269D01*
X017206Y017440D02*
X016864Y016502D01*
X016394Y016673D02*
X016736Y017611D01*
X016267Y017782D02*
X015925Y016844D01*
X015455Y017015D02*
X015797Y017953D01*
X015327Y018124D02*
X014985Y017186D01*
D14*
X022037Y010330D03*
X022037Y010133D03*
X022037Y009936D03*
X022037Y009739D03*
X022037Y009542D03*
X022037Y009346D03*
X023592Y009346D03*
X023592Y009542D03*
X023592Y009739D03*
X023592Y009936D03*
X023592Y010133D03*
X023592Y010330D03*
D15*
X023307Y010615D03*
X023110Y010615D03*
X022913Y010615D03*
X022716Y010615D03*
X022520Y010615D03*
X022323Y010615D03*
X022323Y009060D03*
X022520Y009060D03*
X022716Y009060D03*
X022913Y009060D03*
X023110Y009060D03*
X023307Y009060D03*
D16*
X021392Y007957D03*
X021136Y007957D03*
X020881Y007957D03*
X020625Y007957D03*
X020369Y007957D03*
X020113Y007957D03*
X019857Y007957D03*
X019601Y007957D03*
X019345Y007957D03*
X019089Y007957D03*
X018833Y007957D03*
X018577Y007957D03*
X018577Y005078D03*
X018833Y005078D03*
X019089Y005078D03*
X019345Y005078D03*
X019601Y005078D03*
X019857Y005078D03*
X020113Y005078D03*
X020369Y005078D03*
X020625Y005078D03*
X020881Y005078D03*
X021136Y005078D03*
X021392Y005078D03*
D17*
X007419Y003855D03*
X007419Y003605D03*
X007419Y003355D03*
X007419Y003105D03*
X007419Y002855D03*
X007419Y002605D03*
X007419Y002355D03*
X007419Y002105D03*
X007419Y001855D03*
X007419Y001605D03*
X005309Y001605D03*
X005309Y001855D03*
X005309Y002105D03*
X005309Y002355D03*
X005309Y002605D03*
X005309Y002855D03*
X005309Y003105D03*
X005309Y003355D03*
X005309Y003605D03*
X005309Y003855D03*
D18*
X005532Y010489D03*
X006043Y010489D03*
X019120Y011725D03*
X019632Y011725D03*
D19*
X007890Y007802D03*
X007280Y007205D03*
X007880Y006607D03*
X007270Y006010D03*
X007290Y008410D03*
X007612Y011777D03*
X006677Y011786D03*
X013185Y004778D03*
X013795Y004188D03*
X013205Y003588D03*
X013815Y002988D03*
X013205Y002398D03*
D20*
X003308Y005362D03*
X002206Y005362D03*
X004989Y009023D03*
X006091Y009023D03*
X013269Y009620D03*
X014372Y009620D03*
D21*
X023135Y007029D03*
X023135Y005927D03*
X015295Y003999D03*
X015295Y002897D03*
D22*
X016415Y003043D03*
X016415Y003712D03*
X008218Y002443D03*
X008218Y001774D03*
X004525Y003259D03*
X003856Y003259D03*
X003864Y004145D03*
X004533Y004145D03*
X021093Y009707D03*
X021093Y010376D03*
D23*
X022400Y008328D03*
X023069Y008328D03*
X019949Y012538D03*
X019280Y012538D03*
X006158Y009811D03*
X005489Y009811D03*
X004511Y002351D03*
X003842Y002351D03*
D24*
X017459Y005165D03*
X017459Y005480D03*
X017459Y005795D03*
X017951Y005795D03*
X017951Y005480D03*
X017951Y005165D03*
X017951Y006110D03*
X017941Y006495D03*
X017941Y006810D03*
X017449Y006810D03*
X017449Y006495D03*
X017459Y006110D03*
X017449Y007125D03*
X017449Y007440D03*
X017941Y007440D03*
X017941Y007125D03*
X024449Y007605D03*
X024449Y007920D03*
X024449Y008235D03*
X024941Y008235D03*
X024941Y007920D03*
X024941Y007605D03*
X024941Y008550D03*
X024449Y008550D03*
D25*
X005650Y012183D03*
X005138Y012183D03*
D26*
X019509Y010844D03*
X019509Y010332D03*
D27*
X020769Y012095D03*
X021749Y012105D03*
X019954Y013825D03*
X018995Y013804D03*
D28*
X013715Y008152D03*
X013715Y006742D03*
D29*
X024316Y009561D03*
X025316Y009561D03*
X026029Y008077D03*
X027029Y008077D03*
D30*
X006066Y007830D03*
X005156Y007830D03*
X004246Y007830D03*
D31*
X005156Y005390D03*
D32*
X002477Y008423D03*
X002477Y009407D03*
X002477Y010391D03*
X001178Y010391D03*
X001178Y009407D03*
X001178Y008423D03*
D33*
X004168Y010107D03*
X007262Y010287D03*
X014795Y005498D03*
X022175Y006829D03*
X017915Y010538D03*
X005124Y004350D03*
X016682Y019615D03*
D34*
X002314Y003446D03*
X002314Y003190D03*
X002314Y002934D03*
X002314Y002678D03*
X002314Y002422D03*
D35*
X001251Y002540D03*
X001251Y003327D03*
D36*
X002294Y004298D03*
X002294Y001528D03*
D37*
X001335Y001522D02*
X001335Y001734D01*
X001335Y001522D02*
X001173Y001522D01*
X001173Y001734D01*
X001335Y001734D01*
X001370Y004157D02*
X001158Y004157D01*
X001158Y004319D01*
X001370Y004319D01*
X001370Y004157D01*
D38*
X001324Y004178D02*
X001324Y004298D01*
X001204Y004298D01*
X001204Y004711D01*
X001213Y004714D01*
X001322Y004823D01*
X001381Y004966D01*
X001381Y005120D01*
X001322Y005262D01*
X001213Y005371D01*
X001070Y005430D01*
X000916Y005430D01*
X000890Y005419D01*
X000890Y006635D01*
X000916Y006624D01*
X001070Y006624D01*
X001213Y006683D01*
X001322Y006792D01*
X002971Y006792D01*
X002970Y006674D02*
X001191Y006674D01*
X001322Y006792D02*
X001381Y006934D01*
X001381Y007088D01*
X001322Y007230D01*
X001213Y007339D01*
X001070Y007398D01*
X000916Y007398D01*
X000890Y007387D01*
X000890Y008046D01*
X000911Y008024D01*
X001084Y007953D01*
X001271Y007953D01*
X001444Y008024D01*
X001576Y008157D01*
X001648Y008329D01*
X001648Y008516D01*
X001576Y008689D01*
X001444Y008821D01*
X001271Y008893D01*
X001084Y008893D01*
X000911Y008821D01*
X000890Y008800D01*
X000890Y009030D01*
X000911Y009009D01*
X001084Y008937D01*
X001271Y008937D01*
X001444Y009009D01*
X001576Y009141D01*
X001648Y009314D01*
X001648Y009501D01*
X001576Y009673D01*
X001444Y009806D01*
X001271Y009877D01*
X001084Y009877D01*
X000911Y009806D01*
X000890Y009784D01*
X000890Y010015D01*
X000911Y009993D01*
X001084Y009921D01*
X001271Y009921D01*
X001444Y009993D01*
X001519Y010068D01*
X001519Y010028D01*
X001516Y010021D01*
X001519Y009961D01*
X001519Y009902D01*
X001522Y009894D01*
X001522Y009885D01*
X001548Y009832D01*
X001571Y009777D01*
X001576Y009771D01*
X001580Y009763D01*
X001624Y009723D01*
X001666Y009681D01*
X001674Y009678D01*
X002007Y009375D01*
X002007Y009314D01*
X002078Y009141D01*
X002211Y009009D01*
X002383Y008937D01*
X002570Y008937D01*
X002701Y008991D01*
X002973Y008719D01*
X002969Y005811D01*
X002893Y005735D01*
X002893Y004989D01*
X002915Y004967D01*
X002844Y004881D01*
X002807Y004845D01*
X002801Y004830D01*
X002790Y004817D01*
X002774Y004768D01*
X002754Y004721D01*
X002754Y004704D01*
X002749Y004688D01*
X002753Y004637D01*
X002745Y003670D01*
X002703Y003670D01*
X002702Y003671D01*
X002612Y003670D01*
X002523Y003670D01*
X002522Y003669D01*
X002229Y003664D01*
X001990Y003664D01*
X001908Y003582D01*
X001908Y002578D01*
X001899Y002562D01*
X001888Y002522D01*
X001888Y002422D01*
X002314Y002422D01*
X002314Y002422D01*
X001888Y002422D01*
X001888Y002322D01*
X001899Y002281D01*
X001920Y002245D01*
X001950Y002215D01*
X001987Y002194D01*
X002027Y002183D01*
X002314Y002183D01*
X002314Y002422D01*
X002314Y001548D01*
X002294Y001528D01*
X002234Y001578D02*
X001314Y001578D01*
X001314Y001568D02*
X001314Y001688D01*
X001194Y001688D01*
X001194Y002138D01*
X001191Y002138D01*
X001191Y002480D01*
X001311Y002480D01*
X001311Y002085D01*
X001314Y002085D01*
X001314Y001688D01*
X001739Y001688D01*
X001739Y001774D01*
X001724Y001852D01*
X001693Y001925D01*
X001649Y001992D01*
X001593Y002048D01*
X001538Y002085D01*
X001646Y002085D01*
X001687Y002096D01*
X001723Y002117D01*
X001753Y002146D01*
X001774Y002183D01*
X001785Y002224D01*
X001785Y002480D01*
X001311Y002480D01*
X001311Y002600D01*
X001191Y002600D01*
X001191Y003267D01*
X001311Y003267D01*
X001311Y002872D01*
X001311Y002600D01*
X001785Y002600D01*
X001785Y002856D01*
X001774Y002897D01*
X001753Y002934D01*
X001774Y002970D01*
X001785Y003011D01*
X001785Y003267D01*
X001311Y003267D01*
X001311Y003387D01*
X001785Y003387D01*
X001785Y003644D01*
X001774Y003684D01*
X001753Y003721D01*
X001723Y003751D01*
X001687Y003772D01*
X001646Y003783D01*
X001522Y003783D01*
X001562Y003799D01*
X001628Y003843D01*
X001684Y003899D01*
X001728Y003965D01*
X001759Y004039D01*
X001774Y004117D01*
X001774Y004178D01*
X001324Y004178D01*
X001324Y003783D01*
X001311Y003783D01*
X001311Y003387D01*
X001191Y003387D01*
X001191Y003753D01*
X001204Y003753D01*
X001204Y004178D01*
X001324Y004178D01*
X001324Y004185D02*
X001884Y004185D01*
X001884Y004238D02*
X001884Y003877D01*
X001895Y003836D01*
X001916Y003800D01*
X001946Y003770D01*
X001982Y003749D01*
X002023Y003738D01*
X002234Y003738D01*
X002234Y004238D01*
X001884Y004238D01*
X001884Y004358D02*
X002234Y004358D01*
X002234Y004238D01*
X002354Y004238D01*
X002354Y003738D01*
X002565Y003738D01*
X002606Y003749D01*
X002642Y003770D01*
X002672Y003800D01*
X002693Y003836D01*
X002704Y003877D01*
X002704Y004238D01*
X002354Y004238D01*
X002354Y004358D01*
X002234Y004358D01*
X002234Y004858D01*
X002023Y004858D01*
X001982Y004847D01*
X001946Y004826D01*
X001916Y004796D01*
X001895Y004760D01*
X001884Y004719D01*
X001884Y004358D01*
X001884Y004422D02*
X001762Y004422D01*
X001759Y004437D02*
X001728Y004510D01*
X001684Y004577D01*
X001628Y004633D01*
X001562Y004677D01*
X001488Y004707D01*
X001410Y004723D01*
X001324Y004723D01*
X001324Y004298D01*
X001774Y004298D01*
X001774Y004359D01*
X001759Y004437D01*
X001708Y004541D02*
X001884Y004541D01*
X001884Y004659D02*
X001588Y004659D01*
X001324Y004659D02*
X001204Y004659D01*
X001204Y004541D02*
X001324Y004541D01*
X001324Y004422D02*
X001204Y004422D01*
X001204Y004304D02*
X001324Y004304D01*
X001324Y004067D02*
X001204Y004067D01*
X001204Y003948D02*
X001324Y003948D01*
X001324Y003830D02*
X001204Y003830D01*
X001191Y003711D02*
X001311Y003711D01*
X001311Y003593D02*
X001191Y003593D01*
X001191Y003474D02*
X001311Y003474D01*
X001311Y003356D02*
X001908Y003356D01*
X001908Y003474D02*
X001785Y003474D01*
X001785Y003593D02*
X001919Y003593D01*
X001759Y003711D02*
X002745Y003711D01*
X002746Y003830D02*
X002690Y003830D01*
X002704Y003948D02*
X002747Y003948D01*
X002748Y004067D02*
X002704Y004067D01*
X002704Y004185D02*
X002749Y004185D01*
X002750Y004304D02*
X002354Y004304D01*
X002354Y004358D02*
X002704Y004358D01*
X002704Y004719D01*
X002693Y004760D01*
X002672Y004796D01*
X002642Y004826D01*
X002606Y004847D01*
X002565Y004858D01*
X002354Y004858D01*
X002354Y004358D01*
X002354Y004422D02*
X002234Y004422D01*
X002234Y004304D02*
X001774Y004304D01*
X001764Y004067D02*
X001884Y004067D01*
X001884Y003948D02*
X001717Y003948D01*
X001608Y003830D02*
X001899Y003830D01*
X002234Y003830D02*
X002354Y003830D01*
X002354Y003948D02*
X002234Y003948D01*
X002234Y004067D02*
X002354Y004067D01*
X002354Y004185D02*
X002234Y004185D01*
X002294Y004298D02*
X002196Y004696D01*
X002196Y005241D01*
X002146Y005252D02*
X002266Y005252D01*
X002266Y005302D02*
X002266Y004887D01*
X002503Y004887D01*
X002543Y004898D01*
X002580Y004919D01*
X002610Y004949D01*
X002631Y004985D01*
X002642Y005026D01*
X002642Y005302D01*
X002266Y005302D01*
X002146Y005302D01*
X002146Y004887D01*
X001909Y004887D01*
X001869Y004898D01*
X001832Y004919D01*
X001802Y004949D01*
X001781Y004985D01*
X001770Y005026D01*
X001770Y005302D01*
X002146Y005302D01*
X002146Y005422D01*
X001770Y005422D01*
X001770Y005698D01*
X001781Y005739D01*
X001802Y005775D01*
X001832Y005805D01*
X001869Y005826D01*
X001909Y005837D01*
X002146Y005837D01*
X002146Y005422D01*
X002266Y005422D01*
X002642Y005422D01*
X002642Y005698D01*
X002631Y005739D01*
X002610Y005775D01*
X002580Y005805D01*
X002543Y005826D01*
X002503Y005837D01*
X002266Y005837D01*
X002266Y005422D01*
X002266Y005302D01*
X002266Y005370D02*
X002893Y005370D01*
X002893Y005252D02*
X002642Y005252D01*
X002642Y005133D02*
X002893Y005133D01*
X002893Y005015D02*
X002639Y005015D01*
X002536Y004896D02*
X002856Y004896D01*
X002777Y004778D02*
X002683Y004778D01*
X002704Y004659D02*
X002752Y004659D01*
X002753Y004541D02*
X002704Y004541D01*
X002704Y004422D02*
X002752Y004422D01*
X002354Y004541D02*
X002234Y004541D01*
X002234Y004659D02*
X002354Y004659D01*
X002354Y004778D02*
X002234Y004778D01*
X002266Y004896D02*
X002146Y004896D01*
X002146Y005015D02*
X002266Y005015D01*
X002266Y005133D02*
X002146Y005133D01*
X002146Y005370D02*
X001213Y005370D01*
X001326Y005252D02*
X001770Y005252D01*
X001770Y005133D02*
X001375Y005133D01*
X001381Y005015D02*
X001773Y005015D01*
X001876Y004896D02*
X001352Y004896D01*
X001276Y004778D02*
X001905Y004778D01*
X001770Y005489D02*
X000890Y005489D01*
X000890Y005607D02*
X001770Y005607D01*
X001778Y005726D02*
X000890Y005726D01*
X000890Y005844D02*
X002969Y005844D01*
X002969Y005963D02*
X000890Y005963D01*
X000890Y006081D02*
X002969Y006081D01*
X002970Y006200D02*
X000890Y006200D01*
X000890Y006318D02*
X002970Y006318D01*
X002970Y006437D02*
X000890Y006437D01*
X000890Y006555D02*
X002970Y006555D01*
X002971Y006911D02*
X001371Y006911D01*
X001381Y007029D02*
X002971Y007029D01*
X002971Y007148D02*
X001356Y007148D01*
X001286Y007266D02*
X002971Y007266D01*
X002971Y007385D02*
X001103Y007385D01*
X000890Y007503D02*
X002972Y007503D01*
X002972Y007622D02*
X000890Y007622D01*
X000890Y007740D02*
X002972Y007740D01*
X002972Y007859D02*
X000890Y007859D01*
X000890Y007977D02*
X001025Y007977D01*
X001330Y007977D02*
X002324Y007977D01*
X002383Y007953D02*
X002570Y007953D01*
X002743Y008024D01*
X002875Y008157D01*
X002947Y008329D01*
X002947Y008516D01*
X002875Y008689D01*
X002743Y008821D01*
X002570Y008893D01*
X002383Y008893D01*
X002211Y008821D01*
X002078Y008689D01*
X002007Y008516D01*
X002007Y008329D01*
X002078Y008157D01*
X002211Y008024D01*
X002383Y007953D01*
X002629Y007977D02*
X002972Y007977D01*
X002972Y008096D02*
X002814Y008096D01*
X002899Y008214D02*
X002973Y008214D01*
X002973Y008333D02*
X002947Y008333D01*
X002947Y008451D02*
X002973Y008451D01*
X002973Y008570D02*
X002925Y008570D01*
X002876Y008688D02*
X002973Y008688D01*
X002886Y008807D02*
X002758Y008807D01*
X002768Y008925D02*
X000890Y008925D01*
X000890Y008807D02*
X000897Y008807D01*
X001458Y008807D02*
X002196Y008807D01*
X002078Y008688D02*
X001576Y008688D01*
X001625Y008570D02*
X002029Y008570D01*
X002007Y008451D02*
X001648Y008451D01*
X001648Y008333D02*
X002007Y008333D01*
X002054Y008214D02*
X001600Y008214D01*
X001515Y008096D02*
X002139Y008096D01*
X002175Y009044D02*
X001479Y009044D01*
X001585Y009162D02*
X002069Y009162D01*
X002020Y009281D02*
X001634Y009281D01*
X001648Y009399D02*
X001980Y009399D01*
X001850Y009518D02*
X001640Y009518D01*
X001591Y009636D02*
X001720Y009636D01*
X001589Y009755D02*
X001495Y009755D01*
X001528Y009873D02*
X001280Y009873D01*
X001441Y009992D02*
X001517Y009992D01*
X001075Y009873D02*
X000890Y009873D01*
X000890Y009992D02*
X000914Y009992D01*
X002199Y010778D02*
X002199Y011088D01*
X002544Y011418D01*
X004627Y011424D01*
X004628Y011424D01*
X004694Y011424D01*
X004762Y011424D01*
X004762Y011424D01*
X004763Y011424D01*
X004825Y011451D01*
X004887Y011476D01*
X004887Y011477D01*
X004888Y011477D01*
X004926Y011516D01*
X004968Y011516D01*
X005050Y011598D01*
X005050Y011641D01*
X005294Y011889D01*
X005316Y011944D01*
X005334Y011944D01*
X005394Y012005D01*
X005451Y011947D01*
X005452Y011943D01*
X005439Y011930D01*
X005439Y011598D01*
X005447Y011590D01*
X005430Y011560D01*
X005419Y011519D01*
X005419Y011390D01*
X005419Y011261D01*
X005430Y011220D01*
X005447Y011190D01*
X005439Y011182D01*
X005439Y010850D01*
X005482Y010807D01*
X005336Y010807D01*
X005254Y010725D01*
X005254Y010709D01*
X005074Y010709D01*
X004986Y010786D01*
X005050Y010850D01*
X005050Y011182D01*
X004968Y011264D01*
X004419Y011264D01*
X004337Y011182D01*
X004337Y010850D01*
X004419Y010768D01*
X004476Y010768D01*
X004478Y010737D01*
X004480Y010651D01*
X004484Y010647D01*
X004485Y010641D01*
X004549Y010584D01*
X004611Y010524D01*
X004617Y010524D01*
X004841Y010328D01*
X004901Y010268D01*
X004909Y010268D01*
X004915Y010263D01*
X004999Y010269D01*
X005254Y010269D01*
X005254Y010254D01*
X005336Y010172D01*
X005727Y010172D01*
X005775Y010219D01*
X005778Y010214D01*
X005807Y010184D01*
X005844Y010163D01*
X005876Y010155D01*
X005843Y010136D01*
X005814Y010106D01*
X005811Y010101D01*
X005764Y010148D01*
X005214Y010148D01*
X005132Y010066D01*
X005132Y009556D01*
X005185Y009504D01*
X005184Y009478D01*
X004655Y009478D01*
X004573Y009396D01*
X004573Y008650D01*
X004655Y008568D01*
X004893Y008568D01*
X004894Y008410D01*
X004858Y008410D01*
X004776Y008328D01*
X004776Y008318D01*
X004626Y008318D01*
X004626Y008328D01*
X004544Y008410D01*
X004203Y008410D01*
X004124Y008523D01*
X004124Y009110D01*
X004078Y009220D01*
X004067Y009231D01*
X002947Y010351D01*
X002947Y010485D01*
X002875Y010658D01*
X002743Y010790D01*
X002570Y010861D01*
X002383Y010861D01*
X002211Y010790D01*
X002199Y010778D01*
X002199Y010821D02*
X002287Y010821D01*
X002199Y010940D02*
X004337Y010940D01*
X004337Y011058D02*
X002199Y011058D01*
X002291Y011177D02*
X004337Y011177D01*
X004365Y010821D02*
X002667Y010821D01*
X002830Y010703D02*
X004479Y010703D01*
X004549Y010584D02*
X002906Y010584D01*
X002947Y010466D02*
X004684Y010466D01*
X004819Y010347D02*
X004405Y010347D01*
X004359Y010393D02*
X004235Y010444D01*
X004101Y010444D01*
X003977Y010393D01*
X003883Y010298D01*
X003831Y010174D01*
X003831Y010040D01*
X003883Y009917D01*
X003977Y009822D01*
X004101Y009771D01*
X004235Y009771D01*
X004359Y009822D01*
X004454Y009917D01*
X004505Y010040D01*
X004505Y010174D01*
X004454Y010298D01*
X004359Y010393D01*
X004482Y010229D02*
X005279Y010229D01*
X005177Y010110D02*
X004505Y010110D01*
X004485Y009992D02*
X005132Y009992D01*
X005132Y009873D02*
X004410Y009873D01*
X003926Y009873D02*
X003425Y009873D01*
X003543Y009755D02*
X005132Y009755D01*
X005132Y009636D02*
X003662Y009636D01*
X003780Y009518D02*
X005171Y009518D01*
X004577Y009399D02*
X003899Y009399D01*
X004017Y009281D02*
X004573Y009281D01*
X004573Y009162D02*
X004102Y009162D01*
X004124Y009044D02*
X004573Y009044D01*
X004573Y008925D02*
X004124Y008925D01*
X004124Y008807D02*
X004573Y008807D01*
X004573Y008688D02*
X004124Y008688D01*
X004124Y008570D02*
X004654Y008570D01*
X004621Y008333D02*
X004780Y008333D01*
X004894Y008451D02*
X004174Y008451D01*
X005414Y008451D02*
X006815Y008451D01*
X006815Y008440D02*
X007260Y008440D01*
X007260Y008885D01*
X007093Y008885D01*
X006815Y008606D01*
X006815Y008440D01*
X006815Y008380D02*
X006815Y008318D01*
X006458Y008318D01*
X006455Y008332D01*
X006434Y008368D01*
X006404Y008398D01*
X006367Y008419D01*
X006327Y008430D01*
X006126Y008430D01*
X006126Y008318D01*
X006006Y008318D01*
X006006Y008430D01*
X005804Y008430D01*
X005764Y008419D01*
X005727Y008398D01*
X005698Y008368D01*
X005676Y008332D01*
X005673Y008318D01*
X005536Y008318D01*
X005536Y008328D01*
X005454Y008410D01*
X005414Y008410D01*
X005412Y008914D01*
X005610Y009023D01*
X005648Y009038D01*
X005662Y009051D01*
X005679Y009061D01*
X005697Y009083D01*
X006031Y009083D01*
X006031Y008963D01*
X005656Y008963D01*
X005656Y008687D01*
X005667Y008646D01*
X005688Y008610D01*
X005717Y008580D01*
X005754Y008559D01*
X005795Y008548D01*
X006031Y008548D01*
X006031Y008963D01*
X006151Y008963D01*
X006151Y008548D01*
X006388Y008548D01*
X006429Y008559D01*
X006465Y008580D01*
X006495Y008610D01*
X006516Y008646D01*
X006527Y008687D01*
X006527Y008963D01*
X006151Y008963D01*
X006151Y009083D01*
X006031Y009083D01*
X006031Y009454D01*
X006120Y009454D01*
X006120Y009772D01*
X006197Y009772D01*
X006197Y009498D01*
X006151Y009498D01*
X006151Y009083D01*
X006527Y009083D01*
X006527Y009359D01*
X006516Y009400D01*
X006495Y009436D01*
X006465Y009466D01*
X006452Y009474D01*
X006473Y009486D01*
X006503Y009516D01*
X006524Y009552D01*
X006535Y009593D01*
X006535Y009772D01*
X006197Y009772D01*
X006197Y009849D01*
X006535Y009849D01*
X006535Y010029D01*
X006524Y010070D01*
X006503Y010106D01*
X006473Y010136D01*
X006437Y010157D01*
X006396Y010168D01*
X006251Y010168D01*
X006280Y010184D01*
X006309Y010214D01*
X006330Y010251D01*
X006341Y010291D01*
X006341Y010481D01*
X006052Y010481D01*
X006052Y010498D01*
X006341Y010498D01*
X006341Y010688D01*
X006330Y010728D01*
X006309Y010765D01*
X006280Y010795D01*
X006243Y010816D01*
X006202Y010827D01*
X006129Y010827D01*
X006152Y010850D01*
X006152Y011182D01*
X006144Y011190D01*
X006161Y011220D01*
X006172Y011261D01*
X006172Y011390D01*
X005795Y011390D01*
X005419Y011390D01*
X005795Y011390D01*
X005795Y011390D01*
X006172Y011390D01*
X006172Y011438D01*
X006386Y011434D01*
X006488Y011331D01*
X006865Y011331D01*
X007132Y011598D01*
X007132Y011975D01*
X006865Y012241D01*
X006488Y012241D01*
X006361Y012114D01*
X006126Y012119D01*
X006125Y012133D01*
X006181Y012133D01*
X006323Y012192D01*
X006432Y012301D01*
X006491Y012443D01*
X006491Y012597D01*
X006479Y012627D01*
X007807Y012627D01*
X007807Y012476D01*
X007865Y012334D01*
X007974Y012225D01*
X008117Y012166D01*
X008271Y012166D01*
X008413Y012225D01*
X008522Y012334D01*
X008577Y012468D01*
X008577Y011324D01*
X008551Y011335D01*
X008397Y011335D01*
X008254Y011276D01*
X008145Y011167D01*
X008087Y011025D01*
X008087Y010871D01*
X008145Y010729D01*
X008254Y010620D01*
X008397Y010561D01*
X008551Y010561D01*
X008577Y010572D01*
X008577Y009643D01*
X008551Y009654D01*
X008397Y009654D01*
X008254Y009595D01*
X008145Y009486D01*
X008087Y009344D01*
X008087Y009190D01*
X008145Y009048D01*
X008254Y008939D01*
X008397Y008880D01*
X008551Y008880D01*
X008577Y008891D01*
X008577Y008318D01*
X007765Y008318D01*
X007765Y008380D01*
X007320Y008380D01*
X007320Y008440D01*
X007260Y008440D01*
X007260Y008380D01*
X006815Y008380D01*
X006815Y008333D02*
X006454Y008333D01*
X006447Y008570D02*
X006815Y008570D01*
X006897Y008688D02*
X006527Y008688D01*
X006527Y008807D02*
X007015Y008807D01*
X007260Y008807D02*
X007320Y008807D01*
X007320Y008885D02*
X007320Y008440D01*
X007765Y008440D01*
X007765Y008606D01*
X007487Y008885D01*
X007320Y008885D01*
X007320Y008688D02*
X007260Y008688D01*
X007260Y008570D02*
X007320Y008570D01*
X007320Y008451D02*
X007260Y008451D01*
X007683Y008688D02*
X008577Y008688D01*
X008577Y008570D02*
X007765Y008570D01*
X007765Y008451D02*
X008577Y008451D01*
X008577Y008333D02*
X007765Y008333D01*
X007565Y008807D02*
X008577Y008807D01*
X008287Y008925D02*
X006527Y008925D01*
X006527Y009162D02*
X008098Y009162D01*
X008087Y009281D02*
X006527Y009281D01*
X006516Y009399D02*
X008109Y009399D01*
X008177Y009518D02*
X006504Y009518D01*
X006535Y009636D02*
X008353Y009636D01*
X008577Y009755D02*
X006535Y009755D01*
X006535Y009873D02*
X008577Y009873D01*
X008577Y009992D02*
X007429Y009992D01*
X007453Y010002D02*
X007548Y010096D01*
X007599Y010220D01*
X007599Y010354D01*
X007548Y010478D01*
X007453Y010573D01*
X007329Y010624D01*
X007195Y010624D01*
X007071Y010573D01*
X006976Y010478D01*
X006925Y010354D01*
X006925Y010220D01*
X006976Y010096D01*
X007071Y010002D01*
X007195Y009950D01*
X007329Y009950D01*
X007453Y010002D01*
X007553Y010110D02*
X008577Y010110D01*
X008577Y010229D02*
X007599Y010229D01*
X007599Y010347D02*
X008577Y010347D01*
X008577Y010466D02*
X007553Y010466D01*
X007425Y010584D02*
X008340Y010584D01*
X008172Y010703D02*
X006337Y010703D01*
X006341Y010584D02*
X007099Y010584D01*
X006971Y010466D02*
X006341Y010466D01*
X006341Y010347D02*
X006925Y010347D01*
X006925Y010229D02*
X006318Y010229D01*
X006499Y010110D02*
X006971Y010110D01*
X007095Y009992D02*
X006535Y009992D01*
X006197Y009755D02*
X006120Y009755D01*
X006120Y009636D02*
X006197Y009636D01*
X006197Y009518D02*
X006120Y009518D01*
X006151Y009399D02*
X006031Y009399D01*
X006031Y009281D02*
X006151Y009281D01*
X006151Y009162D02*
X006031Y009162D01*
X006031Y009044D02*
X005654Y009044D01*
X005656Y008925D02*
X005433Y008925D01*
X005413Y008807D02*
X005656Y008807D01*
X005656Y008688D02*
X005413Y008688D01*
X005413Y008570D02*
X005735Y008570D01*
X005677Y008333D02*
X005531Y008333D01*
X006006Y008333D02*
X006126Y008333D01*
X006151Y008570D02*
X006031Y008570D01*
X006031Y008688D02*
X006151Y008688D01*
X006151Y008807D02*
X006031Y008807D01*
X006031Y008925D02*
X006151Y008925D01*
X006151Y009044D02*
X008149Y009044D01*
X005818Y010110D02*
X005801Y010110D01*
X005467Y010821D02*
X005021Y010821D01*
X005050Y010940D02*
X005439Y010940D01*
X005439Y011058D02*
X005050Y011058D01*
X005050Y011177D02*
X005439Y011177D01*
X005419Y011295D02*
X002416Y011295D01*
X002540Y011414D02*
X005419Y011414D01*
X005422Y011532D02*
X004984Y011532D01*
X005059Y011651D02*
X005439Y011651D01*
X005439Y011769D02*
X005176Y011769D01*
X005293Y011888D02*
X005439Y011888D01*
X006125Y012125D02*
X006372Y012125D01*
X006374Y012243D02*
X007407Y012243D01*
X007416Y012252D02*
X007137Y011974D01*
X007137Y011807D01*
X007582Y011807D01*
X007582Y011747D01*
X007137Y011747D01*
X007137Y011580D01*
X007416Y011302D01*
X007582Y011302D01*
X007582Y011747D01*
X007642Y011747D01*
X007642Y011302D01*
X007809Y011302D01*
X008087Y011580D01*
X008087Y011747D01*
X007642Y011747D01*
X007642Y011807D01*
X007582Y011807D01*
X007582Y012252D01*
X007416Y012252D01*
X007582Y012243D02*
X007642Y012243D01*
X007642Y012252D02*
X007642Y011807D01*
X008087Y011807D01*
X008087Y011974D01*
X007809Y012252D01*
X007642Y012252D01*
X007642Y012125D02*
X007582Y012125D01*
X007582Y012006D02*
X007642Y012006D01*
X007642Y011888D02*
X007582Y011888D01*
X007582Y011769D02*
X007132Y011769D01*
X007132Y011651D02*
X007137Y011651D01*
X007185Y011532D02*
X007066Y011532D01*
X006948Y011414D02*
X007304Y011414D01*
X007582Y011414D02*
X007642Y011414D01*
X007642Y011532D02*
X007582Y011532D01*
X007582Y011651D02*
X007642Y011651D01*
X007642Y011769D02*
X008577Y011769D01*
X008577Y011651D02*
X008087Y011651D01*
X008040Y011532D02*
X008577Y011532D01*
X008577Y011414D02*
X007921Y011414D01*
X008155Y011177D02*
X006152Y011177D01*
X006152Y011058D02*
X008100Y011058D01*
X008087Y010940D02*
X006152Y010940D01*
X006222Y010821D02*
X008107Y010821D01*
X008300Y011295D02*
X006172Y011295D01*
X006172Y011414D02*
X006406Y011414D01*
X005795Y011390D02*
X005795Y011390D01*
X006982Y012125D02*
X007289Y012125D01*
X007170Y012006D02*
X007101Y012006D01*
X007132Y011888D02*
X007137Y011888D01*
X007818Y012243D02*
X007956Y012243D01*
X007936Y012125D02*
X008577Y012125D01*
X008577Y012243D02*
X008432Y012243D01*
X008534Y012362D02*
X008577Y012362D01*
X008577Y012006D02*
X008055Y012006D01*
X008087Y011888D02*
X008577Y011888D01*
X007854Y012362D02*
X006457Y012362D01*
X006491Y012480D02*
X007807Y012480D01*
X007807Y012599D02*
X006490Y012599D01*
X003932Y010347D02*
X002951Y010347D01*
X003069Y010229D02*
X003854Y010229D01*
X003831Y010110D02*
X003188Y010110D01*
X003306Y009992D02*
X003851Y009992D01*
X007890Y007802D02*
X008174Y007800D01*
X008414Y007560D01*
X008404Y006330D01*
X007944Y005870D01*
X007944Y004850D01*
X008568Y003991D01*
X008567Y002265D01*
X007843Y002543D02*
X007843Y003933D01*
X007350Y004588D01*
X007003Y004585D01*
X006745Y004844D01*
X006748Y006214D01*
X007106Y006607D01*
X007880Y006607D01*
X005534Y005188D02*
X005156Y005390D01*
X005534Y005188D02*
X005534Y005070D01*
X004533Y004145D02*
X004829Y003849D01*
X005309Y003855D01*
X005309Y003605D02*
X005406Y003600D01*
X004864Y003600D01*
X004525Y003261D01*
X004525Y003259D01*
X004068Y002829D02*
X003473Y002828D01*
X003371Y002930D01*
X002604Y002930D01*
X002600Y002934D01*
X002314Y002934D01*
X002314Y003190D02*
X002614Y003188D01*
X003353Y003188D01*
X003424Y003259D01*
X003856Y003259D01*
X003797Y003200D01*
X003288Y002730D02*
X003332Y002686D01*
X003390Y002628D01*
X003390Y002628D01*
X003390Y002628D01*
X003473Y002628D01*
X003487Y002628D01*
X003476Y002609D01*
X003465Y002569D01*
X003465Y002389D01*
X003720Y002389D01*
X003720Y002353D01*
X003761Y002312D01*
X003465Y002312D01*
X003465Y002133D01*
X003476Y002092D01*
X003497Y002056D01*
X003527Y002026D01*
X003564Y002005D01*
X003604Y001994D01*
X003804Y001994D01*
X003804Y002269D01*
X003880Y002193D01*
X003880Y001994D01*
X004079Y001994D01*
X004080Y001992D01*
X004215Y001858D01*
X004944Y001858D01*
X004944Y001472D01*
X005026Y001390D01*
X005307Y001390D01*
X005317Y001380D01*
X006162Y001380D01*
X006252Y001379D01*
X006253Y001380D01*
X006255Y001380D01*
X006318Y001444D01*
X006575Y001694D01*
X006576Y001694D01*
X006640Y001757D01*
X006704Y001820D01*
X006704Y001822D01*
X006705Y001823D01*
X006705Y001858D01*
X006860Y001858D01*
X006860Y001849D01*
X005836Y000825D01*
X005793Y000931D01*
X005684Y001040D01*
X005541Y001099D01*
X005387Y001099D01*
X005245Y001040D01*
X005136Y000931D01*
X005077Y000789D01*
X005077Y000635D01*
X005088Y000608D01*
X003747Y000608D01*
X003764Y000651D01*
X003764Y000805D01*
X003706Y000947D01*
X003597Y001056D01*
X003454Y001115D01*
X003300Y001115D01*
X003158Y001056D01*
X003049Y000947D01*
X002990Y000805D01*
X002990Y000651D01*
X003008Y000608D01*
X001370Y000608D01*
X001381Y000635D01*
X001381Y000789D01*
X001322Y000931D01*
X001213Y001040D01*
X001070Y001099D01*
X000916Y001099D01*
X000890Y001088D01*
X000890Y001234D01*
X000916Y001208D01*
X000982Y001164D01*
X001055Y001133D01*
X001133Y001118D01*
X001194Y001118D01*
X001194Y001568D01*
X001314Y001568D01*
X001314Y001118D01*
X001375Y001118D01*
X001453Y001133D01*
X001527Y001164D01*
X001593Y001208D01*
X001649Y001264D01*
X001693Y001330D01*
X001724Y001404D01*
X001739Y001482D01*
X001739Y001568D01*
X001314Y001568D01*
X001314Y001460D02*
X001194Y001460D01*
X001194Y001341D02*
X001314Y001341D01*
X001314Y001223D02*
X001194Y001223D01*
X001267Y000986D02*
X001970Y000986D01*
X001982Y000979D02*
X002023Y000968D01*
X002234Y000968D01*
X002234Y001468D01*
X001884Y001468D01*
X001884Y001107D01*
X001895Y001066D01*
X001916Y001030D01*
X001946Y001000D01*
X001982Y000979D01*
X001885Y001104D02*
X000890Y001104D01*
X000890Y001223D02*
X000901Y001223D01*
X001194Y001697D02*
X001314Y001697D01*
X001314Y001815D02*
X001194Y001815D01*
X001194Y001934D02*
X001314Y001934D01*
X001314Y002052D02*
X001194Y002052D01*
X001191Y002171D02*
X001311Y002171D01*
X001311Y002289D02*
X001191Y002289D01*
X001191Y002408D02*
X001311Y002408D01*
X001311Y002526D02*
X001890Y002526D01*
X001888Y002408D02*
X001785Y002408D01*
X001785Y002289D02*
X001897Y002289D01*
X001767Y002171D02*
X003465Y002171D01*
X003465Y002289D02*
X002731Y002289D01*
X002729Y002281D02*
X002740Y002322D01*
X002740Y002422D01*
X002740Y002522D01*
X002729Y002562D01*
X002720Y002578D01*
X002720Y002730D01*
X003288Y002730D01*
X003373Y002645D02*
X002720Y002645D01*
X002739Y002526D02*
X003465Y002526D01*
X003465Y002408D02*
X002740Y002408D01*
X002740Y002422D02*
X002314Y002422D01*
X003771Y002422D01*
X003842Y002351D01*
X003844Y002349D01*
X003844Y002020D01*
X004104Y001760D01*
X004594Y001760D01*
X005004Y001350D01*
X006234Y001350D01*
X006774Y001890D01*
X006774Y002460D01*
X007154Y002840D01*
X007508Y002840D01*
X007419Y002855D01*
X007843Y002543D02*
X007695Y002356D01*
X007419Y002355D01*
X006826Y001815D02*
X006699Y001815D01*
X006708Y001697D02*
X006579Y001697D01*
X006589Y001578D02*
X006456Y001578D01*
X006471Y001460D02*
X006335Y001460D01*
X006352Y001341D02*
X002704Y001341D01*
X002704Y001223D02*
X006234Y001223D01*
X006115Y001104D02*
X003481Y001104D01*
X003274Y001104D02*
X002703Y001104D01*
X002704Y001107D02*
X002704Y001468D01*
X002354Y001468D01*
X002354Y000968D01*
X002565Y000968D01*
X002606Y000979D01*
X002642Y001000D01*
X002672Y001030D01*
X002693Y001066D01*
X002704Y001107D01*
X002618Y000986D02*
X003087Y000986D01*
X003016Y000867D02*
X001348Y000867D01*
X001381Y000749D02*
X002990Y000749D01*
X002999Y000630D02*
X001379Y000630D01*
X002234Y000986D02*
X002354Y000986D01*
X002354Y001104D02*
X002234Y001104D01*
X002234Y001223D02*
X002354Y001223D01*
X002354Y001341D02*
X002234Y001341D01*
X002234Y001460D02*
X002354Y001460D01*
X002354Y001468D02*
X002234Y001468D01*
X002234Y001588D01*
X001884Y001588D01*
X001884Y001949D01*
X001895Y001990D01*
X001916Y002026D01*
X001946Y002056D01*
X001982Y002077D01*
X002023Y002088D01*
X002234Y002088D01*
X002234Y001588D01*
X002354Y001588D01*
X002354Y002088D01*
X002565Y002088D01*
X002606Y002077D01*
X002642Y002056D01*
X002672Y002026D01*
X002693Y001990D01*
X002704Y001949D01*
X002704Y001588D01*
X002354Y001588D01*
X002354Y001468D01*
X002354Y001578D02*
X004944Y001578D01*
X004944Y001697D02*
X002704Y001697D01*
X002704Y001815D02*
X004944Y001815D01*
X004894Y001970D02*
X004684Y001760D01*
X004594Y001760D01*
X004894Y001970D02*
X004894Y002430D01*
X005043Y002600D01*
X005398Y002590D01*
X005309Y002605D01*
X004139Y001934D02*
X002704Y001934D01*
X002646Y002052D02*
X003501Y002052D01*
X003804Y002052D02*
X003880Y002052D01*
X003880Y002171D02*
X003804Y002171D01*
X003842Y002351D02*
X003760Y002432D01*
X002740Y002422D02*
X002314Y002422D01*
X002314Y002422D01*
X002314Y002422D01*
X002314Y002183D01*
X002601Y002183D01*
X002642Y002194D01*
X002678Y002215D01*
X002708Y002245D01*
X002729Y002281D01*
X002314Y002289D02*
X002314Y002289D01*
X002314Y002408D02*
X002314Y002408D01*
X002354Y002052D02*
X002234Y002052D01*
X002234Y001934D02*
X002354Y001934D01*
X002354Y001815D02*
X002234Y001815D01*
X002234Y001697D02*
X002354Y001697D01*
X002704Y001460D02*
X004956Y001460D01*
X005309Y001605D02*
X005408Y001600D01*
X005191Y000986D02*
X003667Y000986D01*
X003739Y000867D02*
X005110Y000867D01*
X005077Y000749D02*
X003764Y000749D01*
X003756Y000630D02*
X005079Y000630D01*
X005738Y000986D02*
X005997Y000986D01*
X005878Y000867D02*
X005819Y000867D01*
X001884Y001223D02*
X001607Y001223D01*
X001698Y001341D02*
X001884Y001341D01*
X001884Y001460D02*
X001735Y001460D01*
X001739Y001697D02*
X001884Y001697D01*
X001884Y001815D02*
X001731Y001815D01*
X001688Y001934D02*
X001884Y001934D01*
X001942Y002052D02*
X001586Y002052D01*
X001785Y002645D02*
X001908Y002645D01*
X001908Y002763D02*
X001785Y002763D01*
X001778Y002882D02*
X001908Y002882D01*
X001908Y003000D02*
X001782Y003000D01*
X001753Y002934D02*
X001753Y002934D01*
X001753Y002934D01*
X001785Y003119D02*
X001908Y003119D01*
X001908Y003237D02*
X001785Y003237D01*
X001311Y003237D02*
X001191Y003237D01*
X001191Y003119D02*
X001311Y003119D01*
X001311Y003000D02*
X001191Y003000D01*
X001191Y002882D02*
X001311Y002882D01*
X001311Y002763D02*
X001191Y002763D01*
X001191Y002645D02*
X001311Y002645D01*
X003864Y004145D02*
X003959Y004145D01*
X002893Y005489D02*
X002642Y005489D01*
X002642Y005607D02*
X002893Y005607D01*
X002893Y005726D02*
X002634Y005726D01*
X002266Y005726D02*
X002146Y005726D01*
X002146Y005607D02*
X002266Y005607D01*
X002266Y005489D02*
X002146Y005489D01*
X011002Y006318D02*
X011575Y006318D01*
X011575Y006200D02*
X011013Y006200D01*
X011024Y006081D02*
X011575Y006081D01*
X011575Y005963D02*
X011035Y005963D01*
X011046Y005844D02*
X011575Y005844D01*
X011575Y005726D02*
X011057Y005726D01*
X011069Y005607D02*
X011575Y005607D01*
X011575Y005489D02*
X011080Y005489D01*
X011091Y005370D02*
X011575Y005370D01*
X011546Y005298D02*
X011400Y005358D01*
X011242Y005358D01*
X011098Y005299D01*
X010920Y007181D01*
X010919Y007326D01*
X010947Y007926D01*
X011073Y007873D01*
X011231Y007873D01*
X011377Y007934D01*
X011489Y008046D01*
X011550Y008192D01*
X011550Y008350D01*
X011489Y008496D01*
X011377Y008607D01*
X011231Y008668D01*
X011073Y008668D01*
X010980Y008629D01*
X011098Y011178D01*
X011159Y011118D01*
X011305Y011057D01*
X011463Y011057D01*
X011609Y011118D01*
X011720Y011230D01*
X011781Y011376D01*
X011781Y011418D01*
X013145Y011399D01*
X013145Y010155D01*
X012902Y010155D01*
X012774Y010026D01*
X012774Y009833D01*
X012760Y009821D01*
X012710Y009778D01*
X012709Y009777D01*
X011734Y008931D01*
X011722Y008926D01*
X011683Y008887D01*
X011641Y008850D01*
X011635Y008839D01*
X011627Y008830D01*
X011605Y008779D01*
X011580Y008729D01*
X011580Y008717D01*
X011575Y008705D01*
X011575Y008650D01*
X011571Y008594D01*
X011575Y008583D01*
X011575Y005268D01*
X011546Y005298D01*
X011575Y004653D02*
X011575Y003762D01*
X011569Y003719D01*
X011575Y003695D01*
X011575Y003670D01*
X011591Y003630D01*
X011602Y003588D01*
X011617Y003568D01*
X011627Y003545D01*
X011657Y003514D01*
X012175Y002824D01*
X012175Y002293D01*
X012171Y002282D01*
X012175Y002226D01*
X012175Y002170D01*
X012180Y002159D01*
X012180Y002147D01*
X012205Y002097D01*
X012227Y002045D01*
X012235Y002037D01*
X012241Y002026D01*
X012283Y001989D01*
X012322Y001950D01*
X012334Y001945D01*
X012832Y001511D01*
X012872Y001472D01*
X012883Y001467D01*
X012892Y001460D01*
X012945Y001442D01*
X012997Y001420D01*
X013009Y001420D01*
X013020Y001417D01*
X013076Y001420D01*
X013455Y001421D01*
X013513Y001418D01*
X013522Y001421D01*
X013532Y001421D01*
X013586Y001444D01*
X013641Y001463D01*
X013648Y001469D01*
X013657Y001473D01*
X013698Y001514D01*
X014530Y002262D01*
X014540Y002266D01*
X014580Y002307D01*
X014623Y002346D01*
X014628Y002355D01*
X014635Y002362D01*
X014657Y002416D01*
X014681Y002468D01*
X014682Y002478D01*
X014686Y002487D01*
X014686Y002545D01*
X014689Y002603D01*
X014685Y002612D01*
X014681Y003498D01*
X015201Y003498D01*
X015214Y003503D01*
X015366Y003503D01*
X015411Y003458D01*
X015522Y003412D01*
X015998Y003412D01*
X015998Y003405D01*
X016073Y003329D01*
X016069Y003321D01*
X016058Y003281D01*
X016058Y003082D01*
X016376Y003082D01*
X016376Y003005D01*
X016058Y003005D01*
X016058Y002806D01*
X016069Y002765D01*
X016090Y002728D01*
X016120Y002699D01*
X016156Y002677D01*
X016197Y002667D01*
X016376Y002667D01*
X016376Y003005D01*
X016453Y003005D01*
X016453Y003082D01*
X016772Y003082D01*
X016772Y003281D01*
X016761Y003321D01*
X016756Y003329D01*
X016805Y003378D01*
X016840Y003363D01*
X016989Y003363D01*
X017127Y003420D01*
X017233Y003525D01*
X017290Y003663D01*
X017290Y003812D01*
X017233Y003950D01*
X017127Y004056D01*
X016989Y004113D01*
X016840Y004113D01*
X016815Y004102D01*
X016815Y004568D01*
X017735Y004568D01*
X017759Y004558D01*
X018051Y004558D01*
X018102Y004556D01*
X018106Y004558D01*
X018111Y004558D01*
X018158Y004577D01*
X018206Y004596D01*
X018209Y004599D01*
X018213Y004600D01*
X018250Y004637D01*
X018360Y004741D01*
X018381Y004705D01*
X018411Y004675D01*
X018447Y004654D01*
X018488Y004643D01*
X018535Y004643D01*
X018494Y004543D01*
X018494Y004394D01*
X018551Y004256D01*
X018656Y004150D01*
X018794Y004093D01*
X018943Y004093D01*
X019081Y004150D01*
X019187Y004256D01*
X019244Y004394D01*
X019244Y004543D01*
X019227Y004583D01*
X020845Y004583D01*
X020867Y004493D01*
X020867Y004394D01*
X020924Y004256D01*
X020926Y004254D01*
X020938Y004205D01*
X017724Y002839D01*
X017724Y002873D01*
X017663Y003019D01*
X017552Y003130D01*
X017406Y003191D01*
X017248Y003191D01*
X017102Y003130D01*
X016990Y003019D01*
X016929Y002873D01*
X016929Y002715D01*
X016990Y002569D01*
X017019Y002539D01*
X015315Y001815D01*
X015362Y001927D01*
X015362Y002085D01*
X015301Y002231D01*
X015189Y002343D01*
X015043Y002403D01*
X014885Y002403D01*
X014739Y002343D01*
X014628Y002231D01*
X014567Y002085D01*
X014567Y001927D01*
X014628Y001781D01*
X014739Y001670D01*
X014858Y001621D01*
X012396Y000574D01*
X012375Y000572D01*
X012340Y000555D01*
X012303Y000542D01*
X012294Y000534D01*
X012231Y000508D01*
X012039Y000480D01*
X011848Y000514D01*
X011846Y000515D01*
X011939Y000515D01*
X012085Y000576D01*
X012197Y000687D01*
X012257Y000833D01*
X012257Y000991D01*
X012197Y001137D01*
X012085Y001249D01*
X011939Y001309D01*
X011781Y001309D01*
X011635Y001249D01*
X011545Y001158D01*
X011415Y001938D01*
X011164Y004596D01*
X011242Y004564D01*
X011400Y004564D01*
X011546Y004624D01*
X011575Y004653D01*
X011575Y004541D02*
X011169Y004541D01*
X011180Y004422D02*
X011575Y004422D01*
X011575Y004304D02*
X011192Y004304D01*
X011203Y004185D02*
X011575Y004185D01*
X011575Y004067D02*
X011214Y004067D01*
X011225Y003948D02*
X011575Y003948D01*
X011575Y003830D02*
X011236Y003830D01*
X011248Y003711D02*
X011571Y003711D01*
X011601Y003593D02*
X011259Y003593D01*
X011270Y003474D02*
X011687Y003474D01*
X011776Y003356D02*
X011281Y003356D01*
X011292Y003237D02*
X011865Y003237D01*
X011954Y003119D02*
X011303Y003119D01*
X011315Y003000D02*
X012043Y003000D01*
X012132Y002882D02*
X011326Y002882D01*
X011337Y002763D02*
X012175Y002763D01*
X012175Y002645D02*
X011348Y002645D01*
X011359Y002526D02*
X012175Y002526D01*
X012175Y002408D02*
X011370Y002408D01*
X011382Y002289D02*
X012174Y002289D01*
X012175Y002171D02*
X011393Y002171D01*
X011404Y002052D02*
X012224Y002052D01*
X012346Y001934D02*
X011415Y001934D01*
X011435Y001815D02*
X012483Y001815D01*
X012619Y001697D02*
X011455Y001697D01*
X011475Y001578D02*
X012755Y001578D01*
X012891Y001460D02*
X011494Y001460D01*
X011514Y001341D02*
X014201Y001341D01*
X013922Y001223D02*
X012111Y001223D01*
X012211Y001104D02*
X013644Y001104D01*
X013365Y000986D02*
X012257Y000986D01*
X012257Y000867D02*
X013086Y000867D01*
X012807Y000749D02*
X012222Y000749D01*
X012140Y000630D02*
X012529Y000630D01*
X012396Y000574D02*
X012396Y000574D01*
X012239Y000512D02*
X011860Y000512D01*
X011609Y001223D02*
X011534Y001223D01*
X013632Y001460D02*
X014480Y001460D01*
X014758Y001578D02*
X013769Y001578D01*
X013901Y001697D02*
X014712Y001697D01*
X014614Y001815D02*
X014033Y001815D01*
X014165Y001934D02*
X014567Y001934D01*
X014567Y002052D02*
X014297Y002052D01*
X014428Y002171D02*
X014603Y002171D01*
X014563Y002289D02*
X014686Y002289D01*
X014653Y002408D02*
X016710Y002408D01*
X016633Y002667D02*
X016453Y002667D01*
X016453Y003005D01*
X016772Y003005D01*
X016772Y002806D01*
X016761Y002765D01*
X016740Y002728D01*
X016710Y002699D01*
X016673Y002677D01*
X016633Y002667D01*
X016760Y002763D02*
X016929Y002763D01*
X016933Y002882D02*
X016772Y002882D01*
X016772Y003000D02*
X016982Y003000D01*
X017090Y003119D02*
X016772Y003119D01*
X016772Y003237D02*
X018661Y003237D01*
X018939Y003356D02*
X016783Y003356D01*
X017182Y003474D02*
X019218Y003474D01*
X019497Y003593D02*
X017261Y003593D01*
X017290Y003711D02*
X019775Y003711D01*
X020054Y003830D02*
X017283Y003830D01*
X017234Y003948D02*
X020333Y003948D01*
X020612Y004067D02*
X017100Y004067D01*
X016815Y004185D02*
X018621Y004185D01*
X018531Y004304D02*
X016815Y004304D01*
X016815Y004422D02*
X018494Y004422D01*
X018494Y004541D02*
X016815Y004541D01*
X016215Y004541D02*
X014198Y004541D01*
X014080Y004659D02*
X016215Y004659D01*
X016215Y004778D02*
X013215Y004778D01*
X013215Y004808D02*
X013660Y004808D01*
X013660Y004974D01*
X013382Y005253D01*
X013215Y005253D01*
X013215Y004808D01*
X013155Y004808D01*
X013155Y005253D01*
X013009Y005253D01*
X013009Y007797D01*
X013124Y007682D01*
X014306Y007682D01*
X014435Y007811D01*
X014435Y007858D01*
X017178Y007858D01*
X017178Y007825D01*
X017213Y007742D01*
X017101Y007630D01*
X017101Y006306D01*
X017111Y006296D01*
X017111Y006095D01*
X016613Y006095D01*
X016502Y006050D01*
X016418Y005965D01*
X016261Y005808D01*
X016215Y005697D01*
X016215Y004149D01*
X016127Y004149D01*
X015998Y004020D01*
X015998Y004012D01*
X015830Y004012D01*
X015830Y004366D01*
X015701Y004495D01*
X014889Y004495D01*
X014760Y004366D01*
X014760Y004178D01*
X014439Y004178D01*
X014330Y004248D01*
X014330Y004409D01*
X014016Y004723D01*
X013660Y004723D01*
X013660Y004748D01*
X013215Y004748D01*
X013215Y004808D01*
X013215Y004748D02*
X013215Y004303D01*
X013260Y004303D01*
X013260Y004123D01*
X013150Y004123D01*
X013009Y004293D01*
X013009Y004303D01*
X013155Y004303D01*
X013155Y004748D01*
X013215Y004748D01*
X013215Y004659D02*
X013155Y004659D01*
X013155Y004541D02*
X013215Y004541D01*
X013215Y004422D02*
X013155Y004422D01*
X013155Y004304D02*
X013215Y004304D01*
X013260Y004185D02*
X013098Y004185D01*
X013205Y003588D02*
X012965Y003588D01*
X014330Y004304D02*
X014760Y004304D01*
X014760Y004185D02*
X014427Y004185D01*
X014317Y004422D02*
X014816Y004422D01*
X014878Y005081D02*
X014712Y005081D01*
X014559Y005144D01*
X014441Y005262D01*
X014378Y005415D01*
X014378Y005581D01*
X014441Y005734D01*
X014559Y005851D01*
X014712Y005915D01*
X014878Y005915D01*
X015031Y005851D01*
X015148Y005734D01*
X015212Y005581D01*
X015212Y005415D01*
X015148Y005262D01*
X015031Y005144D01*
X014878Y005081D01*
X015004Y005133D02*
X016215Y005133D01*
X016215Y005015D02*
X013620Y005015D01*
X013660Y004896D02*
X016215Y004896D01*
X016215Y005252D02*
X015138Y005252D01*
X015193Y005370D02*
X016215Y005370D01*
X016215Y005489D02*
X015212Y005489D01*
X015201Y005607D02*
X016215Y005607D01*
X016227Y005726D02*
X015152Y005726D01*
X015038Y005844D02*
X016297Y005844D01*
X016416Y005963D02*
X013009Y005963D01*
X013009Y006081D02*
X016579Y006081D01*
X017111Y006200D02*
X013009Y006200D01*
X013009Y006318D02*
X017101Y006318D01*
X017101Y006437D02*
X014366Y006437D01*
X014364Y006430D02*
X014375Y006471D01*
X014375Y006682D01*
X013775Y006682D01*
X013775Y006802D01*
X013655Y006802D01*
X013655Y007152D01*
X013194Y007152D01*
X013153Y007141D01*
X013117Y007120D01*
X013087Y007090D01*
X013066Y007054D01*
X013055Y007013D01*
X013055Y006802D01*
X013655Y006802D01*
X013655Y006682D01*
X013055Y006682D01*
X013055Y006471D01*
X013066Y006430D01*
X013087Y006394D01*
X013117Y006364D01*
X013153Y006343D01*
X013194Y006332D01*
X013655Y006332D01*
X013655Y006682D01*
X013775Y006682D01*
X013775Y006332D01*
X014236Y006332D01*
X014277Y006343D01*
X014313Y006364D01*
X014343Y006394D01*
X014364Y006430D01*
X014375Y006555D02*
X017101Y006555D01*
X017101Y006674D02*
X014375Y006674D01*
X014375Y006802D02*
X014375Y007013D01*
X014364Y007054D01*
X014343Y007090D01*
X014313Y007120D01*
X014277Y007141D01*
X014236Y007152D01*
X013775Y007152D01*
X013775Y006802D01*
X014375Y006802D01*
X014375Y006911D02*
X017101Y006911D01*
X017101Y007029D02*
X014370Y007029D01*
X014251Y007148D02*
X017101Y007148D01*
X017101Y007266D02*
X013009Y007266D01*
X013009Y007148D02*
X013179Y007148D01*
X013059Y007029D02*
X013009Y007029D01*
X013009Y006911D02*
X013055Y006911D01*
X013009Y006792D02*
X013655Y006792D01*
X013655Y006674D02*
X013775Y006674D01*
X013775Y006792D02*
X017101Y006792D01*
X017449Y006810D02*
X017449Y006495D01*
X017459Y006110D01*
X017459Y005795D01*
X017951Y005795D02*
X020048Y005801D01*
X020625Y006418D01*
X020634Y006411D01*
X020625Y006418D02*
X020625Y007957D01*
X020375Y007951D02*
X020369Y007957D01*
X020365Y007953D02*
X020372Y006745D01*
X019753Y006108D01*
X018414Y006109D01*
X019742Y006106D01*
X017951Y006110D01*
X017941Y006495D02*
X018128Y006498D01*
X018365Y006348D01*
X019445Y006348D01*
X020115Y007038D01*
X020115Y007955D01*
X020113Y007957D01*
X020115Y008288D01*
X020317Y008490D01*
X020635Y008487D01*
X020720Y008639D01*
X020715Y008738D01*
X021051Y008570D02*
X022030Y008570D01*
X022035Y008586D02*
X022024Y008546D01*
X022024Y008366D01*
X022362Y008366D01*
X022362Y008289D01*
X022439Y008289D01*
X022439Y007971D01*
X022638Y007971D01*
X022678Y007982D01*
X022686Y007986D01*
X022762Y007911D01*
X023377Y007911D01*
X023506Y008040D01*
X023506Y008616D01*
X023449Y008673D01*
X023473Y008673D01*
X023602Y008802D01*
X023602Y009051D01*
X023806Y009051D01*
X023836Y009021D01*
X023842Y008104D01*
X023841Y008104D01*
X023842Y008049D01*
X023842Y007994D01*
X023843Y007993D01*
X023843Y007992D01*
X023864Y007942D01*
X023886Y007891D01*
X023886Y007891D01*
X023887Y007890D01*
X023926Y007851D01*
X023965Y007813D01*
X023966Y007813D01*
X023966Y007812D01*
X024017Y007792D01*
X024068Y007771D01*
X024069Y007771D01*
X024075Y007768D01*
X024075Y007293D01*
X023573Y006969D01*
X023195Y006969D01*
X023195Y007089D01*
X023610Y007089D01*
X023610Y007326D01*
X023599Y007366D01*
X023578Y007403D01*
X023548Y007433D01*
X023512Y007454D01*
X023471Y007465D01*
X023195Y007465D01*
X023195Y007089D01*
X023075Y007089D01*
X023075Y007465D01*
X022799Y007465D01*
X022758Y007454D01*
X022722Y007433D01*
X022692Y007403D01*
X022671Y007366D01*
X022660Y007326D01*
X022660Y007089D01*
X023075Y007089D01*
X023075Y006969D01*
X022660Y006969D01*
X022660Y006732D01*
X022671Y006692D01*
X022692Y006655D01*
X022722Y006625D01*
X022758Y006604D01*
X022799Y006593D01*
X022991Y006593D01*
X022502Y006278D01*
X021666Y006278D01*
X021651Y006283D01*
X021599Y006278D01*
X021547Y006278D01*
X021532Y006272D01*
X021516Y006270D01*
X021470Y006246D01*
X021422Y006226D01*
X021411Y006215D01*
X021397Y006207D01*
X021363Y006167D01*
X021327Y006130D01*
X021320Y006115D01*
X021198Y005968D01*
X021161Y005931D01*
X021155Y005916D01*
X021145Y005904D01*
X021129Y005854D01*
X021114Y005818D01*
X020447Y005818D01*
X020651Y006036D01*
X020709Y006036D01*
X020847Y006094D01*
X020952Y006199D01*
X021009Y006337D01*
X021009Y006486D01*
X020952Y006624D01*
X020905Y006672D01*
X020905Y006778D01*
X020940Y006763D01*
X021089Y006763D01*
X021227Y006820D01*
X021333Y006925D01*
X021390Y007063D01*
X021390Y007117D01*
X021551Y007278D01*
X021630Y007357D01*
X021672Y007460D01*
X021672Y007582D01*
X021681Y007591D01*
X021681Y008323D01*
X021552Y008452D01*
X020960Y008452D01*
X021033Y008525D01*
X021090Y008663D01*
X021090Y008812D01*
X021033Y008950D01*
X020927Y009056D01*
X020789Y009113D01*
X020640Y009113D01*
X020502Y009056D01*
X020397Y008950D01*
X020340Y008812D01*
X020340Y008770D01*
X020318Y008770D01*
X020290Y008770D01*
X020290Y008812D01*
X020233Y008950D01*
X020127Y009056D01*
X019989Y009113D01*
X019840Y009113D01*
X019702Y009056D01*
X019665Y009018D01*
X019627Y009056D01*
X019489Y009113D01*
X019340Y009113D01*
X019202Y009056D01*
X019143Y008997D01*
X019136Y009014D01*
X019031Y009120D01*
X018893Y009177D01*
X018744Y009177D01*
X018606Y009120D01*
X018500Y009014D01*
X018466Y008931D01*
X018437Y009001D01*
X018332Y009106D01*
X018194Y009163D01*
X018045Y009163D01*
X017907Y009106D01*
X017801Y009001D01*
X017744Y008863D01*
X017744Y008714D01*
X017792Y008599D01*
X017497Y008896D01*
X017497Y008896D01*
X017458Y008935D01*
X017419Y008975D01*
X017418Y008975D01*
X017367Y008996D01*
X017316Y009018D01*
X017316Y009018D01*
X017315Y009018D01*
X017260Y009018D01*
X017205Y009018D01*
X017204Y009018D01*
X015231Y009018D01*
X015115Y009134D01*
X015115Y010415D01*
X015240Y010363D01*
X015389Y010363D01*
X015527Y010420D01*
X015633Y010525D01*
X015690Y010663D01*
X015690Y010812D01*
X015663Y010878D01*
X015717Y011029D01*
X015729Y011035D01*
X015731Y011030D01*
X015768Y010979D01*
X015815Y010937D01*
X015868Y010904D01*
X015879Y010900D01*
X016153Y011652D01*
X016190Y011638D01*
X015917Y010886D01*
X015928Y010882D01*
X015990Y010873D01*
X016053Y010876D01*
X016114Y010891D01*
X016171Y010917D01*
X016173Y010919D01*
X016174Y010916D01*
X016201Y010859D01*
X016238Y010808D01*
X016284Y010766D01*
X016338Y010733D01*
X016349Y010729D01*
X016623Y011481D01*
X016660Y011467D01*
X016387Y010715D01*
X016398Y010711D01*
X016460Y010702D01*
X016523Y010705D01*
X016584Y010720D01*
X016641Y010746D01*
X016692Y010783D01*
X016735Y010830D01*
X016767Y010884D01*
X016942Y011365D01*
X016660Y011467D01*
X016674Y011505D01*
X016636Y011518D01*
X016623Y011481D01*
X016341Y011583D01*
X016190Y011638D01*
X016204Y011676D01*
X016167Y011689D01*
X016440Y012441D01*
X016429Y012445D01*
X016367Y012455D01*
X016304Y012452D01*
X016243Y012437D01*
X016238Y012435D01*
X016192Y012534D01*
X016081Y012636D01*
X015939Y012688D01*
X015788Y012681D01*
X015743Y012660D01*
X015722Y012705D01*
X015611Y012807D01*
X015469Y012859D01*
X015318Y012852D01*
X015273Y012831D01*
X015252Y012876D01*
X015141Y012978D01*
X014999Y013030D01*
X014848Y013023D01*
X014803Y013002D01*
X014783Y013047D01*
X014671Y013149D01*
X014529Y013201D01*
X014412Y013195D01*
X014927Y013712D01*
X015681Y013712D01*
X018844Y010572D01*
X018846Y010569D01*
X018884Y010533D01*
X018921Y010496D01*
X018924Y010495D01*
X019112Y010317D01*
X019112Y010104D01*
X019240Y009975D01*
X019777Y009975D01*
X019906Y010104D01*
X019906Y010561D01*
X019879Y010588D01*
X019906Y010615D01*
X019906Y010657D01*
X020676Y010660D01*
X020676Y010069D01*
X020752Y009993D01*
X020747Y009985D01*
X020736Y009945D01*
X020736Y009746D01*
X021055Y009746D01*
X021055Y009669D01*
X020736Y009669D01*
X020736Y009470D01*
X020747Y009429D01*
X020768Y009392D01*
X020798Y009363D01*
X020835Y009342D01*
X020875Y009331D01*
X021055Y009331D01*
X021055Y009669D01*
X021132Y009669D01*
X021132Y009746D01*
X021450Y009746D01*
X021450Y009945D01*
X021439Y009985D01*
X021435Y009993D01*
X021510Y010069D01*
X021510Y010287D01*
X021536Y010286D01*
X021646Y010241D01*
X021650Y010241D01*
X021650Y009180D01*
X021779Y009051D01*
X022028Y009051D01*
X022028Y008802D01*
X022149Y008681D01*
X022122Y008674D01*
X022085Y008653D01*
X022056Y008623D01*
X022035Y008586D01*
X022024Y008451D02*
X021553Y008451D01*
X021671Y008333D02*
X022362Y008333D01*
X022390Y008338D02*
X022400Y008328D01*
X022390Y008338D02*
X022015Y008338D01*
X021715Y008638D01*
X021238Y009118D01*
X021092Y009264D01*
X021093Y009707D01*
X021132Y009669D02*
X021450Y009669D01*
X021450Y009470D01*
X021439Y009429D01*
X021418Y009392D01*
X021388Y009363D01*
X021352Y009342D01*
X021311Y009331D01*
X021132Y009331D01*
X021132Y009669D01*
X021132Y009636D02*
X021055Y009636D01*
X021055Y009518D02*
X021132Y009518D01*
X021132Y009399D02*
X021055Y009399D01*
X020764Y009399D02*
X015115Y009399D01*
X015115Y009281D02*
X021650Y009281D01*
X021650Y009399D02*
X021422Y009399D01*
X021450Y009518D02*
X021650Y009518D01*
X021650Y009636D02*
X021450Y009636D01*
X021450Y009755D02*
X021650Y009755D01*
X021650Y009873D02*
X021450Y009873D01*
X021436Y009992D02*
X021650Y009992D01*
X021650Y010110D02*
X021510Y010110D01*
X021510Y010229D02*
X021650Y010229D01*
X022425Y009837D02*
X022514Y009748D01*
X022651Y009691D01*
X022801Y009691D01*
X022938Y009748D01*
X023044Y009854D01*
X023101Y009992D01*
X023205Y009992D01*
X023205Y009967D02*
X023205Y010115D01*
X023101Y010028D01*
X023101Y009992D01*
X023205Y009967D02*
X023205Y009448D01*
X022747Y009448D01*
X022716Y009417D01*
X022685Y009448D01*
X022425Y009448D01*
X022425Y009837D01*
X022425Y009755D02*
X022507Y009755D01*
X022425Y009636D02*
X023205Y009636D01*
X023205Y009518D02*
X022425Y009518D01*
X022716Y009531D02*
X022915Y009538D01*
X023095Y009703D01*
X023205Y009755D02*
X022945Y009755D01*
X023052Y009873D02*
X023205Y009873D01*
X023199Y010110D02*
X023205Y010110D01*
X023585Y010338D02*
X023592Y010330D01*
X023907Y010430D02*
X023907Y009346D01*
X024115Y009138D01*
X024122Y008051D01*
X024449Y007920D01*
X024449Y007605D01*
X024075Y007622D02*
X021681Y007622D01*
X021681Y007740D02*
X024075Y007740D01*
X023918Y007859D02*
X021681Y007859D01*
X021681Y007977D02*
X022139Y007977D01*
X022122Y007982D02*
X022163Y007971D01*
X022362Y007971D01*
X022362Y008289D01*
X022024Y008289D01*
X022024Y008110D01*
X022035Y008069D01*
X022056Y008033D01*
X022085Y008003D01*
X022122Y007982D01*
X022027Y008096D02*
X021681Y008096D01*
X021681Y008214D02*
X022024Y008214D01*
X022362Y008214D02*
X022439Y008214D01*
X022411Y008296D02*
X022715Y008738D01*
X022915Y008738D02*
X023069Y008583D01*
X023069Y008328D01*
X023506Y008333D02*
X023840Y008333D01*
X023839Y008451D02*
X023506Y008451D01*
X023506Y008570D02*
X023839Y008570D01*
X023838Y008688D02*
X023488Y008688D01*
X023602Y008807D02*
X023837Y008807D01*
X023836Y008925D02*
X023602Y008925D01*
X023602Y009044D02*
X023813Y009044D01*
X023841Y008214D02*
X023506Y008214D01*
X023506Y008096D02*
X023841Y008096D01*
X023849Y007977D02*
X023444Y007977D01*
X022695Y007977D02*
X022662Y007977D01*
X022439Y007977D02*
X022362Y007977D01*
X022362Y008096D02*
X022439Y008096D01*
X022141Y008688D02*
X021090Y008688D01*
X021090Y008807D02*
X022028Y008807D01*
X022028Y008925D02*
X021043Y008925D01*
X020939Y009044D02*
X022028Y009044D01*
X021667Y009162D02*
X018928Y009162D01*
X019107Y009044D02*
X019191Y009044D01*
X018818Y008802D02*
X018818Y008619D01*
X019000Y008441D01*
X019215Y008438D01*
X019345Y008308D01*
X019345Y007957D01*
X019345Y007957D01*
X019345Y007378D01*
X019135Y007168D01*
X018525Y007168D01*
X018172Y007440D01*
X017941Y007440D01*
X017941Y007125D02*
X018157Y007125D01*
X018445Y006898D01*
X019242Y006895D01*
X019605Y007258D01*
X019605Y007961D01*
X019605Y008348D01*
X019415Y008538D01*
X019415Y008738D01*
X019915Y008738D02*
X019915Y008438D01*
X019857Y008380D01*
X019857Y007957D01*
X019855Y007955D01*
X019855Y007158D01*
X019335Y006628D01*
X018405Y006628D01*
X018172Y006810D01*
X017941Y006810D01*
X017449Y006810D02*
X017449Y007125D01*
X017449Y007440D01*
X017101Y007385D02*
X013009Y007385D01*
X013009Y007503D02*
X017101Y007503D01*
X017101Y007622D02*
X013009Y007622D01*
X013009Y007740D02*
X013065Y007740D01*
X013329Y008138D02*
X013715Y008152D01*
X013329Y008138D02*
X017315Y008138D01*
X017211Y007740D02*
X014364Y007740D01*
X013775Y007148D02*
X013655Y007148D01*
X013655Y007029D02*
X013775Y007029D01*
X013775Y006911D02*
X013655Y006911D01*
X013655Y006555D02*
X013775Y006555D01*
X013775Y006437D02*
X013655Y006437D01*
X013064Y006437D02*
X013009Y006437D01*
X013009Y006555D02*
X013055Y006555D01*
X013055Y006674D02*
X013009Y006674D01*
X011575Y006674D02*
X010968Y006674D01*
X010957Y006792D02*
X011575Y006792D01*
X011575Y006911D02*
X010946Y006911D01*
X010935Y007029D02*
X011575Y007029D01*
X011575Y007148D02*
X010923Y007148D01*
X010919Y007266D02*
X011575Y007266D01*
X011575Y007385D02*
X010922Y007385D01*
X010927Y007503D02*
X011575Y007503D01*
X011575Y007622D02*
X010933Y007622D01*
X010938Y007740D02*
X011575Y007740D01*
X011575Y007859D02*
X010944Y007859D01*
X011421Y007977D02*
X011575Y007977D01*
X011575Y008096D02*
X011510Y008096D01*
X011550Y008214D02*
X011575Y008214D01*
X011575Y008333D02*
X011550Y008333D01*
X011575Y008451D02*
X011508Y008451D01*
X011575Y008570D02*
X011415Y008570D01*
X011575Y008688D02*
X010982Y008688D01*
X010988Y008807D02*
X011617Y008807D01*
X011722Y008925D02*
X010993Y008925D01*
X010999Y009044D02*
X011864Y009044D01*
X012001Y009162D02*
X011004Y009162D01*
X011010Y009281D02*
X012137Y009281D01*
X012274Y009399D02*
X011015Y009399D01*
X011021Y009518D02*
X012410Y009518D01*
X012547Y009636D02*
X011026Y009636D01*
X011032Y009755D02*
X012684Y009755D01*
X012774Y009873D02*
X011037Y009873D01*
X011043Y009992D02*
X012774Y009992D01*
X012858Y010110D02*
X011048Y010110D01*
X011054Y010229D02*
X013145Y010229D01*
X013145Y010347D02*
X011059Y010347D01*
X011065Y010466D02*
X013145Y010466D01*
X013145Y010584D02*
X011070Y010584D01*
X011076Y010703D02*
X013145Y010703D01*
X013145Y010821D02*
X011082Y010821D01*
X011087Y010940D02*
X013145Y010940D01*
X013145Y011058D02*
X011465Y011058D01*
X011302Y011058D02*
X011093Y011058D01*
X011098Y011177D02*
X011100Y011177D01*
X011667Y011177D02*
X013145Y011177D01*
X013145Y011295D02*
X011747Y011295D01*
X011781Y011414D02*
X012061Y011414D01*
X013829Y012519D02*
X013915Y012704D01*
X014173Y013352D01*
X014811Y013992D01*
X015796Y013992D01*
X019079Y010734D01*
X019487Y010346D01*
X019509Y010332D01*
X019906Y010347D02*
X020676Y010347D01*
X020676Y010229D02*
X019906Y010229D01*
X019906Y010110D02*
X020676Y010110D01*
X020751Y009992D02*
X019794Y009992D01*
X019906Y010466D02*
X020676Y010466D01*
X020676Y010584D02*
X019883Y010584D01*
X019540Y010935D02*
X022178Y010948D01*
X022257Y011204D02*
X019823Y011215D01*
X019710Y011233D01*
X019622Y011286D01*
X019034Y011652D01*
X017178Y013402D01*
X016975Y013332D02*
X016956Y013358D01*
X016940Y013386D01*
X016928Y013416D01*
X016918Y013447D01*
X016911Y013478D01*
X016908Y013510D01*
X016909Y013543D01*
X016912Y013575D01*
X016919Y013607D01*
X016929Y013637D01*
X016943Y013667D01*
X016959Y013695D01*
X016979Y013721D01*
X017000Y013744D01*
X017025Y013766D01*
X017882Y014615D01*
X018030Y014466D02*
X018053Y014491D01*
X018074Y014519D01*
X018091Y014549D01*
X018105Y014581D01*
X018116Y014614D01*
X018123Y014647D01*
X018127Y014682D01*
X018127Y014716D01*
X018123Y014751D01*
X018116Y014784D01*
X018105Y014817D01*
X018091Y014849D01*
X018074Y014879D01*
X018053Y014907D01*
X018030Y014932D01*
X018031Y014933D02*
X017855Y015108D01*
X017701Y014954D02*
X017874Y014786D01*
X017888Y014771D01*
X017899Y014753D01*
X017907Y014733D01*
X017912Y014713D01*
X017913Y014692D01*
X017910Y014671D01*
X017904Y014651D01*
X017894Y014632D01*
X017881Y014615D01*
X018031Y014466D02*
X017178Y013614D01*
X017163Y013596D01*
X017150Y013576D01*
X017141Y013554D01*
X017136Y013531D01*
X017134Y013508D01*
X017136Y013485D01*
X017141Y013462D01*
X017150Y013440D01*
X017163Y013420D01*
X017178Y013402D01*
X016563Y012836D02*
X015531Y012836D01*
X015709Y012717D02*
X016683Y012717D01*
X016802Y012599D02*
X016121Y012599D01*
X016217Y012480D02*
X016922Y012480D01*
X017041Y012362D02*
X016574Y012362D01*
X016589Y012348D02*
X016542Y012391D01*
X016489Y012424D01*
X016478Y012427D01*
X016204Y011676D01*
X016486Y011573D01*
X016486Y011573D01*
X016636Y011518D01*
X016910Y012270D01*
X016899Y012274D01*
X016837Y012284D01*
X016774Y012281D01*
X016713Y012266D01*
X016656Y012239D01*
X016653Y012238D01*
X016653Y012240D01*
X016626Y012297D01*
X016589Y012348D01*
X016651Y012243D02*
X016664Y012243D01*
X016857Y012125D02*
X016900Y012125D01*
X016900Y012243D02*
X016943Y012243D01*
X016948Y012256D02*
X016674Y011505D01*
X016956Y011402D01*
X017131Y011883D01*
X017140Y011945D01*
X017138Y012008D01*
X017123Y012069D01*
X017096Y012126D01*
X017059Y012177D01*
X017012Y012220D01*
X016958Y012253D01*
X016948Y012256D01*
X016974Y012243D02*
X017160Y012243D01*
X017097Y012125D02*
X017280Y012125D01*
X017399Y012006D02*
X017138Y012006D01*
X017132Y011888D02*
X017519Y011888D01*
X017638Y011769D02*
X017090Y011769D01*
X017046Y011651D02*
X017758Y011651D01*
X017877Y011532D02*
X017003Y011532D01*
X016960Y011414D02*
X017996Y011414D01*
X018116Y011295D02*
X016917Y011295D01*
X016924Y011414D02*
X016807Y011414D01*
X016641Y011414D02*
X016598Y011414D01*
X016598Y011532D02*
X016481Y011532D01*
X016341Y011583D02*
X016341Y011583D01*
X016273Y011651D02*
X016195Y011651D01*
X016156Y011651D02*
X016153Y011651D01*
X016152Y011532D02*
X016109Y011532D01*
X016109Y011414D02*
X016066Y011414D01*
X016066Y011295D02*
X016023Y011295D01*
X016023Y011177D02*
X015980Y011177D01*
X015979Y011058D02*
X015937Y011058D01*
X015936Y010940D02*
X015894Y010940D01*
X015811Y010940D02*
X015685Y010940D01*
X015686Y010821D02*
X016228Y010821D01*
X016383Y010821D02*
X016425Y010821D01*
X016426Y010940D02*
X016468Y010940D01*
X016469Y011058D02*
X016512Y011058D01*
X016512Y011177D02*
X016555Y011177D01*
X016555Y011295D02*
X016598Y011295D01*
X016641Y011532D02*
X016684Y011532D01*
X016685Y011651D02*
X016727Y011651D01*
X016728Y011769D02*
X016770Y011769D01*
X016771Y011888D02*
X016813Y011888D01*
X016814Y012006D02*
X016857Y012006D01*
X016368Y012125D02*
X016325Y012125D01*
X016324Y012006D02*
X016282Y012006D01*
X016281Y011888D02*
X016239Y011888D01*
X016238Y011769D02*
X016196Y011769D01*
X015709Y011835D02*
X015315Y010738D01*
X015657Y010584D02*
X017498Y010584D01*
X017498Y010621D02*
X017498Y010455D01*
X017561Y010302D01*
X017679Y010184D01*
X017832Y010121D01*
X017998Y010121D01*
X018151Y010184D01*
X018268Y010302D01*
X018332Y010455D01*
X018332Y010621D01*
X018268Y010774D01*
X018151Y010891D01*
X017998Y010955D01*
X017832Y010955D01*
X017679Y010891D01*
X017561Y010774D01*
X017498Y010621D01*
X017532Y010703D02*
X016481Y010703D01*
X016454Y010703D02*
X015690Y010703D01*
X015573Y010466D02*
X017498Y010466D01*
X017543Y010347D02*
X015115Y010347D01*
X015115Y010229D02*
X017634Y010229D01*
X018195Y010229D02*
X019112Y010229D01*
X019112Y010110D02*
X015115Y010110D01*
X015115Y009992D02*
X019223Y009992D01*
X019079Y010347D02*
X018287Y010347D01*
X018332Y010466D02*
X018955Y010466D01*
X018832Y010584D02*
X018332Y010584D01*
X018298Y010703D02*
X018713Y010703D01*
X018593Y010821D02*
X018221Y010821D01*
X018034Y010940D02*
X018474Y010940D01*
X018355Y011058D02*
X016831Y011058D01*
X016788Y010940D02*
X017796Y010940D01*
X017609Y010821D02*
X016727Y010821D01*
X016874Y011177D02*
X018235Y011177D01*
X019989Y011833D02*
X019989Y011993D01*
X019861Y012122D01*
X019855Y012122D01*
X019855Y012181D01*
X019911Y012181D01*
X019911Y012499D01*
X019988Y012499D01*
X019988Y012181D01*
X020187Y012181D01*
X020228Y012192D01*
X020264Y012213D01*
X020294Y012243D01*
X020315Y012279D01*
X020326Y012320D01*
X020326Y012499D01*
X019988Y012499D01*
X019988Y012576D01*
X020326Y012576D01*
X020326Y012756D01*
X020315Y012796D01*
X020294Y012833D01*
X020264Y012863D01*
X020228Y012884D01*
X020187Y012895D01*
X019988Y012895D01*
X019988Y012576D01*
X019911Y012576D01*
X019911Y012895D01*
X019712Y012895D01*
X019671Y012884D01*
X019663Y012879D01*
X019588Y012955D01*
X019568Y012955D01*
X019685Y013068D01*
X019689Y013069D01*
X019725Y013107D01*
X019763Y013143D01*
X019764Y013146D01*
X019767Y013149D01*
X019774Y013165D01*
X019894Y013165D01*
X019894Y013765D01*
X020014Y013765D01*
X020014Y013165D01*
X020225Y013165D01*
X020266Y013176D01*
X020303Y013197D01*
X020332Y013227D01*
X020353Y013264D01*
X020364Y013304D01*
X020364Y013765D01*
X020014Y013765D01*
X020014Y013885D01*
X019894Y013885D01*
X019894Y014485D01*
X019683Y014485D01*
X019678Y014491D01*
X019674Y014493D01*
X019366Y014779D01*
X019330Y014815D01*
X019325Y014817D01*
X019322Y014820D01*
X019274Y014838D01*
X019227Y014857D01*
X019222Y014857D01*
X019217Y014859D01*
X019166Y014857D01*
X018898Y014856D01*
X018782Y014942D01*
X017883Y015836D01*
X017873Y015846D01*
X017911Y015856D01*
X017968Y015882D01*
X017970Y015884D01*
X017970Y015881D01*
X017997Y015824D01*
X018034Y015773D01*
X018081Y015731D01*
X018135Y015698D01*
X018146Y015694D01*
X018419Y016446D01*
X018137Y016548D01*
X017987Y016603D01*
X018001Y016641D01*
X017963Y016654D01*
X018237Y017406D01*
X018226Y017410D01*
X018164Y017420D01*
X018101Y017417D01*
X018099Y017417D01*
X018143Y017461D01*
X018200Y017598D01*
X018200Y017748D01*
X018143Y017885D01*
X018038Y017991D01*
X017900Y018048D01*
X017751Y018048D01*
X017613Y017991D01*
X017507Y017885D01*
X017450Y017748D01*
X017450Y017732D01*
X017407Y017772D01*
X017265Y017824D01*
X017114Y017817D01*
X017070Y017796D01*
X017049Y017841D01*
X016937Y017943D01*
X016795Y017995D01*
X016644Y017988D01*
X016600Y017967D01*
X016579Y018012D01*
X016468Y018114D01*
X016326Y018166D01*
X016175Y018159D01*
X016130Y018138D01*
X016109Y018183D01*
X015998Y018285D01*
X015856Y018337D01*
X015705Y018330D01*
X015606Y018284D01*
X015604Y018288D01*
X015566Y018339D01*
X015520Y018382D01*
X015466Y018415D01*
X015455Y018419D01*
X015182Y017667D01*
X015144Y017680D01*
X015418Y018432D01*
X015413Y018434D01*
X015415Y018438D01*
X017448Y019019D01*
X017524Y018910D01*
X019302Y016603D01*
X019302Y016603D01*
X019493Y016377D01*
X019416Y016377D01*
X019270Y016316D01*
X019158Y016204D01*
X019098Y016058D01*
X019098Y015900D01*
X019158Y015755D01*
X019270Y015643D01*
X019416Y015582D01*
X019574Y015582D01*
X019720Y015643D01*
X019832Y015755D01*
X019892Y015900D01*
X019892Y015902D01*
X020339Y015372D01*
X020251Y015335D01*
X020140Y015223D01*
X020079Y015077D01*
X020079Y014919D01*
X020140Y014773D01*
X020251Y014662D01*
X020397Y014601D01*
X020555Y014601D01*
X020701Y014662D01*
X020813Y014773D01*
X020823Y014798D01*
X021179Y014375D01*
X021524Y014000D01*
X021511Y014000D01*
X021365Y013940D01*
X021253Y013828D01*
X021193Y013682D01*
X021193Y013524D01*
X021253Y013378D01*
X021365Y013267D01*
X021511Y013206D01*
X021669Y013206D01*
X021815Y013267D01*
X021927Y013378D01*
X021979Y013505D01*
X022539Y012896D01*
X022405Y012841D01*
X022293Y012729D01*
X022233Y012583D01*
X022233Y012425D01*
X022293Y012279D01*
X022405Y012167D01*
X022551Y012107D01*
X022709Y012107D01*
X022855Y012167D01*
X022967Y012279D01*
X023010Y012385D01*
X023152Y012231D01*
X024208Y011179D01*
X024106Y011076D01*
X024085Y011026D01*
X023506Y011616D01*
X023505Y011618D01*
X023467Y011656D01*
X023429Y011695D01*
X023428Y011695D01*
X023427Y011696D01*
X023377Y011717D01*
X023326Y011738D01*
X023325Y011738D01*
X023324Y011739D01*
X023269Y011739D01*
X023215Y011740D01*
X023214Y011739D01*
X022359Y011739D01*
X022335Y011729D01*
X022219Y011729D01*
X022219Y012696D01*
X022090Y012825D01*
X021810Y012825D01*
X021790Y012845D01*
X021790Y012912D01*
X021733Y013050D01*
X021627Y013156D01*
X021489Y013213D01*
X021340Y013213D01*
X021202Y013156D01*
X021097Y013050D01*
X021040Y012912D01*
X021040Y012763D01*
X021044Y012754D01*
X021040Y012755D01*
X020829Y012755D01*
X020829Y012155D01*
X021179Y012155D01*
X021179Y012544D01*
X021202Y012520D01*
X021279Y012488D01*
X021279Y011730D01*
X021179Y011730D01*
X021179Y012035D01*
X020829Y012035D01*
X020829Y012155D01*
X020709Y012155D01*
X020709Y012755D01*
X020497Y012755D01*
X020457Y012744D01*
X020420Y012723D01*
X020391Y012693D01*
X020369Y012657D01*
X020359Y012616D01*
X020359Y012155D01*
X020709Y012155D01*
X020709Y012035D01*
X020359Y012035D01*
X020359Y011731D01*
X020114Y011731D01*
X019989Y011833D01*
X019989Y011888D02*
X020359Y011888D01*
X020359Y012006D02*
X019976Y012006D01*
X019855Y012125D02*
X020709Y012125D01*
X020769Y012095D02*
X020756Y013537D01*
X020425Y013811D01*
X019954Y013825D01*
X020014Y013784D02*
X021235Y013784D01*
X021193Y013665D02*
X020364Y013665D01*
X020364Y013547D02*
X021193Y013547D01*
X021233Y013428D02*
X020364Y013428D01*
X020364Y013310D02*
X021322Y013310D01*
X021288Y013191D02*
X020292Y013191D01*
X020014Y013191D02*
X019894Y013191D01*
X019894Y013310D02*
X020014Y013310D01*
X020014Y013428D02*
X019894Y013428D01*
X019894Y013547D02*
X020014Y013547D01*
X020014Y013665D02*
X019894Y013665D01*
X019894Y013902D02*
X020014Y013902D01*
X020014Y013885D02*
X020014Y014485D01*
X020225Y014485D01*
X020266Y014474D01*
X020303Y014453D01*
X020332Y014424D01*
X020353Y014387D01*
X020364Y014346D01*
X020364Y013885D01*
X020014Y013885D01*
X020014Y014021D02*
X019894Y014021D01*
X019894Y014139D02*
X020014Y014139D01*
X020014Y014258D02*
X019894Y014258D01*
X019894Y014376D02*
X020014Y014376D01*
X020356Y014376D02*
X021178Y014376D01*
X021179Y014375D02*
X021179Y014375D01*
X021078Y014495D02*
X019671Y014495D01*
X019544Y014613D02*
X020368Y014613D01*
X020584Y014613D02*
X020978Y014613D01*
X020879Y014732D02*
X020771Y014732D01*
X020181Y014732D02*
X019416Y014732D01*
X019243Y014850D02*
X020108Y014850D01*
X020079Y014969D02*
X018755Y014969D01*
X018636Y015087D02*
X020083Y015087D01*
X020132Y015206D02*
X018517Y015206D01*
X018398Y015324D02*
X020240Y015324D01*
X020280Y015443D02*
X018279Y015443D01*
X018159Y015561D02*
X020180Y015561D01*
X020080Y015680D02*
X019757Y015680D01*
X019850Y015798D02*
X019980Y015798D01*
X019233Y015680D02*
X018361Y015680D01*
X018380Y015685D02*
X018438Y015711D01*
X018488Y015748D01*
X018531Y015795D01*
X018564Y015849D01*
X018739Y016330D01*
X018457Y016432D01*
X018470Y016470D01*
X018433Y016483D01*
X018419Y016446D01*
X018457Y016432D01*
X018183Y015680D01*
X018194Y015676D01*
X018256Y015667D01*
X018319Y015670D01*
X018380Y015685D01*
X018533Y015798D02*
X019140Y015798D01*
X019098Y015917D02*
X018588Y015917D01*
X018632Y016035D02*
X019098Y016035D01*
X019137Y016154D02*
X018675Y016154D01*
X018718Y016272D02*
X019226Y016272D01*
X019481Y016391D02*
X018761Y016391D01*
X018752Y016367D02*
X018927Y016848D01*
X018937Y016910D01*
X018934Y016973D01*
X018919Y017034D01*
X018893Y017091D01*
X018855Y017142D01*
X018809Y017185D01*
X018755Y017218D01*
X018744Y017221D01*
X018470Y016470D01*
X018752Y016367D01*
X018687Y016391D02*
X018570Y016391D01*
X018442Y016391D02*
X018399Y016391D01*
X018433Y016483D02*
X018283Y016538D01*
X018001Y016641D01*
X018274Y017392D01*
X018285Y017389D01*
X018339Y017356D01*
X018385Y017313D01*
X018423Y017262D01*
X018449Y017205D01*
X018450Y017203D01*
X018452Y017204D01*
X018509Y017231D01*
X018570Y017246D01*
X018633Y017249D01*
X018696Y017239D01*
X018706Y017235D01*
X018433Y016483D01*
X018442Y016509D02*
X018485Y016509D01*
X018485Y016628D02*
X018528Y016628D01*
X018529Y016746D02*
X018571Y016746D01*
X018572Y016865D02*
X018614Y016865D01*
X018615Y016983D02*
X018657Y016983D01*
X018658Y017102D02*
X018701Y017102D01*
X018701Y017220D02*
X018744Y017220D01*
X018747Y017220D02*
X018826Y017220D01*
X018885Y017102D02*
X018918Y017102D01*
X018932Y016983D02*
X019009Y016983D01*
X018930Y016865D02*
X019100Y016865D01*
X019192Y016746D02*
X018890Y016746D01*
X018847Y016628D02*
X019283Y016628D01*
X019381Y016509D02*
X018804Y016509D01*
X018362Y016509D02*
X018245Y016509D01*
X018283Y016538D02*
X018283Y016538D01*
X018137Y016548D02*
X018137Y016548D01*
X018036Y016628D02*
X017996Y016628D01*
X017996Y016746D02*
X018039Y016746D01*
X018040Y016865D02*
X018082Y016865D01*
X018083Y016983D02*
X018125Y016983D01*
X018126Y017102D02*
X018168Y017102D01*
X018169Y017220D02*
X018212Y017220D01*
X018212Y017339D02*
X018255Y017339D01*
X018358Y017339D02*
X018735Y017339D01*
X018644Y017457D02*
X018140Y017457D01*
X018191Y017576D02*
X018552Y017576D01*
X018461Y017694D02*
X018200Y017694D01*
X018173Y017813D02*
X018370Y017813D01*
X018279Y017931D02*
X018097Y017931D01*
X018187Y018050D02*
X016538Y018050D01*
X016950Y017931D02*
X017553Y017931D01*
X017477Y017813D02*
X017295Y017813D01*
X017105Y017813D02*
X017062Y017813D01*
X016565Y017142D02*
X016220Y016365D01*
X016220Y015941D01*
X016529Y015638D01*
X017685Y015638D01*
X018599Y014730D01*
X018806Y014576D01*
X019172Y014577D01*
X019521Y014252D01*
X019528Y013306D01*
X019303Y013088D01*
X018719Y013093D01*
X018518Y012798D01*
X019588Y012954D02*
X021057Y012954D01*
X021040Y012836D02*
X020291Y012836D01*
X020326Y012717D02*
X020414Y012717D01*
X020359Y012599D02*
X020326Y012599D01*
X020326Y012480D02*
X020359Y012480D01*
X020359Y012362D02*
X020326Y012362D01*
X020294Y012243D02*
X020359Y012243D01*
X020709Y012243D02*
X020829Y012243D01*
X020829Y012125D02*
X021279Y012125D01*
X021279Y012243D02*
X021179Y012243D01*
X021179Y012362D02*
X021279Y012362D01*
X021279Y012480D02*
X021179Y012480D01*
X020829Y012480D02*
X020709Y012480D01*
X020709Y012362D02*
X020829Y012362D01*
X020829Y012599D02*
X020709Y012599D01*
X020709Y012717D02*
X020829Y012717D01*
X021120Y013073D02*
X019692Y013073D01*
X019911Y012836D02*
X019988Y012836D01*
X019988Y012717D02*
X019911Y012717D01*
X019911Y012599D02*
X019988Y012599D01*
X019988Y012480D02*
X019911Y012480D01*
X019911Y012362D02*
X019988Y012362D01*
X019988Y012243D02*
X019911Y012243D01*
X020067Y011769D02*
X020359Y011769D01*
X021179Y011769D02*
X021279Y011769D01*
X021279Y011888D02*
X021179Y011888D01*
X021179Y012006D02*
X021279Y012006D01*
X022219Y012006D02*
X023377Y012006D01*
X023258Y012125D02*
X022752Y012125D01*
X022931Y012243D02*
X023140Y012243D01*
X023152Y012231D02*
X023152Y012231D01*
X023031Y012362D02*
X023001Y012362D01*
X022508Y012125D02*
X022219Y012125D01*
X022219Y012243D02*
X022329Y012243D01*
X022259Y012362D02*
X022219Y012362D01*
X022219Y012480D02*
X022233Y012480D01*
X022219Y012599D02*
X022239Y012599D01*
X022198Y012717D02*
X022289Y012717D01*
X022400Y012836D02*
X021799Y012836D01*
X021772Y012954D02*
X022486Y012954D01*
X022377Y013073D02*
X021710Y013073D01*
X021541Y013191D02*
X022268Y013191D01*
X022159Y013310D02*
X021858Y013310D01*
X021947Y013428D02*
X022050Y013428D01*
X021505Y014021D02*
X020364Y014021D01*
X020364Y014139D02*
X021396Y014139D01*
X021287Y014258D02*
X020364Y014258D01*
X020364Y013902D02*
X021327Y013902D01*
X022219Y011888D02*
X023496Y011888D01*
X023615Y011769D02*
X022219Y011769D01*
X022415Y011459D02*
X023268Y011459D01*
X023911Y010804D01*
X023907Y010430D01*
X023612Y010758D02*
X023312Y011058D01*
X023109Y011058D01*
X023153Y011177D02*
X022685Y011177D01*
X022683Y011179D02*
X023150Y011179D01*
X023323Y011003D01*
X022802Y011003D01*
X022759Y011105D01*
X022683Y011179D01*
X022779Y011058D02*
X023269Y011058D01*
X022802Y011003D02*
X022802Y011003D01*
X022523Y010944D02*
X022257Y011204D01*
X023472Y011651D02*
X023734Y011651D01*
X023853Y011532D02*
X023588Y011532D01*
X023705Y011414D02*
X023972Y011414D01*
X024091Y011295D02*
X023821Y011295D01*
X023937Y011177D02*
X024206Y011177D01*
X024098Y011058D02*
X024053Y011058D01*
X020736Y009873D02*
X015115Y009873D01*
X015115Y009755D02*
X020736Y009755D01*
X020736Y009636D02*
X015115Y009636D01*
X015115Y009518D02*
X020736Y009518D01*
X020491Y009044D02*
X020139Y009044D01*
X020243Y008925D02*
X020387Y008925D01*
X020340Y008807D02*
X020290Y008807D01*
X019691Y009044D02*
X019639Y009044D01*
X018709Y009162D02*
X018196Y009162D01*
X018043Y009162D02*
X015115Y009162D01*
X015205Y009044D02*
X017845Y009044D01*
X017770Y008925D02*
X017468Y008925D01*
X017418Y008975D02*
X017418Y008975D01*
X017585Y008807D02*
X017744Y008807D01*
X017755Y008688D02*
X017703Y008688D01*
X018119Y008788D02*
X018418Y008467D01*
X018620Y008469D01*
X018838Y008250D01*
X019089Y007957D02*
X019095Y007951D01*
X019095Y007558D01*
X018985Y007448D01*
X018540Y007448D01*
X017259Y008738D01*
X015115Y008738D01*
X014815Y009038D01*
X014815Y009138D01*
X014432Y009179D02*
X014291Y009038D01*
X013940Y009038D01*
X014024Y009161D01*
X014034Y009155D01*
X014075Y009145D01*
X014312Y009145D01*
X014312Y009560D01*
X014432Y009560D01*
X014432Y009179D01*
X014415Y009162D02*
X014312Y009162D01*
X014312Y009281D02*
X014432Y009281D01*
X014432Y009399D02*
X014312Y009399D01*
X014312Y009518D02*
X014432Y009518D01*
X014432Y009680D02*
X014312Y009680D01*
X014312Y010095D01*
X014225Y010095D01*
X014225Y011322D01*
X014285Y011478D01*
X014286Y011478D01*
X014397Y011376D01*
X014539Y011324D01*
X014647Y011329D01*
X014537Y011050D01*
X014515Y010997D01*
X014515Y010995D01*
X014514Y010993D01*
X014515Y010935D01*
X014515Y010095D01*
X014432Y010095D01*
X014432Y009680D01*
X014432Y009755D02*
X014312Y009755D01*
X014312Y009873D02*
X014432Y009873D01*
X014432Y009992D02*
X014312Y009992D01*
X014225Y010110D02*
X014515Y010110D01*
X014515Y010229D02*
X014225Y010229D01*
X014225Y010347D02*
X014515Y010347D01*
X014515Y010466D02*
X014225Y010466D01*
X014225Y010584D02*
X014515Y010584D01*
X014515Y010703D02*
X014225Y010703D01*
X014225Y010821D02*
X014515Y010821D01*
X014515Y010940D02*
X014225Y010940D01*
X014225Y011058D02*
X014540Y011058D01*
X014587Y011177D02*
X014225Y011177D01*
X014225Y011295D02*
X014634Y011295D01*
X014355Y011414D02*
X014260Y011414D01*
X016368Y012243D02*
X016411Y012243D01*
X016411Y012362D02*
X016454Y012362D01*
X015283Y012836D02*
X015271Y012836D01*
X015167Y012954D02*
X016444Y012954D01*
X016324Y013073D02*
X014754Y013073D01*
X014555Y013191D02*
X016205Y013191D01*
X016086Y013310D02*
X014526Y013310D01*
X014644Y013428D02*
X015966Y013428D01*
X015847Y013547D02*
X014763Y013547D01*
X014881Y013665D02*
X015727Y013665D01*
X016197Y014128D02*
X015601Y014724D01*
X015583Y014743D02*
X015325Y015000D01*
X015325Y016683D01*
X015626Y017484D01*
X015168Y017629D02*
X014894Y016877D01*
X014905Y016873D01*
X014967Y016864D01*
X015030Y016867D01*
X015092Y016882D01*
X015096Y016884D01*
X015099Y016878D01*
X015064Y016786D01*
X015045Y016739D01*
X015045Y016734D01*
X015043Y016729D01*
X015045Y016678D01*
X015045Y014945D01*
X015087Y014842D01*
X015166Y014763D01*
X015424Y014505D01*
X015658Y014272D01*
X014867Y014272D01*
X014867Y014272D01*
X014811Y014272D01*
X014756Y014272D01*
X014755Y014272D01*
X014704Y014251D01*
X014653Y014229D01*
X014653Y014229D01*
X014652Y014229D01*
X014613Y014190D01*
X014574Y014151D01*
X014574Y014150D01*
X014068Y013643D01*
X014045Y013652D01*
X013989Y013676D01*
X013982Y013676D01*
X013716Y013781D01*
X014849Y016894D01*
X014857Y016891D01*
X015130Y017643D01*
X015168Y017629D01*
X015148Y017576D02*
X015106Y017576D01*
X015105Y017457D02*
X015063Y017457D01*
X015062Y017339D02*
X015020Y017339D01*
X015019Y017220D02*
X014976Y017220D01*
X014976Y017102D02*
X014933Y017102D01*
X014933Y016983D02*
X014890Y016983D01*
X014838Y016865D02*
X014962Y016865D01*
X014988Y016865D02*
X015094Y016865D01*
X015048Y016746D02*
X014795Y016746D01*
X014752Y016628D02*
X015045Y016628D01*
X015045Y016509D02*
X014709Y016509D01*
X014666Y016391D02*
X015045Y016391D01*
X015045Y016272D02*
X014623Y016272D01*
X014579Y016154D02*
X015045Y016154D01*
X015045Y016035D02*
X014536Y016035D01*
X014493Y015917D02*
X015045Y015917D01*
X015045Y015798D02*
X014450Y015798D01*
X014407Y015680D02*
X015045Y015680D01*
X015045Y015561D02*
X014364Y015561D01*
X014321Y015443D02*
X015045Y015443D01*
X015045Y015324D02*
X014278Y015324D01*
X014235Y015206D02*
X015045Y015206D01*
X015045Y015087D02*
X014191Y015087D01*
X014148Y014969D02*
X015045Y014969D01*
X015084Y014850D02*
X014105Y014850D01*
X014062Y014732D02*
X015198Y014732D01*
X015316Y014613D02*
X014019Y014613D01*
X013976Y014495D02*
X015435Y014495D01*
X015424Y014505D02*
X015424Y014505D01*
X015553Y014376D02*
X013933Y014376D01*
X013890Y014258D02*
X014721Y014258D01*
X014755Y014272D02*
X014755Y014272D01*
X014563Y014139D02*
X013847Y014139D01*
X013804Y014021D02*
X014445Y014021D01*
X014326Y013902D02*
X013760Y013902D01*
X013717Y013784D02*
X014208Y013784D01*
X014090Y013665D02*
X014014Y013665D01*
X015729Y014916D02*
X016360Y014303D01*
X016675Y014114D02*
X017542Y014962D01*
X017558Y014974D01*
X017575Y014983D01*
X017594Y014988D01*
X017614Y014991D01*
X017633Y014990D01*
X017652Y014986D01*
X017671Y014978D01*
X017687Y014967D01*
X017702Y014954D01*
X017855Y015108D02*
X017830Y015131D01*
X017802Y015152D01*
X017772Y015169D01*
X017740Y015183D01*
X017707Y015194D01*
X017674Y015201D01*
X017639Y015205D01*
X017605Y015205D01*
X017570Y015201D01*
X017537Y015194D01*
X017504Y015183D01*
X017472Y015169D01*
X017442Y015152D01*
X017414Y015131D01*
X017389Y015108D01*
X018040Y015680D02*
X018185Y015680D01*
X018184Y015798D02*
X018226Y015798D01*
X018227Y015917D02*
X018269Y015917D01*
X018270Y016035D02*
X018312Y016035D01*
X018313Y016154D02*
X018355Y016154D01*
X018356Y016272D02*
X018399Y016272D01*
X018016Y015798D02*
X017921Y015798D01*
X015720Y014928D02*
X015558Y015084D01*
X015558Y015747D01*
X016096Y017313D01*
X015235Y017813D02*
X015192Y017813D01*
X015192Y017694D02*
X015149Y017694D01*
X015235Y017931D02*
X015278Y017931D01*
X015278Y018050D02*
X015321Y018050D01*
X015322Y018168D02*
X015364Y018168D01*
X015365Y018287D02*
X015407Y018287D01*
X015408Y018405D02*
X015450Y018405D01*
X015481Y018405D02*
X017913Y018405D01*
X018005Y018287D02*
X015993Y018287D01*
X016116Y018168D02*
X018096Y018168D01*
X017822Y018524D02*
X015716Y018524D01*
X015612Y018287D02*
X015604Y018287D01*
X016131Y018642D02*
X017731Y018642D01*
X017639Y018761D02*
X016545Y018761D01*
X016960Y018879D02*
X017548Y018879D01*
X017524Y018910D02*
X017524Y018910D01*
X017463Y018998D02*
X017375Y018998D01*
X018442Y017220D02*
X018486Y017220D01*
X018394Y009044D02*
X018530Y009044D01*
X019605Y007961D02*
X019601Y007957D01*
X021015Y007138D02*
X021392Y007515D01*
X021392Y007957D01*
X021672Y007503D02*
X024075Y007503D01*
X024075Y007385D02*
X023588Y007385D01*
X023610Y007266D02*
X024034Y007266D01*
X023850Y007148D02*
X023610Y007148D01*
X023666Y007029D02*
X023195Y007029D01*
X023135Y007029D02*
X024084Y007036D01*
X023820Y006714D02*
X023849Y006685D01*
X024002Y006621D01*
X024035Y006621D01*
X024035Y006395D01*
X023957Y006318D01*
X023683Y006318D01*
X023958Y006318D01*
X024035Y006437D02*
X023563Y006437D01*
X023597Y006423D02*
X023502Y006462D01*
X023378Y006462D01*
X023426Y006493D01*
X023502Y006493D01*
X023597Y006533D01*
X023670Y006606D01*
X023696Y006667D01*
X023768Y006714D01*
X023820Y006714D01*
X023875Y006674D02*
X023706Y006674D01*
X023619Y006555D02*
X024035Y006555D01*
X023670Y006349D02*
X023683Y006318D01*
X023670Y006349D02*
X023597Y006423D01*
X022932Y006555D02*
X022490Y006555D01*
X022528Y006593D02*
X022411Y006476D01*
X022258Y006413D01*
X022092Y006413D01*
X021939Y006476D01*
X021822Y006593D01*
X021758Y006747D01*
X021758Y006912D01*
X021822Y007066D01*
X021939Y007183D01*
X022092Y007246D01*
X022258Y007246D01*
X022411Y007183D01*
X022528Y007066D01*
X022592Y006912D01*
X022592Y006747D01*
X022528Y006593D01*
X022562Y006674D02*
X022681Y006674D01*
X022660Y006792D02*
X022592Y006792D01*
X022592Y006911D02*
X022660Y006911D01*
X022543Y007029D02*
X023075Y007029D01*
X023075Y007148D02*
X023195Y007148D01*
X023195Y007266D02*
X023075Y007266D01*
X023075Y007385D02*
X023195Y007385D01*
X022681Y007385D02*
X021641Y007385D01*
X021539Y007266D02*
X022660Y007266D01*
X022660Y007148D02*
X022446Y007148D01*
X021904Y007148D02*
X021421Y007148D01*
X021376Y007029D02*
X021807Y007029D01*
X021758Y006911D02*
X021318Y006911D01*
X021161Y006792D02*
X021758Y006792D01*
X021788Y006674D02*
X020905Y006674D01*
X020981Y006555D02*
X021860Y006555D01*
X022034Y006437D02*
X021009Y006437D01*
X021002Y006318D02*
X022564Y006318D01*
X022748Y006437D02*
X022316Y006437D01*
X021391Y006200D02*
X020953Y006200D01*
X020817Y006081D02*
X021292Y006081D01*
X021193Y005963D02*
X020582Y005963D01*
X020472Y005844D02*
X021125Y005844D01*
X021325Y005538D02*
X018453Y005538D01*
X018277Y005247D01*
X018277Y005047D01*
X018055Y004838D01*
X017815Y004838D01*
X018274Y004659D02*
X018438Y004659D01*
X018834Y004610D02*
X018834Y004468D01*
X018869Y004468D01*
X018834Y004610D02*
X018833Y005078D01*
X018577Y005078D02*
X018561Y004022D01*
X019116Y004185D02*
X020890Y004185D01*
X020904Y004304D02*
X019206Y004304D01*
X019244Y004422D02*
X020867Y004422D01*
X020855Y004541D02*
X019244Y004541D01*
X019223Y004576D02*
X019215Y004038D01*
X019223Y004576D02*
X019090Y004732D01*
X019089Y005078D01*
X021385Y005086D02*
X021392Y005078D01*
X021385Y005086D02*
X021385Y005478D01*
X021829Y005463D02*
X021829Y005229D01*
X021840Y005234D01*
X022014Y005234D01*
X022175Y005167D01*
X022298Y005044D01*
X022365Y004884D01*
X022365Y004710D01*
X022359Y004697D01*
X022824Y004676D01*
X022824Y004676D01*
X023372Y004511D01*
X023372Y004511D01*
X023864Y004217D01*
X023864Y004217D01*
X024027Y004054D01*
X024039Y004048D01*
X024075Y004006D01*
X024114Y003967D01*
X024119Y003956D01*
X024300Y003747D01*
X024300Y003918D01*
X024366Y004079D01*
X024489Y004202D01*
X024650Y004269D01*
X024824Y004269D01*
X024984Y004202D01*
X025107Y004079D01*
X025174Y003918D01*
X025174Y003744D01*
X025107Y003584D01*
X024984Y003461D01*
X024824Y003394D01*
X024650Y003394D01*
X024581Y003423D01*
X026628Y001060D01*
X026636Y001053D01*
X026658Y001043D01*
X026682Y001041D01*
X026705Y001049D01*
X026721Y001063D01*
X026826Y001314D01*
X026755Y001285D01*
X026581Y001285D01*
X026420Y001351D01*
X026297Y001474D01*
X026231Y001635D01*
X026231Y001809D01*
X026297Y001970D01*
X026420Y002093D01*
X026581Y002159D01*
X026755Y002159D01*
X026916Y002093D01*
X027039Y001970D01*
X027070Y001895D01*
X027659Y003301D01*
X027542Y003253D01*
X027368Y003253D01*
X027208Y003320D01*
X027085Y003443D01*
X027018Y003603D01*
X027018Y003777D01*
X027085Y003938D01*
X027208Y004061D01*
X027368Y004128D01*
X027542Y004128D01*
X027703Y004061D01*
X027826Y003938D01*
X027875Y003819D01*
X028634Y005632D01*
X028595Y005615D01*
X028421Y005615D01*
X028261Y005682D01*
X028138Y005805D01*
X028071Y005966D01*
X028071Y006140D01*
X028138Y006300D01*
X028261Y006423D01*
X028421Y006490D01*
X028595Y006490D01*
X028756Y006423D01*
X028879Y006300D01*
X028885Y006286D01*
X028905Y006499D01*
X028853Y006749D01*
X028729Y006973D01*
X028643Y007068D01*
X028643Y007069D01*
X028595Y007115D01*
X028594Y007116D01*
X028450Y007254D01*
X028110Y007539D01*
X028048Y007389D01*
X027925Y007266D01*
X027764Y007200D01*
X027590Y007200D01*
X027429Y007266D01*
X027306Y007389D01*
X027240Y007550D01*
X027240Y007557D01*
X026999Y007557D01*
X026862Y007415D01*
X026861Y007413D01*
X026815Y007367D01*
X026770Y007320D01*
X026767Y007319D01*
X026765Y007317D01*
X026705Y007292D01*
X026646Y007266D01*
X026643Y007266D01*
X026640Y007265D01*
X026575Y007265D01*
X026511Y007264D01*
X026508Y007265D01*
X025165Y007265D01*
X025121Y007247D01*
X024825Y007247D01*
X024825Y006238D01*
X024795Y006166D01*
X024795Y006162D01*
X024737Y006022D01*
X024735Y006021D01*
X024733Y006015D01*
X024637Y005920D01*
X024637Y005920D01*
X024356Y005638D01*
X024350Y005636D01*
X024330Y005616D01*
X024190Y005558D01*
X023693Y005558D01*
X023670Y005504D01*
X023597Y005431D01*
X023502Y005391D01*
X022768Y005391D01*
X022673Y005431D01*
X022599Y005504D01*
X022577Y005558D01*
X021976Y005558D01*
X021829Y005463D01*
X021869Y005489D02*
X022614Y005489D01*
X022209Y005133D02*
X028426Y005133D01*
X028376Y005015D02*
X022310Y005015D01*
X022359Y004896D02*
X028326Y004896D01*
X028277Y004778D02*
X022365Y004778D01*
X022879Y004659D02*
X028227Y004659D01*
X028178Y004541D02*
X023274Y004541D01*
X023521Y004422D02*
X028128Y004422D01*
X028078Y004304D02*
X023720Y004304D01*
X023896Y004185D02*
X024472Y004185D01*
X024361Y004067D02*
X024015Y004067D01*
X024125Y003948D02*
X024312Y003948D01*
X024300Y003830D02*
X024228Y003830D01*
X024639Y003356D02*
X027172Y003356D01*
X027072Y003474D02*
X024998Y003474D01*
X025111Y003593D02*
X027023Y003593D01*
X027018Y003711D02*
X025160Y003711D01*
X025174Y003830D02*
X027040Y003830D01*
X027095Y003948D02*
X025162Y003948D01*
X025112Y004067D02*
X027221Y004067D01*
X027689Y004067D02*
X027979Y004067D01*
X028029Y004185D02*
X025001Y004185D01*
X024741Y003237D02*
X027632Y003237D01*
X027582Y003119D02*
X024844Y003119D01*
X024947Y003000D02*
X027532Y003000D01*
X027483Y002882D02*
X025049Y002882D01*
X025152Y002763D02*
X027433Y002763D01*
X027384Y002645D02*
X025255Y002645D01*
X025357Y002526D02*
X027334Y002526D01*
X027284Y002408D02*
X025460Y002408D01*
X025563Y002289D02*
X027235Y002289D01*
X027185Y002171D02*
X025665Y002171D01*
X025768Y002052D02*
X026380Y002052D01*
X026283Y001934D02*
X025871Y001934D01*
X025973Y001815D02*
X026233Y001815D01*
X026231Y001697D02*
X026076Y001697D01*
X026179Y001578D02*
X026254Y001578D01*
X026281Y001460D02*
X026312Y001460D01*
X026384Y001341D02*
X026445Y001341D01*
X026487Y001223D02*
X026788Y001223D01*
X026738Y001104D02*
X026589Y001104D01*
X027053Y001934D02*
X027086Y001934D01*
X027135Y002052D02*
X026956Y002052D01*
X027871Y003830D02*
X027880Y003830D01*
X027929Y003948D02*
X027816Y003948D01*
X028475Y005252D02*
X021829Y005252D01*
X021829Y005370D02*
X028525Y005370D01*
X028575Y005489D02*
X023655Y005489D01*
X024310Y005607D02*
X028624Y005607D01*
X028217Y005726D02*
X024444Y005726D01*
X024562Y005844D02*
X028121Y005844D01*
X028072Y005963D02*
X024681Y005963D01*
X024761Y006081D02*
X028071Y006081D01*
X028096Y006200D02*
X024809Y006200D01*
X024825Y006318D02*
X028156Y006318D01*
X028293Y006437D02*
X024825Y006437D01*
X024825Y006555D02*
X028893Y006555D01*
X028899Y006437D02*
X028723Y006437D01*
X028861Y006318D02*
X028888Y006318D01*
X028869Y006674D02*
X024825Y006674D01*
X024825Y006792D02*
X028829Y006792D01*
X028763Y006911D02*
X024825Y006911D01*
X024825Y007029D02*
X028678Y007029D01*
X028561Y007148D02*
X024825Y007148D01*
X026642Y007266D02*
X027430Y007266D01*
X027311Y007385D02*
X026833Y007385D01*
X026947Y007503D02*
X027259Y007503D01*
X027924Y007266D02*
X028436Y007266D01*
X028294Y007385D02*
X028043Y007385D01*
X028095Y007503D02*
X028153Y007503D01*
X018382Y003119D02*
X017563Y003119D01*
X017671Y003000D02*
X018103Y003000D01*
X017824Y002882D02*
X017720Y002882D01*
X016958Y002645D02*
X015770Y002645D01*
X015770Y002600D02*
X015770Y002837D01*
X015355Y002837D01*
X015355Y002957D01*
X015235Y002957D01*
X015235Y003332D01*
X014959Y003332D01*
X014918Y003321D01*
X014882Y003300D01*
X014852Y003270D01*
X014831Y003234D01*
X014820Y003193D01*
X014820Y002957D01*
X015235Y002957D01*
X015235Y002837D01*
X014820Y002837D01*
X014820Y002600D01*
X014831Y002559D01*
X014852Y002523D01*
X014882Y002493D01*
X014918Y002472D01*
X014959Y002461D01*
X015235Y002461D01*
X015235Y002837D01*
X015355Y002837D01*
X015355Y002461D01*
X015631Y002461D01*
X015672Y002472D01*
X015708Y002493D01*
X015738Y002523D01*
X015759Y002559D01*
X015770Y002600D01*
X015740Y002526D02*
X016988Y002526D01*
X016453Y002763D02*
X016376Y002763D01*
X016376Y002882D02*
X016453Y002882D01*
X016453Y003000D02*
X016376Y003000D01*
X016058Y003000D02*
X015770Y003000D01*
X015770Y002957D02*
X015770Y003193D01*
X015759Y003234D01*
X015738Y003270D01*
X015708Y003300D01*
X015672Y003321D01*
X015631Y003332D01*
X015355Y003332D01*
X015355Y002957D01*
X015770Y002957D01*
X015770Y003119D02*
X016058Y003119D01*
X016058Y003237D02*
X015757Y003237D01*
X016047Y003356D02*
X014681Y003356D01*
X014681Y003474D02*
X015395Y003474D01*
X015355Y003237D02*
X015235Y003237D01*
X015235Y003119D02*
X015355Y003119D01*
X015355Y003000D02*
X015235Y003000D01*
X015235Y002882D02*
X014684Y002882D01*
X014683Y003000D02*
X014820Y003000D01*
X014820Y003119D02*
X014683Y003119D01*
X014682Y003237D02*
X014833Y003237D01*
X014820Y002763D02*
X014684Y002763D01*
X014685Y002645D02*
X014820Y002645D01*
X014850Y002526D02*
X014686Y002526D01*
X015235Y002526D02*
X015355Y002526D01*
X015355Y002645D02*
X015235Y002645D01*
X015235Y002763D02*
X015355Y002763D01*
X015355Y002882D02*
X016058Y002882D01*
X016070Y002763D02*
X015770Y002763D01*
X015243Y002289D02*
X016431Y002289D01*
X016152Y002171D02*
X015326Y002171D01*
X015362Y002052D02*
X015873Y002052D01*
X015595Y001934D02*
X015362Y001934D01*
X015315Y001815D02*
X015316Y001815D01*
X015830Y004067D02*
X016045Y004067D01*
X016215Y004185D02*
X015830Y004185D01*
X015830Y004304D02*
X016215Y004304D01*
X016215Y004422D02*
X015773Y004422D01*
X014586Y005133D02*
X013501Y005133D01*
X013383Y005252D02*
X014451Y005252D01*
X014396Y005370D02*
X013009Y005370D01*
X013009Y005489D02*
X014378Y005489D01*
X014389Y005607D02*
X013009Y005607D01*
X013009Y005726D02*
X014438Y005726D01*
X014552Y005844D02*
X013009Y005844D01*
X013155Y005252D02*
X013215Y005252D01*
X013215Y005133D02*
X013155Y005133D01*
X013155Y005015D02*
X013215Y005015D01*
X013215Y004896D02*
X013155Y004896D01*
X011575Y006437D02*
X010990Y006437D01*
X010979Y006555D02*
X011575Y006555D01*
X013944Y009044D02*
X014297Y009044D01*
D39*
X006679Y011768D02*
X006158Y011778D01*
X005794Y011890D02*
X005787Y012086D01*
X005004Y012079D02*
X004693Y011764D01*
X002407Y011757D01*
X001859Y011234D01*
X001859Y009969D01*
X002477Y009407D01*
X002777Y009396D01*
X003314Y008860D01*
X003308Y005362D01*
X003304Y004900D01*
X003094Y004650D01*
X003084Y003560D01*
X002196Y005241D02*
X002204Y006260D01*
X005159Y006600D02*
X005156Y007830D01*
X005169Y006750D02*
X006090Y006753D01*
X005159Y006600D02*
X005156Y005390D01*
X006679Y011768D02*
X006677Y011786D01*
D40*
X012810Y011289D03*
X014374Y010235D03*
X015315Y010738D03*
X015979Y010230D03*
X018119Y008788D03*
X018818Y008802D03*
X019415Y008738D03*
X019915Y008738D03*
X020715Y008738D03*
X021015Y007138D03*
X020634Y006411D03*
X019742Y006106D03*
X018869Y004468D03*
X016915Y003738D03*
X014707Y003404D03*
X021242Y004468D03*
X024084Y007036D03*
X022726Y010066D03*
X021721Y010616D03*
X023109Y011058D03*
X021415Y012838D03*
X018518Y012798D03*
X018508Y013810D03*
X016679Y016094D03*
X017825Y017673D03*
X017553Y007899D03*
X002204Y006960D03*
X002204Y006260D03*
D41*
X003950Y006243D02*
X006225Y006243D01*
X006225Y006320D02*
X006234Y002088D01*
X005704Y002088D01*
X005704Y002750D01*
X005604Y002850D01*
X005013Y002850D01*
X004995Y002832D01*
X004955Y002833D01*
X004946Y002825D01*
X004933Y002824D01*
X004878Y002760D01*
X004816Y002702D01*
X004816Y002690D01*
X004726Y002587D01*
X004664Y002525D01*
X004664Y002517D01*
X004658Y002510D01*
X004664Y002423D01*
X004664Y002088D01*
X004310Y002088D01*
X004229Y002170D01*
X004229Y002618D01*
X004205Y002641D01*
X004299Y002735D01*
X004299Y002755D01*
X004353Y002815D01*
X004411Y002873D01*
X004792Y002873D01*
X004892Y002972D01*
X004892Y003303D01*
X004959Y003370D01*
X005003Y003370D01*
X005013Y003360D01*
X005604Y003360D01*
X005704Y003460D01*
X005704Y004000D01*
X005604Y004100D01*
X005392Y004100D01*
X005435Y004142D01*
X005490Y004277D01*
X005490Y004423D01*
X005435Y004558D01*
X005331Y004661D01*
X005197Y004717D01*
X005051Y004717D01*
X004916Y004661D01*
X004813Y004558D01*
X004801Y004531D01*
X004266Y004531D01*
X004199Y004464D01*
X004131Y004531D01*
X003950Y004531D01*
X003950Y007220D01*
X004556Y007220D01*
X004656Y007320D01*
X004656Y008088D01*
X005656Y008088D01*
X005656Y007320D01*
X005755Y007220D01*
X006376Y007220D01*
X006476Y007320D01*
X006476Y008088D01*
X006926Y008088D01*
X007089Y007925D01*
X007491Y007925D01*
X007654Y008088D01*
X008587Y008088D01*
X008587Y005387D01*
X008449Y005444D01*
X008299Y005444D01*
X008160Y005387D01*
X008054Y005281D01*
X007997Y005142D01*
X007997Y004992D01*
X008054Y004853D01*
X008160Y004747D01*
X008299Y004690D01*
X008449Y004690D01*
X008587Y004747D01*
X008587Y004747D01*
X008587Y002088D01*
X008558Y002088D01*
X008538Y002108D01*
X008585Y002156D01*
X008585Y002730D01*
X008486Y002829D01*
X008467Y002829D01*
X008462Y003932D01*
X008467Y003961D01*
X008462Y003981D01*
X008462Y004002D01*
X008450Y004029D01*
X008443Y004058D01*
X008431Y004075D01*
X008423Y004094D01*
X008402Y004115D01*
X007910Y004791D01*
X007913Y005830D01*
X007914Y005830D01*
X007914Y005880D01*
X007914Y005929D01*
X007914Y005929D01*
X007914Y005930D01*
X007895Y005975D01*
X007876Y006021D01*
X007876Y006021D01*
X007876Y006022D01*
X007841Y006056D01*
X007806Y006092D01*
X007806Y006092D01*
X007775Y006122D01*
X008081Y006122D01*
X008365Y006407D01*
X008365Y006808D01*
X008081Y007092D01*
X007765Y007092D01*
X007765Y007406D01*
X007481Y007690D01*
X007079Y007690D01*
X006795Y007406D01*
X006795Y007046D01*
X006294Y006499D01*
X006262Y006467D01*
X006260Y006462D01*
X006257Y006458D01*
X006241Y006416D01*
X006224Y006375D01*
X006224Y006370D01*
X006223Y006365D01*
X006225Y006320D01*
X006224Y006342D02*
X003950Y006342D01*
X003950Y006440D02*
X006250Y006440D01*
X006331Y006539D02*
X003950Y006539D01*
X003950Y006637D02*
X006421Y006637D01*
X006511Y006736D02*
X003950Y006736D01*
X003950Y006834D02*
X006601Y006834D01*
X006692Y006933D02*
X003950Y006933D01*
X003950Y007031D02*
X006782Y007031D01*
X006795Y007130D02*
X003950Y007130D01*
X004564Y007228D02*
X005747Y007228D01*
X005656Y007327D02*
X004656Y007327D01*
X004656Y007425D02*
X005656Y007425D01*
X005656Y007524D02*
X004656Y007524D01*
X004656Y007622D02*
X005656Y007622D01*
X005656Y007721D02*
X004656Y007721D01*
X004656Y007819D02*
X005656Y007819D01*
X005656Y007918D02*
X004656Y007918D01*
X004656Y008016D02*
X005656Y008016D01*
X006476Y008016D02*
X006997Y008016D01*
X007012Y007622D02*
X006476Y007622D01*
X006476Y007524D02*
X006913Y007524D01*
X006815Y007425D02*
X006476Y007425D01*
X006476Y007327D02*
X006795Y007327D01*
X006795Y007228D02*
X006384Y007228D01*
X006476Y007721D02*
X008587Y007721D01*
X008587Y007819D02*
X006476Y007819D01*
X006476Y007918D02*
X008587Y007918D01*
X008587Y008016D02*
X007583Y008016D01*
X007548Y007622D02*
X008587Y007622D01*
X008587Y007524D02*
X007647Y007524D01*
X007745Y007425D02*
X008587Y007425D01*
X008587Y007327D02*
X007765Y007327D01*
X007765Y007228D02*
X008587Y007228D01*
X008587Y007130D02*
X007765Y007130D01*
X008142Y007031D02*
X008587Y007031D01*
X008587Y006933D02*
X008241Y006933D01*
X008339Y006834D02*
X008587Y006834D01*
X008587Y006736D02*
X008365Y006736D01*
X008365Y006637D02*
X008587Y006637D01*
X008587Y006539D02*
X008365Y006539D01*
X008365Y006440D02*
X008587Y006440D01*
X008587Y006342D02*
X008300Y006342D01*
X008202Y006243D02*
X008587Y006243D01*
X008587Y006145D02*
X008103Y006145D01*
X007851Y006046D02*
X008587Y006046D01*
X008587Y005948D02*
X007906Y005948D01*
X007914Y005849D02*
X008587Y005849D01*
X008587Y005751D02*
X007913Y005751D01*
X007913Y005652D02*
X008587Y005652D01*
X008587Y005554D02*
X007913Y005554D01*
X007912Y005455D02*
X008587Y005455D01*
X008587Y005387D02*
X008587Y005387D01*
X008130Y005357D02*
X007912Y005357D01*
X007912Y005258D02*
X008045Y005258D01*
X008004Y005160D02*
X007911Y005160D01*
X007911Y005061D02*
X007997Y005061D01*
X008009Y004963D02*
X007911Y004963D01*
X007910Y004864D02*
X008049Y004864D01*
X008142Y004766D02*
X007929Y004766D01*
X008000Y004667D02*
X008587Y004667D01*
X008587Y004569D02*
X008072Y004569D01*
X008143Y004470D02*
X008587Y004470D01*
X008587Y004372D02*
X008215Y004372D01*
X008287Y004273D02*
X008587Y004273D01*
X008587Y004175D02*
X008358Y004175D01*
X008430Y004076D02*
X008587Y004076D01*
X008587Y003978D02*
X008463Y003978D01*
X008462Y003879D02*
X008587Y003879D01*
X008587Y003781D02*
X008463Y003781D01*
X008463Y003682D02*
X008587Y003682D01*
X008587Y003584D02*
X008463Y003584D01*
X008464Y003485D02*
X008587Y003485D01*
X008587Y003387D02*
X008464Y003387D01*
X008465Y003288D02*
X008587Y003288D01*
X008587Y003190D02*
X008465Y003190D01*
X008466Y003091D02*
X008587Y003091D01*
X008587Y002993D02*
X008466Y002993D01*
X008466Y002894D02*
X008587Y002894D01*
X008587Y002796D02*
X008519Y002796D01*
X008585Y002697D02*
X008587Y002697D01*
X008585Y002599D02*
X008587Y002599D01*
X008585Y002500D02*
X008587Y002500D01*
X008585Y002402D02*
X008587Y002402D01*
X008585Y002303D02*
X008587Y002303D01*
X008567Y002265D02*
X008567Y001501D01*
X008350Y001288D01*
X007150Y001288D01*
X007050Y001388D01*
X007050Y001988D01*
X007150Y002088D01*
X007401Y002088D01*
X007419Y002105D01*
X007714Y002110D02*
X007730Y002126D01*
X007791Y002126D01*
X007802Y002137D01*
X007817Y002139D01*
X007852Y002183D01*
X007852Y002156D01*
X007899Y002108D01*
X007879Y002088D01*
X007726Y002088D01*
X007714Y002100D01*
X007123Y002100D01*
X007111Y002088D01*
X007004Y002088D01*
X007004Y002365D01*
X007024Y002385D01*
X007024Y002210D01*
X007123Y002110D01*
X007714Y002110D01*
X007897Y002106D02*
X007004Y002106D01*
X007004Y002205D02*
X007028Y002205D01*
X007024Y002303D02*
X007004Y002303D01*
X006234Y002303D02*
X005704Y002303D01*
X005704Y002205D02*
X006234Y002205D01*
X006234Y002106D02*
X005704Y002106D01*
X005704Y002402D02*
X006234Y002402D01*
X006233Y002500D02*
X005704Y002500D01*
X005704Y002599D02*
X006233Y002599D01*
X006233Y002697D02*
X005704Y002697D01*
X005658Y002796D02*
X006233Y002796D01*
X006232Y002894D02*
X004814Y002894D01*
X004892Y002993D02*
X006232Y002993D01*
X006232Y003091D02*
X004892Y003091D01*
X004892Y003190D02*
X006232Y003190D01*
X006232Y003288D02*
X004892Y003288D01*
X004194Y002967D02*
X004197Y003910D01*
X003959Y004145D01*
X004192Y004470D02*
X004205Y004470D01*
X003950Y004569D02*
X004824Y004569D01*
X004801Y004531D02*
X004801Y004531D01*
X004931Y004667D02*
X003950Y004667D01*
X003950Y004766D02*
X006228Y004766D01*
X006228Y004864D02*
X003950Y004864D01*
X003950Y004963D02*
X006228Y004963D01*
X006227Y005061D02*
X003950Y005061D01*
X003950Y005160D02*
X006227Y005160D01*
X006227Y005258D02*
X003950Y005258D01*
X003950Y005357D02*
X006227Y005357D01*
X006227Y005455D02*
X003950Y005455D01*
X003950Y005554D02*
X006226Y005554D01*
X006226Y005652D02*
X003950Y005652D01*
X003950Y005751D02*
X006226Y005751D01*
X006226Y005849D02*
X003950Y005849D01*
X003950Y005948D02*
X006225Y005948D01*
X006225Y006046D02*
X003950Y006046D01*
X003950Y006145D02*
X006225Y006145D01*
X006228Y004667D02*
X005316Y004667D01*
X005424Y004569D02*
X006229Y004569D01*
X006229Y004470D02*
X005471Y004470D01*
X005490Y004372D02*
X006229Y004372D01*
X006229Y004273D02*
X005489Y004273D01*
X005448Y004175D02*
X006230Y004175D01*
X006230Y004076D02*
X005628Y004076D01*
X005704Y003978D02*
X006230Y003978D01*
X006230Y003879D02*
X005704Y003879D01*
X005704Y003781D02*
X006230Y003781D01*
X006231Y003682D02*
X005704Y003682D01*
X005704Y003584D02*
X006231Y003584D01*
X006231Y003485D02*
X005704Y003485D01*
X005631Y003387D02*
X006231Y003387D01*
X004909Y002796D02*
X004336Y002796D01*
X004261Y002697D02*
X004816Y002697D01*
X004736Y002599D02*
X004229Y002599D01*
X004229Y002500D02*
X004659Y002500D01*
X004664Y002402D02*
X004229Y002402D01*
X004229Y002303D02*
X004664Y002303D01*
X004664Y002205D02*
X004229Y002205D01*
X004292Y002106D02*
X004664Y002106D01*
X004068Y002829D02*
X004194Y002967D01*
X008540Y002106D02*
X008587Y002106D01*
X008585Y002205D02*
X008587Y002205D01*
X016515Y004838D02*
X017815Y004838D01*
X017553Y007899D02*
X017315Y008138D01*
X018838Y008250D02*
X018833Y007957D01*
X020365Y007953D02*
X020369Y007957D01*
X022715Y008738D02*
X022715Y009059D01*
X022716Y009060D02*
X022716Y009531D01*
X023095Y009703D02*
X023095Y010034D01*
X023344Y010315D01*
X023445Y010338D01*
X023585Y010338D01*
X023592Y010330D02*
X023615Y010352D01*
X023612Y010758D01*
X023110Y010615D02*
X023115Y010392D01*
X022726Y010066D01*
X022520Y010615D02*
X022523Y010944D01*
X022323Y010803D02*
X022178Y010948D01*
X022323Y010803D02*
X022323Y010615D01*
X021721Y010616D02*
X021719Y010626D01*
X022415Y011459D02*
X020017Y011461D01*
X019688Y011731D01*
X019515Y011746D01*
X019632Y011725D01*
X019120Y011725D02*
X019107Y011725D01*
X019034Y011652D01*
X019288Y010909D02*
X019509Y010844D01*
X019509Y010942D01*
X019540Y010935D01*
X019288Y010909D02*
X016975Y013332D01*
X018508Y013810D02*
X018995Y013804D01*
X017389Y015108D02*
X016551Y014309D01*
X016676Y014113D02*
X016649Y014090D01*
X016620Y014070D01*
X016588Y014053D01*
X016556Y014040D01*
X016522Y014030D01*
X016487Y014024D01*
X016451Y014021D01*
X016416Y014022D01*
X016381Y014027D01*
X016346Y014035D01*
X016313Y014047D01*
X016281Y014063D01*
X016251Y014082D01*
X016223Y014103D01*
X016197Y014128D01*
X016360Y014304D02*
X016376Y014290D01*
X016395Y014280D01*
X016414Y014272D01*
X016435Y014268D01*
X016456Y014267D01*
X016477Y014269D01*
X016498Y014275D01*
X016517Y014284D01*
X016535Y014295D01*
X016550Y014310D01*
X015729Y014916D02*
X015720Y014928D01*
X015551Y014774D02*
X015601Y014724D01*
X015583Y014743D01*
X015915Y016738D02*
X016015Y017238D01*
X016096Y017313D02*
X015915Y017132D01*
X015915Y016738D01*
X017505Y016800D02*
X017825Y017673D01*
X021415Y012838D02*
X021716Y012538D01*
X021749Y012105D01*
X023592Y009346D02*
X023907Y009346D01*
X022915Y009059D02*
X022915Y008738D01*
X022915Y009059D02*
X022913Y009060D01*
X006158Y011778D02*
X005795Y011764D01*
X005794Y011890D01*
X005787Y012086D02*
X005650Y012183D01*
X005138Y012183D02*
X005004Y012079D01*
X005795Y011390D02*
X006027Y011392D01*
D42*
X006365Y011203D01*
X006365Y010403D01*
X006278Y010489D01*
X006043Y010489D01*
X006365Y010403D02*
X006365Y010018D01*
X006158Y009811D01*
X005152Y009040D02*
X005156Y007830D01*
X006090Y006753D02*
X006889Y007804D01*
X007890Y007802D01*
X011915Y008638D02*
X011915Y003738D01*
X012515Y002938D01*
X012515Y002238D01*
X013064Y001760D01*
X013464Y001761D01*
X014346Y002553D01*
X014339Y003838D01*
X015134Y003838D01*
X015295Y003999D01*
X016415Y003738D02*
X016915Y003738D01*
X015295Y003330D02*
X015295Y002897D01*
X015295Y003330D02*
X015232Y003394D01*
X014707Y003404D01*
X014339Y003838D02*
X013795Y004188D01*
X011915Y008638D02*
X012982Y009564D01*
X013315Y009538D01*
X013315Y009574D01*
X013269Y009620D01*
X013315Y009538D02*
X013485Y009908D01*
X013485Y011553D01*
X014374Y010235D02*
X014372Y009620D01*
X016179Y011664D02*
X016405Y011588D01*
X016648Y011493D01*
X019280Y012538D02*
X019515Y012438D01*
X019515Y011746D01*
X021264Y010628D02*
X021719Y010626D01*
X021264Y010628D02*
X021093Y010376D01*
X024415Y007938D02*
X024415Y006238D01*
X024115Y005938D01*
X021615Y005938D01*
X021449Y005739D01*
X021449Y004675D01*
X021242Y004468D01*
X024445Y006314D02*
X024445Y007908D01*
X024415Y007938D01*
X016679Y016094D02*
X017035Y016971D01*
X017975Y016629D02*
X018245Y017335D01*
X018155Y017940D01*
X015799Y018492D01*
X015439Y018352D01*
X015156Y017655D01*
X017975Y016629D02*
X018445Y016458D01*
D43*
X020756Y013537D03*
M02*
