G75*
%MOIN*%
%OFA0B0*%
%FSLAX24Y24*%
%IPPOS*%
%LPD*%
%AMOC8*
5,1,8,0,0,1.08239X$1,22.5*
%
%ADD10C,0.0160*%
%ADD11C,0.0000*%
%ADD12OC8,0.0630*%
%ADD13R,0.0500X0.1000*%
%ADD14R,0.1000X0.0500*%
%ADD15OC8,0.0520*%
%ADD16C,0.0660*%
%ADD17C,0.0120*%
%ADD18C,0.0310*%
%ADD19C,0.0240*%
%ADD20C,0.0400*%
%ADD21C,0.0100*%
D10*
X000600Y000318D02*
X008867Y000318D01*
X008867Y012917D01*
X000600Y012917D01*
X000600Y000318D01*
X011224Y000707D02*
X011250Y000655D01*
X011280Y000605D01*
X011312Y000556D01*
X011348Y000510D01*
X011387Y000466D01*
X011428Y000425D01*
X011472Y000387D01*
X011518Y000351D01*
X011566Y000319D01*
X011616Y000289D01*
X011669Y000263D01*
X011722Y000241D01*
X011777Y000221D01*
X011833Y000206D01*
X011890Y000194D01*
X011948Y000186D01*
X012006Y000181D01*
X012065Y000180D01*
X012123Y000183D01*
X012181Y000190D01*
X012238Y000200D01*
X012295Y000214D01*
X012350Y000232D01*
X012404Y000253D01*
X012457Y000278D01*
X012504Y000294D01*
X021579Y004152D01*
X020784Y005244D02*
X019380Y004132D01*
X015740Y004141D01*
X015215Y003638D01*
X015215Y002838D01*
X014815Y002438D01*
X014365Y002438D01*
X013815Y002988D01*
X013765Y002938D02*
X013015Y002938D01*
X012515Y003638D01*
X012515Y009338D01*
X013715Y010738D01*
X015315Y010738D01*
X015824Y011284D02*
X016323Y010940D01*
X016324Y010568D01*
X015993Y010230D01*
X015824Y011284D02*
X012810Y011289D01*
X019945Y013818D02*
X020411Y013826D01*
X012971Y019147D02*
X012896Y019103D01*
X012823Y019055D01*
X012751Y019004D01*
X012682Y018950D01*
X012615Y018893D01*
X012551Y018834D01*
X012490Y018771D01*
X012431Y018706D01*
X012375Y018639D01*
X012322Y018569D01*
X012272Y018497D01*
X012225Y018423D01*
X012181Y018347D01*
X012141Y018269D01*
X012104Y018190D01*
X012071Y018109D01*
X012971Y019147D02*
X015299Y020609D01*
X015280Y020609D02*
X015346Y020640D01*
X015413Y020668D01*
X015482Y020692D01*
X015551Y020712D01*
X015622Y020729D01*
X015694Y020742D01*
X015766Y020751D01*
X015839Y020756D01*
X015912Y020757D01*
X015984Y020754D01*
X016057Y020747D01*
X016129Y020737D01*
X016200Y020722D01*
X016271Y020704D01*
X016340Y020682D01*
X016408Y020656D01*
X016475Y020627D01*
X016540Y020594D01*
X016603Y020558D01*
X016664Y020518D01*
X016723Y020475D01*
X016779Y020429D01*
X016833Y020381D01*
X016884Y020329D01*
X016932Y020274D01*
X024316Y009561D02*
X024281Y007934D01*
X023715Y007338D01*
X023715Y006038D01*
X022915Y005238D01*
X020784Y005244D01*
X023826Y003775D02*
X026378Y000829D01*
X026378Y000828D02*
X026405Y000801D01*
X026436Y000777D01*
X026468Y000756D01*
X026502Y000738D01*
X026538Y000723D01*
X026575Y000712D01*
X026613Y000704D01*
X026652Y000701D01*
X026691Y000700D01*
X026729Y000704D01*
X026767Y000711D01*
X026805Y000722D01*
X026841Y000736D01*
X026875Y000754D01*
X026908Y000775D01*
X026938Y000799D01*
X026966Y000826D01*
X026991Y000855D01*
X027014Y000887D01*
X027033Y000921D01*
X027031Y000924D02*
X029154Y005992D01*
X029154Y005991D02*
X029179Y006055D01*
X029200Y006120D01*
X029217Y006186D01*
X029230Y006253D01*
X029240Y006321D01*
X029245Y006389D01*
X029247Y006458D01*
X029245Y006526D01*
X029239Y006594D01*
X029228Y006662D01*
X029215Y006728D01*
X029197Y006795D01*
X029175Y006859D01*
X029150Y006923D01*
X029121Y006985D01*
X029089Y007045D01*
X029053Y007104D01*
X029014Y007160D01*
X028972Y007214D01*
X028927Y007265D01*
X028879Y007314D01*
X028678Y007507D01*
X023826Y003775D02*
X023764Y003835D01*
X023698Y003892D01*
X023631Y003947D01*
X023561Y003998D01*
X023488Y004046D01*
X023414Y004091D01*
X023338Y004132D01*
X023260Y004170D01*
X023180Y004205D01*
X023099Y004236D01*
X023017Y004264D01*
X022934Y004288D01*
X022849Y004308D01*
X022764Y004324D01*
X022678Y004337D01*
X022592Y004346D01*
X022505Y004351D01*
X022418Y004352D01*
X022332Y004349D01*
X022245Y004343D01*
X022159Y004333D01*
X022073Y004319D01*
X021988Y004301D01*
X021904Y004279D01*
X021821Y004254D01*
X021739Y004225D01*
X021659Y004193D01*
X021580Y004157D01*
X011225Y000707D02*
X011070Y001619D01*
X010937Y002534D01*
X010827Y003452D01*
X010738Y004373D01*
X010672Y005296D01*
X010627Y006220D01*
X010606Y007144D01*
X010606Y008069D01*
X010629Y008994D01*
X010674Y009918D01*
X010741Y010840D01*
X010830Y011761D01*
X010942Y012679D01*
X011075Y013595D01*
X011231Y014506D01*
X011408Y015414D01*
X011608Y016317D01*
X011829Y017216D01*
X012071Y018108D01*
X016931Y020274D02*
X017856Y018991D01*
X018812Y017731D01*
X019797Y016493D01*
X020811Y015280D01*
X021854Y014091D01*
X022925Y012927D01*
X024023Y011789D01*
X025148Y010677D01*
X026299Y009593D01*
X027476Y008536D01*
X028677Y007507D01*
D11*
X027500Y007637D02*
X027502Y007663D01*
X027508Y007689D01*
X027518Y007714D01*
X027531Y007737D01*
X027547Y007757D01*
X027567Y007775D01*
X027589Y007790D01*
X027612Y007802D01*
X027638Y007810D01*
X027664Y007814D01*
X027690Y007814D01*
X027716Y007810D01*
X027742Y007802D01*
X027766Y007790D01*
X027787Y007775D01*
X027807Y007757D01*
X027823Y007737D01*
X027836Y007714D01*
X027846Y007689D01*
X027852Y007663D01*
X027854Y007637D01*
X027852Y007611D01*
X027846Y007585D01*
X027836Y007560D01*
X027823Y007537D01*
X027807Y007517D01*
X027787Y007499D01*
X027765Y007484D01*
X027742Y007472D01*
X027716Y007464D01*
X027690Y007460D01*
X027664Y007460D01*
X027638Y007464D01*
X027612Y007472D01*
X027588Y007484D01*
X027567Y007499D01*
X027547Y007517D01*
X027531Y007537D01*
X027518Y007560D01*
X027508Y007585D01*
X027502Y007611D01*
X027500Y007637D01*
X025766Y009104D02*
X025768Y009130D01*
X025774Y009156D01*
X025784Y009181D01*
X025797Y009204D01*
X025813Y009224D01*
X025833Y009242D01*
X025855Y009257D01*
X025878Y009269D01*
X025904Y009277D01*
X025930Y009281D01*
X025956Y009281D01*
X025982Y009277D01*
X026008Y009269D01*
X026032Y009257D01*
X026053Y009242D01*
X026073Y009224D01*
X026089Y009204D01*
X026102Y009181D01*
X026112Y009156D01*
X026118Y009130D01*
X026120Y009104D01*
X026118Y009078D01*
X026112Y009052D01*
X026102Y009027D01*
X026089Y009004D01*
X026073Y008984D01*
X026053Y008966D01*
X026031Y008951D01*
X026008Y008939D01*
X025982Y008931D01*
X025956Y008927D01*
X025930Y008927D01*
X025904Y008931D01*
X025878Y008939D01*
X025854Y008951D01*
X025833Y008966D01*
X025813Y008984D01*
X025797Y009004D01*
X025784Y009027D01*
X025774Y009052D01*
X025768Y009078D01*
X025766Y009104D01*
X024266Y010851D02*
X024268Y010877D01*
X024274Y010903D01*
X024284Y010928D01*
X024297Y010951D01*
X024313Y010971D01*
X024333Y010989D01*
X024355Y011004D01*
X024378Y011016D01*
X024404Y011024D01*
X024430Y011028D01*
X024456Y011028D01*
X024482Y011024D01*
X024508Y011016D01*
X024532Y011004D01*
X024553Y010989D01*
X024573Y010971D01*
X024589Y010951D01*
X024602Y010928D01*
X024612Y010903D01*
X024618Y010877D01*
X024620Y010851D01*
X024618Y010825D01*
X024612Y010799D01*
X024602Y010774D01*
X024589Y010751D01*
X024573Y010731D01*
X024553Y010713D01*
X024531Y010698D01*
X024508Y010686D01*
X024482Y010678D01*
X024456Y010674D01*
X024430Y010674D01*
X024404Y010678D01*
X024378Y010686D01*
X024354Y010698D01*
X024333Y010713D01*
X024313Y010731D01*
X024297Y010751D01*
X024284Y010774D01*
X024274Y010799D01*
X024268Y010825D01*
X024266Y010851D01*
X022453Y012504D02*
X022455Y012530D01*
X022461Y012556D01*
X022471Y012581D01*
X022484Y012604D01*
X022500Y012624D01*
X022520Y012642D01*
X022542Y012657D01*
X022565Y012669D01*
X022591Y012677D01*
X022617Y012681D01*
X022643Y012681D01*
X022669Y012677D01*
X022695Y012669D01*
X022719Y012657D01*
X022740Y012642D01*
X022760Y012624D01*
X022776Y012604D01*
X022789Y012581D01*
X022799Y012556D01*
X022805Y012530D01*
X022807Y012504D01*
X022805Y012478D01*
X022799Y012452D01*
X022789Y012427D01*
X022776Y012404D01*
X022760Y012384D01*
X022740Y012366D01*
X022718Y012351D01*
X022695Y012339D01*
X022669Y012331D01*
X022643Y012327D01*
X022617Y012327D01*
X022591Y012331D01*
X022565Y012339D01*
X022541Y012351D01*
X022520Y012366D01*
X022500Y012384D01*
X022484Y012404D01*
X022471Y012427D01*
X022461Y012452D01*
X022455Y012478D01*
X022453Y012504D01*
X021413Y013603D02*
X021415Y013629D01*
X021421Y013655D01*
X021431Y013680D01*
X021444Y013703D01*
X021460Y013723D01*
X021480Y013741D01*
X021502Y013756D01*
X021525Y013768D01*
X021551Y013776D01*
X021577Y013780D01*
X021603Y013780D01*
X021629Y013776D01*
X021655Y013768D01*
X021679Y013756D01*
X021700Y013741D01*
X021720Y013723D01*
X021736Y013703D01*
X021749Y013680D01*
X021759Y013655D01*
X021765Y013629D01*
X021767Y013603D01*
X021765Y013577D01*
X021759Y013551D01*
X021749Y013526D01*
X021736Y013503D01*
X021720Y013483D01*
X021700Y013465D01*
X021678Y013450D01*
X021655Y013438D01*
X021629Y013430D01*
X021603Y013426D01*
X021577Y013426D01*
X021551Y013430D01*
X021525Y013438D01*
X021501Y013450D01*
X021480Y013465D01*
X021460Y013483D01*
X021444Y013503D01*
X021431Y013526D01*
X021421Y013551D01*
X021415Y013577D01*
X021413Y013603D01*
X020299Y014998D02*
X020301Y015024D01*
X020307Y015050D01*
X020317Y015075D01*
X020330Y015098D01*
X020346Y015118D01*
X020366Y015136D01*
X020388Y015151D01*
X020411Y015163D01*
X020437Y015171D01*
X020463Y015175D01*
X020489Y015175D01*
X020515Y015171D01*
X020541Y015163D01*
X020565Y015151D01*
X020586Y015136D01*
X020606Y015118D01*
X020622Y015098D01*
X020635Y015075D01*
X020645Y015050D01*
X020651Y015024D01*
X020653Y014998D01*
X020651Y014972D01*
X020645Y014946D01*
X020635Y014921D01*
X020622Y014898D01*
X020606Y014878D01*
X020586Y014860D01*
X020564Y014845D01*
X020541Y014833D01*
X020515Y014825D01*
X020489Y014821D01*
X020463Y014821D01*
X020437Y014825D01*
X020411Y014833D01*
X020387Y014845D01*
X020366Y014860D01*
X020346Y014878D01*
X020330Y014898D01*
X020317Y014921D01*
X020307Y014946D01*
X020301Y014972D01*
X020299Y014998D01*
X019318Y015979D02*
X019320Y016005D01*
X019326Y016031D01*
X019336Y016056D01*
X019349Y016079D01*
X019365Y016099D01*
X019385Y016117D01*
X019407Y016132D01*
X019430Y016144D01*
X019456Y016152D01*
X019482Y016156D01*
X019508Y016156D01*
X019534Y016152D01*
X019560Y016144D01*
X019584Y016132D01*
X019605Y016117D01*
X019625Y016099D01*
X019641Y016079D01*
X019654Y016056D01*
X019664Y016031D01*
X019670Y016005D01*
X019672Y015979D01*
X019670Y015953D01*
X019664Y015927D01*
X019654Y015902D01*
X019641Y015879D01*
X019625Y015859D01*
X019605Y015841D01*
X019583Y015826D01*
X019560Y015814D01*
X019534Y015806D01*
X019508Y015802D01*
X019482Y015802D01*
X019456Y015806D01*
X019430Y015814D01*
X019406Y015826D01*
X019385Y015841D01*
X019365Y015859D01*
X019349Y015879D01*
X019336Y015902D01*
X019326Y015927D01*
X019320Y015953D01*
X019318Y015979D01*
X012745Y018389D02*
X012747Y018415D01*
X012753Y018441D01*
X012763Y018466D01*
X012776Y018489D01*
X012792Y018509D01*
X012812Y018527D01*
X012834Y018542D01*
X012857Y018554D01*
X012883Y018562D01*
X012909Y018566D01*
X012935Y018566D01*
X012961Y018562D01*
X012987Y018554D01*
X013011Y018542D01*
X013032Y018527D01*
X013052Y018509D01*
X013068Y018489D01*
X013081Y018466D01*
X013091Y018441D01*
X013097Y018415D01*
X013099Y018389D01*
X013097Y018363D01*
X013091Y018337D01*
X013081Y018312D01*
X013068Y018289D01*
X013052Y018269D01*
X013032Y018251D01*
X013010Y018236D01*
X012987Y018224D01*
X012961Y018216D01*
X012935Y018212D01*
X012909Y018212D01*
X012883Y018216D01*
X012857Y018224D01*
X012833Y018236D01*
X012812Y018251D01*
X012792Y018269D01*
X012776Y018289D01*
X012763Y018312D01*
X012753Y018337D01*
X012747Y018363D01*
X012745Y018389D01*
X015575Y020116D02*
X015577Y020142D01*
X015583Y020168D01*
X015593Y020193D01*
X015606Y020216D01*
X015622Y020236D01*
X015642Y020254D01*
X015664Y020269D01*
X015687Y020281D01*
X015713Y020289D01*
X015739Y020293D01*
X015765Y020293D01*
X015791Y020289D01*
X015817Y020281D01*
X015841Y020269D01*
X015862Y020254D01*
X015882Y020236D01*
X015898Y020216D01*
X015911Y020193D01*
X015921Y020168D01*
X015927Y020142D01*
X015929Y020116D01*
X015927Y020090D01*
X015921Y020064D01*
X015911Y020039D01*
X015898Y020016D01*
X015882Y019996D01*
X015862Y019978D01*
X015840Y019963D01*
X015817Y019951D01*
X015791Y019943D01*
X015765Y019939D01*
X015739Y019939D01*
X015713Y019943D01*
X015687Y019951D01*
X015663Y019963D01*
X015642Y019978D01*
X015622Y019996D01*
X015606Y020016D01*
X015593Y020039D01*
X015583Y020064D01*
X015577Y020090D01*
X015575Y020116D01*
X011947Y016341D02*
X011949Y016367D01*
X011955Y016393D01*
X011965Y016418D01*
X011978Y016441D01*
X011994Y016461D01*
X012014Y016479D01*
X012036Y016494D01*
X012059Y016506D01*
X012085Y016514D01*
X012111Y016518D01*
X012137Y016518D01*
X012163Y016514D01*
X012189Y016506D01*
X012213Y016494D01*
X012234Y016479D01*
X012254Y016461D01*
X012270Y016441D01*
X012283Y016418D01*
X012293Y016393D01*
X012299Y016367D01*
X012301Y016341D01*
X012299Y016315D01*
X012293Y016289D01*
X012283Y016264D01*
X012270Y016241D01*
X012254Y016221D01*
X012234Y016203D01*
X012212Y016188D01*
X012189Y016176D01*
X012163Y016168D01*
X012137Y016164D01*
X012111Y016164D01*
X012085Y016168D01*
X012059Y016176D01*
X012035Y016188D01*
X012014Y016203D01*
X011994Y016221D01*
X011978Y016241D01*
X011965Y016264D01*
X011955Y016289D01*
X011949Y016315D01*
X011947Y016341D01*
X008017Y012553D02*
X008019Y012579D01*
X008025Y012605D01*
X008035Y012630D01*
X008048Y012653D01*
X008064Y012673D01*
X008084Y012691D01*
X008106Y012706D01*
X008129Y012718D01*
X008155Y012726D01*
X008181Y012730D01*
X008207Y012730D01*
X008233Y012726D01*
X008259Y012718D01*
X008283Y012706D01*
X008304Y012691D01*
X008324Y012673D01*
X008340Y012653D01*
X008353Y012630D01*
X008363Y012605D01*
X008369Y012579D01*
X008371Y012553D01*
X008369Y012527D01*
X008363Y012501D01*
X008353Y012476D01*
X008340Y012453D01*
X008324Y012433D01*
X008304Y012415D01*
X008282Y012400D01*
X008259Y012388D01*
X008233Y012380D01*
X008207Y012376D01*
X008181Y012376D01*
X008155Y012380D01*
X008129Y012388D01*
X008105Y012400D01*
X008084Y012415D01*
X008064Y012433D01*
X008048Y012453D01*
X008035Y012476D01*
X008025Y012501D01*
X008019Y012527D01*
X008017Y012553D01*
X005927Y012520D02*
X005929Y012546D01*
X005935Y012572D01*
X005945Y012597D01*
X005958Y012620D01*
X005974Y012640D01*
X005994Y012658D01*
X006016Y012673D01*
X006039Y012685D01*
X006065Y012693D01*
X006091Y012697D01*
X006117Y012697D01*
X006143Y012693D01*
X006169Y012685D01*
X006193Y012673D01*
X006214Y012658D01*
X006234Y012640D01*
X006250Y012620D01*
X006263Y012597D01*
X006273Y012572D01*
X006279Y012546D01*
X006281Y012520D01*
X006279Y012494D01*
X006273Y012468D01*
X006263Y012443D01*
X006250Y012420D01*
X006234Y012400D01*
X006214Y012382D01*
X006192Y012367D01*
X006169Y012355D01*
X006143Y012347D01*
X006117Y012343D01*
X006091Y012343D01*
X006065Y012347D01*
X006039Y012355D01*
X006015Y012367D01*
X005994Y012382D01*
X005974Y012400D01*
X005958Y012420D01*
X005945Y012443D01*
X005935Y012468D01*
X005929Y012494D01*
X005927Y012520D01*
X002801Y012458D02*
X002803Y012484D01*
X002809Y012510D01*
X002819Y012535D01*
X002832Y012558D01*
X002848Y012578D01*
X002868Y012596D01*
X002890Y012611D01*
X002913Y012623D01*
X002939Y012631D01*
X002965Y012635D01*
X002991Y012635D01*
X003017Y012631D01*
X003043Y012623D01*
X003067Y012611D01*
X003088Y012596D01*
X003108Y012578D01*
X003124Y012558D01*
X003137Y012535D01*
X003147Y012510D01*
X003153Y012484D01*
X003155Y012458D01*
X003153Y012432D01*
X003147Y012406D01*
X003137Y012381D01*
X003124Y012358D01*
X003108Y012338D01*
X003088Y012320D01*
X003066Y012305D01*
X003043Y012293D01*
X003017Y012285D01*
X002991Y012281D01*
X002965Y012281D01*
X002939Y012285D01*
X002913Y012293D01*
X002889Y012305D01*
X002868Y012320D01*
X002848Y012338D01*
X002832Y012358D01*
X002819Y012381D01*
X002809Y012406D01*
X002803Y012432D01*
X002801Y012458D01*
X000849Y012406D02*
X000851Y012432D01*
X000857Y012458D01*
X000867Y012483D01*
X000880Y012506D01*
X000896Y012526D01*
X000916Y012544D01*
X000938Y012559D01*
X000961Y012571D01*
X000987Y012579D01*
X001013Y012583D01*
X001039Y012583D01*
X001065Y012579D01*
X001091Y012571D01*
X001115Y012559D01*
X001136Y012544D01*
X001156Y012526D01*
X001172Y012506D01*
X001185Y012483D01*
X001195Y012458D01*
X001201Y012432D01*
X001203Y012406D01*
X001201Y012380D01*
X001195Y012354D01*
X001185Y012329D01*
X001172Y012306D01*
X001156Y012286D01*
X001136Y012268D01*
X001114Y012253D01*
X001091Y012241D01*
X001065Y012233D01*
X001039Y012229D01*
X001013Y012229D01*
X000987Y012233D01*
X000961Y012241D01*
X000937Y012253D01*
X000916Y012268D01*
X000896Y012286D01*
X000880Y012306D01*
X000867Y012329D01*
X000857Y012354D01*
X000851Y012380D01*
X000849Y012406D01*
X000849Y011606D02*
X000851Y011632D01*
X000857Y011658D01*
X000867Y011683D01*
X000880Y011706D01*
X000896Y011726D01*
X000916Y011744D01*
X000938Y011759D01*
X000961Y011771D01*
X000987Y011779D01*
X001013Y011783D01*
X001039Y011783D01*
X001065Y011779D01*
X001091Y011771D01*
X001115Y011759D01*
X001136Y011744D01*
X001156Y011726D01*
X001172Y011706D01*
X001185Y011683D01*
X001195Y011658D01*
X001201Y011632D01*
X001203Y011606D01*
X001201Y011580D01*
X001195Y011554D01*
X001185Y011529D01*
X001172Y011506D01*
X001156Y011486D01*
X001136Y011468D01*
X001114Y011453D01*
X001091Y011441D01*
X001065Y011433D01*
X001039Y011429D01*
X001013Y011429D01*
X000987Y011433D01*
X000961Y011441D01*
X000937Y011453D01*
X000916Y011468D01*
X000896Y011486D01*
X000880Y011506D01*
X000867Y011529D01*
X000857Y011554D01*
X000851Y011580D01*
X000849Y011606D01*
X008297Y010948D02*
X008299Y010974D01*
X008305Y011000D01*
X008315Y011025D01*
X008328Y011048D01*
X008344Y011068D01*
X008364Y011086D01*
X008386Y011101D01*
X008409Y011113D01*
X008435Y011121D01*
X008461Y011125D01*
X008487Y011125D01*
X008513Y011121D01*
X008539Y011113D01*
X008563Y011101D01*
X008584Y011086D01*
X008604Y011068D01*
X008620Y011048D01*
X008633Y011025D01*
X008643Y011000D01*
X008649Y010974D01*
X008651Y010948D01*
X008649Y010922D01*
X008643Y010896D01*
X008633Y010871D01*
X008620Y010848D01*
X008604Y010828D01*
X008584Y010810D01*
X008562Y010795D01*
X008539Y010783D01*
X008513Y010775D01*
X008487Y010771D01*
X008461Y010771D01*
X008435Y010775D01*
X008409Y010783D01*
X008385Y010795D01*
X008364Y010810D01*
X008344Y010828D01*
X008328Y010848D01*
X008315Y010871D01*
X008305Y010896D01*
X008299Y010922D01*
X008297Y010948D01*
X008297Y009267D02*
X008299Y009293D01*
X008305Y009319D01*
X008315Y009344D01*
X008328Y009367D01*
X008344Y009387D01*
X008364Y009405D01*
X008386Y009420D01*
X008409Y009432D01*
X008435Y009440D01*
X008461Y009444D01*
X008487Y009444D01*
X008513Y009440D01*
X008539Y009432D01*
X008563Y009420D01*
X008584Y009405D01*
X008604Y009387D01*
X008620Y009367D01*
X008633Y009344D01*
X008643Y009319D01*
X008649Y009293D01*
X008651Y009267D01*
X008649Y009241D01*
X008643Y009215D01*
X008633Y009190D01*
X008620Y009167D01*
X008604Y009147D01*
X008584Y009129D01*
X008562Y009114D01*
X008539Y009102D01*
X008513Y009094D01*
X008487Y009090D01*
X008461Y009090D01*
X008435Y009094D01*
X008409Y009102D01*
X008385Y009114D01*
X008364Y009129D01*
X008344Y009147D01*
X008328Y009167D01*
X008315Y009190D01*
X008305Y009215D01*
X008299Y009241D01*
X008297Y009267D01*
X010975Y008271D02*
X010977Y008297D01*
X010983Y008323D01*
X010993Y008348D01*
X011006Y008371D01*
X011022Y008391D01*
X011042Y008409D01*
X011064Y008424D01*
X011087Y008436D01*
X011113Y008444D01*
X011139Y008448D01*
X011165Y008448D01*
X011191Y008444D01*
X011217Y008436D01*
X011241Y008424D01*
X011262Y008409D01*
X011282Y008391D01*
X011298Y008371D01*
X011311Y008348D01*
X011321Y008323D01*
X011327Y008297D01*
X011329Y008271D01*
X011327Y008245D01*
X011321Y008219D01*
X011311Y008194D01*
X011298Y008171D01*
X011282Y008151D01*
X011262Y008133D01*
X011240Y008118D01*
X011217Y008106D01*
X011191Y008098D01*
X011165Y008094D01*
X011139Y008094D01*
X011113Y008098D01*
X011087Y008106D01*
X011063Y008118D01*
X011042Y008133D01*
X011022Y008151D01*
X011006Y008171D01*
X010993Y008194D01*
X010983Y008219D01*
X010977Y008245D01*
X010975Y008271D01*
X011207Y011455D02*
X011209Y011481D01*
X011215Y011507D01*
X011225Y011532D01*
X011238Y011555D01*
X011254Y011575D01*
X011274Y011593D01*
X011296Y011608D01*
X011319Y011620D01*
X011345Y011628D01*
X011371Y011632D01*
X011397Y011632D01*
X011423Y011628D01*
X011449Y011620D01*
X011473Y011608D01*
X011494Y011593D01*
X011514Y011575D01*
X011530Y011555D01*
X011543Y011532D01*
X011553Y011507D01*
X011559Y011481D01*
X011561Y011455D01*
X011559Y011429D01*
X011553Y011403D01*
X011543Y011378D01*
X011530Y011355D01*
X011514Y011335D01*
X011494Y011317D01*
X011472Y011302D01*
X011449Y011290D01*
X011423Y011282D01*
X011397Y011278D01*
X011371Y011278D01*
X011345Y011282D01*
X011319Y011290D01*
X011295Y011302D01*
X011274Y011317D01*
X011254Y011335D01*
X011238Y011355D01*
X011225Y011378D01*
X011215Y011403D01*
X011209Y011429D01*
X011207Y011455D01*
X000816Y007011D02*
X000818Y007037D01*
X000824Y007063D01*
X000834Y007088D01*
X000847Y007111D01*
X000863Y007131D01*
X000883Y007149D01*
X000905Y007164D01*
X000928Y007176D01*
X000954Y007184D01*
X000980Y007188D01*
X001006Y007188D01*
X001032Y007184D01*
X001058Y007176D01*
X001082Y007164D01*
X001103Y007149D01*
X001123Y007131D01*
X001139Y007111D01*
X001152Y007088D01*
X001162Y007063D01*
X001168Y007037D01*
X001170Y007011D01*
X001168Y006985D01*
X001162Y006959D01*
X001152Y006934D01*
X001139Y006911D01*
X001123Y006891D01*
X001103Y006873D01*
X001081Y006858D01*
X001058Y006846D01*
X001032Y006838D01*
X001006Y006834D01*
X000980Y006834D01*
X000954Y006838D01*
X000928Y006846D01*
X000904Y006858D01*
X000883Y006873D01*
X000863Y006891D01*
X000847Y006911D01*
X000834Y006934D01*
X000824Y006959D01*
X000818Y006985D01*
X000816Y007011D01*
X000816Y005043D02*
X000818Y005069D01*
X000824Y005095D01*
X000834Y005120D01*
X000847Y005143D01*
X000863Y005163D01*
X000883Y005181D01*
X000905Y005196D01*
X000928Y005208D01*
X000954Y005216D01*
X000980Y005220D01*
X001006Y005220D01*
X001032Y005216D01*
X001058Y005208D01*
X001082Y005196D01*
X001103Y005181D01*
X001123Y005163D01*
X001139Y005143D01*
X001152Y005120D01*
X001162Y005095D01*
X001168Y005069D01*
X001170Y005043D01*
X001168Y005017D01*
X001162Y004991D01*
X001152Y004966D01*
X001139Y004943D01*
X001123Y004923D01*
X001103Y004905D01*
X001081Y004890D01*
X001058Y004878D01*
X001032Y004870D01*
X001006Y004866D01*
X000980Y004866D01*
X000954Y004870D01*
X000928Y004878D01*
X000904Y004890D01*
X000883Y004905D01*
X000863Y004923D01*
X000847Y004943D01*
X000834Y004966D01*
X000824Y004991D01*
X000818Y005017D01*
X000816Y005043D01*
X000816Y000712D02*
X000818Y000738D01*
X000824Y000764D01*
X000834Y000789D01*
X000847Y000812D01*
X000863Y000832D01*
X000883Y000850D01*
X000905Y000865D01*
X000928Y000877D01*
X000954Y000885D01*
X000980Y000889D01*
X001006Y000889D01*
X001032Y000885D01*
X001058Y000877D01*
X001082Y000865D01*
X001103Y000850D01*
X001123Y000832D01*
X001139Y000812D01*
X001152Y000789D01*
X001162Y000764D01*
X001168Y000738D01*
X001170Y000712D01*
X001168Y000686D01*
X001162Y000660D01*
X001152Y000635D01*
X001139Y000612D01*
X001123Y000592D01*
X001103Y000574D01*
X001081Y000559D01*
X001058Y000547D01*
X001032Y000539D01*
X001006Y000535D01*
X000980Y000535D01*
X000954Y000539D01*
X000928Y000547D01*
X000904Y000559D01*
X000883Y000574D01*
X000863Y000592D01*
X000847Y000612D01*
X000834Y000635D01*
X000824Y000660D01*
X000818Y000686D01*
X000816Y000712D01*
X003200Y000728D02*
X003202Y000754D01*
X003208Y000780D01*
X003218Y000805D01*
X003231Y000828D01*
X003247Y000848D01*
X003267Y000866D01*
X003289Y000881D01*
X003312Y000893D01*
X003338Y000901D01*
X003364Y000905D01*
X003390Y000905D01*
X003416Y000901D01*
X003442Y000893D01*
X003466Y000881D01*
X003487Y000866D01*
X003507Y000848D01*
X003523Y000828D01*
X003536Y000805D01*
X003546Y000780D01*
X003552Y000754D01*
X003554Y000728D01*
X003552Y000702D01*
X003546Y000676D01*
X003536Y000651D01*
X003523Y000628D01*
X003507Y000608D01*
X003487Y000590D01*
X003465Y000575D01*
X003442Y000563D01*
X003416Y000555D01*
X003390Y000551D01*
X003364Y000551D01*
X003338Y000555D01*
X003312Y000563D01*
X003288Y000575D01*
X003267Y000590D01*
X003247Y000608D01*
X003231Y000628D01*
X003218Y000651D01*
X003208Y000676D01*
X003202Y000702D01*
X003200Y000728D01*
X005287Y000712D02*
X005289Y000738D01*
X005295Y000764D01*
X005305Y000789D01*
X005318Y000812D01*
X005334Y000832D01*
X005354Y000850D01*
X005376Y000865D01*
X005399Y000877D01*
X005425Y000885D01*
X005451Y000889D01*
X005477Y000889D01*
X005503Y000885D01*
X005529Y000877D01*
X005553Y000865D01*
X005574Y000850D01*
X005594Y000832D01*
X005610Y000812D01*
X005623Y000789D01*
X005633Y000764D01*
X005639Y000738D01*
X005641Y000712D01*
X005639Y000686D01*
X005633Y000660D01*
X005623Y000635D01*
X005610Y000612D01*
X005594Y000592D01*
X005574Y000574D01*
X005552Y000559D01*
X005529Y000547D01*
X005503Y000539D01*
X005477Y000535D01*
X005451Y000535D01*
X005425Y000539D01*
X005399Y000547D01*
X005375Y000559D01*
X005354Y000574D01*
X005334Y000592D01*
X005318Y000612D01*
X005305Y000635D01*
X005295Y000660D01*
X005289Y000686D01*
X005287Y000712D01*
X008297Y000712D02*
X008299Y000738D01*
X008305Y000764D01*
X008315Y000789D01*
X008328Y000812D01*
X008344Y000832D01*
X008364Y000850D01*
X008386Y000865D01*
X008409Y000877D01*
X008435Y000885D01*
X008461Y000889D01*
X008487Y000889D01*
X008513Y000885D01*
X008539Y000877D01*
X008563Y000865D01*
X008584Y000850D01*
X008604Y000832D01*
X008620Y000812D01*
X008633Y000789D01*
X008643Y000764D01*
X008649Y000738D01*
X008651Y000712D01*
X008649Y000686D01*
X008643Y000660D01*
X008633Y000635D01*
X008620Y000612D01*
X008604Y000592D01*
X008584Y000574D01*
X008562Y000559D01*
X008539Y000547D01*
X008513Y000539D01*
X008487Y000535D01*
X008461Y000535D01*
X008435Y000539D01*
X008409Y000547D01*
X008385Y000559D01*
X008364Y000574D01*
X008344Y000592D01*
X008328Y000612D01*
X008315Y000635D01*
X008305Y000660D01*
X008299Y000686D01*
X008297Y000712D01*
X011683Y000912D02*
X011685Y000938D01*
X011691Y000964D01*
X011701Y000989D01*
X011714Y001012D01*
X011730Y001032D01*
X011750Y001050D01*
X011772Y001065D01*
X011795Y001077D01*
X011821Y001085D01*
X011847Y001089D01*
X011873Y001089D01*
X011899Y001085D01*
X011925Y001077D01*
X011949Y001065D01*
X011970Y001050D01*
X011990Y001032D01*
X012006Y001012D01*
X012019Y000989D01*
X012029Y000964D01*
X012035Y000938D01*
X012037Y000912D01*
X012035Y000886D01*
X012029Y000860D01*
X012019Y000835D01*
X012006Y000812D01*
X011990Y000792D01*
X011970Y000774D01*
X011948Y000759D01*
X011925Y000747D01*
X011899Y000739D01*
X011873Y000735D01*
X011847Y000735D01*
X011821Y000739D01*
X011795Y000747D01*
X011771Y000759D01*
X011750Y000774D01*
X011730Y000792D01*
X011714Y000812D01*
X011701Y000835D01*
X011691Y000860D01*
X011685Y000886D01*
X011683Y000912D01*
X014787Y002006D02*
X014789Y002032D01*
X014795Y002058D01*
X014805Y002083D01*
X014818Y002106D01*
X014834Y002126D01*
X014854Y002144D01*
X014876Y002159D01*
X014899Y002171D01*
X014925Y002179D01*
X014951Y002183D01*
X014977Y002183D01*
X015003Y002179D01*
X015029Y002171D01*
X015053Y002159D01*
X015074Y002144D01*
X015094Y002126D01*
X015110Y002106D01*
X015123Y002083D01*
X015133Y002058D01*
X015139Y002032D01*
X015141Y002006D01*
X015139Y001980D01*
X015133Y001954D01*
X015123Y001929D01*
X015110Y001906D01*
X015094Y001886D01*
X015074Y001868D01*
X015052Y001853D01*
X015029Y001841D01*
X015003Y001833D01*
X014977Y001829D01*
X014951Y001829D01*
X014925Y001833D01*
X014899Y001841D01*
X014875Y001853D01*
X014854Y001868D01*
X014834Y001886D01*
X014818Y001906D01*
X014805Y001929D01*
X014795Y001954D01*
X014789Y001980D01*
X014787Y002006D01*
X017150Y002794D02*
X017152Y002820D01*
X017158Y002846D01*
X017168Y002871D01*
X017181Y002894D01*
X017197Y002914D01*
X017217Y002932D01*
X017239Y002947D01*
X017262Y002959D01*
X017288Y002967D01*
X017314Y002971D01*
X017340Y002971D01*
X017366Y002967D01*
X017392Y002959D01*
X017416Y002947D01*
X017437Y002932D01*
X017457Y002914D01*
X017473Y002894D01*
X017486Y002871D01*
X017496Y002846D01*
X017502Y002820D01*
X017504Y002794D01*
X017502Y002768D01*
X017496Y002742D01*
X017486Y002717D01*
X017473Y002694D01*
X017457Y002674D01*
X017437Y002656D01*
X017415Y002641D01*
X017392Y002629D01*
X017366Y002621D01*
X017340Y002617D01*
X017314Y002617D01*
X017288Y002621D01*
X017262Y002629D01*
X017238Y002641D01*
X017217Y002656D01*
X017197Y002674D01*
X017181Y002694D01*
X017168Y002717D01*
X017158Y002742D01*
X017152Y002768D01*
X017150Y002794D01*
X021750Y004797D02*
X021752Y004823D01*
X021758Y004849D01*
X021768Y004874D01*
X021781Y004897D01*
X021797Y004917D01*
X021817Y004935D01*
X021839Y004950D01*
X021862Y004962D01*
X021888Y004970D01*
X021914Y004974D01*
X021940Y004974D01*
X021966Y004970D01*
X021992Y004962D01*
X022016Y004950D01*
X022037Y004935D01*
X022057Y004917D01*
X022073Y004897D01*
X022086Y004874D01*
X022096Y004849D01*
X022102Y004823D01*
X022104Y004797D01*
X022102Y004771D01*
X022096Y004745D01*
X022086Y004720D01*
X022073Y004697D01*
X022057Y004677D01*
X022037Y004659D01*
X022015Y004644D01*
X021992Y004632D01*
X021966Y004624D01*
X021940Y004620D01*
X021914Y004620D01*
X021888Y004624D01*
X021862Y004632D01*
X021838Y004644D01*
X021817Y004659D01*
X021797Y004677D01*
X021781Y004697D01*
X021768Y004720D01*
X021758Y004745D01*
X021752Y004771D01*
X021750Y004797D01*
X024560Y003831D02*
X024562Y003857D01*
X024568Y003883D01*
X024578Y003908D01*
X024591Y003931D01*
X024607Y003951D01*
X024627Y003969D01*
X024649Y003984D01*
X024672Y003996D01*
X024698Y004004D01*
X024724Y004008D01*
X024750Y004008D01*
X024776Y004004D01*
X024802Y003996D01*
X024826Y003984D01*
X024847Y003969D01*
X024867Y003951D01*
X024883Y003931D01*
X024896Y003908D01*
X024906Y003883D01*
X024912Y003857D01*
X024914Y003831D01*
X024912Y003805D01*
X024906Y003779D01*
X024896Y003754D01*
X024883Y003731D01*
X024867Y003711D01*
X024847Y003693D01*
X024825Y003678D01*
X024802Y003666D01*
X024776Y003658D01*
X024750Y003654D01*
X024724Y003654D01*
X024698Y003658D01*
X024672Y003666D01*
X024648Y003678D01*
X024627Y003693D01*
X024607Y003711D01*
X024591Y003731D01*
X024578Y003754D01*
X024568Y003779D01*
X024562Y003805D01*
X024560Y003831D01*
X027278Y003690D02*
X027280Y003716D01*
X027286Y003742D01*
X027296Y003767D01*
X027309Y003790D01*
X027325Y003810D01*
X027345Y003828D01*
X027367Y003843D01*
X027390Y003855D01*
X027416Y003863D01*
X027442Y003867D01*
X027468Y003867D01*
X027494Y003863D01*
X027520Y003855D01*
X027544Y003843D01*
X027565Y003828D01*
X027585Y003810D01*
X027601Y003790D01*
X027614Y003767D01*
X027624Y003742D01*
X027630Y003716D01*
X027632Y003690D01*
X027630Y003664D01*
X027624Y003638D01*
X027614Y003613D01*
X027601Y003590D01*
X027585Y003570D01*
X027565Y003552D01*
X027543Y003537D01*
X027520Y003525D01*
X027494Y003517D01*
X027468Y003513D01*
X027442Y003513D01*
X027416Y003517D01*
X027390Y003525D01*
X027366Y003537D01*
X027345Y003552D01*
X027325Y003570D01*
X027309Y003590D01*
X027296Y003613D01*
X027286Y003638D01*
X027280Y003664D01*
X027278Y003690D01*
X026491Y001722D02*
X026493Y001748D01*
X026499Y001774D01*
X026509Y001799D01*
X026522Y001822D01*
X026538Y001842D01*
X026558Y001860D01*
X026580Y001875D01*
X026603Y001887D01*
X026629Y001895D01*
X026655Y001899D01*
X026681Y001899D01*
X026707Y001895D01*
X026733Y001887D01*
X026757Y001875D01*
X026778Y001860D01*
X026798Y001842D01*
X026814Y001822D01*
X026827Y001799D01*
X026837Y001774D01*
X026843Y001748D01*
X026845Y001722D01*
X026843Y001696D01*
X026837Y001670D01*
X026827Y001645D01*
X026814Y001622D01*
X026798Y001602D01*
X026778Y001584D01*
X026756Y001569D01*
X026733Y001557D01*
X026707Y001549D01*
X026681Y001545D01*
X026655Y001545D01*
X026629Y001549D01*
X026603Y001557D01*
X026579Y001569D01*
X026558Y001584D01*
X026538Y001602D01*
X026522Y001622D01*
X026509Y001645D01*
X026499Y001670D01*
X026493Y001696D01*
X026491Y001722D01*
X028331Y006053D02*
X028333Y006079D01*
X028339Y006105D01*
X028349Y006130D01*
X028362Y006153D01*
X028378Y006173D01*
X028398Y006191D01*
X028420Y006206D01*
X028443Y006218D01*
X028469Y006226D01*
X028495Y006230D01*
X028521Y006230D01*
X028547Y006226D01*
X028573Y006218D01*
X028597Y006206D01*
X028618Y006191D01*
X028638Y006173D01*
X028654Y006153D01*
X028667Y006130D01*
X028677Y006105D01*
X028683Y006079D01*
X028685Y006053D01*
X028683Y006027D01*
X028677Y006001D01*
X028667Y005976D01*
X028654Y005953D01*
X028638Y005933D01*
X028618Y005915D01*
X028596Y005900D01*
X028573Y005888D01*
X028547Y005880D01*
X028521Y005876D01*
X028495Y005876D01*
X028469Y005880D01*
X028443Y005888D01*
X028419Y005900D01*
X028398Y005915D01*
X028378Y005933D01*
X028362Y005953D01*
X028349Y005976D01*
X028339Y006001D01*
X028333Y006027D01*
X028331Y006053D01*
X011144Y004961D02*
X011146Y004987D01*
X011152Y005013D01*
X011162Y005038D01*
X011175Y005061D01*
X011191Y005081D01*
X011211Y005099D01*
X011233Y005114D01*
X011256Y005126D01*
X011282Y005134D01*
X011308Y005138D01*
X011334Y005138D01*
X011360Y005134D01*
X011386Y005126D01*
X011410Y005114D01*
X011431Y005099D01*
X011451Y005081D01*
X011467Y005061D01*
X011480Y005038D01*
X011490Y005013D01*
X011496Y004987D01*
X011498Y004961D01*
X011496Y004935D01*
X011490Y004909D01*
X011480Y004884D01*
X011467Y004861D01*
X011451Y004841D01*
X011431Y004823D01*
X011409Y004808D01*
X011386Y004796D01*
X011360Y004788D01*
X011334Y004784D01*
X011308Y004784D01*
X011282Y004788D01*
X011256Y004796D01*
X011232Y004808D01*
X011211Y004823D01*
X011191Y004841D01*
X011175Y004861D01*
X011162Y004884D01*
X011152Y004909D01*
X011146Y004935D01*
X011144Y004961D01*
X008197Y005067D02*
X008199Y005093D01*
X008205Y005119D01*
X008215Y005144D01*
X008228Y005167D01*
X008244Y005187D01*
X008264Y005205D01*
X008286Y005220D01*
X008309Y005232D01*
X008335Y005240D01*
X008361Y005244D01*
X008387Y005244D01*
X008413Y005240D01*
X008439Y005232D01*
X008463Y005220D01*
X008484Y005205D01*
X008504Y005187D01*
X008520Y005167D01*
X008533Y005144D01*
X008543Y005119D01*
X008549Y005093D01*
X008551Y005067D01*
X008549Y005041D01*
X008543Y005015D01*
X008533Y004990D01*
X008520Y004967D01*
X008504Y004947D01*
X008484Y004929D01*
X008462Y004914D01*
X008439Y004902D01*
X008413Y004894D01*
X008387Y004890D01*
X008361Y004890D01*
X008335Y004894D01*
X008309Y004902D01*
X008285Y004914D01*
X008264Y004929D01*
X008244Y004947D01*
X008228Y004967D01*
X008215Y004990D01*
X008205Y005015D01*
X008199Y005041D01*
X008197Y005067D01*
D12*
X007270Y006010D03*
X007880Y006607D03*
X007280Y007205D03*
X007890Y007802D03*
X007290Y008410D03*
X007612Y011777D03*
X006677Y011786D03*
X013185Y004778D03*
X013795Y004188D03*
X013205Y003588D03*
X013815Y002988D03*
X013205Y002398D03*
D13*
X020769Y012095D03*
X021749Y012105D03*
X019945Y013818D03*
X018995Y013804D03*
D14*
X015025Y008138D03*
X015115Y006744D03*
D15*
X024316Y009561D03*
X025316Y009561D03*
X026029Y008077D03*
X027029Y008077D03*
D16*
X002477Y008423D03*
X002477Y009407D03*
X002477Y010391D03*
X001178Y010391D03*
X001178Y009407D03*
X001178Y008423D03*
D17*
X001622Y008214D02*
X002033Y008214D01*
X002061Y008145D02*
X001987Y008325D01*
X001987Y008520D01*
X002061Y008700D01*
X002199Y008838D01*
X002379Y008913D01*
X002574Y008913D01*
X002754Y008838D01*
X002892Y008700D01*
X002967Y008520D01*
X002967Y008325D01*
X002892Y008145D01*
X002754Y008007D01*
X002574Y007933D01*
X002379Y007933D01*
X002199Y008007D01*
X002061Y008145D01*
X002111Y008096D02*
X001544Y008096D01*
X001593Y008145D02*
X001668Y008325D01*
X001668Y008520D01*
X001593Y008700D01*
X001455Y008838D01*
X001275Y008913D01*
X001080Y008913D01*
X000900Y008838D01*
X000890Y008828D01*
X000890Y009002D01*
X000900Y008992D01*
X001080Y008917D01*
X001275Y008917D01*
X001455Y008992D01*
X001593Y009130D01*
X001668Y009310D01*
X001668Y009505D01*
X001593Y009685D01*
X001455Y009822D01*
X001275Y009897D01*
X001080Y009897D01*
X000900Y009822D01*
X000891Y009813D01*
X000891Y009985D01*
X000900Y009976D01*
X001080Y009901D01*
X001275Y009901D01*
X001455Y009976D01*
X001593Y010114D01*
X001668Y010294D01*
X001668Y010489D01*
X001593Y010669D01*
X001455Y010807D01*
X001275Y010881D01*
X001080Y010881D01*
X000900Y010807D01*
X000893Y010800D01*
X000894Y011242D01*
X000949Y011219D01*
X001103Y011219D01*
X001245Y011278D01*
X001354Y011387D01*
X001413Y011529D01*
X001413Y011683D01*
X001354Y011825D01*
X001245Y011934D01*
X001103Y011993D01*
X000949Y011993D01*
X000896Y011971D01*
X000896Y012041D01*
X000949Y012019D01*
X001103Y012019D01*
X001245Y012078D01*
X001354Y012187D01*
X001413Y012329D01*
X001413Y012338D01*
X001652Y012352D01*
X001738Y012394D01*
X001752Y012410D01*
X002591Y012404D01*
X002591Y012381D01*
X002650Y012239D01*
X002759Y012130D01*
X002901Y012071D01*
X003055Y012071D01*
X003197Y012130D01*
X003306Y012239D01*
X003365Y012381D01*
X003365Y012399D01*
X005742Y012382D01*
X005775Y012301D01*
X005884Y012192D01*
X006027Y012133D01*
X006181Y012133D01*
X006323Y012192D01*
X006432Y012301D01*
X006464Y012377D01*
X007851Y012368D01*
X007865Y012334D01*
X007974Y012225D01*
X008117Y012166D01*
X008271Y012166D01*
X008413Y012225D01*
X008522Y012334D01*
X008534Y012363D01*
X008564Y012363D01*
X008564Y011330D01*
X008551Y011335D01*
X008397Y011335D01*
X008254Y011276D01*
X008145Y011167D01*
X008087Y011025D01*
X008087Y010871D01*
X008145Y010729D01*
X008254Y010620D01*
X008397Y010561D01*
X008551Y010561D01*
X008564Y010567D01*
X008564Y009649D01*
X008551Y009654D01*
X008397Y009654D01*
X008254Y009595D01*
X008145Y009486D01*
X008087Y009344D01*
X008087Y009190D01*
X008145Y009048D01*
X008254Y008939D01*
X008397Y008880D01*
X008551Y008880D01*
X008564Y008886D01*
X008564Y005407D01*
X008451Y005454D01*
X008297Y005454D01*
X008154Y005395D01*
X008045Y005286D01*
X007987Y005144D01*
X007987Y004990D01*
X008045Y004848D01*
X008154Y004739D01*
X008297Y004680D01*
X008451Y004680D01*
X008564Y004727D01*
X008564Y001216D01*
X000890Y001212D01*
X000890Y004666D01*
X000916Y004655D01*
X001070Y004655D01*
X001213Y004714D01*
X001322Y004823D01*
X001381Y004966D01*
X001381Y005120D01*
X001322Y005262D01*
X001213Y005371D01*
X001070Y005430D01*
X000916Y005430D01*
X000890Y005419D01*
X000890Y006635D01*
X000916Y006624D01*
X001070Y006624D01*
X001213Y006683D01*
X001322Y006792D01*
X007021Y006792D01*
X007083Y006730D02*
X007405Y006730D01*
X007405Y006485D01*
X007073Y006485D01*
X006795Y006207D01*
X006795Y005813D01*
X007073Y005535D01*
X007467Y005535D01*
X007745Y005813D01*
X007745Y006132D01*
X008077Y006132D01*
X008355Y006411D01*
X008355Y006804D01*
X008077Y007082D01*
X007755Y007082D01*
X007755Y007327D01*
X008087Y007327D01*
X008365Y007605D01*
X008365Y007999D01*
X008087Y008277D01*
X007693Y008277D01*
X007415Y007999D01*
X007415Y007680D01*
X007083Y007680D01*
X006805Y007402D01*
X006805Y007008D01*
X007083Y006730D01*
X006902Y006911D02*
X001371Y006911D01*
X001381Y006934D02*
X001381Y007088D01*
X001322Y007230D01*
X001213Y007339D01*
X001070Y007398D01*
X000916Y007398D01*
X000890Y007387D01*
X000890Y008018D01*
X000900Y008007D01*
X001080Y007933D01*
X001275Y007933D01*
X001455Y008007D01*
X001593Y008145D01*
X001668Y008333D02*
X001987Y008333D01*
X001987Y008451D02*
X001668Y008451D01*
X001647Y008570D02*
X002007Y008570D01*
X002056Y008688D02*
X001598Y008688D01*
X001487Y008807D02*
X002168Y008807D01*
X002199Y008992D02*
X002379Y008917D01*
X002574Y008917D01*
X002754Y008992D01*
X002892Y009130D01*
X002967Y009310D01*
X002967Y009505D01*
X002892Y009685D01*
X002754Y009822D01*
X002574Y009897D01*
X002379Y009897D01*
X002199Y009822D01*
X002061Y009685D01*
X001987Y009505D01*
X001987Y009310D01*
X002061Y009130D01*
X002199Y008992D01*
X002147Y009044D02*
X001507Y009044D01*
X001607Y009162D02*
X002048Y009162D01*
X001999Y009281D02*
X001656Y009281D01*
X001668Y009399D02*
X001987Y009399D01*
X001992Y009518D02*
X001662Y009518D01*
X001613Y009636D02*
X002041Y009636D01*
X002132Y009755D02*
X001523Y009755D01*
X001333Y009873D02*
X002322Y009873D01*
X002379Y009901D02*
X002574Y009901D01*
X002754Y009976D01*
X002892Y010114D01*
X002967Y010294D01*
X002967Y010489D01*
X002892Y010669D01*
X002754Y010807D01*
X002574Y010881D01*
X002379Y010881D01*
X002199Y010807D01*
X002061Y010669D01*
X001987Y010489D01*
X001987Y010294D01*
X002061Y010114D01*
X002199Y009976D01*
X002379Y009901D01*
X002183Y009992D02*
X001471Y009992D01*
X001590Y010110D02*
X002065Y010110D01*
X002014Y010229D02*
X001641Y010229D01*
X001668Y010347D02*
X001987Y010347D01*
X001987Y010466D02*
X001668Y010466D01*
X001628Y010584D02*
X002026Y010584D01*
X002095Y010703D02*
X001559Y010703D01*
X001420Y010821D02*
X002234Y010821D01*
X002719Y010821D02*
X008107Y010821D01*
X008087Y010940D02*
X000893Y010940D01*
X000893Y011058D02*
X008100Y011058D01*
X008155Y011177D02*
X000894Y011177D01*
X000893Y010821D02*
X000935Y010821D01*
X001262Y011295D02*
X008300Y011295D01*
X008564Y011414D02*
X006976Y011414D01*
X006874Y011311D02*
X007152Y011590D01*
X007152Y011983D01*
X006874Y012261D01*
X006480Y012261D01*
X006202Y011983D01*
X006202Y011590D01*
X006480Y011311D01*
X006874Y011311D01*
X007094Y011532D02*
X008564Y011532D01*
X008564Y011651D02*
X007152Y011651D01*
X007152Y011769D02*
X008564Y011769D01*
X008564Y011888D02*
X007152Y011888D01*
X007129Y012006D02*
X008564Y012006D01*
X008564Y012125D02*
X007010Y012125D01*
X006892Y012243D02*
X007956Y012243D01*
X007854Y012362D02*
X006457Y012362D01*
X006462Y012243D02*
X006374Y012243D01*
X006343Y012125D02*
X003185Y012125D01*
X003308Y012243D02*
X005833Y012243D01*
X005750Y012362D02*
X003357Y012362D01*
X002771Y012125D02*
X001292Y012125D01*
X001377Y012243D02*
X002648Y012243D01*
X002599Y012362D02*
X001672Y012362D01*
X001292Y011888D02*
X006202Y011888D01*
X006202Y011769D02*
X001377Y011769D01*
X001413Y011651D02*
X006202Y011651D01*
X006259Y011532D02*
X001413Y011532D01*
X001365Y011414D02*
X006378Y011414D01*
X006225Y012006D02*
X000896Y012006D01*
X002858Y010703D02*
X008172Y010703D01*
X008340Y010584D02*
X002927Y010584D01*
X002967Y010466D02*
X008564Y010466D01*
X008564Y010347D02*
X002967Y010347D01*
X002940Y010229D02*
X008564Y010229D01*
X008564Y010110D02*
X002889Y010110D01*
X002770Y009992D02*
X008564Y009992D01*
X008564Y009873D02*
X002632Y009873D01*
X002822Y009755D02*
X008564Y009755D01*
X008353Y009636D02*
X002912Y009636D01*
X002961Y009518D02*
X008177Y009518D01*
X008109Y009399D02*
X002967Y009399D01*
X002955Y009281D02*
X008087Y009281D01*
X008098Y009162D02*
X002906Y009162D01*
X002806Y009044D02*
X008149Y009044D01*
X008287Y008925D02*
X002594Y008925D01*
X002786Y008807D02*
X008564Y008807D01*
X008564Y008688D02*
X002897Y008688D01*
X002946Y008570D02*
X008564Y008570D01*
X008564Y008451D02*
X002967Y008451D01*
X002967Y008333D02*
X008564Y008333D01*
X008564Y008214D02*
X008150Y008214D01*
X008268Y008096D02*
X008564Y008096D01*
X008564Y007977D02*
X008365Y007977D01*
X008365Y007859D02*
X008564Y007859D01*
X008564Y007740D02*
X008365Y007740D01*
X008365Y007622D02*
X008564Y007622D01*
X008564Y007503D02*
X008263Y007503D01*
X008144Y007385D02*
X008564Y007385D01*
X008564Y007266D02*
X007755Y007266D01*
X007755Y007148D02*
X008564Y007148D01*
X008564Y007029D02*
X008130Y007029D01*
X008248Y006911D02*
X008564Y006911D01*
X008564Y006792D02*
X008355Y006792D01*
X008355Y006674D02*
X008564Y006674D01*
X008564Y006555D02*
X008355Y006555D01*
X008355Y006437D02*
X008564Y006437D01*
X008564Y006318D02*
X008263Y006318D01*
X008144Y006200D02*
X008564Y006200D01*
X008564Y006081D02*
X007745Y006081D01*
X007745Y005963D02*
X008564Y005963D01*
X008564Y005844D02*
X007745Y005844D01*
X007658Y005726D02*
X008564Y005726D01*
X008564Y005607D02*
X007539Y005607D01*
X007001Y005607D02*
X000890Y005607D01*
X000890Y005489D02*
X008564Y005489D01*
X008129Y005370D02*
X001213Y005370D01*
X001326Y005252D02*
X008031Y005252D01*
X007987Y005133D02*
X001375Y005133D01*
X001381Y005015D02*
X007987Y005015D01*
X008025Y004896D02*
X001352Y004896D01*
X001276Y004778D02*
X008115Y004778D01*
X008564Y004659D02*
X001080Y004659D01*
X000907Y004659D02*
X000890Y004659D01*
X000890Y004541D02*
X008564Y004541D01*
X008564Y004422D02*
X000890Y004422D01*
X000890Y004304D02*
X008564Y004304D01*
X008564Y004185D02*
X000890Y004185D01*
X000890Y004067D02*
X008564Y004067D01*
X008564Y003948D02*
X000890Y003948D01*
X000890Y003830D02*
X008564Y003830D01*
X008564Y003711D02*
X000890Y003711D01*
X000890Y003593D02*
X008564Y003593D01*
X008564Y003474D02*
X000890Y003474D01*
X000890Y003356D02*
X008564Y003356D01*
X008564Y003237D02*
X000890Y003237D01*
X000890Y003119D02*
X008564Y003119D01*
X008564Y003000D02*
X000890Y003000D01*
X000890Y002882D02*
X008564Y002882D01*
X008564Y002763D02*
X000890Y002763D01*
X000890Y002645D02*
X008564Y002645D01*
X008564Y002526D02*
X000890Y002526D01*
X000890Y002408D02*
X008564Y002408D01*
X008564Y002289D02*
X000890Y002289D01*
X000890Y002171D02*
X008564Y002171D01*
X008564Y002052D02*
X000890Y002052D01*
X000890Y001934D02*
X008564Y001934D01*
X008564Y001815D02*
X000890Y001815D01*
X000890Y001697D02*
X008564Y001697D01*
X008564Y001578D02*
X000890Y001578D01*
X000890Y001460D02*
X008564Y001460D01*
X008564Y001341D02*
X000890Y001341D01*
X000890Y001223D02*
X008564Y001223D01*
X011355Y001697D02*
X014726Y001697D01*
X014745Y001678D02*
X014884Y001621D01*
X012400Y000565D01*
X012398Y000564D01*
X012378Y000562D01*
X012344Y000545D01*
X012308Y000533D01*
X012300Y000526D01*
X012234Y000499D01*
X012039Y000470D01*
X011845Y000504D01*
X011806Y000525D01*
X011937Y000525D01*
X012080Y000584D01*
X012188Y000693D01*
X012247Y000835D01*
X012247Y000989D01*
X012188Y001132D01*
X012080Y001240D01*
X011937Y001299D01*
X011783Y001299D01*
X011641Y001240D01*
X011532Y001132D01*
X011473Y000989D01*
X011473Y000988D01*
X011322Y001892D01*
X011309Y002004D01*
X011056Y004678D01*
X011101Y004633D01*
X011244Y004574D01*
X011398Y004574D01*
X011540Y004633D01*
X011649Y004742D01*
X011708Y004884D01*
X011708Y005038D01*
X011649Y005180D01*
X011540Y005289D01*
X011398Y005348D01*
X011244Y005348D01*
X011101Y005289D01*
X011008Y005195D01*
X010927Y006048D01*
X010919Y006173D01*
X010903Y007972D01*
X010933Y007942D01*
X011075Y007883D01*
X011229Y007883D01*
X011372Y007942D01*
X011481Y008051D01*
X011540Y008194D01*
X011540Y008348D01*
X011481Y008490D01*
X011372Y008599D01*
X011229Y008658D01*
X011075Y008658D01*
X010933Y008599D01*
X010911Y008577D01*
X011006Y010530D01*
X011078Y011212D01*
X011164Y011126D01*
X011307Y011067D01*
X011461Y011067D01*
X011603Y011126D01*
X011712Y011235D01*
X011771Y011378D01*
X011771Y011474D01*
X013130Y011459D01*
X013138Y011455D01*
X013147Y011458D01*
X013211Y011458D01*
X013265Y011457D01*
X013266Y011457D01*
X013267Y011457D01*
X013318Y011477D01*
X013369Y011497D01*
X013370Y011498D01*
X013371Y011499D01*
X013410Y011537D01*
X013449Y011574D01*
X013450Y011576D01*
X013450Y011576D01*
X013472Y011627D01*
X014151Y013180D01*
X014155Y013184D01*
X014174Y013231D01*
X014194Y013277D01*
X014194Y013282D01*
X014196Y013288D01*
X014195Y013338D01*
X014196Y013388D01*
X014194Y013393D01*
X014194Y013399D01*
X014174Y013445D01*
X014155Y013492D01*
X014151Y013496D01*
X014149Y013501D01*
X014113Y013536D01*
X014078Y013572D01*
X014073Y013574D01*
X014069Y013578D01*
X014022Y013596D01*
X013976Y013617D01*
X013970Y013617D01*
X013619Y013754D01*
X015282Y018348D01*
X015315Y018438D01*
X017415Y019038D01*
X017614Y018810D01*
X019310Y016609D01*
X019514Y016367D01*
X019418Y016367D01*
X019276Y016308D01*
X019167Y016199D01*
X019108Y016056D01*
X019108Y015902D01*
X019167Y015760D01*
X019276Y015651D01*
X019418Y015592D01*
X019572Y015592D01*
X019714Y015651D01*
X019823Y015760D01*
X019882Y015902D01*
X019882Y015930D01*
X020356Y015368D01*
X020257Y015327D01*
X020148Y015218D01*
X020089Y015075D01*
X020089Y014921D01*
X020148Y014779D01*
X020257Y014670D01*
X020399Y014611D01*
X020553Y014611D01*
X020696Y014670D01*
X020804Y014779D01*
X020820Y014817D01*
X021187Y014381D01*
X021547Y013990D01*
X021513Y013990D01*
X021371Y013931D01*
X021262Y013823D01*
X021203Y013680D01*
X021203Y013526D01*
X021262Y013384D01*
X021371Y013275D01*
X021513Y013216D01*
X021667Y013216D01*
X021809Y013275D01*
X021918Y013384D01*
X021976Y013524D01*
X022558Y012891D01*
X022553Y012891D01*
X022411Y012832D01*
X022302Y012723D01*
X022243Y012581D01*
X022243Y012427D01*
X022302Y012285D01*
X022411Y012176D01*
X022553Y012117D01*
X022707Y012117D01*
X022849Y012176D01*
X022958Y012285D01*
X023007Y012403D01*
X023159Y012238D01*
X024222Y011179D01*
X024114Y011071D01*
X024055Y010928D01*
X024055Y010774D01*
X024114Y010632D01*
X024223Y010523D01*
X024366Y010464D01*
X024520Y010464D01*
X024662Y010523D01*
X024771Y010632D01*
X024771Y010632D01*
X025223Y010182D01*
X025443Y009981D01*
X025142Y009981D01*
X024896Y009735D01*
X024896Y009387D01*
X025142Y009141D01*
X025490Y009141D01*
X025575Y009226D01*
X025556Y009181D01*
X025556Y009027D01*
X025615Y008885D01*
X025724Y008776D01*
X025866Y008717D01*
X026020Y008717D01*
X026162Y008776D01*
X026271Y008885D01*
X026330Y009027D01*
X026330Y009172D01*
X027069Y008497D01*
X026855Y008497D01*
X026609Y008251D01*
X026609Y007903D01*
X026855Y007657D01*
X027203Y007657D01*
X027311Y007766D01*
X027290Y007714D01*
X027290Y007560D01*
X027349Y007418D01*
X027458Y007309D01*
X027600Y007250D01*
X027754Y007250D01*
X027896Y007309D01*
X028005Y007418D01*
X028064Y007560D01*
X028064Y007642D01*
X028484Y007292D01*
X028636Y007145D01*
X028636Y007144D01*
X028677Y007105D01*
X028678Y007104D01*
X028769Y007003D01*
X028900Y006767D01*
X028955Y006502D01*
X028929Y006232D01*
X028895Y006130D01*
X028836Y006272D01*
X028727Y006381D01*
X028585Y006440D01*
X028431Y006440D01*
X028289Y006381D01*
X028180Y006272D01*
X028121Y006130D01*
X028121Y005976D01*
X028180Y005833D01*
X028289Y005724D01*
X028431Y005665D01*
X028585Y005665D01*
X028727Y005724D01*
X027055Y001731D01*
X027055Y001799D01*
X026996Y001941D01*
X026887Y002050D01*
X026745Y002109D01*
X026591Y002109D01*
X026449Y002050D01*
X026340Y001941D01*
X026281Y001799D01*
X026281Y001645D01*
X026340Y001503D01*
X026449Y001394D01*
X026591Y001335D01*
X026745Y001335D01*
X026887Y001394D01*
X026933Y001439D01*
X026765Y001037D01*
X026763Y001034D01*
X026730Y001006D01*
X026689Y000992D01*
X026646Y000994D01*
X026606Y001012D01*
X026591Y001026D01*
X024076Y003929D01*
X024072Y003939D01*
X024038Y003972D01*
X024007Y004008D01*
X023998Y004013D01*
X023833Y004178D01*
X023352Y004465D01*
X022815Y004626D01*
X022286Y004650D01*
X022315Y004720D01*
X022315Y004874D01*
X022262Y005000D01*
X022867Y004998D01*
X022915Y004998D01*
X022962Y004998D01*
X022963Y004998D01*
X023006Y005016D01*
X023050Y005034D01*
X023050Y005034D01*
X023051Y005034D01*
X023084Y005068D01*
X023118Y005101D01*
X023118Y005102D01*
X023918Y005902D01*
X023955Y005990D01*
X023955Y007242D01*
X024451Y007765D01*
X024482Y007794D01*
X024484Y007799D01*
X024488Y007803D01*
X024503Y007843D01*
X024520Y007881D01*
X024520Y007887D01*
X024522Y007893D01*
X024521Y007935D01*
X024548Y009199D01*
X024736Y009387D01*
X024736Y009735D01*
X024490Y009981D01*
X024142Y009981D01*
X023896Y009735D01*
X023896Y009387D01*
X024068Y009214D01*
X024043Y008032D01*
X023543Y007505D01*
X023511Y007474D01*
X023510Y007471D01*
X023508Y007468D01*
X023492Y007427D01*
X023475Y007385D01*
X021213Y007385D01*
X021193Y007405D02*
X021077Y007453D01*
X020952Y007453D01*
X020836Y007405D01*
X020789Y007358D01*
X019409Y007358D01*
X018720Y008078D01*
X018721Y008501D01*
X018756Y008487D01*
X018881Y008487D01*
X018997Y008535D01*
X019085Y008623D01*
X019103Y008667D01*
X019148Y008559D01*
X019236Y008471D01*
X019352Y008423D01*
X019477Y008423D01*
X019593Y008471D01*
X019665Y008542D01*
X019736Y008471D01*
X019852Y008423D01*
X019977Y008423D01*
X020093Y008471D01*
X020182Y008559D01*
X020230Y008675D01*
X020230Y008800D01*
X020182Y008916D01*
X020168Y008930D01*
X020505Y009098D01*
X020505Y008973D01*
X020448Y008916D01*
X020400Y008800D01*
X020400Y008675D01*
X020448Y008559D01*
X020536Y008471D01*
X020652Y008423D01*
X020777Y008423D01*
X020893Y008471D01*
X020982Y008559D01*
X021030Y008675D01*
X021030Y008800D01*
X020982Y008916D01*
X020925Y008973D01*
X020925Y011435D01*
X021085Y011435D01*
X021179Y011529D01*
X021179Y012621D01*
X021186Y012621D01*
X021236Y012571D01*
X021339Y012528D01*
X021339Y012165D01*
X021689Y012165D01*
X021689Y012675D01*
X021730Y012775D01*
X021730Y012900D01*
X021682Y013016D01*
X021593Y013105D01*
X021477Y013153D01*
X021352Y013153D01*
X021236Y013105D01*
X021173Y013041D01*
X020530Y013041D01*
X020447Y013045D01*
X020443Y013041D01*
X020438Y013041D01*
X020380Y012983D01*
X020233Y012848D01*
X020228Y012848D01*
X020169Y012789D01*
X020109Y012733D01*
X020108Y012728D01*
X020105Y012725D01*
X020105Y012642D01*
X020101Y012560D01*
X020105Y012556D01*
X020105Y011451D01*
X020228Y011328D01*
X020305Y011251D01*
X020305Y009468D01*
X019865Y009248D01*
X019828Y009248D01*
X019790Y009210D01*
X019743Y009187D01*
X019731Y009151D01*
X019705Y009125D01*
X019705Y009072D01*
X019688Y009022D01*
X019705Y008988D01*
X019705Y008973D01*
X019665Y008933D01*
X019615Y008983D01*
X019614Y009016D01*
X019613Y009099D01*
X019610Y009103D01*
X019610Y009107D01*
X019549Y009163D01*
X019262Y009449D01*
X019267Y012938D01*
X019279Y013012D01*
X019268Y013027D01*
X019268Y013045D01*
X019215Y013098D01*
X019181Y013144D01*
X019312Y013144D01*
X019405Y013238D01*
X019405Y014371D01*
X019312Y014464D01*
X018679Y014464D01*
X018585Y014371D01*
X018585Y014119D01*
X018571Y014125D01*
X018446Y014125D01*
X018396Y014104D01*
X018394Y016524D01*
X018398Y016564D01*
X018394Y016579D01*
X018394Y016595D01*
X018378Y016632D01*
X018367Y016671D01*
X018357Y016683D01*
X018351Y016698D01*
X018323Y016726D01*
X018105Y016998D01*
X018105Y017526D01*
X018140Y017610D01*
X018140Y017736D01*
X018092Y017851D01*
X018004Y017940D01*
X017888Y017988D01*
X017763Y017988D01*
X017647Y017940D01*
X017558Y017851D01*
X017510Y017736D01*
X017510Y017610D01*
X017545Y017526D01*
X017545Y016915D01*
X017541Y016875D01*
X017545Y016860D01*
X017545Y016844D01*
X017561Y016807D01*
X017572Y016768D01*
X017582Y016756D01*
X017588Y016741D01*
X017616Y016713D01*
X017834Y016441D01*
X017834Y015964D01*
X017561Y016248D01*
X017560Y016251D01*
X017523Y016288D01*
X017486Y016327D01*
X017484Y016328D01*
X017482Y016330D01*
X017433Y016350D01*
X017384Y016371D01*
X017381Y016371D01*
X017379Y016372D01*
X017326Y016373D01*
X017273Y016374D01*
X017270Y016373D01*
X016827Y016373D01*
X016741Y016409D01*
X016616Y016409D01*
X016500Y016361D01*
X016412Y016272D01*
X016364Y016156D01*
X016364Y016031D01*
X016412Y015915D01*
X016500Y015827D01*
X016616Y015779D01*
X016741Y015779D01*
X016825Y015813D01*
X017203Y015813D01*
X017457Y015548D01*
X017435Y009254D01*
X017099Y008918D01*
X014359Y008918D01*
X014256Y008875D01*
X014056Y008675D01*
X013977Y008596D01*
X013935Y008493D01*
X013935Y007886D01*
X013931Y007842D01*
X013935Y007831D01*
X013935Y007819D01*
X013952Y007778D01*
X013965Y007736D01*
X013973Y007727D01*
X013977Y007716D01*
X014009Y007685D01*
X014173Y007490D01*
X014177Y007479D01*
X014209Y007448D01*
X014237Y007414D01*
X014248Y007409D01*
X014256Y007400D01*
X014297Y007384D01*
X014336Y007363D01*
X014348Y007362D01*
X014359Y007358D01*
X014403Y007358D01*
X014447Y007354D01*
X014458Y007358D01*
X015407Y007358D01*
X015609Y007176D01*
X015609Y007154D01*
X015175Y007154D01*
X015175Y006804D01*
X015055Y006804D01*
X015055Y006684D01*
X015175Y006684D01*
X015175Y006334D01*
X015609Y006334D01*
X015609Y006202D01*
X015608Y006199D01*
X015609Y006146D01*
X015609Y006093D01*
X015610Y006091D01*
X015610Y006088D01*
X015631Y006039D01*
X015651Y005991D01*
X015654Y005988D01*
X015655Y005986D01*
X015693Y005949D01*
X015730Y005912D01*
X015733Y005911D01*
X017329Y004377D01*
X015743Y004381D01*
X015698Y004382D01*
X015696Y004381D01*
X015693Y004381D01*
X015651Y004364D01*
X015609Y004347D01*
X015607Y004345D01*
X015605Y004345D01*
X015573Y004313D01*
X015081Y003842D01*
X015079Y003841D01*
X015047Y003809D01*
X015014Y003778D01*
X015013Y003776D01*
X015011Y003774D01*
X014994Y003732D01*
X014976Y003691D01*
X014976Y003688D01*
X014975Y003685D01*
X014975Y003640D01*
X014974Y003595D01*
X014975Y003593D01*
X013680Y003593D01*
X013680Y003711D02*
X014985Y003711D01*
X014975Y003593D02*
X014975Y002937D01*
X014715Y002678D01*
X014464Y002678D01*
X014290Y002852D01*
X014290Y003184D01*
X014012Y003463D01*
X013680Y003463D01*
X013680Y003713D01*
X013992Y003713D01*
X014270Y003991D01*
X014270Y004384D01*
X013992Y004663D01*
X013660Y004663D01*
X013660Y004748D01*
X013215Y004748D01*
X013215Y004808D01*
X013155Y004808D01*
X013155Y005253D01*
X012988Y005253D01*
X012755Y005019D01*
X012755Y009249D01*
X013825Y010498D01*
X015109Y010498D01*
X015136Y010471D01*
X015252Y010423D01*
X015377Y010423D01*
X015493Y010471D01*
X015582Y010559D01*
X015630Y010675D01*
X015630Y010800D01*
X015582Y010916D01*
X015493Y011005D01*
X015377Y011053D01*
X015252Y011053D01*
X015136Y011005D01*
X015109Y010978D01*
X013753Y010978D01*
X013744Y010981D01*
X013706Y010978D01*
X013667Y010978D01*
X013658Y010974D01*
X013649Y010973D01*
X013614Y010956D01*
X013579Y010941D01*
X013572Y010934D01*
X013564Y010930D01*
X013539Y010901D01*
X013511Y010874D01*
X013508Y010865D01*
X012339Y009501D01*
X012311Y009474D01*
X012308Y009465D01*
X012302Y009458D01*
X012290Y009421D01*
X012275Y009385D01*
X012275Y009376D01*
X012272Y009367D01*
X012275Y009329D01*
X012275Y003658D01*
X012270Y003630D01*
X012275Y003610D01*
X012275Y003590D01*
X012285Y003564D01*
X012292Y003537D01*
X012304Y003521D01*
X012311Y003502D01*
X012331Y003482D01*
X012804Y002821D01*
X012811Y002802D01*
X012831Y002782D01*
X012847Y002759D01*
X012865Y002749D01*
X012874Y002739D01*
X012730Y002594D01*
X012730Y002201D01*
X013008Y001923D01*
X013402Y001923D01*
X013680Y002201D01*
X013680Y002513D01*
X013950Y002513D01*
X014229Y002234D01*
X014317Y002198D01*
X014625Y002198D01*
X014577Y002083D01*
X014577Y001929D01*
X014636Y001787D01*
X014745Y001678D01*
X014784Y001578D02*
X011375Y001578D01*
X011394Y001460D02*
X014505Y001460D01*
X014227Y001341D02*
X011414Y001341D01*
X011434Y001223D02*
X011623Y001223D01*
X011521Y001104D02*
X011454Y001104D01*
X012097Y001223D02*
X013948Y001223D01*
X013669Y001104D02*
X012200Y001104D01*
X012247Y000986D02*
X013390Y000986D01*
X013112Y000867D02*
X012247Y000867D01*
X012212Y000749D02*
X012833Y000749D01*
X012554Y000630D02*
X012126Y000630D01*
X012266Y000512D02*
X011831Y000512D01*
X011335Y001815D02*
X014624Y001815D01*
X014577Y001934D02*
X013413Y001934D01*
X013531Y002052D02*
X014577Y002052D01*
X014614Y002171D02*
X013650Y002171D01*
X013680Y002289D02*
X014174Y002289D01*
X014055Y002408D02*
X013680Y002408D01*
X014290Y002882D02*
X014919Y002882D01*
X014975Y003000D02*
X014290Y003000D01*
X014290Y003119D02*
X014975Y003119D01*
X014975Y003237D02*
X014237Y003237D01*
X014119Y003356D02*
X014975Y003356D01*
X014975Y003474D02*
X013680Y003474D01*
X014109Y003830D02*
X015067Y003830D01*
X015192Y003948D02*
X014227Y003948D01*
X014270Y004067D02*
X015316Y004067D01*
X015440Y004185D02*
X014270Y004185D01*
X014270Y004304D02*
X015564Y004304D01*
X016665Y005015D02*
X013620Y005015D01*
X013660Y004974D02*
X013382Y005253D01*
X013215Y005253D01*
X013215Y004808D01*
X013660Y004808D01*
X013660Y004974D01*
X013660Y004896D02*
X016789Y004896D01*
X016912Y004778D02*
X013215Y004778D01*
X013185Y004778D02*
X013315Y004908D01*
X013315Y006538D01*
X013515Y006738D02*
X013615Y006738D01*
X013621Y006744D01*
X014455Y006684D02*
X014455Y006473D01*
X014466Y006433D01*
X014487Y006396D01*
X014517Y006366D01*
X014553Y006345D01*
X014594Y006334D01*
X015055Y006334D01*
X015055Y006684D01*
X014455Y006684D01*
X014455Y006674D02*
X012755Y006674D01*
X012755Y006792D02*
X015055Y006792D01*
X015055Y006804D02*
X014455Y006804D01*
X014455Y007015D01*
X014466Y007056D01*
X014487Y007093D01*
X014517Y007122D01*
X014553Y007143D01*
X014594Y007154D01*
X015055Y007154D01*
X015055Y006804D01*
X015055Y006911D02*
X015175Y006911D01*
X015175Y007029D02*
X015055Y007029D01*
X015055Y007148D02*
X015175Y007148D01*
X015509Y007266D02*
X012755Y007266D01*
X012755Y007148D02*
X014569Y007148D01*
X014459Y007029D02*
X012755Y007029D01*
X012755Y006911D02*
X014455Y006911D01*
X015055Y006674D02*
X015175Y006674D01*
X015175Y006555D02*
X015055Y006555D01*
X015055Y006437D02*
X015175Y006437D01*
X015609Y006318D02*
X012755Y006318D01*
X012755Y006200D02*
X015608Y006200D01*
X015613Y006081D02*
X012755Y006081D01*
X012755Y005963D02*
X015679Y005963D01*
X015802Y005844D02*
X012755Y005844D01*
X012755Y005726D02*
X015925Y005726D01*
X016049Y005607D02*
X012755Y005607D01*
X012755Y005489D02*
X016172Y005489D01*
X016295Y005370D02*
X012755Y005370D01*
X012755Y005252D02*
X012987Y005252D01*
X012869Y005133D02*
X012755Y005133D01*
X013155Y005133D02*
X013215Y005133D01*
X013215Y005015D02*
X013155Y005015D01*
X013155Y004896D02*
X013215Y004896D01*
X013215Y004748D02*
X013155Y004748D01*
X013155Y004303D01*
X012988Y004303D01*
X012755Y004536D01*
X012755Y003809D01*
X013008Y004063D01*
X013320Y004063D01*
X013320Y004303D01*
X013215Y004303D01*
X013215Y004748D01*
X013215Y004659D02*
X013155Y004659D01*
X013155Y004541D02*
X013215Y004541D01*
X013215Y004422D02*
X013155Y004422D01*
X013155Y004304D02*
X013215Y004304D01*
X013320Y004185D02*
X012755Y004185D01*
X012755Y004067D02*
X013320Y004067D01*
X012987Y004304D02*
X012755Y004304D01*
X012755Y004422D02*
X012869Y004422D01*
X012894Y003948D02*
X012755Y003948D01*
X012755Y003830D02*
X012775Y003830D01*
X012275Y003830D02*
X011136Y003830D01*
X011125Y003948D02*
X012275Y003948D01*
X012275Y004067D02*
X011114Y004067D01*
X011103Y004185D02*
X012275Y004185D01*
X012275Y004304D02*
X011092Y004304D01*
X011080Y004422D02*
X012275Y004422D01*
X012275Y004541D02*
X011069Y004541D01*
X011058Y004659D02*
X011075Y004659D01*
X011566Y004659D02*
X012275Y004659D01*
X012275Y004778D02*
X011664Y004778D01*
X011708Y004896D02*
X012275Y004896D01*
X012275Y005015D02*
X011708Y005015D01*
X011668Y005133D02*
X012275Y005133D01*
X012275Y005252D02*
X011577Y005252D01*
X010991Y005370D02*
X012275Y005370D01*
X012275Y005489D02*
X010980Y005489D01*
X010969Y005607D02*
X012275Y005607D01*
X012275Y005726D02*
X010957Y005726D01*
X010946Y005844D02*
X012275Y005844D01*
X012275Y005963D02*
X010935Y005963D01*
X010925Y006081D02*
X012275Y006081D01*
X012275Y006200D02*
X010919Y006200D01*
X010918Y006318D02*
X012275Y006318D01*
X012275Y006437D02*
X010917Y006437D01*
X010916Y006555D02*
X012275Y006555D01*
X012275Y006674D02*
X010915Y006674D01*
X010914Y006792D02*
X012275Y006792D01*
X012275Y006911D02*
X010913Y006911D01*
X010911Y007029D02*
X012275Y007029D01*
X012275Y007148D02*
X010910Y007148D01*
X010909Y007266D02*
X012275Y007266D01*
X012275Y007385D02*
X010908Y007385D01*
X010907Y007503D02*
X012275Y007503D01*
X012275Y007622D02*
X010906Y007622D01*
X010905Y007740D02*
X012275Y007740D01*
X012275Y007859D02*
X010904Y007859D01*
X011407Y007977D02*
X012275Y007977D01*
X012275Y008096D02*
X011499Y008096D01*
X011540Y008214D02*
X012275Y008214D01*
X012275Y008333D02*
X011540Y008333D01*
X011497Y008451D02*
X012275Y008451D01*
X012275Y008570D02*
X011401Y008570D01*
X010916Y008688D02*
X012275Y008688D01*
X012275Y008807D02*
X010922Y008807D01*
X010928Y008925D02*
X012275Y008925D01*
X012275Y009044D02*
X010934Y009044D01*
X010939Y009162D02*
X012275Y009162D01*
X012275Y009281D02*
X010945Y009281D01*
X010951Y009399D02*
X012281Y009399D01*
X012353Y009518D02*
X010957Y009518D01*
X010963Y009636D02*
X012455Y009636D01*
X012556Y009755D02*
X010968Y009755D01*
X010974Y009873D02*
X012658Y009873D01*
X012759Y009992D02*
X010980Y009992D01*
X010986Y010110D02*
X012861Y010110D01*
X012962Y010229D02*
X010991Y010229D01*
X010997Y010347D02*
X013064Y010347D01*
X013166Y010466D02*
X011003Y010466D01*
X011012Y010584D02*
X013267Y010584D01*
X013369Y010703D02*
X011024Y010703D01*
X011037Y010821D02*
X013470Y010821D01*
X013577Y010940D02*
X011050Y010940D01*
X011062Y011058D02*
X017442Y011058D01*
X017441Y010940D02*
X015558Y010940D01*
X015621Y010821D02*
X017441Y010821D01*
X017440Y010703D02*
X015630Y010703D01*
X015592Y010584D02*
X017440Y010584D01*
X017439Y010466D02*
X015481Y010466D01*
X015148Y010466D02*
X013798Y010466D01*
X013696Y010347D02*
X017439Y010347D01*
X017439Y010229D02*
X013595Y010229D01*
X013493Y010110D02*
X017438Y010110D01*
X017438Y009992D02*
X013392Y009992D01*
X013290Y009873D02*
X017437Y009873D01*
X017437Y009755D02*
X013188Y009755D01*
X013087Y009636D02*
X017437Y009636D01*
X017436Y009518D02*
X012985Y009518D01*
X012884Y009399D02*
X017436Y009399D01*
X017435Y009281D02*
X012782Y009281D01*
X012755Y009162D02*
X017343Y009162D01*
X017225Y009044D02*
X012755Y009044D01*
X012755Y008925D02*
X017106Y008925D01*
X017543Y008570D02*
X017892Y008570D01*
X017852Y008610D02*
X017941Y008521D01*
X018057Y008473D01*
X018182Y008473D01*
X018281Y008514D01*
X018279Y007993D01*
X018277Y007903D01*
X018279Y007902D01*
X018279Y007899D01*
X018342Y007836D01*
X019095Y007049D01*
X019095Y007047D01*
X019158Y006984D01*
X019219Y006920D01*
X019222Y006920D01*
X019224Y006918D01*
X019312Y006918D01*
X019401Y006916D01*
X019403Y006918D01*
X020789Y006918D01*
X020836Y006871D01*
X020952Y006823D01*
X021077Y006823D01*
X021193Y006871D01*
X021282Y006959D01*
X021330Y007075D01*
X021330Y007200D01*
X021282Y007316D01*
X021193Y007405D01*
X021303Y007266D02*
X023475Y007266D01*
X023475Y007335D02*
X023475Y006137D01*
X022816Y005478D01*
X020863Y005484D01*
X020869Y005490D01*
X020882Y005520D01*
X020899Y005547D01*
X020903Y005571D01*
X020912Y005593D01*
X020912Y005625D01*
X020918Y005657D01*
X020913Y005681D01*
X020914Y006263D01*
X020949Y006349D01*
X020949Y006474D01*
X020902Y006590D01*
X020813Y006678D01*
X020697Y006726D01*
X020572Y006726D01*
X020456Y006678D01*
X020367Y006590D01*
X020319Y006474D01*
X020319Y006349D01*
X020354Y006265D01*
X020353Y005795D01*
X019499Y005191D01*
X017834Y005191D01*
X017067Y005967D01*
X016595Y006452D01*
X016595Y007519D01*
X016600Y007556D01*
X016595Y007575D01*
X016595Y007593D01*
X016581Y007628D01*
X016571Y007664D01*
X016559Y007679D01*
X016552Y007696D01*
X016526Y007723D01*
X016099Y008279D01*
X016092Y008296D01*
X016066Y008323D01*
X016043Y008352D01*
X016034Y008358D01*
X017271Y008358D01*
X017373Y008400D01*
X017452Y008479D01*
X017804Y008831D01*
X017804Y008725D01*
X017852Y008610D01*
X017820Y008688D02*
X017661Y008688D01*
X017780Y008807D02*
X017804Y008807D01*
X017424Y008451D02*
X018281Y008451D01*
X018281Y008333D02*
X016058Y008333D01*
X016149Y008214D02*
X018280Y008214D01*
X018280Y008096D02*
X017802Y008096D01*
X017820Y008078D02*
X017732Y008166D01*
X017616Y008214D01*
X017491Y008214D01*
X017375Y008166D01*
X017286Y008078D01*
X017238Y007962D01*
X017238Y007837D01*
X017286Y007721D01*
X017375Y007632D01*
X017491Y007584D01*
X017571Y007584D01*
X018118Y007037D01*
X018121Y007019D01*
X018178Y006977D01*
X018228Y006928D01*
X018247Y006928D01*
X019427Y006075D01*
X019427Y006043D01*
X019475Y005928D01*
X019564Y005839D01*
X019679Y005791D01*
X019805Y005791D01*
X019920Y005839D01*
X020009Y005928D01*
X020057Y006043D01*
X020057Y006169D01*
X020009Y006285D01*
X019920Y006373D01*
X019805Y006421D01*
X019679Y006421D01*
X019670Y006417D01*
X018451Y007298D01*
X017868Y007881D01*
X017868Y007962D01*
X017820Y008078D01*
X017862Y007977D02*
X018279Y007977D01*
X018319Y007859D02*
X017891Y007859D01*
X018009Y007740D02*
X018434Y007740D01*
X018547Y007622D02*
X018128Y007622D01*
X018246Y007503D02*
X018660Y007503D01*
X018774Y007385D02*
X018365Y007385D01*
X018496Y007266D02*
X018887Y007266D01*
X019001Y007148D02*
X018659Y007148D01*
X018823Y007029D02*
X019112Y007029D01*
X018987Y006911D02*
X020796Y006911D01*
X020818Y006674D02*
X023475Y006674D01*
X023475Y006792D02*
X019151Y006792D01*
X019315Y006674D02*
X020451Y006674D01*
X020353Y006555D02*
X019479Y006555D01*
X019643Y006437D02*
X020319Y006437D01*
X020332Y006318D02*
X019975Y006318D01*
X020044Y006200D02*
X020354Y006200D01*
X020354Y006081D02*
X020057Y006081D01*
X020024Y005963D02*
X020353Y005963D01*
X020353Y005844D02*
X019926Y005844D01*
X020088Y005607D02*
X017423Y005607D01*
X017540Y005489D02*
X019920Y005489D01*
X019753Y005370D02*
X017657Y005370D01*
X017774Y005252D02*
X019585Y005252D01*
X019558Y005844D02*
X017188Y005844D01*
X017071Y005963D02*
X019460Y005963D01*
X019418Y006081D02*
X016956Y006081D01*
X016840Y006200D02*
X019254Y006200D01*
X019090Y006318D02*
X016725Y006318D01*
X016609Y006437D02*
X018926Y006437D01*
X018762Y006555D02*
X016595Y006555D01*
X016595Y006674D02*
X018598Y006674D01*
X018434Y006792D02*
X016595Y006792D01*
X016595Y006911D02*
X018270Y006911D01*
X018120Y007029D02*
X016595Y007029D01*
X016595Y007148D02*
X018008Y007148D01*
X017889Y007266D02*
X016595Y007266D01*
X016595Y007385D02*
X017771Y007385D01*
X017652Y007503D02*
X016595Y007503D01*
X016583Y007622D02*
X017400Y007622D01*
X017278Y007740D02*
X016512Y007740D01*
X016422Y007859D02*
X017238Y007859D01*
X017245Y007977D02*
X016331Y007977D01*
X016240Y008096D02*
X017304Y008096D01*
X018499Y007990D02*
X019315Y007138D01*
X021015Y007138D01*
X021330Y007148D02*
X023475Y007148D01*
X023475Y007029D02*
X021311Y007029D01*
X021233Y006911D02*
X023475Y006911D01*
X023955Y006911D02*
X028820Y006911D01*
X028886Y006792D02*
X023955Y006792D01*
X023955Y006674D02*
X028919Y006674D01*
X028944Y006555D02*
X023955Y006555D01*
X023955Y006437D02*
X028424Y006437D01*
X028592Y006437D02*
X028949Y006437D01*
X028937Y006318D02*
X028790Y006318D01*
X028866Y006200D02*
X028918Y006200D01*
X028226Y006318D02*
X023955Y006318D01*
X023955Y006200D02*
X028150Y006200D01*
X028121Y006081D02*
X023955Y006081D01*
X023944Y005963D02*
X028126Y005963D01*
X028175Y005844D02*
X023861Y005844D01*
X023742Y005726D02*
X028287Y005726D01*
X028678Y005607D02*
X023624Y005607D01*
X023505Y005489D02*
X028629Y005489D01*
X028579Y005370D02*
X023387Y005370D01*
X023268Y005252D02*
X028529Y005252D01*
X028480Y005133D02*
X023150Y005133D01*
X023004Y005015D02*
X028430Y005015D01*
X028381Y004896D02*
X022305Y004896D01*
X022315Y004778D02*
X028331Y004778D01*
X028281Y004659D02*
X022290Y004659D01*
X022815Y004626D02*
X022815Y004626D01*
X023100Y004541D02*
X028232Y004541D01*
X028182Y004422D02*
X023424Y004422D01*
X023352Y004465D02*
X023352Y004465D01*
X023622Y004304D02*
X028132Y004304D01*
X028083Y004185D02*
X024894Y004185D01*
X024956Y004160D02*
X024814Y004219D01*
X024660Y004219D01*
X024517Y004160D01*
X024409Y004051D01*
X024350Y003908D01*
X024350Y003754D01*
X024409Y003612D01*
X024517Y003503D01*
X024660Y003444D01*
X024814Y003444D01*
X024956Y003503D01*
X025065Y003612D01*
X025124Y003754D01*
X025124Y003908D01*
X025065Y004051D01*
X024956Y004160D01*
X025049Y004067D02*
X027352Y004067D01*
X027378Y004078D02*
X027236Y004019D01*
X027127Y003910D01*
X027068Y003767D01*
X027068Y003613D01*
X027127Y003471D01*
X027236Y003362D01*
X027378Y003303D01*
X027532Y003303D01*
X027675Y003362D01*
X027784Y003471D01*
X027843Y003613D01*
X027843Y003767D01*
X027784Y003910D01*
X027675Y004019D01*
X027532Y004078D01*
X027378Y004078D01*
X027559Y004067D02*
X028033Y004067D01*
X027984Y003948D02*
X027745Y003948D01*
X027817Y003830D02*
X027934Y003830D01*
X027884Y003711D02*
X027843Y003711D01*
X027834Y003593D02*
X027835Y003593D01*
X027785Y003474D02*
X027785Y003474D01*
X027735Y003356D02*
X027659Y003356D01*
X027686Y003237D02*
X024675Y003237D01*
X024778Y003119D02*
X027636Y003119D01*
X027587Y003000D02*
X024881Y003000D01*
X024983Y002882D02*
X027537Y002882D01*
X027487Y002763D02*
X025086Y002763D01*
X025189Y002645D02*
X027438Y002645D01*
X027388Y002526D02*
X025291Y002526D01*
X025394Y002408D02*
X027339Y002408D01*
X027289Y002289D02*
X025497Y002289D01*
X025599Y002171D02*
X027239Y002171D01*
X027190Y002052D02*
X026882Y002052D01*
X026999Y001934D02*
X027140Y001934D01*
X027090Y001815D02*
X027048Y001815D01*
X026454Y002052D02*
X025702Y002052D01*
X025805Y001934D02*
X026337Y001934D01*
X026288Y001815D02*
X025907Y001815D01*
X026010Y001697D02*
X026281Y001697D01*
X026308Y001578D02*
X026113Y001578D01*
X026215Y001460D02*
X026383Y001460D01*
X026318Y001341D02*
X026575Y001341D01*
X026761Y001341D02*
X026892Y001341D01*
X026842Y001223D02*
X026420Y001223D01*
X026523Y001104D02*
X026793Y001104D01*
X027252Y003356D02*
X024573Y003356D01*
X024587Y003474D02*
X024470Y003474D01*
X024428Y003593D02*
X024367Y003593D01*
X024367Y003711D02*
X024265Y003711D01*
X024350Y003830D02*
X024162Y003830D01*
X024062Y003948D02*
X024366Y003948D01*
X024425Y004067D02*
X023944Y004067D01*
X023833Y004178D02*
X023833Y004178D01*
X023820Y004185D02*
X024579Y004185D01*
X025107Y003948D02*
X027166Y003948D01*
X027094Y003830D02*
X025124Y003830D01*
X025106Y003711D02*
X027068Y003711D01*
X027077Y003593D02*
X025046Y003593D01*
X024886Y003474D02*
X027126Y003474D01*
X023182Y005844D02*
X020913Y005844D01*
X020913Y005726D02*
X023063Y005726D01*
X022945Y005607D02*
X020912Y005607D01*
X020868Y005489D02*
X022826Y005489D01*
X022867Y004998D02*
X022867Y004998D01*
X022962Y004998D02*
X022962Y004998D01*
X023300Y005963D02*
X020913Y005963D01*
X020914Y006081D02*
X023419Y006081D01*
X023475Y006200D02*
X020914Y006200D01*
X020937Y006318D02*
X023475Y006318D01*
X023475Y006437D02*
X020949Y006437D01*
X020916Y006555D02*
X023475Y006555D01*
X023955Y007029D02*
X028745Y007029D01*
X028633Y007148D02*
X023955Y007148D01*
X023978Y007266D02*
X027560Y007266D01*
X027382Y007385D02*
X024090Y007385D01*
X024203Y007503D02*
X027313Y007503D01*
X027290Y007622D02*
X024315Y007622D01*
X024428Y007740D02*
X025772Y007740D01*
X025855Y007657D02*
X026009Y007657D01*
X026009Y008057D01*
X026049Y008057D01*
X026049Y007657D01*
X026203Y007657D01*
X026449Y007903D01*
X026449Y008057D01*
X026049Y008057D01*
X026049Y008097D01*
X026449Y008097D01*
X026449Y008251D01*
X026203Y008497D01*
X026049Y008497D01*
X026049Y008097D01*
X026009Y008097D01*
X026009Y008057D01*
X025609Y008057D01*
X025609Y007903D01*
X025855Y007657D01*
X026009Y007740D02*
X026049Y007740D01*
X026049Y007859D02*
X026009Y007859D01*
X026009Y007977D02*
X026049Y007977D01*
X026029Y008077D02*
X025915Y007948D01*
X025915Y007238D01*
X025615Y007038D01*
X024084Y007036D01*
X023475Y007335D02*
X023474Y007379D01*
X023475Y007382D01*
X023475Y007385D01*
X023541Y007503D02*
X019269Y007503D01*
X019156Y007622D02*
X023654Y007622D01*
X023766Y007740D02*
X019043Y007740D01*
X018929Y007859D02*
X023879Y007859D01*
X023991Y007977D02*
X018816Y007977D01*
X018720Y008096D02*
X024044Y008096D01*
X024047Y008214D02*
X018720Y008214D01*
X018721Y008333D02*
X024049Y008333D01*
X024052Y008451D02*
X020846Y008451D01*
X020986Y008570D02*
X024054Y008570D01*
X024057Y008688D02*
X021030Y008688D01*
X021027Y008807D02*
X024059Y008807D01*
X024062Y008925D02*
X020973Y008925D01*
X020925Y009044D02*
X024065Y009044D01*
X024067Y009162D02*
X020925Y009162D01*
X020925Y009281D02*
X024002Y009281D01*
X023896Y009399D02*
X020925Y009399D01*
X020925Y009518D02*
X023896Y009518D01*
X023896Y009636D02*
X020925Y009636D01*
X020925Y009755D02*
X022655Y009755D01*
X022663Y009751D02*
X022789Y009751D01*
X022904Y009799D01*
X022993Y009888D01*
X023041Y010004D01*
X023041Y010129D01*
X022993Y010245D01*
X022904Y010333D01*
X022789Y010381D01*
X022663Y010381D01*
X022548Y010333D01*
X022491Y010276D01*
X022121Y010276D01*
X021974Y010423D01*
X021988Y010437D01*
X022036Y010553D01*
X022036Y010678D01*
X021988Y010794D01*
X021899Y010883D01*
X021784Y010931D01*
X021658Y010931D01*
X021542Y010883D01*
X021454Y010794D01*
X021406Y010678D01*
X021406Y010553D01*
X021454Y010437D01*
X021531Y010360D01*
X021532Y010349D01*
X021532Y010271D01*
X021539Y010264D01*
X021540Y010254D01*
X021600Y010203D01*
X021824Y009979D01*
X021947Y009856D01*
X022491Y009856D01*
X022548Y009799D01*
X022663Y009751D01*
X022797Y009755D02*
X023915Y009755D01*
X024034Y009873D02*
X022979Y009873D01*
X023036Y009992D02*
X025432Y009992D01*
X025302Y010110D02*
X023041Y010110D01*
X023000Y010229D02*
X025176Y010229D01*
X025223Y010182D02*
X025223Y010182D01*
X025057Y010347D02*
X022871Y010347D01*
X022581Y010347D02*
X022050Y010347D01*
X022000Y010466D02*
X024362Y010466D01*
X024523Y010466D02*
X024938Y010466D01*
X024819Y010584D02*
X024723Y010584D01*
X024162Y010584D02*
X022036Y010584D01*
X022026Y010703D02*
X024085Y010703D01*
X024055Y010821D02*
X021961Y010821D01*
X021481Y010821D02*
X020925Y010821D01*
X020925Y010703D02*
X021416Y010703D01*
X021406Y010584D02*
X020925Y010584D01*
X020925Y010466D02*
X021442Y010466D01*
X021532Y010347D02*
X020925Y010347D01*
X020925Y010229D02*
X021570Y010229D01*
X021693Y010110D02*
X020925Y010110D01*
X020925Y009992D02*
X021811Y009992D01*
X021930Y009873D02*
X020925Y009873D01*
X020305Y009873D02*
X019263Y009873D01*
X019263Y009755D02*
X020305Y009755D01*
X020305Y009636D02*
X019263Y009636D01*
X019263Y009518D02*
X020305Y009518D01*
X020168Y009399D02*
X019312Y009399D01*
X019431Y009281D02*
X019931Y009281D01*
X019735Y009162D02*
X019550Y009162D01*
X019613Y009044D02*
X019695Y009044D01*
X019042Y009372D02*
X019047Y012954D01*
X018931Y013112D01*
X018950Y013786D01*
X018995Y013804D01*
X019405Y013784D02*
X019885Y013784D01*
X019885Y013758D02*
X019535Y013758D01*
X019535Y013297D01*
X019546Y013256D01*
X019567Y013220D01*
X019597Y013190D01*
X019633Y013169D01*
X019674Y013158D01*
X019885Y013158D01*
X019885Y013758D01*
X019885Y013878D01*
X019885Y014478D01*
X019674Y014478D01*
X019633Y014467D01*
X019597Y014446D01*
X019567Y014416D01*
X019546Y014380D01*
X019535Y014339D01*
X019535Y013878D01*
X019885Y013878D01*
X020005Y013878D01*
X020005Y014478D01*
X020216Y014478D01*
X020257Y014467D01*
X020293Y014446D01*
X020323Y014416D01*
X020344Y014380D01*
X020355Y014339D01*
X020355Y013878D01*
X020005Y013878D01*
X020005Y013758D01*
X020355Y013758D01*
X020355Y013297D01*
X020344Y013256D01*
X020323Y013220D01*
X020293Y013190D01*
X020257Y013169D01*
X020216Y013158D01*
X020005Y013158D01*
X020005Y013758D01*
X019885Y013758D01*
X019885Y013665D02*
X020005Y013665D01*
X020005Y013547D02*
X019885Y013547D01*
X019885Y013428D02*
X020005Y013428D01*
X020005Y013310D02*
X019885Y013310D01*
X019885Y013191D02*
X020005Y013191D01*
X020295Y013191D02*
X022282Y013191D01*
X022391Y013073D02*
X021625Y013073D01*
X021708Y012954D02*
X022500Y012954D01*
X022419Y012836D02*
X021730Y012836D01*
X021809Y012765D02*
X021809Y012165D01*
X022159Y012165D01*
X022159Y012626D01*
X022148Y012667D01*
X022127Y012703D01*
X022097Y012733D01*
X022060Y012754D01*
X022020Y012765D01*
X021809Y012765D01*
X021809Y012717D02*
X021706Y012717D01*
X021689Y012599D02*
X021809Y012599D01*
X021809Y012480D02*
X021689Y012480D01*
X021689Y012362D02*
X021809Y012362D01*
X021809Y012243D02*
X021689Y012243D01*
X021689Y012165D02*
X021809Y012165D01*
X021809Y012045D01*
X022159Y012045D01*
X022159Y011584D01*
X022148Y011543D01*
X022127Y011507D01*
X022097Y011477D01*
X022060Y011456D01*
X022020Y011445D01*
X021809Y011445D01*
X021809Y012045D01*
X021689Y012045D01*
X021689Y011445D01*
X021477Y011445D01*
X021437Y011456D01*
X021400Y011477D01*
X021371Y011507D01*
X021349Y011543D01*
X021339Y011584D01*
X021339Y012045D01*
X021689Y012045D01*
X021689Y012165D01*
X021689Y012125D02*
X021179Y012125D01*
X021179Y012243D02*
X021339Y012243D01*
X021339Y012362D02*
X021179Y012362D01*
X021179Y012480D02*
X021339Y012480D01*
X021208Y012599D02*
X021179Y012599D01*
X021204Y013073D02*
X019240Y013073D01*
X019270Y012954D02*
X020349Y012954D01*
X020216Y012836D02*
X019267Y012836D01*
X019267Y012717D02*
X020105Y012717D01*
X020103Y012599D02*
X019267Y012599D01*
X019267Y012480D02*
X020105Y012480D01*
X020105Y012362D02*
X019267Y012362D01*
X019266Y012243D02*
X020105Y012243D01*
X020105Y012125D02*
X019266Y012125D01*
X019266Y012006D02*
X020105Y012006D01*
X020105Y011888D02*
X019266Y011888D01*
X019266Y011769D02*
X020105Y011769D01*
X020105Y011651D02*
X019266Y011651D01*
X019265Y011532D02*
X020105Y011532D01*
X020142Y011414D02*
X019265Y011414D01*
X019265Y011295D02*
X020260Y011295D01*
X020305Y011177D02*
X019265Y011177D01*
X019265Y011058D02*
X020305Y011058D01*
X020305Y010940D02*
X019265Y010940D01*
X019264Y010821D02*
X020305Y010821D01*
X020305Y010703D02*
X019264Y010703D01*
X019264Y010584D02*
X020305Y010584D01*
X020305Y010466D02*
X019264Y010466D01*
X019264Y010347D02*
X020305Y010347D01*
X020305Y010229D02*
X019264Y010229D01*
X019263Y010110D02*
X020305Y010110D01*
X020305Y009992D02*
X019263Y009992D01*
X020396Y009044D02*
X020505Y009044D01*
X020457Y008925D02*
X020173Y008925D01*
X020227Y008807D02*
X020402Y008807D01*
X020400Y008688D02*
X020230Y008688D01*
X020186Y008570D02*
X020443Y008570D01*
X020583Y008451D02*
X020046Y008451D01*
X019783Y008451D02*
X019546Y008451D01*
X019283Y008451D02*
X018721Y008451D01*
X019032Y008570D02*
X019143Y008570D01*
X018499Y007990D02*
X018518Y012798D01*
X019359Y013191D02*
X019595Y013191D01*
X019535Y013310D02*
X019405Y013310D01*
X019405Y013428D02*
X019535Y013428D01*
X019535Y013547D02*
X019405Y013547D01*
X019405Y013665D02*
X019535Y013665D01*
X019535Y013902D02*
X019405Y013902D01*
X019405Y014021D02*
X019535Y014021D01*
X019535Y014139D02*
X019405Y014139D01*
X019405Y014258D02*
X019535Y014258D01*
X019545Y014376D02*
X019400Y014376D01*
X019885Y014376D02*
X020005Y014376D01*
X020005Y014258D02*
X019885Y014258D01*
X019885Y014139D02*
X020005Y014139D01*
X020005Y014021D02*
X019885Y014021D01*
X019885Y013902D02*
X020005Y013902D01*
X020005Y013784D02*
X021246Y013784D01*
X021203Y013665D02*
X020355Y013665D01*
X020355Y013547D02*
X021203Y013547D01*
X021243Y013428D02*
X020355Y013428D01*
X020355Y013310D02*
X021336Y013310D01*
X020756Y013537D02*
X020411Y013826D01*
X020355Y013902D02*
X021341Y013902D01*
X021519Y014021D02*
X020355Y014021D01*
X020355Y014139D02*
X021410Y014139D01*
X021301Y014258D02*
X020355Y014258D01*
X020345Y014376D02*
X021192Y014376D01*
X021187Y014381D02*
X021187Y014381D01*
X021091Y014495D02*
X018395Y014495D01*
X018395Y014613D02*
X020394Y014613D01*
X020558Y014613D02*
X020991Y014613D01*
X020892Y014732D02*
X020757Y014732D01*
X020195Y014732D02*
X018395Y014732D01*
X018395Y014850D02*
X020119Y014850D01*
X020089Y014969D02*
X018395Y014969D01*
X018395Y015087D02*
X020094Y015087D01*
X020143Y015206D02*
X018395Y015206D01*
X018395Y015324D02*
X020255Y015324D01*
X020293Y015443D02*
X018395Y015443D01*
X018395Y015561D02*
X020193Y015561D01*
X020093Y015680D02*
X019743Y015680D01*
X019839Y015798D02*
X019993Y015798D01*
X019893Y015917D02*
X019882Y015917D01*
X019494Y016391D02*
X018394Y016391D01*
X018394Y016509D02*
X019394Y016509D01*
X019310Y016609D02*
X019310Y016609D01*
X019296Y016628D02*
X018380Y016628D01*
X018307Y016746D02*
X019204Y016746D01*
X019113Y016865D02*
X018212Y016865D01*
X018117Y016983D02*
X019022Y016983D01*
X018930Y017102D02*
X018105Y017102D01*
X018105Y017220D02*
X018839Y017220D01*
X018748Y017339D02*
X018105Y017339D01*
X018105Y017457D02*
X018656Y017457D01*
X018565Y017576D02*
X018126Y017576D01*
X018140Y017694D02*
X018474Y017694D01*
X018382Y017813D02*
X018108Y017813D01*
X018012Y017931D02*
X018291Y017931D01*
X018200Y018050D02*
X015174Y018050D01*
X015216Y018168D02*
X018109Y018168D01*
X018017Y018287D02*
X015259Y018287D01*
X015303Y018405D02*
X017926Y018405D01*
X017835Y018524D02*
X015616Y018524D01*
X016031Y018642D02*
X017743Y018642D01*
X017652Y018761D02*
X016445Y018761D01*
X016860Y018879D02*
X017553Y018879D01*
X017450Y018998D02*
X017275Y018998D01*
X017638Y017931D02*
X015131Y017931D01*
X015088Y017813D02*
X017542Y017813D01*
X017510Y017694D02*
X015045Y017694D01*
X015002Y017576D02*
X017525Y017576D01*
X017545Y017457D02*
X014959Y017457D01*
X014916Y017339D02*
X017545Y017339D01*
X017545Y017220D02*
X014873Y017220D01*
X014831Y017102D02*
X017545Y017102D01*
X017545Y016983D02*
X014788Y016983D01*
X014745Y016865D02*
X017544Y016865D01*
X017586Y016746D02*
X014702Y016746D01*
X014659Y016628D02*
X017684Y016628D01*
X017779Y016509D02*
X014616Y016509D01*
X014573Y016391D02*
X016573Y016391D01*
X016412Y016272D02*
X014530Y016272D01*
X014487Y016154D02*
X016364Y016154D01*
X016364Y016035D02*
X014445Y016035D01*
X014402Y015917D02*
X016411Y015917D01*
X016569Y015798D02*
X014359Y015798D01*
X014316Y015680D02*
X017331Y015680D01*
X017217Y015798D02*
X016789Y015798D01*
X017445Y015561D02*
X014273Y015561D01*
X014230Y015443D02*
X017457Y015443D01*
X017456Y015324D02*
X014187Y015324D01*
X014144Y015206D02*
X017456Y015206D01*
X017456Y015087D02*
X014102Y015087D01*
X014059Y014969D02*
X017455Y014969D01*
X017455Y014850D02*
X014016Y014850D01*
X013973Y014732D02*
X017454Y014732D01*
X017454Y014613D02*
X013930Y014613D01*
X013887Y014495D02*
X017453Y014495D01*
X017453Y014376D02*
X013844Y014376D01*
X013801Y014258D02*
X017453Y014258D01*
X017452Y014139D02*
X013758Y014139D01*
X013716Y014021D02*
X017452Y014021D01*
X017451Y013902D02*
X013673Y013902D01*
X013630Y013784D02*
X017451Y013784D01*
X017451Y013665D02*
X013846Y013665D01*
X014102Y013547D02*
X017450Y013547D01*
X017450Y013428D02*
X014181Y013428D01*
X014195Y013310D02*
X017449Y013310D01*
X017449Y013191D02*
X014158Y013191D01*
X014105Y013073D02*
X017449Y013073D01*
X017448Y012954D02*
X014053Y012954D01*
X014001Y012836D02*
X017448Y012836D01*
X017447Y012717D02*
X013949Y012717D01*
X013897Y012599D02*
X017447Y012599D01*
X017446Y012480D02*
X013845Y012480D01*
X013793Y012362D02*
X017446Y012362D01*
X017446Y012243D02*
X013742Y012243D01*
X013690Y012125D02*
X017445Y012125D01*
X017445Y012006D02*
X013638Y012006D01*
X013586Y011888D02*
X017444Y011888D01*
X017444Y011769D02*
X013534Y011769D01*
X013482Y011651D02*
X017444Y011651D01*
X017443Y011532D02*
X013405Y011532D01*
X011771Y011414D02*
X017443Y011414D01*
X017442Y011295D02*
X011737Y011295D01*
X011653Y011177D02*
X017442Y011177D01*
X020925Y011177D02*
X024220Y011177D01*
X024109Y011058D02*
X020925Y011058D01*
X020925Y010940D02*
X024060Y010940D01*
X024105Y011295D02*
X020925Y011295D01*
X020925Y011414D02*
X023986Y011414D01*
X023867Y011532D02*
X022141Y011532D01*
X022159Y011651D02*
X023748Y011651D01*
X023629Y011769D02*
X022159Y011769D01*
X022159Y011888D02*
X023510Y011888D01*
X023392Y012006D02*
X022159Y012006D01*
X022159Y012243D02*
X022344Y012243D01*
X022270Y012362D02*
X022159Y012362D01*
X022159Y012480D02*
X022243Y012480D01*
X022250Y012599D02*
X022159Y012599D01*
X022113Y012717D02*
X022299Y012717D01*
X022173Y013310D02*
X021844Y013310D01*
X021937Y013428D02*
X022064Y013428D01*
X022990Y012362D02*
X023045Y012362D01*
X023154Y012243D02*
X022917Y012243D01*
X022726Y012125D02*
X023273Y012125D01*
X023159Y012238D02*
X023159Y012238D01*
X022534Y012125D02*
X021809Y012125D01*
X021749Y012105D02*
X021745Y011500D01*
X022763Y011502D01*
X023109Y011058D01*
X021809Y011532D02*
X021689Y011532D01*
X021689Y011651D02*
X021809Y011651D01*
X021809Y011769D02*
X021689Y011769D01*
X021689Y011888D02*
X021809Y011888D01*
X021809Y012006D02*
X021689Y012006D01*
X021339Y012006D02*
X021179Y012006D01*
X021179Y011888D02*
X021339Y011888D01*
X021339Y011769D02*
X021179Y011769D01*
X021179Y011651D02*
X021339Y011651D01*
X021356Y011532D02*
X021179Y011532D01*
X024597Y009873D02*
X025034Y009873D01*
X024915Y009755D02*
X024716Y009755D01*
X024736Y009636D02*
X024896Y009636D01*
X024896Y009518D02*
X024736Y009518D01*
X024736Y009399D02*
X024896Y009399D01*
X025002Y009281D02*
X024629Y009281D01*
X024547Y009162D02*
X025120Y009162D01*
X025511Y009162D02*
X025556Y009162D01*
X025556Y009044D02*
X024545Y009044D01*
X024542Y008925D02*
X025598Y008925D01*
X025693Y008807D02*
X024540Y008807D01*
X024537Y008688D02*
X026860Y008688D01*
X026990Y008570D02*
X024535Y008570D01*
X024532Y008451D02*
X025809Y008451D01*
X025855Y008497D02*
X025609Y008251D01*
X025609Y008097D01*
X026009Y008097D01*
X026009Y008497D01*
X025855Y008497D01*
X026009Y008451D02*
X026049Y008451D01*
X026049Y008333D02*
X026009Y008333D01*
X026009Y008214D02*
X026049Y008214D01*
X026049Y008096D02*
X026609Y008096D01*
X026609Y008214D02*
X026449Y008214D01*
X026367Y008333D02*
X026690Y008333D01*
X026809Y008451D02*
X026249Y008451D01*
X026009Y008096D02*
X024525Y008096D01*
X024527Y008214D02*
X025609Y008214D01*
X025690Y008333D02*
X024530Y008333D01*
X024522Y007977D02*
X025609Y007977D01*
X025653Y007859D02*
X024510Y007859D01*
X026286Y007740D02*
X026772Y007740D01*
X026653Y007859D02*
X026404Y007859D01*
X026449Y007977D02*
X026609Y007977D01*
X027286Y007740D02*
X027301Y007740D01*
X027794Y007266D02*
X028510Y007266D01*
X028372Y007385D02*
X027972Y007385D01*
X028041Y007503D02*
X028231Y007503D01*
X028089Y007622D02*
X028064Y007622D01*
X026730Y008807D02*
X026193Y008807D01*
X026288Y008925D02*
X026600Y008925D01*
X026470Y009044D02*
X026330Y009044D01*
X026330Y009162D02*
X026340Y009162D01*
X020816Y007385D02*
X019383Y007385D01*
X020255Y005726D02*
X017305Y005726D01*
X016542Y005133D02*
X013501Y005133D01*
X013383Y005252D02*
X016419Y005252D01*
X017035Y004659D02*
X013995Y004659D01*
X014114Y004541D02*
X017159Y004541D01*
X017282Y004422D02*
X014232Y004422D01*
X013215Y005252D02*
X013155Y005252D01*
X012755Y006437D02*
X014465Y006437D01*
X014455Y006555D02*
X012755Y006555D01*
X012755Y007385D02*
X014294Y007385D01*
X014162Y007503D02*
X012755Y007503D01*
X012755Y007622D02*
X014062Y007622D01*
X013964Y007740D02*
X012755Y007740D01*
X012755Y007859D02*
X013933Y007859D01*
X013935Y007977D02*
X012755Y007977D01*
X012755Y008096D02*
X013935Y008096D01*
X013935Y008214D02*
X012755Y008214D01*
X012755Y008333D02*
X013935Y008333D01*
X013935Y008451D02*
X012755Y008451D01*
X012755Y008570D02*
X013966Y008570D01*
X014069Y008688D02*
X012755Y008688D01*
X012755Y008807D02*
X014188Y008807D01*
X011114Y011177D02*
X011075Y011177D01*
X008564Y012243D02*
X008432Y012243D01*
X008534Y012362D02*
X008564Y012362D01*
X002360Y008925D02*
X001295Y008925D01*
X001060Y008925D02*
X000890Y008925D01*
X000890Y007977D02*
X000973Y007977D01*
X000890Y007859D02*
X007415Y007859D01*
X007415Y007977D02*
X002682Y007977D01*
X002843Y008096D02*
X007512Y008096D01*
X007630Y008214D02*
X002921Y008214D01*
X002272Y007977D02*
X001382Y007977D01*
X000890Y007740D02*
X007415Y007740D01*
X007025Y007622D02*
X000890Y007622D01*
X000890Y007503D02*
X006907Y007503D01*
X006805Y007385D02*
X001103Y007385D01*
X001286Y007266D02*
X006805Y007266D01*
X006805Y007148D02*
X001356Y007148D01*
X001381Y007029D02*
X006805Y007029D01*
X007025Y006437D02*
X000890Y006437D01*
X000890Y006555D02*
X007405Y006555D01*
X007405Y006674D02*
X001191Y006674D01*
X001322Y006792D02*
X001381Y006934D01*
X000890Y006318D02*
X006907Y006318D01*
X006795Y006200D02*
X000890Y006200D01*
X000890Y006081D02*
X006795Y006081D01*
X006795Y005963D02*
X000890Y005963D01*
X000890Y005844D02*
X006795Y005844D01*
X006883Y005726D02*
X000890Y005726D01*
X000891Y009873D02*
X001023Y009873D01*
X011002Y005252D02*
X011064Y005252D01*
X011148Y003711D02*
X012275Y003711D01*
X012275Y003593D02*
X011159Y003593D01*
X011170Y003474D02*
X012337Y003474D01*
X012421Y003356D02*
X011181Y003356D01*
X011192Y003237D02*
X012506Y003237D01*
X012591Y003119D02*
X011203Y003119D01*
X011215Y003000D02*
X012675Y003000D01*
X012760Y002882D02*
X011226Y002882D01*
X011237Y002763D02*
X012845Y002763D01*
X012780Y002645D02*
X011248Y002645D01*
X011259Y002526D02*
X012730Y002526D01*
X012730Y002408D02*
X011270Y002408D01*
X011282Y002289D02*
X012730Y002289D01*
X012760Y002171D02*
X011293Y002171D01*
X011304Y002052D02*
X012879Y002052D01*
X012997Y001934D02*
X011317Y001934D01*
X013765Y002938D02*
X013815Y002988D01*
X014379Y002763D02*
X014801Y002763D01*
X018396Y014139D02*
X018585Y014139D01*
X018585Y014258D02*
X018395Y014258D01*
X018395Y014376D02*
X018591Y014376D01*
X018394Y015680D02*
X019247Y015680D01*
X019151Y015798D02*
X018394Y015798D01*
X018394Y015917D02*
X019108Y015917D01*
X019108Y016035D02*
X018394Y016035D01*
X018394Y016154D02*
X019148Y016154D01*
X019240Y016272D02*
X018394Y016272D01*
X017834Y016272D02*
X017539Y016272D01*
X017652Y016154D02*
X017834Y016154D01*
X017834Y016035D02*
X017766Y016035D01*
X017834Y016391D02*
X016784Y016391D01*
D18*
X016679Y016094D03*
X017825Y017673D03*
X018508Y013810D03*
X018518Y012798D03*
X021415Y012838D03*
X023109Y011058D03*
X022726Y010066D03*
X021721Y010616D03*
X018818Y008802D03*
X018119Y008788D03*
X019415Y008738D03*
X019915Y008738D03*
X020715Y008738D03*
X021015Y007138D03*
X020634Y006411D03*
X019742Y006106D03*
X018869Y004468D03*
X016915Y003738D03*
X014707Y003404D03*
X021242Y004468D03*
X024084Y007036D03*
X017553Y007899D03*
X015979Y010230D03*
X015315Y010738D03*
X014374Y010235D03*
X012810Y011289D03*
X002204Y006960D03*
X002204Y006260D03*
D19*
X013185Y004778D02*
X014155Y004778D01*
X014615Y004318D01*
X014707Y003404D01*
X013185Y004778D02*
X013185Y009308D01*
X014015Y010238D01*
X014374Y010235D01*
X015993Y010230D01*
X015979Y010230D01*
X017215Y008638D02*
X017715Y009138D01*
X017738Y015660D01*
X017323Y016093D01*
X016679Y016094D01*
X017825Y016900D02*
X017825Y017673D01*
X017825Y016900D02*
X018114Y016539D01*
X018119Y008788D01*
X017215Y008638D02*
X014415Y008638D01*
X014215Y008438D01*
X014215Y007874D01*
X014415Y007638D01*
X015515Y007638D01*
X015889Y007300D01*
X015889Y006149D01*
X017639Y004467D01*
X018869Y004468D01*
X019588Y004911D02*
X017717Y004911D01*
X016867Y005771D01*
X016315Y006338D01*
X016315Y007538D01*
X015855Y008138D01*
X015025Y008138D01*
X015115Y006744D02*
X013621Y006744D01*
X013515Y006738D02*
X013315Y006538D01*
X016915Y003738D02*
X019615Y003738D01*
X020545Y004468D01*
X021242Y004468D01*
X020633Y005650D02*
X019588Y004911D01*
X020633Y005650D02*
X020634Y006411D01*
D20*
X020756Y013537D03*
D21*
X020525Y012831D02*
X021325Y012831D01*
X021415Y012838D01*
X020715Y012241D02*
X020769Y012095D01*
X020715Y012241D02*
X020715Y008738D01*
X020515Y009338D02*
X019915Y009038D01*
X019915Y008738D01*
X019415Y008738D02*
X019404Y009012D01*
X019042Y009372D01*
X018818Y008802D02*
X018824Y012907D01*
X018513Y013324D01*
X018508Y013810D01*
X020315Y012638D02*
X020525Y012831D01*
X020315Y012638D02*
X020315Y011538D01*
X020515Y011338D01*
X020515Y009338D01*
X021742Y010358D02*
X022034Y010066D01*
X022726Y010066D01*
X021742Y010358D02*
X021721Y010616D01*
X018315Y007138D02*
X017553Y007899D01*
X018315Y007138D02*
X019742Y006106D01*
M02*
