G75*
%MOIN*%
%OFA0B0*%
%FSLAX24Y24*%
%IPPOS*%
%LPD*%
%AMOC8*
5,1,8,0,0,1.08239X$1,22.5*
%
%ADD10C,0.0434*%
%ADD11R,0.0513X0.0297*%
%ADD12C,0.0400*%
%ADD13R,0.0335X0.0150*%
%ADD14R,0.0150X0.0335*%
%ADD15R,0.0217X0.0630*%
%ADD16R,0.0530X0.0230*%
%ADD17R,0.0356X0.0434*%
%ADD18OC8,0.0710*%
%ADD19R,0.0631X0.0710*%
%ADD20R,0.0710X0.0631*%
%ADD21R,0.0474X0.0513*%
%ADD22R,0.0513X0.0474*%
%ADD23R,0.0336X0.0277*%
%ADD24R,0.0356X0.0277*%
%ADD25R,0.0434X0.0356*%
%ADD26R,0.0580X0.1080*%
%ADD27R,0.1080X0.0580*%
%ADD28OC8,0.0600*%
%ADD29R,0.0560X0.0960*%
%ADD30R,0.1497X0.0946*%
%ADD31C,0.0740*%
%ADD32C,0.0474*%
%ADD33R,0.0611X0.0237*%
%ADD34R,0.0828X0.0671*%
%ADD35R,0.0580X0.0880*%
%ADD36C,0.0548*%
%ADD37C,0.0390*%
%ADD38C,0.0480*%
D10*
X000993Y000712D03*
X003377Y000728D03*
X005464Y000712D03*
X008474Y000712D03*
X011860Y000912D03*
X014964Y002006D03*
X017327Y002794D03*
X021927Y004797D03*
X024737Y003831D03*
X027455Y003690D03*
X026668Y001722D03*
X028508Y006053D03*
X027677Y007637D03*
X025943Y009104D03*
X024443Y010851D03*
X022630Y012504D03*
X021590Y013603D03*
X020476Y014998D03*
X019495Y015979D03*
X012922Y018389D03*
X015752Y020116D03*
X012124Y016341D03*
X008194Y012553D03*
X006104Y012520D03*
X008474Y010948D03*
X008474Y009267D03*
X011152Y008271D03*
X011384Y011455D03*
X002978Y012458D03*
X001026Y012406D03*
X001026Y011606D03*
X000993Y007011D03*
X000993Y005043D03*
X008374Y005067D03*
X011321Y004961D03*
D11*
X005795Y011016D03*
X005795Y011390D03*
X005795Y011764D03*
X004693Y011764D03*
X004693Y011016D03*
D12*
X011779Y012734D02*
X012121Y013672D01*
X012591Y013501D02*
X012249Y012563D01*
X012719Y012392D02*
X013061Y013330D01*
X013530Y013159D02*
X013188Y012221D01*
X013658Y012050D02*
X014000Y012988D01*
X014470Y012817D02*
X014128Y011879D01*
X014598Y011708D02*
X014940Y012646D01*
X015410Y012475D02*
X015068Y011537D01*
X015538Y011366D02*
X015880Y012304D01*
X016350Y012133D02*
X016008Y011195D01*
X016477Y011024D02*
X016819Y011962D01*
X018274Y015989D02*
X018616Y016927D01*
X018146Y017098D02*
X017804Y016160D01*
X017334Y016331D02*
X017676Y017269D01*
X017206Y017440D02*
X016864Y016502D01*
X016394Y016673D02*
X016736Y017611D01*
X016267Y017782D02*
X015925Y016844D01*
X015455Y017015D02*
X015797Y017953D01*
X015327Y018124D02*
X014985Y017186D01*
D13*
X022037Y010330D03*
X022037Y010133D03*
X022037Y009936D03*
X022037Y009739D03*
X022037Y009542D03*
X022037Y009346D03*
X023592Y009346D03*
X023592Y009542D03*
X023592Y009739D03*
X023592Y009936D03*
X023592Y010133D03*
X023592Y010330D03*
D14*
X023307Y010615D03*
X023110Y010615D03*
X022913Y010615D03*
X022716Y010615D03*
X022520Y010615D03*
X022323Y010615D03*
X022323Y009060D03*
X022520Y009060D03*
X022716Y009060D03*
X022913Y009060D03*
X023110Y009060D03*
X023307Y009060D03*
D15*
X021392Y007957D03*
X021136Y007957D03*
X020881Y007957D03*
X020625Y007957D03*
X020369Y007957D03*
X020113Y007957D03*
X019857Y007957D03*
X019601Y007957D03*
X019345Y007957D03*
X019089Y007957D03*
X018833Y007957D03*
X018577Y007957D03*
X018577Y005078D03*
X018833Y005078D03*
X019089Y005078D03*
X019345Y005078D03*
X019601Y005078D03*
X019857Y005078D03*
X020113Y005078D03*
X020369Y005078D03*
X020625Y005078D03*
X020881Y005078D03*
X021136Y005078D03*
X021392Y005078D03*
D16*
X007419Y003855D03*
X007419Y003605D03*
X007419Y003355D03*
X007419Y003105D03*
X007419Y002855D03*
X007419Y002605D03*
X007419Y002355D03*
X007419Y002105D03*
X007419Y001855D03*
X007419Y001605D03*
X005309Y001605D03*
X005309Y001855D03*
X005309Y002105D03*
X005309Y002355D03*
X005309Y002605D03*
X005309Y002855D03*
X005309Y003105D03*
X005309Y003355D03*
X005309Y003605D03*
X005309Y003855D03*
D17*
X005532Y010489D03*
X006043Y010489D03*
X019120Y011725D03*
X019632Y011725D03*
D18*
X007890Y007802D03*
X007280Y007205D03*
X007880Y006607D03*
X007270Y006010D03*
X007290Y008410D03*
X007612Y011777D03*
X006677Y011786D03*
X013185Y004778D03*
X013795Y004188D03*
X013205Y003588D03*
X013815Y002988D03*
X013205Y002398D03*
D19*
X003308Y005362D03*
X002206Y005362D03*
X004989Y009023D03*
X006091Y009023D03*
X013269Y009620D03*
X014372Y009620D03*
D20*
X023135Y007029D03*
X023135Y005927D03*
X015295Y003999D03*
X015295Y002897D03*
D21*
X016415Y003043D03*
X016415Y003712D03*
X008218Y002443D03*
X008218Y001774D03*
X004525Y003259D03*
X003856Y003259D03*
X003864Y004145D03*
X004533Y004145D03*
X021093Y009707D03*
X021093Y010376D03*
D22*
X022400Y008328D03*
X023069Y008328D03*
X019949Y012538D03*
X019280Y012538D03*
X006158Y009811D03*
X005489Y009811D03*
X004511Y002351D03*
X003842Y002351D03*
D23*
X017459Y005165D03*
X017459Y005480D03*
X017459Y005795D03*
X017951Y005795D03*
X017951Y005480D03*
X017951Y005165D03*
X017951Y006110D03*
X017941Y006495D03*
X017941Y006810D03*
X017449Y006810D03*
X017449Y006495D03*
X017459Y006110D03*
X017449Y007125D03*
X017449Y007440D03*
X017941Y007440D03*
X017941Y007125D03*
X024449Y007605D03*
X024449Y007920D03*
X024449Y008235D03*
X024941Y008235D03*
X024941Y007920D03*
X024941Y007605D03*
X024941Y008550D03*
X024449Y008550D03*
D24*
X005650Y012183D03*
X005138Y012183D03*
D25*
X019509Y010844D03*
X019509Y010332D03*
D26*
X020769Y012095D03*
X021749Y012105D03*
X019954Y013825D03*
X018995Y013804D03*
D27*
X013715Y008152D03*
X013715Y006742D03*
D28*
X024316Y009561D03*
X025316Y009561D03*
X026029Y008077D03*
X027029Y008077D03*
D29*
X006066Y007830D03*
X005156Y007830D03*
X004246Y007830D03*
D30*
X005156Y005390D03*
D31*
X002477Y008423D03*
X002477Y009407D03*
X002477Y010391D03*
X001178Y010391D03*
X001178Y009407D03*
X001178Y008423D03*
D32*
X004168Y010107D03*
X007262Y010287D03*
X014795Y005498D03*
X022175Y006829D03*
X017915Y010538D03*
X005124Y004350D03*
X016682Y019615D03*
D33*
X002314Y003446D03*
X002314Y003190D03*
X002314Y002934D03*
X002314Y002678D03*
X002314Y002422D03*
D34*
X001251Y002540D03*
X001251Y003327D03*
D35*
X002294Y004298D03*
X002294Y001528D03*
D36*
X001345Y001512D02*
X001345Y001744D01*
X001345Y001512D02*
X001163Y001512D01*
X001163Y001744D01*
X001345Y001744D01*
X001380Y004147D02*
X001148Y004147D01*
X001148Y004329D01*
X001380Y004329D01*
X001380Y004147D01*
D37*
X002204Y006260D03*
X002204Y006960D03*
X012810Y011289D03*
X014374Y010235D03*
X015315Y010738D03*
X015979Y010230D03*
X018119Y008788D03*
X018818Y008802D03*
X019415Y008738D03*
X019915Y008738D03*
X020715Y008738D03*
X021015Y007138D03*
X020634Y006411D03*
X019742Y006106D03*
X018869Y004468D03*
X016915Y003738D03*
X014707Y003404D03*
X021242Y004468D03*
X024084Y007036D03*
X022726Y010066D03*
X021721Y010616D03*
X023109Y011058D03*
X021415Y012838D03*
X018518Y012798D03*
X018508Y013810D03*
X016679Y016094D03*
X017825Y017673D03*
X017553Y007899D03*
D38*
X020756Y013537D03*
M02*
