G75*
%MOIN*%
%OFA0B0*%
%FSLAX24Y24*%
%IPPOS*%
%LPD*%
%AMOC8*
5,1,8,0,0,1.08239X$1,22.5*
%
%ADD10C,0.0160*%
%ADD11C,0.0000*%
%ADD12C,0.0020*%
%ADD13C,0.0500*%
%ADD14OC8,0.0630*%
%ADD15OC8,0.0520*%
%ADD16C,0.0560*%
%ADD17OC8,0.0560*%
%ADD18C,0.0660*%
%ADD19R,0.1000X0.0500*%
%ADD20R,0.0500X0.1000*%
%ADD21C,0.0550*%
%ADD22C,0.0310*%
%ADD23C,0.0340*%
%ADD24C,0.0100*%
%ADD25C,0.0120*%
%ADD26C,0.0396*%
%ADD27C,0.0060*%
%ADD28C,0.0320*%
%ADD29C,0.0240*%
D10*
X001777Y002813D02*
X007606Y002813D01*
X007606Y003123D02*
X005833Y003123D01*
X005838Y003136D01*
X005838Y003279D01*
X005783Y003411D01*
X005682Y003513D01*
X005550Y003567D01*
X005407Y003567D01*
X005274Y003513D01*
X005173Y003411D01*
X005118Y003279D01*
X005118Y003136D01*
X005123Y003123D01*
X002393Y003123D01*
X002401Y003142D01*
X002401Y003305D01*
X002339Y003456D01*
X002223Y003571D01*
X002073Y003634D01*
X001910Y003634D01*
X001759Y003571D01*
X001644Y003456D01*
X001581Y003305D01*
X001581Y003153D01*
X001449Y003189D01*
X001254Y003301D01*
X001096Y003459D01*
X000984Y003653D01*
X000926Y003870D01*
X000919Y003982D01*
X000919Y009006D01*
X000951Y008974D01*
X001083Y008919D01*
X001226Y008919D01*
X001358Y008974D01*
X001460Y009075D01*
X001514Y009208D01*
X001514Y009351D01*
X001460Y009483D01*
X001358Y009584D01*
X001226Y009639D01*
X001083Y009639D01*
X000951Y009584D01*
X000919Y009553D01*
X000919Y011535D01*
X001080Y011468D01*
X001275Y011468D01*
X001455Y011542D01*
X001593Y011680D01*
X001668Y011860D01*
X001668Y012055D01*
X001593Y012235D01*
X001455Y012373D01*
X001275Y012448D01*
X001080Y012448D01*
X000919Y012381D01*
X000919Y012519D01*
X001080Y012452D01*
X001275Y012452D01*
X001455Y012527D01*
X001593Y012665D01*
X001668Y012845D01*
X001668Y013040D01*
X001593Y013220D01*
X001455Y013357D01*
X001275Y013432D01*
X001080Y013432D01*
X000919Y013365D01*
X000919Y013503D01*
X001080Y013436D01*
X001275Y013436D01*
X001455Y013511D01*
X001593Y013649D01*
X001668Y013829D01*
X001668Y014024D01*
X001593Y014204D01*
X001455Y014342D01*
X001275Y014416D01*
X001080Y014416D01*
X000955Y014365D01*
X000992Y014501D01*
X001117Y014718D01*
X001294Y014895D01*
X001511Y015020D01*
X001562Y015034D01*
X001562Y014922D01*
X001617Y014790D01*
X001718Y014689D01*
X001850Y014634D01*
X001994Y014634D01*
X002126Y014689D01*
X002227Y014790D01*
X002282Y014922D01*
X002282Y015065D01*
X002270Y015093D01*
X005859Y015093D01*
X005818Y014994D01*
X005818Y014850D01*
X005873Y014718D01*
X005974Y014617D01*
X006106Y014562D01*
X006249Y014562D01*
X006382Y014617D01*
X006483Y014718D01*
X006486Y014725D01*
X006486Y014445D01*
X006764Y014167D01*
X007158Y014167D01*
X007436Y014445D01*
X007436Y014839D01*
X007181Y015093D01*
X007684Y015093D01*
X007800Y015086D01*
X008024Y015026D01*
X008224Y014910D01*
X008388Y014746D01*
X008504Y014546D01*
X008564Y014322D01*
X008571Y014206D01*
X008571Y013799D01*
X008559Y013804D01*
X008416Y013804D01*
X008284Y013749D01*
X008182Y013648D01*
X008128Y013515D01*
X008128Y013372D01*
X008182Y013240D01*
X008284Y013139D01*
X008416Y013084D01*
X008559Y013084D01*
X008571Y013089D01*
X008571Y012168D01*
X008532Y012208D01*
X008399Y012263D01*
X008256Y012263D01*
X008124Y012208D01*
X008022Y012106D01*
X007968Y011974D01*
X007968Y011831D01*
X008022Y011699D01*
X008124Y011597D01*
X008256Y011543D01*
X008399Y011543D01*
X008532Y011597D01*
X008571Y011637D01*
X008571Y007868D01*
X008531Y007908D01*
X008399Y007963D01*
X008256Y007963D01*
X008124Y007908D01*
X008022Y007807D01*
X007968Y007674D01*
X007968Y007531D01*
X008022Y007399D01*
X008124Y007298D01*
X008256Y007243D01*
X008399Y007243D01*
X008531Y007298D01*
X008571Y007337D01*
X008571Y004089D01*
X008563Y003963D01*
X008527Y003829D01*
X008493Y003911D01*
X008391Y004013D01*
X008259Y004067D01*
X008116Y004067D01*
X007984Y004013D01*
X007882Y003911D01*
X007828Y003779D01*
X007828Y003636D01*
X007882Y003504D01*
X007984Y003402D01*
X008116Y003347D01*
X008218Y003347D01*
X008194Y003323D01*
X007975Y003197D01*
X007732Y003132D01*
X007606Y003123D01*
X007996Y003209D02*
X005838Y003209D01*
X005802Y003367D02*
X008068Y003367D01*
X007873Y003526D02*
X005650Y003526D01*
X005306Y003526D02*
X002269Y003526D01*
X002375Y003367D02*
X005155Y003367D01*
X005118Y003209D02*
X002401Y003209D01*
X001713Y003526D02*
X001058Y003526D01*
X000976Y003684D02*
X007828Y003684D01*
X007854Y003843D02*
X000933Y003843D01*
X000919Y004001D02*
X007972Y004001D01*
X008881Y004089D02*
X008879Y004020D01*
X008874Y003951D01*
X008864Y003883D01*
X008851Y003815D01*
X008835Y003748D01*
X008814Y003682D01*
X008790Y003617D01*
X008763Y003554D01*
X008732Y003492D01*
X008698Y003432D01*
X008661Y003373D01*
X008621Y003317D01*
X008578Y003264D01*
X008532Y003212D01*
X008483Y003163D01*
X008431Y003117D01*
X008378Y003074D01*
X008322Y003034D01*
X008263Y002997D01*
X008203Y002963D01*
X008141Y002932D01*
X008078Y002905D01*
X008013Y002881D01*
X007947Y002860D01*
X007880Y002844D01*
X007812Y002831D01*
X007744Y002821D01*
X007675Y002816D01*
X007606Y002814D01*
X008521Y003843D02*
X008531Y003843D01*
X008566Y004001D02*
X008403Y004001D01*
X008571Y004160D02*
X000919Y004160D01*
X000919Y004318D02*
X006405Y004318D01*
X006347Y004342D02*
X005447Y005242D01*
X005357Y005332D01*
X005309Y005450D01*
X005309Y006700D01*
X005201Y006798D01*
X005147Y006913D01*
X005141Y007041D01*
X005185Y007160D01*
X005270Y007254D01*
X005386Y007308D01*
X005513Y007314D01*
X005633Y007271D01*
X005715Y007196D01*
X005722Y007193D01*
X005762Y007153D01*
X005803Y007115D01*
X005807Y007108D01*
X005855Y007060D01*
X005900Y007015D01*
X005900Y007015D01*
X005900Y007014D01*
X005924Y006956D01*
X005949Y006897D01*
X005949Y006897D01*
X005949Y006897D01*
X005949Y006833D01*
X005949Y005646D01*
X006800Y004795D01*
X006849Y004677D01*
X006849Y004550D01*
X006800Y004432D01*
X006710Y004342D01*
X006592Y004293D01*
X006465Y004293D01*
X006347Y004342D01*
X006213Y004477D02*
X000919Y004477D01*
X000919Y004635D02*
X006054Y004635D01*
X005896Y004794D02*
X000919Y004794D01*
X000919Y004952D02*
X005737Y004952D01*
X005579Y005111D02*
X000919Y005111D01*
X000919Y005269D02*
X005420Y005269D01*
X005318Y005428D02*
X000919Y005428D01*
X000919Y005586D02*
X005309Y005586D01*
X005309Y005745D02*
X000919Y005745D01*
X000919Y005903D02*
X005309Y005903D01*
X005309Y006062D02*
X000919Y006062D01*
X000919Y006220D02*
X005309Y006220D01*
X005309Y006379D02*
X000919Y006379D01*
X000919Y006537D02*
X005309Y006537D01*
X005309Y006696D02*
X000919Y006696D01*
X000919Y006854D02*
X005175Y006854D01*
X005143Y007013D02*
X000919Y007013D01*
X000919Y007171D02*
X005195Y007171D01*
X005743Y007171D02*
X008571Y007171D01*
X008571Y007013D02*
X005901Y007013D01*
X005949Y006854D02*
X008571Y006854D01*
X008571Y006696D02*
X005949Y006696D01*
X005949Y006537D02*
X008571Y006537D01*
X008571Y006379D02*
X005949Y006379D01*
X005949Y006220D02*
X008571Y006220D01*
X008571Y006062D02*
X005949Y006062D01*
X005949Y005903D02*
X008571Y005903D01*
X008571Y005745D02*
X005949Y005745D01*
X006008Y005586D02*
X008571Y005586D01*
X008571Y005428D02*
X006167Y005428D01*
X006325Y005269D02*
X008571Y005269D01*
X008571Y005111D02*
X006484Y005111D01*
X006642Y004952D02*
X008571Y004952D01*
X008571Y004794D02*
X006800Y004794D01*
X006849Y004635D02*
X008571Y004635D01*
X008571Y004477D02*
X006819Y004477D01*
X006653Y004318D02*
X008571Y004318D01*
X008881Y004089D02*
X008881Y014206D01*
X008571Y014145D02*
X004162Y014145D01*
X004196Y014112D02*
X004107Y014200D01*
X003991Y014248D01*
X003866Y014248D01*
X003750Y014200D01*
X003662Y014112D01*
X003627Y014027D01*
X002991Y013392D01*
X002949Y013289D01*
X002949Y013083D01*
X002892Y013220D01*
X002754Y013357D01*
X002574Y013432D01*
X002379Y013432D01*
X002199Y013357D01*
X002061Y013220D01*
X001987Y013040D01*
X001987Y012845D01*
X002061Y012665D01*
X002199Y012527D01*
X002379Y012452D01*
X002574Y012452D01*
X002754Y012527D01*
X002892Y012665D01*
X002949Y012801D01*
X002949Y012099D01*
X002892Y012235D01*
X002754Y012373D01*
X002574Y012448D01*
X002379Y012448D01*
X002199Y012373D01*
X002061Y012235D01*
X001987Y012055D01*
X001987Y011860D01*
X002061Y011680D01*
X002199Y011542D01*
X002379Y011468D01*
X002574Y011468D01*
X002754Y011542D01*
X002892Y011680D01*
X002949Y011817D01*
X002949Y011080D01*
X002914Y010996D01*
X002914Y010871D01*
X002962Y010755D01*
X003050Y010666D01*
X003166Y010618D01*
X003291Y010618D01*
X003407Y010666D01*
X003496Y010755D01*
X003544Y010871D01*
X003544Y010996D01*
X003509Y011080D01*
X003509Y013117D01*
X004023Y013631D01*
X004107Y013666D01*
X004196Y013755D01*
X004244Y013871D01*
X004244Y013996D01*
X004196Y014112D01*
X004244Y013987D02*
X008571Y013987D01*
X008571Y013828D02*
X004226Y013828D01*
X004111Y013670D02*
X008205Y013670D01*
X008128Y013511D02*
X003903Y013511D01*
X003744Y013353D02*
X008136Y013353D01*
X008228Y013194D02*
X003586Y013194D01*
X003509Y013036D02*
X008571Y013036D01*
X008571Y012877D02*
X003509Y012877D01*
X003509Y012719D02*
X008571Y012719D01*
X008571Y012560D02*
X003509Y012560D01*
X003509Y012402D02*
X008571Y012402D01*
X008571Y012243D02*
X008446Y012243D01*
X008210Y012243D02*
X003509Y012243D01*
X003509Y012085D02*
X008014Y012085D01*
X007968Y011926D02*
X003509Y011926D01*
X003509Y011768D02*
X007994Y011768D01*
X008112Y011609D02*
X003509Y011609D01*
X003509Y011451D02*
X008571Y011451D01*
X008571Y011609D02*
X008544Y011609D01*
X008571Y011292D02*
X003509Y011292D01*
X003509Y011134D02*
X004707Y011134D01*
X004650Y011110D02*
X004562Y011022D01*
X004514Y010906D01*
X004514Y010781D01*
X004562Y010665D01*
X004650Y010576D01*
X004702Y010555D01*
X004966Y010228D01*
X004972Y010214D01*
X005001Y010185D01*
X005026Y010154D01*
X005040Y010147D01*
X005051Y010135D01*
X005088Y010120D01*
X005124Y010101D01*
X005139Y010099D01*
X005154Y010093D01*
X005194Y010093D01*
X005235Y010089D01*
X005250Y010093D01*
X006069Y010096D01*
X006152Y010061D01*
X006277Y010061D01*
X006393Y010109D01*
X006482Y010198D01*
X006530Y010314D01*
X006530Y010439D01*
X006482Y010555D01*
X006393Y010643D01*
X006277Y010691D01*
X006152Y010691D01*
X006066Y010656D01*
X005342Y010654D01*
X005144Y010899D01*
X005144Y010906D01*
X005096Y011022D01*
X005007Y011110D01*
X004891Y011158D01*
X004766Y011158D01*
X004650Y011110D01*
X004542Y010975D02*
X003544Y010975D01*
X003521Y010817D02*
X004514Y010817D01*
X004568Y010658D02*
X003388Y010658D01*
X003069Y010658D02*
X000919Y010658D01*
X000919Y010500D02*
X004746Y010500D01*
X004874Y010341D02*
X000919Y010341D01*
X000919Y010183D02*
X005003Y010183D01*
X005338Y010658D02*
X006072Y010658D01*
X006357Y010658D02*
X008571Y010658D01*
X008571Y010500D02*
X006504Y010500D01*
X006530Y010341D02*
X008571Y010341D01*
X008571Y010183D02*
X006467Y010183D01*
X005210Y010817D02*
X008571Y010817D01*
X008571Y010975D02*
X005115Y010975D01*
X004950Y011134D02*
X008571Y011134D01*
X008571Y010024D02*
X000919Y010024D01*
X000919Y009866D02*
X008571Y009866D01*
X008571Y009707D02*
X000919Y009707D01*
X001394Y009549D02*
X008571Y009549D01*
X008571Y009390D02*
X001498Y009390D01*
X001514Y009232D02*
X008571Y009232D01*
X008571Y009073D02*
X001458Y009073D01*
X000919Y008915D02*
X008571Y008915D01*
X008571Y008756D02*
X000919Y008756D01*
X000919Y008598D02*
X008571Y008598D01*
X008571Y008439D02*
X000919Y008439D01*
X000919Y008281D02*
X008571Y008281D01*
X008571Y008122D02*
X000919Y008122D01*
X000919Y007964D02*
X008571Y007964D01*
X008022Y007805D02*
X000919Y007805D01*
X000919Y007647D02*
X007968Y007647D01*
X007985Y007488D02*
X000919Y007488D01*
X000919Y007330D02*
X008091Y007330D01*
X008564Y007330D02*
X008571Y007330D01*
X006939Y005353D02*
X006929Y005353D01*
X011628Y005257D02*
X011630Y006209D01*
X010838Y003402D02*
X010864Y003350D01*
X010894Y003300D01*
X010926Y003251D01*
X010962Y003205D01*
X011001Y003161D01*
X011042Y003120D01*
X011086Y003082D01*
X011132Y003046D01*
X011180Y003014D01*
X011230Y002984D01*
X011283Y002958D01*
X011336Y002936D01*
X011391Y002916D01*
X011447Y002901D01*
X011504Y002889D01*
X011562Y002881D01*
X011620Y002876D01*
X011679Y002875D01*
X011737Y002878D01*
X011795Y002885D01*
X011852Y002895D01*
X011909Y002909D01*
X011964Y002927D01*
X012018Y002948D01*
X012071Y002973D01*
X012073Y002989D01*
X022270Y007340D01*
X022270Y007339D02*
X022333Y007376D01*
X022398Y007411D01*
X022464Y007441D01*
X022532Y007468D01*
X022601Y007492D01*
X022671Y007511D01*
X022743Y007527D01*
X022815Y007539D01*
X022887Y007547D01*
X022960Y007551D01*
X023033Y007552D01*
X023106Y007548D01*
X023179Y007540D01*
X023251Y007529D01*
X023323Y007514D01*
X023393Y007495D01*
X023463Y007472D01*
X023531Y007445D01*
X023597Y007415D01*
X023662Y007381D01*
X023725Y007344D01*
X023786Y007304D01*
X023845Y007260D01*
X023844Y007261D02*
X026447Y005663D01*
X026495Y005634D01*
X026544Y005608D01*
X026595Y005586D01*
X026648Y005567D01*
X026702Y005553D01*
X026756Y005542D01*
X026812Y005534D01*
X026867Y005531D01*
X026923Y005532D01*
X026979Y005537D01*
X027034Y005545D01*
X027088Y005558D01*
X027142Y005574D01*
X027194Y005594D01*
X027244Y005617D01*
X027293Y005644D01*
X027340Y005675D01*
X027384Y005708D01*
X027426Y005745D01*
X027466Y005785D01*
X027502Y005827D01*
X027536Y005871D01*
X027566Y005918D01*
X027593Y005967D01*
X027616Y006018D01*
X028726Y008678D01*
X028753Y008741D01*
X028776Y008805D01*
X028795Y008871D01*
X028811Y008937D01*
X028822Y009005D01*
X028830Y009073D01*
X028834Y009141D01*
X028833Y009210D01*
X028829Y009278D01*
X028821Y009346D01*
X028810Y009413D01*
X028794Y009480D01*
X028774Y009545D01*
X028751Y009610D01*
X028724Y009673D01*
X028694Y009734D01*
X028660Y009794D01*
X028623Y009851D01*
X028582Y009906D01*
X028539Y009959D01*
X028492Y010009D01*
X028292Y010203D01*
X010839Y003403D02*
X010684Y004315D01*
X010551Y005230D01*
X010441Y006148D01*
X010352Y007069D01*
X010286Y007992D01*
X010241Y008916D01*
X010220Y009840D01*
X010220Y010765D01*
X010243Y011690D01*
X010288Y012614D01*
X010355Y013536D01*
X010444Y014457D01*
X010556Y015375D01*
X010689Y016291D01*
X010845Y017202D01*
X011022Y018110D01*
X011222Y019013D01*
X011443Y019912D01*
X011685Y020804D01*
X012585Y021843D02*
X014913Y023304D01*
X014893Y023305D02*
X014959Y023336D01*
X015026Y023364D01*
X015095Y023388D01*
X015164Y023408D01*
X015235Y023425D01*
X015307Y023438D01*
X015379Y023447D01*
X015452Y023452D01*
X015525Y023453D01*
X015597Y023450D01*
X015670Y023443D01*
X015742Y023433D01*
X015813Y023418D01*
X015884Y023400D01*
X015953Y023378D01*
X016021Y023352D01*
X016088Y023323D01*
X016153Y023290D01*
X016216Y023254D01*
X016277Y023214D01*
X016336Y023171D01*
X016392Y023125D01*
X016446Y023077D01*
X016497Y023025D01*
X016545Y022970D01*
X012585Y021843D02*
X012510Y021799D01*
X012437Y021751D01*
X012365Y021700D01*
X012296Y021646D01*
X012229Y021589D01*
X012165Y021530D01*
X012104Y021467D01*
X012045Y021402D01*
X011989Y021335D01*
X011936Y021265D01*
X011886Y021193D01*
X011839Y021119D01*
X011795Y021043D01*
X011755Y020965D01*
X011718Y020886D01*
X011685Y020805D01*
X007684Y015403D02*
X001879Y015403D01*
X001562Y014938D02*
X001369Y014938D01*
X001179Y014779D02*
X001627Y014779D01*
X002217Y014779D02*
X005847Y014779D01*
X005818Y014938D02*
X002282Y014938D01*
X002379Y014416D02*
X002199Y014342D01*
X002061Y014204D01*
X001987Y014024D01*
X001987Y013829D01*
X002061Y013649D01*
X002199Y013511D01*
X002379Y013436D01*
X002574Y013436D01*
X002754Y013511D01*
X002892Y013649D01*
X002967Y013829D01*
X002967Y014024D01*
X002892Y014204D01*
X002754Y014342D01*
X002574Y014416D01*
X002379Y014416D01*
X002161Y014304D02*
X001493Y014304D01*
X001617Y014145D02*
X002037Y014145D01*
X001879Y015403D02*
X001810Y015401D01*
X001742Y015396D01*
X001674Y015386D01*
X001606Y015373D01*
X001539Y015357D01*
X001473Y015337D01*
X001409Y015313D01*
X001346Y015286D01*
X001284Y015255D01*
X001224Y015221D01*
X001166Y015184D01*
X001110Y015144D01*
X001057Y015101D01*
X001006Y015055D01*
X000957Y015006D01*
X000911Y014955D01*
X000868Y014902D01*
X000828Y014846D01*
X000791Y014788D01*
X000757Y014728D01*
X000726Y014666D01*
X000699Y014603D01*
X000675Y014539D01*
X000655Y014473D01*
X000639Y014406D01*
X000626Y014338D01*
X000616Y014270D01*
X000611Y014202D01*
X000609Y014133D01*
X000609Y003982D01*
X001188Y003367D02*
X001607Y003367D01*
X001581Y003209D02*
X001414Y003209D01*
X001777Y002814D02*
X001712Y002816D01*
X001646Y002821D01*
X001581Y002831D01*
X001517Y002843D01*
X001454Y002860D01*
X001391Y002880D01*
X001330Y002903D01*
X001270Y002930D01*
X001212Y002960D01*
X001156Y002993D01*
X001101Y003029D01*
X001049Y003069D01*
X000999Y003111D01*
X000951Y003156D01*
X000906Y003204D01*
X000864Y003254D01*
X000824Y003306D01*
X000788Y003361D01*
X000755Y003417D01*
X000725Y003475D01*
X000698Y003535D01*
X000675Y003596D01*
X000655Y003659D01*
X000638Y003722D01*
X000626Y003786D01*
X000616Y003851D01*
X000611Y003917D01*
X000609Y003982D01*
X000919Y010817D02*
X002936Y010817D01*
X002914Y010975D02*
X000919Y010975D01*
X000919Y011134D02*
X002949Y011134D01*
X002949Y011292D02*
X000919Y011292D01*
X000919Y011451D02*
X002949Y011451D01*
X002949Y011609D02*
X002821Y011609D01*
X002928Y011768D02*
X002949Y011768D01*
X002949Y012243D02*
X002884Y012243D01*
X002949Y012402D02*
X002685Y012402D01*
X002788Y012560D02*
X002949Y012560D01*
X002949Y012719D02*
X002915Y012719D01*
X002903Y013194D02*
X002949Y013194D01*
X002975Y013353D02*
X002759Y013353D01*
X002755Y013511D02*
X003111Y013511D01*
X003269Y013670D02*
X002901Y013670D01*
X002967Y013828D02*
X003428Y013828D01*
X003586Y013987D02*
X002967Y013987D01*
X002916Y014145D02*
X003695Y014145D01*
X002792Y014304D02*
X006627Y014304D01*
X006486Y014462D02*
X000982Y014462D01*
X001061Y014621D02*
X005970Y014621D01*
X006386Y014621D02*
X006486Y014621D01*
X007294Y014304D02*
X008565Y014304D01*
X008526Y014462D02*
X007436Y014462D01*
X007436Y014621D02*
X008460Y014621D01*
X008355Y014779D02*
X007436Y014779D01*
X007337Y014938D02*
X008176Y014938D01*
X007684Y015403D02*
X007751Y015401D01*
X007818Y015395D01*
X007885Y015386D01*
X007950Y015373D01*
X008015Y015356D01*
X008079Y015336D01*
X008142Y015312D01*
X008203Y015284D01*
X008263Y015254D01*
X008321Y015220D01*
X008377Y015182D01*
X008430Y015142D01*
X008482Y015099D01*
X008530Y015052D01*
X008577Y015004D01*
X008620Y014952D01*
X008660Y014899D01*
X008698Y014843D01*
X008732Y014785D01*
X008762Y014725D01*
X008790Y014664D01*
X008814Y014601D01*
X008834Y014537D01*
X008851Y014472D01*
X008864Y014407D01*
X008873Y014340D01*
X008879Y014273D01*
X008881Y014206D01*
X012733Y012734D02*
X013333Y013333D01*
X015029Y013333D01*
X013699Y010493D02*
X012829Y010493D01*
X002268Y012402D02*
X001386Y012402D01*
X001489Y012560D02*
X002166Y012560D01*
X002039Y012719D02*
X001616Y012719D01*
X001668Y012877D02*
X001987Y012877D01*
X001987Y013036D02*
X001668Y013036D01*
X001603Y013194D02*
X002051Y013194D01*
X002195Y013353D02*
X001460Y013353D01*
X001456Y013511D02*
X002199Y013511D01*
X002053Y013670D02*
X001602Y013670D01*
X001667Y013828D02*
X001987Y013828D01*
X001987Y013987D02*
X001668Y013987D01*
X000969Y012402D02*
X000919Y012402D01*
X001585Y012243D02*
X002069Y012243D01*
X001999Y012085D02*
X001655Y012085D01*
X001668Y011926D02*
X001987Y011926D01*
X002025Y011768D02*
X001629Y011768D01*
X001522Y011609D02*
X002132Y011609D01*
X016545Y022970D02*
X017470Y021687D01*
X018426Y020427D01*
X019411Y019189D01*
X020425Y017976D01*
X021468Y016787D01*
X022539Y015623D01*
X023637Y014485D01*
X024762Y013373D01*
X025913Y012289D01*
X027090Y011232D01*
X028291Y010203D01*
D11*
X027921Y009385D02*
X027923Y009411D01*
X027929Y009437D01*
X027938Y009461D01*
X027951Y009484D01*
X027967Y009505D01*
X027986Y009523D01*
X028007Y009539D01*
X028031Y009551D01*
X028055Y009559D01*
X028081Y009564D01*
X028108Y009565D01*
X028134Y009562D01*
X028159Y009555D01*
X028183Y009545D01*
X028206Y009531D01*
X028226Y009515D01*
X028243Y009495D01*
X028258Y009473D01*
X028269Y009449D01*
X028277Y009424D01*
X028281Y009398D01*
X028281Y009372D01*
X028277Y009346D01*
X028269Y009321D01*
X028258Y009297D01*
X028243Y009275D01*
X028226Y009255D01*
X028206Y009239D01*
X028183Y009225D01*
X028159Y009215D01*
X028134Y009208D01*
X028108Y009205D01*
X028081Y009206D01*
X028055Y009211D01*
X028031Y009219D01*
X028007Y009231D01*
X027986Y009247D01*
X027967Y009265D01*
X027951Y009286D01*
X027938Y009309D01*
X027929Y009333D01*
X027923Y009359D01*
X027921Y009385D01*
X025377Y011800D02*
X025379Y011826D01*
X025385Y011852D01*
X025394Y011876D01*
X025407Y011899D01*
X025423Y011920D01*
X025442Y011938D01*
X025463Y011954D01*
X025487Y011966D01*
X025511Y011974D01*
X025537Y011979D01*
X025564Y011980D01*
X025590Y011977D01*
X025615Y011970D01*
X025639Y011960D01*
X025662Y011946D01*
X025682Y011930D01*
X025699Y011910D01*
X025714Y011888D01*
X025725Y011864D01*
X025733Y011839D01*
X025737Y011813D01*
X025737Y011787D01*
X025733Y011761D01*
X025725Y011736D01*
X025714Y011712D01*
X025699Y011690D01*
X025682Y011670D01*
X025662Y011654D01*
X025639Y011640D01*
X025615Y011630D01*
X025590Y011623D01*
X025564Y011620D01*
X025537Y011621D01*
X025511Y011626D01*
X025487Y011634D01*
X025463Y011646D01*
X025442Y011662D01*
X025423Y011680D01*
X025407Y011701D01*
X025394Y011724D01*
X025385Y011748D01*
X025379Y011774D01*
X025377Y011800D01*
X023877Y013547D02*
X023879Y013573D01*
X023885Y013599D01*
X023894Y013623D01*
X023907Y013646D01*
X023923Y013667D01*
X023942Y013685D01*
X023963Y013701D01*
X023987Y013713D01*
X024011Y013721D01*
X024037Y013726D01*
X024064Y013727D01*
X024090Y013724D01*
X024115Y013717D01*
X024139Y013707D01*
X024162Y013693D01*
X024182Y013677D01*
X024199Y013657D01*
X024214Y013635D01*
X024225Y013611D01*
X024233Y013586D01*
X024237Y013560D01*
X024237Y013534D01*
X024233Y013508D01*
X024225Y013483D01*
X024214Y013459D01*
X024199Y013437D01*
X024182Y013417D01*
X024162Y013401D01*
X024139Y013387D01*
X024115Y013377D01*
X024090Y013370D01*
X024064Y013367D01*
X024037Y013368D01*
X024011Y013373D01*
X023987Y013381D01*
X023963Y013393D01*
X023942Y013409D01*
X023923Y013427D01*
X023907Y013448D01*
X023894Y013471D01*
X023885Y013495D01*
X023879Y013521D01*
X023877Y013547D01*
X022064Y015200D02*
X022066Y015226D01*
X022072Y015252D01*
X022081Y015276D01*
X022094Y015299D01*
X022110Y015320D01*
X022129Y015338D01*
X022150Y015354D01*
X022174Y015366D01*
X022198Y015374D01*
X022224Y015379D01*
X022251Y015380D01*
X022277Y015377D01*
X022302Y015370D01*
X022326Y015360D01*
X022349Y015346D01*
X022369Y015330D01*
X022386Y015310D01*
X022401Y015288D01*
X022412Y015264D01*
X022420Y015239D01*
X022424Y015213D01*
X022424Y015187D01*
X022420Y015161D01*
X022412Y015136D01*
X022401Y015112D01*
X022386Y015090D01*
X022369Y015070D01*
X022349Y015054D01*
X022326Y015040D01*
X022302Y015030D01*
X022277Y015023D01*
X022251Y015020D01*
X022224Y015021D01*
X022198Y015026D01*
X022174Y015034D01*
X022150Y015046D01*
X022129Y015062D01*
X022110Y015080D01*
X022094Y015101D01*
X022081Y015124D01*
X022072Y015148D01*
X022066Y015174D01*
X022064Y015200D01*
X021024Y016299D02*
X021026Y016325D01*
X021032Y016351D01*
X021041Y016375D01*
X021054Y016398D01*
X021070Y016419D01*
X021089Y016437D01*
X021110Y016453D01*
X021134Y016465D01*
X021158Y016473D01*
X021184Y016478D01*
X021211Y016479D01*
X021237Y016476D01*
X021262Y016469D01*
X021286Y016459D01*
X021309Y016445D01*
X021329Y016429D01*
X021346Y016409D01*
X021361Y016387D01*
X021372Y016363D01*
X021380Y016338D01*
X021384Y016312D01*
X021384Y016286D01*
X021380Y016260D01*
X021372Y016235D01*
X021361Y016211D01*
X021346Y016189D01*
X021329Y016169D01*
X021309Y016153D01*
X021286Y016139D01*
X021262Y016129D01*
X021237Y016122D01*
X021211Y016119D01*
X021184Y016120D01*
X021158Y016125D01*
X021134Y016133D01*
X021110Y016145D01*
X021089Y016161D01*
X021070Y016179D01*
X021054Y016200D01*
X021041Y016223D01*
X021032Y016247D01*
X021026Y016273D01*
X021024Y016299D01*
X019910Y017694D02*
X019912Y017720D01*
X019918Y017746D01*
X019927Y017770D01*
X019940Y017793D01*
X019956Y017814D01*
X019975Y017832D01*
X019996Y017848D01*
X020020Y017860D01*
X020044Y017868D01*
X020070Y017873D01*
X020097Y017874D01*
X020123Y017871D01*
X020148Y017864D01*
X020172Y017854D01*
X020195Y017840D01*
X020215Y017824D01*
X020232Y017804D01*
X020247Y017782D01*
X020258Y017758D01*
X020266Y017733D01*
X020270Y017707D01*
X020270Y017681D01*
X020266Y017655D01*
X020258Y017630D01*
X020247Y017606D01*
X020232Y017584D01*
X020215Y017564D01*
X020195Y017548D01*
X020172Y017534D01*
X020148Y017524D01*
X020123Y017517D01*
X020097Y017514D01*
X020070Y017515D01*
X020044Y017520D01*
X020020Y017528D01*
X019996Y017540D01*
X019975Y017556D01*
X019956Y017574D01*
X019940Y017595D01*
X019927Y017618D01*
X019918Y017642D01*
X019912Y017668D01*
X019910Y017694D01*
X018929Y018675D02*
X018931Y018701D01*
X018937Y018727D01*
X018946Y018751D01*
X018959Y018774D01*
X018975Y018795D01*
X018994Y018813D01*
X019015Y018829D01*
X019039Y018841D01*
X019063Y018849D01*
X019089Y018854D01*
X019116Y018855D01*
X019142Y018852D01*
X019167Y018845D01*
X019191Y018835D01*
X019214Y018821D01*
X019234Y018805D01*
X019251Y018785D01*
X019266Y018763D01*
X019277Y018739D01*
X019285Y018714D01*
X019289Y018688D01*
X019289Y018662D01*
X019285Y018636D01*
X019277Y018611D01*
X019266Y018587D01*
X019251Y018565D01*
X019234Y018545D01*
X019214Y018529D01*
X019191Y018515D01*
X019167Y018505D01*
X019142Y018498D01*
X019116Y018495D01*
X019089Y018496D01*
X019063Y018501D01*
X019039Y018509D01*
X019015Y018521D01*
X018994Y018537D01*
X018975Y018555D01*
X018959Y018576D01*
X018946Y018599D01*
X018937Y018623D01*
X018931Y018649D01*
X018929Y018675D01*
X015186Y022812D02*
X015188Y022838D01*
X015194Y022864D01*
X015203Y022888D01*
X015216Y022911D01*
X015232Y022932D01*
X015251Y022950D01*
X015272Y022966D01*
X015296Y022978D01*
X015320Y022986D01*
X015346Y022991D01*
X015373Y022992D01*
X015399Y022989D01*
X015424Y022982D01*
X015448Y022972D01*
X015471Y022958D01*
X015491Y022942D01*
X015508Y022922D01*
X015523Y022900D01*
X015534Y022876D01*
X015542Y022851D01*
X015546Y022825D01*
X015546Y022799D01*
X015542Y022773D01*
X015534Y022748D01*
X015523Y022724D01*
X015508Y022702D01*
X015491Y022682D01*
X015471Y022666D01*
X015448Y022652D01*
X015424Y022642D01*
X015399Y022635D01*
X015373Y022632D01*
X015346Y022633D01*
X015320Y022638D01*
X015296Y022646D01*
X015272Y022658D01*
X015251Y022674D01*
X015232Y022692D01*
X015216Y022713D01*
X015203Y022736D01*
X015194Y022760D01*
X015188Y022786D01*
X015186Y022812D01*
X012355Y021085D02*
X012357Y021111D01*
X012363Y021137D01*
X012372Y021161D01*
X012385Y021184D01*
X012401Y021205D01*
X012420Y021223D01*
X012441Y021239D01*
X012465Y021251D01*
X012489Y021259D01*
X012515Y021264D01*
X012542Y021265D01*
X012568Y021262D01*
X012593Y021255D01*
X012617Y021245D01*
X012640Y021231D01*
X012660Y021215D01*
X012677Y021195D01*
X012692Y021173D01*
X012703Y021149D01*
X012711Y021124D01*
X012715Y021098D01*
X012715Y021072D01*
X012711Y021046D01*
X012703Y021021D01*
X012692Y020997D01*
X012677Y020975D01*
X012660Y020955D01*
X012640Y020939D01*
X012617Y020925D01*
X012593Y020915D01*
X012568Y020908D01*
X012542Y020905D01*
X012515Y020906D01*
X012489Y020911D01*
X012465Y020919D01*
X012441Y020931D01*
X012420Y020947D01*
X012401Y020965D01*
X012385Y020986D01*
X012372Y021009D01*
X012363Y021033D01*
X012357Y021059D01*
X012355Y021085D01*
X011558Y019036D02*
X011560Y019062D01*
X011566Y019088D01*
X011575Y019112D01*
X011588Y019135D01*
X011604Y019156D01*
X011623Y019174D01*
X011644Y019190D01*
X011668Y019202D01*
X011692Y019210D01*
X011718Y019215D01*
X011745Y019216D01*
X011771Y019213D01*
X011796Y019206D01*
X011820Y019196D01*
X011843Y019182D01*
X011863Y019166D01*
X011880Y019146D01*
X011895Y019124D01*
X011906Y019100D01*
X011914Y019075D01*
X011918Y019049D01*
X011918Y019023D01*
X011914Y018997D01*
X011906Y018972D01*
X011895Y018948D01*
X011880Y018926D01*
X011863Y018906D01*
X011843Y018890D01*
X011820Y018876D01*
X011796Y018866D01*
X011771Y018859D01*
X011745Y018856D01*
X011718Y018857D01*
X011692Y018862D01*
X011668Y018870D01*
X011644Y018882D01*
X011623Y018898D01*
X011604Y018916D01*
X011588Y018937D01*
X011575Y018960D01*
X011566Y018984D01*
X011560Y019010D01*
X011558Y019036D01*
X006048Y014922D02*
X006050Y014945D01*
X006056Y014966D01*
X006065Y014987D01*
X006078Y015006D01*
X006094Y015022D01*
X006113Y015035D01*
X006134Y015044D01*
X006155Y015050D01*
X006178Y015052D01*
X006201Y015050D01*
X006222Y015044D01*
X006243Y015035D01*
X006262Y015022D01*
X006278Y015006D01*
X006291Y014987D01*
X006300Y014966D01*
X006306Y014945D01*
X006308Y014922D01*
X006306Y014899D01*
X006300Y014878D01*
X006291Y014857D01*
X006278Y014838D01*
X006262Y014822D01*
X006243Y014809D01*
X006222Y014800D01*
X006201Y014794D01*
X006178Y014792D01*
X006155Y014794D01*
X006134Y014800D01*
X006113Y014809D01*
X006094Y014822D01*
X006078Y014838D01*
X006065Y014857D01*
X006056Y014878D01*
X006050Y014899D01*
X006048Y014922D01*
X008358Y013444D02*
X008360Y013467D01*
X008366Y013488D01*
X008375Y013509D01*
X008388Y013528D01*
X008404Y013544D01*
X008423Y013557D01*
X008444Y013566D01*
X008465Y013572D01*
X008488Y013574D01*
X008511Y013572D01*
X008532Y013566D01*
X008553Y013557D01*
X008572Y013544D01*
X008588Y013528D01*
X008601Y013509D01*
X008610Y013488D01*
X008616Y013467D01*
X008618Y013444D01*
X008616Y013421D01*
X008610Y013400D01*
X008601Y013379D01*
X008588Y013360D01*
X008572Y013344D01*
X008553Y013331D01*
X008532Y013322D01*
X008511Y013316D01*
X008488Y013314D01*
X008465Y013316D01*
X008444Y013322D01*
X008423Y013331D01*
X008404Y013344D01*
X008388Y013360D01*
X008375Y013379D01*
X008366Y013400D01*
X008360Y013421D01*
X008358Y013444D01*
X008198Y011903D02*
X008200Y011926D01*
X008206Y011947D01*
X008215Y011968D01*
X008228Y011987D01*
X008244Y012003D01*
X008263Y012016D01*
X008284Y012025D01*
X008305Y012031D01*
X008328Y012033D01*
X008351Y012031D01*
X008372Y012025D01*
X008393Y012016D01*
X008412Y012003D01*
X008428Y011987D01*
X008441Y011968D01*
X008450Y011947D01*
X008456Y011926D01*
X008458Y011903D01*
X008456Y011880D01*
X008450Y011859D01*
X008441Y011838D01*
X008428Y011819D01*
X008412Y011803D01*
X008393Y011790D01*
X008372Y011781D01*
X008351Y011775D01*
X008328Y011773D01*
X008305Y011775D01*
X008284Y011781D01*
X008263Y011790D01*
X008244Y011803D01*
X008228Y011819D01*
X008215Y011838D01*
X008206Y011859D01*
X008200Y011880D01*
X008198Y011903D01*
X010586Y009666D02*
X010588Y009692D01*
X010594Y009718D01*
X010603Y009742D01*
X010616Y009765D01*
X010632Y009786D01*
X010651Y009804D01*
X010672Y009820D01*
X010696Y009832D01*
X010720Y009840D01*
X010746Y009845D01*
X010773Y009846D01*
X010799Y009843D01*
X010824Y009836D01*
X010848Y009826D01*
X010871Y009812D01*
X010891Y009796D01*
X010908Y009776D01*
X010923Y009754D01*
X010934Y009730D01*
X010942Y009705D01*
X010946Y009679D01*
X010946Y009653D01*
X010942Y009627D01*
X010934Y009602D01*
X010923Y009578D01*
X010908Y009556D01*
X010891Y009536D01*
X010871Y009520D01*
X010848Y009506D01*
X010824Y009496D01*
X010799Y009489D01*
X010773Y009486D01*
X010746Y009487D01*
X010720Y009492D01*
X010696Y009500D01*
X010672Y009512D01*
X010651Y009528D01*
X010632Y009546D01*
X010616Y009567D01*
X010603Y009590D01*
X010594Y009614D01*
X010588Y009640D01*
X010586Y009666D01*
X008198Y007603D02*
X008200Y007626D01*
X008206Y007647D01*
X008215Y007668D01*
X008228Y007687D01*
X008244Y007703D01*
X008263Y007716D01*
X008284Y007725D01*
X008305Y007731D01*
X008328Y007733D01*
X008351Y007731D01*
X008372Y007725D01*
X008393Y007716D01*
X008412Y007703D01*
X008428Y007687D01*
X008441Y007668D01*
X008450Y007647D01*
X008456Y007626D01*
X008458Y007603D01*
X008456Y007580D01*
X008450Y007559D01*
X008441Y007538D01*
X008428Y007519D01*
X008412Y007503D01*
X008393Y007490D01*
X008372Y007481D01*
X008351Y007475D01*
X008328Y007473D01*
X008305Y007475D01*
X008284Y007481D01*
X008263Y007490D01*
X008244Y007503D01*
X008228Y007519D01*
X008215Y007538D01*
X008206Y007559D01*
X008200Y007580D01*
X008198Y007603D01*
X008058Y003707D02*
X008060Y003730D01*
X008066Y003751D01*
X008075Y003772D01*
X008088Y003791D01*
X008104Y003807D01*
X008123Y003820D01*
X008144Y003829D01*
X008165Y003835D01*
X008188Y003837D01*
X008211Y003835D01*
X008232Y003829D01*
X008253Y003820D01*
X008272Y003807D01*
X008288Y003791D01*
X008301Y003772D01*
X008310Y003751D01*
X008316Y003730D01*
X008318Y003707D01*
X008316Y003684D01*
X008310Y003663D01*
X008301Y003642D01*
X008288Y003623D01*
X008272Y003607D01*
X008253Y003594D01*
X008232Y003585D01*
X008211Y003579D01*
X008188Y003577D01*
X008165Y003579D01*
X008144Y003585D01*
X008123Y003594D01*
X008104Y003607D01*
X008088Y003623D01*
X008075Y003642D01*
X008066Y003663D01*
X008060Y003684D01*
X008058Y003707D01*
X005348Y003207D02*
X005350Y003230D01*
X005356Y003251D01*
X005365Y003272D01*
X005378Y003291D01*
X005394Y003307D01*
X005413Y003320D01*
X005434Y003329D01*
X005455Y003335D01*
X005478Y003337D01*
X005501Y003335D01*
X005522Y003329D01*
X005543Y003320D01*
X005562Y003307D01*
X005578Y003291D01*
X005591Y003272D01*
X005600Y003251D01*
X005606Y003230D01*
X005608Y003207D01*
X005606Y003184D01*
X005600Y003163D01*
X005591Y003142D01*
X005578Y003123D01*
X005562Y003107D01*
X005543Y003094D01*
X005522Y003085D01*
X005501Y003079D01*
X005478Y003077D01*
X005455Y003079D01*
X005434Y003085D01*
X005413Y003094D01*
X005394Y003107D01*
X005378Y003123D01*
X005365Y003142D01*
X005356Y003163D01*
X005350Y003184D01*
X005348Y003207D01*
X001811Y003224D02*
X001813Y003250D01*
X001819Y003276D01*
X001828Y003300D01*
X001841Y003323D01*
X001857Y003344D01*
X001876Y003362D01*
X001897Y003378D01*
X001921Y003390D01*
X001945Y003398D01*
X001971Y003403D01*
X001998Y003404D01*
X002024Y003401D01*
X002049Y003394D01*
X002073Y003384D01*
X002096Y003370D01*
X002116Y003354D01*
X002133Y003334D01*
X002148Y003312D01*
X002159Y003288D01*
X002167Y003263D01*
X002171Y003237D01*
X002171Y003211D01*
X002167Y003185D01*
X002159Y003160D01*
X002148Y003136D01*
X002133Y003114D01*
X002116Y003094D01*
X002096Y003078D01*
X002073Y003064D01*
X002049Y003054D01*
X002024Y003047D01*
X001998Y003044D01*
X001971Y003045D01*
X001945Y003050D01*
X001921Y003058D01*
X001897Y003070D01*
X001876Y003086D01*
X001857Y003104D01*
X001841Y003125D01*
X001828Y003148D01*
X001819Y003172D01*
X001813Y003198D01*
X001811Y003224D01*
X001024Y009279D02*
X001026Y009302D01*
X001032Y009323D01*
X001041Y009344D01*
X001054Y009363D01*
X001070Y009379D01*
X001089Y009392D01*
X001110Y009401D01*
X001131Y009407D01*
X001154Y009409D01*
X001177Y009407D01*
X001198Y009401D01*
X001219Y009392D01*
X001238Y009379D01*
X001254Y009363D01*
X001267Y009344D01*
X001276Y009323D01*
X001282Y009302D01*
X001284Y009279D01*
X001282Y009256D01*
X001276Y009235D01*
X001267Y009214D01*
X001254Y009195D01*
X001238Y009179D01*
X001219Y009166D01*
X001198Y009157D01*
X001177Y009151D01*
X001154Y009149D01*
X001131Y009151D01*
X001110Y009157D01*
X001089Y009166D01*
X001070Y009179D01*
X001054Y009195D01*
X001041Y009214D01*
X001032Y009235D01*
X001026Y009256D01*
X001024Y009279D01*
X001792Y014994D02*
X001794Y015017D01*
X001800Y015038D01*
X001809Y015059D01*
X001822Y015078D01*
X001838Y015094D01*
X001857Y015107D01*
X001878Y015116D01*
X001899Y015122D01*
X001922Y015124D01*
X001945Y015122D01*
X001966Y015116D01*
X001987Y015107D01*
X002006Y015094D01*
X002022Y015078D01*
X002035Y015059D01*
X002044Y015038D01*
X002050Y015017D01*
X002052Y014994D01*
X002050Y014971D01*
X002044Y014950D01*
X002035Y014929D01*
X002022Y014910D01*
X002006Y014894D01*
X001987Y014881D01*
X001966Y014872D01*
X001945Y014866D01*
X001922Y014864D01*
X001899Y014866D01*
X001878Y014872D01*
X001857Y014881D01*
X001838Y014894D01*
X001822Y014910D01*
X001809Y014929D01*
X001800Y014950D01*
X001794Y014971D01*
X001792Y014994D01*
X010817Y014150D02*
X010819Y014176D01*
X010825Y014202D01*
X010834Y014226D01*
X010847Y014249D01*
X010863Y014270D01*
X010882Y014288D01*
X010903Y014304D01*
X010927Y014316D01*
X010951Y014324D01*
X010977Y014329D01*
X011004Y014330D01*
X011030Y014327D01*
X011055Y014320D01*
X011079Y014310D01*
X011102Y014296D01*
X011122Y014280D01*
X011139Y014260D01*
X011154Y014238D01*
X011165Y014214D01*
X011173Y014189D01*
X011177Y014163D01*
X011177Y014137D01*
X011173Y014111D01*
X011165Y014086D01*
X011154Y014062D01*
X011139Y014040D01*
X011122Y014020D01*
X011102Y014004D01*
X011079Y013990D01*
X011055Y013980D01*
X011030Y013973D01*
X011004Y013970D01*
X010977Y013971D01*
X010951Y013976D01*
X010927Y013984D01*
X010903Y013996D01*
X010882Y014012D01*
X010863Y014030D01*
X010847Y014051D01*
X010834Y014074D01*
X010825Y014098D01*
X010819Y014124D01*
X010817Y014150D01*
X021361Y007492D02*
X021363Y007518D01*
X021369Y007544D01*
X021378Y007568D01*
X021391Y007591D01*
X021407Y007612D01*
X021426Y007630D01*
X021447Y007646D01*
X021471Y007658D01*
X021495Y007666D01*
X021521Y007671D01*
X021548Y007672D01*
X021574Y007669D01*
X021599Y007662D01*
X021623Y007652D01*
X021646Y007638D01*
X021666Y007622D01*
X021683Y007602D01*
X021698Y007580D01*
X021709Y007556D01*
X021717Y007531D01*
X021721Y007505D01*
X021721Y007479D01*
X021717Y007453D01*
X021709Y007428D01*
X021698Y007404D01*
X021683Y007382D01*
X021666Y007362D01*
X021646Y007346D01*
X021623Y007332D01*
X021599Y007322D01*
X021574Y007315D01*
X021548Y007312D01*
X021521Y007313D01*
X021495Y007318D01*
X021471Y007326D01*
X021447Y007338D01*
X021426Y007354D01*
X021407Y007372D01*
X021391Y007393D01*
X021378Y007416D01*
X021369Y007440D01*
X021363Y007466D01*
X021361Y007492D01*
X024200Y007502D02*
X024202Y007528D01*
X024208Y007554D01*
X024217Y007578D01*
X024230Y007601D01*
X024246Y007622D01*
X024265Y007640D01*
X024286Y007656D01*
X024310Y007668D01*
X024334Y007676D01*
X024360Y007681D01*
X024387Y007682D01*
X024413Y007679D01*
X024438Y007672D01*
X024462Y007662D01*
X024485Y007648D01*
X024505Y007632D01*
X024522Y007612D01*
X024537Y007590D01*
X024548Y007566D01*
X024556Y007541D01*
X024560Y007515D01*
X024560Y007489D01*
X024556Y007463D01*
X024548Y007438D01*
X024537Y007414D01*
X024522Y007392D01*
X024505Y007372D01*
X024485Y007356D01*
X024462Y007342D01*
X024438Y007332D01*
X024413Y007325D01*
X024387Y007322D01*
X024360Y007323D01*
X024334Y007328D01*
X024310Y007336D01*
X024286Y007348D01*
X024265Y007364D01*
X024246Y007382D01*
X024230Y007403D01*
X024217Y007426D01*
X024208Y007450D01*
X024202Y007476D01*
X024200Y007502D01*
X026673Y006069D02*
X026675Y006095D01*
X026681Y006121D01*
X026690Y006145D01*
X026703Y006168D01*
X026719Y006189D01*
X026738Y006207D01*
X026759Y006223D01*
X026783Y006235D01*
X026807Y006243D01*
X026833Y006248D01*
X026860Y006249D01*
X026886Y006246D01*
X026911Y006239D01*
X026935Y006229D01*
X026958Y006215D01*
X026978Y006199D01*
X026995Y006179D01*
X027010Y006157D01*
X027021Y006133D01*
X027029Y006108D01*
X027033Y006082D01*
X027033Y006056D01*
X027029Y006030D01*
X027021Y006005D01*
X027010Y005981D01*
X026995Y005959D01*
X026978Y005939D01*
X026958Y005923D01*
X026935Y005909D01*
X026911Y005899D01*
X026886Y005892D01*
X026860Y005889D01*
X026833Y005890D01*
X026807Y005895D01*
X026783Y005903D01*
X026759Y005915D01*
X026738Y005931D01*
X026719Y005949D01*
X026703Y005970D01*
X026690Y005993D01*
X026681Y006017D01*
X026675Y006043D01*
X026673Y006069D01*
X016761Y005489D02*
X016763Y005515D01*
X016769Y005541D01*
X016778Y005565D01*
X016791Y005588D01*
X016807Y005609D01*
X016826Y005627D01*
X016847Y005643D01*
X016871Y005655D01*
X016895Y005663D01*
X016921Y005668D01*
X016948Y005669D01*
X016974Y005666D01*
X016999Y005659D01*
X017023Y005649D01*
X017046Y005635D01*
X017066Y005619D01*
X017083Y005599D01*
X017098Y005577D01*
X017109Y005553D01*
X017117Y005528D01*
X017121Y005502D01*
X017121Y005476D01*
X017117Y005450D01*
X017109Y005425D01*
X017098Y005401D01*
X017083Y005379D01*
X017066Y005359D01*
X017046Y005343D01*
X017023Y005329D01*
X016999Y005319D01*
X016974Y005312D01*
X016948Y005309D01*
X016921Y005310D01*
X016895Y005315D01*
X016871Y005323D01*
X016847Y005335D01*
X016826Y005351D01*
X016807Y005369D01*
X016791Y005390D01*
X016778Y005413D01*
X016769Y005437D01*
X016763Y005463D01*
X016761Y005489D01*
X014398Y004702D02*
X014400Y004728D01*
X014406Y004754D01*
X014415Y004778D01*
X014428Y004801D01*
X014444Y004822D01*
X014463Y004840D01*
X014484Y004856D01*
X014508Y004868D01*
X014532Y004876D01*
X014558Y004881D01*
X014585Y004882D01*
X014611Y004879D01*
X014636Y004872D01*
X014660Y004862D01*
X014683Y004848D01*
X014703Y004832D01*
X014720Y004812D01*
X014735Y004790D01*
X014746Y004766D01*
X014754Y004741D01*
X014758Y004715D01*
X014758Y004689D01*
X014754Y004663D01*
X014746Y004638D01*
X014735Y004614D01*
X014720Y004592D01*
X014703Y004572D01*
X014683Y004556D01*
X014660Y004542D01*
X014636Y004532D01*
X014611Y004525D01*
X014585Y004522D01*
X014558Y004523D01*
X014532Y004528D01*
X014508Y004536D01*
X014484Y004548D01*
X014463Y004564D01*
X014444Y004582D01*
X014428Y004603D01*
X014415Y004626D01*
X014406Y004650D01*
X014400Y004676D01*
X014398Y004702D01*
X011294Y003608D02*
X011296Y003634D01*
X011302Y003660D01*
X011311Y003684D01*
X011324Y003707D01*
X011340Y003728D01*
X011359Y003746D01*
X011380Y003762D01*
X011404Y003774D01*
X011428Y003782D01*
X011454Y003787D01*
X011481Y003788D01*
X011507Y003785D01*
X011532Y003778D01*
X011556Y003768D01*
X011579Y003754D01*
X011599Y003738D01*
X011616Y003718D01*
X011631Y003696D01*
X011642Y003672D01*
X011650Y003647D01*
X011654Y003621D01*
X011654Y003595D01*
X011650Y003569D01*
X011642Y003544D01*
X011631Y003520D01*
X011616Y003498D01*
X011599Y003478D01*
X011579Y003462D01*
X011556Y003448D01*
X011532Y003438D01*
X011507Y003431D01*
X011481Y003428D01*
X011454Y003429D01*
X011428Y003434D01*
X011404Y003442D01*
X011380Y003454D01*
X011359Y003470D01*
X011340Y003488D01*
X011324Y003509D01*
X011311Y003532D01*
X011302Y003556D01*
X011296Y003582D01*
X011294Y003608D01*
D12*
X013286Y008687D02*
X013286Y008834D01*
X013286Y008760D02*
X013065Y008760D01*
X013139Y008834D01*
X012597Y009695D02*
X012597Y009841D01*
X012450Y009695D01*
X012413Y009695D01*
X012376Y009731D01*
X012376Y009805D01*
X012413Y009841D01*
X012726Y014382D02*
X012726Y014529D01*
X012726Y014456D02*
X012506Y014456D01*
X012579Y014529D01*
X012565Y015134D02*
X012528Y015170D01*
X012528Y015244D01*
X012565Y015280D01*
X012565Y015134D02*
X012601Y015134D01*
X012748Y015280D01*
X012748Y015134D01*
X015516Y020833D02*
X015663Y020833D01*
X015589Y020833D02*
X015589Y021053D01*
X015663Y020980D01*
X016479Y020993D02*
X016626Y020846D01*
X016479Y020846D01*
X016479Y020993D02*
X016479Y021030D01*
X016516Y021067D01*
X016590Y021067D01*
X016626Y021030D01*
D13*
X015383Y009586D03*
D14*
X007826Y014652D03*
X006961Y014642D03*
D15*
X023929Y012257D03*
X024929Y012257D03*
X025639Y010773D03*
X026639Y010773D03*
D16*
X001264Y007326D02*
X001264Y006766D01*
X001270Y004155D02*
X001270Y003595D01*
D17*
X001284Y005417D03*
D18*
X001178Y011958D03*
X001178Y012942D03*
X001178Y013926D03*
X002477Y013926D03*
X002477Y012942D03*
X002477Y011958D03*
D19*
X012829Y010493D03*
X012829Y009383D03*
X012829Y008433D03*
X013319Y014483D03*
X013329Y015233D03*
X013329Y015983D03*
D20*
X015579Y020233D03*
X016579Y020233D03*
X017579Y020233D03*
D21*
X012281Y007457D03*
X012298Y006586D03*
X012396Y005903D03*
X012544Y005253D03*
X012721Y004577D03*
D22*
X011628Y005257D03*
X011630Y006209D03*
X014218Y007230D03*
X015991Y007424D03*
X017085Y008840D03*
X017088Y010279D03*
X016068Y011102D03*
X013699Y010493D03*
X011229Y012033D03*
X012490Y013695D03*
X015029Y013333D03*
X015709Y013473D03*
X015329Y015633D03*
X017917Y015645D03*
X019215Y015633D03*
X019929Y015633D03*
X018711Y016714D03*
X016798Y018643D03*
X018119Y020032D03*
X015741Y021448D03*
X021629Y014133D03*
X018829Y013633D03*
X018831Y013242D03*
X018820Y012844D03*
X018786Y012420D03*
X018847Y012033D03*
X018883Y011633D03*
X021069Y011493D03*
X023842Y008900D03*
X006929Y005353D03*
X006529Y004613D03*
X005464Y006992D03*
X006215Y010376D03*
X004829Y010843D03*
X003229Y010933D03*
X003929Y013933D03*
D23*
X006529Y013433D03*
X006459Y012283D03*
X002299Y007723D03*
D24*
X010563Y008249D02*
X011550Y008249D01*
X011549Y008151D02*
X010570Y008151D01*
X010576Y008052D02*
X011549Y008052D01*
X011549Y007954D02*
X010583Y007954D01*
X010589Y007855D02*
X011548Y007855D01*
X011548Y007757D02*
X010596Y007757D01*
X010602Y007658D02*
X011548Y007658D01*
X011547Y007560D02*
X010609Y007560D01*
X010615Y007461D02*
X011547Y007461D01*
X011547Y007363D02*
X010622Y007363D01*
X010628Y007264D02*
X011547Y007264D01*
X011546Y007166D02*
X010635Y007166D01*
X010641Y007067D02*
X011546Y007067D01*
X011546Y007070D02*
X011546Y006982D01*
X011548Y006980D01*
X011548Y006976D01*
X011612Y006915D01*
X011674Y006853D01*
X011678Y006853D01*
X011681Y006851D01*
X011769Y006853D01*
X011856Y006853D01*
X011859Y006855D01*
X011971Y006858D01*
X011935Y006808D01*
X011904Y006749D01*
X011883Y006685D01*
X011874Y006623D01*
X012260Y006623D01*
X012260Y006548D01*
X011874Y006548D01*
X011883Y006486D01*
X011904Y006422D01*
X011935Y006363D01*
X011974Y006309D01*
X012021Y006261D01*
X012075Y006222D01*
X012082Y006219D01*
X012019Y006155D01*
X011951Y005992D01*
X011951Y005815D01*
X012019Y005651D01*
X012144Y005526D01*
X012175Y005513D01*
X012167Y005505D01*
X012099Y005341D01*
X012099Y005164D01*
X012167Y005001D01*
X012292Y004875D01*
X012362Y004847D01*
X012344Y004829D01*
X012276Y004665D01*
X012276Y004488D01*
X012344Y004324D01*
X012469Y004199D01*
X012633Y004132D01*
X012810Y004132D01*
X012973Y004199D01*
X013098Y004324D01*
X013166Y004488D01*
X013166Y004665D01*
X013098Y004829D01*
X012973Y004954D01*
X012903Y004983D01*
X012921Y005001D01*
X012989Y005164D01*
X012989Y005341D01*
X012921Y005505D01*
X012796Y005630D01*
X012765Y005643D01*
X012773Y005651D01*
X012841Y005815D01*
X012841Y005992D01*
X012773Y006155D01*
X012648Y006280D01*
X012610Y006296D01*
X012622Y006309D01*
X012661Y006363D01*
X012692Y006422D01*
X012713Y006486D01*
X012722Y006548D01*
X012336Y006548D01*
X012336Y006623D01*
X012722Y006623D01*
X012713Y006685D01*
X012692Y006749D01*
X012661Y006808D01*
X012622Y006862D01*
X012618Y006866D01*
X018804Y006869D01*
X018894Y006867D01*
X018895Y006869D01*
X018897Y006869D01*
X018960Y006932D01*
X019025Y006994D01*
X019025Y006996D01*
X019026Y006997D01*
X019026Y007087D01*
X019045Y008340D01*
X024052Y008290D01*
X024055Y008287D01*
X024142Y008289D01*
X024229Y008288D01*
X024232Y008291D01*
X024237Y008292D01*
X024297Y008355D01*
X024359Y008416D01*
X024359Y008420D01*
X024363Y008424D01*
X024360Y008511D01*
X024361Y008598D01*
X024358Y008601D01*
X024338Y009328D01*
X024338Y009416D01*
X024335Y009419D01*
X024335Y009422D01*
X024271Y009483D01*
X024209Y009545D01*
X024205Y009545D01*
X024203Y009548D01*
X024115Y009545D01*
X020128Y009543D01*
X020128Y013472D01*
X022006Y013472D01*
X022135Y013600D01*
X022135Y014532D01*
X022006Y014661D01*
X019055Y014661D01*
X019052Y015349D01*
X019150Y015308D01*
X019280Y015308D01*
X019399Y015358D01*
X019445Y015403D01*
X019699Y015403D01*
X019745Y015358D01*
X019864Y015308D01*
X019993Y015308D01*
X020113Y015358D01*
X020204Y015449D01*
X020254Y015569D01*
X020254Y015698D01*
X020204Y015817D01*
X020113Y015909D01*
X019993Y015958D01*
X019864Y015958D01*
X019745Y015909D01*
X019699Y015863D01*
X019445Y015863D01*
X019399Y015909D01*
X019280Y015958D01*
X019150Y015958D01*
X019050Y015917D01*
X019050Y016012D01*
X019051Y016105D01*
X019049Y016107D01*
X019049Y016109D01*
X018983Y016175D01*
X018774Y016389D01*
X018776Y016389D01*
X018896Y016439D01*
X018987Y016530D01*
X019036Y016650D01*
X019036Y016779D01*
X018987Y016898D01*
X018896Y016990D01*
X018776Y017039D01*
X018647Y017039D01*
X018527Y016990D01*
X018479Y016942D01*
X017487Y016931D01*
X017034Y017390D01*
X017029Y018415D01*
X017073Y018459D01*
X017123Y018579D01*
X017123Y018708D01*
X017073Y018827D01*
X016982Y018919D01*
X016862Y018968D01*
X016733Y018968D01*
X016688Y018949D01*
X016750Y019013D01*
X016817Y019079D01*
X016817Y019081D01*
X016818Y019082D01*
X016817Y019176D01*
X016817Y019270D01*
X016816Y019271D01*
X016814Y019563D01*
X016899Y019563D01*
X016999Y019663D01*
X016999Y020804D01*
X016899Y020903D01*
X016886Y020903D01*
X016886Y021168D01*
X016883Y021190D01*
X016878Y021211D01*
X016869Y021232D01*
X016858Y021251D01*
X016844Y021269D01*
X016829Y021285D01*
X016811Y021298D01*
X016792Y021309D01*
X016771Y021318D01*
X016749Y021324D01*
X016727Y021326D01*
X016352Y021326D01*
X016330Y021324D01*
X016308Y021318D01*
X016288Y021309D01*
X016268Y021298D01*
X016251Y021285D01*
X016235Y021269D01*
X016221Y021251D01*
X016210Y021232D01*
X016202Y021211D01*
X016196Y021190D01*
X016193Y021168D01*
X016193Y020838D01*
X016159Y020804D01*
X016159Y019663D01*
X016258Y019563D01*
X016354Y019563D01*
X016356Y019270D01*
X015993Y018908D01*
X015925Y018841D01*
X015925Y018841D01*
X015925Y018841D01*
X015925Y018746D01*
X015919Y017631D01*
X015809Y017741D01*
X015809Y019563D01*
X015899Y019563D01*
X015999Y019663D01*
X015999Y020804D01*
X015923Y020880D01*
X015923Y021154D01*
X015920Y021176D01*
X015914Y021198D01*
X015906Y021218D01*
X015894Y021238D01*
X015881Y021255D01*
X015865Y021271D01*
X015847Y021285D01*
X015828Y021296D01*
X015808Y021304D01*
X015786Y021310D01*
X015764Y021313D01*
X015409Y021313D01*
X015550Y021699D01*
X015490Y021826D01*
X013968Y022380D01*
X015090Y023084D01*
X015109Y023093D01*
X015044Y023027D01*
X014986Y022888D01*
X014986Y022736D01*
X015044Y022597D01*
X015150Y022490D01*
X015290Y022432D01*
X015441Y022432D01*
X015581Y022490D01*
X015688Y022597D01*
X015746Y022736D01*
X015746Y022888D01*
X015688Y023027D01*
X015581Y023134D01*
X015506Y023165D01*
X015722Y023151D01*
X015994Y023057D01*
X016231Y022894D01*
X016326Y022795D01*
X017154Y021618D01*
X017154Y021618D01*
X017720Y020883D01*
X017629Y020883D01*
X017629Y020283D01*
X017979Y020283D01*
X017979Y020548D01*
X018932Y019311D01*
X018932Y019311D01*
X019147Y019055D01*
X019033Y019055D01*
X018894Y018997D01*
X018787Y018890D01*
X018729Y018751D01*
X018729Y018599D01*
X018787Y018460D01*
X018894Y018353D01*
X019033Y018295D01*
X019185Y018295D01*
X019324Y018353D01*
X019431Y018460D01*
X019489Y018599D01*
X019489Y018649D01*
X019984Y018061D01*
X019875Y018016D01*
X019768Y017909D01*
X019710Y017770D01*
X019710Y017618D01*
X019768Y017479D01*
X019875Y017372D01*
X020015Y017314D01*
X020166Y017314D01*
X020305Y017372D01*
X020412Y017479D01*
X020433Y017529D01*
X020808Y017084D01*
X021181Y016679D01*
X021128Y016679D01*
X020989Y016621D01*
X020882Y016514D01*
X020824Y016374D01*
X020824Y016223D01*
X020882Y016084D01*
X020989Y015977D01*
X021128Y015919D01*
X021279Y015919D01*
X021419Y015977D01*
X021526Y016084D01*
X021584Y016223D01*
X021584Y016241D01*
X022192Y015580D01*
X022168Y015580D01*
X022029Y015522D01*
X021922Y015415D01*
X021864Y015275D01*
X021864Y015124D01*
X021922Y014985D01*
X022029Y014878D01*
X022168Y014820D01*
X022320Y014820D01*
X022459Y014878D01*
X022566Y014985D01*
X022620Y015114D01*
X022780Y014940D01*
X023851Y013873D01*
X023841Y013869D01*
X023734Y013762D01*
X023677Y013623D01*
X023677Y013471D01*
X023734Y013332D01*
X023841Y013225D01*
X023981Y013167D01*
X024132Y013167D01*
X024272Y013225D01*
X024379Y013332D01*
X024383Y013343D01*
X024844Y012885D01*
X025061Y012687D01*
X024751Y012687D01*
X024499Y012435D01*
X024499Y012079D01*
X024751Y011827D01*
X025108Y011827D01*
X025192Y011911D01*
X025177Y011875D01*
X025177Y011724D01*
X025235Y011584D01*
X025342Y011478D01*
X025481Y011420D01*
X025633Y011420D01*
X025772Y011478D01*
X025879Y011584D01*
X025937Y011724D01*
X025937Y011875D01*
X025929Y011894D01*
X025930Y011894D01*
X025929Y011894D02*
X026708Y011183D01*
X026669Y011183D01*
X026669Y010803D01*
X027049Y010803D01*
X027049Y010877D01*
X028104Y009995D01*
X028293Y009813D01*
X028381Y009708D01*
X028506Y009465D01*
X028554Y009195D01*
X028519Y008923D01*
X028473Y008798D01*
X028470Y008790D01*
X028448Y008744D01*
X028448Y008739D01*
X027379Y006177D01*
X027366Y006146D01*
X027357Y006125D01*
X027316Y006046D01*
X027206Y005927D01*
X027233Y005993D01*
X027233Y006144D01*
X027175Y006284D01*
X027068Y006391D01*
X026929Y006449D01*
X026777Y006449D01*
X026638Y006391D01*
X026531Y006284D01*
X026473Y006144D01*
X026473Y005993D01*
X026483Y005969D01*
X024546Y007159D01*
X024596Y007179D01*
X024702Y007286D01*
X024760Y007426D01*
X024760Y007577D01*
X024702Y007717D01*
X024596Y007824D01*
X024456Y007882D01*
X024305Y007882D01*
X024165Y007824D01*
X024058Y007717D01*
X024000Y007577D01*
X024000Y007495D01*
X023858Y007607D01*
X023858Y007607D01*
X023486Y007773D01*
X023486Y007773D01*
X023084Y007843D01*
X022678Y007814D01*
X022291Y007685D01*
X022139Y007588D01*
X021921Y007495D01*
X021921Y007568D01*
X021863Y007708D01*
X021757Y007814D01*
X021617Y007872D01*
X021466Y007872D01*
X021326Y007814D01*
X021219Y007708D01*
X021161Y007568D01*
X021161Y007417D01*
X021219Y007277D01*
X021276Y007220D01*
X017321Y005533D01*
X017321Y005565D01*
X017263Y005704D01*
X017156Y005811D01*
X017016Y005869D01*
X016865Y005869D01*
X016725Y005811D01*
X016618Y005704D01*
X016561Y005565D01*
X016561Y005414D01*
X016618Y005274D01*
X016647Y005245D01*
X014907Y004503D01*
X014958Y004626D01*
X014958Y004777D01*
X014900Y004917D01*
X014794Y005024D01*
X014654Y005082D01*
X014503Y005082D01*
X014363Y005024D01*
X014256Y004917D01*
X014198Y004777D01*
X014198Y004626D01*
X014256Y004487D01*
X014363Y004380D01*
X014493Y004326D01*
X011980Y003254D01*
X011945Y003244D01*
X011930Y003233D01*
X011912Y003225D01*
X011887Y003199D01*
X011851Y003185D01*
X011653Y003156D01*
X011455Y003190D01*
X011347Y003249D01*
X011399Y003228D01*
X011550Y003228D01*
X011689Y003286D01*
X011796Y003393D01*
X011854Y003532D01*
X011854Y003683D01*
X011796Y003823D01*
X011689Y003930D01*
X011550Y003988D01*
X011399Y003988D01*
X011259Y003930D01*
X011152Y003823D01*
X011094Y003683D01*
X011094Y003569D01*
X010934Y004528D01*
X010666Y006692D01*
X010523Y008868D01*
X010518Y009377D01*
X010551Y009344D01*
X010691Y009286D01*
X010842Y009286D01*
X010982Y009344D01*
X011088Y009451D01*
X011146Y009591D01*
X011146Y009742D01*
X011088Y009882D01*
X010982Y009988D01*
X010842Y010046D01*
X010691Y010046D01*
X010551Y009988D01*
X010513Y009951D01*
X010504Y011049D01*
X010610Y013227D01*
X010684Y013926D01*
X010782Y013828D01*
X010922Y013770D01*
X011073Y013770D01*
X011213Y013828D01*
X011320Y013935D01*
X011377Y014075D01*
X011377Y014226D01*
X011320Y014365D01*
X011213Y014472D01*
X011073Y014530D01*
X010922Y014530D01*
X010782Y014472D01*
X010737Y014428D01*
X010810Y015113D01*
X012246Y014590D01*
X012246Y014255D01*
X012249Y014232D01*
X012255Y014211D01*
X012263Y014190D01*
X012266Y014186D01*
X011789Y014186D01*
X011698Y014186D01*
X011697Y014186D01*
X011633Y014122D01*
X011568Y014058D01*
X011568Y014057D01*
X011568Y013966D01*
X011546Y007161D01*
X011543Y007158D01*
X011546Y007070D01*
X011556Y006969D02*
X010648Y006969D01*
X010654Y006870D02*
X011657Y006870D01*
X011766Y007113D02*
X011788Y013966D01*
X012750Y013966D01*
X012805Y013911D01*
X012897Y013873D01*
X015345Y013873D01*
X015345Y012842D01*
X013008Y012813D01*
X013012Y010913D01*
X012258Y010913D01*
X012159Y010814D01*
X012159Y010173D01*
X012237Y010094D01*
X012232Y010093D01*
X012211Y010084D01*
X012192Y010073D01*
X012174Y010060D01*
X012159Y010044D01*
X012145Y010026D01*
X012134Y010007D01*
X012125Y009986D01*
X012120Y009965D01*
X012117Y009943D01*
X012117Y009567D01*
X012120Y009545D01*
X012125Y009523D01*
X012134Y009503D01*
X012145Y009484D01*
X012159Y009466D01*
X012159Y009063D01*
X012258Y008963D01*
X012810Y008963D01*
X012809Y008957D01*
X012806Y008935D01*
X012806Y008853D01*
X012258Y008853D01*
X012159Y008754D01*
X012159Y008113D01*
X012258Y008013D01*
X013399Y008013D01*
X013421Y008036D01*
X013422Y008035D01*
X013488Y007968D01*
X013489Y007968D01*
X013490Y007967D01*
X013584Y007967D01*
X013679Y007966D01*
X013679Y007967D01*
X016119Y007963D01*
X016119Y007962D01*
X016215Y007962D01*
X016310Y007962D01*
X016377Y008030D01*
X016445Y008097D01*
X016767Y008420D01*
X016902Y008554D01*
X016902Y010254D01*
X017160Y010511D01*
X018459Y010511D01*
X018469Y010503D01*
X018552Y010511D01*
X018636Y010511D01*
X018645Y010521D01*
X018659Y010522D01*
X018712Y010587D01*
X018771Y010646D01*
X018771Y010659D01*
X019055Y011009D01*
X019114Y011068D01*
X019114Y011081D01*
X019123Y011091D01*
X019114Y011175D01*
X019114Y011404D01*
X019159Y011449D01*
X019208Y011569D01*
X019208Y011698D01*
X019159Y011817D01*
X019123Y011853D01*
X019172Y011969D01*
X019172Y012098D01*
X019122Y012217D01*
X019074Y012265D01*
X019111Y012355D01*
X019111Y012485D01*
X019908Y012485D01*
X019908Y012583D02*
X019070Y012583D01*
X019062Y012604D02*
X019050Y012615D01*
X019095Y012660D01*
X019145Y012780D01*
X019145Y012909D01*
X019095Y013029D01*
X019086Y013038D01*
X019106Y013058D01*
X019156Y013178D01*
X019156Y013307D01*
X019106Y013426D01*
X019094Y013439D01*
X019104Y013449D01*
X019154Y013569D01*
X019154Y013698D01*
X019104Y013817D01*
X019058Y013864D01*
X021915Y013864D01*
X021915Y013962D02*
X019057Y013962D01*
X019058Y013864D02*
X019056Y014441D01*
X021915Y014441D01*
X021915Y013692D01*
X019908Y013692D01*
X019908Y009524D01*
X019912Y009323D01*
X024118Y009325D01*
X024140Y008509D01*
X018828Y008563D01*
X018806Y007089D01*
X013123Y007087D01*
X013077Y007132D01*
X013076Y007132D01*
X013074Y007134D01*
X012993Y007132D01*
X012912Y007132D01*
X012910Y007131D01*
X011766Y007113D01*
X011766Y007166D02*
X018807Y007166D01*
X018809Y007264D02*
X011767Y007264D01*
X011767Y007363D02*
X018810Y007363D01*
X018812Y007461D02*
X011767Y007461D01*
X011767Y007560D02*
X018813Y007560D01*
X018815Y007658D02*
X011768Y007658D01*
X011768Y007757D02*
X018816Y007757D01*
X018818Y007855D02*
X011768Y007855D01*
X011769Y007954D02*
X018819Y007954D01*
X018821Y008052D02*
X016400Y008052D01*
X016445Y008097D02*
X016445Y008097D01*
X016498Y008151D02*
X018822Y008151D01*
X018824Y008249D02*
X016597Y008249D01*
X016695Y008348D02*
X018825Y008348D01*
X018827Y008446D02*
X016794Y008446D01*
X016892Y008545D02*
X018828Y008545D01*
X019044Y008249D02*
X028244Y008249D01*
X028203Y008151D02*
X019042Y008151D01*
X019041Y008052D02*
X028162Y008052D01*
X028121Y007954D02*
X019039Y007954D01*
X019038Y007855D02*
X021425Y007855D01*
X021268Y007757D02*
X019036Y007757D01*
X019035Y007658D02*
X021199Y007658D01*
X021161Y007560D02*
X019033Y007560D01*
X019032Y007461D02*
X021161Y007461D01*
X021184Y007363D02*
X019030Y007363D01*
X019029Y007264D02*
X021232Y007264D01*
X021149Y007166D02*
X019027Y007166D01*
X019026Y007067D02*
X020918Y007067D01*
X020687Y006969D02*
X018999Y006969D01*
X018899Y006870D02*
X020456Y006870D01*
X020225Y006772D02*
X012680Y006772D01*
X012714Y006673D02*
X019994Y006673D01*
X019764Y006575D02*
X012336Y006575D01*
X012260Y006575D02*
X010681Y006575D01*
X010668Y006673D02*
X011882Y006673D01*
X011916Y006772D02*
X010661Y006772D01*
X010693Y006476D02*
X011438Y006476D01*
X011446Y006484D02*
X011355Y006393D01*
X011305Y006273D01*
X011305Y006144D01*
X011355Y006025D01*
X011380Y006000D01*
X011378Y005467D01*
X011352Y005441D01*
X011303Y005322D01*
X011303Y005193D01*
X011352Y005073D01*
X011444Y004982D01*
X011563Y004932D01*
X011693Y004932D01*
X011812Y004982D01*
X011904Y005073D01*
X011953Y005193D01*
X011953Y005322D01*
X011904Y005441D01*
X011878Y005466D01*
X011880Y005999D01*
X011906Y006025D01*
X011955Y006144D01*
X011955Y006273D01*
X011906Y006393D01*
X011814Y006484D01*
X011695Y006534D01*
X011566Y006534D01*
X011446Y006484D01*
X011348Y006378D02*
X010705Y006378D01*
X010717Y006279D02*
X011308Y006279D01*
X011305Y006181D02*
X010729Y006181D01*
X010741Y006082D02*
X011331Y006082D01*
X011380Y005984D02*
X010754Y005984D01*
X010766Y005885D02*
X011379Y005885D01*
X011379Y005787D02*
X010778Y005787D01*
X010790Y005688D02*
X011379Y005688D01*
X011379Y005590D02*
X010802Y005590D01*
X010815Y005491D02*
X011379Y005491D01*
X011332Y005393D02*
X010827Y005393D01*
X010839Y005294D02*
X011303Y005294D01*
X011303Y005196D02*
X010851Y005196D01*
X010863Y005097D02*
X011342Y005097D01*
X011427Y004999D02*
X010875Y004999D01*
X010888Y004900D02*
X012267Y004900D01*
X012333Y004802D02*
X010900Y004802D01*
X010912Y004703D02*
X012292Y004703D01*
X012276Y004605D02*
X010924Y004605D01*
X010937Y004506D02*
X012276Y004506D01*
X012309Y004408D02*
X010954Y004408D01*
X010970Y004309D02*
X012359Y004309D01*
X012457Y004211D02*
X010987Y004211D01*
X011003Y004112D02*
X013992Y004112D01*
X014223Y004211D02*
X012985Y004211D01*
X013083Y004309D02*
X014453Y004309D01*
X014335Y004408D02*
X013133Y004408D01*
X013166Y004506D02*
X014248Y004506D01*
X014207Y004605D02*
X013166Y004605D01*
X013150Y004703D02*
X014198Y004703D01*
X014208Y004802D02*
X013109Y004802D01*
X013027Y004900D02*
X014249Y004900D01*
X014338Y004999D02*
X012920Y004999D01*
X012961Y005097D02*
X016300Y005097D01*
X016070Y004999D02*
X014819Y004999D01*
X014907Y004900D02*
X015839Y004900D01*
X015608Y004802D02*
X014948Y004802D01*
X014958Y004703D02*
X015377Y004703D01*
X015146Y004605D02*
X014949Y004605D01*
X014915Y004506D02*
X014909Y004506D01*
X013761Y004014D02*
X011020Y004014D01*
X011036Y003915D02*
X011244Y003915D01*
X011149Y003817D02*
X011053Y003817D01*
X011069Y003718D02*
X011109Y003718D01*
X011094Y003620D02*
X011086Y003620D01*
X011390Y003226D02*
X011914Y003226D01*
X011728Y003324D02*
X012145Y003324D01*
X012376Y003423D02*
X011809Y003423D01*
X011850Y003521D02*
X012606Y003521D01*
X012837Y003620D02*
X011854Y003620D01*
X011840Y003718D02*
X013068Y003718D01*
X013299Y003817D02*
X011799Y003817D01*
X011704Y003915D02*
X013530Y003915D01*
X012989Y005196D02*
X016531Y005196D01*
X016610Y005294D02*
X012989Y005294D01*
X012968Y005393D02*
X016569Y005393D01*
X016561Y005491D02*
X012927Y005491D01*
X012836Y005590D02*
X016571Y005590D01*
X016612Y005688D02*
X012789Y005688D01*
X012829Y005787D02*
X016701Y005787D01*
X017180Y005787D02*
X017917Y005787D01*
X018147Y005885D02*
X012841Y005885D01*
X012841Y005984D02*
X018378Y005984D01*
X018609Y006082D02*
X012803Y006082D01*
X012748Y006181D02*
X018840Y006181D01*
X019071Y006279D02*
X012649Y006279D01*
X012669Y006378D02*
X019302Y006378D01*
X019533Y006476D02*
X012709Y006476D01*
X012044Y006181D02*
X011955Y006181D01*
X011953Y006279D02*
X012003Y006279D01*
X011927Y006378D02*
X011912Y006378D01*
X011887Y006476D02*
X011822Y006476D01*
X011930Y006082D02*
X011988Y006082D01*
X011951Y005984D02*
X011880Y005984D01*
X011879Y005885D02*
X011951Y005885D01*
X011962Y005787D02*
X011879Y005787D01*
X011879Y005688D02*
X012003Y005688D01*
X012080Y005590D02*
X011879Y005590D01*
X011879Y005491D02*
X012161Y005491D01*
X012121Y005393D02*
X011924Y005393D01*
X011953Y005294D02*
X012099Y005294D01*
X012099Y005196D02*
X011953Y005196D01*
X011914Y005097D02*
X012127Y005097D01*
X012169Y004999D02*
X011829Y004999D01*
X011769Y008052D02*
X012219Y008052D01*
X012159Y008151D02*
X011769Y008151D01*
X011770Y008249D02*
X012159Y008249D01*
X012159Y008348D02*
X011770Y008348D01*
X011770Y008446D02*
X012159Y008446D01*
X012159Y008545D02*
X011771Y008545D01*
X011771Y008643D02*
X012159Y008643D01*
X012159Y008742D02*
X011771Y008742D01*
X011772Y008840D02*
X012245Y008840D01*
X012184Y009037D02*
X011772Y009037D01*
X011772Y008939D02*
X012806Y008939D01*
X012159Y009136D02*
X011773Y009136D01*
X011773Y009234D02*
X012159Y009234D01*
X012159Y009333D02*
X011773Y009333D01*
X011774Y009431D02*
X012159Y009431D01*
X012159Y009466D02*
X012159Y009466D01*
X012124Y009530D02*
X011774Y009530D01*
X011774Y009628D02*
X012117Y009628D01*
X012117Y009727D02*
X011774Y009727D01*
X011775Y009825D02*
X012117Y009825D01*
X012117Y009924D02*
X011775Y009924D01*
X011775Y010022D02*
X012143Y010022D01*
X012211Y010121D02*
X011776Y010121D01*
X011776Y010219D02*
X012159Y010219D01*
X012159Y010318D02*
X011776Y010318D01*
X011777Y010416D02*
X012159Y010416D01*
X012159Y010515D02*
X011777Y010515D01*
X011777Y010613D02*
X012159Y010613D01*
X012159Y010712D02*
X011778Y010712D01*
X011778Y010810D02*
X012159Y010810D01*
X012254Y010909D02*
X011778Y010909D01*
X011779Y011007D02*
X013012Y011007D01*
X013012Y011106D02*
X011779Y011106D01*
X011779Y011204D02*
X013011Y011204D01*
X013011Y011303D02*
X011780Y011303D01*
X011780Y011401D02*
X013011Y011401D01*
X013011Y011500D02*
X011780Y011500D01*
X011781Y011598D02*
X013010Y011598D01*
X013010Y011697D02*
X011781Y011697D01*
X011781Y011795D02*
X013010Y011795D01*
X013010Y011894D02*
X011781Y011894D01*
X011782Y011992D02*
X013010Y011992D01*
X013009Y012091D02*
X011782Y012091D01*
X011782Y012189D02*
X013009Y012189D01*
X013009Y012288D02*
X011783Y012288D01*
X011783Y012386D02*
X013009Y012386D01*
X013009Y012485D02*
X011783Y012485D01*
X011784Y012583D02*
X013008Y012583D01*
X013008Y012682D02*
X011784Y012682D01*
X011784Y012780D02*
X013008Y012780D01*
X013228Y012596D02*
X015346Y012622D01*
X015436Y012622D01*
X015437Y012623D01*
X015439Y012623D01*
X015502Y012687D01*
X015565Y012751D01*
X015565Y012752D01*
X015566Y012754D01*
X015565Y012843D01*
X015565Y013873D01*
X017596Y013873D01*
X017599Y013874D01*
X017599Y012638D01*
X017964Y012272D01*
X018029Y012205D01*
X018031Y012205D01*
X018033Y012203D01*
X018126Y012203D01*
X018189Y012202D01*
X018189Y011508D01*
X016378Y011508D01*
X016249Y011379D01*
X016249Y010610D01*
X016170Y010531D01*
X016170Y008834D01*
X016061Y008725D01*
X013861Y008704D01*
X013811Y008754D01*
X013811Y009273D01*
X013651Y009434D01*
X013516Y009569D01*
X013499Y009569D01*
X013499Y009704D01*
X013399Y009803D01*
X013234Y009803D01*
X013234Y010093D01*
X013348Y010093D01*
X013387Y010104D01*
X013421Y010123D01*
X013449Y010151D01*
X013468Y010185D01*
X013479Y010224D01*
X013479Y010443D01*
X013233Y010443D01*
X013233Y010543D01*
X013479Y010543D01*
X013479Y010763D01*
X013468Y010801D01*
X013449Y010835D01*
X013421Y010863D01*
X013387Y010883D01*
X013348Y010893D01*
X013232Y010893D01*
X013228Y012596D01*
X013228Y012583D02*
X017653Y012583D01*
X017599Y012682D02*
X015496Y012682D01*
X015566Y012780D02*
X017599Y012780D01*
X017599Y012879D02*
X015565Y012879D01*
X015565Y012977D02*
X017599Y012977D01*
X017599Y013076D02*
X015565Y013076D01*
X015565Y013174D02*
X017599Y013174D01*
X017599Y013273D02*
X015565Y013273D01*
X015565Y013371D02*
X017599Y013371D01*
X017599Y013470D02*
X015565Y013470D01*
X015565Y013568D02*
X017599Y013568D01*
X017599Y013667D02*
X015565Y013667D01*
X015565Y013765D02*
X017599Y013765D01*
X017599Y013864D02*
X015565Y013864D01*
X015345Y013864D02*
X011788Y013864D01*
X011788Y013962D02*
X012754Y013962D01*
X012246Y014258D02*
X011364Y014258D01*
X011377Y014159D02*
X011671Y014159D01*
X011697Y014186D02*
X011697Y014186D01*
X011572Y014061D02*
X011372Y014061D01*
X011331Y013962D02*
X011568Y013962D01*
X011568Y014057D02*
X011568Y014057D01*
X011568Y013864D02*
X011249Y013864D01*
X011568Y013765D02*
X010667Y013765D01*
X010657Y013667D02*
X011567Y013667D01*
X011567Y013568D02*
X010646Y013568D01*
X010636Y013470D02*
X011567Y013470D01*
X011566Y013371D02*
X010625Y013371D01*
X010615Y013273D02*
X011566Y013273D01*
X011566Y013174D02*
X010607Y013174D01*
X010603Y013076D02*
X011565Y013076D01*
X011565Y012977D02*
X010598Y012977D01*
X010593Y012879D02*
X011565Y012879D01*
X011564Y012780D02*
X010588Y012780D01*
X010583Y012682D02*
X011564Y012682D01*
X011564Y012583D02*
X010579Y012583D01*
X010574Y012485D02*
X011563Y012485D01*
X011563Y012386D02*
X010569Y012386D01*
X010564Y012288D02*
X011563Y012288D01*
X011562Y012189D02*
X010559Y012189D01*
X010555Y012091D02*
X011562Y012091D01*
X011562Y011992D02*
X010550Y011992D01*
X010545Y011894D02*
X011561Y011894D01*
X011561Y011795D02*
X010540Y011795D01*
X010536Y011697D02*
X011561Y011697D01*
X011561Y011598D02*
X010531Y011598D01*
X010526Y011500D02*
X011560Y011500D01*
X011560Y011401D02*
X010521Y011401D01*
X010516Y011303D02*
X011560Y011303D01*
X011559Y011204D02*
X010512Y011204D01*
X010507Y011106D02*
X011559Y011106D01*
X011559Y011007D02*
X010504Y011007D01*
X010505Y010909D02*
X011558Y010909D01*
X011558Y010810D02*
X010506Y010810D01*
X010507Y010712D02*
X011558Y010712D01*
X011557Y010613D02*
X010508Y010613D01*
X010509Y010515D02*
X011557Y010515D01*
X011557Y010416D02*
X010509Y010416D01*
X010510Y010318D02*
X011556Y010318D01*
X011556Y010219D02*
X010511Y010219D01*
X010512Y010121D02*
X011556Y010121D01*
X011555Y010022D02*
X010900Y010022D01*
X011046Y009924D02*
X011555Y009924D01*
X011555Y009825D02*
X011112Y009825D01*
X011146Y009727D02*
X011554Y009727D01*
X011554Y009628D02*
X011146Y009628D01*
X011121Y009530D02*
X011554Y009530D01*
X011554Y009431D02*
X011069Y009431D01*
X010954Y009333D02*
X011553Y009333D01*
X011553Y009234D02*
X010520Y009234D01*
X010520Y009136D02*
X011553Y009136D01*
X011552Y009037D02*
X010521Y009037D01*
X010522Y008939D02*
X011552Y008939D01*
X011552Y008840D02*
X010525Y008840D01*
X010531Y008742D02*
X011551Y008742D01*
X011551Y008643D02*
X010538Y008643D01*
X010544Y008545D02*
X011551Y008545D01*
X011550Y008446D02*
X010551Y008446D01*
X010557Y008348D02*
X011550Y008348D01*
X010578Y009333D02*
X010519Y009333D01*
X010513Y010022D02*
X010633Y010022D01*
X013234Y010022D02*
X016170Y010022D01*
X016170Y009924D02*
X015639Y009924D01*
X015621Y009942D02*
X015467Y010006D01*
X015300Y010006D01*
X015145Y009942D01*
X015027Y009824D01*
X014963Y009669D01*
X014963Y009502D01*
X015027Y009348D01*
X015145Y009230D01*
X015300Y009166D01*
X015467Y009166D01*
X015621Y009230D01*
X015739Y009348D01*
X015803Y009502D01*
X015803Y009669D01*
X015739Y009824D01*
X015621Y009942D01*
X015738Y009825D02*
X016170Y009825D01*
X016170Y009727D02*
X015779Y009727D01*
X015803Y009628D02*
X016170Y009628D01*
X016170Y009530D02*
X015803Y009530D01*
X015774Y009431D02*
X016170Y009431D01*
X016170Y009333D02*
X015724Y009333D01*
X015626Y009234D02*
X016170Y009234D01*
X016170Y009136D02*
X013811Y009136D01*
X013811Y009234D02*
X015141Y009234D01*
X015042Y009333D02*
X013752Y009333D01*
X013653Y009431D02*
X014993Y009431D01*
X014963Y009530D02*
X013555Y009530D01*
X013499Y009628D02*
X014963Y009628D01*
X014987Y009727D02*
X013476Y009727D01*
X013234Y009825D02*
X015029Y009825D01*
X015127Y009924D02*
X013234Y009924D01*
X013417Y010121D02*
X016170Y010121D01*
X016170Y010219D02*
X013478Y010219D01*
X013479Y010318D02*
X016170Y010318D01*
X016170Y010416D02*
X013479Y010416D01*
X013479Y010613D02*
X016249Y010613D01*
X016249Y010712D02*
X013479Y010712D01*
X013463Y010810D02*
X016249Y010810D01*
X016249Y010909D02*
X013232Y010909D01*
X013232Y011007D02*
X016249Y011007D01*
X016249Y011106D02*
X013232Y011106D01*
X013231Y011204D02*
X016249Y011204D01*
X016249Y011303D02*
X013231Y011303D01*
X013231Y011401D02*
X016272Y011401D01*
X016370Y011500D02*
X013231Y011500D01*
X013230Y011598D02*
X018189Y011598D01*
X018189Y011697D02*
X013230Y011697D01*
X013230Y011795D02*
X018189Y011795D01*
X018189Y011894D02*
X013230Y011894D01*
X013230Y011992D02*
X018189Y011992D01*
X018189Y012091D02*
X013229Y012091D01*
X013229Y012189D02*
X018189Y012189D01*
X017949Y012288D02*
X013229Y012288D01*
X013229Y012386D02*
X017850Y012386D01*
X017752Y012485D02*
X013229Y012485D01*
X011785Y012879D02*
X015345Y012879D01*
X015345Y012977D02*
X011785Y012977D01*
X011785Y013076D02*
X015345Y013076D01*
X015345Y013174D02*
X011786Y013174D01*
X011786Y013273D02*
X015345Y013273D01*
X015345Y013371D02*
X011786Y013371D01*
X011787Y013470D02*
X015345Y013470D01*
X015345Y013568D02*
X011787Y013568D01*
X011787Y013667D02*
X015345Y013667D01*
X015345Y013765D02*
X011788Y013765D01*
X012246Y014356D02*
X011323Y014356D01*
X011230Y014455D02*
X012246Y014455D01*
X012246Y014553D02*
X010751Y014553D01*
X010740Y014455D02*
X010765Y014455D01*
X010761Y014652D02*
X012077Y014652D01*
X011806Y014750D02*
X010772Y014750D01*
X010782Y014849D02*
X011536Y014849D01*
X011265Y014947D02*
X010793Y014947D01*
X010803Y015046D02*
X010995Y015046D01*
X010746Y013864D02*
X010678Y013864D01*
X013451Y015933D02*
X013488Y016033D01*
X013979Y016033D01*
X013979Y016253D01*
X013968Y016291D01*
X013949Y016325D01*
X013921Y016353D01*
X013887Y016373D01*
X013848Y016383D01*
X013615Y016383D01*
X015159Y020625D01*
X015159Y019663D01*
X015258Y019563D01*
X015349Y019563D01*
X015349Y017741D01*
X015349Y017741D01*
X015349Y017646D01*
X015349Y017551D01*
X015349Y017551D01*
X015349Y017551D01*
X015416Y017483D01*
X015483Y017416D01*
X015484Y017416D01*
X016906Y015995D01*
X016974Y015928D01*
X016974Y015928D01*
X016974Y015928D01*
X017069Y015928D01*
X017751Y015928D01*
X017733Y015920D01*
X017687Y015874D01*
X015557Y015864D01*
X015513Y015909D01*
X015393Y015958D01*
X015264Y015958D01*
X015145Y015909D01*
X015053Y015817D01*
X015004Y015698D01*
X015004Y015569D01*
X015047Y015463D01*
X013999Y015463D01*
X013999Y015554D01*
X013930Y015622D01*
X013949Y015641D01*
X013968Y015675D01*
X013979Y015714D01*
X013979Y015933D01*
X013451Y015933D01*
X013487Y016031D02*
X016871Y016031D01*
X016969Y015932D02*
X015456Y015932D01*
X015201Y015932D02*
X013979Y015932D01*
X013979Y015834D02*
X015070Y015834D01*
X015019Y015735D02*
X013979Y015735D01*
X013944Y015637D02*
X015004Y015637D01*
X015016Y015538D02*
X013999Y015538D01*
X013979Y016129D02*
X016772Y016129D01*
X016673Y016228D02*
X013979Y016228D01*
X013948Y016326D02*
X016575Y016326D01*
X016476Y016425D02*
X013630Y016425D01*
X013666Y016523D02*
X016378Y016523D01*
X016279Y016622D02*
X013702Y016622D01*
X013738Y016720D02*
X016180Y016720D01*
X016082Y016819D02*
X013774Y016819D01*
X013809Y016917D02*
X015983Y016917D01*
X015884Y017016D02*
X013845Y017016D01*
X013881Y017114D02*
X015786Y017114D01*
X015687Y017213D02*
X013917Y017213D01*
X013953Y017311D02*
X015588Y017311D01*
X015490Y017410D02*
X013989Y017410D01*
X014024Y017508D02*
X015391Y017508D01*
X015349Y017607D02*
X014060Y017607D01*
X014096Y017705D02*
X015349Y017705D01*
X015349Y017804D02*
X014132Y017804D01*
X014168Y017902D02*
X015349Y017902D01*
X015349Y018001D02*
X014204Y018001D01*
X014240Y018099D02*
X015349Y018099D01*
X015349Y018198D02*
X014275Y018198D01*
X014311Y018296D02*
X015349Y018296D01*
X015349Y018395D02*
X014347Y018395D01*
X014383Y018493D02*
X015349Y018493D01*
X015349Y018592D02*
X014419Y018592D01*
X014455Y018690D02*
X015349Y018690D01*
X015349Y018789D02*
X014491Y018789D01*
X014526Y018887D02*
X015349Y018887D01*
X015349Y018986D02*
X014562Y018986D01*
X014598Y019084D02*
X015349Y019084D01*
X015349Y019183D02*
X014634Y019183D01*
X014670Y019281D02*
X015349Y019281D01*
X015349Y019380D02*
X014706Y019380D01*
X014742Y019478D02*
X015349Y019478D01*
X015245Y019577D02*
X014777Y019577D01*
X014813Y019675D02*
X015159Y019675D01*
X015159Y019774D02*
X014849Y019774D01*
X014885Y019872D02*
X015159Y019872D01*
X015159Y019971D02*
X014921Y019971D01*
X014957Y020069D02*
X015159Y020069D01*
X015159Y020168D02*
X014992Y020168D01*
X015028Y020266D02*
X015159Y020266D01*
X015159Y020365D02*
X015064Y020365D01*
X015100Y020463D02*
X015159Y020463D01*
X015159Y020562D02*
X015136Y020562D01*
X015945Y020857D02*
X016193Y020857D01*
X016193Y020956D02*
X015923Y020956D01*
X015923Y021054D02*
X016193Y021054D01*
X016193Y021153D02*
X015923Y021153D01*
X015884Y021251D02*
X016221Y021251D01*
X016159Y020759D02*
X015999Y020759D01*
X015999Y020660D02*
X016159Y020660D01*
X016159Y020562D02*
X015999Y020562D01*
X015999Y020463D02*
X016159Y020463D01*
X016159Y020365D02*
X015999Y020365D01*
X015999Y020266D02*
X016159Y020266D01*
X016159Y020168D02*
X015999Y020168D01*
X015999Y020069D02*
X016159Y020069D01*
X016159Y019971D02*
X015999Y019971D01*
X015999Y019872D02*
X016159Y019872D01*
X016159Y019774D02*
X015999Y019774D01*
X015999Y019675D02*
X016159Y019675D01*
X016245Y019577D02*
X015913Y019577D01*
X015809Y019478D02*
X016355Y019478D01*
X016356Y019380D02*
X015809Y019380D01*
X015809Y019281D02*
X016356Y019281D01*
X016269Y019183D02*
X015809Y019183D01*
X015809Y019084D02*
X016170Y019084D01*
X016071Y018986D02*
X015809Y018986D01*
X015809Y018887D02*
X015972Y018887D01*
X015925Y018789D02*
X015809Y018789D01*
X015809Y018690D02*
X015924Y018690D01*
X015924Y018592D02*
X015809Y018592D01*
X015809Y018493D02*
X015923Y018493D01*
X015923Y018395D02*
X015809Y018395D01*
X015809Y018296D02*
X015922Y018296D01*
X015922Y018198D02*
X015809Y018198D01*
X015809Y018099D02*
X015921Y018099D01*
X015921Y018001D02*
X015809Y018001D01*
X015809Y017902D02*
X015921Y017902D01*
X015920Y017804D02*
X015809Y017804D01*
X015845Y017705D02*
X015920Y017705D01*
X017033Y017705D02*
X019710Y017705D01*
X019715Y017607D02*
X017033Y017607D01*
X017034Y017508D02*
X019756Y017508D01*
X019837Y017410D02*
X017034Y017410D01*
X017111Y017311D02*
X020616Y017311D01*
X020699Y017213D02*
X017209Y017213D01*
X017306Y017114D02*
X020782Y017114D01*
X020808Y017084D02*
X020808Y017084D01*
X020871Y017016D02*
X018833Y017016D01*
X018968Y016917D02*
X020961Y016917D01*
X021052Y016819D02*
X019020Y016819D01*
X019036Y016720D02*
X021142Y016720D01*
X020991Y016622D02*
X019025Y016622D01*
X018980Y016523D02*
X020891Y016523D01*
X020845Y016425D02*
X018862Y016425D01*
X018835Y016326D02*
X020824Y016326D01*
X020824Y016228D02*
X018931Y016228D01*
X019029Y016129D02*
X020863Y016129D01*
X020934Y016031D02*
X019050Y016031D01*
X019050Y015932D02*
X019088Y015932D01*
X019342Y015932D02*
X019801Y015932D01*
X020056Y015932D02*
X021096Y015932D01*
X021312Y015932D02*
X021867Y015932D01*
X021958Y015834D02*
X020188Y015834D01*
X020238Y015735D02*
X022049Y015735D01*
X022139Y015637D02*
X020254Y015637D01*
X020241Y015538D02*
X022069Y015538D01*
X021947Y015440D02*
X020195Y015440D01*
X020073Y015341D02*
X021891Y015341D01*
X021864Y015243D02*
X019053Y015243D01*
X019052Y015341D02*
X019071Y015341D01*
X019053Y015144D02*
X021864Y015144D01*
X021896Y015046D02*
X019053Y015046D01*
X019054Y014947D02*
X021959Y014947D01*
X022098Y014849D02*
X019054Y014849D01*
X019055Y014750D02*
X022971Y014750D01*
X023070Y014652D02*
X022015Y014652D01*
X022113Y014553D02*
X023169Y014553D01*
X023268Y014455D02*
X022135Y014455D01*
X022135Y014356D02*
X023366Y014356D01*
X023465Y014258D02*
X022135Y014258D01*
X022135Y014159D02*
X023564Y014159D01*
X023663Y014061D02*
X022135Y014061D01*
X022135Y013962D02*
X023762Y013962D01*
X023836Y013864D02*
X022135Y013864D01*
X022135Y013765D02*
X023737Y013765D01*
X023695Y013667D02*
X022135Y013667D01*
X022103Y013568D02*
X023677Y013568D01*
X023677Y013470D02*
X020128Y013470D01*
X020128Y013371D02*
X023718Y013371D01*
X023793Y013273D02*
X020128Y013273D01*
X020128Y013174D02*
X023963Y013174D01*
X024150Y013174D02*
X024553Y013174D01*
X024652Y013076D02*
X020128Y013076D01*
X020128Y012977D02*
X024751Y012977D01*
X024844Y012885D02*
X024844Y012885D01*
X024850Y012879D02*
X020128Y012879D01*
X020128Y012780D02*
X024958Y012780D01*
X024747Y012682D02*
X024112Y012682D01*
X024108Y012687D02*
X023751Y012687D01*
X023499Y012435D01*
X023499Y012079D01*
X023751Y011827D01*
X024108Y011827D01*
X024359Y012079D01*
X024359Y012435D01*
X024108Y012687D01*
X024211Y012583D02*
X024648Y012583D01*
X024550Y012485D02*
X024309Y012485D01*
X024359Y012386D02*
X024499Y012386D01*
X024499Y012288D02*
X024359Y012288D01*
X024359Y012189D02*
X024499Y012189D01*
X024499Y012091D02*
X024359Y012091D01*
X024273Y011992D02*
X024586Y011992D01*
X024684Y011894D02*
X024175Y011894D01*
X023684Y011894D02*
X020128Y011894D01*
X020128Y011992D02*
X023586Y011992D01*
X023499Y012091D02*
X020128Y012091D01*
X020128Y012189D02*
X023499Y012189D01*
X023499Y012288D02*
X020128Y012288D01*
X020128Y012386D02*
X023499Y012386D01*
X023550Y012485D02*
X020128Y012485D01*
X020128Y012583D02*
X023648Y012583D01*
X023747Y012682D02*
X020128Y012682D01*
X019908Y012682D02*
X019104Y012682D01*
X019062Y012604D02*
X019111Y012485D01*
X019111Y012386D02*
X019908Y012386D01*
X019908Y012288D02*
X019083Y012288D01*
X019134Y012189D02*
X019908Y012189D01*
X019908Y012091D02*
X019172Y012091D01*
X019172Y011992D02*
X019908Y011992D01*
X019908Y011894D02*
X019141Y011894D01*
X019168Y011795D02*
X019908Y011795D01*
X019908Y011697D02*
X019208Y011697D01*
X019208Y011598D02*
X019908Y011598D01*
X019908Y011500D02*
X019180Y011500D01*
X019114Y011401D02*
X019908Y011401D01*
X019908Y011303D02*
X019114Y011303D01*
X019114Y011204D02*
X019908Y011204D01*
X019908Y011106D02*
X019121Y011106D01*
X019054Y011007D02*
X019908Y011007D01*
X019908Y010909D02*
X018974Y010909D01*
X018894Y010810D02*
X019908Y010810D01*
X019908Y010712D02*
X018813Y010712D01*
X018738Y010613D02*
X019908Y010613D01*
X019908Y010515D02*
X018639Y010515D01*
X019908Y010416D02*
X017065Y010416D01*
X016966Y010318D02*
X019908Y010318D01*
X019908Y010219D02*
X016902Y010219D01*
X016902Y010121D02*
X019908Y010121D01*
X019908Y010022D02*
X016902Y010022D01*
X016902Y009924D02*
X019908Y009924D01*
X019908Y009825D02*
X016902Y009825D01*
X016902Y009727D02*
X019908Y009727D01*
X019908Y009628D02*
X016902Y009628D01*
X016902Y009530D02*
X019908Y009530D01*
X019910Y009431D02*
X016902Y009431D01*
X016902Y009333D02*
X019912Y009333D01*
X020128Y009628D02*
X027807Y009628D01*
X027779Y009600D02*
X027721Y009461D01*
X027721Y009310D01*
X027779Y009170D01*
X027886Y009063D01*
X028026Y009005D01*
X028177Y009005D01*
X028317Y009063D01*
X028423Y009170D01*
X028481Y009310D01*
X028481Y009461D01*
X028423Y009600D01*
X028317Y009707D01*
X028177Y009765D01*
X028026Y009765D01*
X027886Y009707D01*
X027779Y009600D01*
X027750Y009530D02*
X024224Y009530D01*
X024326Y009431D02*
X027721Y009431D01*
X027721Y009333D02*
X024338Y009333D01*
X024340Y009234D02*
X027753Y009234D01*
X027813Y009136D02*
X024343Y009136D01*
X024346Y009037D02*
X027948Y009037D01*
X028254Y009037D02*
X028534Y009037D01*
X028521Y008939D02*
X024348Y008939D01*
X024351Y008840D02*
X028488Y008840D01*
X028448Y008742D02*
X024354Y008742D01*
X024357Y008643D02*
X028408Y008643D01*
X028367Y008545D02*
X024361Y008545D01*
X024362Y008446D02*
X028326Y008446D01*
X028285Y008348D02*
X024291Y008348D01*
X024139Y008545D02*
X020585Y008545D01*
X021658Y007855D02*
X024241Y007855D01*
X024098Y007757D02*
X023522Y007757D01*
X023742Y007658D02*
X024034Y007658D01*
X024000Y007560D02*
X023917Y007560D01*
X024519Y007855D02*
X028079Y007855D01*
X028038Y007757D02*
X024663Y007757D01*
X024727Y007658D02*
X027997Y007658D01*
X027956Y007560D02*
X024760Y007560D01*
X024760Y007461D02*
X027915Y007461D01*
X027874Y007363D02*
X024734Y007363D01*
X024680Y007264D02*
X027833Y007264D01*
X027792Y007166D02*
X024563Y007166D01*
X024695Y007067D02*
X027751Y007067D01*
X027709Y006969D02*
X024855Y006969D01*
X025015Y006870D02*
X027668Y006870D01*
X027627Y006772D02*
X025176Y006772D01*
X025336Y006673D02*
X027586Y006673D01*
X027545Y006575D02*
X025497Y006575D01*
X025657Y006476D02*
X027504Y006476D01*
X027463Y006378D02*
X027081Y006378D01*
X027177Y006279D02*
X027422Y006279D01*
X027381Y006181D02*
X027218Y006181D01*
X027233Y006082D02*
X027335Y006082D01*
X027379Y006177D02*
X027379Y006177D01*
X027258Y005984D02*
X027229Y005984D01*
X026625Y006378D02*
X025817Y006378D01*
X025978Y006279D02*
X026529Y006279D01*
X026488Y006181D02*
X026138Y006181D01*
X026298Y006082D02*
X026473Y006082D01*
X026459Y005984D02*
X026477Y005984D01*
X024136Y008643D02*
X016902Y008643D01*
X016902Y008742D02*
X024134Y008742D01*
X024131Y008840D02*
X016902Y008840D01*
X016902Y008939D02*
X024128Y008939D01*
X024126Y009037D02*
X016902Y009037D01*
X016902Y009136D02*
X024123Y009136D01*
X024120Y009234D02*
X016902Y009234D01*
X016170Y009037D02*
X013811Y009037D01*
X013811Y008939D02*
X016170Y008939D01*
X016170Y008840D02*
X013811Y008840D01*
X013823Y008742D02*
X016078Y008742D01*
X016310Y007962D02*
X016310Y007962D01*
X016310Y007962D01*
X017269Y005688D02*
X017686Y005688D01*
X017455Y005590D02*
X017310Y005590D01*
X021814Y007757D02*
X022507Y007757D01*
X022678Y007814D02*
X022678Y007814D01*
X023084Y007843D02*
X023084Y007843D01*
X022291Y007685D02*
X022291Y007685D01*
X022249Y007658D02*
X021884Y007658D01*
X021921Y007560D02*
X022072Y007560D01*
X020128Y009727D02*
X027933Y009727D01*
X028178Y009924D02*
X020128Y009924D01*
X020128Y010022D02*
X028071Y010022D01*
X027953Y010121D02*
X020128Y010121D01*
X020128Y010219D02*
X027835Y010219D01*
X027718Y010318D02*
X020128Y010318D01*
X020128Y010416D02*
X025388Y010416D01*
X025461Y010343D02*
X025817Y010343D01*
X026069Y010595D01*
X026069Y010951D01*
X025817Y011203D01*
X025461Y011203D01*
X025209Y010951D01*
X025209Y010595D01*
X025461Y010343D01*
X025289Y010515D02*
X020128Y010515D01*
X020128Y010613D02*
X025209Y010613D01*
X025209Y010712D02*
X020128Y010712D01*
X020128Y010810D02*
X025209Y010810D01*
X025209Y010909D02*
X020128Y010909D01*
X020128Y011007D02*
X025265Y011007D01*
X025363Y011106D02*
X020128Y011106D01*
X020128Y011204D02*
X026685Y011204D01*
X026609Y011183D02*
X026609Y010803D01*
X026609Y010743D01*
X026669Y010743D01*
X026669Y010803D01*
X026609Y010803D01*
X026229Y010803D01*
X026229Y010943D01*
X026469Y011183D01*
X026609Y011183D01*
X026609Y011106D02*
X026669Y011106D01*
X026669Y011007D02*
X026609Y011007D01*
X026609Y010909D02*
X026669Y010909D01*
X026669Y010810D02*
X026609Y010810D01*
X026609Y010743D02*
X026229Y010743D01*
X026229Y010604D01*
X026469Y010363D01*
X026609Y010363D01*
X026609Y010743D01*
X026609Y010712D02*
X026669Y010712D01*
X026669Y010743D02*
X026669Y010363D01*
X026809Y010363D01*
X027049Y010604D01*
X027049Y010743D01*
X026669Y010743D01*
X026669Y010613D02*
X026609Y010613D01*
X026609Y010515D02*
X026669Y010515D01*
X026669Y010416D02*
X026609Y010416D01*
X026416Y010416D02*
X025890Y010416D01*
X025988Y010515D02*
X026317Y010515D01*
X026229Y010613D02*
X026069Y010613D01*
X026069Y010712D02*
X026229Y010712D01*
X026229Y010810D02*
X026069Y010810D01*
X026069Y010909D02*
X026229Y010909D01*
X026293Y011007D02*
X026013Y011007D01*
X025914Y011106D02*
X026391Y011106D01*
X026577Y011303D02*
X020128Y011303D01*
X020128Y011401D02*
X026469Y011401D01*
X026361Y011500D02*
X025795Y011500D01*
X025885Y011598D02*
X026254Y011598D01*
X026146Y011697D02*
X025926Y011697D01*
X025937Y011795D02*
X026038Y011795D01*
X025319Y011500D02*
X020128Y011500D01*
X020128Y011598D02*
X025229Y011598D01*
X025188Y011697D02*
X020128Y011697D01*
X020128Y011795D02*
X025177Y011795D01*
X025175Y011894D02*
X025185Y011894D01*
X024454Y013273D02*
X024320Y013273D01*
X022872Y014849D02*
X022390Y014849D01*
X022529Y014947D02*
X022774Y014947D01*
X022683Y015046D02*
X022592Y015046D01*
X021915Y014356D02*
X019056Y014356D01*
X019056Y014258D02*
X021915Y014258D01*
X021915Y014159D02*
X019057Y014159D01*
X019057Y014061D02*
X021915Y014061D01*
X021915Y013765D02*
X019126Y013765D01*
X019154Y013667D02*
X019908Y013667D01*
X019908Y013568D02*
X019154Y013568D01*
X019113Y013470D02*
X019908Y013470D01*
X019908Y013371D02*
X019129Y013371D01*
X019156Y013273D02*
X019908Y013273D01*
X019908Y013174D02*
X019155Y013174D01*
X019114Y013076D02*
X019908Y013076D01*
X019908Y012977D02*
X019117Y012977D01*
X019145Y012879D02*
X019908Y012879D01*
X019908Y012780D02*
X019145Y012780D01*
X016170Y010515D02*
X013233Y010515D01*
X019359Y015341D02*
X019784Y015341D01*
X021473Y016031D02*
X021777Y016031D01*
X021686Y016129D02*
X021545Y016129D01*
X021584Y016228D02*
X021596Y016228D01*
X020533Y017410D02*
X020343Y017410D01*
X020425Y017508D02*
X020450Y017508D01*
X019860Y018001D02*
X017031Y018001D01*
X017030Y018099D02*
X019952Y018099D01*
X019869Y018198D02*
X017030Y018198D01*
X017029Y018296D02*
X019030Y018296D01*
X019188Y018296D02*
X019786Y018296D01*
X019703Y018395D02*
X019366Y018395D01*
X019445Y018493D02*
X019620Y018493D01*
X019537Y018592D02*
X019486Y018592D01*
X019123Y019084D02*
X016818Y019084D01*
X016817Y019183D02*
X019040Y019183D01*
X018957Y019281D02*
X016816Y019281D01*
X016816Y019380D02*
X018879Y019380D01*
X018803Y019478D02*
X016815Y019478D01*
X016913Y019577D02*
X018727Y019577D01*
X018651Y019675D02*
X017968Y019675D01*
X017979Y019714D01*
X017979Y020183D01*
X017629Y020183D01*
X017629Y020283D01*
X017529Y020283D01*
X017529Y020183D01*
X017629Y020183D01*
X017629Y019583D01*
X017848Y019583D01*
X017887Y019594D01*
X017921Y019613D01*
X017949Y019641D01*
X017968Y019675D01*
X017979Y019774D02*
X018575Y019774D01*
X018499Y019872D02*
X017979Y019872D01*
X017979Y019971D02*
X018423Y019971D01*
X018347Y020069D02*
X017979Y020069D01*
X017979Y020168D02*
X018271Y020168D01*
X018195Y020266D02*
X017629Y020266D01*
X017629Y020168D02*
X017529Y020168D01*
X017529Y020183D02*
X017529Y019583D01*
X017309Y019583D01*
X017271Y019594D01*
X017237Y019613D01*
X017209Y019641D01*
X017189Y019675D01*
X016999Y019675D01*
X016999Y019774D02*
X017179Y019774D01*
X017179Y019714D02*
X017189Y019675D01*
X017179Y019714D02*
X017179Y020183D01*
X017529Y020183D01*
X017529Y020266D02*
X016999Y020266D01*
X016999Y020168D02*
X017179Y020168D01*
X017179Y020069D02*
X016999Y020069D01*
X016999Y019971D02*
X017179Y019971D01*
X017179Y019872D02*
X016999Y019872D01*
X017179Y020283D02*
X017529Y020283D01*
X017529Y020883D01*
X017309Y020883D01*
X017271Y020873D01*
X017237Y020853D01*
X017209Y020825D01*
X017189Y020791D01*
X017179Y020753D01*
X017179Y020283D01*
X017179Y020365D02*
X016999Y020365D01*
X016999Y020463D02*
X017179Y020463D01*
X017179Y020562D02*
X016999Y020562D01*
X016999Y020660D02*
X017179Y020660D01*
X017180Y020759D02*
X016999Y020759D01*
X016945Y020857D02*
X017244Y020857D01*
X017529Y020857D02*
X017629Y020857D01*
X017629Y020759D02*
X017529Y020759D01*
X017529Y020660D02*
X017629Y020660D01*
X017629Y020562D02*
X017529Y020562D01*
X017529Y020463D02*
X017629Y020463D01*
X017629Y020365D02*
X017529Y020365D01*
X017529Y020069D02*
X017629Y020069D01*
X017629Y019971D02*
X017529Y019971D01*
X017529Y019872D02*
X017629Y019872D01*
X017629Y019774D02*
X017529Y019774D01*
X017529Y019675D02*
X017629Y019675D01*
X017979Y020365D02*
X018120Y020365D01*
X018044Y020463D02*
X017979Y020463D01*
X017664Y020956D02*
X016886Y020956D01*
X016886Y021054D02*
X017588Y021054D01*
X017512Y021153D02*
X016886Y021153D01*
X016858Y021251D02*
X017436Y021251D01*
X017361Y021350D02*
X015423Y021350D01*
X015459Y021448D02*
X017285Y021448D01*
X017209Y021547D02*
X015494Y021547D01*
X015530Y021645D02*
X017135Y021645D01*
X017065Y021744D02*
X015529Y021744D01*
X015446Y021842D02*
X016996Y021842D01*
X016927Y021941D02*
X015176Y021941D01*
X014905Y022039D02*
X016858Y022039D01*
X016788Y022138D02*
X014635Y022138D01*
X014364Y022236D02*
X016719Y022236D01*
X016650Y022335D02*
X014093Y022335D01*
X014052Y022433D02*
X015287Y022433D01*
X015444Y022433D02*
X016581Y022433D01*
X016511Y022532D02*
X015623Y022532D01*
X015702Y022630D02*
X016442Y022630D01*
X016373Y022729D02*
X015743Y022729D01*
X015746Y022827D02*
X016295Y022827D01*
X016185Y022926D02*
X015730Y022926D01*
X015689Y023024D02*
X016041Y023024D01*
X015804Y023123D02*
X015592Y023123D01*
X015042Y023024D02*
X014994Y023024D01*
X015002Y022926D02*
X014837Y022926D01*
X014986Y022827D02*
X014680Y022827D01*
X014523Y022729D02*
X014989Y022729D01*
X015030Y022630D02*
X014366Y022630D01*
X014209Y022532D02*
X015108Y022532D01*
X016724Y018986D02*
X018882Y018986D01*
X018786Y018887D02*
X017013Y018887D01*
X017089Y018789D02*
X018745Y018789D01*
X018729Y018690D02*
X017123Y018690D01*
X017123Y018592D02*
X018732Y018592D01*
X018773Y018493D02*
X017087Y018493D01*
X017029Y018395D02*
X018852Y018395D01*
X019765Y017902D02*
X017032Y017902D01*
X017032Y017804D02*
X019724Y017804D01*
X018590Y017016D02*
X017403Y017016D01*
X020128Y009825D02*
X028280Y009825D01*
X028270Y009727D02*
X028365Y009727D01*
X028396Y009628D02*
X028422Y009628D01*
X028453Y009530D02*
X028473Y009530D01*
X028481Y009431D02*
X028512Y009431D01*
X028529Y009333D02*
X028481Y009333D01*
X028450Y009234D02*
X028547Y009234D01*
X028546Y009136D02*
X028389Y009136D01*
X027600Y010416D02*
X026862Y010416D01*
X026960Y010515D02*
X027482Y010515D01*
X027364Y010613D02*
X027049Y010613D01*
X027049Y010712D02*
X027246Y010712D01*
X027128Y010810D02*
X027049Y010810D01*
D25*
X019929Y015633D02*
X019215Y015633D01*
X018820Y016013D02*
X018829Y013633D01*
X018831Y013242D02*
X018629Y013233D01*
X018529Y013333D01*
X018540Y015887D01*
X018267Y016158D01*
X017069Y016158D01*
X015579Y017646D01*
X015579Y020233D01*
X016579Y020233D02*
X016587Y019175D01*
X016155Y018745D01*
X016148Y017442D01*
X017187Y016391D01*
X018447Y016395D01*
X018820Y016013D01*
X018711Y016714D02*
X017392Y016699D01*
X016805Y017295D01*
X016798Y018643D01*
X017579Y020233D02*
X017609Y020273D01*
X017917Y015645D02*
X015329Y015633D01*
X014329Y014933D02*
X017529Y014933D01*
X017829Y014633D01*
X017829Y012733D01*
X018129Y012433D01*
X018786Y012420D01*
X018847Y012033D02*
X018664Y012033D01*
X018574Y011943D01*
X018574Y011207D01*
X018347Y010980D01*
X016944Y010980D01*
X016400Y010436D01*
X016400Y008739D01*
X016097Y008435D01*
X013804Y008435D01*
X013581Y008658D01*
X013581Y009178D01*
X013421Y009339D01*
X012873Y009339D01*
X012829Y009383D01*
X012829Y008433D02*
X013329Y008433D01*
X013354Y008433D01*
X013586Y008197D01*
X016215Y008192D01*
X016672Y008650D01*
X016672Y010349D01*
X017064Y010741D01*
X018541Y010741D01*
X018884Y011163D01*
X018883Y011633D01*
X018820Y012844D02*
X018429Y012833D01*
X018129Y013133D01*
X018129Y014933D01*
X017829Y015233D01*
X013329Y015233D01*
X013319Y014483D02*
X013879Y014483D01*
X014329Y014933D01*
X012835Y013333D02*
X012736Y013234D01*
D26*
X019457Y007679D03*
X027084Y009138D03*
D27*
X012995Y006932D02*
X012995Y006283D01*
X012491Y006280D01*
X012472Y006288D01*
X012319Y006288D01*
X012298Y006279D01*
X011889Y006277D01*
X011855Y006359D01*
X011780Y006433D01*
X011683Y006474D01*
X011578Y006474D01*
X011480Y006433D01*
X011406Y006359D01*
X011370Y006274D01*
X011179Y006272D01*
X011179Y006903D01*
X012995Y006932D01*
X012995Y006887D02*
X011179Y006887D01*
X011179Y006828D02*
X012995Y006828D01*
X012995Y006770D02*
X011179Y006770D01*
X011179Y006711D02*
X012995Y006711D01*
X012995Y006653D02*
X011179Y006653D01*
X011179Y006594D02*
X012995Y006594D01*
X012995Y006536D02*
X011179Y006536D01*
X011179Y006477D02*
X012995Y006477D01*
X012995Y006419D02*
X011795Y006419D01*
X011853Y006360D02*
X012995Y006360D01*
X012995Y006302D02*
X011879Y006302D01*
X011466Y006419D02*
X011179Y006419D01*
X011179Y006360D02*
X011407Y006360D01*
X011382Y006302D02*
X011179Y006302D01*
D28*
X012029Y007573D02*
X012281Y007457D01*
X012222Y007423D02*
X012830Y007836D01*
X016395Y007833D01*
X016531Y007838D01*
X017093Y007838D01*
X017125Y007835D01*
X017407Y007832D01*
X017748Y007832D01*
X018048Y008132D01*
X018048Y008489D01*
X018392Y008833D01*
X023539Y008833D01*
X023842Y008900D01*
X019410Y010942D02*
X018784Y010315D01*
X017860Y010315D01*
X017564Y010019D01*
X017564Y008288D01*
X017125Y007835D01*
X017091Y008493D02*
X017085Y008840D01*
X017088Y010279D01*
X019410Y010942D02*
X019410Y013883D01*
X019660Y014133D01*
X021629Y014133D01*
X017091Y008493D02*
X016464Y007868D01*
X016429Y007833D01*
X016395Y007833D01*
X012029Y007573D02*
X012029Y011033D01*
X012729Y011733D01*
X012733Y012734D01*
X012736Y013234D01*
X012490Y013695D01*
X005629Y006833D02*
X005541Y006922D01*
X005464Y006992D01*
X005629Y006833D02*
X005629Y005513D01*
X006529Y004613D01*
D29*
X006215Y010376D02*
X005209Y010373D01*
X004829Y010843D01*
X003229Y010933D02*
X003229Y013233D01*
X003929Y013933D01*
M02*
