G75*
%MOIN*%
%OFA0B0*%
%FSLAX24Y24*%
%IPPOS*%
%LPD*%
%AMOC8*
5,1,8,0,0,1.08239X$1,22.5*
%
%ADD10C,0.0160*%
%ADD11C,0.0000*%
%ADD12R,0.0433X0.0217*%
%ADD13C,0.0320*%
%ADD14R,0.0335X0.0150*%
%ADD15R,0.0150X0.0335*%
%ADD16R,0.1000X0.1000*%
%ADD17C,0.0500*%
%ADD18R,0.0230X0.0090*%
%ADD19R,0.0090X0.0230*%
%ADD20R,0.0550X0.0137*%
%ADD21R,0.0450X0.0150*%
%ADD22R,0.0276X0.0354*%
%ADD23OC8,0.0630*%
%ADD24R,0.0551X0.0630*%
%ADD25R,0.0394X0.0433*%
%ADD26R,0.0433X0.0394*%
%ADD27R,0.0197X0.0256*%
%ADD28R,0.0276X0.0197*%
%ADD29R,0.0256X0.0197*%
%ADD30R,0.0354X0.0276*%
%ADD31OC8,0.0520*%
%ADD32R,0.0480X0.0880*%
%ADD33R,0.1417X0.0866*%
%ADD34C,0.0394*%
%ADD35R,0.0531X0.0157*%
%ADD36R,0.0500X0.0800*%
%ADD37C,0.0560*%
%ADD38OC8,0.0560*%
%ADD39R,0.0751X0.1379*%
%ADD40R,0.0591X0.0630*%
%ADD41C,0.0660*%
%ADD42R,0.0610X0.0236*%
%ADD43R,0.0709X0.0472*%
%ADD44C,0.0550*%
%ADD45C,0.0240*%
%ADD46C,0.0310*%
%ADD47C,0.0340*%
%ADD48C,0.0100*%
%ADD49C,0.0120*%
%ADD50C,0.0396*%
%ADD51C,0.0060*%
D10*
X001777Y002813D02*
X007606Y002813D01*
X007606Y003123D02*
X005833Y003123D01*
X005838Y003136D01*
X005838Y003279D01*
X005783Y003411D01*
X005682Y003513D01*
X005550Y003567D01*
X005407Y003567D01*
X005274Y003513D01*
X005173Y003411D01*
X005118Y003279D01*
X005118Y003136D01*
X005123Y003123D01*
X002393Y003123D01*
X002401Y003142D01*
X002401Y003305D01*
X002339Y003456D01*
X002223Y003571D01*
X002073Y003634D01*
X001910Y003634D01*
X001759Y003571D01*
X001644Y003456D01*
X001581Y003305D01*
X001581Y003153D01*
X001449Y003189D01*
X001254Y003301D01*
X001096Y003459D01*
X000984Y003653D01*
X000926Y003870D01*
X000919Y003982D01*
X000919Y004538D01*
X001724Y004538D01*
X001841Y004655D01*
X001841Y005725D01*
X001862Y005704D01*
X001862Y005012D01*
X001979Y004895D01*
X002677Y004895D01*
X002794Y005012D01*
X002794Y005149D01*
X003089Y005149D01*
X003032Y005012D01*
X003032Y004854D01*
X003092Y004709D01*
X003204Y004597D01*
X003350Y004536D01*
X003508Y004536D01*
X003629Y004587D01*
X003629Y004350D01*
X003746Y004233D01*
X004305Y004233D01*
X004423Y004350D01*
X004423Y004949D01*
X004412Y004960D01*
X004688Y005236D01*
X004708Y005186D01*
X004781Y005113D01*
X004877Y005073D01*
X004956Y005073D01*
X004889Y005006D01*
X004889Y003940D01*
X005006Y003823D01*
X005246Y003823D01*
X005258Y003818D01*
X005884Y003818D01*
X005987Y003861D01*
X006066Y003940D01*
X006266Y004140D01*
X006309Y004243D01*
X006309Y004331D01*
X006328Y004312D01*
X006458Y004258D01*
X006599Y004258D01*
X006730Y004312D01*
X006747Y004330D01*
X006999Y004325D01*
X006999Y003940D01*
X007116Y003823D01*
X007356Y003823D01*
X007368Y003818D01*
X007844Y003818D01*
X007828Y003779D01*
X007828Y003636D01*
X007882Y003504D01*
X007984Y003402D01*
X008116Y003347D01*
X008218Y003347D01*
X008194Y003323D01*
X007975Y003197D01*
X007732Y003132D01*
X007606Y003123D01*
X007996Y003209D02*
X005838Y003209D01*
X005802Y003367D02*
X008068Y003367D01*
X007873Y003526D02*
X005650Y003526D01*
X005306Y003526D02*
X002269Y003526D01*
X002375Y003367D02*
X005155Y003367D01*
X005118Y003209D02*
X002401Y003209D01*
X001713Y003526D02*
X001058Y003526D01*
X000976Y003684D02*
X007828Y003684D01*
X007894Y004098D02*
X007424Y004098D01*
X007606Y002814D02*
X007675Y002816D01*
X007744Y002821D01*
X007812Y002831D01*
X007880Y002844D01*
X007947Y002860D01*
X008013Y002881D01*
X008078Y002905D01*
X008141Y002932D01*
X008203Y002963D01*
X008263Y002997D01*
X008322Y003034D01*
X008378Y003074D01*
X008431Y003117D01*
X008483Y003163D01*
X008532Y003212D01*
X008578Y003264D01*
X008621Y003317D01*
X008661Y003373D01*
X008698Y003432D01*
X008732Y003492D01*
X008763Y003554D01*
X008790Y003617D01*
X008814Y003682D01*
X008835Y003748D01*
X008851Y003815D01*
X008864Y003883D01*
X008874Y003951D01*
X008879Y004020D01*
X008881Y004089D01*
X008881Y014206D01*
X008571Y014206D02*
X008571Y013799D01*
X008559Y013804D01*
X008416Y013804D01*
X008284Y013749D01*
X008182Y013648D01*
X008128Y013515D01*
X008128Y013372D01*
X008182Y013240D01*
X008284Y013139D01*
X008416Y013084D01*
X008559Y013084D01*
X008571Y013089D01*
X008571Y012168D01*
X008532Y012208D01*
X008399Y012263D01*
X008256Y012263D01*
X008124Y012208D01*
X008022Y012106D01*
X007968Y011974D01*
X007968Y011831D01*
X008013Y011723D01*
X007866Y011723D01*
X007749Y011605D01*
X007749Y010967D01*
X007866Y010850D01*
X008571Y010850D01*
X008571Y008730D01*
X007866Y008730D01*
X007847Y008711D01*
X007562Y008996D01*
X007524Y009035D01*
X007523Y009035D01*
X007522Y009036D01*
X007472Y009057D01*
X007422Y009078D01*
X007420Y009078D01*
X007419Y009079D01*
X007365Y009079D01*
X007283Y009080D01*
X007283Y009794D01*
X007166Y009911D01*
X006686Y009911D01*
X006634Y010037D01*
X006610Y010061D01*
X006798Y010063D01*
X007166Y010063D01*
X007283Y010180D01*
X007283Y010975D01*
X007749Y010975D01*
X007749Y011134D02*
X006089Y011134D01*
X006089Y011152D02*
X006049Y011247D01*
X005976Y011320D01*
X005880Y011360D01*
X005093Y011360D01*
X005093Y011841D01*
X005018Y011916D01*
X005193Y012114D01*
X005363Y012114D01*
X005481Y012231D01*
X005481Y012791D01*
X005439Y012832D01*
X005491Y012883D01*
X005491Y013275D01*
X005639Y013275D01*
X005640Y013273D01*
X005847Y013273D01*
X005876Y013262D01*
X006003Y013262D01*
X006031Y013273D01*
X006239Y013273D01*
X006356Y013390D01*
X006356Y013773D01*
X006239Y013890D01*
X006048Y013890D01*
X005993Y013913D01*
X005992Y013913D01*
X005991Y013913D01*
X005928Y013913D01*
X005916Y013913D01*
X005916Y013970D01*
X006720Y013970D01*
X006852Y014024D01*
X006955Y014127D01*
X006998Y014127D01*
X006959Y014035D01*
X006959Y013877D01*
X007020Y013731D01*
X007131Y013619D01*
X007277Y013559D01*
X007435Y013559D01*
X007581Y013619D01*
X007693Y013731D01*
X007753Y013877D01*
X007753Y014035D01*
X007693Y014180D01*
X007581Y014292D01*
X007435Y014352D01*
X007400Y014352D01*
X007476Y014429D01*
X007476Y014855D01*
X007238Y015093D01*
X007684Y015093D01*
X007800Y015086D01*
X008024Y015026D01*
X008224Y014910D01*
X008388Y014746D01*
X008504Y014546D01*
X008564Y014322D01*
X008571Y014206D01*
X008571Y014145D02*
X007707Y014145D01*
X008881Y014206D02*
X008879Y014273D01*
X008873Y014340D01*
X008864Y014407D01*
X008851Y014472D01*
X008834Y014537D01*
X008814Y014601D01*
X008790Y014664D01*
X008762Y014725D01*
X008732Y014785D01*
X008698Y014843D01*
X008660Y014899D01*
X008620Y014952D01*
X008577Y015004D01*
X008530Y015052D01*
X008482Y015099D01*
X008430Y015142D01*
X008377Y015182D01*
X008321Y015220D01*
X008263Y015254D01*
X008203Y015284D01*
X008142Y015312D01*
X008079Y015336D01*
X008015Y015356D01*
X007950Y015373D01*
X007885Y015386D01*
X007818Y015395D01*
X007751Y015401D01*
X007684Y015403D01*
X001879Y015403D01*
X001810Y015401D01*
X001742Y015396D01*
X001674Y015386D01*
X001606Y015373D01*
X001539Y015357D01*
X001473Y015337D01*
X001409Y015313D01*
X001346Y015286D01*
X001284Y015255D01*
X001224Y015221D01*
X001166Y015184D01*
X001110Y015144D01*
X001057Y015101D01*
X001006Y015055D01*
X000957Y015006D01*
X000911Y014955D01*
X000868Y014902D01*
X000828Y014846D01*
X000791Y014788D01*
X000757Y014728D01*
X000726Y014666D01*
X000699Y014603D01*
X000675Y014539D01*
X000655Y014473D01*
X000639Y014406D01*
X000626Y014338D01*
X000616Y014270D01*
X000611Y014202D01*
X000609Y014133D01*
X000609Y003982D01*
X000919Y004001D02*
X004889Y004001D01*
X004889Y004160D02*
X000919Y004160D01*
X000919Y004318D02*
X003661Y004318D01*
X003629Y004477D02*
X000919Y004477D01*
X000933Y003843D02*
X004986Y003843D01*
X005314Y004098D02*
X005829Y004098D01*
X006029Y004298D01*
X006029Y009333D01*
X006282Y009586D01*
X006778Y009593D01*
X006778Y009987D02*
X005942Y009980D01*
X005739Y010183D01*
X006089Y010709D02*
X006089Y011152D01*
X006004Y011292D02*
X007749Y011292D01*
X007749Y011451D02*
X005093Y011451D01*
X005093Y011609D02*
X007753Y011609D01*
X007994Y011768D02*
X005093Y011768D01*
X005027Y011926D02*
X007968Y011926D01*
X008014Y012085D02*
X005168Y012085D01*
X005481Y012243D02*
X008210Y012243D01*
X008446Y012243D02*
X008571Y012243D01*
X008571Y012402D02*
X005481Y012402D01*
X005481Y012560D02*
X008571Y012560D01*
X008571Y012719D02*
X005481Y012719D01*
X005485Y012877D02*
X008571Y012877D01*
X008571Y013036D02*
X005491Y013036D01*
X005491Y013194D02*
X008228Y013194D01*
X008136Y013353D02*
X006318Y013353D01*
X006356Y013511D02*
X008128Y013511D01*
X008205Y013670D02*
X007632Y013670D01*
X007733Y013828D02*
X008571Y013828D01*
X008571Y013987D02*
X007753Y013987D01*
X007836Y013801D02*
X007429Y013433D01*
X006529Y013433D01*
X006529Y013733D01*
X006329Y013933D01*
X005962Y013933D01*
X005939Y013956D01*
X006300Y013828D02*
X006979Y013828D01*
X006959Y013987D02*
X006762Y013987D01*
X007081Y013670D02*
X006356Y013670D01*
X006529Y013433D02*
X006529Y013233D01*
X006405Y013148D01*
X005665Y013143D01*
X005733Y013035D01*
X005153Y013143D02*
X004959Y013143D01*
X004829Y013303D01*
X004829Y013573D01*
X004837Y013582D01*
X004837Y014330D02*
X004837Y014529D01*
X005044Y014828D01*
X005556Y014828D02*
X005576Y014693D01*
X007393Y014938D02*
X008176Y014938D01*
X008355Y014779D02*
X007476Y014779D01*
X007476Y014621D02*
X008460Y014621D01*
X008526Y014462D02*
X007476Y014462D01*
X007553Y014304D02*
X008565Y014304D01*
X007826Y014652D02*
X007836Y013801D01*
X005733Y012511D02*
X005720Y012440D01*
X005720Y011443D02*
X005739Y011335D01*
X006089Y010975D02*
X006273Y010975D01*
X006273Y010731D01*
X006144Y010731D01*
X006089Y010709D01*
X006089Y010817D02*
X006273Y010817D01*
X006273Y010975D02*
X006390Y011093D01*
X007166Y011093D01*
X007283Y010975D01*
X007283Y010817D02*
X008571Y010817D01*
X008571Y010658D02*
X007283Y010658D01*
X007283Y010500D02*
X008571Y010500D01*
X008571Y010341D02*
X007283Y010341D01*
X007283Y010183D02*
X008571Y010183D01*
X008571Y010024D02*
X006639Y010024D01*
X007211Y009866D02*
X008571Y009866D01*
X008571Y009707D02*
X007283Y009707D01*
X007283Y009549D02*
X008571Y009549D01*
X008571Y009390D02*
X007283Y009390D01*
X007283Y009232D02*
X008571Y009232D01*
X008571Y009073D02*
X007434Y009073D01*
X007643Y008915D02*
X008571Y008915D01*
X008571Y008756D02*
X007802Y008756D01*
X007729Y008433D02*
X007733Y006921D01*
X008333Y006321D01*
X008329Y005695D01*
X008292Y005659D01*
X007424Y005348D02*
X006929Y005353D01*
X007011Y005428D02*
X006590Y005428D01*
X006579Y005438D02*
X006579Y008488D01*
X007166Y008488D01*
X007199Y008521D01*
X007246Y008520D01*
X007449Y008317D01*
X007453Y006920D01*
X007453Y006865D01*
X007453Y006865D01*
X007453Y006864D01*
X007475Y006813D01*
X007496Y006762D01*
X007496Y006762D01*
X007496Y006761D01*
X007536Y006722D01*
X007635Y006623D01*
X007116Y006623D01*
X006999Y006506D01*
X006999Y005440D01*
X007091Y005348D01*
X006999Y005256D01*
X006999Y005133D01*
X006916Y005133D01*
X006579Y005438D01*
X006579Y005586D02*
X006999Y005586D01*
X006999Y005745D02*
X006579Y005745D01*
X006579Y005903D02*
X006999Y005903D01*
X006999Y006062D02*
X006579Y006062D01*
X006579Y006220D02*
X006999Y006220D01*
X006999Y006379D02*
X006579Y006379D01*
X006579Y006537D02*
X007030Y006537D01*
X006579Y006696D02*
X007562Y006696D01*
X007458Y006854D02*
X006579Y006854D01*
X006579Y007013D02*
X007453Y007013D01*
X007453Y007171D02*
X006579Y007171D01*
X006579Y007330D02*
X007452Y007330D01*
X007452Y007488D02*
X006579Y007488D01*
X006579Y007647D02*
X007451Y007647D01*
X007451Y007805D02*
X006579Y007805D01*
X006579Y007964D02*
X007450Y007964D01*
X007450Y008122D02*
X006579Y008122D01*
X006579Y008281D02*
X007449Y008281D01*
X007327Y008439D02*
X006579Y008439D01*
X006778Y008806D02*
X007363Y008799D01*
X007729Y008433D01*
X006778Y009200D02*
X006468Y009203D01*
X006299Y009033D01*
X006299Y005313D01*
X006809Y004853D01*
X007419Y004853D01*
X007424Y004848D01*
X007424Y004598D02*
X006529Y004613D01*
X006736Y004318D02*
X006999Y004318D01*
X006999Y004160D02*
X006274Y004160D01*
X006309Y004318D02*
X006322Y004318D01*
X006128Y004001D02*
X006999Y004001D01*
X007096Y003843D02*
X005944Y003843D01*
X006066Y003940D02*
X006066Y003940D01*
X004889Y004318D02*
X004391Y004318D01*
X004499Y004223D02*
X004499Y004813D01*
X004779Y005093D01*
X005309Y005093D01*
X005314Y005098D01*
X005314Y005348D02*
X005314Y005598D01*
X005309Y005593D01*
X004649Y005593D01*
X004026Y004970D01*
X004026Y004650D01*
X004423Y004635D02*
X004889Y004635D01*
X004889Y004477D02*
X004423Y004477D01*
X004499Y004223D02*
X004256Y003980D01*
X004423Y004794D02*
X004889Y004794D01*
X004889Y004952D02*
X004419Y004952D01*
X004562Y005111D02*
X004786Y005111D01*
X004329Y005633D02*
X004329Y005979D01*
X004329Y005633D02*
X004125Y005429D01*
X002328Y005429D01*
X002328Y005685D02*
X003226Y005685D01*
X003527Y005984D01*
X003111Y005965D02*
X002794Y005965D01*
X002794Y006103D01*
X002677Y006220D01*
X002387Y006220D01*
X002384Y006221D01*
X002137Y006221D01*
X002109Y006249D01*
X002109Y007768D01*
X002066Y007871D01*
X001987Y007950D01*
X001713Y008224D01*
X001713Y008317D01*
X002045Y008724D01*
X002085Y008765D01*
X002090Y008779D01*
X002100Y008790D01*
X002116Y008845D01*
X002137Y008898D01*
X002137Y008913D01*
X002141Y008928D01*
X002135Y008984D01*
X002118Y009898D01*
X002124Y010193D01*
X002208Y010109D01*
X002965Y010109D01*
X003082Y010226D01*
X003082Y010345D01*
X003100Y010352D01*
X003269Y010521D01*
X003269Y007050D01*
X003228Y007050D01*
X003111Y006933D01*
X003111Y006374D01*
X003166Y006319D01*
X003111Y006264D01*
X003111Y005965D01*
X003111Y006062D02*
X002794Y006062D01*
X003111Y006220D02*
X002386Y006220D01*
X002328Y005941D02*
X002021Y005941D01*
X001829Y006133D01*
X001829Y007712D01*
X001238Y008303D01*
X001713Y008281D02*
X003269Y008281D01*
X003269Y008439D02*
X001813Y008439D01*
X001943Y008598D02*
X003269Y008598D01*
X003269Y008756D02*
X002077Y008756D01*
X002137Y008915D02*
X003269Y008915D01*
X003269Y009073D02*
X002134Y009073D01*
X002131Y009232D02*
X003269Y009232D01*
X003269Y009390D02*
X002128Y009390D01*
X002124Y009549D02*
X003269Y009549D01*
X003269Y009707D02*
X002121Y009707D01*
X002118Y009866D02*
X003269Y009866D01*
X003269Y010024D02*
X002121Y010024D01*
X002124Y010183D02*
X002134Y010183D01*
X003039Y010183D02*
X003269Y010183D01*
X003269Y010341D02*
X003082Y010341D01*
X003248Y010500D02*
X003269Y010500D01*
X004618Y011443D02*
X004829Y011142D01*
X004829Y010183D02*
X004829Y007743D01*
X003549Y006653D02*
X003527Y006653D01*
X003111Y006696D02*
X002109Y006696D01*
X002109Y006854D02*
X003111Y006854D01*
X003191Y007013D02*
X002109Y007013D01*
X002109Y007171D02*
X003269Y007171D01*
X003269Y007330D02*
X002109Y007330D01*
X002109Y007488D02*
X003269Y007488D01*
X003269Y007647D02*
X002109Y007647D01*
X002093Y007805D02*
X003269Y007805D01*
X003269Y007964D02*
X001973Y007964D01*
X001814Y008122D02*
X003269Y008122D01*
X003111Y006537D02*
X002109Y006537D01*
X002109Y006379D02*
X003111Y006379D01*
X001862Y005586D02*
X001841Y005586D01*
X001841Y005428D02*
X001862Y005428D01*
X001862Y005269D02*
X001841Y005269D01*
X001841Y005111D02*
X001862Y005111D01*
X001841Y004952D02*
X001922Y004952D01*
X001841Y004794D02*
X003057Y004794D01*
X003032Y004952D02*
X002734Y004952D01*
X002794Y005111D02*
X003073Y005111D01*
X003165Y004635D02*
X001822Y004635D01*
X002328Y004917D02*
X002328Y004044D01*
X002391Y003980D01*
X002328Y004044D02*
X002308Y004024D01*
X002308Y004155D01*
X001777Y002814D02*
X001712Y002816D01*
X001646Y002821D01*
X001581Y002831D01*
X001517Y002843D01*
X001454Y002860D01*
X001391Y002880D01*
X001330Y002903D01*
X001270Y002930D01*
X001212Y002960D01*
X001156Y002993D01*
X001101Y003029D01*
X001049Y003069D01*
X000999Y003111D01*
X000951Y003156D01*
X000906Y003204D01*
X000864Y003254D01*
X000824Y003306D01*
X000788Y003361D01*
X000755Y003417D01*
X000725Y003475D01*
X000698Y003535D01*
X000675Y003596D01*
X000655Y003659D01*
X000638Y003722D01*
X000626Y003786D01*
X000616Y003851D01*
X000611Y003917D01*
X000609Y003982D01*
X001188Y003367D02*
X001607Y003367D01*
X001581Y003209D02*
X001414Y003209D01*
X001284Y005417D02*
X001270Y005417D01*
X001264Y005417D02*
X001284Y005417D01*
X001549Y006317D02*
X000919Y006317D01*
X000919Y007788D01*
X001356Y007788D01*
X001549Y007596D01*
X001549Y006317D01*
X001549Y006379D02*
X000919Y006379D01*
X000919Y006537D02*
X001549Y006537D01*
X001549Y006696D02*
X000919Y006696D01*
X000919Y006854D02*
X001549Y006854D01*
X001549Y007013D02*
X000919Y007013D01*
X000919Y007171D02*
X001549Y007171D01*
X001549Y007330D02*
X000919Y007330D01*
X000919Y007488D02*
X001549Y007488D01*
X001498Y007647D02*
X000919Y007647D01*
X001264Y006794D02*
X001264Y006766D01*
X005309Y006343D02*
X005314Y006348D01*
X005314Y006098D02*
X005309Y006093D01*
X005314Y005848D02*
X005314Y005598D01*
X006766Y005269D02*
X007012Y005269D01*
X008129Y004826D02*
X008129Y004333D01*
X007894Y004098D01*
X008129Y004826D02*
X008292Y004989D01*
X011628Y005257D02*
X012009Y005253D01*
X012544Y005253D01*
X012825Y005533D01*
X015329Y005533D01*
X015829Y006033D01*
X015829Y006533D01*
X015929Y006633D01*
X016229Y006633D01*
X016929Y007333D01*
X016929Y007833D01*
X017129Y008033D01*
X018229Y008033D01*
X018929Y008733D01*
X018929Y010333D01*
X019729Y011133D01*
X023529Y011133D01*
X023929Y011533D01*
X023929Y012256D01*
X023929Y012257D01*
X028492Y010009D02*
X028539Y009959D01*
X028582Y009906D01*
X028623Y009851D01*
X028660Y009794D01*
X028694Y009734D01*
X028724Y009673D01*
X028751Y009610D01*
X028774Y009545D01*
X028794Y009480D01*
X028810Y009413D01*
X028821Y009346D01*
X028829Y009278D01*
X028833Y009210D01*
X028834Y009141D01*
X028830Y009073D01*
X028822Y009005D01*
X028811Y008937D01*
X028795Y008871D01*
X028776Y008805D01*
X028753Y008741D01*
X028726Y008678D01*
X027616Y006018D01*
X027593Y005967D01*
X027566Y005918D01*
X027536Y005871D01*
X027502Y005827D01*
X027466Y005785D01*
X027426Y005745D01*
X027384Y005708D01*
X027340Y005675D01*
X027293Y005644D01*
X027244Y005617D01*
X027194Y005594D01*
X027142Y005574D01*
X027088Y005558D01*
X027034Y005545D01*
X026979Y005537D01*
X026923Y005532D01*
X026867Y005531D01*
X026812Y005534D01*
X026756Y005542D01*
X026702Y005553D01*
X026648Y005567D01*
X026595Y005586D01*
X026544Y005608D01*
X026495Y005634D01*
X026447Y005663D01*
X023844Y007261D01*
X023845Y007260D02*
X023786Y007304D01*
X023725Y007344D01*
X023662Y007381D01*
X023597Y007415D01*
X023531Y007445D01*
X023463Y007472D01*
X023393Y007495D01*
X023323Y007514D01*
X023251Y007529D01*
X023179Y007540D01*
X023106Y007548D01*
X023033Y007552D01*
X022960Y007551D01*
X022887Y007547D01*
X022815Y007539D01*
X022743Y007527D01*
X022671Y007511D01*
X022601Y007492D01*
X022532Y007468D01*
X022464Y007441D01*
X022398Y007411D01*
X022333Y007376D01*
X022270Y007339D01*
X022270Y007340D02*
X012073Y002989D01*
X012071Y002973D01*
X012018Y002948D01*
X011964Y002927D01*
X011909Y002909D01*
X011852Y002895D01*
X011795Y002885D01*
X011737Y002878D01*
X011679Y002875D01*
X011620Y002876D01*
X011562Y002881D01*
X011504Y002889D01*
X011447Y002901D01*
X011391Y002916D01*
X011336Y002936D01*
X011283Y002958D01*
X011230Y002984D01*
X011180Y003014D01*
X011132Y003046D01*
X011086Y003082D01*
X011042Y003120D01*
X011001Y003161D01*
X010962Y003205D01*
X010926Y003251D01*
X010894Y003300D01*
X010864Y003350D01*
X010838Y003402D01*
X011630Y006209D02*
X011623Y008402D01*
X011806Y008598D01*
X011813Y011264D01*
X012338Y011802D01*
X013235Y011807D01*
X014071Y012638D01*
X014067Y013182D01*
X014229Y013333D01*
X014729Y013733D01*
X014990Y013736D01*
X015323Y014530D01*
X013699Y010493D02*
X013914Y010078D01*
X014185Y006063D02*
X014529Y006063D01*
X015045Y006063D01*
X028292Y010203D02*
X028492Y010009D01*
X010839Y003403D02*
X010684Y004315D01*
X010551Y005230D01*
X010441Y006148D01*
X010352Y007069D01*
X010286Y007992D01*
X010241Y008916D01*
X010220Y009840D01*
X010220Y010765D01*
X010243Y011690D01*
X010288Y012614D01*
X010355Y013536D01*
X010444Y014457D01*
X010556Y015375D01*
X010689Y016291D01*
X010845Y017202D01*
X011022Y018110D01*
X011222Y019013D01*
X011443Y019912D01*
X011685Y020804D01*
X012585Y021843D02*
X014913Y023304D01*
X014893Y023305D02*
X014959Y023336D01*
X015026Y023364D01*
X015095Y023388D01*
X015164Y023408D01*
X015235Y023425D01*
X015307Y023438D01*
X015379Y023447D01*
X015452Y023452D01*
X015525Y023453D01*
X015597Y023450D01*
X015670Y023443D01*
X015742Y023433D01*
X015813Y023418D01*
X015884Y023400D01*
X015953Y023378D01*
X016021Y023352D01*
X016088Y023323D01*
X016153Y023290D01*
X016216Y023254D01*
X016277Y023214D01*
X016336Y023171D01*
X016392Y023125D01*
X016446Y023077D01*
X016497Y023025D01*
X016545Y022970D01*
X012585Y021843D02*
X012510Y021799D01*
X012437Y021751D01*
X012365Y021700D01*
X012296Y021646D01*
X012229Y021589D01*
X012165Y021530D01*
X012104Y021467D01*
X012045Y021402D01*
X011989Y021335D01*
X011936Y021265D01*
X011886Y021193D01*
X011839Y021119D01*
X011795Y021043D01*
X011755Y020965D01*
X011718Y020886D01*
X011685Y020805D01*
X016545Y022970D02*
X017470Y021687D01*
X018426Y020427D01*
X019411Y019189D01*
X020425Y017976D01*
X021468Y016787D01*
X022539Y015623D01*
X023637Y014485D01*
X024762Y013373D01*
X025913Y012289D01*
X027090Y011232D01*
X028291Y010203D01*
D11*
X027921Y009385D02*
X027923Y009411D01*
X027929Y009437D01*
X027938Y009461D01*
X027951Y009484D01*
X027967Y009505D01*
X027986Y009523D01*
X028007Y009539D01*
X028031Y009551D01*
X028055Y009559D01*
X028081Y009564D01*
X028108Y009565D01*
X028134Y009562D01*
X028159Y009555D01*
X028183Y009545D01*
X028206Y009531D01*
X028226Y009515D01*
X028243Y009495D01*
X028258Y009473D01*
X028269Y009449D01*
X028277Y009424D01*
X028281Y009398D01*
X028281Y009372D01*
X028277Y009346D01*
X028269Y009321D01*
X028258Y009297D01*
X028243Y009275D01*
X028226Y009255D01*
X028206Y009239D01*
X028183Y009225D01*
X028159Y009215D01*
X028134Y009208D01*
X028108Y009205D01*
X028081Y009206D01*
X028055Y009211D01*
X028031Y009219D01*
X028007Y009231D01*
X027986Y009247D01*
X027967Y009265D01*
X027951Y009286D01*
X027938Y009309D01*
X027929Y009333D01*
X027923Y009359D01*
X027921Y009385D01*
X025377Y011800D02*
X025379Y011826D01*
X025385Y011852D01*
X025394Y011876D01*
X025407Y011899D01*
X025423Y011920D01*
X025442Y011938D01*
X025463Y011954D01*
X025487Y011966D01*
X025511Y011974D01*
X025537Y011979D01*
X025564Y011980D01*
X025590Y011977D01*
X025615Y011970D01*
X025639Y011960D01*
X025662Y011946D01*
X025682Y011930D01*
X025699Y011910D01*
X025714Y011888D01*
X025725Y011864D01*
X025733Y011839D01*
X025737Y011813D01*
X025737Y011787D01*
X025733Y011761D01*
X025725Y011736D01*
X025714Y011712D01*
X025699Y011690D01*
X025682Y011670D01*
X025662Y011654D01*
X025639Y011640D01*
X025615Y011630D01*
X025590Y011623D01*
X025564Y011620D01*
X025537Y011621D01*
X025511Y011626D01*
X025487Y011634D01*
X025463Y011646D01*
X025442Y011662D01*
X025423Y011680D01*
X025407Y011701D01*
X025394Y011724D01*
X025385Y011748D01*
X025379Y011774D01*
X025377Y011800D01*
X023877Y013547D02*
X023879Y013573D01*
X023885Y013599D01*
X023894Y013623D01*
X023907Y013646D01*
X023923Y013667D01*
X023942Y013685D01*
X023963Y013701D01*
X023987Y013713D01*
X024011Y013721D01*
X024037Y013726D01*
X024064Y013727D01*
X024090Y013724D01*
X024115Y013717D01*
X024139Y013707D01*
X024162Y013693D01*
X024182Y013677D01*
X024199Y013657D01*
X024214Y013635D01*
X024225Y013611D01*
X024233Y013586D01*
X024237Y013560D01*
X024237Y013534D01*
X024233Y013508D01*
X024225Y013483D01*
X024214Y013459D01*
X024199Y013437D01*
X024182Y013417D01*
X024162Y013401D01*
X024139Y013387D01*
X024115Y013377D01*
X024090Y013370D01*
X024064Y013367D01*
X024037Y013368D01*
X024011Y013373D01*
X023987Y013381D01*
X023963Y013393D01*
X023942Y013409D01*
X023923Y013427D01*
X023907Y013448D01*
X023894Y013471D01*
X023885Y013495D01*
X023879Y013521D01*
X023877Y013547D01*
X022064Y015200D02*
X022066Y015226D01*
X022072Y015252D01*
X022081Y015276D01*
X022094Y015299D01*
X022110Y015320D01*
X022129Y015338D01*
X022150Y015354D01*
X022174Y015366D01*
X022198Y015374D01*
X022224Y015379D01*
X022251Y015380D01*
X022277Y015377D01*
X022302Y015370D01*
X022326Y015360D01*
X022349Y015346D01*
X022369Y015330D01*
X022386Y015310D01*
X022401Y015288D01*
X022412Y015264D01*
X022420Y015239D01*
X022424Y015213D01*
X022424Y015187D01*
X022420Y015161D01*
X022412Y015136D01*
X022401Y015112D01*
X022386Y015090D01*
X022369Y015070D01*
X022349Y015054D01*
X022326Y015040D01*
X022302Y015030D01*
X022277Y015023D01*
X022251Y015020D01*
X022224Y015021D01*
X022198Y015026D01*
X022174Y015034D01*
X022150Y015046D01*
X022129Y015062D01*
X022110Y015080D01*
X022094Y015101D01*
X022081Y015124D01*
X022072Y015148D01*
X022066Y015174D01*
X022064Y015200D01*
X021024Y016299D02*
X021026Y016325D01*
X021032Y016351D01*
X021041Y016375D01*
X021054Y016398D01*
X021070Y016419D01*
X021089Y016437D01*
X021110Y016453D01*
X021134Y016465D01*
X021158Y016473D01*
X021184Y016478D01*
X021211Y016479D01*
X021237Y016476D01*
X021262Y016469D01*
X021286Y016459D01*
X021309Y016445D01*
X021329Y016429D01*
X021346Y016409D01*
X021361Y016387D01*
X021372Y016363D01*
X021380Y016338D01*
X021384Y016312D01*
X021384Y016286D01*
X021380Y016260D01*
X021372Y016235D01*
X021361Y016211D01*
X021346Y016189D01*
X021329Y016169D01*
X021309Y016153D01*
X021286Y016139D01*
X021262Y016129D01*
X021237Y016122D01*
X021211Y016119D01*
X021184Y016120D01*
X021158Y016125D01*
X021134Y016133D01*
X021110Y016145D01*
X021089Y016161D01*
X021070Y016179D01*
X021054Y016200D01*
X021041Y016223D01*
X021032Y016247D01*
X021026Y016273D01*
X021024Y016299D01*
X019910Y017694D02*
X019912Y017720D01*
X019918Y017746D01*
X019927Y017770D01*
X019940Y017793D01*
X019956Y017814D01*
X019975Y017832D01*
X019996Y017848D01*
X020020Y017860D01*
X020044Y017868D01*
X020070Y017873D01*
X020097Y017874D01*
X020123Y017871D01*
X020148Y017864D01*
X020172Y017854D01*
X020195Y017840D01*
X020215Y017824D01*
X020232Y017804D01*
X020247Y017782D01*
X020258Y017758D01*
X020266Y017733D01*
X020270Y017707D01*
X020270Y017681D01*
X020266Y017655D01*
X020258Y017630D01*
X020247Y017606D01*
X020232Y017584D01*
X020215Y017564D01*
X020195Y017548D01*
X020172Y017534D01*
X020148Y017524D01*
X020123Y017517D01*
X020097Y017514D01*
X020070Y017515D01*
X020044Y017520D01*
X020020Y017528D01*
X019996Y017540D01*
X019975Y017556D01*
X019956Y017574D01*
X019940Y017595D01*
X019927Y017618D01*
X019918Y017642D01*
X019912Y017668D01*
X019910Y017694D01*
X018929Y018675D02*
X018931Y018701D01*
X018937Y018727D01*
X018946Y018751D01*
X018959Y018774D01*
X018975Y018795D01*
X018994Y018813D01*
X019015Y018829D01*
X019039Y018841D01*
X019063Y018849D01*
X019089Y018854D01*
X019116Y018855D01*
X019142Y018852D01*
X019167Y018845D01*
X019191Y018835D01*
X019214Y018821D01*
X019234Y018805D01*
X019251Y018785D01*
X019266Y018763D01*
X019277Y018739D01*
X019285Y018714D01*
X019289Y018688D01*
X019289Y018662D01*
X019285Y018636D01*
X019277Y018611D01*
X019266Y018587D01*
X019251Y018565D01*
X019234Y018545D01*
X019214Y018529D01*
X019191Y018515D01*
X019167Y018505D01*
X019142Y018498D01*
X019116Y018495D01*
X019089Y018496D01*
X019063Y018501D01*
X019039Y018509D01*
X019015Y018521D01*
X018994Y018537D01*
X018975Y018555D01*
X018959Y018576D01*
X018946Y018599D01*
X018937Y018623D01*
X018931Y018649D01*
X018929Y018675D01*
X015186Y022812D02*
X015188Y022838D01*
X015194Y022864D01*
X015203Y022888D01*
X015216Y022911D01*
X015232Y022932D01*
X015251Y022950D01*
X015272Y022966D01*
X015296Y022978D01*
X015320Y022986D01*
X015346Y022991D01*
X015373Y022992D01*
X015399Y022989D01*
X015424Y022982D01*
X015448Y022972D01*
X015471Y022958D01*
X015491Y022942D01*
X015508Y022922D01*
X015523Y022900D01*
X015534Y022876D01*
X015542Y022851D01*
X015546Y022825D01*
X015546Y022799D01*
X015542Y022773D01*
X015534Y022748D01*
X015523Y022724D01*
X015508Y022702D01*
X015491Y022682D01*
X015471Y022666D01*
X015448Y022652D01*
X015424Y022642D01*
X015399Y022635D01*
X015373Y022632D01*
X015346Y022633D01*
X015320Y022638D01*
X015296Y022646D01*
X015272Y022658D01*
X015251Y022674D01*
X015232Y022692D01*
X015216Y022713D01*
X015203Y022736D01*
X015194Y022760D01*
X015188Y022786D01*
X015186Y022812D01*
X012355Y021085D02*
X012357Y021111D01*
X012363Y021137D01*
X012372Y021161D01*
X012385Y021184D01*
X012401Y021205D01*
X012420Y021223D01*
X012441Y021239D01*
X012465Y021251D01*
X012489Y021259D01*
X012515Y021264D01*
X012542Y021265D01*
X012568Y021262D01*
X012593Y021255D01*
X012617Y021245D01*
X012640Y021231D01*
X012660Y021215D01*
X012677Y021195D01*
X012692Y021173D01*
X012703Y021149D01*
X012711Y021124D01*
X012715Y021098D01*
X012715Y021072D01*
X012711Y021046D01*
X012703Y021021D01*
X012692Y020997D01*
X012677Y020975D01*
X012660Y020955D01*
X012640Y020939D01*
X012617Y020925D01*
X012593Y020915D01*
X012568Y020908D01*
X012542Y020905D01*
X012515Y020906D01*
X012489Y020911D01*
X012465Y020919D01*
X012441Y020931D01*
X012420Y020947D01*
X012401Y020965D01*
X012385Y020986D01*
X012372Y021009D01*
X012363Y021033D01*
X012357Y021059D01*
X012355Y021085D01*
X011558Y019036D02*
X011560Y019062D01*
X011566Y019088D01*
X011575Y019112D01*
X011588Y019135D01*
X011604Y019156D01*
X011623Y019174D01*
X011644Y019190D01*
X011668Y019202D01*
X011692Y019210D01*
X011718Y019215D01*
X011745Y019216D01*
X011771Y019213D01*
X011796Y019206D01*
X011820Y019196D01*
X011843Y019182D01*
X011863Y019166D01*
X011880Y019146D01*
X011895Y019124D01*
X011906Y019100D01*
X011914Y019075D01*
X011918Y019049D01*
X011918Y019023D01*
X011914Y018997D01*
X011906Y018972D01*
X011895Y018948D01*
X011880Y018926D01*
X011863Y018906D01*
X011843Y018890D01*
X011820Y018876D01*
X011796Y018866D01*
X011771Y018859D01*
X011745Y018856D01*
X011718Y018857D01*
X011692Y018862D01*
X011668Y018870D01*
X011644Y018882D01*
X011623Y018898D01*
X011604Y018916D01*
X011588Y018937D01*
X011575Y018960D01*
X011566Y018984D01*
X011560Y019010D01*
X011558Y019036D01*
X006048Y014922D02*
X006050Y014945D01*
X006056Y014966D01*
X006065Y014987D01*
X006078Y015006D01*
X006094Y015022D01*
X006113Y015035D01*
X006134Y015044D01*
X006155Y015050D01*
X006178Y015052D01*
X006201Y015050D01*
X006222Y015044D01*
X006243Y015035D01*
X006262Y015022D01*
X006278Y015006D01*
X006291Y014987D01*
X006300Y014966D01*
X006306Y014945D01*
X006308Y014922D01*
X006306Y014899D01*
X006300Y014878D01*
X006291Y014857D01*
X006278Y014838D01*
X006262Y014822D01*
X006243Y014809D01*
X006222Y014800D01*
X006201Y014794D01*
X006178Y014792D01*
X006155Y014794D01*
X006134Y014800D01*
X006113Y014809D01*
X006094Y014822D01*
X006078Y014838D01*
X006065Y014857D01*
X006056Y014878D01*
X006050Y014899D01*
X006048Y014922D01*
X008358Y013444D02*
X008360Y013467D01*
X008366Y013488D01*
X008375Y013509D01*
X008388Y013528D01*
X008404Y013544D01*
X008423Y013557D01*
X008444Y013566D01*
X008465Y013572D01*
X008488Y013574D01*
X008511Y013572D01*
X008532Y013566D01*
X008553Y013557D01*
X008572Y013544D01*
X008588Y013528D01*
X008601Y013509D01*
X008610Y013488D01*
X008616Y013467D01*
X008618Y013444D01*
X008616Y013421D01*
X008610Y013400D01*
X008601Y013379D01*
X008588Y013360D01*
X008572Y013344D01*
X008553Y013331D01*
X008532Y013322D01*
X008511Y013316D01*
X008488Y013314D01*
X008465Y013316D01*
X008444Y013322D01*
X008423Y013331D01*
X008404Y013344D01*
X008388Y013360D01*
X008375Y013379D01*
X008366Y013400D01*
X008360Y013421D01*
X008358Y013444D01*
X008198Y011903D02*
X008200Y011926D01*
X008206Y011947D01*
X008215Y011968D01*
X008228Y011987D01*
X008244Y012003D01*
X008263Y012016D01*
X008284Y012025D01*
X008305Y012031D01*
X008328Y012033D01*
X008351Y012031D01*
X008372Y012025D01*
X008393Y012016D01*
X008412Y012003D01*
X008428Y011987D01*
X008441Y011968D01*
X008450Y011947D01*
X008456Y011926D01*
X008458Y011903D01*
X008456Y011880D01*
X008450Y011859D01*
X008441Y011838D01*
X008428Y011819D01*
X008412Y011803D01*
X008393Y011790D01*
X008372Y011781D01*
X008351Y011775D01*
X008328Y011773D01*
X008305Y011775D01*
X008284Y011781D01*
X008263Y011790D01*
X008244Y011803D01*
X008228Y011819D01*
X008215Y011838D01*
X008206Y011859D01*
X008200Y011880D01*
X008198Y011903D01*
X010586Y009666D02*
X010588Y009692D01*
X010594Y009718D01*
X010603Y009742D01*
X010616Y009765D01*
X010632Y009786D01*
X010651Y009804D01*
X010672Y009820D01*
X010696Y009832D01*
X010720Y009840D01*
X010746Y009845D01*
X010773Y009846D01*
X010799Y009843D01*
X010824Y009836D01*
X010848Y009826D01*
X010871Y009812D01*
X010891Y009796D01*
X010908Y009776D01*
X010923Y009754D01*
X010934Y009730D01*
X010942Y009705D01*
X010946Y009679D01*
X010946Y009653D01*
X010942Y009627D01*
X010934Y009602D01*
X010923Y009578D01*
X010908Y009556D01*
X010891Y009536D01*
X010871Y009520D01*
X010848Y009506D01*
X010824Y009496D01*
X010799Y009489D01*
X010773Y009486D01*
X010746Y009487D01*
X010720Y009492D01*
X010696Y009500D01*
X010672Y009512D01*
X010651Y009528D01*
X010632Y009546D01*
X010616Y009567D01*
X010603Y009590D01*
X010594Y009614D01*
X010588Y009640D01*
X010586Y009666D01*
X008198Y007603D02*
X008200Y007626D01*
X008206Y007647D01*
X008215Y007668D01*
X008228Y007687D01*
X008244Y007703D01*
X008263Y007716D01*
X008284Y007725D01*
X008305Y007731D01*
X008328Y007733D01*
X008351Y007731D01*
X008372Y007725D01*
X008393Y007716D01*
X008412Y007703D01*
X008428Y007687D01*
X008441Y007668D01*
X008450Y007647D01*
X008456Y007626D01*
X008458Y007603D01*
X008456Y007580D01*
X008450Y007559D01*
X008441Y007538D01*
X008428Y007519D01*
X008412Y007503D01*
X008393Y007490D01*
X008372Y007481D01*
X008351Y007475D01*
X008328Y007473D01*
X008305Y007475D01*
X008284Y007481D01*
X008263Y007490D01*
X008244Y007503D01*
X008228Y007519D01*
X008215Y007538D01*
X008206Y007559D01*
X008200Y007580D01*
X008198Y007603D01*
X008058Y003707D02*
X008060Y003730D01*
X008066Y003751D01*
X008075Y003772D01*
X008088Y003791D01*
X008104Y003807D01*
X008123Y003820D01*
X008144Y003829D01*
X008165Y003835D01*
X008188Y003837D01*
X008211Y003835D01*
X008232Y003829D01*
X008253Y003820D01*
X008272Y003807D01*
X008288Y003791D01*
X008301Y003772D01*
X008310Y003751D01*
X008316Y003730D01*
X008318Y003707D01*
X008316Y003684D01*
X008310Y003663D01*
X008301Y003642D01*
X008288Y003623D01*
X008272Y003607D01*
X008253Y003594D01*
X008232Y003585D01*
X008211Y003579D01*
X008188Y003577D01*
X008165Y003579D01*
X008144Y003585D01*
X008123Y003594D01*
X008104Y003607D01*
X008088Y003623D01*
X008075Y003642D01*
X008066Y003663D01*
X008060Y003684D01*
X008058Y003707D01*
X005348Y003207D02*
X005350Y003230D01*
X005356Y003251D01*
X005365Y003272D01*
X005378Y003291D01*
X005394Y003307D01*
X005413Y003320D01*
X005434Y003329D01*
X005455Y003335D01*
X005478Y003337D01*
X005501Y003335D01*
X005522Y003329D01*
X005543Y003320D01*
X005562Y003307D01*
X005578Y003291D01*
X005591Y003272D01*
X005600Y003251D01*
X005606Y003230D01*
X005608Y003207D01*
X005606Y003184D01*
X005600Y003163D01*
X005591Y003142D01*
X005578Y003123D01*
X005562Y003107D01*
X005543Y003094D01*
X005522Y003085D01*
X005501Y003079D01*
X005478Y003077D01*
X005455Y003079D01*
X005434Y003085D01*
X005413Y003094D01*
X005394Y003107D01*
X005378Y003123D01*
X005365Y003142D01*
X005356Y003163D01*
X005350Y003184D01*
X005348Y003207D01*
X001811Y003224D02*
X001813Y003250D01*
X001819Y003276D01*
X001828Y003300D01*
X001841Y003323D01*
X001857Y003344D01*
X001876Y003362D01*
X001897Y003378D01*
X001921Y003390D01*
X001945Y003398D01*
X001971Y003403D01*
X001998Y003404D01*
X002024Y003401D01*
X002049Y003394D01*
X002073Y003384D01*
X002096Y003370D01*
X002116Y003354D01*
X002133Y003334D01*
X002148Y003312D01*
X002159Y003288D01*
X002167Y003263D01*
X002171Y003237D01*
X002171Y003211D01*
X002167Y003185D01*
X002159Y003160D01*
X002148Y003136D01*
X002133Y003114D01*
X002116Y003094D01*
X002096Y003078D01*
X002073Y003064D01*
X002049Y003054D01*
X002024Y003047D01*
X001998Y003044D01*
X001971Y003045D01*
X001945Y003050D01*
X001921Y003058D01*
X001897Y003070D01*
X001876Y003086D01*
X001857Y003104D01*
X001841Y003125D01*
X001828Y003148D01*
X001819Y003172D01*
X001813Y003198D01*
X001811Y003224D01*
X001024Y009279D02*
X001026Y009302D01*
X001032Y009323D01*
X001041Y009344D01*
X001054Y009363D01*
X001070Y009379D01*
X001089Y009392D01*
X001110Y009401D01*
X001131Y009407D01*
X001154Y009409D01*
X001177Y009407D01*
X001198Y009401D01*
X001219Y009392D01*
X001238Y009379D01*
X001254Y009363D01*
X001267Y009344D01*
X001276Y009323D01*
X001282Y009302D01*
X001284Y009279D01*
X001282Y009256D01*
X001276Y009235D01*
X001267Y009214D01*
X001254Y009195D01*
X001238Y009179D01*
X001219Y009166D01*
X001198Y009157D01*
X001177Y009151D01*
X001154Y009149D01*
X001131Y009151D01*
X001110Y009157D01*
X001089Y009166D01*
X001070Y009179D01*
X001054Y009195D01*
X001041Y009214D01*
X001032Y009235D01*
X001026Y009256D01*
X001024Y009279D01*
X001792Y014994D02*
X001794Y015017D01*
X001800Y015038D01*
X001809Y015059D01*
X001822Y015078D01*
X001838Y015094D01*
X001857Y015107D01*
X001878Y015116D01*
X001899Y015122D01*
X001922Y015124D01*
X001945Y015122D01*
X001966Y015116D01*
X001987Y015107D01*
X002006Y015094D01*
X002022Y015078D01*
X002035Y015059D01*
X002044Y015038D01*
X002050Y015017D01*
X002052Y014994D01*
X002050Y014971D01*
X002044Y014950D01*
X002035Y014929D01*
X002022Y014910D01*
X002006Y014894D01*
X001987Y014881D01*
X001966Y014872D01*
X001945Y014866D01*
X001922Y014864D01*
X001899Y014866D01*
X001878Y014872D01*
X001857Y014881D01*
X001838Y014894D01*
X001822Y014910D01*
X001809Y014929D01*
X001800Y014950D01*
X001794Y014971D01*
X001792Y014994D01*
X010817Y014150D02*
X010819Y014176D01*
X010825Y014202D01*
X010834Y014226D01*
X010847Y014249D01*
X010863Y014270D01*
X010882Y014288D01*
X010903Y014304D01*
X010927Y014316D01*
X010951Y014324D01*
X010977Y014329D01*
X011004Y014330D01*
X011030Y014327D01*
X011055Y014320D01*
X011079Y014310D01*
X011102Y014296D01*
X011122Y014280D01*
X011139Y014260D01*
X011154Y014238D01*
X011165Y014214D01*
X011173Y014189D01*
X011177Y014163D01*
X011177Y014137D01*
X011173Y014111D01*
X011165Y014086D01*
X011154Y014062D01*
X011139Y014040D01*
X011122Y014020D01*
X011102Y014004D01*
X011079Y013990D01*
X011055Y013980D01*
X011030Y013973D01*
X011004Y013970D01*
X010977Y013971D01*
X010951Y013976D01*
X010927Y013984D01*
X010903Y013996D01*
X010882Y014012D01*
X010863Y014030D01*
X010847Y014051D01*
X010834Y014074D01*
X010825Y014098D01*
X010819Y014124D01*
X010817Y014150D01*
X021361Y007492D02*
X021363Y007518D01*
X021369Y007544D01*
X021378Y007568D01*
X021391Y007591D01*
X021407Y007612D01*
X021426Y007630D01*
X021447Y007646D01*
X021471Y007658D01*
X021495Y007666D01*
X021521Y007671D01*
X021548Y007672D01*
X021574Y007669D01*
X021599Y007662D01*
X021623Y007652D01*
X021646Y007638D01*
X021666Y007622D01*
X021683Y007602D01*
X021698Y007580D01*
X021709Y007556D01*
X021717Y007531D01*
X021721Y007505D01*
X021721Y007479D01*
X021717Y007453D01*
X021709Y007428D01*
X021698Y007404D01*
X021683Y007382D01*
X021666Y007362D01*
X021646Y007346D01*
X021623Y007332D01*
X021599Y007322D01*
X021574Y007315D01*
X021548Y007312D01*
X021521Y007313D01*
X021495Y007318D01*
X021471Y007326D01*
X021447Y007338D01*
X021426Y007354D01*
X021407Y007372D01*
X021391Y007393D01*
X021378Y007416D01*
X021369Y007440D01*
X021363Y007466D01*
X021361Y007492D01*
X024200Y007502D02*
X024202Y007528D01*
X024208Y007554D01*
X024217Y007578D01*
X024230Y007601D01*
X024246Y007622D01*
X024265Y007640D01*
X024286Y007656D01*
X024310Y007668D01*
X024334Y007676D01*
X024360Y007681D01*
X024387Y007682D01*
X024413Y007679D01*
X024438Y007672D01*
X024462Y007662D01*
X024485Y007648D01*
X024505Y007632D01*
X024522Y007612D01*
X024537Y007590D01*
X024548Y007566D01*
X024556Y007541D01*
X024560Y007515D01*
X024560Y007489D01*
X024556Y007463D01*
X024548Y007438D01*
X024537Y007414D01*
X024522Y007392D01*
X024505Y007372D01*
X024485Y007356D01*
X024462Y007342D01*
X024438Y007332D01*
X024413Y007325D01*
X024387Y007322D01*
X024360Y007323D01*
X024334Y007328D01*
X024310Y007336D01*
X024286Y007348D01*
X024265Y007364D01*
X024246Y007382D01*
X024230Y007403D01*
X024217Y007426D01*
X024208Y007450D01*
X024202Y007476D01*
X024200Y007502D01*
X026673Y006069D02*
X026675Y006095D01*
X026681Y006121D01*
X026690Y006145D01*
X026703Y006168D01*
X026719Y006189D01*
X026738Y006207D01*
X026759Y006223D01*
X026783Y006235D01*
X026807Y006243D01*
X026833Y006248D01*
X026860Y006249D01*
X026886Y006246D01*
X026911Y006239D01*
X026935Y006229D01*
X026958Y006215D01*
X026978Y006199D01*
X026995Y006179D01*
X027010Y006157D01*
X027021Y006133D01*
X027029Y006108D01*
X027033Y006082D01*
X027033Y006056D01*
X027029Y006030D01*
X027021Y006005D01*
X027010Y005981D01*
X026995Y005959D01*
X026978Y005939D01*
X026958Y005923D01*
X026935Y005909D01*
X026911Y005899D01*
X026886Y005892D01*
X026860Y005889D01*
X026833Y005890D01*
X026807Y005895D01*
X026783Y005903D01*
X026759Y005915D01*
X026738Y005931D01*
X026719Y005949D01*
X026703Y005970D01*
X026690Y005993D01*
X026681Y006017D01*
X026675Y006043D01*
X026673Y006069D01*
X016761Y005489D02*
X016763Y005515D01*
X016769Y005541D01*
X016778Y005565D01*
X016791Y005588D01*
X016807Y005609D01*
X016826Y005627D01*
X016847Y005643D01*
X016871Y005655D01*
X016895Y005663D01*
X016921Y005668D01*
X016948Y005669D01*
X016974Y005666D01*
X016999Y005659D01*
X017023Y005649D01*
X017046Y005635D01*
X017066Y005619D01*
X017083Y005599D01*
X017098Y005577D01*
X017109Y005553D01*
X017117Y005528D01*
X017121Y005502D01*
X017121Y005476D01*
X017117Y005450D01*
X017109Y005425D01*
X017098Y005401D01*
X017083Y005379D01*
X017066Y005359D01*
X017046Y005343D01*
X017023Y005329D01*
X016999Y005319D01*
X016974Y005312D01*
X016948Y005309D01*
X016921Y005310D01*
X016895Y005315D01*
X016871Y005323D01*
X016847Y005335D01*
X016826Y005351D01*
X016807Y005369D01*
X016791Y005390D01*
X016778Y005413D01*
X016769Y005437D01*
X016763Y005463D01*
X016761Y005489D01*
X014398Y004702D02*
X014400Y004728D01*
X014406Y004754D01*
X014415Y004778D01*
X014428Y004801D01*
X014444Y004822D01*
X014463Y004840D01*
X014484Y004856D01*
X014508Y004868D01*
X014532Y004876D01*
X014558Y004881D01*
X014585Y004882D01*
X014611Y004879D01*
X014636Y004872D01*
X014660Y004862D01*
X014683Y004848D01*
X014703Y004832D01*
X014720Y004812D01*
X014735Y004790D01*
X014746Y004766D01*
X014754Y004741D01*
X014758Y004715D01*
X014758Y004689D01*
X014754Y004663D01*
X014746Y004638D01*
X014735Y004614D01*
X014720Y004592D01*
X014703Y004572D01*
X014683Y004556D01*
X014660Y004542D01*
X014636Y004532D01*
X014611Y004525D01*
X014585Y004522D01*
X014558Y004523D01*
X014532Y004528D01*
X014508Y004536D01*
X014484Y004548D01*
X014463Y004564D01*
X014444Y004582D01*
X014428Y004603D01*
X014415Y004626D01*
X014406Y004650D01*
X014400Y004676D01*
X014398Y004702D01*
X011294Y003608D02*
X011296Y003634D01*
X011302Y003660D01*
X011311Y003684D01*
X011324Y003707D01*
X011340Y003728D01*
X011359Y003746D01*
X011380Y003762D01*
X011404Y003774D01*
X011428Y003782D01*
X011454Y003787D01*
X011481Y003788D01*
X011507Y003785D01*
X011532Y003778D01*
X011556Y003768D01*
X011579Y003754D01*
X011599Y003738D01*
X011616Y003718D01*
X011631Y003696D01*
X011642Y003672D01*
X011650Y003647D01*
X011654Y003621D01*
X011654Y003595D01*
X011650Y003569D01*
X011642Y003544D01*
X011631Y003520D01*
X011616Y003498D01*
X011599Y003478D01*
X011579Y003462D01*
X011556Y003448D01*
X011532Y003438D01*
X011507Y003431D01*
X011481Y003428D01*
X011454Y003429D01*
X011428Y003434D01*
X011404Y003442D01*
X011380Y003454D01*
X011359Y003470D01*
X011340Y003488D01*
X011324Y003509D01*
X011311Y003532D01*
X011302Y003556D01*
X011296Y003582D01*
X011294Y003608D01*
D12*
X005939Y013582D03*
X005939Y013956D03*
X005939Y014330D03*
X004837Y014330D03*
X004837Y013582D03*
D13*
X005939Y014330D02*
X005576Y014693D01*
X005939Y014330D02*
X006648Y014330D01*
X006961Y014642D01*
X005044Y014828D02*
X004719Y015003D01*
X002795Y014995D01*
X002469Y014623D01*
X002477Y013926D01*
X002069Y013883D01*
X001789Y013653D01*
X001771Y010498D01*
X001758Y009898D01*
X001776Y008963D01*
X001238Y008303D01*
X002299Y007723D02*
X002299Y006803D01*
X002308Y006794D01*
X001264Y006766D02*
X001264Y005417D01*
X001270Y005417D02*
X001270Y004155D01*
X002308Y004155D01*
X002391Y003980D02*
X004026Y003980D01*
X004256Y003980D01*
X003919Y010183D02*
X003919Y010943D01*
X003919Y012593D01*
X003570Y012942D01*
X002477Y012942D01*
X004618Y012007D02*
X004618Y011443D01*
X004618Y012007D02*
X005064Y012511D01*
X005739Y011335D02*
X005739Y010183D01*
X011863Y015258D02*
X012205Y016196D01*
X012674Y016025D02*
X012332Y015087D01*
X012802Y014916D02*
X013144Y015854D01*
X013614Y015683D02*
X013272Y014745D01*
X013742Y014574D02*
X014084Y015512D01*
X014554Y015341D02*
X014212Y014403D01*
X014682Y014232D02*
X015024Y015170D01*
X015494Y014999D02*
X015152Y014061D01*
X015621Y013890D02*
X015963Y014828D01*
X016433Y014657D02*
X016091Y013719D01*
X011393Y015429D02*
X011735Y016367D01*
X016008Y019368D02*
X016350Y020306D01*
X015880Y020477D02*
X015538Y019539D01*
X015069Y019710D02*
X015411Y020648D01*
X014941Y020819D02*
X014599Y019881D01*
X016478Y019197D02*
X016820Y020135D01*
X017290Y019964D02*
X016948Y019026D01*
X017418Y018855D02*
X017760Y019793D01*
X018230Y019622D02*
X017888Y018684D01*
X018080Y009064D02*
X018119Y009023D01*
D14*
X016173Y009094D03*
X016161Y009291D03*
X016161Y009488D03*
X016161Y009684D03*
X016161Y009881D03*
X016173Y010078D03*
X014606Y009881D03*
X014606Y009684D03*
X014606Y009488D03*
X014606Y009291D03*
X014593Y009094D03*
X014593Y010078D03*
D15*
X014891Y010376D03*
X015088Y010363D03*
X015285Y010363D03*
X015482Y010363D03*
X015678Y010363D03*
X015875Y010376D03*
X015678Y008808D03*
X015482Y008808D03*
X015285Y008808D03*
X015088Y008808D03*
X014891Y008796D03*
X015875Y008796D03*
D16*
X015383Y009586D03*
D17*
X015383Y009586D03*
D18*
X014329Y009681D03*
X014328Y009881D03*
X014328Y010081D03*
X014329Y009481D03*
X014328Y009294D03*
X014328Y009094D03*
X016429Y009094D03*
X016429Y009294D03*
X016430Y009481D03*
X016430Y009681D03*
X016429Y009881D03*
X016429Y010081D03*
D19*
X015878Y010642D03*
X015678Y010642D03*
X015478Y010641D03*
X015278Y010641D03*
X015091Y010642D03*
X014891Y010642D03*
X014888Y008531D03*
X015088Y008531D03*
X015288Y008532D03*
X015488Y008532D03*
X015676Y008531D03*
X015876Y008531D03*
D20*
X019709Y011496D03*
X019709Y011752D03*
X019709Y012008D03*
X019709Y012264D03*
X019709Y012519D03*
X019709Y012775D03*
X019709Y013031D03*
X019709Y013287D03*
X019709Y013543D03*
X019709Y013799D03*
X019709Y014055D03*
X019709Y014311D03*
X022588Y014311D03*
X022588Y014055D03*
X022588Y013799D03*
X022588Y013543D03*
X022588Y013287D03*
X022588Y013031D03*
X022588Y012775D03*
X022588Y012519D03*
X022588Y012264D03*
X022588Y012008D03*
X022588Y011752D03*
X022588Y011496D03*
D21*
X007424Y006348D03*
X007424Y006098D03*
X007424Y005848D03*
X007424Y005598D03*
X007424Y005348D03*
X007424Y005098D03*
X007424Y004848D03*
X007424Y004598D03*
X007424Y004348D03*
X007424Y004098D03*
X005314Y004098D03*
X005314Y004348D03*
X005314Y004598D03*
X005314Y004848D03*
X005314Y005098D03*
X005314Y005348D03*
X005314Y005598D03*
X005314Y005848D03*
X005314Y006098D03*
X005314Y006348D03*
D22*
X001758Y009898D03*
X001246Y009898D03*
X005153Y013143D03*
X005665Y013143D03*
X016141Y012312D03*
X016652Y012312D03*
D23*
X007826Y014652D03*
X006961Y014642D03*
D24*
X005720Y011443D03*
X004618Y011443D03*
X002340Y008303D03*
X001238Y008303D03*
X011388Y013053D03*
X012490Y013053D03*
D25*
X018072Y010962D03*
X018072Y010292D03*
X018080Y009733D03*
X018080Y009064D03*
X015049Y006728D03*
X015049Y006059D03*
X014185Y006063D03*
X014185Y006732D03*
X008292Y005659D03*
X008292Y004989D03*
X004026Y004650D03*
X004026Y003980D03*
D26*
X004329Y005979D03*
X004329Y006648D03*
X003527Y006653D03*
X003527Y005984D03*
X005064Y012511D03*
X005733Y012511D03*
X016100Y011692D03*
X016769Y011692D03*
X025415Y008523D03*
X026084Y008523D03*
D27*
X026124Y009252D03*
X025809Y009252D03*
X025494Y009252D03*
X025179Y009252D03*
X025179Y009744D03*
X025494Y009744D03*
X025809Y009744D03*
X026124Y009744D03*
D28*
X005556Y014828D03*
X005044Y014828D03*
D29*
X017803Y013896D03*
X017803Y013581D03*
X017803Y013266D03*
X017803Y012951D03*
X017803Y012486D03*
X017803Y012171D03*
X017803Y011856D03*
X017803Y011541D03*
X018295Y011541D03*
X018295Y011856D03*
X018295Y012171D03*
X018295Y012486D03*
X018295Y012951D03*
X018295Y013266D03*
X018295Y013581D03*
X018295Y013896D03*
D30*
X015036Y012950D03*
X015036Y012438D03*
D31*
X023929Y012257D03*
X024929Y012257D03*
X025639Y010773D03*
X026639Y010773D03*
D32*
X005739Y010183D03*
X004829Y010183D03*
X003919Y010183D03*
D33*
X004829Y007743D03*
D34*
X003429Y004933D03*
X012329Y003733D03*
X013832Y008237D03*
X007356Y013956D03*
X004347Y013185D03*
X016316Y022241D03*
X018329Y014733D03*
X026329Y007233D03*
D35*
X002328Y005941D03*
X002328Y005685D03*
X002328Y005429D03*
X002328Y005173D03*
X002328Y004917D03*
D36*
X002308Y004024D03*
X002308Y006794D03*
D37*
X001264Y006766D02*
X001264Y007326D01*
X001270Y004155D02*
X001270Y003595D01*
D38*
X001284Y005417D03*
D39*
X001265Y005427D03*
D40*
X001169Y010624D03*
X002587Y010624D03*
D41*
X002477Y011958D03*
X002477Y012942D03*
X002477Y013926D03*
X001178Y013926D03*
X001178Y012942D03*
X001178Y011958D03*
D42*
X006778Y010774D03*
X006778Y010381D03*
X006778Y009987D03*
X006778Y009593D03*
X006778Y009200D03*
X006778Y008806D03*
D43*
X008303Y008294D03*
X008303Y011286D03*
D44*
X012281Y007457D03*
X012298Y006586D03*
X012396Y005903D03*
X012544Y005253D03*
X012721Y004577D03*
D45*
X018080Y008984D02*
X018080Y009064D01*
X017088Y010279D02*
X017091Y010591D01*
X017309Y010813D01*
X017309Y010990D01*
X017868Y010990D01*
X017868Y011791D01*
X017803Y011856D01*
X017309Y011993D02*
X017131Y012282D01*
X016695Y012282D01*
X017309Y011993D02*
X017309Y010990D01*
X017868Y010990D02*
X018044Y010990D01*
X018072Y010962D01*
X015709Y013473D02*
X016009Y014263D01*
X013443Y015214D02*
X013177Y014483D01*
X012931Y013704D01*
X012490Y013695D01*
X012490Y013318D01*
X012490Y013053D01*
X006858Y010383D02*
X006215Y010376D01*
X005720Y011443D02*
X005720Y012440D01*
X005733Y012511D02*
X005733Y013035D01*
X005939Y013582D02*
X005928Y013593D01*
X005470Y013596D01*
X005130Y013936D01*
X003929Y013933D01*
X004618Y011443D02*
X004618Y011055D01*
X004829Y010843D01*
X003229Y010933D02*
X002919Y010624D01*
X002587Y010624D01*
X001169Y010624D02*
X001169Y010022D01*
X001246Y009898D01*
X014770Y020350D02*
X015099Y021213D01*
X015741Y021448D01*
X024929Y012257D02*
X024910Y011987D01*
X024910Y010020D01*
X025179Y009744D01*
X025179Y009252D02*
X024194Y009252D01*
X023842Y008900D01*
X025179Y008759D02*
X025415Y008523D01*
X025179Y008759D02*
X025179Y009252D01*
X025494Y009252D01*
X025809Y009252D01*
X026124Y009252D01*
X026124Y009744D02*
X026124Y010288D01*
X025639Y010773D01*
D46*
X023842Y008900D03*
X021069Y011493D03*
X018883Y011633D03*
X018847Y012033D03*
X018786Y012420D03*
X018820Y012844D03*
X018831Y013242D03*
X018829Y013633D03*
X019215Y015633D03*
X019929Y015633D03*
X018711Y016714D03*
X017917Y015645D03*
X015329Y015633D03*
X015709Y013473D03*
X015029Y013333D03*
X012490Y013695D03*
X011229Y012033D03*
X013699Y010493D03*
X016068Y011102D03*
X017088Y010279D03*
X017085Y008840D03*
X015991Y007424D03*
X014218Y007230D03*
X011630Y006209D03*
X011628Y005257D03*
X006929Y005353D03*
X006529Y004613D03*
X005464Y006992D03*
X006215Y010376D03*
X004829Y010843D03*
X003229Y010933D03*
X003929Y013933D03*
X015741Y021448D03*
X018119Y020032D03*
X016798Y018643D03*
X021629Y014133D03*
D47*
X006529Y013433D03*
X006459Y012283D03*
X002299Y007723D03*
D48*
X010563Y010047D02*
X010554Y011048D01*
X010660Y013223D01*
X010723Y013817D01*
X010754Y013786D01*
X010912Y013720D01*
X011083Y013720D01*
X011241Y013786D01*
X011362Y013907D01*
X011427Y014065D01*
X011427Y014236D01*
X011362Y014394D01*
X011241Y014515D01*
X011083Y014580D01*
X010912Y014580D01*
X010799Y014533D01*
X010848Y014992D01*
X012733Y014305D01*
X012658Y014068D01*
X012647Y014068D01*
X012571Y014100D01*
X012410Y014100D01*
X012261Y014038D01*
X012147Y013924D01*
X012085Y013775D01*
X012085Y013614D01*
X012096Y013590D01*
X012073Y013580D01*
X012002Y013510D01*
X011964Y013418D01*
X011964Y012689D01*
X012002Y012597D01*
X012059Y012540D01*
X012009Y012519D01*
X011953Y012496D01*
X011953Y012496D01*
X011952Y012495D01*
X011909Y012452D01*
X011866Y012409D01*
X011866Y012408D01*
X011107Y011643D01*
X011064Y011600D01*
X011064Y011599D01*
X011063Y011599D01*
X011040Y011542D01*
X011017Y011486D01*
X011017Y011485D01*
X011017Y011485D01*
X011017Y011423D01*
X011018Y010023D01*
X011010Y010031D01*
X010852Y010096D01*
X010681Y010096D01*
X010563Y010047D01*
X010562Y010121D02*
X011018Y010121D01*
X011018Y010219D02*
X010561Y010219D01*
X010560Y010318D02*
X011018Y010318D01*
X011018Y010416D02*
X010559Y010416D01*
X010559Y010515D02*
X011018Y010515D01*
X011017Y010613D02*
X010558Y010613D01*
X010557Y010712D02*
X011017Y010712D01*
X011017Y010810D02*
X010556Y010810D01*
X010555Y010909D02*
X011017Y010909D01*
X011017Y011007D02*
X010554Y011007D01*
X010557Y011106D02*
X011017Y011106D01*
X011017Y011204D02*
X010562Y011204D01*
X010566Y011303D02*
X011017Y011303D01*
X011017Y011401D02*
X010571Y011401D01*
X010576Y011500D02*
X011023Y011500D01*
X011063Y011598D02*
X010581Y011598D01*
X010586Y011697D02*
X011160Y011697D01*
X011258Y011795D02*
X010590Y011795D01*
X010595Y011894D02*
X011356Y011894D01*
X011453Y011992D02*
X010600Y011992D01*
X010605Y012091D02*
X011551Y012091D01*
X011649Y012189D02*
X010610Y012189D01*
X010614Y012288D02*
X011746Y012288D01*
X011844Y012386D02*
X010619Y012386D01*
X010624Y012485D02*
X011942Y012485D01*
X012016Y012583D02*
X010629Y012583D01*
X010633Y012682D02*
X010972Y012682D01*
X010972Y012680D02*
X010992Y012646D01*
X011020Y012618D01*
X011054Y012599D01*
X011092Y012588D01*
X011338Y012588D01*
X011338Y013003D01*
X011438Y013003D01*
X011438Y013103D01*
X011813Y013103D01*
X011813Y013388D01*
X011803Y013426D01*
X011783Y013460D01*
X011755Y013488D01*
X011721Y013508D01*
X011683Y013518D01*
X011438Y013518D01*
X011438Y013103D01*
X011338Y013103D01*
X011338Y013518D01*
X011092Y013518D01*
X011054Y013508D01*
X011020Y013488D01*
X010992Y013460D01*
X010972Y013426D01*
X010962Y013388D01*
X010962Y013103D01*
X011338Y013103D01*
X011338Y013003D01*
X010962Y013003D01*
X010962Y012719D01*
X010972Y012680D01*
X010962Y012780D02*
X010638Y012780D01*
X010643Y012879D02*
X010962Y012879D01*
X010962Y012977D02*
X010648Y012977D01*
X010653Y013076D02*
X011338Y013076D01*
X011338Y013174D02*
X011438Y013174D01*
X011438Y013076D02*
X011964Y013076D01*
X011964Y013174D02*
X011813Y013174D01*
X011813Y013273D02*
X011964Y013273D01*
X011964Y013371D02*
X011813Y013371D01*
X011774Y013470D02*
X011986Y013470D01*
X012061Y013568D02*
X010696Y013568D01*
X010686Y013470D02*
X011001Y013470D01*
X010962Y013371D02*
X010676Y013371D01*
X010665Y013273D02*
X010962Y013273D01*
X010962Y013174D02*
X010657Y013174D01*
X010707Y013667D02*
X012085Y013667D01*
X012085Y013765D02*
X011192Y013765D01*
X011319Y013864D02*
X012122Y013864D01*
X012185Y013962D02*
X011385Y013962D01*
X011426Y014061D02*
X012316Y014061D01*
X012687Y014159D02*
X011427Y014159D01*
X011418Y014258D02*
X012718Y014258D01*
X012593Y014356D02*
X011377Y014356D01*
X011301Y014455D02*
X012323Y014455D01*
X012052Y014553D02*
X011148Y014553D01*
X010847Y014553D02*
X010801Y014553D01*
X010812Y014652D02*
X011781Y014652D01*
X011511Y014750D02*
X010822Y014750D01*
X010832Y014849D02*
X011240Y014849D01*
X010969Y014947D02*
X010843Y014947D01*
X010803Y013765D02*
X010717Y013765D01*
X011338Y013470D02*
X011438Y013470D01*
X011438Y013371D02*
X011338Y013371D01*
X011338Y013273D02*
X011438Y013273D01*
X011438Y013003D02*
X011813Y013003D01*
X011813Y012719D01*
X011803Y012680D01*
X011783Y012646D01*
X011755Y012618D01*
X011721Y012599D01*
X011683Y012588D01*
X011438Y012588D01*
X011438Y013003D01*
X011438Y012977D02*
X011338Y012977D01*
X011338Y012879D02*
X011438Y012879D01*
X011438Y012780D02*
X011338Y012780D01*
X011338Y012682D02*
X011438Y012682D01*
X011803Y012682D02*
X011967Y012682D01*
X011964Y012780D02*
X011813Y012780D01*
X011813Y012879D02*
X011964Y012879D01*
X011964Y012977D02*
X011813Y012977D01*
X013303Y011477D02*
X013362Y011502D01*
X013422Y011526D01*
X013422Y011527D01*
X013424Y011528D01*
X013469Y011574D01*
X014259Y012359D01*
X014260Y012360D01*
X014305Y012405D01*
X014350Y012450D01*
X014351Y012452D01*
X014352Y012453D01*
X014376Y012512D01*
X014401Y012571D01*
X014401Y012573D01*
X014402Y012575D01*
X014401Y012639D01*
X014401Y012703D01*
X014401Y012704D01*
X014398Y013040D01*
X014445Y013083D01*
X014632Y013233D01*
X014640Y013213D01*
X014609Y013138D01*
X014609Y012763D01*
X014637Y012694D01*
X014609Y012626D01*
X014609Y012422D01*
X014581Y012355D01*
X014581Y010629D01*
X014566Y010593D01*
X014566Y010346D01*
X014493Y010376D01*
X014163Y010376D01*
X014072Y010338D01*
X014001Y010268D01*
X013963Y010176D01*
X013963Y009986D01*
X013965Y009981D01*
X013963Y009976D01*
X013963Y009786D01*
X013966Y009780D01*
X013964Y009776D01*
X013964Y009586D01*
X013966Y009581D01*
X013964Y009576D01*
X013964Y009391D01*
X013963Y009388D01*
X013963Y009199D01*
X013965Y009194D01*
X013963Y009188D01*
X013963Y008999D01*
X014001Y008907D01*
X014072Y008837D01*
X014163Y008799D01*
X014305Y008799D01*
X014376Y008769D01*
X014566Y008769D01*
X014566Y008579D01*
X014593Y008514D01*
X014593Y008366D01*
X014631Y008274D01*
X014702Y008204D01*
X014789Y008168D01*
X014789Y007723D01*
X014351Y007723D01*
X014241Y007678D01*
X014198Y007635D01*
X014137Y007635D01*
X013988Y007574D01*
X013874Y007460D01*
X013813Y007311D01*
X013813Y007150D01*
X013820Y007133D01*
X013776Y007090D01*
X013738Y006998D01*
X013738Y006466D01*
X013776Y006374D01*
X013841Y006309D01*
X013838Y006299D01*
X013838Y006111D01*
X014137Y006111D01*
X014137Y006014D01*
X013838Y006014D01*
X013838Y005863D01*
X012921Y005863D01*
X012921Y006008D01*
X012841Y006201D01*
X012693Y006348D01*
X012661Y006362D01*
X012661Y006363D01*
X012692Y006422D01*
X012713Y006486D01*
X012722Y006548D01*
X012336Y006548D01*
X012336Y006623D01*
X012722Y006623D01*
X012713Y006685D01*
X012692Y006749D01*
X012661Y006808D01*
X012622Y006862D01*
X012575Y006910D01*
X012521Y006949D01*
X012479Y006970D01*
X012578Y007011D01*
X012726Y007159D01*
X012806Y007352D01*
X012806Y007561D01*
X012726Y007754D01*
X012578Y007902D01*
X012385Y007982D01*
X012177Y007982D01*
X011984Y007902D01*
X011955Y007873D01*
X011954Y008273D01*
X012043Y008369D01*
X012085Y008411D01*
X012088Y008417D01*
X012092Y008421D01*
X012113Y008477D01*
X012136Y008532D01*
X012136Y008538D01*
X012138Y008544D01*
X012136Y008604D01*
X012143Y011130D01*
X012477Y011473D01*
X013236Y011477D01*
X013300Y011476D01*
X013301Y011477D01*
X013303Y011477D01*
X013357Y011500D02*
X014581Y011500D01*
X014581Y011598D02*
X013494Y011598D01*
X013593Y011697D02*
X014581Y011697D01*
X014581Y011795D02*
X013692Y011795D01*
X013791Y011894D02*
X014581Y011894D01*
X014581Y011992D02*
X013890Y011992D01*
X013989Y012091D02*
X014581Y012091D01*
X014581Y012189D02*
X014088Y012189D01*
X014187Y012288D02*
X014581Y012288D01*
X014594Y012386D02*
X014287Y012386D01*
X014365Y012485D02*
X014609Y012485D01*
X014609Y012583D02*
X014402Y012583D01*
X014401Y012682D02*
X014632Y012682D01*
X014609Y012780D02*
X014400Y012780D01*
X014399Y012879D02*
X014609Y012879D01*
X014609Y012977D02*
X014398Y012977D01*
X014436Y013076D02*
X014609Y013076D01*
X014624Y013174D02*
X014558Y013174D01*
X015627Y012322D02*
X016141Y012312D01*
X016136Y012220D01*
X016129Y012225D02*
X016141Y012312D01*
X015627Y012322D02*
X015088Y011783D01*
X015088Y010363D01*
X014566Y010416D02*
X012141Y010416D01*
X012141Y010318D02*
X014052Y010318D01*
X013981Y010219D02*
X012140Y010219D01*
X012140Y010121D02*
X013963Y010121D01*
X013963Y010022D02*
X012140Y010022D01*
X012140Y009924D02*
X013963Y009924D01*
X013963Y009825D02*
X012139Y009825D01*
X012139Y009727D02*
X013964Y009727D01*
X013964Y009628D02*
X012139Y009628D01*
X012138Y009530D02*
X013964Y009530D01*
X013964Y009431D02*
X012138Y009431D01*
X012138Y009333D02*
X013963Y009333D01*
X013963Y009234D02*
X012138Y009234D01*
X012137Y009136D02*
X013963Y009136D01*
X013963Y009037D02*
X012137Y009037D01*
X012137Y008939D02*
X013988Y008939D01*
X014068Y008840D02*
X012137Y008840D01*
X012136Y008742D02*
X014566Y008742D01*
X014566Y008643D02*
X014018Y008643D01*
X014085Y008616D02*
X013921Y008684D01*
X013743Y008684D01*
X013579Y008616D01*
X013453Y008490D01*
X013385Y008326D01*
X013385Y008148D01*
X013453Y007984D01*
X013579Y007858D01*
X013743Y007790D01*
X013921Y007790D01*
X014085Y007858D01*
X014211Y007984D01*
X014279Y008148D01*
X014279Y008326D01*
X014211Y008490D01*
X014085Y008616D01*
X014156Y008545D02*
X014580Y008545D01*
X014593Y008446D02*
X014229Y008446D01*
X014270Y008348D02*
X014601Y008348D01*
X014656Y008249D02*
X014279Y008249D01*
X014279Y008151D02*
X014789Y008151D01*
X014789Y008052D02*
X014239Y008052D01*
X014181Y007954D02*
X014789Y007954D01*
X014789Y007855D02*
X014079Y007855D01*
X014221Y007658D02*
X012766Y007658D01*
X012806Y007560D02*
X013974Y007560D01*
X013876Y007461D02*
X012806Y007461D01*
X012806Y007363D02*
X013834Y007363D01*
X013813Y007264D02*
X012770Y007264D01*
X012729Y007166D02*
X013813Y007166D01*
X013767Y007067D02*
X012634Y007067D01*
X012482Y006969D02*
X013738Y006969D01*
X013738Y006870D02*
X012614Y006870D01*
X012680Y006772D02*
X013738Y006772D01*
X013738Y006673D02*
X012714Y006673D01*
X012709Y006476D02*
X013738Y006476D01*
X013738Y006575D02*
X012336Y006575D01*
X012669Y006378D02*
X013775Y006378D01*
X013838Y006279D02*
X012762Y006279D01*
X012849Y006181D02*
X013838Y006181D01*
X013838Y005984D02*
X012921Y005984D01*
X012921Y005885D02*
X013838Y005885D01*
X014137Y006082D02*
X012890Y006082D01*
X013069Y005203D02*
X015394Y005203D01*
X015516Y005254D01*
X015608Y005346D01*
X016108Y005846D01*
X016159Y005968D01*
X016159Y006303D01*
X016294Y006303D01*
X016416Y006354D01*
X016508Y006446D01*
X017208Y007146D01*
X017259Y007268D01*
X017259Y007697D01*
X017265Y007703D01*
X018294Y007703D01*
X018416Y007754D01*
X018508Y007846D01*
X019208Y008546D01*
X019259Y008668D01*
X019259Y010197D01*
X019865Y010803D01*
X023594Y010803D01*
X023716Y010854D01*
X023808Y010946D01*
X024208Y011346D01*
X024259Y011468D01*
X024259Y011865D01*
X024429Y012035D01*
X024540Y011925D01*
X024540Y010022D01*
X024539Y009951D01*
X024540Y009949D01*
X024540Y009946D01*
X024567Y009880D01*
X024594Y009814D01*
X024596Y009812D01*
X024597Y009810D01*
X024647Y009760D01*
X024781Y009622D01*
X024121Y009622D01*
X023985Y009566D01*
X023880Y009462D01*
X023880Y009462D01*
X023697Y009278D01*
X023613Y009243D01*
X023499Y009129D01*
X023437Y008981D01*
X023437Y008819D01*
X023499Y008671D01*
X023613Y008557D01*
X023762Y008495D01*
X023923Y008495D01*
X024072Y008557D01*
X024186Y008671D01*
X024221Y008755D01*
X024347Y008882D01*
X024809Y008882D01*
X024809Y008685D01*
X024865Y008549D01*
X024948Y008466D01*
X024948Y008276D01*
X024986Y008184D01*
X025057Y008114D01*
X025148Y008076D01*
X025681Y008076D01*
X025773Y008114D01*
X025837Y008179D01*
X025848Y008176D01*
X026036Y008176D01*
X026036Y008474D01*
X026132Y008474D01*
X026132Y008176D01*
X026320Y008176D01*
X026358Y008186D01*
X026393Y008206D01*
X026421Y008234D01*
X026440Y008268D01*
X026450Y008306D01*
X026450Y008474D01*
X026132Y008474D01*
X026132Y008571D01*
X026036Y008571D01*
X026036Y008870D01*
X025848Y008870D01*
X025837Y008867D01*
X025830Y008874D01*
X025957Y008874D01*
X025966Y008878D01*
X025975Y008874D01*
X026272Y008874D01*
X026364Y008912D01*
X026434Y008982D01*
X026472Y009074D01*
X026472Y009126D01*
X026494Y009178D01*
X026494Y009326D01*
X026472Y009378D01*
X026472Y009430D01*
X026444Y009498D01*
X026472Y009566D01*
X026472Y009618D01*
X026494Y009670D01*
X026494Y010362D01*
X026493Y010363D01*
X026609Y010363D01*
X026609Y010743D01*
X026669Y010743D01*
X026669Y010803D01*
X027049Y010803D01*
X027049Y010812D01*
X028071Y009957D01*
X028242Y009792D01*
X028187Y009815D01*
X028016Y009815D01*
X027858Y009750D01*
X027737Y009629D01*
X027671Y009471D01*
X027671Y009300D01*
X027737Y009142D01*
X027858Y009021D01*
X028016Y008955D01*
X028187Y008955D01*
X028345Y009021D01*
X028466Y009142D01*
X028499Y009221D01*
X028504Y009194D01*
X028471Y008937D01*
X028427Y008819D01*
X028424Y008810D01*
X028399Y008755D01*
X028399Y008750D01*
X027311Y006145D01*
X027283Y006091D01*
X027283Y006154D01*
X027218Y006312D01*
X027097Y006433D01*
X026939Y006499D01*
X026767Y006499D01*
X026609Y006433D01*
X026488Y006312D01*
X026423Y006154D01*
X026423Y006065D01*
X024644Y007157D01*
X024745Y007258D01*
X024810Y007416D01*
X024810Y007587D01*
X024745Y007745D01*
X024624Y007866D01*
X024466Y007932D01*
X024295Y007932D01*
X024137Y007866D01*
X024016Y007745D01*
X023954Y007595D01*
X023884Y007650D01*
X023884Y007650D01*
X023500Y007821D01*
X023087Y007894D01*
X022668Y007863D01*
X022269Y007731D01*
X022115Y007633D01*
X021971Y007571D01*
X021971Y007578D01*
X021906Y007736D01*
X021785Y007857D01*
X021627Y007922D01*
X021456Y007922D01*
X021298Y007857D01*
X021177Y007736D01*
X021111Y007578D01*
X021111Y007407D01*
X021177Y007249D01*
X021188Y007237D01*
X017359Y005603D01*
X017305Y005733D01*
X017184Y005854D01*
X017026Y005919D01*
X016855Y005919D01*
X016697Y005854D01*
X016576Y005733D01*
X016511Y005575D01*
X016511Y005404D01*
X016568Y005266D01*
X015000Y004597D01*
X015008Y004616D01*
X015008Y004787D01*
X014943Y004945D01*
X014822Y005066D01*
X014664Y005132D01*
X014493Y005132D01*
X014335Y005066D01*
X014214Y004945D01*
X014148Y004787D01*
X014148Y004616D01*
X014214Y004458D01*
X014335Y004337D01*
X014364Y004325D01*
X012776Y003648D01*
X012776Y003822D01*
X012708Y003986D01*
X012642Y004052D01*
X012826Y004052D01*
X013018Y004131D01*
X013166Y004279D01*
X013246Y004472D01*
X013246Y004681D01*
X013166Y004874D01*
X013018Y005022D01*
X013017Y005022D01*
X013069Y005148D01*
X013069Y005203D01*
X013069Y005196D02*
X016404Y005196D01*
X016556Y005294D02*
X015556Y005294D01*
X015655Y005393D02*
X016515Y005393D01*
X016511Y005491D02*
X015753Y005491D01*
X015852Y005590D02*
X016517Y005590D01*
X016558Y005688D02*
X015950Y005688D01*
X016049Y005787D02*
X016630Y005787D01*
X016773Y005885D02*
X016125Y005885D01*
X016159Y005984D02*
X018251Y005984D01*
X018482Y006082D02*
X016159Y006082D01*
X016159Y006181D02*
X018713Y006181D01*
X018944Y006279D02*
X016159Y006279D01*
X016440Y006378D02*
X019174Y006378D01*
X019405Y006476D02*
X016538Y006476D01*
X016637Y006575D02*
X019636Y006575D01*
X019867Y006673D02*
X016735Y006673D01*
X016834Y006772D02*
X020098Y006772D01*
X020329Y006870D02*
X016932Y006870D01*
X017031Y006969D02*
X020560Y006969D01*
X020790Y007067D02*
X017129Y007067D01*
X017217Y007166D02*
X021021Y007166D01*
X021170Y007264D02*
X017257Y007264D01*
X017259Y007363D02*
X021130Y007363D01*
X021111Y007461D02*
X017259Y007461D01*
X017259Y007560D02*
X021111Y007560D01*
X021145Y007658D02*
X017259Y007658D01*
X018419Y007757D02*
X021198Y007757D01*
X021296Y007855D02*
X018517Y007855D01*
X018616Y007954D02*
X028066Y007954D01*
X028025Y007855D02*
X024635Y007855D01*
X024733Y007757D02*
X027984Y007757D01*
X027943Y007658D02*
X026470Y007658D01*
X026418Y007680D02*
X026240Y007680D01*
X026076Y007612D01*
X025950Y007486D01*
X025882Y007322D01*
X025882Y007144D01*
X025950Y006980D01*
X026076Y006855D01*
X026240Y006786D01*
X026418Y006786D01*
X026582Y006855D01*
X026708Y006980D01*
X026776Y007144D01*
X026776Y007322D01*
X026708Y007486D01*
X026582Y007612D01*
X026418Y007680D01*
X026187Y007658D02*
X024781Y007658D01*
X024810Y007560D02*
X026023Y007560D01*
X025939Y007461D02*
X024810Y007461D01*
X024788Y007363D02*
X025899Y007363D01*
X025882Y007264D02*
X024747Y007264D01*
X024653Y007166D02*
X025882Y007166D01*
X025914Y007067D02*
X024790Y007067D01*
X024951Y006969D02*
X025961Y006969D01*
X026060Y006870D02*
X025111Y006870D01*
X025271Y006772D02*
X027573Y006772D01*
X027614Y006870D02*
X026598Y006870D01*
X026696Y006969D02*
X027655Y006969D01*
X027696Y007067D02*
X026744Y007067D01*
X026776Y007166D02*
X027738Y007166D01*
X027779Y007264D02*
X026776Y007264D01*
X026759Y007363D02*
X027820Y007363D01*
X027861Y007461D02*
X026718Y007461D01*
X026634Y007560D02*
X027902Y007560D01*
X028108Y008052D02*
X018714Y008052D01*
X018813Y008151D02*
X025020Y008151D01*
X024959Y008249D02*
X018911Y008249D01*
X019010Y008348D02*
X024948Y008348D01*
X024948Y008446D02*
X019108Y008446D01*
X019207Y008545D02*
X023641Y008545D01*
X023526Y008643D02*
X019249Y008643D01*
X019259Y008742D02*
X023469Y008742D01*
X023437Y008840D02*
X019259Y008840D01*
X019259Y008939D02*
X023437Y008939D01*
X023461Y009037D02*
X019259Y009037D01*
X019259Y009136D02*
X023505Y009136D01*
X023604Y009234D02*
X019259Y009234D01*
X019259Y009333D02*
X023752Y009333D01*
X023850Y009431D02*
X019259Y009431D01*
X019259Y009530D02*
X023949Y009530D01*
X024589Y009825D02*
X019259Y009825D01*
X019259Y009727D02*
X024679Y009727D01*
X024775Y009628D02*
X019259Y009628D01*
X019259Y009924D02*
X024549Y009924D01*
X024540Y010022D02*
X019259Y010022D01*
X019259Y010121D02*
X024540Y010121D01*
X024540Y010219D02*
X019281Y010219D01*
X019380Y010318D02*
X024540Y010318D01*
X024540Y010416D02*
X019478Y010416D01*
X019577Y010515D02*
X024540Y010515D01*
X024540Y010613D02*
X019675Y010613D01*
X019774Y010712D02*
X024540Y010712D01*
X024540Y010810D02*
X023611Y010810D01*
X023771Y010909D02*
X024540Y010909D01*
X024540Y011007D02*
X023869Y011007D01*
X023968Y011106D02*
X024540Y011106D01*
X024540Y011204D02*
X024066Y011204D01*
X024165Y011303D02*
X024540Y011303D01*
X024540Y011401D02*
X024231Y011401D01*
X024259Y011500D02*
X024540Y011500D01*
X024540Y011598D02*
X024259Y011598D01*
X024259Y011697D02*
X024540Y011697D01*
X024540Y011795D02*
X024259Y011795D01*
X024288Y011894D02*
X024540Y011894D01*
X024472Y011992D02*
X024386Y011992D01*
X024429Y012478D02*
X024141Y012767D01*
X023718Y012767D01*
X023419Y012468D01*
X023419Y012045D01*
X023599Y011866D01*
X023599Y011670D01*
X023392Y011463D01*
X023013Y011463D01*
X023013Y011480D01*
X023075Y011542D01*
X023113Y011634D01*
X023113Y011870D01*
X023075Y011962D01*
X023029Y012008D01*
X023075Y012053D01*
X023113Y012145D01*
X023113Y012382D01*
X023109Y012392D01*
X023113Y012401D01*
X023113Y012638D01*
X023109Y012647D01*
X023113Y012657D01*
X023113Y012894D01*
X023109Y012903D01*
X023113Y012913D01*
X023113Y013150D01*
X023109Y013159D01*
X023113Y013169D01*
X023113Y013405D01*
X023109Y013415D01*
X023113Y013425D01*
X023113Y013661D01*
X023109Y013671D01*
X023113Y013681D01*
X023113Y013917D01*
X023109Y013927D01*
X023113Y013937D01*
X023113Y014173D01*
X023109Y014183D01*
X023113Y014193D01*
X023113Y014429D01*
X023075Y014521D01*
X023005Y014591D01*
X022913Y014629D01*
X022263Y014629D01*
X022243Y014621D01*
X021745Y014621D01*
X021639Y014577D01*
X021639Y015095D01*
X021591Y015209D01*
X021504Y015296D01*
X020839Y015962D01*
X020839Y016057D01*
X020839Y016055D01*
X020960Y015934D01*
X021118Y015869D01*
X021289Y015869D01*
X021447Y015934D01*
X021568Y016055D01*
X021605Y016144D01*
X022100Y015606D01*
X022000Y015564D01*
X021879Y015443D01*
X021814Y015285D01*
X021814Y015114D01*
X021879Y014956D01*
X022000Y014835D01*
X022158Y014770D01*
X022330Y014770D01*
X022488Y014835D01*
X022609Y014956D01*
X022636Y015023D01*
X022744Y014906D01*
X023778Y013876D01*
X023692Y013791D01*
X023627Y013633D01*
X023627Y013462D01*
X023692Y013303D01*
X023813Y013183D01*
X023971Y013117D01*
X024142Y013117D01*
X024300Y013183D01*
X024387Y013269D01*
X024809Y012849D01*
X024899Y012767D01*
X024718Y012767D01*
X024429Y012478D01*
X024422Y012485D02*
X024436Y012485D01*
X024535Y012583D02*
X024324Y012583D01*
X024225Y012682D02*
X024633Y012682D01*
X024809Y012849D02*
X024809Y012849D01*
X024779Y012879D02*
X023113Y012879D01*
X023113Y012977D02*
X024680Y012977D01*
X024581Y013076D02*
X023113Y013076D01*
X023113Y013174D02*
X023833Y013174D01*
X023723Y013273D02*
X023113Y013273D01*
X023113Y013371D02*
X023664Y013371D01*
X023627Y013470D02*
X023113Y013470D01*
X023113Y013568D02*
X023627Y013568D01*
X023641Y013667D02*
X023111Y013667D01*
X023113Y013765D02*
X023682Y013765D01*
X023765Y013864D02*
X023113Y013864D01*
X023113Y013962D02*
X023691Y013962D01*
X023592Y014061D02*
X023113Y014061D01*
X023113Y014159D02*
X023493Y014159D01*
X023394Y014258D02*
X023113Y014258D01*
X023113Y014356D02*
X023296Y014356D01*
X023197Y014455D02*
X023102Y014455D01*
X023098Y014553D02*
X023043Y014553D01*
X022999Y014652D02*
X021639Y014652D01*
X021639Y014750D02*
X022900Y014750D01*
X022801Y014849D02*
X022501Y014849D01*
X022600Y014947D02*
X022706Y014947D01*
X021987Y014849D02*
X021639Y014849D01*
X021639Y014947D02*
X021888Y014947D01*
X021842Y015046D02*
X021639Y015046D01*
X021618Y015144D02*
X021814Y015144D01*
X021814Y015243D02*
X021558Y015243D01*
X021504Y015296D02*
X021504Y015296D01*
X021459Y015341D02*
X021837Y015341D01*
X021878Y015440D02*
X021361Y015440D01*
X021262Y015538D02*
X021975Y015538D01*
X022071Y015637D02*
X021164Y015637D01*
X021065Y015735D02*
X021981Y015735D01*
X021890Y015834D02*
X020967Y015834D01*
X020965Y015932D02*
X020868Y015932D01*
X020864Y016031D02*
X020839Y016031D01*
X021443Y015932D02*
X021799Y015932D01*
X021709Y016031D02*
X021544Y016031D01*
X021599Y016129D02*
X021618Y016129D01*
X019835Y017341D02*
X017540Y017353D01*
X016601Y018286D01*
X016717Y018238D01*
X016878Y018238D01*
X017027Y018300D01*
X017141Y018414D01*
X017203Y018563D01*
X017203Y018631D01*
X017231Y018605D01*
X017283Y018574D01*
X017284Y018573D01*
X017550Y019306D01*
X017607Y019286D01*
X017627Y019342D01*
X017890Y019247D01*
X018041Y019192D01*
X018308Y019925D01*
X018307Y019925D01*
X018247Y019934D01*
X018186Y019932D01*
X018126Y019917D01*
X018071Y019891D01*
X018058Y019881D01*
X018054Y019898D01*
X018028Y019953D01*
X017992Y020002D01*
X017947Y020043D01*
X017895Y020075D01*
X017894Y020075D01*
X017627Y019342D01*
X017571Y019363D01*
X017838Y020096D01*
X017837Y020096D01*
X017777Y020105D01*
X017716Y020103D01*
X017682Y020094D01*
X017627Y020212D01*
X017507Y020323D01*
X017354Y020378D01*
X017191Y020371D01*
X017168Y020361D01*
X017157Y020383D01*
X017037Y020494D01*
X016884Y020549D01*
X016721Y020542D01*
X016698Y020532D01*
X016687Y020554D01*
X016567Y020665D01*
X016414Y020720D01*
X016251Y020713D01*
X016228Y020703D01*
X016218Y020725D01*
X016097Y020836D01*
X015944Y020891D01*
X015781Y020884D01*
X015758Y020874D01*
X015748Y020896D01*
X015627Y021007D01*
X015474Y021062D01*
X015420Y021060D01*
X015626Y021627D01*
X015622Y021726D01*
X015580Y021816D01*
X015506Y021883D01*
X014091Y022398D01*
X014953Y022940D01*
X014936Y022898D01*
X014936Y022727D01*
X015001Y022568D01*
X015122Y022448D01*
X015280Y022382D01*
X015451Y022382D01*
X015609Y022448D01*
X015730Y022568D01*
X015796Y022727D01*
X015796Y022898D01*
X015730Y023056D01*
X015682Y023104D01*
X015712Y023102D01*
X015972Y023012D01*
X016198Y022857D01*
X016287Y022763D01*
X016341Y022688D01*
X016227Y022688D01*
X016063Y022620D01*
X015937Y022494D01*
X015869Y022330D01*
X015869Y022152D01*
X015937Y021988D01*
X016063Y021862D01*
X016227Y021794D01*
X016405Y021794D01*
X016569Y021862D01*
X016695Y021988D01*
X016746Y022111D01*
X017114Y021588D01*
X018893Y019280D01*
X018893Y019280D01*
X019040Y019105D01*
X019023Y019105D01*
X018865Y019040D01*
X018744Y018919D01*
X018679Y018761D01*
X018679Y018590D01*
X018744Y018431D01*
X018865Y018311D01*
X019023Y018245D01*
X019195Y018245D01*
X019353Y018311D01*
X019474Y018431D01*
X019518Y018538D01*
X019902Y018082D01*
X019847Y018058D01*
X019726Y017938D01*
X019660Y017779D01*
X019660Y017608D01*
X019726Y017450D01*
X019835Y017341D01*
X019766Y017410D02*
X017483Y017410D01*
X017384Y017508D02*
X019702Y017508D01*
X019661Y017607D02*
X017284Y017607D01*
X017185Y017705D02*
X019660Y017705D01*
X019670Y017804D02*
X017086Y017804D01*
X016987Y017902D02*
X019711Y017902D01*
X019789Y018001D02*
X016888Y018001D01*
X016789Y018099D02*
X019887Y018099D01*
X019804Y018198D02*
X016690Y018198D01*
X017019Y018296D02*
X018900Y018296D01*
X018781Y018395D02*
X018002Y018395D01*
X017991Y018390D02*
X018046Y018415D01*
X018096Y018452D01*
X018137Y018497D01*
X018169Y018549D01*
X018340Y019019D01*
X018077Y019115D01*
X018097Y019171D01*
X018360Y019075D01*
X018531Y019546D01*
X018541Y019606D01*
X018538Y019667D01*
X018524Y019727D01*
X018498Y019782D01*
X018462Y019831D01*
X018417Y019872D01*
X018364Y019904D01*
X018097Y019171D01*
X018041Y019192D01*
X018020Y019135D01*
X018077Y019115D01*
X017810Y018382D01*
X017810Y018382D01*
X017871Y018372D01*
X017932Y018375D01*
X017991Y018390D01*
X017850Y018493D02*
X017787Y018493D01*
X017753Y018402D02*
X018020Y019135D01*
X017757Y019231D01*
X017607Y019286D01*
X017340Y018553D01*
X017341Y018553D01*
X017401Y018543D01*
X017462Y018546D01*
X017521Y018561D01*
X017577Y018586D01*
X017590Y018596D01*
X017594Y018580D01*
X017620Y018525D01*
X017656Y018476D01*
X017701Y018434D01*
X017753Y018403D01*
X017753Y018402D01*
X017815Y018395D02*
X017122Y018395D01*
X017174Y018493D02*
X017643Y018493D01*
X017591Y018592D02*
X017584Y018592D01*
X017390Y018690D02*
X017326Y018690D01*
X017354Y018592D02*
X017290Y018592D01*
X017253Y018592D02*
X017203Y018592D01*
X017362Y018789D02*
X017426Y018789D01*
X017398Y018887D02*
X017462Y018887D01*
X017434Y018986D02*
X017498Y018986D01*
X017470Y019084D02*
X017533Y019084D01*
X017505Y019183D02*
X017569Y019183D01*
X017541Y019281D02*
X017605Y019281D01*
X017619Y019281D02*
X017795Y019281D01*
X017757Y019231D02*
X017757Y019231D01*
X017890Y019247D02*
X017890Y019247D01*
X017890Y019183D02*
X018038Y019183D01*
X018065Y019183D02*
X018101Y019183D01*
X018073Y019281D02*
X018137Y019281D01*
X018109Y019380D02*
X018173Y019380D01*
X018145Y019478D02*
X018209Y019478D01*
X018181Y019577D02*
X018245Y019577D01*
X018217Y019675D02*
X018281Y019675D01*
X018253Y019774D02*
X018316Y019774D01*
X018288Y019872D02*
X018352Y019872D01*
X018364Y019904D02*
X018364Y019904D01*
X018417Y019872D02*
X018436Y019872D01*
X018501Y019774D02*
X018512Y019774D01*
X018536Y019675D02*
X018588Y019675D01*
X018536Y019577D02*
X018664Y019577D01*
X018739Y019478D02*
X018507Y019478D01*
X018471Y019380D02*
X018815Y019380D01*
X018891Y019281D02*
X018435Y019281D01*
X018399Y019183D02*
X018974Y019183D01*
X018974Y019084D02*
X018363Y019084D01*
X018336Y019084D02*
X018160Y019084D01*
X018066Y019084D02*
X018002Y019084D01*
X018030Y018986D02*
X017966Y018986D01*
X017994Y018887D02*
X017930Y018887D01*
X017958Y018789D02*
X017894Y018789D01*
X017922Y018690D02*
X017858Y018690D01*
X017886Y018592D02*
X017822Y018592D01*
X018134Y018493D02*
X018719Y018493D01*
X018679Y018592D02*
X018184Y018592D01*
X018220Y018690D02*
X018679Y018690D01*
X018691Y018789D02*
X018256Y018789D01*
X018292Y018887D02*
X018732Y018887D01*
X018812Y018986D02*
X018328Y018986D01*
X017677Y019478D02*
X017613Y019478D01*
X017641Y019380D02*
X017577Y019380D01*
X017649Y019577D02*
X017713Y019577D01*
X017685Y019675D02*
X017749Y019675D01*
X017721Y019774D02*
X017784Y019774D01*
X017756Y019872D02*
X017820Y019872D01*
X017792Y019971D02*
X017856Y019971D01*
X017828Y020069D02*
X017892Y020069D01*
X017904Y020069D02*
X018284Y020069D01*
X018360Y019971D02*
X018015Y019971D01*
X018208Y020168D02*
X017648Y020168D01*
X017568Y020266D02*
X018132Y020266D01*
X018056Y020365D02*
X017391Y020365D01*
X017177Y020365D02*
X017166Y020365D01*
X017070Y020463D02*
X017981Y020463D01*
X017905Y020562D02*
X016679Y020562D01*
X016572Y020660D02*
X017829Y020660D01*
X017753Y020759D02*
X016181Y020759D01*
X016038Y020857D02*
X017677Y020857D01*
X017601Y020956D02*
X015683Y020956D01*
X015496Y021054D02*
X017525Y021054D01*
X017449Y021153D02*
X015453Y021153D01*
X015489Y021251D02*
X017373Y021251D01*
X017297Y021350D02*
X015525Y021350D01*
X015561Y021448D02*
X017222Y021448D01*
X017146Y021547D02*
X015597Y021547D01*
X015625Y021645D02*
X017074Y021645D01*
X017114Y021588D02*
X017114Y021588D01*
X017004Y021744D02*
X015613Y021744D01*
X015551Y021842D02*
X016110Y021842D01*
X015984Y021941D02*
X015348Y021941D01*
X015077Y022039D02*
X015916Y022039D01*
X015875Y022138D02*
X014807Y022138D01*
X014536Y022236D02*
X015869Y022236D01*
X015871Y022335D02*
X014265Y022335D01*
X014146Y022433D02*
X015156Y022433D01*
X015038Y022532D02*
X014303Y022532D01*
X014460Y022630D02*
X014976Y022630D01*
X014936Y022729D02*
X014617Y022729D01*
X014774Y022827D02*
X014936Y022827D01*
X014931Y022926D02*
X014947Y022926D01*
X015575Y022433D02*
X015912Y022433D01*
X015975Y022532D02*
X015694Y022532D01*
X015756Y022630D02*
X016089Y022630D01*
X016226Y022827D02*
X015796Y022827D01*
X015796Y022729D02*
X016312Y022729D01*
X016097Y022926D02*
X015784Y022926D01*
X015743Y023024D02*
X015937Y023024D01*
X016716Y022039D02*
X016797Y022039D01*
X016866Y021941D02*
X016648Y021941D01*
X016522Y021842D02*
X016935Y021842D01*
X019499Y018493D02*
X019555Y018493D01*
X019638Y018395D02*
X019437Y018395D01*
X019318Y018296D02*
X019721Y018296D01*
X016218Y014236D02*
X015981Y014323D01*
X015831Y014377D01*
X015810Y014321D01*
X016073Y014225D01*
X016073Y014225D01*
X016198Y014180D01*
X016218Y014236D01*
X016159Y014258D02*
X015983Y014258D01*
X015981Y014323D02*
X015981Y014323D01*
X015888Y014356D02*
X015823Y014356D01*
X016721Y011643D02*
X016818Y011643D01*
X016818Y011345D01*
X016939Y011345D01*
X016939Y010964D01*
X016829Y010852D01*
X016779Y010803D01*
X016777Y010800D01*
X016775Y010797D01*
X016749Y010732D01*
X016721Y010667D01*
X016721Y010664D01*
X016720Y010661D01*
X016721Y010590D01*
X016720Y010447D01*
X016683Y010360D01*
X016683Y010339D01*
X016594Y010376D01*
X016265Y010376D01*
X016200Y010349D01*
X016200Y010593D01*
X016173Y010658D01*
X016173Y010807D01*
X016135Y010899D01*
X016065Y010969D01*
X015988Y011001D01*
X015988Y011145D01*
X016089Y011245D01*
X016366Y011245D01*
X016458Y011283D01*
X016523Y011348D01*
X016533Y011345D01*
X016721Y011345D01*
X016721Y011643D01*
X016721Y011598D02*
X016818Y011598D01*
X016818Y011500D02*
X016721Y011500D01*
X016721Y011401D02*
X016818Y011401D01*
X016939Y011303D02*
X016478Y011303D01*
X016048Y011204D02*
X016939Y011204D01*
X016939Y011106D02*
X015988Y011106D01*
X015988Y011007D02*
X016939Y011007D01*
X016884Y010909D02*
X016125Y010909D01*
X016172Y010810D02*
X016786Y010810D01*
X016740Y010712D02*
X016173Y010712D01*
X016192Y010613D02*
X016721Y010613D01*
X016720Y010515D02*
X016200Y010515D01*
X016200Y010416D02*
X016707Y010416D01*
X016794Y010001D02*
X016859Y009936D01*
X017008Y009874D01*
X017169Y009874D01*
X017318Y009936D01*
X017432Y010050D01*
X017493Y010199D01*
X017493Y010360D01*
X017461Y010440D01*
X017572Y010553D01*
X017622Y010604D01*
X017623Y010606D01*
X017625Y010607D01*
X017630Y010620D01*
X017657Y010620D01*
X017664Y010604D01*
X017728Y010539D01*
X017726Y010529D01*
X017726Y010341D01*
X018024Y010341D01*
X018024Y010244D01*
X017726Y010244D01*
X017726Y010056D01*
X017736Y010018D01*
X017743Y010006D01*
X017733Y009969D01*
X017733Y009781D01*
X018031Y009781D01*
X018031Y009685D01*
X017733Y009685D01*
X017733Y009497D01*
X017735Y009487D01*
X017671Y009422D01*
X017633Y009330D01*
X017633Y009146D01*
X017350Y009148D01*
X017315Y009184D01*
X017166Y009245D01*
X017075Y009245D01*
X016976Y009325D01*
X016944Y009356D01*
X016928Y009363D01*
X016914Y009374D01*
X016871Y009386D01*
X016830Y009403D01*
X016813Y009403D01*
X016796Y009408D01*
X016795Y009408D01*
X016795Y009576D01*
X016793Y009581D01*
X016795Y009586D01*
X016795Y009776D01*
X016793Y009782D01*
X016794Y009786D01*
X016794Y009976D01*
X016792Y009981D01*
X016794Y009986D01*
X016794Y010001D01*
X016794Y009924D02*
X016888Y009924D01*
X016794Y009825D02*
X017733Y009825D01*
X017733Y009924D02*
X017289Y009924D01*
X017404Y010022D02*
X017735Y010022D01*
X017726Y010121D02*
X017461Y010121D01*
X017493Y010219D02*
X017726Y010219D01*
X017726Y010416D02*
X017470Y010416D01*
X017493Y010318D02*
X018024Y010318D01*
X018024Y010244D02*
X018121Y010244D01*
X018121Y010341D01*
X018419Y010341D01*
X018419Y010529D01*
X018417Y010539D01*
X018481Y010604D01*
X018519Y010695D01*
X018519Y011212D01*
X018564Y011231D01*
X018565Y011231D01*
X018701Y011231D01*
X018728Y011225D01*
X018762Y011231D01*
X018796Y011231D01*
X018803Y011228D01*
X018964Y011228D01*
X019113Y011290D01*
X019184Y011361D01*
X019199Y011367D01*
X019201Y011369D01*
X019204Y011371D01*
X019246Y011412D01*
X019284Y011449D01*
X019284Y011408D01*
X019295Y011369D01*
X019314Y011335D01*
X019342Y011307D01*
X019376Y011288D01*
X019408Y011279D01*
X018742Y010613D01*
X018649Y010520D01*
X018599Y010399D01*
X018599Y008870D01*
X018526Y008798D01*
X018526Y008933D01*
X018527Y008935D01*
X018530Y009098D01*
X018526Y009107D01*
X018526Y009330D01*
X018488Y009422D01*
X018424Y009487D01*
X018426Y009497D01*
X018426Y009685D01*
X018128Y009685D01*
X018128Y009781D01*
X018426Y009781D01*
X018426Y009969D01*
X018416Y010007D01*
X018409Y010019D01*
X018419Y010056D01*
X018419Y010244D01*
X018121Y010244D01*
X018121Y009926D01*
X018128Y009926D01*
X018128Y009781D01*
X018031Y009781D01*
X018031Y010100D01*
X018024Y010100D01*
X018024Y010244D01*
X018024Y010219D02*
X018121Y010219D01*
X018121Y010121D02*
X018024Y010121D01*
X018031Y010022D02*
X018121Y010022D01*
X018128Y009924D02*
X018031Y009924D01*
X018031Y009825D02*
X018128Y009825D01*
X018128Y009727D02*
X018599Y009727D01*
X018599Y009825D02*
X018426Y009825D01*
X018426Y009924D02*
X018599Y009924D01*
X018599Y010022D02*
X018410Y010022D01*
X018419Y010121D02*
X018599Y010121D01*
X018599Y010219D02*
X018419Y010219D01*
X018419Y010416D02*
X018606Y010416D01*
X018599Y010318D02*
X018121Y010318D01*
X018419Y010515D02*
X018647Y010515D01*
X018742Y010613D02*
X018485Y010613D01*
X018519Y010712D02*
X018841Y010712D01*
X018939Y010810D02*
X018519Y010810D01*
X018519Y010909D02*
X019038Y010909D01*
X019136Y011007D02*
X018519Y011007D01*
X018519Y011106D02*
X019235Y011106D01*
X019333Y011204D02*
X018519Y011204D01*
X019126Y011303D02*
X019350Y011303D01*
X019286Y011401D02*
X019235Y011401D01*
X017726Y010515D02*
X017534Y010515D01*
X017627Y010613D02*
X017660Y010613D01*
X018031Y009727D02*
X016795Y009727D01*
X016795Y009628D02*
X017733Y009628D01*
X017733Y009530D02*
X016795Y009530D01*
X016795Y009431D02*
X017680Y009431D01*
X017634Y009333D02*
X016968Y009333D01*
X017192Y009234D02*
X017633Y009234D01*
X018426Y009530D02*
X018599Y009530D01*
X018599Y009628D02*
X018426Y009628D01*
X018479Y009431D02*
X018599Y009431D01*
X018599Y009333D02*
X018525Y009333D01*
X018526Y009234D02*
X018599Y009234D01*
X018599Y009136D02*
X018526Y009136D01*
X018529Y009037D02*
X018599Y009037D01*
X018599Y008939D02*
X018527Y008939D01*
X018526Y008840D02*
X018569Y008840D01*
X016173Y009094D02*
X016161Y009093D01*
X015678Y008808D02*
X015683Y006939D01*
X015679Y006983D01*
X015479Y007113D02*
X015093Y006728D01*
X015049Y006728D01*
X014829Y007133D02*
X014629Y006933D01*
X014629Y006163D01*
X014529Y006063D01*
X014532Y006111D02*
X014532Y006299D01*
X014529Y006309D01*
X014594Y006374D01*
X014616Y006427D01*
X014640Y006370D01*
X014705Y006305D01*
X014702Y006295D01*
X014702Y006107D01*
X015000Y006107D01*
X015000Y006010D01*
X014702Y006010D01*
X014702Y005863D01*
X014532Y005863D01*
X014532Y006014D01*
X014234Y006014D01*
X014234Y006111D01*
X014532Y006111D01*
X014532Y006181D02*
X014702Y006181D01*
X014702Y006279D02*
X014532Y006279D01*
X014596Y006378D02*
X014637Y006378D01*
X015000Y006082D02*
X014234Y006082D01*
X014532Y005984D02*
X014702Y005984D01*
X014702Y005885D02*
X014532Y005885D01*
X015045Y006063D02*
X015049Y006059D01*
X015054Y006053D01*
X015097Y006082D02*
X015411Y006082D01*
X015396Y006107D02*
X015396Y006152D01*
X015480Y006152D01*
X015339Y006010D01*
X015097Y006010D01*
X015097Y006107D01*
X015396Y006107D01*
X014185Y006732D02*
X014185Y007090D01*
X014218Y007230D01*
X014411Y007423D01*
X014939Y007423D01*
X015089Y007563D01*
X015089Y008808D01*
X015088Y008808D01*
X015285Y008808D02*
X015285Y007389D01*
X015029Y007133D01*
X014829Y007133D01*
X015479Y007113D02*
X015479Y008805D01*
X015482Y008808D01*
X015489Y008801D01*
X014789Y007757D02*
X012723Y007757D01*
X012625Y007855D02*
X013585Y007855D01*
X013483Y007954D02*
X012452Y007954D01*
X012110Y007954D02*
X011955Y007954D01*
X011954Y008052D02*
X013425Y008052D01*
X013385Y008151D02*
X011954Y008151D01*
X011954Y008249D02*
X013385Y008249D01*
X013394Y008348D02*
X012024Y008348D01*
X012102Y008446D02*
X013435Y008446D01*
X013508Y008545D02*
X012138Y008545D01*
X012136Y008643D02*
X013646Y008643D01*
X014566Y010515D02*
X012141Y010515D01*
X012141Y010613D02*
X014575Y010613D01*
X014581Y010712D02*
X012142Y010712D01*
X012142Y010810D02*
X014581Y010810D01*
X014581Y010909D02*
X012142Y010909D01*
X012142Y011007D02*
X014581Y011007D01*
X014581Y011106D02*
X012143Y011106D01*
X012216Y011204D02*
X014581Y011204D01*
X014581Y011303D02*
X012312Y011303D01*
X012408Y011401D02*
X014581Y011401D01*
X017108Y005885D02*
X018020Y005885D01*
X017789Y005787D02*
X017251Y005787D01*
X017323Y005688D02*
X017558Y005688D01*
X016173Y005097D02*
X014747Y005097D01*
X014889Y004999D02*
X015942Y004999D01*
X015711Y004900D02*
X014962Y004900D01*
X015002Y004802D02*
X015480Y004802D01*
X015250Y004703D02*
X015008Y004703D01*
X015004Y004605D02*
X015019Y004605D01*
X014326Y004309D02*
X013179Y004309D01*
X013219Y004408D02*
X014264Y004408D01*
X014194Y004506D02*
X013246Y004506D01*
X013246Y004605D02*
X014153Y004605D01*
X014148Y004703D02*
X013237Y004703D01*
X013196Y004802D02*
X014154Y004802D01*
X014195Y004900D02*
X013140Y004900D01*
X013041Y004999D02*
X014267Y004999D01*
X014409Y005097D02*
X013048Y005097D01*
X013098Y004211D02*
X014095Y004211D01*
X013864Y004112D02*
X012972Y004112D01*
X012737Y003915D02*
X013403Y003915D01*
X013633Y004014D02*
X012680Y004014D01*
X012776Y003817D02*
X013172Y003817D01*
X012941Y003718D02*
X012776Y003718D01*
X021786Y007855D02*
X022645Y007855D01*
X022668Y007863D02*
X022668Y007863D01*
X022348Y007757D02*
X021885Y007757D01*
X021938Y007658D02*
X022156Y007658D01*
X022269Y007731D02*
X022269Y007731D01*
X023087Y007894D02*
X023087Y007894D01*
X023306Y007855D02*
X024126Y007855D01*
X024027Y007757D02*
X023645Y007757D01*
X023500Y007821D02*
X023500Y007821D01*
X023865Y007658D02*
X023980Y007658D01*
X024043Y008545D02*
X024869Y008545D01*
X024826Y008643D02*
X024158Y008643D01*
X024215Y008742D02*
X024809Y008742D01*
X024809Y008840D02*
X024306Y008840D01*
X025810Y008151D02*
X028149Y008151D01*
X028190Y008249D02*
X026429Y008249D01*
X026450Y008348D02*
X028231Y008348D01*
X028272Y008446D02*
X026450Y008446D01*
X026450Y008571D02*
X026132Y008571D01*
X026132Y008870D01*
X026320Y008870D01*
X026358Y008859D01*
X026393Y008840D01*
X026421Y008812D01*
X026440Y008777D01*
X026450Y008739D01*
X026450Y008571D01*
X026450Y008643D02*
X028354Y008643D01*
X028313Y008545D02*
X026132Y008545D01*
X026132Y008643D02*
X026036Y008643D01*
X026036Y008742D02*
X026132Y008742D01*
X026132Y008840D02*
X026036Y008840D01*
X026391Y008840D02*
X028435Y008840D01*
X028471Y008939D02*
X026390Y008939D01*
X026457Y009037D02*
X027841Y009037D01*
X027743Y009136D02*
X026476Y009136D01*
X026494Y009234D02*
X027698Y009234D01*
X027671Y009333D02*
X026491Y009333D01*
X026471Y009431D02*
X027671Y009431D01*
X027696Y009530D02*
X026457Y009530D01*
X026476Y009628D02*
X027737Y009628D01*
X027835Y009727D02*
X026494Y009727D01*
X026494Y009825D02*
X028208Y009825D01*
X028106Y009924D02*
X026494Y009924D01*
X026494Y010022D02*
X027993Y010022D01*
X027875Y010121D02*
X026494Y010121D01*
X026494Y010219D02*
X027757Y010219D01*
X027640Y010318D02*
X026494Y010318D01*
X026609Y010416D02*
X026669Y010416D01*
X026669Y010363D02*
X026809Y010363D01*
X027049Y010604D01*
X027049Y010743D01*
X026669Y010743D01*
X026669Y010363D01*
X026669Y010515D02*
X026609Y010515D01*
X026609Y010613D02*
X026669Y010613D01*
X026669Y010712D02*
X026609Y010712D01*
X026609Y010743D02*
X026229Y010743D01*
X026229Y010707D01*
X026149Y010787D01*
X026149Y010985D01*
X025850Y011283D01*
X025427Y011283D01*
X025280Y011136D01*
X025280Y011469D01*
X025313Y011435D01*
X025471Y011370D01*
X025643Y011370D01*
X025801Y011435D01*
X025922Y011556D01*
X025987Y011714D01*
X025987Y011774D01*
X026669Y011152D01*
X026669Y010803D01*
X026609Y010803D01*
X026609Y010743D01*
X026609Y010803D02*
X026229Y010803D01*
X026229Y010943D01*
X026469Y011183D01*
X026609Y011183D01*
X026609Y010803D01*
X026609Y010810D02*
X026669Y010810D01*
X026669Y010909D02*
X026609Y010909D01*
X026609Y011007D02*
X026669Y011007D01*
X026669Y011106D02*
X026609Y011106D01*
X026611Y011204D02*
X025929Y011204D01*
X026027Y011106D02*
X026391Y011106D01*
X026293Y011007D02*
X026126Y011007D01*
X026149Y010909D02*
X026229Y010909D01*
X026229Y010810D02*
X026149Y010810D01*
X026223Y010712D02*
X026229Y010712D01*
X026862Y010416D02*
X027522Y010416D01*
X027404Y010515D02*
X026960Y010515D01*
X027049Y010613D02*
X027286Y010613D01*
X027168Y010712D02*
X027049Y010712D01*
X027049Y010810D02*
X027050Y010810D01*
X026503Y011303D02*
X025280Y011303D01*
X025280Y011401D02*
X025395Y011401D01*
X025348Y011204D02*
X025280Y011204D01*
X025719Y011401D02*
X026395Y011401D01*
X026287Y011500D02*
X025865Y011500D01*
X025939Y011598D02*
X026179Y011598D01*
X026071Y011697D02*
X025980Y011697D01*
X024884Y012780D02*
X023113Y012780D01*
X023113Y012682D02*
X023633Y012682D01*
X023535Y012583D02*
X023113Y012583D01*
X023113Y012485D02*
X023436Y012485D01*
X023419Y012386D02*
X023111Y012386D01*
X023113Y012288D02*
X023419Y012288D01*
X023419Y012189D02*
X023113Y012189D01*
X023090Y012091D02*
X023419Y012091D01*
X023472Y011992D02*
X023045Y011992D01*
X023103Y011894D02*
X023571Y011894D01*
X023599Y011795D02*
X023113Y011795D01*
X023113Y011697D02*
X023599Y011697D01*
X023527Y011598D02*
X023098Y011598D01*
X023033Y011500D02*
X023429Y011500D01*
X024280Y013174D02*
X024482Y013174D01*
X028460Y009136D02*
X028496Y009136D01*
X028484Y009037D02*
X028362Y009037D01*
X028395Y008742D02*
X026450Y008742D01*
X026132Y008446D02*
X026036Y008446D01*
X026036Y008348D02*
X026132Y008348D01*
X026132Y008249D02*
X026036Y008249D01*
X025432Y006673D02*
X027532Y006673D01*
X027491Y006575D02*
X025592Y006575D01*
X025752Y006476D02*
X026714Y006476D01*
X026554Y006378D02*
X025913Y006378D01*
X026073Y006279D02*
X026475Y006279D01*
X026434Y006181D02*
X026234Y006181D01*
X026394Y006082D02*
X026423Y006082D01*
X026992Y006476D02*
X027450Y006476D01*
X027409Y006378D02*
X027152Y006378D01*
X027231Y006279D02*
X027368Y006279D01*
X027326Y006181D02*
X027272Y006181D01*
D49*
X023059Y011493D02*
X022591Y011493D01*
X022588Y011496D01*
X021069Y011493D01*
X019709Y011496D01*
X019708Y011494D01*
X019206Y011494D01*
X018886Y011174D01*
X018886Y010652D01*
X018527Y010292D01*
X018072Y010292D01*
X018072Y009740D01*
X018080Y009733D01*
X018080Y008984D02*
X017929Y008833D01*
X017085Y008840D01*
X017028Y008803D01*
X017028Y008433D01*
X016644Y008049D01*
X016644Y007563D01*
X016505Y007424D01*
X015991Y007424D01*
X015683Y006939D02*
X015463Y006720D01*
X015463Y006188D01*
X015299Y006053D01*
X015054Y006053D01*
X012721Y004577D02*
X012664Y004633D01*
X011761Y004638D01*
X011050Y005373D01*
X011052Y008598D01*
X011329Y008886D01*
X011327Y011424D01*
X012129Y012233D01*
X013029Y012233D01*
X013579Y012783D01*
X013579Y014203D01*
X013913Y015043D01*
X014853Y015157D02*
X014853Y014701D01*
X014535Y013902D01*
X013829Y013285D01*
X013829Y012733D01*
X013129Y012033D01*
X012229Y012033D01*
X011535Y011311D01*
X011543Y008748D01*
X011311Y008496D01*
X011310Y006044D01*
X011554Y005807D01*
X012116Y005804D01*
X012396Y005903D01*
X016161Y009093D02*
X016769Y009093D01*
X017085Y008840D01*
X016560Y010078D02*
X016709Y010253D01*
X016711Y010915D01*
X016707Y011489D01*
X016769Y011692D01*
X016559Y011113D02*
X016068Y011102D01*
X016559Y011113D02*
X016711Y010915D01*
X016560Y010078D02*
X016369Y010078D01*
X016173Y010078D01*
X015678Y010363D02*
X015678Y011273D01*
X015899Y011493D01*
X016100Y011692D01*
X016129Y012225D02*
X016129Y012893D01*
X016393Y013053D01*
X016533Y013189D01*
X017136Y013189D01*
X017529Y013589D01*
X017529Y015833D01*
X017229Y016133D01*
X016829Y016133D01*
X015429Y017533D01*
X015429Y019333D01*
X015709Y020008D01*
X015240Y020179D02*
X014929Y019433D01*
X014929Y017533D01*
X016629Y015833D01*
X017029Y015833D01*
X017229Y015633D01*
X017229Y013633D01*
X017029Y013433D01*
X016429Y013433D01*
X016432Y013443D01*
X015036Y012438D01*
X014891Y012294D01*
X014891Y010376D01*
X014593Y010078D02*
X013914Y010078D01*
X011388Y012192D02*
X011229Y012033D01*
X011388Y012192D02*
X011388Y013053D01*
X015036Y012950D02*
X015036Y013326D01*
X015029Y013333D01*
X016652Y012312D02*
X016695Y012282D01*
X017803Y012171D02*
X017803Y011856D01*
X017803Y011541D01*
X018295Y011541D02*
X018736Y011541D01*
X018883Y011633D01*
X019029Y011633D01*
X019252Y011847D01*
X019254Y012093D01*
X019436Y012270D01*
X019709Y012264D01*
X019709Y012519D02*
X019705Y012523D01*
X019310Y012516D01*
X019034Y012248D01*
X019037Y012114D01*
X018963Y012038D01*
X018847Y012033D01*
X018610Y011854D01*
X018295Y011856D01*
X018295Y012171D02*
X018474Y012164D01*
X018786Y012420D01*
X019214Y012775D01*
X019709Y012775D01*
X019709Y013031D02*
X019109Y013034D01*
X018820Y012844D01*
X018398Y012479D01*
X018295Y012486D01*
X018295Y012951D02*
X018436Y012944D01*
X018831Y013242D01*
X018883Y013287D01*
X019709Y013287D01*
X019709Y013543D02*
X018919Y013543D01*
X018829Y013633D01*
X018392Y013273D01*
X018295Y013266D01*
X017803Y013266D02*
X017803Y012951D01*
X017803Y012486D01*
X017803Y012171D01*
X019709Y012008D02*
X020503Y012008D01*
X020729Y012233D01*
X020729Y014833D01*
X019929Y015633D01*
X020229Y015733D02*
X020229Y016245D01*
X019767Y016707D01*
X018711Y016714D01*
X019229Y016233D02*
X017729Y016233D01*
X015909Y018053D01*
X015909Y019123D01*
X016179Y019837D01*
X016649Y019666D02*
X016222Y018548D01*
X016231Y018217D01*
X017411Y017044D01*
X019907Y017030D01*
X020529Y016416D01*
X020529Y015833D01*
X021329Y015033D01*
X021329Y012033D01*
X021610Y011752D01*
X022588Y011752D01*
X022588Y012008D02*
X023064Y012008D01*
X023269Y011803D01*
X023269Y011703D01*
X023059Y011493D01*
X021029Y012033D02*
X021029Y014933D01*
X020229Y015733D01*
X019529Y015933D02*
X019529Y015353D01*
X019029Y015013D01*
X019029Y014533D01*
X019230Y014302D01*
X019709Y014311D01*
X019215Y015633D02*
X017917Y015645D01*
X019229Y016233D02*
X019529Y015933D01*
X021629Y014133D02*
X021806Y014311D01*
X022588Y014311D01*
X021029Y012033D02*
X020747Y011752D01*
X019709Y011752D01*
X019702Y011503D02*
X019709Y011496D01*
X015329Y015633D02*
X014853Y015157D01*
X016798Y018643D02*
X017119Y019495D01*
X017589Y019324D02*
X017824Y019234D01*
X018119Y020032D01*
X018059Y019153D02*
X017589Y019324D01*
X006858Y010383D02*
X006778Y010381D01*
X005829Y009581D02*
X005829Y009473D01*
X005825Y009469D01*
X005789Y009381D01*
X005789Y005333D01*
X005374Y005333D01*
X005361Y005338D01*
X005266Y005338D01*
X005254Y005333D01*
X004929Y005333D01*
X004929Y005872D01*
X004955Y005871D01*
X004957Y005873D01*
X005012Y005873D01*
X005022Y005863D01*
X005237Y005863D01*
X005261Y005853D01*
X005356Y005853D01*
X005381Y005863D01*
X005605Y005863D01*
X005699Y005957D01*
X005699Y006490D01*
X005605Y006583D01*
X005374Y006583D01*
X005361Y006588D01*
X005266Y006588D01*
X005254Y006583D01*
X005110Y006583D01*
X004929Y006764D01*
X004929Y007033D01*
X003529Y007033D01*
X003529Y009667D01*
X003612Y009583D01*
X004225Y009583D01*
X004319Y009677D01*
X004319Y010690D01*
X004239Y010770D01*
X004239Y011100D01*
X005284Y011100D01*
X005284Y011062D01*
X005378Y010968D01*
X005419Y010968D01*
X005419Y010770D01*
X005339Y010690D01*
X005339Y009677D01*
X005432Y009583D01*
X005826Y009583D01*
X005829Y009581D01*
X005829Y009488D02*
X003529Y009488D01*
X003529Y009606D02*
X003589Y009606D01*
X003529Y009369D02*
X005789Y009369D01*
X005789Y009251D02*
X003529Y009251D01*
X003529Y009132D02*
X005789Y009132D01*
X005789Y009014D02*
X003529Y009014D01*
X003529Y008895D02*
X005789Y008895D01*
X005789Y008777D02*
X003529Y008777D01*
X003529Y008658D02*
X005789Y008658D01*
X005789Y008540D02*
X003529Y008540D01*
X003529Y008421D02*
X005789Y008421D01*
X005789Y008303D02*
X003529Y008303D01*
X003529Y008184D02*
X005789Y008184D01*
X005789Y008066D02*
X003529Y008066D01*
X003529Y007947D02*
X005789Y007947D01*
X005789Y007829D02*
X003529Y007829D01*
X003529Y007710D02*
X005789Y007710D01*
X005789Y007592D02*
X003529Y007592D01*
X003529Y007473D02*
X005789Y007473D01*
X005789Y007355D02*
X003529Y007355D01*
X003529Y007236D02*
X005789Y007236D01*
X005789Y007118D02*
X003529Y007118D01*
X003549Y006653D02*
X003889Y006313D01*
X004659Y006313D01*
X004869Y006093D01*
X005309Y006093D01*
X005309Y006343D02*
X005039Y006343D01*
X004734Y006648D01*
X004329Y006648D01*
X004931Y006762D02*
X005789Y006762D01*
X005789Y006644D02*
X005049Y006644D01*
X004929Y006881D02*
X005789Y006881D01*
X005789Y006999D02*
X004929Y006999D01*
X005663Y006525D02*
X005789Y006525D01*
X005789Y006407D02*
X005699Y006407D01*
X005699Y006288D02*
X005789Y006288D01*
X005789Y006170D02*
X005699Y006170D01*
X005699Y006051D02*
X005789Y006051D01*
X005789Y005933D02*
X005674Y005933D01*
X005789Y005814D02*
X004929Y005814D01*
X004929Y005696D02*
X005789Y005696D01*
X005789Y005577D02*
X004929Y005577D01*
X004929Y005459D02*
X005789Y005459D01*
X005789Y005340D02*
X004929Y005340D01*
X005409Y009606D02*
X004248Y009606D01*
X004319Y009725D02*
X005339Y009725D01*
X005339Y009843D02*
X004319Y009843D01*
X004319Y009962D02*
X005339Y009962D01*
X005339Y010080D02*
X004319Y010080D01*
X004319Y010199D02*
X005339Y010199D01*
X005339Y010317D02*
X004319Y010317D01*
X004319Y010436D02*
X005339Y010436D01*
X005339Y010554D02*
X004319Y010554D01*
X004319Y010673D02*
X005339Y010673D01*
X005419Y010791D02*
X004239Y010791D01*
X004239Y010910D02*
X005419Y010910D01*
X005318Y011028D02*
X004239Y011028D01*
D50*
X019457Y007679D03*
X027084Y009138D03*
D51*
X013791Y006970D02*
X013791Y006321D01*
X011976Y006310D01*
X011976Y006941D01*
X013791Y006970D01*
X013791Y006945D02*
X012226Y006945D01*
X011976Y006887D02*
X013791Y006887D01*
X013791Y006828D02*
X011976Y006828D01*
X011976Y006770D02*
X013791Y006770D01*
X013791Y006711D02*
X011976Y006711D01*
X011976Y006653D02*
X013791Y006653D01*
X013791Y006594D02*
X011976Y006594D01*
X011976Y006536D02*
X013791Y006536D01*
X013791Y006477D02*
X011976Y006477D01*
X011976Y006419D02*
X013791Y006419D01*
X013791Y006360D02*
X011976Y006360D01*
M02*
