%
M48
M72
T01C0.0150
T02C0.0180
T03C0.0236
T04C0.0260
T05C0.0300
T06C0.0320
T07C0.0350
T08C0.0354
T09C0.0360
%
T01
X6529Y4613
X6929Y5353
X5464Y6992
X6215Y10376
X4829Y10843
X3229Y10933
X3929Y13933
X11229Y12033
X12490Y13695
X15029Y13333
X15709Y13473
X15329Y15633
X17917Y15645
X19215Y15633
X19929Y15633
X18711Y16714
X16798Y18643
X18119Y20032
X15741Y21448
X21629Y14133
X18829Y13633
X18831Y13242
X18820Y12844
X18786Y12420
X18847Y12033
X18883Y11633
X17088Y10279
X16068Y11102
X13699Y10493
X17085Y8840
X15991Y7424
X14218Y7230
X11630Y6209
X11628Y5257
X21069Y11493
X23842Y8900
T02
X6459Y12283
X6529Y13433
X2299Y7723
T03
X19457Y7679
X27084Y9138
T04
X8488Y13444
X8328Y11903
X6178Y14922
X1922Y14994
X1154Y9279
X8328Y7603
X8188Y3707
X5478Y3207
T05
X15383Y9586
T06
X23929Y12257
X24929Y12257
X25639Y10773
X26639Y10773
T07
X12544Y5253
X12396Y5903
X12298Y6586
X12281Y7457
X12721Y4577
T08
X2477Y11958
X2477Y12942
X2477Y13926
X1178Y13926
X1178Y12942
X1178Y11958
T09
X1991Y3224
X1270Y4155
X1284Y5417
X1264Y6766
X10766Y9666
X10997Y14150
X7826Y14652
X6961Y14642
X11738Y19036
X12535Y21085
X15366Y22812
X19109Y18675
X20090Y17694
X21204Y16299
X22244Y15200
X24057Y13547
X25557Y11800
X28101Y9385
X24380Y7502
X26853Y6069
X21541Y7492
X16941Y5489
X14578Y4702
X11474Y3608
M30
