G75*
%MOIN*%
%OFA0B0*%
%FSLAX24Y24*%
%IPPOS*%
%LPD*%
%AMOC8*
5,1,8,0,0,1.08239X$1,22.5*
%
%ADD10C,0.0340*%
%ADD11C,0.0440*%
%ADD12R,0.0513X0.0297*%
%ADD13C,0.0400*%
%ADD14R,0.0335X0.0150*%
%ADD15R,0.0150X0.0335*%
%ADD16R,0.1000X0.1000*%
%ADD17C,0.0580*%
%ADD18R,0.0230X0.0090*%
%ADD19R,0.0090X0.0230*%
%ADD20R,0.0630X0.0217*%
%ADD21R,0.0530X0.0230*%
%ADD22R,0.0356X0.0434*%
%ADD23OC8,0.0710*%
%ADD24R,0.0631X0.0710*%
%ADD25R,0.0474X0.0513*%
%ADD26R,0.0513X0.0474*%
%ADD27R,0.0277X0.0336*%
%ADD28R,0.0356X0.0277*%
%ADD29R,0.0336X0.0277*%
%ADD30R,0.0434X0.0356*%
%ADD31OC8,0.0600*%
%ADD32R,0.0560X0.0960*%
%ADD33R,0.1497X0.0946*%
%ADD34C,0.0474*%
%ADD35R,0.0611X0.0237*%
%ADD36R,0.0580X0.0880*%
%ADD37C,0.0640*%
%ADD38OC8,0.0640*%
%ADD39R,0.0751X0.1379*%
%ADD40R,0.0671X0.0710*%
%ADD41C,0.0740*%
%ADD42R,0.0690X0.0316*%
%ADD43R,0.0789X0.0552*%
%ADD44C,0.0630*%
%ADD45C,0.0390*%
%ADD46C,0.0420*%
%ADD47C,0.0476*%
D10*
X005478Y003207D03*
X008188Y003707D03*
X008328Y007603D03*
X008328Y011903D03*
X008488Y013444D03*
X006178Y014922D03*
X001922Y014994D03*
X001154Y009279D03*
D11*
X001991Y003224D03*
X010766Y009666D03*
X010997Y014150D03*
X011738Y019036D03*
X012535Y021085D03*
X015366Y022812D03*
X019109Y018675D03*
X020090Y017694D03*
X021204Y016299D03*
X022244Y015200D03*
X024057Y013547D03*
X025557Y011800D03*
X028101Y009385D03*
X024380Y007502D03*
X026853Y006069D03*
X021541Y007492D03*
X016941Y005489D03*
X014578Y004702D03*
X011474Y003608D03*
D12*
X005939Y013582D03*
X005939Y013956D03*
X005939Y014330D03*
X004837Y014330D03*
X004837Y013582D03*
D13*
X011393Y015429D02*
X011735Y016367D01*
X012205Y016196D02*
X011863Y015258D01*
X012332Y015087D02*
X012674Y016025D01*
X013144Y015854D02*
X012802Y014916D01*
X013272Y014745D02*
X013614Y015683D01*
X014084Y015512D02*
X013742Y014574D01*
X014212Y014403D02*
X014554Y015341D01*
X015024Y015170D02*
X014682Y014232D01*
X015152Y014061D02*
X015494Y014999D01*
X015963Y014828D02*
X015621Y013890D01*
X016091Y013719D02*
X016433Y014657D01*
X017888Y018684D02*
X018230Y019622D01*
X017760Y019793D02*
X017418Y018855D01*
X016948Y019026D02*
X017290Y019964D01*
X016820Y020135D02*
X016478Y019197D01*
X016008Y019368D02*
X016350Y020306D01*
X015880Y020477D02*
X015538Y019539D01*
X015069Y019710D02*
X015411Y020648D01*
X014941Y020819D02*
X014599Y019881D01*
D14*
X014596Y010078D03*
X014606Y009881D03*
X014606Y009684D03*
X014606Y009488D03*
X014606Y009291D03*
X014596Y009094D03*
X016171Y009094D03*
X016161Y009291D03*
X016161Y009488D03*
X016161Y009684D03*
X016161Y009881D03*
X016171Y010078D03*
D15*
X015875Y010373D03*
X015678Y010363D03*
X015482Y010363D03*
X015285Y010363D03*
X015088Y010363D03*
X014891Y010373D03*
X014891Y008798D03*
X015088Y008808D03*
X015285Y008808D03*
X015482Y008808D03*
X015678Y008808D03*
X015875Y008798D03*
D16*
X015383Y009586D03*
D17*
X015383Y009586D03*
D18*
X014329Y009681D03*
X014328Y009881D03*
X014328Y010081D03*
X014329Y009481D03*
X014328Y009294D03*
X014328Y009094D03*
X016429Y009094D03*
X016429Y009294D03*
X016430Y009481D03*
X016430Y009681D03*
X016429Y009881D03*
X016429Y010081D03*
D19*
X015878Y010642D03*
X015678Y010642D03*
X015478Y010641D03*
X015278Y010641D03*
X015091Y010642D03*
X014891Y010642D03*
X014888Y008531D03*
X015088Y008531D03*
X015288Y008532D03*
X015488Y008532D03*
X015676Y008531D03*
X015876Y008531D03*
D20*
X019709Y011496D03*
X019709Y011752D03*
X019709Y012008D03*
X019709Y012264D03*
X019709Y012519D03*
X019709Y012775D03*
X019709Y013031D03*
X019709Y013287D03*
X019709Y013543D03*
X019709Y013799D03*
X019709Y014055D03*
X019709Y014311D03*
X022588Y014311D03*
X022588Y014055D03*
X022588Y013799D03*
X022588Y013543D03*
X022588Y013287D03*
X022588Y013031D03*
X022588Y012775D03*
X022588Y012519D03*
X022588Y012264D03*
X022588Y012008D03*
X022588Y011752D03*
X022588Y011496D03*
D21*
X007424Y006348D03*
X007424Y006098D03*
X007424Y005848D03*
X007424Y005598D03*
X007424Y005348D03*
X007424Y005098D03*
X007424Y004848D03*
X007424Y004598D03*
X007424Y004348D03*
X007424Y004098D03*
X005314Y004098D03*
X005314Y004348D03*
X005314Y004598D03*
X005314Y004848D03*
X005314Y005098D03*
X005314Y005348D03*
X005314Y005598D03*
X005314Y005848D03*
X005314Y006098D03*
X005314Y006348D03*
D22*
X001758Y009898D03*
X001246Y009898D03*
X005153Y013143D03*
X005665Y013143D03*
X016141Y012312D03*
X016652Y012312D03*
D23*
X007826Y014652D03*
X006961Y014642D03*
D24*
X005720Y011443D03*
X004618Y011443D03*
X002340Y008303D03*
X001238Y008303D03*
X011388Y013053D03*
X012490Y013053D03*
D25*
X018072Y010962D03*
X018072Y010292D03*
X018080Y009733D03*
X018080Y009064D03*
X015049Y006728D03*
X015049Y006059D03*
X014185Y006063D03*
X014185Y006732D03*
X008292Y005659D03*
X008292Y004989D03*
X004026Y004650D03*
X004026Y003980D03*
D26*
X004329Y005979D03*
X004329Y006648D03*
X003527Y006653D03*
X003527Y005984D03*
X005064Y012511D03*
X005733Y012511D03*
X016100Y011692D03*
X016769Y011692D03*
X025415Y008523D03*
X026084Y008523D03*
D27*
X026124Y009252D03*
X025809Y009252D03*
X025494Y009252D03*
X025179Y009252D03*
X025179Y009744D03*
X025494Y009744D03*
X025809Y009744D03*
X026124Y009744D03*
D28*
X005556Y014828D03*
X005044Y014828D03*
D29*
X017803Y013896D03*
X017803Y013581D03*
X017803Y013266D03*
X017803Y012951D03*
X017803Y012486D03*
X017803Y012171D03*
X017803Y011856D03*
X017803Y011541D03*
X018295Y011541D03*
X018295Y011856D03*
X018295Y012171D03*
X018295Y012486D03*
X018295Y012951D03*
X018295Y013266D03*
X018295Y013581D03*
X018295Y013896D03*
D30*
X015036Y012950D03*
X015036Y012438D03*
D31*
X023929Y012257D03*
X024929Y012257D03*
X025639Y010773D03*
X026639Y010773D03*
D32*
X005739Y010183D03*
X004829Y010183D03*
X003919Y010183D03*
D33*
X004829Y007743D03*
D34*
X003429Y004933D03*
X012329Y003733D03*
X013832Y008237D03*
X007356Y013956D03*
X004347Y013185D03*
X016316Y022241D03*
X018329Y014733D03*
X026329Y007233D03*
D35*
X002328Y005941D03*
X002328Y005685D03*
X002328Y005429D03*
X002328Y005173D03*
X002328Y004917D03*
D36*
X002308Y004024D03*
X002308Y006794D03*
D37*
X001264Y006766D02*
X001264Y007326D01*
X001270Y004155D02*
X001270Y003595D01*
D38*
X001284Y005417D03*
D39*
X001265Y005427D03*
D40*
X001169Y010624D03*
X002587Y010624D03*
D41*
X002477Y011958D03*
X002477Y012942D03*
X002477Y013926D03*
X001178Y013926D03*
X001178Y012942D03*
X001178Y011958D03*
D42*
X006778Y010774D03*
X006778Y010381D03*
X006778Y009987D03*
X006778Y009593D03*
X006778Y009200D03*
X006778Y008806D03*
D43*
X008303Y008294D03*
X008303Y011286D03*
D44*
X012281Y007457D03*
X012298Y006586D03*
X012396Y005903D03*
X012544Y005253D03*
X012721Y004577D03*
D45*
X011628Y005257D03*
X011630Y006209D03*
X014218Y007230D03*
X015991Y007424D03*
X017085Y008840D03*
X017088Y010279D03*
X016068Y011102D03*
X013699Y010493D03*
X011229Y012033D03*
X012490Y013695D03*
X015029Y013333D03*
X015709Y013473D03*
X015329Y015633D03*
X017917Y015645D03*
X019215Y015633D03*
X019929Y015633D03*
X018711Y016714D03*
X016798Y018643D03*
X018119Y020032D03*
X015741Y021448D03*
X021629Y014133D03*
X018829Y013633D03*
X018831Y013242D03*
X018820Y012844D03*
X018786Y012420D03*
X018847Y012033D03*
X018883Y011633D03*
X021069Y011493D03*
X023842Y008900D03*
X006929Y005353D03*
X006529Y004613D03*
X005464Y006992D03*
X006215Y010376D03*
X004829Y010843D03*
X003229Y010933D03*
X003929Y013933D03*
D46*
X006529Y013433D03*
X006459Y012283D03*
X002299Y007723D03*
D47*
X019457Y007679D03*
X027084Y009138D03*
M02*
