G75*
%MOIN*%
%OFA0B0*%
%FSLAX24Y24*%
%IPPOS*%
%LPD*%
%AMOC8*
5,1,8,0,0,1.08239X$1,22.5*
%
%ADD10C,0.0000*%
%ADD11C,0.0080*%
%ADD12C,0.0020*%
%ADD13C,0.0050*%
%ADD14C,0.0220*%
%ADD15C,0.0060*%
D10*
X003405Y017035D02*
X003405Y039476D01*
X013267Y039476D01*
X013267Y017035D01*
X003405Y017035D01*
X004803Y019004D02*
X004805Y019043D01*
X004811Y019082D01*
X004821Y019120D01*
X004834Y019157D01*
X004851Y019192D01*
X004871Y019226D01*
X004895Y019257D01*
X004922Y019286D01*
X004951Y019312D01*
X004983Y019335D01*
X005017Y019355D01*
X005053Y019371D01*
X005090Y019383D01*
X005129Y019392D01*
X005168Y019397D01*
X005207Y019398D01*
X005246Y019395D01*
X005285Y019388D01*
X005322Y019377D01*
X005359Y019363D01*
X005394Y019345D01*
X005427Y019324D01*
X005458Y019299D01*
X005486Y019272D01*
X005511Y019242D01*
X005533Y019209D01*
X005552Y019175D01*
X005567Y019139D01*
X005579Y019101D01*
X005587Y019063D01*
X005591Y019024D01*
X005591Y018984D01*
X005587Y018945D01*
X005579Y018907D01*
X005567Y018869D01*
X005552Y018833D01*
X005533Y018799D01*
X005511Y018766D01*
X005486Y018736D01*
X005458Y018709D01*
X005427Y018684D01*
X005394Y018663D01*
X005359Y018645D01*
X005322Y018631D01*
X005285Y018620D01*
X005246Y018613D01*
X005207Y018610D01*
X005168Y018611D01*
X005129Y018616D01*
X005090Y018625D01*
X005053Y018637D01*
X005017Y018653D01*
X004983Y018673D01*
X004951Y018696D01*
X004922Y018722D01*
X004895Y018751D01*
X004871Y018782D01*
X004851Y018816D01*
X004834Y018851D01*
X004821Y018888D01*
X004811Y018926D01*
X004805Y018965D01*
X004803Y019004D01*
X007539Y031602D02*
X007541Y031658D01*
X007547Y031714D01*
X007557Y031770D01*
X007570Y031824D01*
X007588Y031878D01*
X007609Y031930D01*
X007633Y031981D01*
X007662Y032030D01*
X007693Y032076D01*
X007728Y032121D01*
X007765Y032163D01*
X007806Y032202D01*
X007849Y032238D01*
X007895Y032271D01*
X007942Y032301D01*
X007992Y032327D01*
X008044Y032350D01*
X008097Y032370D01*
X008151Y032385D01*
X008206Y032397D01*
X008262Y032405D01*
X008318Y032409D01*
X008374Y032409D01*
X008430Y032405D01*
X008486Y032397D01*
X008541Y032385D01*
X008595Y032370D01*
X008648Y032350D01*
X008700Y032327D01*
X008749Y032301D01*
X008797Y032271D01*
X008843Y032238D01*
X008886Y032202D01*
X008927Y032163D01*
X008964Y032121D01*
X008999Y032076D01*
X009030Y032030D01*
X009059Y031981D01*
X009083Y031930D01*
X009104Y031878D01*
X009122Y031824D01*
X009135Y031770D01*
X009145Y031714D01*
X009151Y031658D01*
X009153Y031602D01*
X009151Y031546D01*
X009145Y031490D01*
X009135Y031434D01*
X009122Y031380D01*
X009104Y031326D01*
X009083Y031274D01*
X009059Y031223D01*
X009030Y031174D01*
X008999Y031128D01*
X008964Y031083D01*
X008927Y031041D01*
X008886Y031002D01*
X008843Y030966D01*
X008797Y030933D01*
X008750Y030903D01*
X008700Y030877D01*
X008648Y030854D01*
X008595Y030834D01*
X008541Y030819D01*
X008486Y030807D01*
X008430Y030799D01*
X008374Y030795D01*
X008318Y030795D01*
X008262Y030799D01*
X008206Y030807D01*
X008151Y030819D01*
X008097Y030834D01*
X008044Y030854D01*
X007992Y030877D01*
X007942Y030903D01*
X007895Y030933D01*
X007849Y030966D01*
X007806Y031002D01*
X007765Y031041D01*
X007728Y031083D01*
X007693Y031128D01*
X007662Y031174D01*
X007633Y031223D01*
X007609Y031274D01*
X007588Y031326D01*
X007570Y031380D01*
X007557Y031434D01*
X007547Y031490D01*
X007541Y031546D01*
X007539Y031602D01*
D11*
X006880Y030471D02*
X006880Y029171D01*
X004300Y029171D01*
X004300Y030471D01*
X006880Y030471D01*
X007861Y029266D02*
X007704Y029109D01*
X007704Y028479D01*
X007861Y028321D01*
X008295Y028321D01*
X008295Y029266D02*
X007861Y029266D01*
X009082Y029266D02*
X009672Y029266D01*
X009672Y028321D01*
X009082Y028321D01*
X008800Y026462D02*
X008722Y026462D01*
X008496Y025678D02*
X008396Y025678D01*
X008396Y025578D01*
X008496Y025578D01*
X008496Y025678D01*
X008171Y026462D02*
X008092Y026462D01*
X007571Y025202D02*
X007573Y025220D01*
X007579Y025238D01*
X007588Y025254D01*
X007600Y025267D01*
X007615Y025278D01*
X007632Y025286D01*
X007650Y025290D01*
X007668Y025290D01*
X007686Y025286D01*
X007703Y025278D01*
X007718Y025267D01*
X007730Y025254D01*
X007739Y025238D01*
X007745Y025220D01*
X007747Y025202D01*
X007745Y025184D01*
X007739Y025166D01*
X007730Y025150D01*
X007718Y025137D01*
X007703Y025126D01*
X007686Y025118D01*
X007668Y025114D01*
X007650Y025114D01*
X007632Y025118D01*
X007615Y025126D01*
X007600Y025137D01*
X007588Y025150D01*
X007579Y025166D01*
X007573Y025184D01*
X007571Y025202D01*
X007462Y025084D02*
X007462Y025871D01*
X008092Y024493D02*
X008171Y024493D01*
X008722Y024493D02*
X008800Y024493D01*
X009430Y025084D02*
X009430Y025871D01*
X008705Y022927D02*
X008075Y022927D01*
X007917Y022770D01*
X007917Y022337D01*
X007917Y021549D02*
X007917Y020959D01*
X008862Y020959D01*
X008862Y021549D01*
X008862Y022337D02*
X008862Y022770D01*
X008705Y022927D01*
X009299Y021767D02*
X009299Y020227D01*
X012709Y020227D01*
X012709Y021767D01*
X009299Y021767D01*
X012453Y021997D02*
X012455Y022011D01*
X012460Y022023D01*
X012469Y022034D01*
X012481Y022042D01*
X012494Y022047D01*
X012507Y022048D01*
X012521Y022045D01*
X012533Y022039D01*
X012544Y022029D01*
X012551Y022017D01*
X012555Y022004D01*
X012555Y021990D01*
X012551Y021977D01*
X012544Y021965D01*
X012533Y021955D01*
X012521Y021949D01*
X012507Y021946D01*
X012494Y021947D01*
X012481Y021952D01*
X012469Y021960D01*
X012460Y021971D01*
X012455Y021983D01*
X012453Y021997D01*
X012689Y033218D02*
X006689Y033218D01*
X006689Y033468D01*
X005978Y036870D02*
X005348Y036870D01*
X005190Y037027D01*
X005190Y037460D01*
X005190Y038248D02*
X005190Y038838D01*
X006135Y038838D01*
X006135Y038248D01*
X006135Y037460D02*
X006135Y037027D01*
X005978Y036870D01*
X006689Y038948D02*
X006689Y039218D01*
X012689Y039218D01*
X012689Y037458D01*
X012689Y033478D02*
X012689Y033218D01*
D12*
X009813Y032995D02*
X009776Y033032D01*
X009703Y033032D01*
X009666Y032995D01*
X009592Y032995D02*
X009555Y033032D01*
X009482Y033032D01*
X009445Y032995D01*
X009445Y032849D01*
X009482Y032812D01*
X009555Y032812D01*
X009592Y032849D01*
X009666Y032812D02*
X009813Y032959D01*
X009813Y032995D01*
X009813Y032812D02*
X009666Y032812D01*
X009371Y032812D02*
X009298Y032812D01*
X009335Y032812D02*
X009335Y033032D01*
X009371Y033032D02*
X009298Y033032D01*
X008754Y029582D02*
X008681Y029582D01*
X008644Y029545D01*
X008570Y029545D02*
X008533Y029582D01*
X008460Y029582D01*
X008423Y029545D01*
X008423Y029398D01*
X008460Y029362D01*
X008533Y029362D01*
X008570Y029398D01*
X008644Y029398D02*
X008681Y029362D01*
X008754Y029362D01*
X008791Y029398D01*
X008791Y029435D01*
X008754Y029472D01*
X008718Y029472D01*
X008754Y029472D02*
X008791Y029509D01*
X008791Y029545D01*
X008754Y029582D01*
X008803Y026910D02*
X008730Y026836D01*
X008655Y026873D02*
X008619Y026910D01*
X008509Y026910D01*
X008509Y026689D01*
X008619Y026689D01*
X008655Y026726D01*
X008655Y026873D01*
X008803Y026910D02*
X008803Y026689D01*
X008730Y026689D02*
X008876Y026689D01*
X008434Y026689D02*
X008288Y026689D01*
X008288Y026910D01*
X008434Y026910D01*
X008361Y026800D02*
X008288Y026800D01*
X008213Y026689D02*
X008067Y026689D01*
X008067Y026910D01*
X007235Y025330D02*
X007161Y025330D01*
X007125Y025293D01*
X007125Y025256D01*
X007161Y025220D01*
X007235Y025220D01*
X007271Y025183D01*
X007271Y025146D01*
X007235Y025109D01*
X007161Y025109D01*
X007125Y025146D01*
X007050Y025146D02*
X007050Y025293D01*
X007014Y025330D01*
X006940Y025330D01*
X006904Y025293D01*
X006904Y025146D01*
X006940Y025109D01*
X007014Y025109D01*
X007050Y025146D01*
X006829Y025220D02*
X006829Y025293D01*
X006793Y025330D01*
X006683Y025330D01*
X006683Y025109D01*
X006683Y025183D02*
X006793Y025183D01*
X006829Y025220D01*
X006608Y025220D02*
X006462Y025220D01*
X006387Y025330D02*
X006241Y025330D01*
X006314Y025330D02*
X006314Y025109D01*
X006166Y025146D02*
X006166Y025293D01*
X006130Y025330D01*
X006056Y025330D01*
X006020Y025293D01*
X006020Y025146D01*
X006056Y025109D01*
X006130Y025109D01*
X006166Y025146D01*
X005945Y025109D02*
X005945Y025330D01*
X005872Y025256D01*
X005799Y025330D01*
X005799Y025109D01*
X005773Y024235D02*
X005627Y024015D01*
X005552Y024015D02*
X005479Y024088D01*
X005516Y024088D02*
X005406Y024088D01*
X005406Y024015D02*
X005406Y024235D01*
X005516Y024235D01*
X005552Y024198D01*
X005552Y024125D01*
X005516Y024088D01*
X005627Y024235D02*
X005773Y024015D01*
X005331Y024125D02*
X005185Y024125D01*
X005110Y024235D02*
X004964Y024235D01*
X005037Y024235D02*
X005037Y024015D01*
X004889Y024051D02*
X004889Y024198D01*
X004853Y024235D01*
X004779Y024235D01*
X004743Y024198D01*
X004743Y024051D01*
X004779Y024015D01*
X004853Y024015D01*
X004889Y024051D01*
X004668Y024015D02*
X004668Y024235D01*
X004595Y024161D01*
X004522Y024235D01*
X004522Y024015D01*
X004468Y028817D02*
X004505Y028854D01*
X004468Y028817D02*
X004395Y028817D01*
X004358Y028854D01*
X004358Y029000D01*
X004395Y029037D01*
X004468Y029037D01*
X004505Y029000D01*
X004579Y028927D02*
X004726Y028927D01*
X004689Y029037D02*
X004579Y028927D01*
X004689Y028817D02*
X004689Y029037D01*
X004284Y029037D02*
X004211Y029037D01*
X004248Y029037D02*
X004248Y028817D01*
X004284Y028817D02*
X004211Y028817D01*
X004222Y031753D02*
X004368Y031753D01*
X004295Y031753D02*
X004295Y031974D01*
X004222Y031900D01*
X004147Y031974D02*
X004147Y031753D01*
X004074Y031827D01*
X004001Y031753D01*
X004001Y031974D01*
X003926Y031937D02*
X003890Y031974D01*
X003816Y031974D01*
X003780Y031937D01*
X003780Y031900D01*
X003816Y031863D01*
X003890Y031863D01*
X003926Y031827D01*
X003926Y031790D01*
X003890Y031753D01*
X003816Y031753D01*
X003780Y031790D01*
X004443Y031863D02*
X004589Y031863D01*
X004664Y031900D02*
X004737Y031974D01*
X004737Y031753D01*
X004664Y031753D02*
X004810Y031753D01*
X004808Y033990D02*
X004661Y033990D01*
X004808Y034136D01*
X004808Y034173D01*
X004771Y034210D01*
X004698Y034210D01*
X004661Y034173D01*
X004587Y034100D02*
X004440Y034100D01*
X004366Y033990D02*
X004219Y033990D01*
X004293Y033990D02*
X004293Y034210D01*
X004219Y034136D01*
X004145Y034210D02*
X004145Y033990D01*
X004072Y034063D01*
X003998Y033990D01*
X003998Y034210D01*
X003924Y034173D02*
X003887Y034210D01*
X003814Y034210D01*
X003777Y034173D01*
X003777Y034136D01*
X003814Y034100D01*
X003887Y034100D01*
X003924Y034063D01*
X003924Y034026D01*
X003887Y033990D01*
X003814Y033990D01*
X003777Y034026D01*
X003744Y036057D02*
X003634Y036057D01*
X003634Y036277D01*
X003744Y036277D01*
X003780Y036241D01*
X003780Y036204D01*
X003744Y036167D01*
X003634Y036167D01*
X003744Y036167D02*
X003780Y036130D01*
X003780Y036094D01*
X003744Y036057D01*
X003855Y036057D02*
X003855Y036204D01*
X003928Y036277D01*
X004001Y036204D01*
X004001Y036057D01*
X004001Y036167D02*
X003855Y036167D01*
X004076Y036277D02*
X004222Y036277D01*
X004149Y036277D02*
X004149Y036057D01*
X004297Y036167D02*
X004443Y036167D01*
X004518Y036130D02*
X004628Y036130D01*
X004664Y036167D01*
X004664Y036241D01*
X004628Y036277D01*
X004518Y036277D01*
X004518Y036057D01*
X004739Y036094D02*
X004775Y036057D01*
X004849Y036057D01*
X004885Y036094D01*
X004885Y036241D01*
X004849Y036277D01*
X004775Y036277D01*
X004739Y036241D01*
X004739Y036094D01*
X004960Y036094D02*
X004996Y036057D01*
X005070Y036057D01*
X005106Y036094D01*
X005106Y036130D01*
X005070Y036167D01*
X004996Y036167D01*
X004960Y036204D01*
X004960Y036241D01*
X004996Y036277D01*
X005070Y036277D01*
X005106Y036241D01*
X005838Y038937D02*
X005911Y038937D01*
X005948Y038973D01*
X006022Y038937D02*
X006169Y039084D01*
X006169Y039120D01*
X006132Y039157D01*
X006059Y039157D01*
X006022Y039120D01*
X005948Y039120D02*
X005911Y039157D01*
X005838Y039157D01*
X005801Y039120D01*
X005801Y038973D01*
X005838Y038937D01*
X006022Y038937D02*
X006169Y038937D01*
X005304Y039098D02*
X005304Y039172D01*
X005231Y039172D01*
X005304Y039245D02*
X005267Y039282D01*
X005194Y039282D01*
X005157Y039245D01*
X005157Y039098D01*
X005194Y039062D01*
X005267Y039062D01*
X005304Y039098D01*
X005083Y039062D02*
X004936Y039062D01*
X004936Y039282D01*
X005083Y039282D01*
X005010Y039172D02*
X004936Y039172D01*
X004862Y039062D02*
X004862Y039282D01*
X004715Y039282D02*
X004862Y039062D01*
X004715Y039062D02*
X004715Y039282D01*
X004641Y039172D02*
X004494Y039172D01*
X004420Y039282D02*
X004273Y039282D01*
X004347Y039282D02*
X004347Y039062D01*
X004199Y039062D02*
X004199Y039209D01*
X004126Y039282D01*
X004052Y039209D01*
X004052Y039062D01*
X003978Y039098D02*
X003941Y039062D01*
X003831Y039062D01*
X003831Y039282D01*
X003941Y039282D01*
X003978Y039245D01*
X003978Y039209D01*
X003941Y039172D01*
X003831Y039172D01*
X003941Y039172D02*
X003978Y039135D01*
X003978Y039098D01*
X004052Y039172D02*
X004199Y039172D01*
X005947Y033167D02*
X005910Y033130D01*
X005910Y032983D01*
X005947Y032947D01*
X006021Y032947D01*
X006057Y032983D01*
X006131Y033057D02*
X006278Y033057D01*
X006242Y033167D02*
X006131Y033057D01*
X006057Y033130D02*
X006021Y033167D01*
X005947Y033167D01*
X006242Y033167D02*
X006242Y032947D01*
X007235Y025330D02*
X007271Y025293D01*
X007465Y023729D02*
X007465Y023582D01*
X007575Y023582D01*
X007538Y023655D01*
X007538Y023692D01*
X007575Y023729D01*
X007648Y023729D01*
X007685Y023692D01*
X007685Y023618D01*
X007648Y023582D01*
X007685Y023508D02*
X007612Y023434D01*
X007612Y023471D02*
X007612Y023361D01*
X007685Y023361D02*
X007465Y023361D01*
X007465Y023471D01*
X007501Y023508D01*
X007575Y023508D01*
X007612Y023471D01*
X007066Y022043D02*
X006919Y022043D01*
X006919Y021933D01*
X006992Y021969D01*
X007029Y021969D01*
X007066Y021933D01*
X007066Y021859D01*
X007029Y021823D01*
X006956Y021823D01*
X006919Y021859D01*
X006845Y021859D02*
X006808Y021823D01*
X006735Y021823D01*
X006698Y021859D01*
X006698Y022006D01*
X006735Y022043D01*
X006808Y022043D01*
X006845Y022006D01*
X007023Y019965D02*
X007133Y019965D01*
X007170Y019928D01*
X007170Y019781D01*
X007133Y019744D01*
X007023Y019744D01*
X007023Y019965D01*
X007244Y019891D02*
X007317Y019965D01*
X007317Y019744D01*
X007244Y019744D02*
X007391Y019744D01*
X006888Y018745D02*
X006888Y018708D01*
X006741Y018561D01*
X006741Y018524D01*
X006667Y018561D02*
X006630Y018524D01*
X006557Y018524D01*
X006520Y018561D01*
X006520Y018708D01*
X006557Y018745D01*
X006630Y018745D01*
X006667Y018708D01*
X006741Y018745D02*
X006888Y018745D01*
X008294Y019801D02*
X008294Y020021D01*
X008404Y020021D01*
X008441Y019984D01*
X008441Y019911D01*
X008404Y019874D01*
X008294Y019874D01*
X008367Y019874D02*
X008441Y019801D01*
X008515Y019801D02*
X008662Y019948D01*
X008662Y019984D01*
X008625Y020021D01*
X008551Y020021D01*
X008515Y019984D01*
X008515Y019801D02*
X008662Y019801D01*
X008694Y020610D02*
X008547Y020610D01*
X008620Y020610D02*
X008620Y020830D01*
X008547Y020757D01*
X008473Y020793D02*
X008473Y020720D01*
X008436Y020683D01*
X008326Y020683D01*
X008326Y020610D02*
X008326Y020830D01*
X008436Y020830D01*
X008473Y020793D01*
X008399Y020683D02*
X008473Y020610D01*
X008957Y021718D02*
X008921Y021755D01*
X008921Y021828D01*
X008957Y021865D01*
X008994Y021939D02*
X008921Y022012D01*
X009141Y022012D01*
X009141Y021939D02*
X009141Y022086D01*
X009104Y021865D02*
X009141Y021828D01*
X009141Y021755D01*
X009104Y021718D01*
X008957Y021718D01*
X009498Y025159D02*
X009498Y025379D01*
X009572Y025306D01*
X009645Y025379D01*
X009645Y025159D01*
X009719Y025196D02*
X009756Y025159D01*
X009829Y025159D01*
X009866Y025196D01*
X009866Y025343D01*
X009829Y025379D01*
X009756Y025379D01*
X009719Y025343D01*
X009719Y025196D01*
X009940Y025379D02*
X010087Y025379D01*
X010014Y025379D02*
X010014Y025159D01*
X010161Y025269D02*
X010308Y025269D01*
X010382Y025379D02*
X010529Y025379D01*
X010456Y025379D02*
X010456Y025159D01*
X010603Y025159D02*
X010750Y025379D01*
X010603Y025379D02*
X010750Y025159D01*
X011058Y025151D02*
X011058Y025371D01*
X011132Y025297D01*
X011205Y025371D01*
X011205Y025151D01*
X011279Y025187D02*
X011316Y025151D01*
X011390Y025151D01*
X011426Y025187D01*
X011426Y025334D01*
X011390Y025371D01*
X011316Y025371D01*
X011279Y025334D01*
X011279Y025187D01*
X011500Y025371D02*
X011647Y025371D01*
X011574Y025371D02*
X011574Y025151D01*
X011721Y025261D02*
X011868Y025261D01*
X011942Y025334D02*
X011942Y025187D01*
X011979Y025151D01*
X012053Y025151D01*
X012089Y025187D01*
X012089Y025261D01*
X012016Y025261D01*
X012089Y025334D02*
X012053Y025371D01*
X011979Y025371D01*
X011942Y025334D01*
X012163Y025371D02*
X012163Y025151D01*
X012310Y025151D02*
X012163Y025371D01*
X012310Y025371D02*
X012310Y025151D01*
X012384Y025151D02*
X012494Y025151D01*
X012531Y025187D01*
X012531Y025334D01*
X012494Y025371D01*
X012384Y025371D01*
X012384Y025151D01*
X011835Y023048D02*
X011871Y023012D01*
X011871Y022975D01*
X011835Y022938D01*
X011761Y022938D01*
X011725Y022975D01*
X011725Y023012D01*
X011761Y023048D01*
X011835Y023048D01*
X011835Y022938D02*
X011871Y022902D01*
X011871Y022865D01*
X011835Y022828D01*
X011761Y022828D01*
X011725Y022865D01*
X011725Y022902D01*
X011761Y022938D01*
X011651Y022865D02*
X011614Y022828D01*
X011540Y022828D01*
X011504Y022865D01*
X011504Y023012D01*
X011540Y023048D01*
X011614Y023048D01*
X011651Y023012D01*
X010834Y023341D02*
X010834Y023377D01*
X010797Y023414D01*
X010687Y023414D01*
X010687Y023341D01*
X010724Y023304D01*
X010797Y023304D01*
X010834Y023341D01*
X010760Y023487D02*
X010687Y023414D01*
X010760Y023487D02*
X010834Y023524D01*
X010613Y023487D02*
X010576Y023524D01*
X010503Y023524D01*
X010466Y023487D01*
X010466Y023341D01*
X010503Y023304D01*
X010576Y023304D01*
X010613Y023341D01*
X012382Y020114D02*
X012455Y020114D01*
X012419Y020114D02*
X012419Y019894D01*
X012455Y019894D02*
X012382Y019894D01*
X012529Y019930D02*
X012566Y019894D01*
X012639Y019894D01*
X012676Y019930D01*
X012750Y019930D02*
X012787Y019894D01*
X012860Y019894D01*
X012897Y019930D01*
X012897Y019967D01*
X012860Y020004D01*
X012824Y020004D01*
X012860Y020004D02*
X012897Y020040D01*
X012897Y020077D01*
X012860Y020114D01*
X012787Y020114D01*
X012750Y020077D01*
X012676Y020077D02*
X012639Y020114D01*
X012566Y020114D01*
X012529Y020077D01*
X012529Y019930D01*
X010351Y017549D02*
X010204Y017549D01*
X010277Y017549D02*
X010277Y017769D01*
X010204Y017696D01*
X010130Y017733D02*
X010130Y017659D01*
X010093Y017623D01*
X009983Y017623D01*
X009983Y017549D02*
X009983Y017769D01*
X010093Y017769D01*
X010130Y017733D01*
X009909Y017769D02*
X009835Y017769D01*
X009872Y017769D02*
X009872Y017586D01*
X009835Y017549D01*
X009799Y017549D01*
X009762Y017586D01*
D13*
X009583Y018007D02*
X009583Y018327D01*
X009243Y018947D02*
X009003Y018947D01*
X008790Y022093D02*
X007990Y022093D01*
X007663Y018947D02*
X007443Y018947D01*
X007013Y018327D02*
X007013Y018037D01*
X008538Y028394D02*
X008538Y029194D01*
X006063Y037704D02*
X005263Y037704D01*
D14*
X006043Y032711D02*
X006043Y032687D01*
X007315Y021964D02*
X007339Y021964D01*
X006249Y018622D02*
X006225Y018622D01*
X011014Y023802D02*
X011014Y023826D01*
X012175Y023202D02*
X012199Y023202D01*
D15*
X011993Y024412D02*
X011893Y024412D01*
X011993Y024412D02*
X011993Y024512D01*
X011993Y024912D02*
X011993Y025012D01*
X011893Y025012D01*
X011493Y025012D02*
X011393Y025012D01*
X011393Y024912D01*
X011393Y024512D02*
X011393Y024412D01*
X011493Y024412D01*
X010418Y024412D02*
X010318Y024412D01*
X010418Y024412D02*
X010418Y024512D01*
X010418Y024912D02*
X010418Y025012D01*
X010318Y025012D01*
X009918Y025012D02*
X009818Y025012D01*
X009818Y024912D01*
X009818Y024512D02*
X009818Y024412D01*
X009918Y024412D01*
X007071Y024412D02*
X006971Y024412D01*
X007071Y024412D02*
X007071Y024512D01*
X007071Y024912D02*
X007071Y025012D01*
X006971Y025012D01*
X006571Y025012D02*
X006471Y025012D01*
X006471Y024912D01*
X006471Y024512D02*
X006471Y024412D01*
X006571Y024412D01*
X005497Y024412D02*
X005397Y024412D01*
X005497Y024412D02*
X005497Y024512D01*
X005497Y024912D02*
X005497Y025012D01*
X005397Y025012D01*
X004997Y025012D02*
X004897Y025012D01*
X004897Y024912D01*
X004897Y024512D02*
X004897Y024412D01*
X004997Y024412D01*
X004709Y032089D02*
X004609Y032089D01*
X004709Y032089D02*
X004709Y032189D01*
X004709Y032589D02*
X004709Y032689D01*
X004609Y032689D01*
X004209Y032689D02*
X004109Y032689D01*
X004109Y032589D01*
X004109Y032189D02*
X004109Y032089D01*
X004209Y032089D01*
X004209Y033270D02*
X004109Y033270D01*
X004109Y033370D01*
X004109Y033770D02*
X004109Y033870D01*
X004209Y033870D01*
X004609Y033870D02*
X004709Y033870D01*
X004709Y033770D01*
X004709Y033370D02*
X004709Y033270D01*
X004609Y033270D01*
X004608Y036422D02*
X004708Y036422D01*
X004708Y036522D01*
X004708Y036922D02*
X004708Y037022D01*
X004608Y037022D01*
X004208Y037022D02*
X004108Y037022D01*
X004108Y036922D01*
X004108Y036522D02*
X004108Y036422D01*
X004208Y036422D01*
X004206Y038392D02*
X004106Y038392D01*
X004106Y038492D01*
X004106Y038892D02*
X004106Y038992D01*
X004206Y038992D01*
X004606Y038992D02*
X004706Y038992D01*
X004706Y038892D01*
X004706Y038492D02*
X004706Y038392D01*
X004606Y038392D01*
M02*
