G75*
%MOIN*%
%OFA0B0*%
%FSLAX24Y24*%
%IPPOS*%
%LPD*%
%AMOC8*
5,1,8,0,0,1.08239X$1,22.5*
%
%ADD10C,0.1694*%
%ADD11C,0.0867*%
%ADD12C,0.0400*%
%ADD13C,0.0474*%
%ADD14R,0.0230X0.0530*%
%ADD15R,0.0710X0.0631*%
%ADD16R,0.0513X0.0474*%
%ADD17R,0.0474X0.0513*%
%ADD18R,0.0631X0.0710*%
%ADD19R,0.0277X0.0336*%
%ADD20C,0.0513*%
%ADD21OC8,0.0710*%
%ADD22R,0.0277X0.0356*%
%ADD23R,0.0560X0.0960*%
%ADD24R,0.1497X0.0946*%
%ADD25R,0.0237X0.0611*%
%ADD26R,0.0671X0.0828*%
%ADD27R,0.0880X0.0580*%
%ADD28C,0.0548*%
%ADD29C,0.0437*%
%ADD30C,0.0390*%
%ADD31C,0.0476*%
D10*
X008346Y031602D03*
D11*
X005197Y019004D03*
D12*
X006549Y033708D02*
X007549Y033708D01*
X007549Y034208D02*
X006549Y034208D01*
X006549Y034708D02*
X007549Y034708D01*
X007549Y035208D02*
X006549Y035208D01*
X006549Y035708D02*
X007549Y035708D01*
X007549Y036208D02*
X006549Y036208D01*
X006549Y036708D02*
X007549Y036708D01*
X007549Y037208D02*
X006549Y037208D01*
X006549Y037708D02*
X007549Y037708D01*
X007549Y038208D02*
X006549Y038208D01*
X006549Y038708D02*
X007549Y038708D01*
X011829Y037218D02*
X012829Y037218D01*
X012829Y036718D02*
X011829Y036718D01*
X011829Y036218D02*
X012829Y036218D01*
X012829Y035718D02*
X011829Y035718D01*
X011829Y035218D02*
X012829Y035218D01*
X012829Y034718D02*
X011829Y034718D01*
X011829Y034218D02*
X012829Y034218D01*
X012829Y033718D02*
X011829Y033718D01*
D13*
X004409Y017822D03*
X009921Y023334D03*
X012283Y017822D03*
X004409Y037901D03*
D14*
X009879Y022052D03*
X010129Y022052D03*
X010379Y022052D03*
X010629Y022052D03*
X010879Y022052D03*
X011129Y022052D03*
X011379Y022052D03*
X011629Y022052D03*
X011879Y022052D03*
X012129Y022052D03*
X012129Y019942D03*
X011879Y019942D03*
X011629Y019942D03*
X011379Y019942D03*
X011129Y019942D03*
X010879Y019942D03*
X010629Y019942D03*
X010379Y019942D03*
X010129Y019942D03*
X009879Y019942D03*
D15*
X008390Y021392D03*
X008390Y022494D03*
X005663Y037303D03*
X005663Y038405D03*
D16*
X005709Y032699D03*
X006378Y032699D03*
X010680Y023814D03*
X011349Y023814D03*
D17*
X012187Y023537D03*
X012187Y022867D03*
X008822Y020395D03*
X008824Y019595D03*
X008155Y019595D03*
X008153Y020395D03*
X007327Y021629D03*
X007327Y022299D03*
X006237Y018957D03*
X006237Y018287D03*
D18*
X008137Y028794D03*
X009239Y028794D03*
D19*
X008841Y023806D03*
X008841Y023314D03*
X008526Y023314D03*
X008526Y023806D03*
X008211Y023806D03*
X007896Y023806D03*
X007896Y023314D03*
X008211Y023314D03*
D20*
X008446Y024356D02*
X008446Y024710D01*
X008446Y024356D02*
X008446Y024356D01*
X008446Y024710D01*
X008446Y024710D01*
X007777Y024710D02*
X007777Y024356D01*
X007777Y024356D01*
X007777Y024710D01*
X007777Y024710D01*
X007777Y026245D02*
X007777Y026599D01*
X007777Y026245D02*
X007777Y026245D01*
X007777Y026599D01*
X007777Y026599D01*
X008446Y026599D02*
X008446Y026245D01*
X008446Y026245D01*
X008446Y026599D01*
X008446Y026599D01*
X009115Y026599D02*
X009115Y026245D01*
X009115Y026245D01*
X009115Y026599D01*
X009115Y026599D01*
X009115Y024710D02*
X009115Y024356D01*
X009115Y024356D01*
X009115Y024710D01*
X009115Y024710D01*
D21*
X010118Y024712D03*
X011693Y024712D03*
X006771Y024712D03*
X005197Y024712D03*
X004409Y032389D03*
X004409Y033570D03*
X004408Y036722D03*
X004406Y038692D03*
D22*
X006779Y020055D03*
X006779Y019543D03*
D23*
X006500Y031041D03*
X005590Y031041D03*
X004680Y031041D03*
D24*
X005590Y028601D03*
D25*
X007815Y018677D03*
X008071Y018677D03*
X008327Y018677D03*
X008583Y018677D03*
X008839Y018677D03*
D26*
X008721Y017614D03*
X007933Y017614D03*
D27*
X006963Y018657D03*
X009733Y018657D03*
D28*
X009749Y017708D02*
X009517Y017708D01*
X009749Y017708D02*
X009749Y017526D01*
X009517Y017526D01*
X009517Y017708D01*
X007114Y017743D02*
X007114Y017511D01*
X006932Y017511D01*
X006932Y017743D01*
X007114Y017743D01*
D29*
X009238Y029636D03*
D30*
X007122Y029322D03*
X006483Y032027D03*
X006109Y034712D03*
X011898Y024101D03*
X011860Y019138D03*
D31*
X006108Y036220D03*
M02*
