G75*
%MOIN*%
%OFA0B0*%
%FSLAX24Y24*%
%IPPOS*%
%LPD*%
%AMOC8*
5,1,8,0,0,1.08239X$1,22.5*
%
%ADD10C,0.0000*%
%ADD11C,0.0320*%
%ADD12C,0.0394*%
%ADD13R,0.0150X0.0450*%
%ADD14R,0.0630X0.0551*%
%ADD15R,0.0433X0.0394*%
%ADD16R,0.0394X0.0433*%
%ADD17R,0.0551X0.0630*%
%ADD18R,0.0197X0.0256*%
%ADD19C,0.0433*%
%ADD20OC8,0.0630*%
%ADD21R,0.0197X0.0276*%
%ADD22R,0.0480X0.0880*%
%ADD23R,0.1417X0.0866*%
%ADD24R,0.0157X0.0531*%
%ADD25R,0.0591X0.0748*%
%ADD26R,0.0800X0.0500*%
%ADD27C,0.0488*%
%ADD28C,0.0660*%
%ADD29C,0.0400*%
%ADD30C,0.0240*%
%ADD31C,0.0160*%
%ADD32C,0.0357*%
%ADD33C,0.0310*%
%ADD34C,0.0120*%
%ADD35C,0.0100*%
%ADD36C,0.0396*%
D10*
X003405Y017035D02*
X003405Y039476D01*
X013267Y039476D01*
X013267Y017035D01*
X003405Y017035D01*
X004803Y019004D02*
X004805Y019043D01*
X004811Y019082D01*
X004821Y019120D01*
X004834Y019157D01*
X004851Y019192D01*
X004871Y019226D01*
X004895Y019257D01*
X004922Y019286D01*
X004951Y019312D01*
X004983Y019335D01*
X005017Y019355D01*
X005053Y019371D01*
X005090Y019383D01*
X005129Y019392D01*
X005168Y019397D01*
X005207Y019398D01*
X005246Y019395D01*
X005285Y019388D01*
X005322Y019377D01*
X005359Y019363D01*
X005394Y019345D01*
X005427Y019324D01*
X005458Y019299D01*
X005486Y019272D01*
X005511Y019242D01*
X005533Y019209D01*
X005552Y019175D01*
X005567Y019139D01*
X005579Y019101D01*
X005587Y019063D01*
X005591Y019024D01*
X005591Y018984D01*
X005587Y018945D01*
X005579Y018907D01*
X005567Y018869D01*
X005552Y018833D01*
X005533Y018799D01*
X005511Y018766D01*
X005486Y018736D01*
X005458Y018709D01*
X005427Y018684D01*
X005394Y018663D01*
X005359Y018645D01*
X005322Y018631D01*
X005285Y018620D01*
X005246Y018613D01*
X005207Y018610D01*
X005168Y018611D01*
X005129Y018616D01*
X005090Y018625D01*
X005053Y018637D01*
X005017Y018653D01*
X004983Y018673D01*
X004951Y018696D01*
X004922Y018722D01*
X004895Y018751D01*
X004871Y018782D01*
X004851Y018816D01*
X004834Y018851D01*
X004821Y018888D01*
X004811Y018926D01*
X004805Y018965D01*
X004803Y019004D01*
X007539Y031602D02*
X007541Y031658D01*
X007547Y031714D01*
X007557Y031770D01*
X007570Y031824D01*
X007588Y031878D01*
X007609Y031930D01*
X007633Y031981D01*
X007662Y032030D01*
X007693Y032076D01*
X007728Y032121D01*
X007765Y032163D01*
X007806Y032202D01*
X007849Y032238D01*
X007895Y032271D01*
X007942Y032301D01*
X007992Y032327D01*
X008044Y032350D01*
X008097Y032370D01*
X008151Y032385D01*
X008206Y032397D01*
X008262Y032405D01*
X008318Y032409D01*
X008374Y032409D01*
X008430Y032405D01*
X008486Y032397D01*
X008541Y032385D01*
X008595Y032370D01*
X008648Y032350D01*
X008700Y032327D01*
X008749Y032301D01*
X008797Y032271D01*
X008843Y032238D01*
X008886Y032202D01*
X008927Y032163D01*
X008964Y032121D01*
X008999Y032076D01*
X009030Y032030D01*
X009059Y031981D01*
X009083Y031930D01*
X009104Y031878D01*
X009122Y031824D01*
X009135Y031770D01*
X009145Y031714D01*
X009151Y031658D01*
X009153Y031602D01*
X009151Y031546D01*
X009145Y031490D01*
X009135Y031434D01*
X009122Y031380D01*
X009104Y031326D01*
X009083Y031274D01*
X009059Y031223D01*
X009030Y031174D01*
X008999Y031128D01*
X008964Y031083D01*
X008927Y031041D01*
X008886Y031002D01*
X008843Y030966D01*
X008797Y030933D01*
X008750Y030903D01*
X008700Y030877D01*
X008648Y030854D01*
X008595Y030834D01*
X008541Y030819D01*
X008486Y030807D01*
X008430Y030799D01*
X008374Y030795D01*
X008318Y030795D01*
X008262Y030799D01*
X008206Y030807D01*
X008151Y030819D01*
X008097Y030834D01*
X008044Y030854D01*
X007992Y030877D01*
X007942Y030903D01*
X007895Y030933D01*
X007849Y030966D01*
X007806Y031002D01*
X007765Y031041D01*
X007728Y031083D01*
X007693Y031128D01*
X007662Y031174D01*
X007633Y031223D01*
X007609Y031274D01*
X007588Y031326D01*
X007570Y031380D01*
X007557Y031434D01*
X007547Y031490D01*
X007541Y031546D01*
X007539Y031602D01*
D11*
X007549Y033708D02*
X006549Y033708D01*
X006549Y034208D02*
X007549Y034208D01*
X007549Y034708D02*
X006549Y034708D01*
X006549Y035208D02*
X007549Y035208D01*
X007549Y035708D02*
X006549Y035708D01*
X006549Y036208D02*
X007549Y036208D01*
X007549Y036708D02*
X006549Y036708D01*
X007049Y036708D02*
X005712Y036706D01*
X006549Y037208D02*
X007549Y037208D01*
X007549Y037708D02*
X006549Y037708D01*
X006549Y038208D02*
X007549Y038208D01*
X007549Y038708D02*
X006549Y038708D01*
X009238Y029636D02*
X009239Y028794D01*
X008137Y028794D02*
X007322Y028794D01*
X007322Y028722D01*
X007322Y028794D02*
X005783Y028794D01*
X005590Y028601D01*
X011829Y033718D02*
X012829Y033718D01*
X012829Y034218D02*
X011829Y034218D01*
X011829Y034718D02*
X012829Y034718D01*
X012829Y035218D02*
X011829Y035218D01*
X011829Y035718D02*
X012829Y035718D01*
X012829Y036218D02*
X011829Y036218D01*
X011829Y036718D02*
X012829Y036718D01*
X012829Y037218D02*
X011829Y037218D01*
D12*
X009921Y023334D03*
X012283Y017822D03*
X004409Y017822D03*
X004409Y037901D03*
D13*
X009879Y022052D03*
X010129Y022052D03*
X010379Y022052D03*
X010629Y022052D03*
X010879Y022052D03*
X011129Y022052D03*
X011379Y022052D03*
X011629Y022052D03*
X011879Y022052D03*
X012129Y022052D03*
X012129Y019942D03*
X011879Y019942D03*
X011629Y019942D03*
X011379Y019942D03*
X011129Y019942D03*
X010879Y019942D03*
X010629Y019942D03*
X010379Y019942D03*
X010129Y019942D03*
X009879Y019942D03*
D14*
X008390Y021392D03*
X008390Y022494D03*
X005663Y037303D03*
X005663Y038405D03*
D15*
X005709Y032699D03*
X006378Y032699D03*
X010680Y023814D03*
X011349Y023814D03*
D16*
X012187Y023537D03*
X012187Y022867D03*
X008822Y020395D03*
X008824Y019595D03*
X008155Y019595D03*
X008153Y020395D03*
X007327Y021629D03*
X007327Y022299D03*
X006237Y018957D03*
X006237Y018287D03*
D17*
X008137Y028794D03*
X009239Y028794D03*
D18*
X008841Y023806D03*
X008841Y023314D03*
X008526Y023314D03*
X008526Y023806D03*
X008211Y023806D03*
X007896Y023806D03*
X007896Y023314D03*
X008211Y023314D03*
D19*
X008446Y024356D02*
X008446Y024710D01*
X008446Y024356D02*
X008446Y024356D01*
X008446Y024710D01*
X008446Y024710D01*
X007777Y024710D02*
X007777Y024356D01*
X007777Y024356D01*
X007777Y024710D01*
X007777Y024710D01*
X007777Y026245D02*
X007777Y026599D01*
X007777Y026245D02*
X007777Y026245D01*
X007777Y026599D01*
X007777Y026599D01*
X008446Y026599D02*
X008446Y026245D01*
X008446Y026245D01*
X008446Y026599D01*
X008446Y026599D01*
X009115Y026599D02*
X009115Y026245D01*
X009115Y026245D01*
X009115Y026599D01*
X009115Y026599D01*
X009115Y024710D02*
X009115Y024356D01*
X009115Y024356D01*
X009115Y024710D01*
X009115Y024710D01*
D20*
X010118Y024712D03*
X011693Y024712D03*
X006771Y024712D03*
X005197Y024712D03*
X004409Y032389D03*
X004409Y033570D03*
X004408Y036722D03*
X004406Y038692D03*
D21*
X006779Y020055D03*
X006779Y019543D03*
D22*
X006500Y031041D03*
X005590Y031041D03*
X004680Y031041D03*
D23*
X005590Y028601D03*
D24*
X007815Y018677D03*
X008071Y018677D03*
X008327Y018677D03*
X008583Y018677D03*
X008839Y018677D03*
D25*
X008721Y017614D03*
X007933Y017614D03*
D26*
X006963Y018657D03*
X009733Y018657D03*
D27*
X009739Y017698D02*
X009527Y017698D01*
X009739Y017698D02*
X009739Y017536D01*
X009527Y017536D01*
X009527Y017698D01*
X007104Y017733D02*
X007104Y017521D01*
X006942Y017521D01*
X006942Y017733D01*
X007104Y017733D01*
D28*
X005663Y038405D02*
X005403Y038691D01*
X004406Y038692D01*
D29*
X005522Y028622D02*
X005622Y028569D01*
X005590Y028601D01*
X005522Y028622D02*
X005851Y028594D01*
X012319Y037208D02*
X012329Y037218D01*
D30*
X012324Y036722D02*
X012329Y036718D01*
X012324Y036722D02*
X011434Y036722D01*
X010434Y035722D01*
X010434Y032822D01*
X011434Y031822D01*
X011434Y028422D01*
X011034Y028022D01*
X009722Y028022D01*
X009222Y027522D01*
X008622Y027522D01*
X007777Y026678D01*
X007777Y026422D01*
X007313Y025630D02*
X006322Y025635D01*
X005822Y025135D01*
X005822Y020535D01*
X006231Y020120D01*
X006237Y018957D01*
X006779Y020055D02*
X006779Y020378D01*
X006422Y020735D01*
X006414Y024335D01*
X006771Y024712D01*
X007313Y025630D02*
X007322Y022922D01*
X007327Y022299D01*
X007263Y022235D01*
X007322Y022922D02*
X008422Y022922D01*
X008390Y022890D01*
X008390Y022494D01*
X008422Y022922D02*
X008522Y023022D01*
X008522Y023310D01*
X008526Y023314D01*
X008841Y023314D01*
X008526Y023314D02*
X008211Y023314D01*
X008152Y021629D02*
X008390Y021392D01*
X009179Y021392D01*
X009522Y021735D01*
X009531Y022557D01*
X009540Y025040D02*
X009836Y025431D01*
X010936Y025431D01*
X011199Y025050D01*
X011199Y024712D01*
X010722Y024235D01*
X010722Y023856D01*
X010680Y023814D01*
X011199Y024712D02*
X011693Y024712D01*
X012727Y024705D01*
X012734Y026940D02*
X012733Y027421D01*
X012734Y027422D01*
X012734Y032722D01*
X012329Y033128D01*
X012329Y034218D01*
X012329Y033718D01*
X011434Y033322D02*
X012334Y032422D01*
X012334Y027722D01*
X011734Y027122D01*
X010222Y027122D01*
X009522Y026422D01*
X009115Y026422D01*
X008822Y027022D02*
X009422Y027022D01*
X009922Y027522D01*
X011334Y027522D01*
X011834Y028022D01*
X011834Y032122D01*
X010934Y033022D01*
X010934Y035622D01*
X011534Y036222D01*
X012324Y036222D01*
X012329Y036218D01*
X012324Y035722D02*
X012329Y035718D01*
X012324Y035722D02*
X011634Y035722D01*
X011434Y035522D01*
X011434Y033322D01*
X008922Y033722D02*
X008222Y033022D01*
X007422Y033022D01*
X007122Y032722D01*
X007122Y029322D01*
X007322Y028722D02*
X007313Y025630D01*
X008446Y026422D02*
X008446Y026647D01*
X008822Y027022D01*
X006500Y031041D02*
X006506Y031995D01*
X006506Y032033D01*
X006503Y032723D01*
X006378Y032699D01*
X006503Y032723D02*
X006500Y033301D01*
X006922Y033722D01*
X007049Y033708D02*
X007049Y034208D01*
X007049Y034708D02*
X006109Y034712D01*
X006108Y036220D02*
X007049Y036208D01*
X007049Y035208D02*
X008536Y035208D01*
X008922Y034822D01*
X008922Y033722D01*
X005709Y032699D02*
X005590Y032722D01*
X005590Y036722D01*
X005712Y036706D01*
X005590Y036722D02*
X005590Y037230D01*
X005663Y037303D01*
X005590Y032722D02*
X005590Y031041D01*
X005590Y028601D01*
X004680Y031041D02*
X004680Y032118D01*
X004409Y032389D01*
X007327Y021629D02*
X008152Y021629D01*
D31*
X007902Y020888D02*
X007316Y020889D01*
X006923Y021177D01*
X006922Y022135D01*
X007022Y022235D01*
X007263Y022235D01*
X007902Y020888D02*
X010171Y020886D01*
X010629Y020443D01*
X010629Y019942D01*
X010629Y020443D02*
X011622Y021435D01*
X011622Y022045D01*
X011629Y022052D01*
X011629Y023457D01*
X011349Y023814D01*
X011898Y024101D02*
X012187Y023537D01*
X012727Y024705D02*
X012734Y026940D01*
X012727Y024705D02*
X012734Y020835D01*
X012334Y020435D01*
X012722Y020035D01*
X012717Y018935D01*
X011932Y018150D01*
X008839Y018152D01*
X008839Y018677D01*
X008839Y018152D02*
X008622Y017935D01*
X006463Y017935D01*
X006237Y018287D01*
X009531Y022557D02*
X009540Y025040D01*
X009803Y022716D02*
X009531Y022557D01*
X009803Y022716D02*
X010722Y022716D01*
X011334Y020435D02*
X012334Y020435D01*
X011334Y020435D02*
X011129Y020230D01*
X011129Y019942D01*
D32*
X009238Y029636D03*
D33*
X007122Y029322D03*
X006483Y032027D03*
X006109Y034712D03*
X011898Y024101D03*
X011860Y019138D03*
D34*
X012129Y019430D01*
X012129Y019942D01*
X012384Y019998D02*
X013023Y019998D01*
X013024Y020116D02*
X012384Y020116D01*
X012384Y020235D02*
X013024Y020235D01*
X013024Y020353D02*
X010907Y020353D01*
X010902Y020347D02*
X011842Y021288D01*
X011882Y021383D01*
X011882Y021647D01*
X012279Y021647D01*
X012384Y021753D01*
X012384Y022352D01*
X012369Y022367D01*
X012369Y022471D01*
X012458Y022471D01*
X012564Y022576D01*
X012564Y023158D01*
X012520Y023202D01*
X012564Y023246D01*
X012564Y023828D01*
X012458Y023933D01*
X012276Y023933D01*
X012229Y024025D01*
X012233Y024034D01*
X012233Y024168D01*
X012182Y024291D01*
X012087Y024385D01*
X011964Y024436D01*
X011831Y024436D01*
X011708Y024385D01*
X011614Y024291D01*
X011572Y024191D01*
X011058Y024191D01*
X010952Y024086D01*
X010952Y023562D01*
X010621Y023562D01*
X010362Y023822D01*
X010362Y024256D01*
X010613Y024507D01*
X010613Y024917D01*
X010323Y025207D01*
X009913Y025207D01*
X009623Y024917D01*
X009623Y024507D01*
X009882Y024248D01*
X009882Y023711D01*
X009846Y023711D01*
X009707Y023654D01*
X009601Y023548D01*
X009544Y023409D01*
X009544Y023259D01*
X009601Y023121D01*
X009707Y023015D01*
X009846Y022957D01*
X009996Y022957D01*
X010134Y023015D01*
X010240Y023121D01*
X010282Y023222D01*
X010386Y023119D01*
X010474Y023082D01*
X011122Y023082D01*
X011139Y023065D01*
X011139Y022894D01*
X011134Y022881D01*
X011137Y022457D01*
X010980Y022457D01*
X010879Y022357D01*
X010779Y022457D01*
X009730Y022457D01*
X009624Y022352D01*
X009624Y021753D01*
X009730Y021647D01*
X010779Y021647D01*
X010879Y021748D01*
X010980Y021647D01*
X011362Y021647D01*
X011362Y021543D01*
X010626Y020807D01*
X010353Y021071D01*
X010318Y021106D01*
X010316Y021107D01*
X010314Y021109D01*
X010268Y021127D01*
X010223Y021146D01*
X010220Y021146D01*
X010218Y021147D01*
X010169Y021146D01*
X007903Y021148D01*
X007401Y021149D01*
X007183Y021309D01*
X007182Y021902D01*
X007598Y021902D01*
X007704Y022008D01*
X007704Y022590D01*
X007671Y022622D01*
X007895Y022622D01*
X007895Y022144D01*
X008000Y022039D01*
X008779Y022039D01*
X008885Y022144D01*
X008885Y022844D01*
X008806Y022924D01*
X008822Y022963D01*
X008822Y023006D01*
X009014Y023006D01*
X009119Y023112D01*
X009119Y023203D01*
X009141Y023255D01*
X009141Y023374D01*
X009119Y023426D01*
X009119Y023517D01*
X009076Y023560D01*
X009119Y023604D01*
X009119Y023881D01*
X009200Y023961D01*
X009340Y024019D01*
X009452Y024131D01*
X009512Y024277D01*
X009512Y024789D01*
X009452Y024934D01*
X009340Y025046D01*
X009194Y025106D01*
X009037Y025106D01*
X008891Y025046D01*
X008781Y024936D01*
X008671Y025046D01*
X008525Y025106D01*
X008367Y025106D01*
X008222Y025046D01*
X008111Y024936D01*
X008001Y025046D01*
X007856Y025106D01*
X007698Y025106D01*
X007615Y025072D01*
X007613Y025630D01*
X007613Y025688D01*
X007613Y025689D01*
X007613Y025884D01*
X007698Y025849D01*
X007856Y025849D01*
X008001Y025909D01*
X008111Y026019D01*
X008222Y025909D01*
X008367Y025849D01*
X008525Y025849D01*
X008671Y025909D01*
X008781Y026019D01*
X008891Y025909D01*
X009037Y025849D01*
X009194Y025849D01*
X009340Y025909D01*
X009452Y026021D01*
X009494Y026122D01*
X009581Y026122D01*
X009692Y026168D01*
X010346Y026822D01*
X011794Y026822D01*
X011904Y026868D01*
X011989Y026953D01*
X012504Y027468D01*
X012504Y027468D01*
X012589Y027553D01*
X012634Y027663D01*
X012634Y032482D01*
X012589Y032592D01*
X011734Y033447D01*
X011734Y034389D01*
X011761Y034378D01*
X012896Y034378D01*
X013021Y034430D01*
X013032Y034440D01*
X013022Y017245D01*
X003615Y017245D01*
X003615Y039266D01*
X006242Y039266D01*
X006250Y037875D01*
X006209Y037775D01*
X006209Y037640D01*
X006252Y037536D01*
X006253Y037435D01*
X006341Y037435D01*
X006356Y037420D01*
X006481Y037368D01*
X007616Y037368D01*
X007741Y037420D01*
X007757Y037435D01*
X013034Y037435D01*
X013033Y036994D01*
X013021Y037006D01*
X012896Y037058D01*
X011761Y037058D01*
X011676Y037022D01*
X011375Y037022D01*
X011264Y036977D01*
X011180Y036892D01*
X010180Y035892D01*
X010134Y035782D01*
X010134Y032763D01*
X010180Y032653D01*
X010264Y032568D01*
X011134Y031698D01*
X011134Y028547D01*
X010910Y028322D01*
X009662Y028322D01*
X009552Y028277D01*
X009467Y028192D01*
X009097Y027822D01*
X008562Y027822D01*
X008452Y027777D01*
X008367Y027692D01*
X007652Y026977D01*
X007617Y026962D01*
X007621Y028454D01*
X007681Y028454D01*
X007681Y028404D01*
X007787Y028299D01*
X008487Y028299D01*
X008593Y028404D01*
X008593Y029183D01*
X008487Y029289D01*
X007787Y029289D01*
X007681Y029183D01*
X007681Y029134D01*
X007406Y029134D01*
X007457Y029256D01*
X007457Y029389D01*
X007422Y029474D01*
X007422Y031169D01*
X007532Y030977D01*
X007722Y030788D01*
X007954Y030654D01*
X008212Y030585D01*
X008480Y030585D01*
X008739Y030654D01*
X008971Y030788D01*
X009160Y030977D01*
X009294Y031209D01*
X009363Y031468D01*
X009363Y031736D01*
X009294Y031995D01*
X009160Y032226D01*
X008971Y032416D01*
X008739Y032550D01*
X008480Y032619D01*
X008212Y032619D01*
X007954Y032550D01*
X007722Y032416D01*
X007532Y032226D01*
X007422Y032035D01*
X007422Y032598D01*
X007546Y032722D01*
X008281Y032722D01*
X008392Y032768D01*
X008476Y032853D01*
X009176Y033553D01*
X009222Y033663D01*
X009222Y034882D01*
X009176Y034992D01*
X009092Y035077D01*
X008706Y035462D01*
X008596Y035508D01*
X007830Y035508D01*
X007837Y035515D01*
X007889Y035640D01*
X007889Y035775D01*
X007837Y035900D01*
X007780Y035958D01*
X007837Y036015D01*
X007889Y036140D01*
X007889Y036275D01*
X007837Y036400D01*
X007780Y036458D01*
X007837Y036515D01*
X007889Y036640D01*
X007889Y036775D01*
X007837Y036900D01*
X007741Y036996D01*
X007616Y037048D01*
X007116Y037048D01*
X007048Y037048D01*
X006481Y037048D01*
X006480Y037047D01*
X006158Y037047D01*
X006158Y037653D01*
X006052Y037758D01*
X005273Y037758D01*
X005168Y037653D01*
X005168Y036953D01*
X005273Y036847D01*
X005290Y036847D01*
X005290Y036742D01*
X005285Y036702D01*
X005290Y036683D01*
X005290Y032751D01*
X005284Y032721D01*
X005290Y032692D01*
X005290Y031661D01*
X005276Y031661D01*
X005170Y031555D01*
X005170Y030526D01*
X005276Y030421D01*
X005290Y030421D01*
X005290Y029214D01*
X004807Y029214D01*
X004702Y029108D01*
X004702Y028093D01*
X004807Y027988D01*
X006373Y027988D01*
X006479Y028093D01*
X006479Y028454D01*
X007021Y028454D01*
X007014Y025932D01*
X006382Y025935D01*
X006381Y025935D01*
X006323Y025935D01*
X006264Y025935D01*
X006263Y025935D01*
X006262Y025935D01*
X006208Y025912D01*
X006153Y025890D01*
X006153Y025890D01*
X006152Y025889D01*
X006110Y025848D01*
X006068Y025806D01*
X006068Y025806D01*
X005567Y025305D01*
X005522Y025195D01*
X005522Y025087D01*
X005402Y025207D01*
X004991Y025207D01*
X004702Y024917D01*
X004702Y024507D01*
X004991Y024217D01*
X005402Y024217D01*
X005522Y024337D01*
X005522Y020536D01*
X005521Y020478D01*
X005522Y020476D01*
X005522Y020475D01*
X005544Y020421D01*
X005566Y020367D01*
X005567Y020366D01*
X005567Y020365D01*
X005609Y020324D01*
X005932Y019996D01*
X005935Y019323D01*
X005860Y019248D01*
X005860Y018665D01*
X005966Y018560D01*
X006509Y018560D01*
X006614Y018665D01*
X006614Y019148D01*
X006624Y019138D01*
X006833Y018930D01*
X006866Y018897D01*
X006867Y018897D01*
X006867Y018896D01*
X006911Y018878D01*
X006955Y018860D01*
X006956Y018860D01*
X007003Y018860D01*
X007549Y018859D01*
X007557Y018852D01*
X007557Y018337D01*
X007662Y018231D01*
X008736Y018231D01*
X008842Y018337D01*
X008842Y019018D01*
X008736Y019123D01*
X008558Y019123D01*
X008558Y019198D01*
X009095Y019198D01*
X009201Y019304D01*
X009201Y019710D01*
X009624Y019712D01*
X009624Y019643D01*
X009730Y019537D01*
X011029Y019537D01*
X011129Y019638D01*
X011230Y019537D01*
X011889Y019537D01*
X011889Y019524D01*
X011843Y019473D01*
X011794Y019473D01*
X011671Y019422D01*
X011576Y019328D01*
X011525Y019205D01*
X011525Y019071D01*
X011576Y018948D01*
X011671Y018854D01*
X011794Y018803D01*
X011927Y018803D01*
X012050Y018854D01*
X012144Y018948D01*
X012195Y019071D01*
X012195Y019147D01*
X012302Y019264D01*
X012333Y019294D01*
X012335Y019299D01*
X012338Y019302D01*
X012353Y019343D01*
X012369Y019382D01*
X012369Y019387D01*
X012371Y019392D01*
X012369Y019435D01*
X012369Y019628D01*
X012384Y019643D01*
X012384Y020242D01*
X012279Y020347D01*
X011230Y020347D01*
X011129Y020247D01*
X011029Y020347D01*
X010902Y020347D01*
X011026Y020472D02*
X013024Y020472D01*
X013024Y020590D02*
X011144Y020590D01*
X011263Y020709D02*
X013024Y020709D01*
X013024Y020827D02*
X011381Y020827D01*
X011500Y020946D02*
X013024Y020946D01*
X013024Y021064D02*
X011618Y021064D01*
X011737Y021183D02*
X013024Y021183D01*
X013024Y021301D02*
X011848Y021301D01*
X011882Y021420D02*
X013024Y021420D01*
X013024Y021538D02*
X011882Y021538D01*
X012129Y022052D02*
X012129Y022810D01*
X012187Y022867D01*
X012369Y022368D02*
X013025Y022368D01*
X013025Y022486D02*
X012473Y022486D01*
X012564Y022605D02*
X013025Y022605D01*
X013025Y022723D02*
X012564Y022723D01*
X012564Y022842D02*
X013025Y022842D01*
X013025Y022960D02*
X012564Y022960D01*
X012564Y023079D02*
X013025Y023079D01*
X013025Y023197D02*
X012525Y023197D01*
X012564Y023316D02*
X013025Y023316D01*
X013025Y023434D02*
X012564Y023434D01*
X012564Y023553D02*
X013026Y023553D01*
X013026Y023671D02*
X012564Y023671D01*
X012564Y023790D02*
X013026Y023790D01*
X013026Y023908D02*
X012483Y023908D01*
X012229Y024027D02*
X013026Y024027D01*
X013026Y024145D02*
X012233Y024145D01*
X012193Y024264D02*
X013026Y024264D01*
X013026Y024382D02*
X012090Y024382D01*
X011705Y024382D02*
X010488Y024382D01*
X010606Y024501D02*
X013026Y024501D01*
X013026Y024619D02*
X010613Y024619D01*
X010613Y024738D02*
X013026Y024738D01*
X013026Y024856D02*
X010613Y024856D01*
X010555Y024975D02*
X013026Y024975D01*
X013026Y025093D02*
X010437Y025093D01*
X010118Y024712D02*
X010122Y024708D01*
X010122Y023722D01*
X010522Y023322D01*
X011222Y023322D01*
X011379Y023165D01*
X011379Y022052D01*
X011374Y022835D01*
X011134Y022842D02*
X008885Y022842D01*
X008885Y022723D02*
X011135Y022723D01*
X011136Y022605D02*
X008885Y022605D01*
X008885Y022486D02*
X011137Y022486D01*
X010879Y022480D02*
X010879Y022052D01*
X010869Y022368D02*
X010890Y022368D01*
X010879Y022480D02*
X010722Y022716D01*
X011139Y022960D02*
X010002Y022960D01*
X009840Y022960D02*
X008821Y022960D01*
X009086Y023079D02*
X009644Y023079D01*
X009570Y023197D02*
X009119Y023197D01*
X009141Y023316D02*
X009544Y023316D01*
X009554Y023434D02*
X009119Y023434D01*
X009084Y023553D02*
X009606Y023553D01*
X009749Y023671D02*
X009119Y023671D01*
X009119Y023790D02*
X009882Y023790D01*
X009882Y023908D02*
X009147Y023908D01*
X009347Y024027D02*
X009882Y024027D01*
X009882Y024145D02*
X009457Y024145D01*
X009507Y024264D02*
X009866Y024264D01*
X009748Y024382D02*
X009512Y024382D01*
X009512Y024501D02*
X009629Y024501D01*
X009623Y024619D02*
X009512Y024619D01*
X009512Y024738D02*
X009623Y024738D01*
X009623Y024856D02*
X009484Y024856D01*
X009411Y024975D02*
X009680Y024975D01*
X009799Y025093D02*
X009226Y025093D01*
X009004Y025093D02*
X008557Y025093D01*
X008742Y024975D02*
X008819Y024975D01*
X009115Y024533D02*
X009122Y024526D01*
X009122Y024222D01*
X008841Y023942D01*
X008841Y023806D01*
X008526Y023806D02*
X008526Y024018D01*
X008422Y024122D01*
X008422Y024508D01*
X008446Y024533D01*
X008335Y025093D02*
X007888Y025093D01*
X008073Y024975D02*
X008150Y024975D01*
X007777Y024533D02*
X007822Y024488D01*
X007822Y024322D01*
X008211Y024033D01*
X008211Y023806D01*
X007895Y022605D02*
X007689Y022605D01*
X007704Y022486D02*
X007895Y022486D01*
X007895Y022368D02*
X007704Y022368D01*
X007704Y022249D02*
X007895Y022249D01*
X007908Y022131D02*
X007704Y022131D01*
X007704Y022012D02*
X009624Y022012D01*
X009624Y021894D02*
X007182Y021894D01*
X007182Y021775D02*
X009624Y021775D01*
X009720Y021657D02*
X007182Y021657D01*
X007182Y021538D02*
X011357Y021538D01*
X011239Y021420D02*
X007182Y021420D01*
X007193Y021301D02*
X011120Y021301D01*
X011002Y021183D02*
X007355Y021183D01*
X006779Y019543D02*
X006787Y019535D01*
X006792Y019310D01*
X007003Y019100D01*
X007649Y019099D01*
X007840Y018907D01*
X007557Y018813D02*
X006614Y018813D01*
X006614Y018931D02*
X006832Y018931D01*
X006955Y018860D02*
X006955Y018860D01*
X006713Y019050D02*
X006614Y019050D01*
X006614Y018694D02*
X007557Y018694D01*
X007557Y018576D02*
X006524Y018576D01*
X005950Y018576D02*
X005622Y018576D01*
X005538Y018492D02*
X005708Y018662D01*
X005800Y018883D01*
X005800Y019124D01*
X005708Y019346D01*
X005538Y019515D01*
X005317Y019607D01*
X005076Y019607D01*
X004855Y019515D01*
X004685Y019346D01*
X004593Y019124D01*
X004593Y018883D01*
X004685Y018662D01*
X004855Y018492D01*
X005076Y018400D01*
X005317Y018400D01*
X005538Y018492D01*
X005455Y018457D02*
X007557Y018457D01*
X007557Y018339D02*
X003615Y018339D01*
X003615Y018457D02*
X004938Y018457D01*
X004771Y018576D02*
X003615Y018576D01*
X003615Y018694D02*
X004671Y018694D01*
X004622Y018813D02*
X003615Y018813D01*
X003615Y018931D02*
X004593Y018931D01*
X004593Y019050D02*
X003615Y019050D01*
X003615Y019168D02*
X004611Y019168D01*
X004660Y019287D02*
X003615Y019287D01*
X003615Y019405D02*
X004744Y019405D01*
X004874Y019524D02*
X003615Y019524D01*
X003615Y019642D02*
X005934Y019642D01*
X005934Y019524D02*
X005519Y019524D01*
X005649Y019405D02*
X005935Y019405D01*
X005899Y019287D02*
X005733Y019287D01*
X005782Y019168D02*
X005860Y019168D01*
X005860Y019050D02*
X005800Y019050D01*
X005800Y018931D02*
X005860Y018931D01*
X005860Y018813D02*
X005771Y018813D01*
X005722Y018694D02*
X005860Y018694D01*
X005933Y019761D02*
X003615Y019761D01*
X003615Y019879D02*
X005932Y019879D01*
X005930Y019998D02*
X003615Y019998D01*
X003615Y020116D02*
X005813Y020116D01*
X005697Y020235D02*
X003615Y020235D01*
X003615Y020353D02*
X005579Y020353D01*
X005523Y020472D02*
X003615Y020472D01*
X003615Y020590D02*
X005522Y020590D01*
X005522Y020709D02*
X003615Y020709D01*
X003615Y020827D02*
X005522Y020827D01*
X005522Y020946D02*
X003615Y020946D01*
X003615Y021064D02*
X005522Y021064D01*
X005522Y021183D02*
X003615Y021183D01*
X003615Y021301D02*
X005522Y021301D01*
X005522Y021420D02*
X003615Y021420D01*
X003615Y021538D02*
X005522Y021538D01*
X005522Y021657D02*
X003615Y021657D01*
X003615Y021775D02*
X005522Y021775D01*
X005522Y021894D02*
X003615Y021894D01*
X003615Y022012D02*
X005522Y022012D01*
X005522Y022131D02*
X003615Y022131D01*
X003615Y022249D02*
X005522Y022249D01*
X005522Y022368D02*
X003615Y022368D01*
X003615Y022486D02*
X005522Y022486D01*
X005522Y022605D02*
X003615Y022605D01*
X003615Y022723D02*
X005522Y022723D01*
X005522Y022842D02*
X003615Y022842D01*
X003615Y022960D02*
X005522Y022960D01*
X005522Y023079D02*
X003615Y023079D01*
X003615Y023197D02*
X005522Y023197D01*
X005522Y023316D02*
X003615Y023316D01*
X003615Y023434D02*
X005522Y023434D01*
X005522Y023553D02*
X003615Y023553D01*
X003615Y023671D02*
X005522Y023671D01*
X005522Y023790D02*
X003615Y023790D01*
X003615Y023908D02*
X005522Y023908D01*
X005522Y024027D02*
X003615Y024027D01*
X003615Y024145D02*
X005522Y024145D01*
X005522Y024264D02*
X005448Y024264D01*
X005516Y025093D02*
X005522Y025093D01*
X005529Y025212D02*
X003615Y025212D01*
X003615Y025330D02*
X005592Y025330D01*
X005711Y025449D02*
X003615Y025449D01*
X003615Y025567D02*
X005829Y025567D01*
X005948Y025686D02*
X003615Y025686D01*
X003615Y025804D02*
X006066Y025804D01*
X006232Y025923D02*
X003615Y025923D01*
X003615Y026041D02*
X007014Y026041D01*
X007014Y026160D02*
X003615Y026160D01*
X003615Y026278D02*
X007015Y026278D01*
X007015Y026397D02*
X003615Y026397D01*
X003615Y026515D02*
X007015Y026515D01*
X007016Y026634D02*
X003615Y026634D01*
X003615Y026752D02*
X007016Y026752D01*
X007016Y026871D02*
X003615Y026871D01*
X003615Y026989D02*
X007017Y026989D01*
X007017Y027108D02*
X003615Y027108D01*
X003615Y027226D02*
X007017Y027226D01*
X007018Y027345D02*
X003615Y027345D01*
X003615Y027463D02*
X007018Y027463D01*
X007018Y027582D02*
X003615Y027582D01*
X003615Y027700D02*
X007019Y027700D01*
X007019Y027819D02*
X003615Y027819D01*
X003615Y027937D02*
X007019Y027937D01*
X007020Y028056D02*
X006441Y028056D01*
X006479Y028174D02*
X007020Y028174D01*
X007020Y028293D02*
X006479Y028293D01*
X006479Y028411D02*
X007021Y028411D01*
X006837Y029134D02*
X006454Y029134D01*
X006373Y029214D01*
X005890Y029214D01*
X005890Y030421D01*
X005905Y030421D01*
X006010Y030526D01*
X006010Y031555D01*
X005905Y031661D01*
X005890Y031661D01*
X005890Y032323D01*
X006000Y032323D01*
X006105Y032428D01*
X006105Y032971D01*
X006000Y033076D01*
X005890Y033076D01*
X005890Y034457D01*
X005919Y034428D01*
X006042Y034377D01*
X006175Y034377D01*
X006258Y034412D01*
X006376Y034411D01*
X006481Y034368D01*
X007616Y034368D01*
X007741Y034420D01*
X007837Y034515D01*
X007889Y034640D01*
X007889Y034775D01*
X007837Y034900D01*
X007830Y034908D01*
X008412Y034908D01*
X008622Y034698D01*
X008622Y033847D01*
X008097Y033322D01*
X007362Y033322D01*
X007252Y033277D01*
X006952Y032977D01*
X006867Y032892D01*
X006822Y032782D01*
X006822Y029474D01*
X006787Y029389D01*
X006787Y029256D01*
X006837Y029134D01*
X006793Y029241D02*
X005890Y029241D01*
X005890Y029359D02*
X006787Y029359D01*
X006822Y029478D02*
X005890Y029478D01*
X005890Y029596D02*
X006822Y029596D01*
X006822Y029715D02*
X005890Y029715D01*
X005890Y029833D02*
X006822Y029833D01*
X006822Y029952D02*
X005890Y029952D01*
X005890Y030070D02*
X006822Y030070D01*
X006822Y030189D02*
X005890Y030189D01*
X005890Y030307D02*
X006822Y030307D01*
X006822Y030426D02*
X005909Y030426D01*
X006010Y030544D02*
X006822Y030544D01*
X006822Y030663D02*
X006010Y030663D01*
X006010Y030781D02*
X006822Y030781D01*
X006822Y030900D02*
X006010Y030900D01*
X006010Y031018D02*
X006822Y031018D01*
X006822Y031137D02*
X006010Y031137D01*
X006010Y031255D02*
X006822Y031255D01*
X006822Y031374D02*
X006010Y031374D01*
X006010Y031492D02*
X006822Y031492D01*
X006822Y031611D02*
X005955Y031611D01*
X005890Y031729D02*
X006822Y031729D01*
X006822Y031848D02*
X005890Y031848D01*
X005890Y031966D02*
X006822Y031966D01*
X006822Y032085D02*
X005890Y032085D01*
X005890Y032203D02*
X006822Y032203D01*
X006822Y032322D02*
X005890Y032322D01*
X006105Y032440D02*
X006822Y032440D01*
X006822Y032559D02*
X006105Y032559D01*
X006105Y032677D02*
X006822Y032677D01*
X006827Y032796D02*
X006105Y032796D01*
X006105Y032914D02*
X006889Y032914D01*
X007008Y033033D02*
X006044Y033033D01*
X005890Y033151D02*
X007126Y033151D01*
X007245Y033270D02*
X005890Y033270D01*
X005890Y033388D02*
X008163Y033388D01*
X008282Y033507D02*
X005890Y033507D01*
X005890Y033625D02*
X008400Y033625D01*
X008519Y033744D02*
X005890Y033744D01*
X005890Y033862D02*
X008622Y033862D01*
X008622Y033981D02*
X005890Y033981D01*
X005890Y034099D02*
X008622Y034099D01*
X008622Y034218D02*
X005890Y034218D01*
X005890Y034336D02*
X008622Y034336D01*
X008622Y034455D02*
X007776Y034455D01*
X007861Y034573D02*
X008622Y034573D01*
X008622Y034692D02*
X007889Y034692D01*
X007874Y034810D02*
X008510Y034810D01*
X008884Y035284D02*
X010134Y035284D01*
X010134Y035166D02*
X009003Y035166D01*
X009121Y035047D02*
X010134Y035047D01*
X010134Y034929D02*
X009202Y034929D01*
X009222Y034810D02*
X010134Y034810D01*
X010134Y034692D02*
X009222Y034692D01*
X009222Y034573D02*
X010134Y034573D01*
X010134Y034455D02*
X009222Y034455D01*
X009222Y034336D02*
X010134Y034336D01*
X010134Y034218D02*
X009222Y034218D01*
X009222Y034099D02*
X010134Y034099D01*
X010134Y033981D02*
X009222Y033981D01*
X009222Y033862D02*
X010134Y033862D01*
X010134Y033744D02*
X009222Y033744D01*
X009206Y033625D02*
X010134Y033625D01*
X010134Y033507D02*
X009130Y033507D01*
X009012Y033388D02*
X010134Y033388D01*
X010134Y033270D02*
X008893Y033270D01*
X008775Y033151D02*
X010134Y033151D01*
X010134Y033033D02*
X008656Y033033D01*
X008538Y032914D02*
X010134Y032914D01*
X010134Y032796D02*
X008419Y032796D01*
X008706Y032559D02*
X010274Y032559D01*
X010170Y032677D02*
X007501Y032677D01*
X007422Y032559D02*
X007987Y032559D01*
X007764Y032440D02*
X007422Y032440D01*
X007422Y032322D02*
X007627Y032322D01*
X007519Y032203D02*
X007422Y032203D01*
X007422Y032085D02*
X007450Y032085D01*
X007422Y031137D02*
X007440Y031137D01*
X007422Y031018D02*
X007509Y031018D01*
X007422Y030900D02*
X007610Y030900D01*
X007734Y030781D02*
X007422Y030781D01*
X007422Y030663D02*
X007939Y030663D01*
X007422Y030544D02*
X011134Y030544D01*
X011134Y030426D02*
X007422Y030426D01*
X007422Y030307D02*
X011134Y030307D01*
X011134Y030189D02*
X007422Y030189D01*
X007422Y030070D02*
X011134Y030070D01*
X011134Y029952D02*
X007422Y029952D01*
X007422Y029833D02*
X011134Y029833D01*
X011134Y029715D02*
X007422Y029715D01*
X007422Y029596D02*
X011134Y029596D01*
X011134Y029478D02*
X007422Y029478D01*
X007457Y029359D02*
X011134Y029359D01*
X011134Y029241D02*
X008535Y029241D01*
X008593Y029122D02*
X011134Y029122D01*
X011134Y029004D02*
X008593Y029004D01*
X008593Y028885D02*
X011134Y028885D01*
X011134Y028767D02*
X008593Y028767D01*
X008593Y028648D02*
X011134Y028648D01*
X011117Y028530D02*
X008593Y028530D01*
X008593Y028411D02*
X010999Y028411D01*
X010276Y026752D02*
X013027Y026752D01*
X013027Y026634D02*
X010157Y026634D01*
X010039Y026515D02*
X013027Y026515D01*
X013027Y026397D02*
X009920Y026397D01*
X009802Y026278D02*
X013027Y026278D01*
X013027Y026160D02*
X009671Y026160D01*
X009460Y026041D02*
X013027Y026041D01*
X013027Y025923D02*
X009353Y025923D01*
X008877Y025923D02*
X008684Y025923D01*
X008208Y025923D02*
X008015Y025923D01*
X007613Y025804D02*
X013027Y025804D01*
X013027Y025686D02*
X007613Y025686D01*
X007613Y025567D02*
X013027Y025567D01*
X013027Y025449D02*
X007613Y025449D01*
X007614Y025330D02*
X013027Y025330D01*
X013027Y025212D02*
X007614Y025212D01*
X007615Y025093D02*
X007666Y025093D01*
X007617Y026989D02*
X007664Y026989D01*
X007617Y027108D02*
X007783Y027108D01*
X007901Y027226D02*
X007617Y027226D01*
X007618Y027345D02*
X008020Y027345D01*
X008138Y027463D02*
X007618Y027463D01*
X007618Y027582D02*
X008257Y027582D01*
X008375Y027700D02*
X007619Y027700D01*
X007619Y027819D02*
X008553Y027819D01*
X009212Y027937D02*
X007619Y027937D01*
X007620Y028056D02*
X009331Y028056D01*
X009449Y028174D02*
X007620Y028174D01*
X007620Y028293D02*
X009590Y028293D01*
X008753Y030663D02*
X011134Y030663D01*
X011134Y030781D02*
X008958Y030781D01*
X009082Y030900D02*
X011134Y030900D01*
X011134Y031018D02*
X009183Y031018D01*
X009252Y031137D02*
X011134Y031137D01*
X011134Y031255D02*
X009306Y031255D01*
X009338Y031374D02*
X011134Y031374D01*
X011134Y031492D02*
X009363Y031492D01*
X009363Y031611D02*
X011134Y031611D01*
X011103Y031729D02*
X009363Y031729D01*
X009333Y031848D02*
X010985Y031848D01*
X010866Y031966D02*
X009302Y031966D01*
X009242Y032085D02*
X010748Y032085D01*
X010629Y032203D02*
X009174Y032203D01*
X009065Y032322D02*
X010511Y032322D01*
X010392Y032440D02*
X008929Y032440D01*
X008766Y035403D02*
X010134Y035403D01*
X010134Y035521D02*
X007839Y035521D01*
X007889Y035640D02*
X010134Y035640D01*
X010134Y035758D02*
X007889Y035758D01*
X007847Y035877D02*
X010173Y035877D01*
X010283Y035995D02*
X007817Y035995D01*
X007878Y036114D02*
X010401Y036114D01*
X010520Y036232D02*
X007889Y036232D01*
X007858Y036351D02*
X010638Y036351D01*
X010757Y036469D02*
X007791Y036469D01*
X007867Y036588D02*
X010875Y036588D01*
X010994Y036706D02*
X007889Y036706D01*
X007868Y036825D02*
X011112Y036825D01*
X011231Y036943D02*
X007794Y036943D01*
X007736Y037417D02*
X013034Y037417D01*
X013034Y037299D02*
X006158Y037299D01*
X006158Y037417D02*
X006362Y037417D01*
X006252Y037536D02*
X006158Y037536D01*
X006157Y037654D02*
X006209Y037654D01*
X006209Y037773D02*
X004764Y037773D01*
X004786Y037826D02*
X004729Y037688D01*
X004623Y037582D01*
X004484Y037524D01*
X004334Y037524D01*
X004196Y037582D01*
X004090Y037688D01*
X004032Y037826D01*
X004032Y037976D01*
X004090Y038115D01*
X004196Y038221D01*
X004334Y038278D01*
X004484Y038278D01*
X004623Y038221D01*
X004729Y038115D01*
X004786Y037976D01*
X004786Y037826D01*
X004786Y037891D02*
X006250Y037891D01*
X006249Y038010D02*
X004772Y038010D01*
X004715Y038128D02*
X006248Y038128D01*
X006248Y038247D02*
X004560Y038247D01*
X004695Y037654D02*
X005169Y037654D01*
X005168Y037536D02*
X004511Y037536D01*
X004307Y037536D02*
X003615Y037536D01*
X003615Y037654D02*
X004123Y037654D01*
X004054Y037773D02*
X003615Y037773D01*
X003615Y037891D02*
X004032Y037891D01*
X004046Y038010D02*
X003615Y038010D01*
X003615Y038128D02*
X004103Y038128D01*
X004258Y038247D02*
X003615Y038247D01*
X003615Y038365D02*
X006247Y038365D01*
X006246Y038484D02*
X003615Y038484D01*
X003615Y038602D02*
X006246Y038602D01*
X006245Y038721D02*
X003615Y038721D01*
X003615Y038839D02*
X006244Y038839D01*
X006243Y038958D02*
X003615Y038958D01*
X003615Y039076D02*
X006243Y039076D01*
X006242Y039195D02*
X003615Y039195D01*
X003615Y037417D02*
X005168Y037417D01*
X005168Y037299D02*
X003615Y037299D01*
X003615Y037180D02*
X004166Y037180D01*
X004203Y037217D02*
X003913Y036927D01*
X003913Y036517D01*
X004203Y036227D01*
X004613Y036227D01*
X004903Y036517D01*
X004903Y036927D01*
X004613Y037217D01*
X004203Y037217D01*
X004047Y037062D02*
X003615Y037062D01*
X003615Y036943D02*
X003929Y036943D01*
X003913Y036825D02*
X003615Y036825D01*
X003615Y036706D02*
X003913Y036706D01*
X003913Y036588D02*
X003615Y036588D01*
X003615Y036469D02*
X003961Y036469D01*
X004080Y036351D02*
X003615Y036351D01*
X003615Y036232D02*
X004198Y036232D01*
X004618Y036232D02*
X005290Y036232D01*
X005290Y036114D02*
X003615Y036114D01*
X003615Y035995D02*
X005290Y035995D01*
X005290Y035877D02*
X003615Y035877D01*
X003615Y035758D02*
X005290Y035758D01*
X005290Y035640D02*
X003615Y035640D01*
X003615Y035521D02*
X005290Y035521D01*
X005290Y035403D02*
X003615Y035403D01*
X003615Y035284D02*
X005290Y035284D01*
X005290Y035166D02*
X003615Y035166D01*
X003615Y035047D02*
X005290Y035047D01*
X005290Y034929D02*
X003615Y034929D01*
X003615Y034810D02*
X005290Y034810D01*
X005290Y034692D02*
X003615Y034692D01*
X003615Y034573D02*
X005290Y034573D01*
X005290Y034455D02*
X003615Y034455D01*
X003615Y034336D02*
X005290Y034336D01*
X005290Y034218D02*
X003615Y034218D01*
X003615Y034099D02*
X005290Y034099D01*
X005290Y033981D02*
X004699Y033981D01*
X004614Y034065D02*
X004204Y034065D01*
X003914Y033776D01*
X003914Y033365D01*
X004204Y033075D01*
X004614Y033075D01*
X004904Y033365D01*
X004904Y033776D01*
X004614Y034065D01*
X004818Y033862D02*
X005290Y033862D01*
X005290Y033744D02*
X004904Y033744D01*
X004904Y033625D02*
X005290Y033625D01*
X005290Y033507D02*
X004904Y033507D01*
X004904Y033388D02*
X005290Y033388D01*
X005290Y033270D02*
X004808Y033270D01*
X004690Y033151D02*
X005290Y033151D01*
X005290Y033033D02*
X003615Y033033D01*
X003615Y033151D02*
X004128Y033151D01*
X004010Y033270D02*
X003615Y033270D01*
X003615Y033388D02*
X003914Y033388D01*
X003914Y033507D02*
X003615Y033507D01*
X003615Y033625D02*
X003914Y033625D01*
X003914Y033744D02*
X003615Y033744D01*
X003615Y033862D02*
X004001Y033862D01*
X004119Y033981D02*
X003615Y033981D01*
X003615Y032914D02*
X005290Y032914D01*
X005290Y032796D02*
X004703Y032796D01*
X004614Y032884D02*
X004204Y032884D01*
X003914Y032594D01*
X003914Y032184D01*
X004204Y031894D01*
X004380Y031894D01*
X004380Y031661D01*
X004366Y031661D01*
X004260Y031555D01*
X004260Y030526D01*
X004366Y030421D01*
X004995Y030421D01*
X005100Y030526D01*
X005100Y031555D01*
X004995Y031661D01*
X004980Y031661D01*
X004980Y032178D01*
X004935Y032288D01*
X004904Y032319D01*
X004904Y032594D01*
X004614Y032884D01*
X004821Y032677D02*
X005290Y032677D01*
X005290Y032559D02*
X004904Y032559D01*
X004904Y032440D02*
X005290Y032440D01*
X005290Y032322D02*
X004904Y032322D01*
X004970Y032203D02*
X005290Y032203D01*
X005290Y032085D02*
X004980Y032085D01*
X004980Y031966D02*
X005290Y031966D01*
X005290Y031848D02*
X004980Y031848D01*
X004980Y031729D02*
X005290Y031729D01*
X005225Y031611D02*
X005045Y031611D01*
X005100Y031492D02*
X005170Y031492D01*
X005170Y031374D02*
X005100Y031374D01*
X005100Y031255D02*
X005170Y031255D01*
X005170Y031137D02*
X005100Y031137D01*
X005100Y031018D02*
X005170Y031018D01*
X005170Y030900D02*
X005100Y030900D01*
X005100Y030781D02*
X005170Y030781D01*
X005170Y030663D02*
X005100Y030663D01*
X005100Y030544D02*
X005170Y030544D01*
X005271Y030426D02*
X004999Y030426D01*
X005290Y030307D02*
X003615Y030307D01*
X003615Y030189D02*
X005290Y030189D01*
X005290Y030070D02*
X003615Y030070D01*
X003615Y029952D02*
X005290Y029952D01*
X005290Y029833D02*
X003615Y029833D01*
X003615Y029715D02*
X005290Y029715D01*
X005290Y029596D02*
X003615Y029596D01*
X003615Y029478D02*
X005290Y029478D01*
X005290Y029359D02*
X003615Y029359D01*
X003615Y029241D02*
X005290Y029241D01*
X004739Y028056D02*
X003615Y028056D01*
X003615Y028174D02*
X004702Y028174D01*
X004702Y028293D02*
X003615Y028293D01*
X003615Y028411D02*
X004702Y028411D01*
X004702Y028530D02*
X003615Y028530D01*
X003615Y028648D02*
X004702Y028648D01*
X004702Y028767D02*
X003615Y028767D01*
X003615Y028885D02*
X004702Y028885D01*
X004702Y029004D02*
X003615Y029004D01*
X003615Y029122D02*
X004715Y029122D01*
X004361Y030426D02*
X003615Y030426D01*
X003615Y030544D02*
X004260Y030544D01*
X004260Y030663D02*
X003615Y030663D01*
X003615Y030781D02*
X004260Y030781D01*
X004260Y030900D02*
X003615Y030900D01*
X003615Y031018D02*
X004260Y031018D01*
X004260Y031137D02*
X003615Y031137D01*
X003615Y031255D02*
X004260Y031255D01*
X004260Y031374D02*
X003615Y031374D01*
X003615Y031492D02*
X004260Y031492D01*
X004315Y031611D02*
X003615Y031611D01*
X003615Y031729D02*
X004380Y031729D01*
X004380Y031848D02*
X003615Y031848D01*
X003615Y031966D02*
X004132Y031966D01*
X004014Y032085D02*
X003615Y032085D01*
X003615Y032203D02*
X003914Y032203D01*
X003914Y032322D02*
X003615Y032322D01*
X003615Y032440D02*
X003914Y032440D01*
X003914Y032559D02*
X003615Y032559D01*
X003615Y032677D02*
X003997Y032677D01*
X004115Y032796D02*
X003615Y032796D01*
X004736Y036351D02*
X005290Y036351D01*
X005290Y036469D02*
X004855Y036469D01*
X004903Y036588D02*
X005290Y036588D01*
X005285Y036706D02*
X004903Y036706D01*
X004903Y036825D02*
X005290Y036825D01*
X005177Y036943D02*
X004887Y036943D01*
X004769Y037062D02*
X005168Y037062D01*
X005168Y037180D02*
X004650Y037180D01*
X005890Y034455D02*
X005893Y034455D01*
X006473Y032027D02*
X006506Y031995D01*
X006483Y032027D02*
X006473Y032027D01*
X007450Y029241D02*
X007739Y029241D01*
X007681Y028411D02*
X007621Y028411D01*
X008885Y022368D02*
X009640Y022368D01*
X009624Y022249D02*
X008885Y022249D01*
X008871Y022131D02*
X009624Y022131D01*
X010198Y023079D02*
X011126Y023079D01*
X010952Y023671D02*
X010513Y023671D01*
X010394Y023790D02*
X010952Y023790D01*
X010952Y023908D02*
X010362Y023908D01*
X010362Y024027D02*
X010952Y024027D01*
X011012Y024145D02*
X010362Y024145D01*
X010369Y024264D02*
X011602Y024264D01*
X012384Y022249D02*
X013025Y022249D01*
X013025Y022131D02*
X012384Y022131D01*
X012384Y022012D02*
X013025Y022012D01*
X013025Y021894D02*
X012384Y021894D01*
X012384Y021775D02*
X013025Y021775D01*
X013024Y021657D02*
X012288Y021657D01*
X012384Y019879D02*
X013023Y019879D01*
X013023Y019761D02*
X012384Y019761D01*
X012384Y019642D02*
X013023Y019642D01*
X013023Y019524D02*
X012369Y019524D01*
X012370Y019405D02*
X013023Y019405D01*
X013023Y019287D02*
X012325Y019287D01*
X012214Y019168D02*
X013023Y019168D01*
X013023Y019050D02*
X012186Y019050D01*
X012127Y018931D02*
X013023Y018931D01*
X013023Y018813D02*
X011950Y018813D01*
X011771Y018813D02*
X008842Y018813D01*
X008842Y018931D02*
X011594Y018931D01*
X011534Y019050D02*
X008810Y019050D01*
X008842Y018694D02*
X013023Y018694D01*
X013023Y018576D02*
X008842Y018576D01*
X008842Y018457D02*
X013023Y018457D01*
X013022Y018339D02*
X008842Y018339D01*
X008558Y019168D02*
X011525Y019168D01*
X011559Y019287D02*
X009184Y019287D01*
X009201Y019405D02*
X011654Y019405D01*
X011889Y019524D02*
X009201Y019524D01*
X009201Y019642D02*
X009625Y019642D01*
X009879Y019942D02*
X009879Y019945D01*
X010379Y019942D02*
X010629Y019942D01*
X010879Y019942D01*
X010882Y019945D01*
X010646Y020827D02*
X010606Y020827D01*
X010483Y020946D02*
X010765Y020946D01*
X010883Y021064D02*
X010361Y021064D01*
X010788Y021657D02*
X010970Y021657D01*
X010308Y023197D02*
X010272Y023197D01*
X011907Y026871D02*
X013028Y026871D01*
X013028Y026989D02*
X012025Y026989D01*
X011989Y026953D02*
X011989Y026953D01*
X012144Y027108D02*
X013028Y027108D01*
X013028Y027226D02*
X012262Y027226D01*
X012381Y027345D02*
X013028Y027345D01*
X013028Y027463D02*
X012499Y027463D01*
X012601Y027582D02*
X013028Y027582D01*
X013028Y027700D02*
X012634Y027700D01*
X012634Y027819D02*
X013028Y027819D01*
X013028Y027937D02*
X012634Y027937D01*
X012634Y028056D02*
X013028Y028056D01*
X013028Y028174D02*
X012634Y028174D01*
X012634Y028293D02*
X013028Y028293D01*
X013028Y028411D02*
X012634Y028411D01*
X012634Y028530D02*
X013028Y028530D01*
X013029Y028648D02*
X012634Y028648D01*
X012634Y028767D02*
X013029Y028767D01*
X013029Y028885D02*
X012634Y028885D01*
X012634Y029004D02*
X013029Y029004D01*
X013029Y029122D02*
X012634Y029122D01*
X012634Y029241D02*
X013029Y029241D01*
X013029Y029359D02*
X012634Y029359D01*
X012634Y029478D02*
X013029Y029478D01*
X013029Y029596D02*
X012634Y029596D01*
X012634Y029715D02*
X013029Y029715D01*
X013029Y029833D02*
X012634Y029833D01*
X012634Y029952D02*
X013029Y029952D01*
X013029Y030070D02*
X012634Y030070D01*
X012634Y030189D02*
X013029Y030189D01*
X013030Y030307D02*
X012634Y030307D01*
X012634Y030426D02*
X013030Y030426D01*
X013030Y030544D02*
X012634Y030544D01*
X012634Y030663D02*
X013030Y030663D01*
X013030Y030781D02*
X012634Y030781D01*
X012634Y030900D02*
X013030Y030900D01*
X013030Y031018D02*
X012634Y031018D01*
X012634Y031137D02*
X013030Y031137D01*
X013030Y031255D02*
X012634Y031255D01*
X012634Y031374D02*
X013030Y031374D01*
X013030Y031492D02*
X012634Y031492D01*
X012634Y031611D02*
X013030Y031611D01*
X013030Y031729D02*
X012634Y031729D01*
X012634Y031848D02*
X013030Y031848D01*
X013031Y031966D02*
X012634Y031966D01*
X012634Y032085D02*
X013031Y032085D01*
X013031Y032203D02*
X012634Y032203D01*
X012634Y032322D02*
X013031Y032322D01*
X013031Y032440D02*
X012634Y032440D01*
X012603Y032559D02*
X013031Y032559D01*
X013031Y032677D02*
X012504Y032677D01*
X012385Y032796D02*
X013031Y032796D01*
X013031Y032914D02*
X012267Y032914D01*
X012148Y033033D02*
X013031Y033033D01*
X013031Y033151D02*
X012030Y033151D01*
X011911Y033270D02*
X013031Y033270D01*
X013031Y033388D02*
X011793Y033388D01*
X011734Y033507D02*
X013031Y033507D01*
X013031Y033625D02*
X011734Y033625D01*
X011734Y033744D02*
X013032Y033744D01*
X013032Y033862D02*
X011734Y033862D01*
X011734Y033981D02*
X013032Y033981D01*
X013032Y034099D02*
X011734Y034099D01*
X011734Y034218D02*
X013032Y034218D01*
X013032Y034336D02*
X011734Y034336D01*
X013034Y037062D02*
X006158Y037062D01*
X006158Y037180D02*
X013034Y037180D01*
X007116Y037048D02*
X007116Y037048D01*
X004877Y025093D02*
X003615Y025093D01*
X003615Y024975D02*
X004759Y024975D01*
X004702Y024856D02*
X003615Y024856D01*
X003615Y024738D02*
X004702Y024738D01*
X004702Y024619D02*
X003615Y024619D01*
X003615Y024501D02*
X004708Y024501D01*
X004827Y024382D02*
X003615Y024382D01*
X003615Y024264D02*
X004945Y024264D01*
X004484Y018199D02*
X004334Y018199D01*
X004196Y018142D01*
X004090Y018036D01*
X004032Y017897D01*
X004032Y017747D01*
X004090Y017609D01*
X004196Y017503D01*
X004334Y017446D01*
X004484Y017446D01*
X004623Y017503D01*
X004729Y017609D01*
X004786Y017747D01*
X004786Y017897D01*
X004729Y018036D01*
X004623Y018142D01*
X004484Y018199D01*
X004663Y018102D02*
X012029Y018102D01*
X012070Y018142D02*
X011964Y018036D01*
X011906Y017897D01*
X011906Y017747D01*
X011964Y017609D01*
X012070Y017503D01*
X012208Y017446D01*
X012358Y017446D01*
X012497Y017503D01*
X012603Y017609D01*
X012660Y017747D01*
X012660Y017897D01*
X012603Y018036D01*
X012497Y018142D01*
X012358Y018199D01*
X012208Y018199D01*
X012070Y018142D01*
X011942Y017983D02*
X004750Y017983D01*
X004786Y017865D02*
X011906Y017865D01*
X011907Y017746D02*
X004785Y017746D01*
X004736Y017628D02*
X011956Y017628D01*
X012064Y017509D02*
X004629Y017509D01*
X004190Y017509D02*
X003615Y017509D01*
X003615Y017391D02*
X013022Y017391D01*
X013022Y017509D02*
X012503Y017509D01*
X012610Y017628D02*
X013022Y017628D01*
X013022Y017746D02*
X012659Y017746D01*
X012660Y017865D02*
X013022Y017865D01*
X013022Y017983D02*
X012625Y017983D01*
X012537Y018102D02*
X013022Y018102D01*
X013022Y018220D02*
X003615Y018220D01*
X003615Y018102D02*
X004155Y018102D01*
X004068Y017983D02*
X003615Y017983D01*
X003615Y017865D02*
X004032Y017865D01*
X004033Y017746D02*
X003615Y017746D01*
X003615Y017628D02*
X004082Y017628D01*
X003615Y017272D02*
X013022Y017272D01*
D35*
X010129Y019942D02*
X010129Y020127D01*
X010122Y020135D01*
X010122Y020235D01*
X009922Y020435D01*
X008862Y020435D01*
X008822Y020395D01*
X009081Y019940D02*
X009879Y019942D01*
X009879Y019943D02*
X009876Y019942D01*
X009874Y019940D01*
X009873Y019937D01*
X009081Y019940D02*
X008824Y019595D01*
X008329Y019410D02*
X008327Y018677D01*
X008071Y018677D02*
X008067Y018682D01*
X008067Y019074D01*
X007691Y019399D01*
X007694Y020128D01*
X007981Y020395D01*
X008153Y020395D01*
X008155Y019595D02*
X008329Y019410D01*
X007840Y018907D02*
X007840Y018702D01*
X007815Y018677D01*
D36*
X006108Y036220D03*
M02*
