G75*
%MOIN*%
%OFA0B0*%
%FSLAX24Y24*%
%IPPOS*%
%LPD*%
%AMOC8*
5,1,8,0,0,1.08239X$1,22.5*
%
%ADD10C,0.0000*%
%ADD11C,0.0520*%
%ADD12OC8,0.0520*%
%ADD13R,0.0394X0.0433*%
%ADD14C,0.0574*%
%ADD15C,0.0160*%
%ADD16C,0.0120*%
%ADD17C,0.0396*%
D10*
X003160Y002662D02*
X018329Y002662D01*
X018727Y004662D02*
X018729Y004703D01*
X018735Y004744D01*
X018745Y004784D01*
X018758Y004823D01*
X018775Y004860D01*
X018796Y004896D01*
X018820Y004930D01*
X018847Y004961D01*
X018876Y004989D01*
X018909Y005015D01*
X018943Y005037D01*
X018980Y005056D01*
X019018Y005071D01*
X019058Y005083D01*
X019098Y005091D01*
X019139Y005095D01*
X019181Y005095D01*
X019222Y005091D01*
X019262Y005083D01*
X019302Y005071D01*
X019340Y005056D01*
X019376Y005037D01*
X019411Y005015D01*
X019444Y004989D01*
X019473Y004961D01*
X019500Y004930D01*
X019524Y004896D01*
X019545Y004860D01*
X019562Y004823D01*
X019575Y004784D01*
X019585Y004744D01*
X019591Y004703D01*
X019593Y004662D01*
X019591Y004621D01*
X019585Y004580D01*
X019575Y004540D01*
X019562Y004501D01*
X019545Y004464D01*
X019524Y004428D01*
X019500Y004394D01*
X019473Y004363D01*
X019444Y004335D01*
X019411Y004309D01*
X019377Y004287D01*
X019340Y004268D01*
X019302Y004253D01*
X019262Y004241D01*
X019222Y004233D01*
X019181Y004229D01*
X019139Y004229D01*
X019098Y004233D01*
X019058Y004241D01*
X019018Y004253D01*
X018980Y004268D01*
X018944Y004287D01*
X018909Y004309D01*
X018876Y004335D01*
X018847Y004363D01*
X018820Y004394D01*
X018796Y004428D01*
X018775Y004464D01*
X018758Y004501D01*
X018745Y004540D01*
X018735Y004580D01*
X018729Y004621D01*
X018727Y004662D01*
X018329Y002662D02*
X018435Y002664D01*
X018540Y002670D01*
X018645Y002680D01*
X018750Y002694D01*
X018854Y002711D01*
X018957Y002733D01*
X019060Y002758D01*
X019161Y002787D01*
X019261Y002820D01*
X019360Y002857D01*
X019458Y002898D01*
X019554Y002942D01*
X019648Y002989D01*
X019740Y003040D01*
X019831Y003095D01*
X019919Y003153D01*
X020005Y003214D01*
X020089Y003278D01*
X020170Y003345D01*
X020249Y003416D01*
X020325Y003489D01*
X020398Y003565D01*
X020469Y003644D01*
X020536Y003725D01*
X020600Y003809D01*
X020661Y003895D01*
X020719Y003983D01*
X020774Y004073D01*
X020825Y004166D01*
X020872Y004260D01*
X020916Y004356D01*
X020957Y004454D01*
X020994Y004553D01*
X021027Y004653D01*
X021056Y004754D01*
X021081Y004857D01*
X021103Y004960D01*
X021120Y005064D01*
X021134Y005169D01*
X021144Y005274D01*
X021150Y005379D01*
X021152Y005485D01*
X021152Y015916D01*
X018727Y017662D02*
X018729Y017703D01*
X018735Y017744D01*
X018745Y017784D01*
X018758Y017823D01*
X018775Y017860D01*
X018796Y017896D01*
X018820Y017930D01*
X018847Y017961D01*
X018876Y017989D01*
X018909Y018015D01*
X018943Y018037D01*
X018980Y018056D01*
X019018Y018071D01*
X019058Y018083D01*
X019098Y018091D01*
X019139Y018095D01*
X019181Y018095D01*
X019222Y018091D01*
X019262Y018083D01*
X019302Y018071D01*
X019340Y018056D01*
X019376Y018037D01*
X019411Y018015D01*
X019444Y017989D01*
X019473Y017961D01*
X019500Y017930D01*
X019524Y017896D01*
X019545Y017860D01*
X019562Y017823D01*
X019575Y017784D01*
X019585Y017744D01*
X019591Y017703D01*
X019593Y017662D01*
X019591Y017621D01*
X019585Y017580D01*
X019575Y017540D01*
X019562Y017501D01*
X019545Y017464D01*
X019524Y017428D01*
X019500Y017394D01*
X019473Y017363D01*
X019444Y017335D01*
X019411Y017309D01*
X019377Y017287D01*
X019340Y017268D01*
X019302Y017253D01*
X019262Y017241D01*
X019222Y017233D01*
X019181Y017229D01*
X019139Y017229D01*
X019098Y017233D01*
X019058Y017241D01*
X019018Y017253D01*
X018980Y017268D01*
X018944Y017287D01*
X018909Y017309D01*
X018876Y017335D01*
X018847Y017363D01*
X018820Y017394D01*
X018796Y017428D01*
X018775Y017464D01*
X018758Y017501D01*
X018745Y017540D01*
X018735Y017580D01*
X018729Y017621D01*
X018727Y017662D01*
X018036Y019032D02*
X003398Y019032D01*
X002227Y017662D02*
X002229Y017703D01*
X002235Y017744D01*
X002245Y017784D01*
X002258Y017823D01*
X002275Y017860D01*
X002296Y017896D01*
X002320Y017930D01*
X002347Y017961D01*
X002376Y017989D01*
X002409Y018015D01*
X002443Y018037D01*
X002480Y018056D01*
X002518Y018071D01*
X002558Y018083D01*
X002598Y018091D01*
X002639Y018095D01*
X002681Y018095D01*
X002722Y018091D01*
X002762Y018083D01*
X002802Y018071D01*
X002840Y018056D01*
X002876Y018037D01*
X002911Y018015D01*
X002944Y017989D01*
X002973Y017961D01*
X003000Y017930D01*
X003024Y017896D01*
X003045Y017860D01*
X003062Y017823D01*
X003075Y017784D01*
X003085Y017744D01*
X003091Y017703D01*
X003093Y017662D01*
X003091Y017621D01*
X003085Y017580D01*
X003075Y017540D01*
X003062Y017501D01*
X003045Y017464D01*
X003024Y017428D01*
X003000Y017394D01*
X002973Y017363D01*
X002944Y017335D01*
X002911Y017309D01*
X002877Y017287D01*
X002840Y017268D01*
X002802Y017253D01*
X002762Y017241D01*
X002722Y017233D01*
X002681Y017229D01*
X002639Y017229D01*
X002598Y017233D01*
X002558Y017241D01*
X002518Y017253D01*
X002480Y017268D01*
X002444Y017287D01*
X002409Y017309D01*
X002376Y017335D01*
X002347Y017363D01*
X002320Y017394D01*
X002296Y017428D01*
X002275Y017464D01*
X002258Y017501D01*
X002245Y017540D01*
X002235Y017580D01*
X002229Y017621D01*
X002227Y017662D01*
X003398Y019032D02*
X003296Y019030D01*
X003193Y019024D01*
X003091Y019015D01*
X002990Y019001D01*
X002889Y018984D01*
X002789Y018963D01*
X002689Y018939D01*
X002591Y018910D01*
X002494Y018878D01*
X002398Y018843D01*
X002303Y018804D01*
X002210Y018761D01*
X002119Y018715D01*
X002029Y018665D01*
X001941Y018612D01*
X001856Y018556D01*
X001772Y018497D01*
X001691Y018435D01*
X001612Y018369D01*
X001536Y018301D01*
X001462Y018230D01*
X001391Y018156D01*
X001323Y018080D01*
X001257Y018001D01*
X001195Y017920D01*
X001136Y017836D01*
X001080Y017751D01*
X001027Y017663D01*
X000977Y017573D01*
X000931Y017482D01*
X000888Y017389D01*
X000849Y017294D01*
X000814Y017198D01*
X000782Y017101D01*
X000753Y017003D01*
X000729Y016903D01*
X000708Y016803D01*
X000691Y016702D01*
X000677Y016601D01*
X000668Y016499D01*
X000662Y016396D01*
X000660Y016294D01*
X000660Y005162D01*
X002227Y004662D02*
X002229Y004703D01*
X002235Y004744D01*
X002245Y004784D01*
X002258Y004823D01*
X002275Y004860D01*
X002296Y004896D01*
X002320Y004930D01*
X002347Y004961D01*
X002376Y004989D01*
X002409Y005015D01*
X002443Y005037D01*
X002480Y005056D01*
X002518Y005071D01*
X002558Y005083D01*
X002598Y005091D01*
X002639Y005095D01*
X002681Y005095D01*
X002722Y005091D01*
X002762Y005083D01*
X002802Y005071D01*
X002840Y005056D01*
X002876Y005037D01*
X002911Y005015D01*
X002944Y004989D01*
X002973Y004961D01*
X003000Y004930D01*
X003024Y004896D01*
X003045Y004860D01*
X003062Y004823D01*
X003075Y004784D01*
X003085Y004744D01*
X003091Y004703D01*
X003093Y004662D01*
X003091Y004621D01*
X003085Y004580D01*
X003075Y004540D01*
X003062Y004501D01*
X003045Y004464D01*
X003024Y004428D01*
X003000Y004394D01*
X002973Y004363D01*
X002944Y004335D01*
X002911Y004309D01*
X002877Y004287D01*
X002840Y004268D01*
X002802Y004253D01*
X002762Y004241D01*
X002722Y004233D01*
X002681Y004229D01*
X002639Y004229D01*
X002598Y004233D01*
X002558Y004241D01*
X002518Y004253D01*
X002480Y004268D01*
X002444Y004287D01*
X002409Y004309D01*
X002376Y004335D01*
X002347Y004363D01*
X002320Y004394D01*
X002296Y004428D01*
X002275Y004464D01*
X002258Y004501D01*
X002245Y004540D01*
X002235Y004580D01*
X002229Y004621D01*
X002227Y004662D01*
X000660Y005162D02*
X000662Y005064D01*
X000668Y004966D01*
X000677Y004868D01*
X000691Y004771D01*
X000708Y004674D01*
X000729Y004578D01*
X000754Y004483D01*
X000782Y004389D01*
X000815Y004297D01*
X000850Y004205D01*
X000890Y004115D01*
X000932Y004027D01*
X000979Y003940D01*
X001028Y003856D01*
X001081Y003773D01*
X001137Y003693D01*
X001197Y003614D01*
X001259Y003538D01*
X001324Y003465D01*
X001392Y003394D01*
X001463Y003326D01*
X001536Y003261D01*
X001612Y003199D01*
X001691Y003139D01*
X001771Y003083D01*
X001854Y003030D01*
X001938Y002981D01*
X002025Y002934D01*
X002113Y002892D01*
X002203Y002852D01*
X002295Y002817D01*
X002387Y002784D01*
X002481Y002756D01*
X002576Y002731D01*
X002672Y002710D01*
X002769Y002693D01*
X002866Y002679D01*
X002964Y002670D01*
X003062Y002664D01*
X003160Y002662D01*
X007620Y004162D02*
X007622Y004204D01*
X007628Y004246D01*
X007638Y004288D01*
X007651Y004328D01*
X007669Y004367D01*
X007690Y004404D01*
X007714Y004438D01*
X007742Y004471D01*
X007772Y004501D01*
X007805Y004527D01*
X007840Y004551D01*
X007878Y004571D01*
X007917Y004587D01*
X007957Y004600D01*
X007999Y004609D01*
X008041Y004614D01*
X008084Y004615D01*
X008126Y004612D01*
X008168Y004605D01*
X008209Y004594D01*
X008249Y004579D01*
X008287Y004561D01*
X008324Y004539D01*
X008358Y004514D01*
X008390Y004486D01*
X008418Y004455D01*
X008444Y004421D01*
X008467Y004385D01*
X008486Y004348D01*
X008502Y004308D01*
X008514Y004267D01*
X008522Y004226D01*
X008526Y004183D01*
X008526Y004141D01*
X008522Y004098D01*
X008514Y004057D01*
X008502Y004016D01*
X008486Y003976D01*
X008467Y003939D01*
X008444Y003903D01*
X008418Y003869D01*
X008390Y003838D01*
X008358Y003810D01*
X008324Y003785D01*
X008287Y003763D01*
X008249Y003745D01*
X008209Y003730D01*
X008168Y003719D01*
X008126Y003712D01*
X008084Y003709D01*
X008041Y003710D01*
X007999Y003715D01*
X007957Y003724D01*
X007917Y003737D01*
X007878Y003753D01*
X007840Y003773D01*
X007805Y003797D01*
X007772Y003823D01*
X007742Y003853D01*
X007714Y003886D01*
X007690Y003920D01*
X007669Y003957D01*
X007651Y003996D01*
X007638Y004036D01*
X007628Y004078D01*
X007622Y004120D01*
X007620Y004162D01*
X012794Y004162D02*
X012796Y004204D01*
X012802Y004246D01*
X012812Y004288D01*
X012825Y004328D01*
X012843Y004367D01*
X012864Y004404D01*
X012888Y004438D01*
X012916Y004471D01*
X012946Y004501D01*
X012979Y004527D01*
X013014Y004551D01*
X013052Y004571D01*
X013091Y004587D01*
X013131Y004600D01*
X013173Y004609D01*
X013215Y004614D01*
X013258Y004615D01*
X013300Y004612D01*
X013342Y004605D01*
X013383Y004594D01*
X013423Y004579D01*
X013461Y004561D01*
X013498Y004539D01*
X013532Y004514D01*
X013564Y004486D01*
X013592Y004455D01*
X013618Y004421D01*
X013641Y004385D01*
X013660Y004348D01*
X013676Y004308D01*
X013688Y004267D01*
X013696Y004226D01*
X013700Y004183D01*
X013700Y004141D01*
X013696Y004098D01*
X013688Y004057D01*
X013676Y004016D01*
X013660Y003976D01*
X013641Y003939D01*
X013618Y003903D01*
X013592Y003869D01*
X013564Y003838D01*
X013532Y003810D01*
X013498Y003785D01*
X013461Y003763D01*
X013423Y003745D01*
X013383Y003730D01*
X013342Y003719D01*
X013300Y003712D01*
X013258Y003709D01*
X013215Y003710D01*
X013173Y003715D01*
X013131Y003724D01*
X013091Y003737D01*
X013052Y003753D01*
X013014Y003773D01*
X012979Y003797D01*
X012946Y003823D01*
X012916Y003853D01*
X012888Y003886D01*
X012864Y003920D01*
X012843Y003957D01*
X012825Y003996D01*
X012812Y004036D01*
X012802Y004078D01*
X012796Y004120D01*
X012794Y004162D01*
X021152Y015916D02*
X021150Y016027D01*
X021144Y016138D01*
X021134Y016249D01*
X021120Y016359D01*
X021102Y016469D01*
X021081Y016578D01*
X021055Y016687D01*
X021026Y016794D01*
X020993Y016900D01*
X020956Y017005D01*
X020915Y017108D01*
X020870Y017210D01*
X020822Y017311D01*
X020771Y017409D01*
X020716Y017506D01*
X020657Y017601D01*
X020596Y017693D01*
X020530Y017783D01*
X020462Y017871D01*
X020391Y017957D01*
X020317Y018039D01*
X020239Y018119D01*
X020159Y018197D01*
X020077Y018271D01*
X019991Y018342D01*
X019903Y018410D01*
X019813Y018476D01*
X019721Y018537D01*
X019626Y018596D01*
X019529Y018651D01*
X019431Y018702D01*
X019330Y018750D01*
X019228Y018795D01*
X019125Y018836D01*
X019020Y018873D01*
X018914Y018906D01*
X018807Y018935D01*
X018698Y018961D01*
X018589Y018982D01*
X018479Y019000D01*
X018369Y019014D01*
X018258Y019024D01*
X018147Y019030D01*
X018036Y019032D01*
D11*
X012920Y013162D02*
X012400Y013162D01*
X012400Y012162D02*
X012920Y012162D01*
X012920Y011162D02*
X012400Y011162D01*
X012400Y010162D02*
X012920Y010162D01*
X009920Y010162D02*
X009400Y010162D01*
X009400Y011162D02*
X009920Y011162D01*
X009920Y012162D02*
X009400Y012162D01*
X009400Y013162D02*
X009920Y013162D01*
D12*
X009660Y016162D03*
X012660Y016162D03*
X004160Y013662D03*
X004160Y010662D03*
D13*
X015660Y012327D03*
X015660Y012996D03*
X017660Y012996D03*
X017660Y012327D03*
D14*
X012038Y005516D02*
X012038Y004942D01*
X011054Y004942D02*
X011054Y005516D01*
X010266Y005516D02*
X010266Y004942D01*
X009282Y004942D02*
X009282Y005516D01*
D15*
X009282Y005229D02*
X009282Y003540D01*
X009660Y003162D01*
X016660Y003162D01*
X017660Y004162D01*
X017660Y010162D01*
X018660Y011162D01*
X018660Y012540D01*
X018206Y012994D01*
X017663Y012994D01*
X017660Y012996D01*
X015660Y012996D01*
X014325Y012996D01*
X013660Y013662D01*
X010660Y013662D01*
X010160Y013162D01*
X009660Y013162D01*
X009160Y012662D02*
X008660Y013162D01*
X008660Y013662D01*
X009160Y014162D01*
X010660Y014162D01*
X011160Y014662D01*
X011160Y016662D01*
X010660Y017162D01*
X005660Y017162D01*
X003160Y014662D01*
X003160Y011662D01*
X004160Y010662D01*
X004660Y010162D01*
X009660Y010162D01*
X011160Y010162D01*
X012038Y009284D01*
X012038Y005229D01*
X011054Y005229D02*
X011054Y004268D01*
X011660Y003662D01*
X012160Y003662D01*
X012660Y004162D01*
X012660Y009162D01*
X010660Y011162D01*
X009660Y011162D01*
X009660Y012162D02*
X004660Y012162D01*
X004160Y012662D01*
X004160Y013662D01*
X004160Y014662D01*
X005660Y016162D01*
X009660Y016162D01*
X012660Y016162D02*
X013660Y015162D01*
X012660Y013162D02*
X011160Y013162D01*
X010660Y012662D01*
X009160Y012662D01*
X009660Y012162D02*
X011160Y012162D01*
X012160Y011162D01*
X012660Y011162D01*
X012660Y012162D02*
X013248Y012308D01*
X013325Y012327D01*
X015660Y012327D01*
X015160Y011662D02*
X014660Y011162D01*
X014660Y010662D01*
X014160Y010162D01*
X012660Y010162D01*
X015160Y011662D02*
X016160Y011662D01*
X016825Y012327D01*
X017660Y012327D01*
D16*
X017303Y012087D02*
X017303Y012044D01*
X017397Y011951D01*
X017923Y011951D01*
X018017Y012044D01*
X018017Y012610D01*
X017965Y012662D01*
X017985Y012682D01*
X018006Y012718D01*
X018017Y012759D01*
X018017Y012958D01*
X017698Y012958D01*
X017698Y013035D01*
X017622Y013035D01*
X017622Y013373D01*
X017442Y013373D01*
X017401Y013362D01*
X017365Y013341D01*
X017335Y013311D01*
X017314Y013275D01*
X017303Y013234D01*
X017303Y013035D01*
X017622Y013035D01*
X017622Y012958D01*
X017303Y012958D01*
X017303Y012759D01*
X017314Y012718D01*
X017335Y012682D01*
X017355Y012662D01*
X017303Y012610D01*
X017303Y012567D01*
X016778Y012567D01*
X016689Y012531D01*
X016061Y011902D01*
X015112Y011902D01*
X015024Y011865D01*
X014524Y011365D01*
X014457Y011298D01*
X014420Y011210D01*
X014420Y010761D01*
X014061Y010402D01*
X013274Y010402D01*
X013158Y010518D01*
X013004Y010582D01*
X012316Y010582D01*
X012162Y010518D01*
X012044Y010400D01*
X011980Y010245D01*
X011980Y010181D01*
X010863Y011298D01*
X010796Y011365D01*
X010708Y011402D01*
X010274Y011402D01*
X010158Y011518D01*
X010004Y011582D01*
X009316Y011582D01*
X009162Y011518D01*
X009044Y011400D01*
X008980Y011245D01*
X008980Y011078D01*
X009044Y010924D01*
X009162Y010806D01*
X009316Y010742D01*
X010004Y010742D01*
X010158Y010806D01*
X010274Y010922D01*
X010561Y010922D01*
X011081Y010402D01*
X010274Y010402D01*
X010158Y010518D01*
X010004Y010582D01*
X009316Y010582D01*
X009162Y010518D01*
X009046Y010402D01*
X004759Y010402D01*
X004580Y010581D01*
X004580Y010836D01*
X004334Y011082D01*
X004079Y011082D01*
X003400Y011761D01*
X003400Y014562D01*
X005759Y016922D01*
X010561Y016922D01*
X010920Y016562D01*
X010920Y014761D01*
X010561Y014402D01*
X009112Y014402D01*
X009024Y014365D01*
X008957Y014298D01*
X008457Y013798D01*
X008420Y013710D01*
X008420Y013114D01*
X008457Y013026D01*
X008524Y012958D01*
X009024Y012458D01*
X009080Y012435D01*
X009046Y012402D01*
X004759Y012402D01*
X004400Y012761D01*
X004400Y013308D01*
X004580Y013488D01*
X004580Y013836D01*
X004400Y014016D01*
X004400Y014562D01*
X005759Y015922D01*
X009306Y015922D01*
X009486Y015742D01*
X009834Y015742D01*
X010080Y015988D01*
X010080Y016336D01*
X009834Y016582D01*
X009486Y016582D01*
X009306Y016402D01*
X005612Y016402D01*
X005524Y016365D01*
X005457Y016298D01*
X003957Y014798D01*
X003920Y014710D01*
X003920Y014016D01*
X003740Y013836D01*
X003740Y013488D01*
X003920Y013308D01*
X003920Y012614D01*
X003957Y012526D01*
X004024Y012458D01*
X004524Y011958D01*
X004612Y011922D01*
X009046Y011922D01*
X009162Y011806D01*
X009316Y011742D01*
X010004Y011742D01*
X010158Y011806D01*
X010274Y011922D01*
X011061Y011922D01*
X012024Y010958D01*
X012031Y010956D01*
X012044Y010924D01*
X012162Y010806D01*
X012316Y010742D01*
X013004Y010742D01*
X013158Y010806D01*
X013276Y010924D01*
X013340Y011078D01*
X013340Y011245D01*
X013276Y011400D01*
X013158Y011518D01*
X013004Y011582D01*
X012316Y011582D01*
X012162Y011518D01*
X012153Y011508D01*
X011363Y012298D01*
X011296Y012365D01*
X011208Y012402D01*
X010274Y012402D01*
X010254Y012422D01*
X010708Y012422D01*
X010796Y012458D01*
X010863Y012526D01*
X011259Y012922D01*
X012046Y012922D01*
X012162Y012806D01*
X012316Y012742D01*
X013004Y012742D01*
X013158Y012806D01*
X013276Y012924D01*
X013340Y013078D01*
X013340Y013245D01*
X013276Y013400D01*
X013158Y013518D01*
X013004Y013582D01*
X012316Y013582D01*
X012162Y013518D01*
X012046Y013402D01*
X011112Y013402D01*
X011024Y013365D01*
X010561Y012902D01*
X010250Y012902D01*
X010279Y012942D01*
X010309Y013001D01*
X010330Y013063D01*
X010340Y013129D01*
X010340Y013142D01*
X009680Y013142D01*
X009680Y013182D01*
X009640Y013182D01*
X009640Y013582D01*
X009367Y013582D01*
X009302Y013571D01*
X009239Y013551D01*
X009180Y013521D01*
X009126Y013482D01*
X009080Y013435D01*
X009041Y013382D01*
X009011Y013323D01*
X008990Y013260D01*
X008980Y013195D01*
X008980Y013182D01*
X009640Y013182D01*
X009640Y013142D01*
X009019Y013142D01*
X008900Y013261D01*
X008900Y013562D01*
X009259Y013922D01*
X010708Y013922D01*
X010796Y013958D01*
X011296Y014458D01*
X011363Y014526D01*
X011400Y014614D01*
X011400Y016710D01*
X011363Y016798D01*
X010863Y017298D01*
X010796Y017365D01*
X010708Y017402D01*
X005612Y017402D01*
X005524Y017365D01*
X003024Y014865D01*
X002957Y014798D01*
X002920Y014710D01*
X002920Y011614D01*
X002957Y011526D01*
X003740Y010742D01*
X003740Y010488D01*
X003986Y010242D01*
X004241Y010242D01*
X004524Y009958D01*
X004612Y009922D01*
X009046Y009922D01*
X009162Y009806D01*
X009316Y009742D01*
X010004Y009742D01*
X010158Y009806D01*
X010274Y009922D01*
X011061Y009922D01*
X011798Y009184D01*
X011798Y005900D01*
X011785Y005895D01*
X011659Y005769D01*
X011591Y005605D01*
X011591Y004853D01*
X011659Y004689D01*
X011785Y004563D01*
X011949Y004495D01*
X012127Y004495D01*
X012291Y004563D01*
X012417Y004689D01*
X012420Y004696D01*
X012420Y004551D01*
X012334Y004343D01*
X012334Y004175D01*
X012061Y003902D01*
X011759Y003902D01*
X011294Y004368D01*
X011294Y004557D01*
X011307Y004563D01*
X011433Y004689D01*
X011501Y004853D01*
X011501Y005605D01*
X011433Y005769D01*
X011307Y005895D01*
X011143Y005963D01*
X010965Y005963D01*
X010800Y005895D01*
X010675Y005769D01*
X010660Y005733D01*
X010645Y005769D01*
X010520Y005895D01*
X010355Y005963D01*
X010177Y005963D01*
X010013Y005895D01*
X009887Y005769D01*
X009819Y005605D01*
X009819Y004853D01*
X009887Y004689D01*
X010013Y004563D01*
X010177Y004495D01*
X010355Y004495D01*
X010520Y004563D01*
X010645Y004689D01*
X010660Y004724D01*
X010675Y004689D01*
X010800Y004563D01*
X010814Y004557D01*
X010814Y004220D01*
X010850Y004132D01*
X011457Y003526D01*
X011524Y003458D01*
X011612Y003422D01*
X012208Y003422D01*
X012296Y003458D01*
X012478Y003640D01*
X012730Y003388D01*
X013065Y003249D01*
X013428Y003249D01*
X013764Y003388D01*
X014020Y003645D01*
X014159Y003980D01*
X014159Y004343D01*
X014020Y004679D01*
X013764Y004936D01*
X013428Y005075D01*
X013065Y005075D01*
X012900Y005006D01*
X012900Y009210D01*
X012863Y009298D01*
X020692Y009298D01*
X020692Y009416D02*
X012745Y009416D01*
X012863Y009298D02*
X012419Y009742D01*
X013004Y009742D01*
X013158Y009806D01*
X013274Y009922D01*
X014208Y009922D01*
X014296Y009958D01*
X014363Y010026D01*
X014863Y010526D01*
X014900Y010614D01*
X014900Y011062D01*
X015259Y011422D01*
X016208Y011422D01*
X016296Y011458D01*
X016363Y011526D01*
X016925Y012087D01*
X017303Y012087D01*
X017324Y012023D02*
X016861Y012023D01*
X016742Y011905D02*
X020692Y011905D01*
X020692Y012023D02*
X017996Y012023D01*
X018017Y012142D02*
X020692Y012142D01*
X020692Y012260D02*
X018017Y012260D01*
X018017Y012379D02*
X020692Y012379D01*
X020692Y012497D02*
X018017Y012497D01*
X018011Y012616D02*
X020692Y012616D01*
X020692Y012734D02*
X018010Y012734D01*
X018017Y012853D02*
X020692Y012853D01*
X020692Y012971D02*
X017698Y012971D01*
X017698Y013035D02*
X018017Y013035D01*
X018017Y013234D01*
X018006Y013275D01*
X017985Y013311D01*
X017955Y013341D01*
X017919Y013362D01*
X017878Y013373D01*
X017698Y013373D01*
X017698Y013035D01*
X017698Y013090D02*
X017622Y013090D01*
X017622Y013208D02*
X017698Y013208D01*
X017698Y013327D02*
X017622Y013327D01*
X017351Y013327D02*
X015969Y013327D01*
X015955Y013341D02*
X015985Y013311D01*
X016006Y013275D01*
X016017Y013234D01*
X016017Y013035D01*
X015698Y013035D01*
X015622Y013035D01*
X015622Y013373D01*
X015442Y013373D01*
X015401Y013362D01*
X015365Y013341D01*
X015335Y013311D01*
X015314Y013275D01*
X015303Y013234D01*
X015303Y013035D01*
X015622Y013035D01*
X015622Y012958D01*
X015303Y012958D01*
X015303Y012759D01*
X015314Y012718D01*
X015335Y012682D01*
X015355Y012662D01*
X015303Y012610D01*
X015303Y012567D01*
X013926Y012567D01*
X013862Y012631D01*
X013730Y012686D01*
X013588Y012686D01*
X013456Y012631D01*
X013392Y012567D01*
X013343Y012567D01*
X013314Y012572D01*
X013296Y012567D01*
X013278Y012567D01*
X013250Y012556D01*
X013144Y012529D01*
X013135Y012527D01*
X013004Y012582D01*
X012316Y012582D01*
X012162Y012518D01*
X012044Y012400D01*
X011980Y012245D01*
X011980Y012078D01*
X012044Y011924D01*
X012162Y011806D01*
X012316Y011742D01*
X013004Y011742D01*
X013158Y011806D01*
X013276Y011924D01*
X013340Y012078D01*
X013340Y012084D01*
X013355Y012087D01*
X013393Y012087D01*
X013456Y012024D01*
X013588Y011970D01*
X013730Y011970D01*
X013862Y012024D01*
X013925Y012087D01*
X015303Y012087D01*
X015303Y012044D01*
X015397Y011951D01*
X015923Y011951D01*
X016017Y012044D01*
X016017Y012610D01*
X015965Y012662D01*
X015985Y012682D01*
X016006Y012718D01*
X016017Y012759D01*
X016017Y012958D01*
X015698Y012958D01*
X015698Y013035D01*
X015698Y013373D01*
X015878Y013373D01*
X015919Y013362D01*
X015955Y013341D01*
X016017Y013208D02*
X017303Y013208D01*
X017303Y013090D02*
X016017Y013090D01*
X016017Y012853D02*
X017303Y012853D01*
X017310Y012734D02*
X016010Y012734D01*
X016011Y012616D02*
X017309Y012616D01*
X017622Y012971D02*
X015698Y012971D01*
X015622Y012971D02*
X013296Y012971D01*
X013340Y013090D02*
X015303Y013090D01*
X015303Y013208D02*
X013340Y013208D01*
X013306Y013327D02*
X015351Y013327D01*
X015622Y013327D02*
X015698Y013327D01*
X015698Y013208D02*
X015622Y013208D01*
X015622Y013090D02*
X015698Y013090D01*
X015303Y012853D02*
X013205Y012853D01*
X013144Y012529D02*
X013144Y012529D01*
X013248Y012308D02*
X013669Y012315D01*
X013659Y012328D01*
X013860Y012023D02*
X015324Y012023D01*
X014945Y011786D02*
X013111Y011786D01*
X013257Y011905D02*
X016064Y011905D01*
X015996Y012023D02*
X016182Y012023D01*
X016301Y012142D02*
X016017Y012142D01*
X016017Y012260D02*
X016419Y012260D01*
X016538Y012379D02*
X016017Y012379D01*
X016017Y012497D02*
X016656Y012497D01*
X016624Y011786D02*
X020692Y011786D01*
X020692Y011668D02*
X016505Y011668D01*
X016387Y011549D02*
X020692Y011549D01*
X020692Y011431D02*
X016230Y011431D01*
X015150Y011312D02*
X020692Y011312D01*
X020692Y011194D02*
X015031Y011194D01*
X014913Y011075D02*
X020692Y011075D01*
X020692Y010957D02*
X014900Y010957D01*
X014900Y010838D02*
X020692Y010838D01*
X020692Y010720D02*
X014900Y010720D01*
X014895Y010601D02*
X020692Y010601D01*
X020692Y010483D02*
X014820Y010483D01*
X014702Y010364D02*
X020692Y010364D01*
X020692Y010246D02*
X014583Y010246D01*
X014465Y010127D02*
X020692Y010127D01*
X020692Y010009D02*
X014346Y010009D01*
X014142Y010483D02*
X013193Y010483D01*
X013190Y010838D02*
X014420Y010838D01*
X014420Y010957D02*
X013290Y010957D01*
X013339Y011075D02*
X014420Y011075D01*
X014420Y011194D02*
X013340Y011194D01*
X013312Y011312D02*
X014471Y011312D01*
X014590Y011431D02*
X013245Y011431D01*
X013082Y011549D02*
X014708Y011549D01*
X014827Y011668D02*
X011993Y011668D01*
X011875Y011786D02*
X012209Y011786D01*
X012063Y011905D02*
X011756Y011905D01*
X011638Y012023D02*
X012003Y012023D01*
X011980Y012142D02*
X011519Y012142D01*
X011401Y012260D02*
X011986Y012260D01*
X012035Y012379D02*
X011263Y012379D01*
X010953Y012616D02*
X013441Y012616D01*
X013877Y012616D02*
X015309Y012616D01*
X015310Y012734D02*
X011072Y012734D01*
X011190Y012853D02*
X012115Y012853D01*
X012142Y012497D02*
X010835Y012497D01*
X010630Y012971D02*
X010294Y012971D01*
X010334Y013090D02*
X010749Y013090D01*
X010867Y013208D02*
X010338Y013208D01*
X010340Y013195D02*
X010330Y013260D01*
X010309Y013323D01*
X010279Y013382D01*
X010240Y013435D01*
X010194Y013482D01*
X010140Y013521D01*
X010081Y013551D01*
X010018Y013571D01*
X009953Y013582D01*
X009680Y013582D01*
X009680Y013182D01*
X010340Y013182D01*
X010340Y013195D01*
X010307Y013327D02*
X010986Y013327D01*
X010875Y014038D02*
X020692Y014038D01*
X020692Y014156D02*
X010994Y014156D01*
X011112Y014275D02*
X020692Y014275D01*
X020692Y014393D02*
X011231Y014393D01*
X011349Y014512D02*
X020692Y014512D01*
X020692Y014630D02*
X011400Y014630D01*
X011400Y014749D02*
X020692Y014749D01*
X020692Y014867D02*
X013872Y014867D01*
X013863Y014858D02*
X013964Y014959D01*
X014018Y015091D01*
X014018Y015233D01*
X013964Y015365D01*
X013863Y015465D01*
X013731Y015520D01*
X013641Y015520D01*
X013080Y016081D01*
X013080Y016336D01*
X012834Y016582D01*
X012486Y016582D01*
X012240Y016336D01*
X012240Y015988D01*
X012486Y015742D01*
X012741Y015742D01*
X013302Y015181D01*
X013302Y015091D01*
X013356Y014959D01*
X013457Y014858D01*
X013589Y014804D01*
X013731Y014804D01*
X013863Y014858D01*
X013975Y014986D02*
X020692Y014986D01*
X020692Y015104D02*
X014018Y015104D01*
X014018Y015223D02*
X020692Y015223D01*
X020692Y015341D02*
X013973Y015341D01*
X013868Y015460D02*
X020692Y015460D01*
X020692Y015578D02*
X013583Y015578D01*
X013464Y015697D02*
X020692Y015697D01*
X020692Y015815D02*
X013346Y015815D01*
X013227Y015934D02*
X020691Y015934D01*
X020692Y015916D02*
X020692Y005485D01*
X020681Y005253D01*
X020590Y004799D01*
X020413Y004371D01*
X020156Y003986D01*
X019828Y003658D01*
X019443Y003401D01*
X019015Y003224D01*
X018561Y003133D01*
X018329Y003122D01*
X003160Y003122D01*
X002960Y003132D01*
X002568Y003210D01*
X002198Y003363D01*
X001866Y003585D01*
X001583Y003868D01*
X001361Y004200D01*
X001208Y004570D01*
X001130Y004962D01*
X001120Y005162D01*
X001120Y005253D01*
X001120Y016294D01*
X001131Y016517D01*
X001218Y016955D01*
X001389Y017368D01*
X001637Y017739D01*
X001788Y017890D01*
X001767Y017839D01*
X001767Y017484D01*
X001903Y017156D01*
X002154Y016905D01*
X002482Y016769D01*
X002838Y016769D01*
X003166Y016905D01*
X003417Y017156D01*
X003553Y017484D01*
X003553Y017839D01*
X003417Y018168D01*
X003166Y018419D01*
X002937Y018514D01*
X003175Y018561D01*
X003398Y018572D01*
X018036Y018572D01*
X018297Y018559D01*
X018767Y018466D01*
X018654Y018419D01*
X018403Y018168D01*
X018267Y017839D01*
X018267Y017484D01*
X018403Y017156D01*
X018654Y016905D01*
X018982Y016769D01*
X019338Y016769D01*
X019666Y016905D01*
X019917Y017156D01*
X020053Y017484D01*
X020053Y017637D01*
X020089Y017601D01*
X020379Y017168D01*
X020578Y016687D01*
X020679Y016176D01*
X020692Y015916D01*
X020685Y016052D02*
X013109Y016052D01*
X013080Y016171D02*
X020680Y016171D01*
X020657Y016289D02*
X013080Y016289D01*
X013008Y016408D02*
X020633Y016408D01*
X020610Y016526D02*
X012889Y016526D01*
X012431Y016526D02*
X011400Y016526D01*
X011400Y016408D02*
X012312Y016408D01*
X012240Y016289D02*
X011400Y016289D01*
X011400Y016171D02*
X012240Y016171D01*
X012240Y016052D02*
X011400Y016052D01*
X011400Y015934D02*
X012294Y015934D01*
X012413Y015815D02*
X011400Y015815D01*
X011400Y015697D02*
X012786Y015697D01*
X012904Y015578D02*
X011400Y015578D01*
X011400Y015460D02*
X013023Y015460D01*
X013141Y015341D02*
X011400Y015341D01*
X011400Y015223D02*
X013260Y015223D01*
X013302Y015104D02*
X011400Y015104D01*
X011400Y014986D02*
X013345Y014986D01*
X013448Y014867D02*
X011400Y014867D01*
X010920Y014867D02*
X004705Y014867D01*
X004586Y014749D02*
X010908Y014749D01*
X010789Y014630D02*
X004468Y014630D01*
X004400Y014512D02*
X010671Y014512D01*
X010920Y014986D02*
X004823Y014986D01*
X004942Y015104D02*
X010920Y015104D01*
X010920Y015223D02*
X005060Y015223D01*
X005179Y015341D02*
X010920Y015341D01*
X010920Y015460D02*
X005297Y015460D01*
X005416Y015578D02*
X010920Y015578D01*
X010920Y015697D02*
X005534Y015697D01*
X005653Y015815D02*
X009413Y015815D01*
X009907Y015815D02*
X010920Y015815D01*
X010920Y015934D02*
X010026Y015934D01*
X010080Y016052D02*
X010920Y016052D01*
X010920Y016171D02*
X010080Y016171D01*
X010080Y016289D02*
X010920Y016289D01*
X010920Y016408D02*
X010008Y016408D01*
X009889Y016526D02*
X010920Y016526D01*
X010838Y016645D02*
X005482Y016645D01*
X005364Y016526D02*
X009431Y016526D01*
X009312Y016408D02*
X005245Y016408D01*
X005127Y016289D02*
X005448Y016289D01*
X005330Y016171D02*
X005008Y016171D01*
X004890Y016052D02*
X005211Y016052D01*
X005093Y015934D02*
X004771Y015934D01*
X004653Y015815D02*
X004974Y015815D01*
X004856Y015697D02*
X004534Y015697D01*
X004416Y015578D02*
X004737Y015578D01*
X004619Y015460D02*
X004297Y015460D01*
X004179Y015341D02*
X004500Y015341D01*
X004382Y015223D02*
X004060Y015223D01*
X003942Y015104D02*
X004263Y015104D01*
X004145Y014986D02*
X003823Y014986D01*
X003705Y014867D02*
X004026Y014867D01*
X003936Y014749D02*
X003586Y014749D01*
X003468Y014630D02*
X003920Y014630D01*
X003920Y014512D02*
X003400Y014512D01*
X003400Y014393D02*
X003920Y014393D01*
X003920Y014275D02*
X003400Y014275D01*
X003400Y014156D02*
X003920Y014156D01*
X003920Y014038D02*
X003400Y014038D01*
X003400Y013919D02*
X003824Y013919D01*
X003740Y013801D02*
X003400Y013801D01*
X003400Y013682D02*
X003740Y013682D01*
X003740Y013564D02*
X003400Y013564D01*
X003400Y013445D02*
X003783Y013445D01*
X003901Y013327D02*
X003400Y013327D01*
X003400Y013208D02*
X003920Y013208D01*
X003920Y013090D02*
X003400Y013090D01*
X003400Y012971D02*
X003920Y012971D01*
X003920Y012853D02*
X003400Y012853D01*
X003400Y012734D02*
X003920Y012734D01*
X003920Y012616D02*
X003400Y012616D01*
X003400Y012497D02*
X003985Y012497D01*
X004104Y012379D02*
X003400Y012379D01*
X003400Y012260D02*
X004222Y012260D01*
X004341Y012142D02*
X003400Y012142D01*
X003400Y012023D02*
X004459Y012023D01*
X004664Y012497D02*
X008985Y012497D01*
X008867Y012616D02*
X004545Y012616D01*
X004427Y012734D02*
X008748Y012734D01*
X008630Y012853D02*
X004400Y012853D01*
X004400Y012971D02*
X008511Y012971D01*
X008430Y013090D02*
X004400Y013090D01*
X004400Y013208D02*
X008420Y013208D01*
X008420Y013327D02*
X004419Y013327D01*
X004537Y013445D02*
X008420Y013445D01*
X008420Y013564D02*
X004580Y013564D01*
X004580Y013682D02*
X008420Y013682D01*
X008460Y013801D02*
X004580Y013801D01*
X004496Y013919D02*
X008578Y013919D01*
X008697Y014038D02*
X004400Y014038D01*
X004400Y014156D02*
X008815Y014156D01*
X008934Y014275D02*
X004400Y014275D01*
X004400Y014393D02*
X009092Y014393D01*
X009257Y013919D02*
X020692Y013919D01*
X020692Y013801D02*
X009138Y013801D01*
X009020Y013682D02*
X020692Y013682D01*
X020692Y013564D02*
X013047Y013564D01*
X013230Y013445D02*
X020692Y013445D01*
X020692Y013327D02*
X017969Y013327D01*
X018017Y013208D02*
X020692Y013208D01*
X020692Y013090D02*
X018017Y013090D01*
X020692Y009890D02*
X013242Y009890D01*
X013076Y009772D02*
X020692Y009772D01*
X020692Y009653D02*
X012508Y009653D01*
X012626Y009535D02*
X020692Y009535D01*
X020692Y009179D02*
X012900Y009179D01*
X012900Y009061D02*
X020692Y009061D01*
X020692Y008942D02*
X012900Y008942D01*
X012900Y008824D02*
X020692Y008824D01*
X020692Y008705D02*
X012900Y008705D01*
X012900Y008587D02*
X020692Y008587D01*
X020692Y008468D02*
X012900Y008468D01*
X012900Y008350D02*
X020692Y008350D01*
X020692Y008231D02*
X012900Y008231D01*
X012900Y008113D02*
X020692Y008113D01*
X020692Y007994D02*
X012900Y007994D01*
X012900Y007876D02*
X020692Y007876D01*
X020692Y007757D02*
X012900Y007757D01*
X012900Y007639D02*
X020692Y007639D01*
X020692Y007520D02*
X012900Y007520D01*
X012900Y007402D02*
X020692Y007402D01*
X020692Y007283D02*
X012900Y007283D01*
X012900Y007165D02*
X020692Y007165D01*
X020692Y007046D02*
X012900Y007046D01*
X012900Y006928D02*
X020692Y006928D01*
X020692Y006809D02*
X012900Y006809D01*
X012900Y006691D02*
X020692Y006691D01*
X020692Y006572D02*
X012900Y006572D01*
X012900Y006454D02*
X020692Y006454D01*
X020692Y006335D02*
X012900Y006335D01*
X012900Y006217D02*
X020692Y006217D01*
X020692Y006098D02*
X012900Y006098D01*
X012900Y005980D02*
X020692Y005980D01*
X020692Y005861D02*
X012900Y005861D01*
X012900Y005743D02*
X020692Y005743D01*
X020692Y005624D02*
X012900Y005624D01*
X012900Y005506D02*
X018864Y005506D01*
X018982Y005555D02*
X018654Y005419D01*
X018403Y005168D01*
X018267Y004839D01*
X018267Y004484D01*
X018403Y004156D01*
X018654Y003905D01*
X018982Y003769D01*
X019338Y003769D01*
X019666Y003905D01*
X019917Y004156D01*
X020053Y004484D01*
X020053Y004839D01*
X019917Y005168D01*
X019666Y005419D01*
X019338Y005555D01*
X018982Y005555D01*
X018623Y005387D02*
X012900Y005387D01*
X012900Y005269D02*
X018504Y005269D01*
X018396Y005150D02*
X012900Y005150D01*
X012900Y005032D02*
X012962Y005032D01*
X012420Y004676D02*
X012405Y004676D01*
X012420Y004558D02*
X012279Y004558D01*
X012374Y004439D02*
X011294Y004439D01*
X011295Y004558D02*
X011797Y004558D01*
X011671Y004676D02*
X011420Y004676D01*
X011477Y004795D02*
X011615Y004795D01*
X011591Y004913D02*
X011501Y004913D01*
X011501Y005032D02*
X011591Y005032D01*
X011591Y005150D02*
X011501Y005150D01*
X011501Y005269D02*
X011591Y005269D01*
X011591Y005387D02*
X011501Y005387D01*
X011501Y005506D02*
X011591Y005506D01*
X011599Y005624D02*
X011493Y005624D01*
X011443Y005743D02*
X011648Y005743D01*
X011751Y005861D02*
X011340Y005861D01*
X011798Y005980D02*
X001120Y005980D01*
X001120Y006098D02*
X011798Y006098D01*
X011798Y006217D02*
X001120Y006217D01*
X001120Y006335D02*
X011798Y006335D01*
X011798Y006454D02*
X001120Y006454D01*
X001120Y006572D02*
X011798Y006572D01*
X011798Y006691D02*
X001120Y006691D01*
X001120Y006809D02*
X011798Y006809D01*
X011798Y006928D02*
X001120Y006928D01*
X001120Y007046D02*
X011798Y007046D01*
X011798Y007165D02*
X001120Y007165D01*
X001120Y007283D02*
X011798Y007283D01*
X011798Y007402D02*
X001120Y007402D01*
X001120Y007520D02*
X011798Y007520D01*
X011798Y007639D02*
X001120Y007639D01*
X001120Y007757D02*
X011798Y007757D01*
X011798Y007876D02*
X001120Y007876D01*
X001120Y007994D02*
X011798Y007994D01*
X011798Y008113D02*
X001120Y008113D01*
X001120Y008231D02*
X011798Y008231D01*
X011798Y008350D02*
X001120Y008350D01*
X001120Y008468D02*
X011798Y008468D01*
X011798Y008587D02*
X001120Y008587D01*
X001120Y008705D02*
X011798Y008705D01*
X011798Y008824D02*
X001120Y008824D01*
X001120Y008942D02*
X011798Y008942D01*
X011798Y009061D02*
X001120Y009061D01*
X001120Y009179D02*
X011798Y009179D01*
X011685Y009298D02*
X001120Y009298D01*
X001120Y009416D02*
X011566Y009416D01*
X011448Y009535D02*
X001120Y009535D01*
X001120Y009653D02*
X011329Y009653D01*
X011211Y009772D02*
X010076Y009772D01*
X010242Y009890D02*
X011092Y009890D01*
X011000Y010483D02*
X010193Y010483D01*
X010190Y010838D02*
X010644Y010838D01*
X010763Y010720D02*
X004580Y010720D01*
X004577Y010838D02*
X009130Y010838D01*
X009030Y010957D02*
X004459Y010957D01*
X004340Y011075D02*
X008981Y011075D01*
X008980Y011194D02*
X003967Y011194D01*
X003849Y011312D02*
X009008Y011312D01*
X009075Y011431D02*
X003730Y011431D01*
X003612Y011549D02*
X009238Y011549D01*
X009209Y011786D02*
X003400Y011786D01*
X003400Y011905D02*
X009063Y011905D01*
X010111Y011786D02*
X011196Y011786D01*
X011315Y011668D02*
X003493Y011668D01*
X003170Y011312D02*
X001120Y011312D01*
X001120Y011194D02*
X003289Y011194D01*
X003407Y011075D02*
X001120Y011075D01*
X001120Y010957D02*
X003526Y010957D01*
X003644Y010838D02*
X001120Y010838D01*
X001120Y010720D02*
X003740Y010720D01*
X003740Y010601D02*
X001120Y010601D01*
X001120Y010483D02*
X003745Y010483D01*
X003864Y010364D02*
X001120Y010364D01*
X001120Y010246D02*
X003982Y010246D01*
X004355Y010127D02*
X001120Y010127D01*
X001120Y010009D02*
X004474Y010009D01*
X004678Y010483D02*
X009127Y010483D01*
X009078Y009890D02*
X001120Y009890D01*
X001120Y009772D02*
X009244Y009772D01*
X010881Y010601D02*
X004580Y010601D01*
X003052Y011431D02*
X001120Y011431D01*
X001120Y011549D02*
X002947Y011549D01*
X002920Y011668D02*
X001120Y011668D01*
X001120Y011786D02*
X002920Y011786D01*
X002920Y011905D02*
X001120Y011905D01*
X001120Y012023D02*
X002920Y012023D01*
X002920Y012142D02*
X001120Y012142D01*
X001120Y012260D02*
X002920Y012260D01*
X002920Y012379D02*
X001120Y012379D01*
X001120Y012497D02*
X002920Y012497D01*
X002920Y012616D02*
X001120Y012616D01*
X001120Y012734D02*
X002920Y012734D01*
X002920Y012853D02*
X001120Y012853D01*
X001120Y012971D02*
X002920Y012971D01*
X002920Y013090D02*
X001120Y013090D01*
X001120Y013208D02*
X002920Y013208D01*
X002920Y013327D02*
X001120Y013327D01*
X001120Y013445D02*
X002920Y013445D01*
X002920Y013564D02*
X001120Y013564D01*
X001120Y013682D02*
X002920Y013682D01*
X002920Y013801D02*
X001120Y013801D01*
X001120Y013919D02*
X002920Y013919D01*
X002920Y014038D02*
X001120Y014038D01*
X001120Y014156D02*
X002920Y014156D01*
X002920Y014275D02*
X001120Y014275D01*
X001120Y014393D02*
X002920Y014393D01*
X002920Y014512D02*
X001120Y014512D01*
X001120Y014630D02*
X002920Y014630D01*
X002936Y014749D02*
X001120Y014749D01*
X001120Y014867D02*
X003026Y014867D01*
X003145Y014986D02*
X001120Y014986D01*
X001120Y015104D02*
X003263Y015104D01*
X003382Y015223D02*
X001120Y015223D01*
X001120Y015341D02*
X003500Y015341D01*
X003619Y015460D02*
X001120Y015460D01*
X001120Y015578D02*
X003737Y015578D01*
X003856Y015697D02*
X001120Y015697D01*
X001120Y015815D02*
X003974Y015815D01*
X004093Y015934D02*
X001120Y015934D01*
X001120Y016052D02*
X004211Y016052D01*
X004330Y016171D02*
X001120Y016171D01*
X001120Y016289D02*
X004448Y016289D01*
X004567Y016408D02*
X001126Y016408D01*
X001133Y016526D02*
X004685Y016526D01*
X004804Y016645D02*
X001156Y016645D01*
X001180Y016763D02*
X004922Y016763D01*
X005041Y016882D02*
X003111Y016882D01*
X003262Y017000D02*
X005159Y017000D01*
X005278Y017119D02*
X003380Y017119D01*
X003451Y017237D02*
X005396Y017237D01*
X005515Y017356D02*
X003500Y017356D01*
X003549Y017474D02*
X018271Y017474D01*
X018267Y017593D02*
X003553Y017593D01*
X003553Y017711D02*
X018267Y017711D01*
X018267Y017830D02*
X003553Y017830D01*
X003508Y017948D02*
X018312Y017948D01*
X018361Y018067D02*
X003459Y018067D01*
X003399Y018185D02*
X018421Y018185D01*
X018539Y018304D02*
X003281Y018304D01*
X003158Y018422D02*
X018662Y018422D01*
X018388Y018541D02*
X003074Y018541D01*
X001767Y017830D02*
X001728Y017830D01*
X001767Y017711D02*
X001619Y017711D01*
X001539Y017593D02*
X001767Y017593D01*
X001771Y017474D02*
X001460Y017474D01*
X001384Y017356D02*
X001820Y017356D01*
X001869Y017237D02*
X001335Y017237D01*
X001286Y017119D02*
X001940Y017119D01*
X002058Y017000D02*
X001237Y017000D01*
X001204Y016882D02*
X002209Y016882D01*
X005601Y016763D02*
X010719Y016763D01*
X010601Y016882D02*
X005719Y016882D01*
X008901Y013564D02*
X009278Y013564D01*
X009090Y013445D02*
X008900Y013445D01*
X008900Y013327D02*
X009013Y013327D01*
X008982Y013208D02*
X008953Y013208D01*
X009640Y013208D02*
X009680Y013208D01*
X009680Y013327D02*
X009640Y013327D01*
X009640Y013445D02*
X009680Y013445D01*
X009680Y013564D02*
X009640Y013564D01*
X010042Y013564D02*
X012273Y013564D01*
X012090Y013445D02*
X010230Y013445D01*
X010257Y011905D02*
X011078Y011905D01*
X011433Y011549D02*
X010082Y011549D01*
X010245Y011431D02*
X011552Y011431D01*
X011670Y011312D02*
X010849Y011312D01*
X010967Y011194D02*
X011789Y011194D01*
X011907Y011075D02*
X011086Y011075D01*
X011204Y010957D02*
X012028Y010957D01*
X012130Y010838D02*
X011323Y010838D01*
X011441Y010720D02*
X014379Y010720D01*
X014260Y010601D02*
X011560Y010601D01*
X011678Y010483D02*
X012127Y010483D01*
X012029Y010364D02*
X011797Y010364D01*
X011915Y010246D02*
X011980Y010246D01*
X012112Y011549D02*
X012238Y011549D01*
X013317Y012023D02*
X013458Y012023D01*
X011400Y016645D02*
X020586Y016645D01*
X020546Y016763D02*
X011378Y016763D01*
X011279Y016882D02*
X018709Y016882D01*
X018558Y017000D02*
X011161Y017000D01*
X011042Y017119D02*
X018440Y017119D01*
X018369Y017237D02*
X010924Y017237D01*
X010805Y017356D02*
X018320Y017356D01*
X019611Y016882D02*
X020497Y016882D01*
X020448Y017000D02*
X019762Y017000D01*
X019880Y017119D02*
X020399Y017119D01*
X020332Y017237D02*
X019951Y017237D01*
X020000Y017356D02*
X020253Y017356D01*
X020174Y017474D02*
X020049Y017474D01*
X020053Y017593D02*
X020095Y017593D01*
X010767Y005861D02*
X010553Y005861D01*
X010656Y005743D02*
X010664Y005743D01*
X009980Y005861D02*
X009567Y005861D01*
X009573Y005857D02*
X009516Y005898D01*
X009454Y005930D01*
X009387Y005952D01*
X009317Y005963D01*
X009316Y005963D01*
X009316Y005262D01*
X009729Y005262D01*
X009729Y005551D01*
X009718Y005620D01*
X009696Y005687D01*
X009664Y005750D01*
X009623Y005807D01*
X009573Y005857D01*
X009668Y005743D02*
X009877Y005743D01*
X009827Y005624D02*
X009717Y005624D01*
X009729Y005506D02*
X009819Y005506D01*
X009819Y005387D02*
X009729Y005387D01*
X009729Y005269D02*
X009819Y005269D01*
X009729Y005195D02*
X009316Y005195D01*
X009316Y005262D01*
X009249Y005262D01*
X009249Y005963D01*
X009247Y005963D01*
X009177Y005952D01*
X009110Y005930D01*
X009048Y005898D01*
X008991Y005857D01*
X008941Y005807D01*
X008900Y005750D01*
X008868Y005687D01*
X008846Y005620D01*
X008835Y005551D01*
X008835Y005262D01*
X009249Y005262D01*
X009249Y005195D01*
X009316Y005195D01*
X009316Y004495D01*
X009317Y004495D01*
X009387Y004506D01*
X009454Y004527D01*
X009516Y004559D01*
X009573Y004601D01*
X009623Y004651D01*
X009664Y004707D01*
X009696Y004770D01*
X009718Y004837D01*
X009729Y004907D01*
X009729Y005195D01*
X009729Y005150D02*
X009819Y005150D01*
X009819Y005032D02*
X009729Y005032D01*
X009729Y004913D02*
X009819Y004913D01*
X009843Y004795D02*
X009704Y004795D01*
X009642Y004676D02*
X009900Y004676D01*
X010025Y004558D02*
X009513Y004558D01*
X009316Y004558D02*
X009249Y004558D01*
X009249Y004495D02*
X009249Y005195D01*
X008835Y005195D01*
X008835Y004907D01*
X008846Y004837D01*
X008868Y004770D01*
X008900Y004707D01*
X008941Y004651D01*
X008991Y004601D01*
X009048Y004559D01*
X009110Y004527D01*
X009177Y004506D01*
X009247Y004495D01*
X009249Y004495D01*
X009249Y004676D02*
X009316Y004676D01*
X009316Y004795D02*
X009249Y004795D01*
X009249Y004913D02*
X009316Y004913D01*
X009316Y005032D02*
X009249Y005032D01*
X009249Y005150D02*
X009316Y005150D01*
X009316Y005269D02*
X009249Y005269D01*
X009249Y005387D02*
X009316Y005387D01*
X009316Y005506D02*
X009249Y005506D01*
X009249Y005624D02*
X009316Y005624D01*
X009316Y005743D02*
X009249Y005743D01*
X009249Y005861D02*
X009316Y005861D01*
X008997Y005861D02*
X001120Y005861D01*
X001120Y005743D02*
X008896Y005743D01*
X008847Y005624D02*
X001120Y005624D01*
X001120Y005506D02*
X002364Y005506D01*
X002482Y005555D02*
X002154Y005419D01*
X001903Y005168D01*
X001767Y004839D01*
X001767Y004484D01*
X001903Y004156D01*
X002154Y003905D01*
X002482Y003769D01*
X002838Y003769D01*
X003166Y003905D01*
X003417Y004156D01*
X003553Y004484D01*
X003553Y004839D01*
X003417Y005168D01*
X003166Y005419D01*
X002838Y005555D01*
X002482Y005555D01*
X002123Y005387D02*
X001120Y005387D01*
X001120Y005269D02*
X002004Y005269D01*
X001896Y005150D02*
X001121Y005150D01*
X001126Y005032D02*
X001847Y005032D01*
X001798Y004913D02*
X001139Y004913D01*
X001163Y004795D02*
X001767Y004795D01*
X001767Y004676D02*
X001187Y004676D01*
X001213Y004558D02*
X001767Y004558D01*
X001786Y004439D02*
X001262Y004439D01*
X001311Y004321D02*
X001835Y004321D01*
X001884Y004202D02*
X001360Y004202D01*
X001439Y004084D02*
X001975Y004084D01*
X002094Y003965D02*
X001518Y003965D01*
X001604Y003847D02*
X002294Y003847D01*
X002006Y003491D02*
X007453Y003491D01*
X007556Y003388D02*
X007300Y003645D01*
X007161Y003980D01*
X007161Y004343D01*
X007300Y004679D01*
X007556Y004936D01*
X007892Y005075D01*
X008255Y005075D01*
X008590Y004936D01*
X008847Y004679D01*
X008986Y004343D01*
X008986Y003980D01*
X008847Y003645D01*
X008590Y003388D01*
X008255Y003249D01*
X007892Y003249D01*
X007556Y003388D01*
X007593Y003373D02*
X002183Y003373D01*
X002460Y003254D02*
X007879Y003254D01*
X008268Y003254D02*
X013052Y003254D01*
X012766Y003373D02*
X008554Y003373D01*
X008694Y003491D02*
X011491Y003491D01*
X011373Y003610D02*
X008812Y003610D01*
X008882Y003728D02*
X011254Y003728D01*
X011136Y003847D02*
X008931Y003847D01*
X008980Y003965D02*
X011017Y003965D01*
X010899Y004084D02*
X008986Y004084D01*
X008986Y004202D02*
X010821Y004202D01*
X010814Y004321D02*
X008986Y004321D01*
X008946Y004439D02*
X010814Y004439D01*
X010812Y004558D02*
X010508Y004558D01*
X010633Y004676D02*
X010687Y004676D01*
X011340Y004321D02*
X012334Y004321D01*
X012334Y004202D02*
X011459Y004202D01*
X011577Y004084D02*
X012243Y004084D01*
X012124Y003965D02*
X011696Y003965D01*
X012329Y003491D02*
X012626Y003491D01*
X012508Y003610D02*
X012447Y003610D01*
X013441Y003254D02*
X019089Y003254D01*
X019376Y003373D02*
X013727Y003373D01*
X013867Y003491D02*
X019579Y003491D01*
X019756Y003610D02*
X013985Y003610D01*
X014055Y003728D02*
X019898Y003728D01*
X020017Y003847D02*
X019526Y003847D01*
X019726Y003965D02*
X020135Y003965D01*
X020221Y004084D02*
X019845Y004084D01*
X019936Y004202D02*
X020301Y004202D01*
X020380Y004321D02*
X019985Y004321D01*
X020034Y004439D02*
X020441Y004439D01*
X020491Y004558D02*
X020053Y004558D01*
X020053Y004676D02*
X020540Y004676D01*
X020589Y004795D02*
X020053Y004795D01*
X020022Y004913D02*
X020613Y004913D01*
X020637Y005032D02*
X019973Y005032D01*
X019924Y005150D02*
X020660Y005150D01*
X020682Y005269D02*
X019816Y005269D01*
X019697Y005387D02*
X020687Y005387D01*
X020692Y005506D02*
X019456Y005506D01*
X018347Y005032D02*
X013531Y005032D01*
X013786Y004913D02*
X018298Y004913D01*
X018267Y004795D02*
X013904Y004795D01*
X014021Y004676D02*
X018267Y004676D01*
X018267Y004558D02*
X014071Y004558D01*
X014120Y004439D02*
X018286Y004439D01*
X018335Y004321D02*
X014159Y004321D01*
X014159Y004202D02*
X018384Y004202D01*
X018475Y004084D02*
X014159Y004084D01*
X014153Y003965D02*
X018594Y003965D01*
X018794Y003847D02*
X014104Y003847D01*
X018574Y003136D02*
X002939Y003136D01*
X003026Y003847D02*
X007216Y003847D01*
X007167Y003965D02*
X003226Y003965D01*
X003345Y004084D02*
X007161Y004084D01*
X007161Y004202D02*
X003436Y004202D01*
X003485Y004321D02*
X007161Y004321D01*
X007200Y004439D02*
X003534Y004439D01*
X003553Y004558D02*
X007249Y004558D01*
X007299Y004676D02*
X003553Y004676D01*
X003553Y004795D02*
X007416Y004795D01*
X007534Y004913D02*
X003522Y004913D01*
X003473Y005032D02*
X007789Y005032D01*
X008358Y005032D02*
X008835Y005032D01*
X008835Y005150D02*
X003424Y005150D01*
X003316Y005269D02*
X008835Y005269D01*
X008835Y005387D02*
X003197Y005387D01*
X002956Y005506D02*
X008835Y005506D01*
X008835Y004913D02*
X008613Y004913D01*
X008731Y004795D02*
X008860Y004795D01*
X008848Y004676D02*
X008922Y004676D01*
X008897Y004558D02*
X009051Y004558D01*
X007335Y003610D02*
X001841Y003610D01*
X001722Y003728D02*
X007265Y003728D01*
D17*
X013659Y012328D03*
X013660Y015162D03*
M02*
