%
M48
M72
T01C0.0236
T02C0.0320
T03C0.0374
T04C0.0866
T05C0.0906
%
T01
X13659Y12328
X13660Y15162
T02
X12660Y16162
X9660Y16162
X9660Y13162
X9660Y12162
X9660Y11162
X9660Y10162
X12660Y10162
X12660Y11162
X12660Y12162
X12660Y13162
X4160Y13662
X4160Y10662
T03
X9282Y5229
X10266Y5229
X11054Y5229
X12038Y5229
T04
X2660Y4662
X2660Y17662
X19160Y17662
X19160Y4662
T05
X13247Y4162
X8073Y4162
M30
