G75*
%MOIN*%
%OFA0B0*%
%FSLAX24Y24*%
%IPPOS*%
%LPD*%
%AMOC8*
5,1,8,0,0,1.08239X$1,22.5*
%
%ADD10C,0.0000*%
%ADD11C,0.0520*%
%ADD12OC8,0.0520*%
%ADD13C,0.0574*%
%ADD14C,0.0396*%
%ADD15C,0.0120*%
D10*
X003160Y002662D02*
X018329Y002662D01*
X018727Y004662D02*
X018729Y004703D01*
X018735Y004744D01*
X018745Y004784D01*
X018758Y004823D01*
X018775Y004860D01*
X018796Y004896D01*
X018820Y004930D01*
X018847Y004961D01*
X018876Y004989D01*
X018909Y005015D01*
X018943Y005037D01*
X018980Y005056D01*
X019018Y005071D01*
X019058Y005083D01*
X019098Y005091D01*
X019139Y005095D01*
X019181Y005095D01*
X019222Y005091D01*
X019262Y005083D01*
X019302Y005071D01*
X019340Y005056D01*
X019376Y005037D01*
X019411Y005015D01*
X019444Y004989D01*
X019473Y004961D01*
X019500Y004930D01*
X019524Y004896D01*
X019545Y004860D01*
X019562Y004823D01*
X019575Y004784D01*
X019585Y004744D01*
X019591Y004703D01*
X019593Y004662D01*
X019591Y004621D01*
X019585Y004580D01*
X019575Y004540D01*
X019562Y004501D01*
X019545Y004464D01*
X019524Y004428D01*
X019500Y004394D01*
X019473Y004363D01*
X019444Y004335D01*
X019411Y004309D01*
X019377Y004287D01*
X019340Y004268D01*
X019302Y004253D01*
X019262Y004241D01*
X019222Y004233D01*
X019181Y004229D01*
X019139Y004229D01*
X019098Y004233D01*
X019058Y004241D01*
X019018Y004253D01*
X018980Y004268D01*
X018944Y004287D01*
X018909Y004309D01*
X018876Y004335D01*
X018847Y004363D01*
X018820Y004394D01*
X018796Y004428D01*
X018775Y004464D01*
X018758Y004501D01*
X018745Y004540D01*
X018735Y004580D01*
X018729Y004621D01*
X018727Y004662D01*
X018329Y002662D02*
X018435Y002664D01*
X018540Y002670D01*
X018645Y002680D01*
X018750Y002694D01*
X018854Y002711D01*
X018957Y002733D01*
X019060Y002758D01*
X019161Y002787D01*
X019261Y002820D01*
X019360Y002857D01*
X019458Y002898D01*
X019554Y002942D01*
X019648Y002989D01*
X019740Y003040D01*
X019831Y003095D01*
X019919Y003153D01*
X020005Y003214D01*
X020089Y003278D01*
X020170Y003345D01*
X020249Y003416D01*
X020325Y003489D01*
X020398Y003565D01*
X020469Y003644D01*
X020536Y003725D01*
X020600Y003809D01*
X020661Y003895D01*
X020719Y003983D01*
X020774Y004073D01*
X020825Y004166D01*
X020872Y004260D01*
X020916Y004356D01*
X020957Y004454D01*
X020994Y004553D01*
X021027Y004653D01*
X021056Y004754D01*
X021081Y004857D01*
X021103Y004960D01*
X021120Y005064D01*
X021134Y005169D01*
X021144Y005274D01*
X021150Y005379D01*
X021152Y005485D01*
X021152Y015916D01*
X018727Y017662D02*
X018729Y017703D01*
X018735Y017744D01*
X018745Y017784D01*
X018758Y017823D01*
X018775Y017860D01*
X018796Y017896D01*
X018820Y017930D01*
X018847Y017961D01*
X018876Y017989D01*
X018909Y018015D01*
X018943Y018037D01*
X018980Y018056D01*
X019018Y018071D01*
X019058Y018083D01*
X019098Y018091D01*
X019139Y018095D01*
X019181Y018095D01*
X019222Y018091D01*
X019262Y018083D01*
X019302Y018071D01*
X019340Y018056D01*
X019376Y018037D01*
X019411Y018015D01*
X019444Y017989D01*
X019473Y017961D01*
X019500Y017930D01*
X019524Y017896D01*
X019545Y017860D01*
X019562Y017823D01*
X019575Y017784D01*
X019585Y017744D01*
X019591Y017703D01*
X019593Y017662D01*
X019591Y017621D01*
X019585Y017580D01*
X019575Y017540D01*
X019562Y017501D01*
X019545Y017464D01*
X019524Y017428D01*
X019500Y017394D01*
X019473Y017363D01*
X019444Y017335D01*
X019411Y017309D01*
X019377Y017287D01*
X019340Y017268D01*
X019302Y017253D01*
X019262Y017241D01*
X019222Y017233D01*
X019181Y017229D01*
X019139Y017229D01*
X019098Y017233D01*
X019058Y017241D01*
X019018Y017253D01*
X018980Y017268D01*
X018944Y017287D01*
X018909Y017309D01*
X018876Y017335D01*
X018847Y017363D01*
X018820Y017394D01*
X018796Y017428D01*
X018775Y017464D01*
X018758Y017501D01*
X018745Y017540D01*
X018735Y017580D01*
X018729Y017621D01*
X018727Y017662D01*
X018036Y019032D02*
X003398Y019032D01*
X002227Y017662D02*
X002229Y017703D01*
X002235Y017744D01*
X002245Y017784D01*
X002258Y017823D01*
X002275Y017860D01*
X002296Y017896D01*
X002320Y017930D01*
X002347Y017961D01*
X002376Y017989D01*
X002409Y018015D01*
X002443Y018037D01*
X002480Y018056D01*
X002518Y018071D01*
X002558Y018083D01*
X002598Y018091D01*
X002639Y018095D01*
X002681Y018095D01*
X002722Y018091D01*
X002762Y018083D01*
X002802Y018071D01*
X002840Y018056D01*
X002876Y018037D01*
X002911Y018015D01*
X002944Y017989D01*
X002973Y017961D01*
X003000Y017930D01*
X003024Y017896D01*
X003045Y017860D01*
X003062Y017823D01*
X003075Y017784D01*
X003085Y017744D01*
X003091Y017703D01*
X003093Y017662D01*
X003091Y017621D01*
X003085Y017580D01*
X003075Y017540D01*
X003062Y017501D01*
X003045Y017464D01*
X003024Y017428D01*
X003000Y017394D01*
X002973Y017363D01*
X002944Y017335D01*
X002911Y017309D01*
X002877Y017287D01*
X002840Y017268D01*
X002802Y017253D01*
X002762Y017241D01*
X002722Y017233D01*
X002681Y017229D01*
X002639Y017229D01*
X002598Y017233D01*
X002558Y017241D01*
X002518Y017253D01*
X002480Y017268D01*
X002444Y017287D01*
X002409Y017309D01*
X002376Y017335D01*
X002347Y017363D01*
X002320Y017394D01*
X002296Y017428D01*
X002275Y017464D01*
X002258Y017501D01*
X002245Y017540D01*
X002235Y017580D01*
X002229Y017621D01*
X002227Y017662D01*
X003398Y019032D02*
X003296Y019030D01*
X003193Y019024D01*
X003091Y019015D01*
X002990Y019001D01*
X002889Y018984D01*
X002789Y018963D01*
X002689Y018939D01*
X002591Y018910D01*
X002494Y018878D01*
X002398Y018843D01*
X002303Y018804D01*
X002210Y018761D01*
X002119Y018715D01*
X002029Y018665D01*
X001941Y018612D01*
X001856Y018556D01*
X001772Y018497D01*
X001691Y018435D01*
X001612Y018369D01*
X001536Y018301D01*
X001462Y018230D01*
X001391Y018156D01*
X001323Y018080D01*
X001257Y018001D01*
X001195Y017920D01*
X001136Y017836D01*
X001080Y017751D01*
X001027Y017663D01*
X000977Y017573D01*
X000931Y017482D01*
X000888Y017389D01*
X000849Y017294D01*
X000814Y017198D01*
X000782Y017101D01*
X000753Y017003D01*
X000729Y016903D01*
X000708Y016803D01*
X000691Y016702D01*
X000677Y016601D01*
X000668Y016499D01*
X000662Y016396D01*
X000660Y016294D01*
X000660Y005162D01*
X002227Y004662D02*
X002229Y004703D01*
X002235Y004744D01*
X002245Y004784D01*
X002258Y004823D01*
X002275Y004860D01*
X002296Y004896D01*
X002320Y004930D01*
X002347Y004961D01*
X002376Y004989D01*
X002409Y005015D01*
X002443Y005037D01*
X002480Y005056D01*
X002518Y005071D01*
X002558Y005083D01*
X002598Y005091D01*
X002639Y005095D01*
X002681Y005095D01*
X002722Y005091D01*
X002762Y005083D01*
X002802Y005071D01*
X002840Y005056D01*
X002876Y005037D01*
X002911Y005015D01*
X002944Y004989D01*
X002973Y004961D01*
X003000Y004930D01*
X003024Y004896D01*
X003045Y004860D01*
X003062Y004823D01*
X003075Y004784D01*
X003085Y004744D01*
X003091Y004703D01*
X003093Y004662D01*
X003091Y004621D01*
X003085Y004580D01*
X003075Y004540D01*
X003062Y004501D01*
X003045Y004464D01*
X003024Y004428D01*
X003000Y004394D01*
X002973Y004363D01*
X002944Y004335D01*
X002911Y004309D01*
X002877Y004287D01*
X002840Y004268D01*
X002802Y004253D01*
X002762Y004241D01*
X002722Y004233D01*
X002681Y004229D01*
X002639Y004229D01*
X002598Y004233D01*
X002558Y004241D01*
X002518Y004253D01*
X002480Y004268D01*
X002444Y004287D01*
X002409Y004309D01*
X002376Y004335D01*
X002347Y004363D01*
X002320Y004394D01*
X002296Y004428D01*
X002275Y004464D01*
X002258Y004501D01*
X002245Y004540D01*
X002235Y004580D01*
X002229Y004621D01*
X002227Y004662D01*
X000660Y005162D02*
X000662Y005064D01*
X000668Y004966D01*
X000677Y004868D01*
X000691Y004771D01*
X000708Y004674D01*
X000729Y004578D01*
X000754Y004483D01*
X000782Y004389D01*
X000815Y004297D01*
X000850Y004205D01*
X000890Y004115D01*
X000932Y004027D01*
X000979Y003940D01*
X001028Y003856D01*
X001081Y003773D01*
X001137Y003693D01*
X001197Y003614D01*
X001259Y003538D01*
X001324Y003465D01*
X001392Y003394D01*
X001463Y003326D01*
X001536Y003261D01*
X001612Y003199D01*
X001691Y003139D01*
X001771Y003083D01*
X001854Y003030D01*
X001938Y002981D01*
X002025Y002934D01*
X002113Y002892D01*
X002203Y002852D01*
X002295Y002817D01*
X002387Y002784D01*
X002481Y002756D01*
X002576Y002731D01*
X002672Y002710D01*
X002769Y002693D01*
X002866Y002679D01*
X002964Y002670D01*
X003062Y002664D01*
X003160Y002662D01*
X007620Y004162D02*
X007622Y004204D01*
X007628Y004246D01*
X007638Y004288D01*
X007651Y004328D01*
X007669Y004367D01*
X007690Y004404D01*
X007714Y004438D01*
X007742Y004471D01*
X007772Y004501D01*
X007805Y004527D01*
X007840Y004551D01*
X007878Y004571D01*
X007917Y004587D01*
X007957Y004600D01*
X007999Y004609D01*
X008041Y004614D01*
X008084Y004615D01*
X008126Y004612D01*
X008168Y004605D01*
X008209Y004594D01*
X008249Y004579D01*
X008287Y004561D01*
X008324Y004539D01*
X008358Y004514D01*
X008390Y004486D01*
X008418Y004455D01*
X008444Y004421D01*
X008467Y004385D01*
X008486Y004348D01*
X008502Y004308D01*
X008514Y004267D01*
X008522Y004226D01*
X008526Y004183D01*
X008526Y004141D01*
X008522Y004098D01*
X008514Y004057D01*
X008502Y004016D01*
X008486Y003976D01*
X008467Y003939D01*
X008444Y003903D01*
X008418Y003869D01*
X008390Y003838D01*
X008358Y003810D01*
X008324Y003785D01*
X008287Y003763D01*
X008249Y003745D01*
X008209Y003730D01*
X008168Y003719D01*
X008126Y003712D01*
X008084Y003709D01*
X008041Y003710D01*
X007999Y003715D01*
X007957Y003724D01*
X007917Y003737D01*
X007878Y003753D01*
X007840Y003773D01*
X007805Y003797D01*
X007772Y003823D01*
X007742Y003853D01*
X007714Y003886D01*
X007690Y003920D01*
X007669Y003957D01*
X007651Y003996D01*
X007638Y004036D01*
X007628Y004078D01*
X007622Y004120D01*
X007620Y004162D01*
X012794Y004162D02*
X012796Y004204D01*
X012802Y004246D01*
X012812Y004288D01*
X012825Y004328D01*
X012843Y004367D01*
X012864Y004404D01*
X012888Y004438D01*
X012916Y004471D01*
X012946Y004501D01*
X012979Y004527D01*
X013014Y004551D01*
X013052Y004571D01*
X013091Y004587D01*
X013131Y004600D01*
X013173Y004609D01*
X013215Y004614D01*
X013258Y004615D01*
X013300Y004612D01*
X013342Y004605D01*
X013383Y004594D01*
X013423Y004579D01*
X013461Y004561D01*
X013498Y004539D01*
X013532Y004514D01*
X013564Y004486D01*
X013592Y004455D01*
X013618Y004421D01*
X013641Y004385D01*
X013660Y004348D01*
X013676Y004308D01*
X013688Y004267D01*
X013696Y004226D01*
X013700Y004183D01*
X013700Y004141D01*
X013696Y004098D01*
X013688Y004057D01*
X013676Y004016D01*
X013660Y003976D01*
X013641Y003939D01*
X013618Y003903D01*
X013592Y003869D01*
X013564Y003838D01*
X013532Y003810D01*
X013498Y003785D01*
X013461Y003763D01*
X013423Y003745D01*
X013383Y003730D01*
X013342Y003719D01*
X013300Y003712D01*
X013258Y003709D01*
X013215Y003710D01*
X013173Y003715D01*
X013131Y003724D01*
X013091Y003737D01*
X013052Y003753D01*
X013014Y003773D01*
X012979Y003797D01*
X012946Y003823D01*
X012916Y003853D01*
X012888Y003886D01*
X012864Y003920D01*
X012843Y003957D01*
X012825Y003996D01*
X012812Y004036D01*
X012802Y004078D01*
X012796Y004120D01*
X012794Y004162D01*
X021152Y015916D02*
X021150Y016027D01*
X021144Y016138D01*
X021134Y016249D01*
X021120Y016359D01*
X021102Y016469D01*
X021081Y016578D01*
X021055Y016687D01*
X021026Y016794D01*
X020993Y016900D01*
X020956Y017005D01*
X020915Y017108D01*
X020870Y017210D01*
X020822Y017311D01*
X020771Y017409D01*
X020716Y017506D01*
X020657Y017601D01*
X020596Y017693D01*
X020530Y017783D01*
X020462Y017871D01*
X020391Y017957D01*
X020317Y018039D01*
X020239Y018119D01*
X020159Y018197D01*
X020077Y018271D01*
X019991Y018342D01*
X019903Y018410D01*
X019813Y018476D01*
X019721Y018537D01*
X019626Y018596D01*
X019529Y018651D01*
X019431Y018702D01*
X019330Y018750D01*
X019228Y018795D01*
X019125Y018836D01*
X019020Y018873D01*
X018914Y018906D01*
X018807Y018935D01*
X018698Y018961D01*
X018589Y018982D01*
X018479Y019000D01*
X018369Y019014D01*
X018258Y019024D01*
X018147Y019030D01*
X018036Y019032D01*
D11*
X012920Y013162D02*
X012400Y013162D01*
X012400Y012162D02*
X012920Y012162D01*
X012920Y011162D02*
X012400Y011162D01*
X012400Y010162D02*
X012920Y010162D01*
X009920Y010162D02*
X009400Y010162D01*
X009400Y011162D02*
X009920Y011162D01*
X009920Y012162D02*
X009400Y012162D01*
X009400Y013162D02*
X009920Y013162D01*
D12*
X009660Y016162D03*
X012660Y016162D03*
X004160Y013662D03*
X004160Y010662D03*
D13*
X009282Y005516D02*
X009282Y004942D01*
X010266Y004942D02*
X010266Y005516D01*
X011054Y005516D02*
X011054Y004942D01*
X012038Y004942D02*
X012038Y005516D01*
D14*
X013659Y012328D03*
X013660Y015162D03*
D15*
X013660Y012334D01*
X013659Y012328D01*
M02*
