G75*
%MOIN*%
%OFA0B0*%
%FSLAX24Y24*%
%IPPOS*%
%LPD*%
%AMOC8*
5,1,8,0,0,1.08239X$1,22.5*
%
%ADD10C,0.0000*%
%ADD11C,0.0060*%
%ADD12C,0.0050*%
%ADD13C,0.0040*%
%ADD14R,0.0200X0.0150*%
%ADD15R,0.0150X0.0200*%
%ADD16C,0.0100*%
%ADD17C,0.0020*%
%ADD18C,0.0010*%
D10*
X003160Y002662D02*
X018329Y002662D01*
X018727Y004662D02*
X018729Y004703D01*
X018735Y004744D01*
X018745Y004784D01*
X018758Y004823D01*
X018775Y004860D01*
X018796Y004896D01*
X018820Y004930D01*
X018847Y004961D01*
X018876Y004989D01*
X018909Y005015D01*
X018943Y005037D01*
X018980Y005056D01*
X019018Y005071D01*
X019058Y005083D01*
X019098Y005091D01*
X019139Y005095D01*
X019181Y005095D01*
X019222Y005091D01*
X019262Y005083D01*
X019302Y005071D01*
X019340Y005056D01*
X019376Y005037D01*
X019411Y005015D01*
X019444Y004989D01*
X019473Y004961D01*
X019500Y004930D01*
X019524Y004896D01*
X019545Y004860D01*
X019562Y004823D01*
X019575Y004784D01*
X019585Y004744D01*
X019591Y004703D01*
X019593Y004662D01*
X019591Y004621D01*
X019585Y004580D01*
X019575Y004540D01*
X019562Y004501D01*
X019545Y004464D01*
X019524Y004428D01*
X019500Y004394D01*
X019473Y004363D01*
X019444Y004335D01*
X019411Y004309D01*
X019377Y004287D01*
X019340Y004268D01*
X019302Y004253D01*
X019262Y004241D01*
X019222Y004233D01*
X019181Y004229D01*
X019139Y004229D01*
X019098Y004233D01*
X019058Y004241D01*
X019018Y004253D01*
X018980Y004268D01*
X018944Y004287D01*
X018909Y004309D01*
X018876Y004335D01*
X018847Y004363D01*
X018820Y004394D01*
X018796Y004428D01*
X018775Y004464D01*
X018758Y004501D01*
X018745Y004540D01*
X018735Y004580D01*
X018729Y004621D01*
X018727Y004662D01*
X018329Y002662D02*
X018435Y002664D01*
X018540Y002670D01*
X018645Y002680D01*
X018750Y002694D01*
X018854Y002711D01*
X018957Y002733D01*
X019060Y002758D01*
X019161Y002787D01*
X019261Y002820D01*
X019360Y002857D01*
X019458Y002898D01*
X019554Y002942D01*
X019648Y002989D01*
X019740Y003040D01*
X019831Y003095D01*
X019919Y003153D01*
X020005Y003214D01*
X020089Y003278D01*
X020170Y003345D01*
X020249Y003416D01*
X020325Y003489D01*
X020398Y003565D01*
X020469Y003644D01*
X020536Y003725D01*
X020600Y003809D01*
X020661Y003895D01*
X020719Y003983D01*
X020774Y004073D01*
X020825Y004166D01*
X020872Y004260D01*
X020916Y004356D01*
X020957Y004454D01*
X020994Y004553D01*
X021027Y004653D01*
X021056Y004754D01*
X021081Y004857D01*
X021103Y004960D01*
X021120Y005064D01*
X021134Y005169D01*
X021144Y005274D01*
X021150Y005379D01*
X021152Y005485D01*
X021152Y015916D01*
X018727Y017662D02*
X018729Y017703D01*
X018735Y017744D01*
X018745Y017784D01*
X018758Y017823D01*
X018775Y017860D01*
X018796Y017896D01*
X018820Y017930D01*
X018847Y017961D01*
X018876Y017989D01*
X018909Y018015D01*
X018943Y018037D01*
X018980Y018056D01*
X019018Y018071D01*
X019058Y018083D01*
X019098Y018091D01*
X019139Y018095D01*
X019181Y018095D01*
X019222Y018091D01*
X019262Y018083D01*
X019302Y018071D01*
X019340Y018056D01*
X019376Y018037D01*
X019411Y018015D01*
X019444Y017989D01*
X019473Y017961D01*
X019500Y017930D01*
X019524Y017896D01*
X019545Y017860D01*
X019562Y017823D01*
X019575Y017784D01*
X019585Y017744D01*
X019591Y017703D01*
X019593Y017662D01*
X019591Y017621D01*
X019585Y017580D01*
X019575Y017540D01*
X019562Y017501D01*
X019545Y017464D01*
X019524Y017428D01*
X019500Y017394D01*
X019473Y017363D01*
X019444Y017335D01*
X019411Y017309D01*
X019377Y017287D01*
X019340Y017268D01*
X019302Y017253D01*
X019262Y017241D01*
X019222Y017233D01*
X019181Y017229D01*
X019139Y017229D01*
X019098Y017233D01*
X019058Y017241D01*
X019018Y017253D01*
X018980Y017268D01*
X018944Y017287D01*
X018909Y017309D01*
X018876Y017335D01*
X018847Y017363D01*
X018820Y017394D01*
X018796Y017428D01*
X018775Y017464D01*
X018758Y017501D01*
X018745Y017540D01*
X018735Y017580D01*
X018729Y017621D01*
X018727Y017662D01*
X018036Y019032D02*
X003398Y019032D01*
X002227Y017662D02*
X002229Y017703D01*
X002235Y017744D01*
X002245Y017784D01*
X002258Y017823D01*
X002275Y017860D01*
X002296Y017896D01*
X002320Y017930D01*
X002347Y017961D01*
X002376Y017989D01*
X002409Y018015D01*
X002443Y018037D01*
X002480Y018056D01*
X002518Y018071D01*
X002558Y018083D01*
X002598Y018091D01*
X002639Y018095D01*
X002681Y018095D01*
X002722Y018091D01*
X002762Y018083D01*
X002802Y018071D01*
X002840Y018056D01*
X002876Y018037D01*
X002911Y018015D01*
X002944Y017989D01*
X002973Y017961D01*
X003000Y017930D01*
X003024Y017896D01*
X003045Y017860D01*
X003062Y017823D01*
X003075Y017784D01*
X003085Y017744D01*
X003091Y017703D01*
X003093Y017662D01*
X003091Y017621D01*
X003085Y017580D01*
X003075Y017540D01*
X003062Y017501D01*
X003045Y017464D01*
X003024Y017428D01*
X003000Y017394D01*
X002973Y017363D01*
X002944Y017335D01*
X002911Y017309D01*
X002877Y017287D01*
X002840Y017268D01*
X002802Y017253D01*
X002762Y017241D01*
X002722Y017233D01*
X002681Y017229D01*
X002639Y017229D01*
X002598Y017233D01*
X002558Y017241D01*
X002518Y017253D01*
X002480Y017268D01*
X002444Y017287D01*
X002409Y017309D01*
X002376Y017335D01*
X002347Y017363D01*
X002320Y017394D01*
X002296Y017428D01*
X002275Y017464D01*
X002258Y017501D01*
X002245Y017540D01*
X002235Y017580D01*
X002229Y017621D01*
X002227Y017662D01*
X003398Y019032D02*
X003296Y019030D01*
X003193Y019024D01*
X003091Y019015D01*
X002990Y019001D01*
X002889Y018984D01*
X002789Y018963D01*
X002689Y018939D01*
X002591Y018910D01*
X002494Y018878D01*
X002398Y018843D01*
X002303Y018804D01*
X002210Y018761D01*
X002119Y018715D01*
X002029Y018665D01*
X001941Y018612D01*
X001856Y018556D01*
X001772Y018497D01*
X001691Y018435D01*
X001612Y018369D01*
X001536Y018301D01*
X001462Y018230D01*
X001391Y018156D01*
X001323Y018080D01*
X001257Y018001D01*
X001195Y017920D01*
X001136Y017836D01*
X001080Y017751D01*
X001027Y017663D01*
X000977Y017573D01*
X000931Y017482D01*
X000888Y017389D01*
X000849Y017294D01*
X000814Y017198D01*
X000782Y017101D01*
X000753Y017003D01*
X000729Y016903D01*
X000708Y016803D01*
X000691Y016702D01*
X000677Y016601D01*
X000668Y016499D01*
X000662Y016396D01*
X000660Y016294D01*
X000660Y005162D01*
X002227Y004662D02*
X002229Y004703D01*
X002235Y004744D01*
X002245Y004784D01*
X002258Y004823D01*
X002275Y004860D01*
X002296Y004896D01*
X002320Y004930D01*
X002347Y004961D01*
X002376Y004989D01*
X002409Y005015D01*
X002443Y005037D01*
X002480Y005056D01*
X002518Y005071D01*
X002558Y005083D01*
X002598Y005091D01*
X002639Y005095D01*
X002681Y005095D01*
X002722Y005091D01*
X002762Y005083D01*
X002802Y005071D01*
X002840Y005056D01*
X002876Y005037D01*
X002911Y005015D01*
X002944Y004989D01*
X002973Y004961D01*
X003000Y004930D01*
X003024Y004896D01*
X003045Y004860D01*
X003062Y004823D01*
X003075Y004784D01*
X003085Y004744D01*
X003091Y004703D01*
X003093Y004662D01*
X003091Y004621D01*
X003085Y004580D01*
X003075Y004540D01*
X003062Y004501D01*
X003045Y004464D01*
X003024Y004428D01*
X003000Y004394D01*
X002973Y004363D01*
X002944Y004335D01*
X002911Y004309D01*
X002877Y004287D01*
X002840Y004268D01*
X002802Y004253D01*
X002762Y004241D01*
X002722Y004233D01*
X002681Y004229D01*
X002639Y004229D01*
X002598Y004233D01*
X002558Y004241D01*
X002518Y004253D01*
X002480Y004268D01*
X002444Y004287D01*
X002409Y004309D01*
X002376Y004335D01*
X002347Y004363D01*
X002320Y004394D01*
X002296Y004428D01*
X002275Y004464D01*
X002258Y004501D01*
X002245Y004540D01*
X002235Y004580D01*
X002229Y004621D01*
X002227Y004662D01*
X000660Y005162D02*
X000662Y005064D01*
X000668Y004966D01*
X000677Y004868D01*
X000691Y004771D01*
X000708Y004674D01*
X000729Y004578D01*
X000754Y004483D01*
X000782Y004389D01*
X000815Y004297D01*
X000850Y004205D01*
X000890Y004115D01*
X000932Y004027D01*
X000979Y003940D01*
X001028Y003856D01*
X001081Y003773D01*
X001137Y003693D01*
X001197Y003614D01*
X001259Y003538D01*
X001324Y003465D01*
X001392Y003394D01*
X001463Y003326D01*
X001536Y003261D01*
X001612Y003199D01*
X001691Y003139D01*
X001771Y003083D01*
X001854Y003030D01*
X001938Y002981D01*
X002025Y002934D01*
X002113Y002892D01*
X002203Y002852D01*
X002295Y002817D01*
X002387Y002784D01*
X002481Y002756D01*
X002576Y002731D01*
X002672Y002710D01*
X002769Y002693D01*
X002866Y002679D01*
X002964Y002670D01*
X003062Y002664D01*
X003160Y002662D01*
X007620Y004162D02*
X007622Y004204D01*
X007628Y004246D01*
X007638Y004288D01*
X007651Y004328D01*
X007669Y004367D01*
X007690Y004404D01*
X007714Y004438D01*
X007742Y004471D01*
X007772Y004501D01*
X007805Y004527D01*
X007840Y004551D01*
X007878Y004571D01*
X007917Y004587D01*
X007957Y004600D01*
X007999Y004609D01*
X008041Y004614D01*
X008084Y004615D01*
X008126Y004612D01*
X008168Y004605D01*
X008209Y004594D01*
X008249Y004579D01*
X008287Y004561D01*
X008324Y004539D01*
X008358Y004514D01*
X008390Y004486D01*
X008418Y004455D01*
X008444Y004421D01*
X008467Y004385D01*
X008486Y004348D01*
X008502Y004308D01*
X008514Y004267D01*
X008522Y004226D01*
X008526Y004183D01*
X008526Y004141D01*
X008522Y004098D01*
X008514Y004057D01*
X008502Y004016D01*
X008486Y003976D01*
X008467Y003939D01*
X008444Y003903D01*
X008418Y003869D01*
X008390Y003838D01*
X008358Y003810D01*
X008324Y003785D01*
X008287Y003763D01*
X008249Y003745D01*
X008209Y003730D01*
X008168Y003719D01*
X008126Y003712D01*
X008084Y003709D01*
X008041Y003710D01*
X007999Y003715D01*
X007957Y003724D01*
X007917Y003737D01*
X007878Y003753D01*
X007840Y003773D01*
X007805Y003797D01*
X007772Y003823D01*
X007742Y003853D01*
X007714Y003886D01*
X007690Y003920D01*
X007669Y003957D01*
X007651Y003996D01*
X007638Y004036D01*
X007628Y004078D01*
X007622Y004120D01*
X007620Y004162D01*
X012794Y004162D02*
X012796Y004204D01*
X012802Y004246D01*
X012812Y004288D01*
X012825Y004328D01*
X012843Y004367D01*
X012864Y004404D01*
X012888Y004438D01*
X012916Y004471D01*
X012946Y004501D01*
X012979Y004527D01*
X013014Y004551D01*
X013052Y004571D01*
X013091Y004587D01*
X013131Y004600D01*
X013173Y004609D01*
X013215Y004614D01*
X013258Y004615D01*
X013300Y004612D01*
X013342Y004605D01*
X013383Y004594D01*
X013423Y004579D01*
X013461Y004561D01*
X013498Y004539D01*
X013532Y004514D01*
X013564Y004486D01*
X013592Y004455D01*
X013618Y004421D01*
X013641Y004385D01*
X013660Y004348D01*
X013676Y004308D01*
X013688Y004267D01*
X013696Y004226D01*
X013700Y004183D01*
X013700Y004141D01*
X013696Y004098D01*
X013688Y004057D01*
X013676Y004016D01*
X013660Y003976D01*
X013641Y003939D01*
X013618Y003903D01*
X013592Y003869D01*
X013564Y003838D01*
X013532Y003810D01*
X013498Y003785D01*
X013461Y003763D01*
X013423Y003745D01*
X013383Y003730D01*
X013342Y003719D01*
X013300Y003712D01*
X013258Y003709D01*
X013215Y003710D01*
X013173Y003715D01*
X013131Y003724D01*
X013091Y003737D01*
X013052Y003753D01*
X013014Y003773D01*
X012979Y003797D01*
X012946Y003823D01*
X012916Y003853D01*
X012888Y003886D01*
X012864Y003920D01*
X012843Y003957D01*
X012825Y003996D01*
X012812Y004036D01*
X012802Y004078D01*
X012796Y004120D01*
X012794Y004162D01*
X021152Y015916D02*
X021150Y016027D01*
X021144Y016138D01*
X021134Y016249D01*
X021120Y016359D01*
X021102Y016469D01*
X021081Y016578D01*
X021055Y016687D01*
X021026Y016794D01*
X020993Y016900D01*
X020956Y017005D01*
X020915Y017108D01*
X020870Y017210D01*
X020822Y017311D01*
X020771Y017409D01*
X020716Y017506D01*
X020657Y017601D01*
X020596Y017693D01*
X020530Y017783D01*
X020462Y017871D01*
X020391Y017957D01*
X020317Y018039D01*
X020239Y018119D01*
X020159Y018197D01*
X020077Y018271D01*
X019991Y018342D01*
X019903Y018410D01*
X019813Y018476D01*
X019721Y018537D01*
X019626Y018596D01*
X019529Y018651D01*
X019431Y018702D01*
X019330Y018750D01*
X019228Y018795D01*
X019125Y018836D01*
X019020Y018873D01*
X018914Y018906D01*
X018807Y018935D01*
X018698Y018961D01*
X018589Y018982D01*
X018479Y019000D01*
X018369Y019014D01*
X018258Y019024D01*
X018147Y019030D01*
X018036Y019032D01*
D11*
X012160Y016462D02*
X012160Y015862D01*
X012158Y015845D01*
X012154Y015828D01*
X012147Y015812D01*
X012137Y015798D01*
X012124Y015785D01*
X012110Y015775D01*
X012094Y015768D01*
X012077Y015764D01*
X012060Y015762D01*
X011910Y015762D01*
X011860Y015812D01*
X010460Y015812D01*
X010410Y015762D01*
X010260Y015762D01*
X010243Y015764D01*
X010226Y015768D01*
X010210Y015775D01*
X010196Y015785D01*
X010183Y015798D01*
X010173Y015812D01*
X010166Y015828D01*
X010162Y015845D01*
X010160Y015862D01*
X010160Y016462D01*
X010162Y016479D01*
X010166Y016496D01*
X010173Y016512D01*
X010183Y016526D01*
X010196Y016539D01*
X010210Y016549D01*
X010226Y016556D01*
X010243Y016560D01*
X010260Y016562D01*
X010410Y016562D01*
X010460Y016512D01*
X011860Y016512D01*
X011910Y016562D01*
X012060Y016562D01*
X012077Y016560D01*
X012094Y016556D01*
X012110Y016549D01*
X012124Y016539D01*
X012137Y016526D01*
X012147Y016512D01*
X012154Y016496D01*
X012158Y016479D01*
X012160Y016462D01*
X012310Y013662D02*
X011560Y013662D01*
X011558Y013623D01*
X011552Y013584D01*
X011543Y013546D01*
X011530Y013509D01*
X011513Y013473D01*
X011493Y013440D01*
X011469Y013408D01*
X011443Y013379D01*
X011414Y013353D01*
X011382Y013329D01*
X011349Y013309D01*
X011313Y013292D01*
X011276Y013279D01*
X011238Y013270D01*
X011199Y013264D01*
X011160Y013262D01*
X011121Y013264D01*
X011082Y013270D01*
X011044Y013279D01*
X011007Y013292D01*
X010971Y013309D01*
X010938Y013329D01*
X010906Y013353D01*
X010877Y013379D01*
X010851Y013408D01*
X010827Y013440D01*
X010807Y013473D01*
X010790Y013509D01*
X010777Y013546D01*
X010768Y013584D01*
X010762Y013623D01*
X010760Y013662D01*
X010010Y013662D01*
X010010Y009662D01*
X012310Y009662D01*
X012310Y013662D01*
X004560Y013062D02*
X004560Y012912D01*
X004510Y012862D01*
X004510Y011462D01*
X004560Y011412D01*
X004560Y011262D01*
X004558Y011245D01*
X004554Y011228D01*
X004547Y011212D01*
X004537Y011198D01*
X004524Y011185D01*
X004510Y011175D01*
X004494Y011168D01*
X004477Y011164D01*
X004460Y011162D01*
X003860Y011162D01*
X003843Y011164D01*
X003826Y011168D01*
X003810Y011175D01*
X003796Y011185D01*
X003783Y011198D01*
X003773Y011212D01*
X003766Y011228D01*
X003762Y011245D01*
X003760Y011262D01*
X003760Y011412D01*
X003810Y011462D01*
X003810Y012862D01*
X003760Y012912D01*
X003760Y013062D01*
X003762Y013079D01*
X003766Y013096D01*
X003773Y013112D01*
X003783Y013126D01*
X003796Y013139D01*
X003810Y013149D01*
X003826Y013156D01*
X003843Y013160D01*
X003860Y013162D01*
X004460Y013162D01*
X004477Y013160D01*
X004494Y013156D01*
X004510Y013149D01*
X004524Y013139D01*
X004537Y013126D01*
X004547Y013112D01*
X004554Y013096D01*
X004558Y013079D01*
X004560Y013062D01*
X008660Y003032D02*
X009160Y000729D01*
X009660Y000729D01*
X010160Y003032D01*
X011160Y003032D02*
X011660Y000729D01*
X012160Y000729D01*
X012660Y003032D01*
D12*
X011103Y013787D02*
X010802Y013787D01*
X010952Y013787D02*
X010952Y014237D01*
X010802Y014087D01*
X010642Y014162D02*
X010567Y014237D01*
X010417Y014237D01*
X010342Y014162D01*
X010342Y013862D01*
X010417Y013787D01*
X010567Y013787D01*
X010642Y013862D01*
X010185Y013787D02*
X010035Y013787D01*
X010110Y013787D02*
X010110Y014237D01*
X010035Y014237D02*
X010185Y014237D01*
D13*
X011462Y015282D02*
X011462Y015632D01*
X011637Y015632D01*
X011695Y015574D01*
X011695Y015457D01*
X011637Y015399D01*
X011462Y015399D01*
X011579Y015399D02*
X011695Y015282D01*
X011821Y015282D02*
X012054Y015515D01*
X012054Y015574D01*
X011996Y015632D01*
X011879Y015632D01*
X011821Y015574D01*
X011821Y015282D02*
X012054Y015282D01*
X015930Y012625D02*
X016390Y012625D01*
X016390Y012778D02*
X016390Y012471D01*
X016313Y012318D02*
X016390Y012241D01*
X016390Y012088D01*
X016313Y012011D01*
X016006Y012011D01*
X015930Y012088D01*
X015930Y012241D01*
X016006Y012318D01*
X016083Y012471D02*
X015930Y012625D01*
X017930Y012702D02*
X017930Y012548D01*
X018006Y012471D01*
X018006Y012318D02*
X017930Y012241D01*
X017930Y012088D01*
X018006Y012011D01*
X018313Y012011D01*
X018390Y012088D01*
X018390Y012241D01*
X018313Y012318D01*
X018390Y012471D02*
X018083Y012778D01*
X018006Y012778D01*
X017930Y012702D01*
X018390Y012778D02*
X018390Y012471D01*
X008447Y006182D02*
X008140Y006182D01*
X007987Y006182D02*
X007680Y006642D01*
X007987Y006642D02*
X007680Y006182D01*
X008140Y006489D02*
X008294Y006642D01*
X008294Y006182D01*
X005040Y012464D02*
X004690Y012464D01*
X004690Y012639D01*
X004748Y012697D01*
X004865Y012697D01*
X004923Y012639D01*
X004923Y012464D01*
X004923Y012580D02*
X005040Y012697D01*
X005040Y012823D02*
X005040Y013056D01*
X005040Y012939D02*
X004690Y012939D01*
X004806Y012823D01*
D14*
X004160Y013237D03*
X004160Y011087D03*
D15*
X010085Y016162D03*
X012235Y016162D03*
D16*
X013573Y005780D02*
X007747Y005780D01*
X007747Y000150D01*
X013573Y000150D01*
X013573Y005780D01*
D17*
X012298Y004494D02*
X012298Y004319D01*
X012300Y004122D02*
X012103Y004122D01*
X012103Y004319D02*
X012076Y004317D01*
X012050Y004312D01*
X012025Y004303D01*
X012001Y004290D01*
X011979Y004275D01*
X011959Y004256D01*
X011942Y004236D01*
X011928Y004213D01*
X011917Y004188D01*
X011910Y004162D01*
X011906Y004135D01*
X011906Y004109D01*
X011910Y004082D01*
X011917Y004056D01*
X011928Y004031D01*
X011942Y004008D01*
X011959Y003988D01*
X011979Y003969D01*
X012001Y003954D01*
X012025Y003941D01*
X012050Y003932D01*
X012076Y003927D01*
X012103Y003925D01*
X012103Y003926D02*
X012103Y004122D01*
X012004Y004516D02*
X011965Y004514D01*
X011927Y004508D01*
X011890Y004499D01*
X011853Y004486D01*
X011818Y004469D01*
X011785Y004450D01*
X011754Y004427D01*
X011725Y004401D01*
X011699Y004372D01*
X011676Y004341D01*
X011657Y004308D01*
X011640Y004273D01*
X011627Y004236D01*
X011618Y004199D01*
X011612Y004161D01*
X011610Y004122D01*
X011612Y004083D01*
X011618Y004045D01*
X011627Y004008D01*
X011640Y003971D01*
X011657Y003936D01*
X011676Y003903D01*
X011699Y003872D01*
X011725Y003843D01*
X011754Y003817D01*
X011785Y003794D01*
X011818Y003775D01*
X011853Y003758D01*
X011890Y003745D01*
X011927Y003736D01*
X011965Y003730D01*
X012004Y003728D01*
X012103Y004319D02*
X012152Y004324D01*
X012201Y004326D01*
X012250Y004324D01*
X012299Y004319D01*
X012300Y004122D02*
X012300Y003778D01*
X012304Y004495D02*
X012230Y004506D01*
X012155Y004513D01*
X012080Y004517D01*
X012005Y004516D01*
X012004Y003729D02*
X012064Y003731D01*
X012124Y003737D01*
X012183Y003747D01*
X012242Y003761D01*
X012299Y003778D01*
X011512Y003729D02*
X011316Y004024D01*
X011168Y004172D02*
X011020Y004172D01*
X011020Y004319D01*
X011168Y004319D01*
X011183Y004317D01*
X011198Y004313D01*
X011211Y004305D01*
X011223Y004295D01*
X011232Y004282D01*
X011238Y004268D01*
X011242Y004253D01*
X011242Y004237D01*
X011238Y004222D01*
X011232Y004208D01*
X011223Y004195D01*
X011211Y004185D01*
X011198Y004177D01*
X011183Y004173D01*
X011168Y004171D01*
X011316Y004024D02*
X011346Y004026D01*
X011375Y004031D01*
X011403Y004040D01*
X011430Y004052D01*
X011456Y004068D01*
X011479Y004086D01*
X011500Y004107D01*
X011518Y004130D01*
X011534Y004156D01*
X011546Y004183D01*
X011555Y004211D01*
X011560Y004240D01*
X011562Y004270D01*
X011560Y004300D01*
X011555Y004329D01*
X011546Y004357D01*
X011534Y004384D01*
X011518Y004410D01*
X011500Y004433D01*
X011479Y004454D01*
X011456Y004472D01*
X011430Y004488D01*
X011403Y004500D01*
X011375Y004509D01*
X011346Y004514D01*
X011316Y004516D01*
X010774Y004516D01*
X010774Y003729D01*
X011020Y003729D01*
X011020Y004024D01*
X011217Y003729D01*
X011512Y003729D01*
X010676Y003729D02*
X010676Y003926D01*
X010233Y003926D01*
X010233Y004024D01*
X010676Y004024D01*
X010676Y004221D01*
X010233Y004221D01*
X010233Y004319D01*
X010676Y004319D01*
X010676Y004516D01*
X009987Y004516D01*
X009987Y003729D01*
X010676Y003729D01*
X009691Y003729D02*
X009396Y003729D01*
X009691Y003926D01*
X009691Y003729D02*
X009718Y003731D01*
X009744Y003736D01*
X009769Y003745D01*
X009793Y003758D01*
X009815Y003773D01*
X009835Y003792D01*
X009852Y003812D01*
X009866Y003835D01*
X009877Y003860D01*
X009884Y003886D01*
X009888Y003913D01*
X009888Y003939D01*
X009884Y003966D01*
X009877Y003992D01*
X009866Y004017D01*
X009852Y004040D01*
X009835Y004060D01*
X009815Y004079D01*
X009793Y004094D01*
X009769Y004107D01*
X009744Y004116D01*
X009718Y004121D01*
X009691Y004123D01*
X009691Y004122D02*
X009718Y004124D01*
X009744Y004129D01*
X009769Y004138D01*
X009793Y004151D01*
X009815Y004166D01*
X009835Y004185D01*
X009852Y004205D01*
X009866Y004228D01*
X009877Y004253D01*
X009884Y004279D01*
X009888Y004306D01*
X009888Y004332D01*
X009884Y004359D01*
X009877Y004385D01*
X009866Y004410D01*
X009852Y004433D01*
X009835Y004453D01*
X009815Y004472D01*
X009793Y004487D01*
X009769Y004500D01*
X009744Y004509D01*
X009718Y004514D01*
X009691Y004516D01*
X009396Y004516D01*
X009691Y004319D01*
X009396Y004122D01*
X009691Y003926D01*
X009396Y003729D02*
X009396Y004122D01*
X009396Y004516D01*
X009150Y004516D01*
X009150Y003729D01*
X009396Y003729D01*
D18*
X009460Y003514D02*
X009460Y003364D01*
X009560Y003364D01*
X009754Y003364D02*
X009754Y003514D01*
X009854Y003514D01*
X009804Y003439D02*
X009754Y003439D01*
X009754Y003364D02*
X009854Y003364D01*
X010049Y003389D02*
X010049Y003489D01*
X010074Y003514D01*
X010124Y003514D01*
X010149Y003489D01*
X010149Y003389D02*
X010124Y003364D01*
X010074Y003364D01*
X010049Y003389D01*
X010344Y003514D02*
X010444Y003514D01*
X010394Y003514D02*
X010394Y003364D01*
X010638Y003364D02*
X010638Y003514D01*
X010713Y003514D01*
X010738Y003489D01*
X010738Y003439D01*
X010713Y003414D01*
X010638Y003414D01*
X010688Y003414D02*
X010738Y003364D01*
X010933Y003389D02*
X010933Y003489D01*
X010958Y003514D01*
X011008Y003514D01*
X011033Y003489D01*
X011033Y003389D01*
X011008Y003364D01*
X010958Y003364D01*
X010933Y003389D01*
X011228Y003364D02*
X011228Y003514D01*
X011328Y003364D01*
X011328Y003514D01*
X011522Y003514D02*
X011572Y003514D01*
X011547Y003514D02*
X011547Y003364D01*
X011522Y003364D02*
X011572Y003364D01*
X011768Y003389D02*
X011768Y003489D01*
X011793Y003514D01*
X011843Y003514D01*
X011868Y003489D01*
X011868Y003389D02*
X011843Y003364D01*
X011793Y003364D01*
X011768Y003389D01*
X012062Y003389D02*
X012087Y003364D01*
X012137Y003364D01*
X012162Y003389D01*
X012162Y003414D01*
X012137Y003439D01*
X012087Y003439D01*
X012062Y003464D01*
X012062Y003489D01*
X012087Y003514D01*
X012137Y003514D01*
X012162Y003489D01*
X009265Y003514D02*
X009165Y003514D01*
X009165Y003364D01*
X009265Y003364D01*
X009215Y003439D02*
X009165Y003439D01*
M02*
