G75*
%MOIN*%
%OFA0B0*%
%FSLAX24Y24*%
%IPPOS*%
%LPD*%
%AMOC8*
5,1,8,0,0,1.08239X$1,22.5*
%
%ADD10C,0.0000*%
%ADD11C,0.0160*%
%ADD12R,0.6940X0.5270*%
%ADD13R,0.0360X0.0760*%
%ADD14R,0.0340X0.0720*%
%ADD15R,0.0170X0.1550*%
%ADD16R,0.0210X0.1090*%
%ADD17R,0.0660X0.0150*%
%ADD18R,0.2430X0.0210*%
%ADD19R,0.2380X0.0420*%
%ADD20R,0.1060X0.0730*%
%ADD21R,0.1050X0.2280*%
%ADD22R,0.0330X0.1480*%
%ADD23R,0.1360X0.0490*%
%ADD24R,0.0200X0.0400*%
D10*
X001524Y001080D02*
X009961Y001080D01*
X010006Y001082D01*
X010050Y001087D01*
X010093Y001096D01*
X010136Y001109D01*
X010178Y001125D01*
X010218Y001145D01*
X010256Y001168D01*
X010292Y001194D01*
X010326Y001222D01*
X010358Y001254D01*
X010386Y001288D01*
X010412Y001324D01*
X010435Y001362D01*
X010455Y001402D01*
X010471Y001444D01*
X010484Y001487D01*
X010493Y001530D01*
X010498Y001574D01*
X010500Y001619D01*
X010500Y008856D01*
X010498Y008895D01*
X010493Y008934D01*
X010484Y008972D01*
X010471Y009009D01*
X010456Y009045D01*
X010436Y009079D01*
X010414Y009112D01*
X010389Y009142D01*
X010362Y009169D01*
X010332Y009194D01*
X010299Y009216D01*
X010265Y009236D01*
X010229Y009251D01*
X010192Y009264D01*
X010154Y009273D01*
X010115Y009278D01*
X010076Y009280D01*
X001600Y009280D01*
X001556Y009278D01*
X001513Y009272D01*
X001471Y009263D01*
X001429Y009250D01*
X001389Y009233D01*
X001350Y009213D01*
X001313Y009190D01*
X001279Y009163D01*
X001246Y009134D01*
X001217Y009101D01*
X001190Y009067D01*
X001167Y009030D01*
X001147Y008991D01*
X001130Y008951D01*
X001117Y008909D01*
X001108Y008867D01*
X001102Y008824D01*
X001100Y008780D01*
X001100Y001504D01*
X001102Y001465D01*
X001107Y001426D01*
X001116Y001388D01*
X001129Y001351D01*
X001144Y001315D01*
X001164Y001281D01*
X001186Y001248D01*
X001211Y001218D01*
X001238Y001191D01*
X001268Y001166D01*
X001301Y001144D01*
X001335Y001124D01*
X001371Y001109D01*
X001408Y001096D01*
X001446Y001087D01*
X001485Y001082D01*
X001524Y001080D01*
X008149Y001636D02*
X008151Y001675D01*
X008157Y001714D01*
X008167Y001752D01*
X008180Y001789D01*
X008197Y001824D01*
X008217Y001858D01*
X008241Y001889D01*
X008268Y001918D01*
X008297Y001944D01*
X008329Y001967D01*
X008363Y001987D01*
X008399Y002003D01*
X008436Y002015D01*
X008475Y002024D01*
X008514Y002029D01*
X008553Y002030D01*
X008592Y002027D01*
X008631Y002020D01*
X008668Y002009D01*
X008705Y001995D01*
X008740Y001977D01*
X008773Y001956D01*
X008804Y001931D01*
X008832Y001904D01*
X008857Y001874D01*
X008879Y001841D01*
X008898Y001807D01*
X008913Y001771D01*
X008925Y001733D01*
X008933Y001695D01*
X008937Y001656D01*
X008937Y001616D01*
X008933Y001577D01*
X008925Y001539D01*
X008913Y001501D01*
X008898Y001465D01*
X008879Y001431D01*
X008857Y001398D01*
X008832Y001368D01*
X008804Y001341D01*
X008773Y001316D01*
X008740Y001295D01*
X008705Y001277D01*
X008668Y001263D01*
X008631Y001252D01*
X008592Y001245D01*
X008553Y001242D01*
X008514Y001243D01*
X008475Y001248D01*
X008436Y001257D01*
X008399Y001269D01*
X008363Y001285D01*
X008329Y001305D01*
X008297Y001328D01*
X008268Y001354D01*
X008241Y001383D01*
X008217Y001414D01*
X008197Y001448D01*
X008180Y001483D01*
X008167Y001520D01*
X008157Y001558D01*
X008151Y001597D01*
X008149Y001636D01*
X008149Y008724D02*
X008151Y008763D01*
X008157Y008802D01*
X008167Y008840D01*
X008180Y008877D01*
X008197Y008912D01*
X008217Y008946D01*
X008241Y008977D01*
X008268Y009006D01*
X008297Y009032D01*
X008329Y009055D01*
X008363Y009075D01*
X008399Y009091D01*
X008436Y009103D01*
X008475Y009112D01*
X008514Y009117D01*
X008553Y009118D01*
X008592Y009115D01*
X008631Y009108D01*
X008668Y009097D01*
X008705Y009083D01*
X008740Y009065D01*
X008773Y009044D01*
X008804Y009019D01*
X008832Y008992D01*
X008857Y008962D01*
X008879Y008929D01*
X008898Y008895D01*
X008913Y008859D01*
X008925Y008821D01*
X008933Y008783D01*
X008937Y008744D01*
X008937Y008704D01*
X008933Y008665D01*
X008925Y008627D01*
X008913Y008589D01*
X008898Y008553D01*
X008879Y008519D01*
X008857Y008486D01*
X008832Y008456D01*
X008804Y008429D01*
X008773Y008404D01*
X008740Y008383D01*
X008705Y008365D01*
X008668Y008351D01*
X008631Y008340D01*
X008592Y008333D01*
X008553Y008330D01*
X008514Y008331D01*
X008475Y008336D01*
X008436Y008345D01*
X008399Y008357D01*
X008363Y008373D01*
X008329Y008393D01*
X008297Y008416D01*
X008268Y008442D01*
X008241Y008471D01*
X008217Y008502D01*
X008197Y008536D01*
X008180Y008571D01*
X008167Y008608D01*
X008157Y008646D01*
X008151Y008685D01*
X008149Y008724D01*
D11*
X009300Y007680D02*
X002600Y007680D01*
X002600Y002680D01*
X009300Y002680D01*
X009300Y007680D01*
D12*
X005950Y005175D03*
D13*
X002340Y006070D03*
D14*
X002310Y004320D03*
D15*
X001955Y002195D03*
D16*
X001975Y007955D03*
D17*
X002200Y008425D03*
D18*
X004285Y008455D03*
D19*
X004290Y008190D03*
D20*
X009640Y008635D03*
D21*
X009905Y005100D03*
D22*
X003325Y001840D03*
D23*
X002550Y001355D03*
D24*
X002100Y001680D03*
M02*
