G75*
%MOIN*%
%OFA0B0*%
%FSLAX24Y24*%
%IPPOS*%
%LPD*%
%AMOC8*
5,1,8,0,0,1.08239X$1,22.5*
%
%ADD10C,0.0000*%
%ADD11C,0.0160*%
%ADD12C,0.0930*%
%ADD13OC8,0.0630*%
%ADD14OC8,0.0520*%
%ADD15C,0.0320*%
%ADD16C,0.0120*%
D10*
X001524Y001080D02*
X009961Y001080D01*
X010006Y001082D01*
X010050Y001087D01*
X010093Y001096D01*
X010136Y001109D01*
X010178Y001125D01*
X010218Y001145D01*
X010256Y001168D01*
X010292Y001194D01*
X010326Y001222D01*
X010358Y001254D01*
X010386Y001288D01*
X010412Y001324D01*
X010435Y001362D01*
X010455Y001402D01*
X010471Y001444D01*
X010484Y001487D01*
X010493Y001530D01*
X010498Y001574D01*
X010500Y001619D01*
X010500Y008856D01*
X010498Y008895D01*
X010493Y008934D01*
X010484Y008972D01*
X010471Y009009D01*
X010456Y009045D01*
X010436Y009079D01*
X010414Y009112D01*
X010389Y009142D01*
X010362Y009169D01*
X010332Y009194D01*
X010299Y009216D01*
X010265Y009236D01*
X010229Y009251D01*
X010192Y009264D01*
X010154Y009273D01*
X010115Y009278D01*
X010076Y009280D01*
X001600Y009280D01*
X001556Y009278D01*
X001513Y009272D01*
X001471Y009263D01*
X001429Y009250D01*
X001389Y009233D01*
X001350Y009213D01*
X001313Y009190D01*
X001279Y009163D01*
X001246Y009134D01*
X001217Y009101D01*
X001190Y009067D01*
X001167Y009030D01*
X001147Y008991D01*
X001130Y008951D01*
X001117Y008909D01*
X001108Y008867D01*
X001102Y008824D01*
X001100Y008780D01*
X001100Y001504D01*
X001102Y001465D01*
X001107Y001426D01*
X001116Y001388D01*
X001129Y001351D01*
X001144Y001315D01*
X001164Y001281D01*
X001186Y001248D01*
X001211Y001218D01*
X001238Y001191D01*
X001268Y001166D01*
X001301Y001144D01*
X001335Y001124D01*
X001371Y001109D01*
X001408Y001096D01*
X001446Y001087D01*
X001485Y001082D01*
X001524Y001080D01*
X008149Y001636D02*
X008151Y001675D01*
X008157Y001714D01*
X008167Y001752D01*
X008180Y001789D01*
X008197Y001824D01*
X008217Y001858D01*
X008241Y001889D01*
X008268Y001918D01*
X008297Y001944D01*
X008329Y001967D01*
X008363Y001987D01*
X008399Y002003D01*
X008436Y002015D01*
X008475Y002024D01*
X008514Y002029D01*
X008553Y002030D01*
X008592Y002027D01*
X008631Y002020D01*
X008668Y002009D01*
X008705Y001995D01*
X008740Y001977D01*
X008773Y001956D01*
X008804Y001931D01*
X008832Y001904D01*
X008857Y001874D01*
X008879Y001841D01*
X008898Y001807D01*
X008913Y001771D01*
X008925Y001733D01*
X008933Y001695D01*
X008937Y001656D01*
X008937Y001616D01*
X008933Y001577D01*
X008925Y001539D01*
X008913Y001501D01*
X008898Y001465D01*
X008879Y001431D01*
X008857Y001398D01*
X008832Y001368D01*
X008804Y001341D01*
X008773Y001316D01*
X008740Y001295D01*
X008705Y001277D01*
X008668Y001263D01*
X008631Y001252D01*
X008592Y001245D01*
X008553Y001242D01*
X008514Y001243D01*
X008475Y001248D01*
X008436Y001257D01*
X008399Y001269D01*
X008363Y001285D01*
X008329Y001305D01*
X008297Y001328D01*
X008268Y001354D01*
X008241Y001383D01*
X008217Y001414D01*
X008197Y001448D01*
X008180Y001483D01*
X008167Y001520D01*
X008157Y001558D01*
X008151Y001597D01*
X008149Y001636D01*
X008149Y008724D02*
X008151Y008763D01*
X008157Y008802D01*
X008167Y008840D01*
X008180Y008877D01*
X008197Y008912D01*
X008217Y008946D01*
X008241Y008977D01*
X008268Y009006D01*
X008297Y009032D01*
X008329Y009055D01*
X008363Y009075D01*
X008399Y009091D01*
X008436Y009103D01*
X008475Y009112D01*
X008514Y009117D01*
X008553Y009118D01*
X008592Y009115D01*
X008631Y009108D01*
X008668Y009097D01*
X008705Y009083D01*
X008740Y009065D01*
X008773Y009044D01*
X008804Y009019D01*
X008832Y008992D01*
X008857Y008962D01*
X008879Y008929D01*
X008898Y008895D01*
X008913Y008859D01*
X008925Y008821D01*
X008933Y008783D01*
X008937Y008744D01*
X008937Y008704D01*
X008933Y008665D01*
X008925Y008627D01*
X008913Y008589D01*
X008898Y008553D01*
X008879Y008519D01*
X008857Y008486D01*
X008832Y008456D01*
X008804Y008429D01*
X008773Y008404D01*
X008740Y008383D01*
X008705Y008365D01*
X008668Y008351D01*
X008631Y008340D01*
X008592Y008333D01*
X008553Y008330D01*
X008514Y008331D01*
X008475Y008336D01*
X008436Y008345D01*
X008399Y008357D01*
X008363Y008373D01*
X008329Y008393D01*
X008297Y008416D01*
X008268Y008442D01*
X008241Y008471D01*
X008217Y008502D01*
X008197Y008536D01*
X008180Y008571D01*
X008167Y008608D01*
X008157Y008646D01*
X008151Y008685D01*
X008149Y008724D01*
D11*
X009300Y007680D02*
X002600Y007680D01*
X002600Y002680D01*
X009300Y002680D01*
X009300Y007680D01*
X006700Y008230D02*
X005800Y008230D01*
X002800Y008230D02*
X002222Y008230D01*
X002222Y006920D01*
D12*
X002222Y006920D03*
X002222Y005180D03*
X002222Y003440D03*
X009600Y003440D03*
X009600Y006920D03*
D13*
X006700Y008230D03*
X002700Y002000D03*
X001500Y001680D03*
D14*
X002800Y008230D03*
X005800Y008230D03*
D15*
X007600Y008080D02*
X007600Y008930D01*
X001500Y008930D01*
X001500Y005180D01*
X002222Y005180D01*
X001500Y005180D02*
X001500Y001680D01*
X002232Y002030D02*
X002222Y003440D01*
X002232Y002030D02*
X002700Y002000D01*
X009600Y006920D02*
X009600Y008080D01*
X007600Y008080D01*
D16*
X007819Y008240D02*
X007839Y008220D01*
X007175Y008220D01*
X007175Y008427D01*
X006897Y008705D01*
X006503Y008705D01*
X006268Y008470D01*
X006154Y008470D01*
X005974Y008650D01*
X005626Y008650D01*
X005380Y008404D01*
X005380Y008220D01*
X003220Y008220D01*
X003220Y008404D01*
X002974Y008650D01*
X002626Y008650D01*
X002446Y008470D01*
X002174Y008470D01*
X002086Y008433D01*
X002019Y008366D01*
X001982Y008278D01*
X001982Y007497D01*
X001868Y007450D01*
X001692Y007274D01*
X001597Y007044D01*
X001597Y006796D01*
X001692Y006566D01*
X001868Y006390D01*
X002060Y006311D01*
X002060Y004049D01*
X001868Y003970D01*
X001692Y003794D01*
X001597Y003564D01*
X001597Y003316D01*
X001692Y003086D01*
X001868Y002910D01*
X001906Y002894D01*
X001912Y002039D01*
X001909Y001987D01*
X001912Y001976D01*
X001913Y001964D01*
X001933Y001916D01*
X001950Y001866D01*
X001957Y001858D01*
X001962Y001847D01*
X001999Y001810D01*
X002034Y001771D01*
X002044Y001766D01*
X002053Y001757D01*
X002074Y001749D01*
X002082Y001540D01*
X001560Y001540D01*
X001560Y008780D01*
X001560Y008786D01*
X001564Y008798D01*
X001572Y008808D01*
X001582Y008816D01*
X001594Y008820D01*
X001600Y008820D01*
X007689Y008820D01*
X007689Y008554D01*
X007819Y008240D01*
X007811Y008261D02*
X007175Y008261D01*
X007175Y008380D02*
X007762Y008380D01*
X007713Y008498D02*
X007104Y008498D01*
X006985Y008617D02*
X007689Y008617D01*
X007689Y008735D02*
X001560Y008735D01*
X001560Y008617D02*
X002593Y008617D01*
X002474Y008498D02*
X001560Y008498D01*
X001560Y008380D02*
X002032Y008380D01*
X001982Y008261D02*
X001560Y008261D01*
X001560Y008143D02*
X001982Y008143D01*
X001982Y008024D02*
X001560Y008024D01*
X001560Y007906D02*
X001982Y007906D01*
X001982Y007787D02*
X001560Y007787D01*
X001560Y007669D02*
X001982Y007669D01*
X001982Y007550D02*
X001560Y007550D01*
X001560Y007432D02*
X001850Y007432D01*
X001731Y007313D02*
X001560Y007313D01*
X001560Y007195D02*
X001659Y007195D01*
X001610Y007076D02*
X001560Y007076D01*
X001560Y006958D02*
X001597Y006958D01*
X001597Y006839D02*
X001560Y006839D01*
X001560Y006721D02*
X001628Y006721D01*
X001677Y006602D02*
X001560Y006602D01*
X001560Y006484D02*
X001775Y006484D01*
X001929Y006365D02*
X001560Y006365D01*
X001560Y006247D02*
X002060Y006247D01*
X002060Y006128D02*
X001560Y006128D01*
X001560Y006010D02*
X002060Y006010D01*
X002060Y005891D02*
X001560Y005891D01*
X001560Y005773D02*
X002060Y005773D01*
X002060Y005654D02*
X001560Y005654D01*
X001560Y005536D02*
X002060Y005536D01*
X002060Y005417D02*
X001560Y005417D01*
X001560Y005299D02*
X002060Y005299D01*
X002060Y005180D02*
X001560Y005180D01*
X001560Y005061D02*
X002060Y005061D01*
X002060Y004943D02*
X001560Y004943D01*
X001560Y004824D02*
X002060Y004824D01*
X002060Y004706D02*
X001560Y004706D01*
X001560Y004587D02*
X002060Y004587D01*
X002060Y004469D02*
X001560Y004469D01*
X001560Y004350D02*
X002060Y004350D01*
X002060Y004232D02*
X001560Y004232D01*
X001560Y004113D02*
X002060Y004113D01*
X001929Y003995D02*
X001560Y003995D01*
X001560Y003876D02*
X001775Y003876D01*
X001677Y003758D02*
X001560Y003758D01*
X001560Y003639D02*
X001628Y003639D01*
X001597Y003521D02*
X001560Y003521D01*
X001560Y003402D02*
X001597Y003402D01*
X001610Y003284D02*
X001560Y003284D01*
X001560Y003165D02*
X001659Y003165D01*
X001731Y003047D02*
X001560Y003047D01*
X001560Y002928D02*
X001850Y002928D01*
X001907Y002810D02*
X001560Y002810D01*
X001560Y002691D02*
X001907Y002691D01*
X001908Y002573D02*
X001560Y002573D01*
X001560Y002454D02*
X001909Y002454D01*
X001910Y002336D02*
X001560Y002336D01*
X001560Y002217D02*
X001911Y002217D01*
X001912Y002099D02*
X001560Y002099D01*
X001560Y001980D02*
X001911Y001980D01*
X001954Y001862D02*
X001560Y001862D01*
X001560Y001743D02*
X002074Y001743D01*
X002079Y001625D02*
X001560Y001625D01*
X003220Y008261D02*
X005380Y008261D01*
X005380Y008380D02*
X003220Y008380D01*
X003126Y008498D02*
X005474Y008498D01*
X005593Y008617D02*
X003007Y008617D01*
X006007Y008617D02*
X006415Y008617D01*
X006296Y008498D02*
X006126Y008498D01*
M02*
