G75*
%MOIN*%
%OFA0B0*%
%FSLAX24Y24*%
%IPPOS*%
%LPD*%
%AMOC8*
5,1,8,0,0,1.08239X$1,22.5*
%
%ADD10C,0.0000*%
%ADD11C,0.0160*%
%ADD12C,0.0050*%
%ADD13C,0.0060*%
%ADD14C,0.0040*%
%ADD15R,0.0150X0.0200*%
D10*
X001100Y001080D02*
X001100Y009280D01*
X010500Y009280D01*
X010500Y001080D01*
X001100Y001080D01*
X008149Y001636D02*
X008151Y001675D01*
X008157Y001714D01*
X008167Y001752D01*
X008180Y001789D01*
X008197Y001824D01*
X008217Y001858D01*
X008241Y001889D01*
X008268Y001918D01*
X008297Y001944D01*
X008329Y001967D01*
X008363Y001987D01*
X008399Y002003D01*
X008436Y002015D01*
X008475Y002024D01*
X008514Y002029D01*
X008553Y002030D01*
X008592Y002027D01*
X008631Y002020D01*
X008668Y002009D01*
X008705Y001995D01*
X008740Y001977D01*
X008773Y001956D01*
X008804Y001931D01*
X008832Y001904D01*
X008857Y001874D01*
X008879Y001841D01*
X008898Y001807D01*
X008913Y001771D01*
X008925Y001733D01*
X008933Y001695D01*
X008937Y001656D01*
X008937Y001616D01*
X008933Y001577D01*
X008925Y001539D01*
X008913Y001501D01*
X008898Y001465D01*
X008879Y001431D01*
X008857Y001398D01*
X008832Y001368D01*
X008804Y001341D01*
X008773Y001316D01*
X008740Y001295D01*
X008705Y001277D01*
X008668Y001263D01*
X008631Y001252D01*
X008592Y001245D01*
X008553Y001242D01*
X008514Y001243D01*
X008475Y001248D01*
X008436Y001257D01*
X008399Y001269D01*
X008363Y001285D01*
X008329Y001305D01*
X008297Y001328D01*
X008268Y001354D01*
X008241Y001383D01*
X008217Y001414D01*
X008197Y001448D01*
X008180Y001483D01*
X008167Y001520D01*
X008157Y001558D01*
X008151Y001597D01*
X008149Y001636D01*
X008149Y008724D02*
X008151Y008763D01*
X008157Y008802D01*
X008167Y008840D01*
X008180Y008877D01*
X008197Y008912D01*
X008217Y008946D01*
X008241Y008977D01*
X008268Y009006D01*
X008297Y009032D01*
X008329Y009055D01*
X008363Y009075D01*
X008399Y009091D01*
X008436Y009103D01*
X008475Y009112D01*
X008514Y009117D01*
X008553Y009118D01*
X008592Y009115D01*
X008631Y009108D01*
X008668Y009097D01*
X008705Y009083D01*
X008740Y009065D01*
X008773Y009044D01*
X008804Y009019D01*
X008832Y008992D01*
X008857Y008962D01*
X008879Y008929D01*
X008898Y008895D01*
X008913Y008859D01*
X008925Y008821D01*
X008933Y008783D01*
X008937Y008744D01*
X008937Y008704D01*
X008933Y008665D01*
X008925Y008627D01*
X008913Y008589D01*
X008898Y008553D01*
X008879Y008519D01*
X008857Y008486D01*
X008832Y008456D01*
X008804Y008429D01*
X008773Y008404D01*
X008740Y008383D01*
X008705Y008365D01*
X008668Y008351D01*
X008631Y008340D01*
X008592Y008333D01*
X008553Y008330D01*
X008514Y008331D01*
X008475Y008336D01*
X008436Y008345D01*
X008399Y008357D01*
X008363Y008373D01*
X008329Y008393D01*
X008297Y008416D01*
X008268Y008442D01*
X008241Y008471D01*
X008217Y008502D01*
X008197Y008536D01*
X008180Y008571D01*
X008167Y008608D01*
X008157Y008646D01*
X008151Y008685D01*
X008149Y008724D01*
D11*
X009100Y007680D02*
X002600Y007680D01*
X002600Y002680D01*
X009100Y002680D01*
X009100Y007680D01*
D12*
X000400Y000325D02*
X000325Y000400D01*
X000400Y000325D02*
X000550Y000325D01*
X000625Y000400D01*
X000625Y000475D01*
X000550Y000550D01*
X000400Y000550D01*
X000325Y000625D01*
X000325Y000700D01*
X000400Y000775D01*
X000550Y000775D01*
X000625Y000700D01*
X000785Y000775D02*
X000785Y000325D01*
X000936Y000475D01*
X001086Y000325D01*
X001086Y000775D01*
X001246Y000550D02*
X001546Y000550D01*
X001396Y000700D02*
X001396Y000400D01*
X002435Y000580D02*
X002510Y000505D01*
X002660Y000505D01*
X002735Y000580D01*
X002735Y000655D01*
X002660Y000730D01*
X002510Y000730D01*
X002435Y000805D01*
X002435Y000880D01*
X002510Y000955D01*
X002660Y000955D01*
X002735Y000880D01*
X002895Y000955D02*
X002895Y000505D01*
X003046Y000655D01*
X003196Y000505D01*
X003196Y000955D01*
X003356Y000730D02*
X003656Y000730D01*
X002120Y002680D02*
X010277Y002680D01*
X010301Y002690D02*
X010301Y007670D01*
X010277Y007680D02*
X002151Y007680D01*
X002100Y006180D02*
X002100Y005930D01*
X002100Y004430D02*
X002100Y004180D01*
X006425Y007030D02*
X006500Y006955D01*
X006650Y006955D01*
X006725Y007030D01*
X006725Y007180D01*
X006575Y007180D01*
X006425Y007330D02*
X006425Y007030D01*
X006425Y007330D02*
X006500Y007405D01*
X006650Y007405D01*
X006725Y007330D01*
X006885Y007405D02*
X007186Y006955D01*
X007186Y007405D01*
X007346Y007405D02*
X007571Y007405D01*
X007646Y007330D01*
X007646Y007030D01*
X007571Y006955D01*
X007346Y006955D01*
X007346Y007405D01*
X006885Y007405D02*
X006885Y006955D01*
D13*
X006900Y007930D02*
X007000Y007930D01*
X007000Y008030D01*
X007000Y008430D02*
X007000Y008530D01*
X006900Y008530D01*
X006500Y008530D02*
X006400Y008530D01*
X006400Y008430D01*
X006400Y008030D02*
X006400Y007930D01*
X006500Y007930D01*
X005300Y007930D02*
X005300Y008530D01*
X005298Y008547D01*
X005294Y008564D01*
X005287Y008580D01*
X005277Y008594D01*
X005264Y008607D01*
X005250Y008617D01*
X005234Y008624D01*
X005217Y008628D01*
X005200Y008630D01*
X005050Y008630D01*
X005000Y008580D01*
X003600Y008580D01*
X003550Y008630D01*
X003400Y008630D01*
X003383Y008628D01*
X003366Y008624D01*
X003350Y008617D01*
X003336Y008607D01*
X003323Y008594D01*
X003313Y008580D01*
X003306Y008564D01*
X003302Y008547D01*
X003300Y008530D01*
X003300Y007930D01*
X003302Y007913D01*
X003306Y007896D01*
X003313Y007880D01*
X003323Y007866D01*
X003336Y007853D01*
X003350Y007843D01*
X003366Y007836D01*
X003383Y007832D01*
X003400Y007830D01*
X003550Y007830D01*
X003600Y007880D01*
X005000Y007880D01*
X005050Y007830D01*
X005200Y007830D01*
X005217Y007832D01*
X005234Y007836D01*
X005250Y007843D01*
X005264Y007853D01*
X005277Y007866D01*
X005287Y007880D01*
X005294Y007896D01*
X005298Y007913D01*
X005300Y007930D01*
X003000Y002300D02*
X002900Y002300D01*
X003000Y002300D02*
X003000Y002200D01*
X003000Y001800D02*
X003000Y001700D01*
X002900Y001700D01*
X002500Y001700D02*
X002400Y001700D01*
X002400Y001800D01*
X002400Y002200D02*
X002400Y002300D01*
X002500Y002300D01*
X001800Y001980D02*
X001800Y001880D01*
X001800Y001980D02*
X001700Y001980D01*
X001300Y001980D02*
X001200Y001980D01*
X001200Y001880D01*
X001200Y001480D02*
X001200Y001380D01*
X001300Y001380D01*
X001700Y001380D02*
X001800Y001380D01*
X001800Y001480D01*
D14*
X003320Y008760D02*
X003320Y009110D01*
X003495Y009110D01*
X003554Y009052D01*
X003554Y008935D01*
X003495Y008877D01*
X003320Y008877D01*
X003437Y008877D02*
X003554Y008760D01*
X003679Y008760D02*
X003913Y008760D01*
X003796Y008760D02*
X003796Y009110D01*
X003679Y008994D01*
D15*
X003225Y008230D03*
X005375Y008230D03*
M02*
