G75*
%MOIN*%
%OFA0B0*%
%FSLAX24Y24*%
%IPPOS*%
%LPD*%
%AMOC8*
5,1,8,0,0,1.08239X$1,22.5*
%
%ADD10C,0.0000*%
%ADD11C,0.0160*%
%ADD12C,0.0930*%
%ADD13OC8,0.0630*%
%ADD14OC8,0.0520*%
D10*
X001100Y001080D02*
X001100Y009280D01*
X010500Y009280D01*
X010500Y001080D01*
X001100Y001080D01*
X008149Y001636D02*
X008151Y001675D01*
X008157Y001714D01*
X008167Y001752D01*
X008180Y001789D01*
X008197Y001824D01*
X008217Y001858D01*
X008241Y001889D01*
X008268Y001918D01*
X008297Y001944D01*
X008329Y001967D01*
X008363Y001987D01*
X008399Y002003D01*
X008436Y002015D01*
X008475Y002024D01*
X008514Y002029D01*
X008553Y002030D01*
X008592Y002027D01*
X008631Y002020D01*
X008668Y002009D01*
X008705Y001995D01*
X008740Y001977D01*
X008773Y001956D01*
X008804Y001931D01*
X008832Y001904D01*
X008857Y001874D01*
X008879Y001841D01*
X008898Y001807D01*
X008913Y001771D01*
X008925Y001733D01*
X008933Y001695D01*
X008937Y001656D01*
X008937Y001616D01*
X008933Y001577D01*
X008925Y001539D01*
X008913Y001501D01*
X008898Y001465D01*
X008879Y001431D01*
X008857Y001398D01*
X008832Y001368D01*
X008804Y001341D01*
X008773Y001316D01*
X008740Y001295D01*
X008705Y001277D01*
X008668Y001263D01*
X008631Y001252D01*
X008592Y001245D01*
X008553Y001242D01*
X008514Y001243D01*
X008475Y001248D01*
X008436Y001257D01*
X008399Y001269D01*
X008363Y001285D01*
X008329Y001305D01*
X008297Y001328D01*
X008268Y001354D01*
X008241Y001383D01*
X008217Y001414D01*
X008197Y001448D01*
X008180Y001483D01*
X008167Y001520D01*
X008157Y001558D01*
X008151Y001597D01*
X008149Y001636D01*
X008149Y008724D02*
X008151Y008763D01*
X008157Y008802D01*
X008167Y008840D01*
X008180Y008877D01*
X008197Y008912D01*
X008217Y008946D01*
X008241Y008977D01*
X008268Y009006D01*
X008297Y009032D01*
X008329Y009055D01*
X008363Y009075D01*
X008399Y009091D01*
X008436Y009103D01*
X008475Y009112D01*
X008514Y009117D01*
X008553Y009118D01*
X008592Y009115D01*
X008631Y009108D01*
X008668Y009097D01*
X008705Y009083D01*
X008740Y009065D01*
X008773Y009044D01*
X008804Y009019D01*
X008832Y008992D01*
X008857Y008962D01*
X008879Y008929D01*
X008898Y008895D01*
X008913Y008859D01*
X008925Y008821D01*
X008933Y008783D01*
X008937Y008744D01*
X008937Y008704D01*
X008933Y008665D01*
X008925Y008627D01*
X008913Y008589D01*
X008898Y008553D01*
X008879Y008519D01*
X008857Y008486D01*
X008832Y008456D01*
X008804Y008429D01*
X008773Y008404D01*
X008740Y008383D01*
X008705Y008365D01*
X008668Y008351D01*
X008631Y008340D01*
X008592Y008333D01*
X008553Y008330D01*
X008514Y008331D01*
X008475Y008336D01*
X008436Y008345D01*
X008399Y008357D01*
X008363Y008373D01*
X008329Y008393D01*
X008297Y008416D01*
X008268Y008442D01*
X008241Y008471D01*
X008217Y008502D01*
X008197Y008536D01*
X008180Y008571D01*
X008167Y008608D01*
X008157Y008646D01*
X008151Y008685D01*
X008149Y008724D01*
D11*
X009100Y007680D02*
X002600Y007680D01*
X002600Y002680D01*
X009100Y002680D01*
X009100Y007680D01*
D12*
X009600Y006920D03*
X009600Y003440D03*
X002222Y003440D03*
X002222Y005180D03*
X002222Y006920D03*
D13*
X006700Y008230D03*
X002700Y002000D03*
X001500Y001680D03*
D14*
X002800Y008230D03*
X005800Y008230D03*
M02*
