%
M48
M72
T01C0.0150
T02C0.0180
T03C0.0236
T04C0.0260
T05C0.0320
T06C0.0350
T07C0.0354
T08C0.0360
%
T01
X6466Y2430
X6866Y3170
X5401Y4808
X6152Y8193
X4766Y8660
X3168Y8442
X3866Y11750
X11166Y9850
X12428Y11511
X14966Y11150
X15646Y11290
X15266Y13450
X17855Y13461
X19152Y13450
X19866Y13450
X18649Y14531
X16735Y16460
X18057Y17849
X15679Y19264
X21566Y11950
X18766Y11450
X18768Y11059
X18757Y10661
X18724Y10237
X18784Y9850
X18821Y9450
X17026Y8096
X16006Y8918
X13585Y8308
X17023Y6657
X15928Y5241
X14155Y5047
X11568Y4025
X11566Y3074
X21006Y9310
X23780Y6717
T02
X6466Y11250
X6396Y10100
X2236Y5540
T03
X19395Y5496
X27021Y6955
T04
X8425Y11260
X8265Y9719
X6115Y12739
X1860Y12810
X1092Y7096
X8265Y5419
X8125Y1524
X5416Y1024
T05
X23867Y10073
X24867Y10073
X25576Y8590
X26576Y8590
T06
X12659Y2393
X12482Y3069
X12333Y3720
X12236Y4402
X12219Y5273
T07
X2477Y9786
X1178Y9786
X1178Y10770
X1178Y11754
X2477Y11754
X2477Y10770
T08
X1929Y1040
X1207Y1971
X1222Y3233
X1201Y4582
X10704Y7483
X16878Y3306
X14516Y2519
X11412Y1425
X21479Y5309
X24318Y5318
X26791Y3885
X28039Y7202
X25495Y9616
X23994Y11364
X22182Y13016
X21141Y14116
X20028Y15511
X19047Y16492
X15303Y20629
X12473Y18901
X11676Y16853
X7764Y12469
X6898Y12459
X10935Y11967
M30
