G75*
%MOIN*%
%OFA0B0*%
%FSLAX24Y24*%
%IPPOS*%
%LPD*%
%AMOC8*
5,1,8,0,0,1.08239X$1,22.5*
%
%ADD10C,0.0312*%
%ADD11C,0.0432*%
%ADD12R,0.0476X0.0260*%
%ADD13C,0.0384*%
%ADD14R,0.0335X0.0150*%
%ADD15R,0.0150X0.0335*%
%ADD16R,0.1000X0.1000*%
%ADD17R,0.0230X0.0090*%
%ADD18R,0.0090X0.0230*%
%ADD19R,0.0577X0.0164*%
%ADD20R,0.0480X0.0180*%
%ADD21R,0.0331X0.0409*%
%ADD22C,0.0756*%
%ADD23R,0.0661X0.0740*%
%ADD24R,0.0472X0.0512*%
%ADD25R,0.0512X0.0472*%
%ADD26R,0.0236X0.0295*%
%ADD27R,0.0315X0.0236*%
%ADD28R,0.0295X0.0236*%
%ADD29R,0.0409X0.0331*%
%ADD30C,0.0576*%
%ADD31R,0.0576X0.0976*%
%ADD32R,0.1591X0.1039*%
%ADD33C,0.0472*%
%ADD34R,0.0563X0.0189*%
%ADD35R,0.0600X0.0900*%
%ADD36C,0.0648*%
%ADD37R,0.0751X0.1379*%
%ADD38R,0.0709X0.0748*%
%ADD39C,0.0792*%
%ADD40R,0.0657X0.0283*%
%ADD41R,0.0803X0.0567*%
%ADD42C,0.0660*%
%ADD43C,0.0372*%
%ADD44C,0.0408*%
%ADD45C,0.0475*%
D10*
X005416Y001024D03*
X008125Y001524D03*
X008265Y005419D03*
X008265Y009719D03*
X008425Y011260D03*
X006115Y012739D03*
X001860Y012810D03*
X001092Y007096D03*
D11*
X001929Y001040D03*
X010704Y007483D03*
X016878Y003306D03*
X014516Y002519D03*
X011412Y001425D03*
X021479Y005309D03*
X024318Y005318D03*
X026791Y003885D03*
X028039Y007202D03*
X025495Y009616D03*
X023994Y011364D03*
X022182Y013016D03*
X021141Y014116D03*
X020028Y015511D03*
X019047Y016492D03*
X015303Y020629D03*
X012473Y018901D03*
X011676Y016853D03*
X010935Y011967D03*
D12*
X005877Y012146D03*
X005877Y011772D03*
X005877Y011398D03*
X004775Y011398D03*
X004775Y012146D03*
D13*
X011330Y013246D02*
X011672Y014184D01*
X012142Y014013D02*
X011800Y013075D01*
X012270Y012904D02*
X012612Y013842D01*
X013082Y013671D02*
X012740Y012733D01*
X013210Y012562D02*
X013552Y013500D01*
X014022Y013329D02*
X013680Y012391D01*
X014149Y012220D02*
X014491Y013158D01*
X014961Y012987D02*
X014619Y012049D01*
X015089Y011878D02*
X015431Y012816D01*
X015901Y012645D02*
X015559Y011707D01*
X016029Y011536D02*
X016371Y012474D01*
X017825Y016501D02*
X018167Y017439D01*
X017697Y017610D02*
X017355Y016672D01*
X016886Y016843D02*
X017228Y017781D01*
X016758Y017952D02*
X016416Y017014D01*
X015946Y017185D02*
X016288Y018123D01*
X015818Y018294D02*
X015476Y017356D01*
X015006Y017527D02*
X015348Y018465D01*
X014878Y018636D02*
X014536Y017698D01*
D14*
X014533Y007895D03*
X014543Y007698D03*
X014543Y007501D03*
X014543Y007304D03*
X014543Y007107D03*
X014533Y006910D03*
X016108Y006910D03*
X016098Y007107D03*
X016098Y007304D03*
X016098Y007501D03*
X016098Y007698D03*
X016108Y007895D03*
D15*
X015813Y008190D03*
X015616Y008180D03*
X015419Y008180D03*
X015222Y008180D03*
X015025Y008180D03*
X014829Y008190D03*
X014829Y006615D03*
X015025Y006625D03*
X015222Y006625D03*
X015419Y006625D03*
X015616Y006625D03*
X015813Y006615D03*
D16*
X015321Y007403D03*
D17*
X014267Y007498D03*
X014266Y007698D03*
X014266Y007898D03*
X014267Y007298D03*
X014266Y007110D03*
X014266Y006910D03*
X016367Y006910D03*
X016367Y007110D03*
X016368Y007298D03*
X016368Y007498D03*
X016367Y007698D03*
X016367Y007898D03*
D18*
X015816Y008459D03*
X015616Y008459D03*
X015416Y008458D03*
X015216Y008458D03*
X015028Y008459D03*
X014828Y008459D03*
X014826Y006348D03*
X015026Y006348D03*
X015226Y006349D03*
X015426Y006349D03*
X015613Y006348D03*
X015813Y006348D03*
D19*
X019647Y009313D03*
X019647Y009568D03*
X019647Y009824D03*
X019647Y010080D03*
X019647Y010336D03*
X019647Y010592D03*
X019647Y010848D03*
X019647Y011104D03*
X019647Y011360D03*
X019647Y011616D03*
X019647Y011872D03*
X019647Y012127D03*
X022526Y012127D03*
X022526Y011872D03*
X022526Y011616D03*
X022526Y011360D03*
X022526Y011104D03*
X022526Y010848D03*
X022526Y010592D03*
X022526Y010336D03*
X022526Y010080D03*
X022526Y009824D03*
X022526Y009568D03*
X022526Y009313D03*
D20*
X007361Y004165D03*
X007361Y003915D03*
X007361Y003665D03*
X007361Y003415D03*
X007361Y003165D03*
X007361Y002915D03*
X007361Y002665D03*
X007361Y002415D03*
X007361Y002165D03*
X007361Y001915D03*
X005251Y001915D03*
X005251Y002165D03*
X005251Y002415D03*
X005251Y002665D03*
X005251Y002915D03*
X005251Y003165D03*
X005251Y003415D03*
X005251Y003665D03*
X005251Y003915D03*
X005251Y004165D03*
D21*
X001878Y007744D03*
X001366Y007744D03*
X005090Y010960D03*
X005602Y010960D03*
X016078Y010129D03*
X016590Y010129D03*
D22*
X007764Y012469D03*
X006898Y012459D03*
D23*
X005657Y009329D03*
X004555Y009329D03*
X002277Y006120D03*
X001175Y006120D03*
X011325Y010870D03*
X012427Y010870D03*
D24*
X018010Y008778D03*
X018010Y008109D03*
X018017Y007550D03*
X018017Y006880D03*
X014986Y004545D03*
X014123Y004548D03*
X014123Y003879D03*
X014986Y003875D03*
X008230Y003475D03*
X008230Y002806D03*
X003963Y002466D03*
X003963Y001797D03*
D25*
X004266Y003795D03*
X004266Y004465D03*
X003465Y004470D03*
X003465Y003801D03*
X005002Y010328D03*
X005671Y010328D03*
X016038Y009508D03*
X016707Y009508D03*
X025352Y006339D03*
X026022Y006339D03*
D26*
X026061Y007069D03*
X025746Y007069D03*
X025431Y007069D03*
X025116Y007069D03*
X025116Y007561D03*
X025431Y007561D03*
X025746Y007561D03*
X026061Y007561D03*
D27*
X005493Y012644D03*
X004981Y012644D03*
D28*
X017740Y011712D03*
X018232Y011712D03*
X018232Y011397D03*
X018232Y011083D03*
X018232Y010768D03*
X017740Y010768D03*
X017740Y011083D03*
X017740Y011397D03*
X017740Y010302D03*
X018232Y010302D03*
X018232Y009987D03*
X018232Y009673D03*
X018232Y009358D03*
X017740Y009358D03*
X017740Y009673D03*
X017740Y009987D03*
D29*
X014973Y010255D03*
X014973Y010767D03*
D30*
X023867Y010073D03*
X024867Y010073D03*
X025576Y008590D03*
X026576Y008590D03*
D31*
X005676Y008000D03*
X004766Y008000D03*
X003856Y008000D03*
D32*
X004766Y005560D03*
D33*
X003366Y002750D03*
X012266Y001550D03*
X013769Y006053D03*
X007294Y011772D03*
X004285Y011002D03*
X016254Y020058D03*
X018266Y012550D03*
X026266Y005050D03*
D34*
X002266Y003758D03*
X002266Y003502D03*
X002266Y003246D03*
X002266Y002990D03*
X002266Y002734D03*
D35*
X002246Y001840D03*
X002246Y004610D03*
D36*
X001201Y004582D03*
X001222Y003233D03*
X001207Y001971D03*
D37*
X001203Y003244D03*
D38*
X001176Y008440D03*
X002593Y008440D03*
D39*
X002477Y009786D03*
X001178Y009786D03*
X001178Y010770D03*
X001178Y011754D03*
X002477Y011754D03*
X002477Y010770D03*
D40*
X006715Y008591D03*
X006715Y008197D03*
X006715Y007804D03*
X006715Y007410D03*
X006715Y007016D03*
X006715Y006623D03*
D41*
X008241Y006111D03*
X008241Y009103D03*
D42*
X012219Y005273D03*
X012236Y004402D03*
X012333Y003720D03*
X012482Y003069D03*
X012659Y002393D03*
D43*
X011566Y003074D03*
X011568Y004025D03*
X014155Y005047D03*
X015928Y005241D03*
X017023Y006657D03*
X017026Y008096D03*
X016006Y008918D03*
X013585Y008308D03*
X011166Y009850D03*
X012428Y011511D03*
X014966Y011150D03*
X015646Y011290D03*
X015266Y013450D03*
X017855Y013461D03*
X019152Y013450D03*
X019866Y013450D03*
X018649Y014531D03*
X016735Y016460D03*
X018057Y017849D03*
X015679Y019264D03*
X021566Y011950D03*
X018766Y011450D03*
X018768Y011059D03*
X018757Y010661D03*
X018724Y010237D03*
X018784Y009850D03*
X018821Y009450D03*
X021006Y009310D03*
X023780Y006717D03*
X006866Y003170D03*
X006466Y002430D03*
X005401Y004808D03*
X006152Y008193D03*
X004766Y008660D03*
X003168Y008442D03*
X003866Y011750D03*
D44*
X006396Y010100D03*
X006466Y011250D03*
X002236Y005540D03*
D45*
X019395Y005496D03*
X027021Y006955D03*
M02*
