G75*
%MOIN*%
%OFA0B0*%
%FSLAX24Y24*%
%IPPOS*%
%LPD*%
%AMOC8*
5,1,8,0,0,1.08239X$1,22.5*
%
%ADD10C,0.0160*%
%ADD11C,0.0000*%
%ADD12R,0.0433X0.0217*%
%ADD13C,0.0320*%
%ADD14R,0.0335X0.0150*%
%ADD15R,0.0150X0.0335*%
%ADD16R,0.1000X0.1000*%
%ADD17R,0.0230X0.0090*%
%ADD18R,0.0090X0.0230*%
%ADD19R,0.0550X0.0137*%
%ADD20R,0.0450X0.0150*%
%ADD21R,0.0276X0.0354*%
%ADD22C,0.0630*%
%ADD23R,0.0551X0.0630*%
%ADD24R,0.0394X0.0433*%
%ADD25R,0.0433X0.0394*%
%ADD26R,0.0197X0.0256*%
%ADD27R,0.0276X0.0197*%
%ADD28R,0.0256X0.0197*%
%ADD29R,0.0354X0.0276*%
%ADD30C,0.0480*%
%ADD31R,0.0480X0.0880*%
%ADD32R,0.1417X0.0866*%
%ADD33C,0.0394*%
%ADD34R,0.0531X0.0157*%
%ADD35R,0.0500X0.0800*%
%ADD36C,0.0540*%
%ADD37R,0.0751X0.1379*%
%ADD38R,0.0591X0.0630*%
%ADD39C,0.0660*%
%ADD40R,0.0610X0.0236*%
%ADD41R,0.0709X0.0472*%
%ADD42C,0.0550*%
%ADD43C,0.0240*%
%ADD44C,0.0310*%
%ADD45C,0.0340*%
%ADD46C,0.0100*%
%ADD47C,0.0120*%
%ADD48C,0.0396*%
%ADD49C,0.0060*%
D10*
X001143Y001227D02*
X001348Y001078D01*
X001469Y001039D01*
X001469Y001132D01*
X001539Y001301D01*
X001668Y001430D01*
X001837Y001500D01*
X002020Y001500D01*
X002189Y001430D01*
X002319Y001301D01*
X002389Y001132D01*
X002389Y000990D01*
X005006Y000990D01*
X005006Y001106D01*
X005068Y001256D01*
X005183Y001372D01*
X005334Y001434D01*
X005497Y001434D01*
X005648Y001372D01*
X005763Y001256D01*
X005826Y001106D01*
X005826Y000990D01*
X007475Y000990D01*
X007477Y000991D01*
X007546Y000990D01*
X007549Y000990D01*
X007671Y000996D01*
X007909Y001057D01*
X008026Y001122D01*
X007893Y001177D01*
X007778Y001292D01*
X007715Y001443D01*
X007715Y001606D01*
X007727Y001635D01*
X007306Y001635D01*
X007293Y001640D01*
X007053Y001640D01*
X006936Y001757D01*
X006936Y002142D01*
X006685Y002146D01*
X006667Y002129D01*
X006537Y002075D01*
X006396Y002075D01*
X006265Y002129D01*
X006246Y002148D01*
X006246Y002059D01*
X006204Y001956D01*
X006125Y001878D01*
X006125Y001878D01*
X006004Y001756D01*
X006004Y001756D01*
X005925Y001678D01*
X005822Y001635D01*
X005196Y001635D01*
X005183Y001640D01*
X004943Y001640D01*
X004826Y001757D01*
X004826Y002823D01*
X004893Y002890D01*
X004815Y002890D01*
X004719Y002930D01*
X004646Y003003D01*
X004625Y003053D01*
X004349Y002777D01*
X004360Y002766D01*
X004360Y002167D01*
X004243Y002050D01*
X003684Y002050D01*
X003567Y002167D01*
X003567Y002403D01*
X003445Y002353D01*
X003287Y002353D01*
X003141Y002414D01*
X003030Y002525D01*
X002969Y002671D01*
X002969Y002829D01*
X003026Y002966D01*
X002731Y002966D01*
X002731Y002828D01*
X002614Y002711D01*
X001917Y002711D01*
X001800Y002828D01*
X001800Y003152D01*
X001800Y003340D01*
X001800Y003520D01*
X001779Y003542D01*
X001779Y002471D01*
X001661Y002354D01*
X000906Y002354D01*
X000906Y001798D01*
X000916Y001672D01*
X000994Y001431D01*
X001143Y001227D01*
X001202Y001184D02*
X001490Y001184D01*
X001580Y001343D02*
X001059Y001343D01*
X000972Y001501D02*
X007715Y001501D01*
X007757Y001343D02*
X005677Y001343D01*
X005793Y001184D02*
X007885Y001184D01*
X007786Y001026D02*
X005826Y001026D01*
X005154Y001343D02*
X002277Y001343D01*
X002367Y001184D02*
X005038Y001184D01*
X005006Y001026D02*
X002389Y001026D01*
X001715Y000630D02*
X007544Y000630D01*
X007034Y001660D02*
X005881Y001660D01*
X006065Y001818D02*
X006936Y001818D01*
X006936Y001977D02*
X006212Y001977D01*
X006246Y002135D02*
X006259Y002135D01*
X005966Y002115D02*
X005766Y001915D01*
X005251Y001915D01*
X004924Y001660D02*
X000920Y001660D01*
X000906Y001818D02*
X004826Y001818D01*
X004826Y001977D02*
X000906Y001977D01*
X000906Y002135D02*
X003599Y002135D01*
X003567Y002294D02*
X000906Y002294D01*
X000546Y001798D02*
X000546Y011950D01*
X000548Y012019D01*
X000553Y012087D01*
X000563Y012155D01*
X000576Y012223D01*
X000592Y012290D01*
X000612Y012356D01*
X000636Y012420D01*
X000663Y012483D01*
X000694Y012545D01*
X000728Y012605D01*
X000765Y012663D01*
X000805Y012719D01*
X000848Y012772D01*
X000894Y012823D01*
X000943Y012872D01*
X000994Y012918D01*
X001047Y012961D01*
X001103Y013001D01*
X001161Y013038D01*
X001221Y013072D01*
X001283Y013103D01*
X001346Y013130D01*
X001410Y013154D01*
X001476Y013174D01*
X001543Y013190D01*
X001611Y013203D01*
X001679Y013213D01*
X001747Y013218D01*
X001816Y013220D01*
X007622Y013220D01*
X007625Y012860D02*
X007630Y012860D01*
X007763Y012852D01*
X008019Y012775D01*
X008239Y012622D01*
X008400Y012409D01*
X008488Y012156D01*
X008501Y012023D01*
X008501Y011670D01*
X008344Y011670D01*
X008193Y011608D01*
X008078Y011493D01*
X008015Y011342D01*
X008015Y011179D01*
X008078Y011028D01*
X008193Y010913D01*
X008344Y010850D01*
X008501Y010850D01*
X008501Y010063D01*
X008497Y010067D01*
X008347Y010129D01*
X008184Y010129D01*
X008033Y010067D01*
X007918Y009951D01*
X007855Y009801D01*
X007855Y009638D01*
X007896Y009539D01*
X007804Y009539D01*
X007687Y009422D01*
X007687Y008784D01*
X007804Y008667D01*
X008501Y008667D01*
X008501Y006547D01*
X007804Y006547D01*
X007784Y006528D01*
X007500Y006813D01*
X007462Y006851D01*
X007460Y006852D01*
X007459Y006853D01*
X007409Y006874D01*
X007360Y006895D01*
X007358Y006895D01*
X007356Y006896D01*
X007302Y006896D01*
X007220Y006897D01*
X007220Y007611D01*
X007103Y007728D01*
X006624Y007728D01*
X006571Y007854D01*
X006548Y007877D01*
X006736Y007879D01*
X007103Y007879D01*
X007220Y007996D01*
X007220Y008792D01*
X007687Y008792D01*
X007687Y008951D02*
X006026Y008951D01*
X006026Y008968D02*
X005987Y009064D01*
X005914Y009137D01*
X005818Y009177D01*
X005031Y009177D01*
X005031Y009727D01*
X004988Y009769D01*
X005131Y009931D01*
X005301Y009931D01*
X005418Y010048D01*
X005418Y010607D01*
X005377Y010649D01*
X005428Y010700D01*
X005428Y011092D01*
X005576Y011091D01*
X005577Y011090D01*
X005785Y011090D01*
X005813Y011078D01*
X005941Y011078D01*
X005969Y011090D01*
X006176Y011090D01*
X006293Y011207D01*
X006293Y011589D01*
X006176Y011707D01*
X005986Y011707D01*
X005930Y011730D01*
X005930Y011730D01*
X005929Y011730D01*
X005866Y011730D01*
X005853Y011730D01*
X005853Y011786D01*
X006658Y011786D01*
X006790Y011841D01*
X006892Y011944D01*
X006935Y011944D01*
X006897Y011851D01*
X006897Y011693D01*
X006957Y011548D01*
X007069Y011436D01*
X007215Y011375D01*
X007373Y011375D01*
X007519Y011436D01*
X007630Y011548D01*
X007691Y011693D01*
X007691Y011851D01*
X007630Y011997D01*
X007519Y012109D01*
X007373Y012169D01*
X007336Y012169D01*
X007413Y012356D01*
X007413Y012561D01*
X007335Y012750D01*
X007225Y012860D01*
X007554Y012860D01*
X007558Y012859D01*
X007625Y012860D01*
X007331Y012755D02*
X008048Y012755D01*
X008258Y012596D02*
X007399Y012596D01*
X007413Y012438D02*
X008378Y012438D01*
X008445Y012279D02*
X007381Y012279D01*
X007490Y012121D02*
X008492Y012121D01*
X008501Y011962D02*
X007645Y011962D01*
X008861Y012030D02*
X008857Y012098D01*
X008850Y012165D01*
X008839Y012233D01*
X008825Y012299D01*
X008806Y012365D01*
X008784Y012429D01*
X008759Y012493D01*
X008730Y012554D01*
X008697Y012614D01*
X008662Y012672D01*
X008623Y012728D01*
X008580Y012782D01*
X008535Y012833D01*
X008488Y012881D01*
X008437Y012927D01*
X008384Y012970D01*
X008329Y013010D01*
X008272Y013047D01*
X008212Y013080D01*
X008151Y013110D01*
X008088Y013137D01*
X008024Y013160D01*
X007959Y013179D01*
X007892Y013195D01*
X007825Y013207D01*
X007758Y013215D01*
X007690Y013219D01*
X007621Y013220D01*
X007764Y012469D02*
X007774Y011618D01*
X007366Y011250D01*
X006466Y011250D01*
X006466Y011550D01*
X006266Y011750D01*
X005899Y011750D01*
X005877Y011772D01*
X006238Y011645D02*
X006917Y011645D01*
X006897Y011804D02*
X006699Y011804D01*
X007018Y011487D02*
X006293Y011487D01*
X006293Y011328D02*
X008015Y011328D01*
X008019Y011170D02*
X006256Y011170D01*
X006343Y010965D02*
X006466Y011050D01*
X006466Y011250D01*
X006343Y010965D02*
X005602Y010960D01*
X005671Y010851D01*
X005428Y010853D02*
X008338Y010853D01*
X008501Y010694D02*
X005422Y010694D01*
X005418Y010536D02*
X008501Y010536D01*
X008501Y010377D02*
X005418Y010377D01*
X005418Y010219D02*
X008501Y010219D01*
X008026Y010060D02*
X005418Y010060D01*
X005657Y010257D02*
X005671Y010328D01*
X005105Y009902D02*
X007897Y009902D01*
X007855Y009743D02*
X005015Y009743D01*
X005031Y009585D02*
X007877Y009585D01*
X007691Y009426D02*
X005031Y009426D01*
X005031Y009268D02*
X007687Y009268D01*
X007687Y009109D02*
X005942Y009109D01*
X006026Y008968D02*
X006026Y008525D01*
X006082Y008548D01*
X006210Y008548D01*
X006210Y008792D01*
X006026Y008792D01*
X006026Y008634D02*
X006210Y008634D01*
X006210Y008792D02*
X006327Y008909D01*
X007103Y008909D01*
X007220Y008792D01*
X007220Y008634D02*
X008501Y008634D01*
X008501Y008475D02*
X007220Y008475D01*
X007220Y008317D02*
X008501Y008317D01*
X008501Y008158D02*
X007220Y008158D01*
X007220Y008000D02*
X008501Y008000D01*
X008501Y007841D02*
X006577Y007841D01*
X006715Y007804D02*
X005879Y007797D01*
X005676Y008000D01*
X006219Y007403D02*
X005966Y007150D01*
X005966Y002115D01*
X006466Y002430D02*
X007361Y002415D01*
X007361Y002665D02*
X007356Y002670D01*
X006746Y002670D01*
X006236Y003130D01*
X006236Y006850D01*
X006406Y007019D01*
X006715Y007016D01*
X006715Y006623D02*
X007301Y006616D01*
X007666Y006250D01*
X007671Y004737D01*
X008271Y004137D01*
X008266Y003512D01*
X008230Y003475D01*
X008230Y002806D02*
X008066Y002642D01*
X008066Y002150D01*
X007831Y001915D01*
X007361Y001915D01*
X007543Y000630D02*
X007614Y000631D01*
X007684Y000636D01*
X007754Y000644D01*
X007823Y000657D01*
X007892Y000673D01*
X007959Y000692D01*
X008026Y000716D01*
X008091Y000743D01*
X008154Y000773D01*
X008216Y000807D01*
X008276Y000844D01*
X008333Y000884D01*
X008389Y000928D01*
X008442Y000974D01*
X008492Y001023D01*
X008540Y001075D01*
X008585Y001129D01*
X008627Y001186D01*
X008666Y001245D01*
X008701Y001305D01*
X008733Y001368D01*
X008762Y001432D01*
X008787Y001498D01*
X008809Y001565D01*
X008827Y001633D01*
X008841Y001702D01*
X008851Y001772D01*
X008858Y001842D01*
X008861Y001912D01*
X008861Y012030D01*
X008501Y011804D02*
X007691Y011804D01*
X007671Y011645D02*
X008282Y011645D01*
X008075Y011487D02*
X007569Y011487D01*
X008095Y011011D02*
X005428Y011011D01*
X005090Y010960D02*
X004896Y010960D01*
X004766Y011120D01*
X004766Y011390D01*
X004775Y011398D01*
X004775Y012146D02*
X004991Y012324D01*
X004981Y012644D01*
X005493Y012644D02*
X005513Y012510D01*
X005657Y009329D02*
X005676Y009151D01*
X004766Y008959D02*
X004555Y009329D01*
X004766Y008000D02*
X004766Y005560D01*
X003206Y005622D02*
X002031Y005622D01*
X002046Y005585D02*
X002004Y005687D01*
X001925Y005766D01*
X001651Y006040D01*
X001651Y006085D01*
X002110Y006542D01*
X002159Y006589D01*
X002160Y006592D01*
X002163Y006595D01*
X002189Y006658D01*
X002217Y006720D01*
X002217Y006724D01*
X002218Y006727D01*
X002218Y006795D01*
X002237Y007669D01*
X002238Y007674D01*
X002238Y007741D01*
X002240Y007808D01*
X002238Y007812D01*
X002237Y007925D01*
X002971Y007925D01*
X003089Y008043D01*
X003089Y008091D01*
X003098Y008087D01*
X003206Y008087D01*
X003206Y004867D01*
X003165Y004867D01*
X003048Y004750D01*
X003048Y004190D01*
X003103Y004135D01*
X003048Y004080D01*
X003048Y003782D01*
X002731Y003782D01*
X002731Y003919D01*
X002614Y004036D01*
X002324Y004036D01*
X002321Y004038D01*
X002074Y004038D01*
X002046Y004066D01*
X002046Y005585D01*
X002046Y005464D02*
X003206Y005464D01*
X003206Y005305D02*
X002046Y005305D01*
X002046Y005147D02*
X003206Y005147D01*
X003206Y004988D02*
X002046Y004988D01*
X002046Y004830D02*
X003128Y004830D01*
X003048Y004671D02*
X002046Y004671D01*
X002046Y004513D02*
X003048Y004513D01*
X003048Y004354D02*
X002046Y004354D01*
X002046Y004196D02*
X003048Y004196D01*
X003048Y004037D02*
X002323Y004037D01*
X002266Y003758D02*
X001958Y003758D01*
X001766Y003950D01*
X001766Y005529D01*
X001175Y006120D01*
X001663Y006098D02*
X003206Y006098D01*
X003206Y006256D02*
X001822Y006256D01*
X001982Y006415D02*
X003206Y006415D01*
X003206Y006573D02*
X002142Y006573D01*
X002218Y006732D02*
X003206Y006732D01*
X003206Y006890D02*
X002220Y006890D01*
X002223Y007049D02*
X003206Y007049D01*
X003206Y007207D02*
X002227Y007207D01*
X002230Y007366D02*
X003206Y007366D01*
X003206Y007524D02*
X002234Y007524D01*
X002238Y007683D02*
X003206Y007683D01*
X003206Y007841D02*
X002238Y007841D01*
X003045Y008000D02*
X003206Y008000D01*
X003206Y005939D02*
X001752Y005939D01*
X001911Y005781D02*
X003206Y005781D01*
X003465Y004470D02*
X003486Y004470D01*
X003048Y003879D02*
X002731Y003879D01*
X003164Y003502D02*
X002266Y003502D01*
X002266Y003246D02*
X004062Y003246D01*
X004266Y003450D01*
X004266Y003795D01*
X004586Y003410D02*
X005246Y003410D01*
X005251Y003415D01*
X005251Y003665D01*
X005246Y003910D02*
X005251Y003915D01*
X005246Y004160D02*
X005251Y004165D01*
X005251Y003415D02*
X005251Y003165D01*
X005251Y002915D02*
X005246Y002910D01*
X004716Y002910D01*
X004436Y002630D01*
X004436Y002040D01*
X004193Y001797D01*
X004328Y002135D02*
X004826Y002135D01*
X004826Y002294D02*
X004360Y002294D01*
X004360Y002452D02*
X004826Y002452D01*
X004826Y002611D02*
X004360Y002611D01*
X004357Y002769D02*
X004826Y002769D01*
X004724Y002928D02*
X004500Y002928D01*
X004586Y003410D02*
X003963Y002787D01*
X003963Y002466D01*
X003103Y002452D02*
X001759Y002452D01*
X001779Y002611D02*
X002994Y002611D01*
X002969Y002769D02*
X002672Y002769D01*
X002731Y002928D02*
X003010Y002928D01*
X002266Y002734D02*
X002266Y001860D01*
X002329Y001797D01*
X002266Y001860D02*
X002246Y001840D01*
X002246Y001971D01*
X001715Y000630D02*
X001647Y000632D01*
X001579Y000638D01*
X001512Y000648D01*
X001446Y000661D01*
X001380Y000679D01*
X001316Y000700D01*
X001252Y000726D01*
X001191Y000754D01*
X001131Y000786D01*
X001073Y000822D01*
X001018Y000861D01*
X000964Y000903D01*
X000913Y000948D01*
X000865Y000996D01*
X000820Y001047D01*
X000778Y001101D01*
X000739Y001156D01*
X000703Y001214D01*
X000671Y001274D01*
X000643Y001335D01*
X000617Y001399D01*
X000596Y001463D01*
X000578Y001529D01*
X000565Y001595D01*
X000555Y001662D01*
X000549Y001730D01*
X000547Y001798D01*
X001779Y002769D02*
X001859Y002769D01*
X001800Y002928D02*
X001779Y002928D01*
X001779Y003086D02*
X001800Y003086D01*
X001800Y003245D02*
X001779Y003245D01*
X001779Y003403D02*
X001800Y003403D01*
X001222Y003233D02*
X001207Y003233D01*
X001201Y003233D02*
X001222Y003233D01*
X001486Y004133D02*
X000906Y004133D01*
X000906Y005605D01*
X001294Y005605D01*
X001486Y005413D01*
X001486Y004133D01*
X001486Y004196D02*
X000906Y004196D01*
X000906Y004354D02*
X001486Y004354D01*
X001486Y004513D02*
X000906Y004513D01*
X000906Y004671D02*
X001486Y004671D01*
X001486Y004830D02*
X000906Y004830D01*
X000906Y004988D02*
X001486Y004988D01*
X001486Y005147D02*
X000906Y005147D01*
X000906Y005305D02*
X001486Y005305D01*
X001436Y005464D02*
X000906Y005464D01*
X001201Y004610D02*
X001201Y004582D01*
X003164Y003502D02*
X003465Y003801D01*
X006516Y003879D02*
X006936Y003879D01*
X006936Y004037D02*
X006516Y004037D01*
X006516Y004196D02*
X006936Y004196D01*
X006936Y004323D02*
X006936Y003257D01*
X007028Y003165D01*
X006936Y003073D01*
X006936Y002950D01*
X006854Y002950D01*
X006516Y003255D01*
X006516Y006305D01*
X007103Y006305D01*
X007136Y006338D01*
X007183Y006337D01*
X007387Y006134D01*
X007391Y004737D01*
X007391Y004682D01*
X007391Y004681D01*
X007391Y004681D01*
X007412Y004630D01*
X007433Y004579D01*
X007434Y004578D01*
X007473Y004539D01*
X007572Y004440D01*
X007053Y004440D01*
X006936Y004323D01*
X006967Y004354D02*
X006516Y004354D01*
X006516Y004513D02*
X007500Y004513D01*
X007434Y004578D02*
X007434Y004578D01*
X007395Y004671D02*
X006516Y004671D01*
X006516Y004830D02*
X007391Y004830D01*
X007390Y004988D02*
X006516Y004988D01*
X006516Y005147D02*
X007390Y005147D01*
X007389Y005305D02*
X006516Y005305D01*
X006516Y005464D02*
X007389Y005464D01*
X007388Y005622D02*
X006516Y005622D01*
X006516Y005781D02*
X007388Y005781D01*
X007387Y005939D02*
X006516Y005939D01*
X006516Y006098D02*
X007387Y006098D01*
X007264Y006256D02*
X006516Y006256D01*
X007220Y007049D02*
X008501Y007049D01*
X008501Y007207D02*
X007220Y007207D01*
X007220Y007366D02*
X008501Y007366D01*
X008501Y007524D02*
X007220Y007524D01*
X007149Y007683D02*
X008501Y007683D01*
X008501Y006890D02*
X007371Y006890D01*
X007581Y006732D02*
X008501Y006732D01*
X008501Y006573D02*
X007739Y006573D01*
X006715Y007410D02*
X006219Y007403D01*
X006516Y003720D02*
X006936Y003720D01*
X006936Y003562D02*
X006516Y003562D01*
X006516Y003403D02*
X006936Y003403D01*
X006949Y003245D02*
X006527Y003245D01*
X006703Y003086D02*
X006949Y003086D01*
X006866Y003170D02*
X007361Y003165D01*
X006936Y002135D02*
X006673Y002135D01*
X010775Y001219D02*
X010801Y001167D01*
X010831Y001117D01*
X010863Y001068D01*
X010899Y001022D01*
X010938Y000978D01*
X010979Y000937D01*
X011023Y000899D01*
X011069Y000863D01*
X011117Y000831D01*
X011167Y000801D01*
X011220Y000775D01*
X011273Y000753D01*
X011328Y000733D01*
X011384Y000718D01*
X011441Y000706D01*
X011499Y000698D01*
X011557Y000693D01*
X011616Y000692D01*
X011674Y000695D01*
X011732Y000702D01*
X011789Y000712D01*
X011846Y000726D01*
X011901Y000744D01*
X011955Y000765D01*
X012008Y000790D01*
X012010Y000806D01*
X022207Y005156D01*
X022270Y005193D01*
X022335Y005228D01*
X022401Y005258D01*
X022469Y005285D01*
X022538Y005309D01*
X022608Y005328D01*
X022680Y005344D01*
X022752Y005356D01*
X022824Y005364D01*
X022897Y005368D01*
X022970Y005369D01*
X023043Y005365D01*
X023116Y005357D01*
X023188Y005346D01*
X023260Y005331D01*
X023330Y005312D01*
X023400Y005289D01*
X023468Y005262D01*
X023534Y005232D01*
X023599Y005198D01*
X023662Y005161D01*
X023723Y005121D01*
X023782Y005077D01*
X023782Y005078D02*
X026384Y003479D01*
X026432Y003450D01*
X026481Y003424D01*
X026532Y003402D01*
X026585Y003383D01*
X026639Y003369D01*
X026693Y003358D01*
X026749Y003350D01*
X026804Y003347D01*
X026860Y003348D01*
X026916Y003353D01*
X026971Y003361D01*
X027025Y003374D01*
X027079Y003390D01*
X027131Y003410D01*
X027181Y003433D01*
X027230Y003460D01*
X027277Y003491D01*
X027321Y003524D01*
X027363Y003561D01*
X027403Y003601D01*
X027439Y003643D01*
X027473Y003687D01*
X027503Y003734D01*
X027530Y003783D01*
X027553Y003834D01*
X028664Y006495D01*
X028691Y006558D01*
X028714Y006622D01*
X028733Y006688D01*
X028749Y006754D01*
X028760Y006822D01*
X028768Y006890D01*
X028772Y006958D01*
X028771Y007027D01*
X028767Y007095D01*
X028759Y007163D01*
X028748Y007230D01*
X028732Y007297D01*
X028712Y007362D01*
X028689Y007427D01*
X028662Y007490D01*
X028632Y007551D01*
X028598Y007611D01*
X028561Y007668D01*
X028520Y007723D01*
X028477Y007776D01*
X028430Y007826D01*
X028229Y008020D01*
X010776Y001220D02*
X010621Y002132D01*
X010488Y003047D01*
X010378Y003965D01*
X010289Y004886D01*
X010223Y005809D01*
X010178Y006733D01*
X010157Y007657D01*
X010157Y008582D01*
X010180Y009507D01*
X010225Y010431D01*
X010292Y011353D01*
X010381Y012274D01*
X010493Y013192D01*
X010626Y014108D01*
X010782Y015019D01*
X010959Y015927D01*
X011159Y016830D01*
X011380Y017729D01*
X011622Y018621D01*
X012523Y019660D02*
X014851Y021121D01*
X014831Y021122D02*
X014897Y021153D01*
X014964Y021181D01*
X015033Y021205D01*
X015102Y021225D01*
X015173Y021242D01*
X015245Y021255D01*
X015317Y021264D01*
X015390Y021269D01*
X015463Y021270D01*
X015535Y021267D01*
X015608Y021260D01*
X015680Y021250D01*
X015751Y021235D01*
X015822Y021217D01*
X015891Y021195D01*
X015959Y021169D01*
X016026Y021140D01*
X016091Y021107D01*
X016154Y021071D01*
X016215Y021031D01*
X016274Y020988D01*
X016330Y020942D01*
X016384Y020894D01*
X016435Y020842D01*
X016483Y020787D01*
X012522Y019659D02*
X012447Y019615D01*
X012374Y019567D01*
X012302Y019516D01*
X012233Y019462D01*
X012166Y019405D01*
X012102Y019346D01*
X012041Y019283D01*
X011982Y019218D01*
X011926Y019151D01*
X011873Y019081D01*
X011823Y019009D01*
X011776Y018935D01*
X011732Y018859D01*
X011692Y018781D01*
X011655Y018702D01*
X011622Y018621D01*
X015260Y012347D02*
X014927Y011553D01*
X014666Y011550D01*
X014166Y011150D01*
X014004Y010999D01*
X014009Y010454D01*
X013173Y009623D01*
X012275Y009619D01*
X011751Y009081D01*
X011744Y006415D01*
X011561Y006219D01*
X011568Y004025D01*
X012482Y003069D02*
X012762Y003350D01*
X015266Y003350D01*
X015766Y003850D01*
X015766Y004350D01*
X015866Y004450D01*
X016166Y004450D01*
X016866Y005150D01*
X016866Y005650D01*
X017066Y005850D01*
X018166Y005850D01*
X018866Y006550D01*
X018866Y008150D01*
X019666Y008950D01*
X023466Y008950D01*
X023866Y009350D01*
X023866Y010073D01*
X023867Y010073D01*
X014982Y003879D02*
X014466Y003879D01*
X014123Y003879D01*
X012482Y003069D02*
X011947Y003069D01*
X011566Y003074D01*
X028229Y008019D02*
X027028Y009048D01*
X025851Y010105D01*
X024700Y011189D01*
X023575Y012301D01*
X022477Y013439D01*
X021406Y014603D01*
X020363Y015792D01*
X019349Y017005D01*
X018364Y018243D01*
X017408Y019503D01*
X016483Y020786D01*
D11*
X015123Y020629D02*
X015125Y020655D01*
X015131Y020681D01*
X015140Y020705D01*
X015153Y020728D01*
X015169Y020749D01*
X015188Y020767D01*
X015209Y020783D01*
X015233Y020795D01*
X015257Y020803D01*
X015283Y020808D01*
X015310Y020809D01*
X015336Y020806D01*
X015361Y020799D01*
X015385Y020789D01*
X015408Y020775D01*
X015428Y020759D01*
X015445Y020739D01*
X015460Y020717D01*
X015471Y020693D01*
X015479Y020668D01*
X015483Y020642D01*
X015483Y020616D01*
X015479Y020590D01*
X015471Y020565D01*
X015460Y020541D01*
X015445Y020519D01*
X015428Y020499D01*
X015408Y020483D01*
X015385Y020469D01*
X015361Y020459D01*
X015336Y020452D01*
X015310Y020449D01*
X015283Y020450D01*
X015257Y020455D01*
X015233Y020463D01*
X015209Y020475D01*
X015188Y020491D01*
X015169Y020509D01*
X015153Y020530D01*
X015140Y020553D01*
X015131Y020577D01*
X015125Y020603D01*
X015123Y020629D01*
X012293Y018901D02*
X012295Y018927D01*
X012301Y018953D01*
X012310Y018977D01*
X012323Y019000D01*
X012339Y019021D01*
X012358Y019039D01*
X012379Y019055D01*
X012403Y019067D01*
X012427Y019075D01*
X012453Y019080D01*
X012480Y019081D01*
X012506Y019078D01*
X012531Y019071D01*
X012555Y019061D01*
X012578Y019047D01*
X012598Y019031D01*
X012615Y019011D01*
X012630Y018989D01*
X012641Y018965D01*
X012649Y018940D01*
X012653Y018914D01*
X012653Y018888D01*
X012649Y018862D01*
X012641Y018837D01*
X012630Y018813D01*
X012615Y018791D01*
X012598Y018771D01*
X012578Y018755D01*
X012555Y018741D01*
X012531Y018731D01*
X012506Y018724D01*
X012480Y018721D01*
X012453Y018722D01*
X012427Y018727D01*
X012403Y018735D01*
X012379Y018747D01*
X012358Y018763D01*
X012339Y018781D01*
X012323Y018802D01*
X012310Y018825D01*
X012301Y018849D01*
X012295Y018875D01*
X012293Y018901D01*
X011496Y016853D02*
X011498Y016879D01*
X011504Y016905D01*
X011513Y016929D01*
X011526Y016952D01*
X011542Y016973D01*
X011561Y016991D01*
X011582Y017007D01*
X011606Y017019D01*
X011630Y017027D01*
X011656Y017032D01*
X011683Y017033D01*
X011709Y017030D01*
X011734Y017023D01*
X011758Y017013D01*
X011781Y016999D01*
X011801Y016983D01*
X011818Y016963D01*
X011833Y016941D01*
X011844Y016917D01*
X011852Y016892D01*
X011856Y016866D01*
X011856Y016840D01*
X011852Y016814D01*
X011844Y016789D01*
X011833Y016765D01*
X011818Y016743D01*
X011801Y016723D01*
X011781Y016707D01*
X011758Y016693D01*
X011734Y016683D01*
X011709Y016676D01*
X011683Y016673D01*
X011656Y016674D01*
X011630Y016679D01*
X011606Y016687D01*
X011582Y016699D01*
X011561Y016715D01*
X011542Y016733D01*
X011526Y016754D01*
X011513Y016777D01*
X011504Y016801D01*
X011498Y016827D01*
X011496Y016853D01*
X005985Y012739D02*
X005987Y012762D01*
X005993Y012783D01*
X006002Y012804D01*
X006015Y012823D01*
X006031Y012839D01*
X006050Y012852D01*
X006071Y012861D01*
X006092Y012867D01*
X006115Y012869D01*
X006138Y012867D01*
X006159Y012861D01*
X006180Y012852D01*
X006199Y012839D01*
X006215Y012823D01*
X006228Y012804D01*
X006237Y012783D01*
X006243Y012762D01*
X006245Y012739D01*
X006243Y012716D01*
X006237Y012695D01*
X006228Y012674D01*
X006215Y012655D01*
X006199Y012639D01*
X006180Y012626D01*
X006159Y012617D01*
X006138Y012611D01*
X006115Y012609D01*
X006092Y012611D01*
X006071Y012617D01*
X006050Y012626D01*
X006031Y012639D01*
X006015Y012655D01*
X006002Y012674D01*
X005993Y012695D01*
X005987Y012716D01*
X005985Y012739D01*
X008295Y011260D02*
X008297Y011283D01*
X008303Y011304D01*
X008312Y011325D01*
X008325Y011344D01*
X008341Y011360D01*
X008360Y011373D01*
X008381Y011382D01*
X008402Y011388D01*
X008425Y011390D01*
X008448Y011388D01*
X008469Y011382D01*
X008490Y011373D01*
X008509Y011360D01*
X008525Y011344D01*
X008538Y011325D01*
X008547Y011304D01*
X008553Y011283D01*
X008555Y011260D01*
X008553Y011237D01*
X008547Y011216D01*
X008538Y011195D01*
X008525Y011176D01*
X008509Y011160D01*
X008490Y011147D01*
X008469Y011138D01*
X008448Y011132D01*
X008425Y011130D01*
X008402Y011132D01*
X008381Y011138D01*
X008360Y011147D01*
X008341Y011160D01*
X008325Y011176D01*
X008312Y011195D01*
X008303Y011216D01*
X008297Y011237D01*
X008295Y011260D01*
X008135Y009719D02*
X008137Y009742D01*
X008143Y009763D01*
X008152Y009784D01*
X008165Y009803D01*
X008181Y009819D01*
X008200Y009832D01*
X008221Y009841D01*
X008242Y009847D01*
X008265Y009849D01*
X008288Y009847D01*
X008309Y009841D01*
X008330Y009832D01*
X008349Y009819D01*
X008365Y009803D01*
X008378Y009784D01*
X008387Y009763D01*
X008393Y009742D01*
X008395Y009719D01*
X008393Y009696D01*
X008387Y009675D01*
X008378Y009654D01*
X008365Y009635D01*
X008349Y009619D01*
X008330Y009606D01*
X008309Y009597D01*
X008288Y009591D01*
X008265Y009589D01*
X008242Y009591D01*
X008221Y009597D01*
X008200Y009606D01*
X008181Y009619D01*
X008165Y009635D01*
X008152Y009654D01*
X008143Y009675D01*
X008137Y009696D01*
X008135Y009719D01*
X010524Y007483D02*
X010526Y007509D01*
X010532Y007535D01*
X010541Y007559D01*
X010554Y007582D01*
X010570Y007603D01*
X010589Y007621D01*
X010610Y007637D01*
X010634Y007649D01*
X010658Y007657D01*
X010684Y007662D01*
X010711Y007663D01*
X010737Y007660D01*
X010762Y007653D01*
X010786Y007643D01*
X010809Y007629D01*
X010829Y007613D01*
X010846Y007593D01*
X010861Y007571D01*
X010872Y007547D01*
X010880Y007522D01*
X010884Y007496D01*
X010884Y007470D01*
X010880Y007444D01*
X010872Y007419D01*
X010861Y007395D01*
X010846Y007373D01*
X010829Y007353D01*
X010809Y007337D01*
X010786Y007323D01*
X010762Y007313D01*
X010737Y007306D01*
X010711Y007303D01*
X010684Y007304D01*
X010658Y007309D01*
X010634Y007317D01*
X010610Y007329D01*
X010589Y007345D01*
X010570Y007363D01*
X010554Y007384D01*
X010541Y007407D01*
X010532Y007431D01*
X010526Y007457D01*
X010524Y007483D01*
X008135Y005419D02*
X008137Y005442D01*
X008143Y005463D01*
X008152Y005484D01*
X008165Y005503D01*
X008181Y005519D01*
X008200Y005532D01*
X008221Y005541D01*
X008242Y005547D01*
X008265Y005549D01*
X008288Y005547D01*
X008309Y005541D01*
X008330Y005532D01*
X008349Y005519D01*
X008365Y005503D01*
X008378Y005484D01*
X008387Y005463D01*
X008393Y005442D01*
X008395Y005419D01*
X008393Y005396D01*
X008387Y005375D01*
X008378Y005354D01*
X008365Y005335D01*
X008349Y005319D01*
X008330Y005306D01*
X008309Y005297D01*
X008288Y005291D01*
X008265Y005289D01*
X008242Y005291D01*
X008221Y005297D01*
X008200Y005306D01*
X008181Y005319D01*
X008165Y005335D01*
X008152Y005354D01*
X008143Y005375D01*
X008137Y005396D01*
X008135Y005419D01*
X007995Y001524D02*
X007997Y001547D01*
X008003Y001568D01*
X008012Y001589D01*
X008025Y001608D01*
X008041Y001624D01*
X008060Y001637D01*
X008081Y001646D01*
X008102Y001652D01*
X008125Y001654D01*
X008148Y001652D01*
X008169Y001646D01*
X008190Y001637D01*
X008209Y001624D01*
X008225Y001608D01*
X008238Y001589D01*
X008247Y001568D01*
X008253Y001547D01*
X008255Y001524D01*
X008253Y001501D01*
X008247Y001480D01*
X008238Y001459D01*
X008225Y001440D01*
X008209Y001424D01*
X008190Y001411D01*
X008169Y001402D01*
X008148Y001396D01*
X008125Y001394D01*
X008102Y001396D01*
X008081Y001402D01*
X008060Y001411D01*
X008041Y001424D01*
X008025Y001440D01*
X008012Y001459D01*
X008003Y001480D01*
X007997Y001501D01*
X007995Y001524D01*
X005286Y001024D02*
X005288Y001047D01*
X005294Y001068D01*
X005303Y001089D01*
X005316Y001108D01*
X005332Y001124D01*
X005351Y001137D01*
X005372Y001146D01*
X005393Y001152D01*
X005416Y001154D01*
X005439Y001152D01*
X005460Y001146D01*
X005481Y001137D01*
X005500Y001124D01*
X005516Y001108D01*
X005529Y001089D01*
X005538Y001068D01*
X005544Y001047D01*
X005546Y001024D01*
X005544Y001001D01*
X005538Y000980D01*
X005529Y000959D01*
X005516Y000940D01*
X005500Y000924D01*
X005481Y000911D01*
X005460Y000902D01*
X005439Y000896D01*
X005416Y000894D01*
X005393Y000896D01*
X005372Y000902D01*
X005351Y000911D01*
X005332Y000924D01*
X005316Y000940D01*
X005303Y000959D01*
X005294Y000980D01*
X005288Y001001D01*
X005286Y001024D01*
X001749Y001040D02*
X001751Y001066D01*
X001757Y001092D01*
X001766Y001116D01*
X001779Y001139D01*
X001795Y001160D01*
X001814Y001178D01*
X001835Y001194D01*
X001859Y001206D01*
X001883Y001214D01*
X001909Y001219D01*
X001936Y001220D01*
X001962Y001217D01*
X001987Y001210D01*
X002011Y001200D01*
X002034Y001186D01*
X002054Y001170D01*
X002071Y001150D01*
X002086Y001128D01*
X002097Y001104D01*
X002105Y001079D01*
X002109Y001053D01*
X002109Y001027D01*
X002105Y001001D01*
X002097Y000976D01*
X002086Y000952D01*
X002071Y000930D01*
X002054Y000910D01*
X002034Y000894D01*
X002011Y000880D01*
X001987Y000870D01*
X001962Y000863D01*
X001936Y000860D01*
X001909Y000861D01*
X001883Y000866D01*
X001859Y000874D01*
X001835Y000886D01*
X001814Y000902D01*
X001795Y000920D01*
X001779Y000941D01*
X001766Y000964D01*
X001757Y000988D01*
X001751Y001014D01*
X001749Y001040D01*
X000962Y007096D02*
X000964Y007119D01*
X000970Y007140D01*
X000979Y007161D01*
X000992Y007180D01*
X001008Y007196D01*
X001027Y007209D01*
X001048Y007218D01*
X001069Y007224D01*
X001092Y007226D01*
X001115Y007224D01*
X001136Y007218D01*
X001157Y007209D01*
X001176Y007196D01*
X001192Y007180D01*
X001205Y007161D01*
X001214Y007140D01*
X001220Y007119D01*
X001222Y007096D01*
X001220Y007073D01*
X001214Y007052D01*
X001205Y007031D01*
X001192Y007012D01*
X001176Y006996D01*
X001157Y006983D01*
X001136Y006974D01*
X001115Y006968D01*
X001092Y006966D01*
X001069Y006968D01*
X001048Y006974D01*
X001027Y006983D01*
X001008Y006996D01*
X000992Y007012D01*
X000979Y007031D01*
X000970Y007052D01*
X000964Y007073D01*
X000962Y007096D01*
X001730Y012810D02*
X001732Y012833D01*
X001738Y012854D01*
X001747Y012875D01*
X001760Y012894D01*
X001776Y012910D01*
X001795Y012923D01*
X001816Y012932D01*
X001837Y012938D01*
X001860Y012940D01*
X001883Y012938D01*
X001904Y012932D01*
X001925Y012923D01*
X001944Y012910D01*
X001960Y012894D01*
X001973Y012875D01*
X001982Y012854D01*
X001988Y012833D01*
X001990Y012810D01*
X001988Y012787D01*
X001982Y012766D01*
X001973Y012745D01*
X001960Y012726D01*
X001944Y012710D01*
X001925Y012697D01*
X001904Y012688D01*
X001883Y012682D01*
X001860Y012680D01*
X001837Y012682D01*
X001816Y012688D01*
X001795Y012697D01*
X001776Y012710D01*
X001760Y012726D01*
X001747Y012745D01*
X001738Y012766D01*
X001732Y012787D01*
X001730Y012810D01*
X010755Y011967D02*
X010757Y011993D01*
X010763Y012019D01*
X010772Y012043D01*
X010785Y012066D01*
X010801Y012087D01*
X010820Y012105D01*
X010841Y012121D01*
X010865Y012133D01*
X010889Y012141D01*
X010915Y012146D01*
X010942Y012147D01*
X010968Y012144D01*
X010993Y012137D01*
X011017Y012127D01*
X011040Y012113D01*
X011060Y012097D01*
X011077Y012077D01*
X011092Y012055D01*
X011103Y012031D01*
X011111Y012006D01*
X011115Y011980D01*
X011115Y011954D01*
X011111Y011928D01*
X011103Y011903D01*
X011092Y011879D01*
X011077Y011857D01*
X011060Y011837D01*
X011040Y011821D01*
X011017Y011807D01*
X010993Y011797D01*
X010968Y011790D01*
X010942Y011787D01*
X010915Y011788D01*
X010889Y011793D01*
X010865Y011801D01*
X010841Y011813D01*
X010820Y011829D01*
X010801Y011847D01*
X010785Y011868D01*
X010772Y011891D01*
X010763Y011915D01*
X010757Y011941D01*
X010755Y011967D01*
X018867Y016492D02*
X018869Y016518D01*
X018875Y016544D01*
X018884Y016568D01*
X018897Y016591D01*
X018913Y016612D01*
X018932Y016630D01*
X018953Y016646D01*
X018977Y016658D01*
X019001Y016666D01*
X019027Y016671D01*
X019054Y016672D01*
X019080Y016669D01*
X019105Y016662D01*
X019129Y016652D01*
X019152Y016638D01*
X019172Y016622D01*
X019189Y016602D01*
X019204Y016580D01*
X019215Y016556D01*
X019223Y016531D01*
X019227Y016505D01*
X019227Y016479D01*
X019223Y016453D01*
X019215Y016428D01*
X019204Y016404D01*
X019189Y016382D01*
X019172Y016362D01*
X019152Y016346D01*
X019129Y016332D01*
X019105Y016322D01*
X019080Y016315D01*
X019054Y016312D01*
X019027Y016313D01*
X019001Y016318D01*
X018977Y016326D01*
X018953Y016338D01*
X018932Y016354D01*
X018913Y016372D01*
X018897Y016393D01*
X018884Y016416D01*
X018875Y016440D01*
X018869Y016466D01*
X018867Y016492D01*
X019848Y015511D02*
X019850Y015537D01*
X019856Y015563D01*
X019865Y015587D01*
X019878Y015610D01*
X019894Y015631D01*
X019913Y015649D01*
X019934Y015665D01*
X019958Y015677D01*
X019982Y015685D01*
X020008Y015690D01*
X020035Y015691D01*
X020061Y015688D01*
X020086Y015681D01*
X020110Y015671D01*
X020133Y015657D01*
X020153Y015641D01*
X020170Y015621D01*
X020185Y015599D01*
X020196Y015575D01*
X020204Y015550D01*
X020208Y015524D01*
X020208Y015498D01*
X020204Y015472D01*
X020196Y015447D01*
X020185Y015423D01*
X020170Y015401D01*
X020153Y015381D01*
X020133Y015365D01*
X020110Y015351D01*
X020086Y015341D01*
X020061Y015334D01*
X020035Y015331D01*
X020008Y015332D01*
X019982Y015337D01*
X019958Y015345D01*
X019934Y015357D01*
X019913Y015373D01*
X019894Y015391D01*
X019878Y015412D01*
X019865Y015435D01*
X019856Y015459D01*
X019850Y015485D01*
X019848Y015511D01*
X020961Y014116D02*
X020963Y014142D01*
X020969Y014168D01*
X020978Y014192D01*
X020991Y014215D01*
X021007Y014236D01*
X021026Y014254D01*
X021047Y014270D01*
X021071Y014282D01*
X021095Y014290D01*
X021121Y014295D01*
X021148Y014296D01*
X021174Y014293D01*
X021199Y014286D01*
X021223Y014276D01*
X021246Y014262D01*
X021266Y014246D01*
X021283Y014226D01*
X021298Y014204D01*
X021309Y014180D01*
X021317Y014155D01*
X021321Y014129D01*
X021321Y014103D01*
X021317Y014077D01*
X021309Y014052D01*
X021298Y014028D01*
X021283Y014006D01*
X021266Y013986D01*
X021246Y013970D01*
X021223Y013956D01*
X021199Y013946D01*
X021174Y013939D01*
X021148Y013936D01*
X021121Y013937D01*
X021095Y013942D01*
X021071Y013950D01*
X021047Y013962D01*
X021026Y013978D01*
X021007Y013996D01*
X020991Y014017D01*
X020978Y014040D01*
X020969Y014064D01*
X020963Y014090D01*
X020961Y014116D01*
X022002Y013016D02*
X022004Y013042D01*
X022010Y013068D01*
X022019Y013092D01*
X022032Y013115D01*
X022048Y013136D01*
X022067Y013154D01*
X022088Y013170D01*
X022112Y013182D01*
X022136Y013190D01*
X022162Y013195D01*
X022189Y013196D01*
X022215Y013193D01*
X022240Y013186D01*
X022264Y013176D01*
X022287Y013162D01*
X022307Y013146D01*
X022324Y013126D01*
X022339Y013104D01*
X022350Y013080D01*
X022358Y013055D01*
X022362Y013029D01*
X022362Y013003D01*
X022358Y012977D01*
X022350Y012952D01*
X022339Y012928D01*
X022324Y012906D01*
X022307Y012886D01*
X022287Y012870D01*
X022264Y012856D01*
X022240Y012846D01*
X022215Y012839D01*
X022189Y012836D01*
X022162Y012837D01*
X022136Y012842D01*
X022112Y012850D01*
X022088Y012862D01*
X022067Y012878D01*
X022048Y012896D01*
X022032Y012917D01*
X022019Y012940D01*
X022010Y012964D01*
X022004Y012990D01*
X022002Y013016D01*
X023814Y011364D02*
X023816Y011390D01*
X023822Y011416D01*
X023831Y011440D01*
X023844Y011463D01*
X023860Y011484D01*
X023879Y011502D01*
X023900Y011518D01*
X023924Y011530D01*
X023948Y011538D01*
X023974Y011543D01*
X024001Y011544D01*
X024027Y011541D01*
X024052Y011534D01*
X024076Y011524D01*
X024099Y011510D01*
X024119Y011494D01*
X024136Y011474D01*
X024151Y011452D01*
X024162Y011428D01*
X024170Y011403D01*
X024174Y011377D01*
X024174Y011351D01*
X024170Y011325D01*
X024162Y011300D01*
X024151Y011276D01*
X024136Y011254D01*
X024119Y011234D01*
X024099Y011218D01*
X024076Y011204D01*
X024052Y011194D01*
X024027Y011187D01*
X024001Y011184D01*
X023974Y011185D01*
X023948Y011190D01*
X023924Y011198D01*
X023900Y011210D01*
X023879Y011226D01*
X023860Y011244D01*
X023844Y011265D01*
X023831Y011288D01*
X023822Y011312D01*
X023816Y011338D01*
X023814Y011364D01*
X025315Y009616D02*
X025317Y009642D01*
X025323Y009668D01*
X025332Y009692D01*
X025345Y009715D01*
X025361Y009736D01*
X025380Y009754D01*
X025401Y009770D01*
X025425Y009782D01*
X025449Y009790D01*
X025475Y009795D01*
X025502Y009796D01*
X025528Y009793D01*
X025553Y009786D01*
X025577Y009776D01*
X025600Y009762D01*
X025620Y009746D01*
X025637Y009726D01*
X025652Y009704D01*
X025663Y009680D01*
X025671Y009655D01*
X025675Y009629D01*
X025675Y009603D01*
X025671Y009577D01*
X025663Y009552D01*
X025652Y009528D01*
X025637Y009506D01*
X025620Y009486D01*
X025600Y009470D01*
X025577Y009456D01*
X025553Y009446D01*
X025528Y009439D01*
X025502Y009436D01*
X025475Y009437D01*
X025449Y009442D01*
X025425Y009450D01*
X025401Y009462D01*
X025380Y009478D01*
X025361Y009496D01*
X025345Y009517D01*
X025332Y009540D01*
X025323Y009564D01*
X025317Y009590D01*
X025315Y009616D01*
X027859Y007202D02*
X027861Y007228D01*
X027867Y007254D01*
X027876Y007278D01*
X027889Y007301D01*
X027905Y007322D01*
X027924Y007340D01*
X027945Y007356D01*
X027969Y007368D01*
X027993Y007376D01*
X028019Y007381D01*
X028046Y007382D01*
X028072Y007379D01*
X028097Y007372D01*
X028121Y007362D01*
X028144Y007348D01*
X028164Y007332D01*
X028181Y007312D01*
X028196Y007290D01*
X028207Y007266D01*
X028215Y007241D01*
X028219Y007215D01*
X028219Y007189D01*
X028215Y007163D01*
X028207Y007138D01*
X028196Y007114D01*
X028181Y007092D01*
X028164Y007072D01*
X028144Y007056D01*
X028121Y007042D01*
X028097Y007032D01*
X028072Y007025D01*
X028046Y007022D01*
X028019Y007023D01*
X027993Y007028D01*
X027969Y007036D01*
X027945Y007048D01*
X027924Y007064D01*
X027905Y007082D01*
X027889Y007103D01*
X027876Y007126D01*
X027867Y007150D01*
X027861Y007176D01*
X027859Y007202D01*
X024138Y005318D02*
X024140Y005344D01*
X024146Y005370D01*
X024155Y005394D01*
X024168Y005417D01*
X024184Y005438D01*
X024203Y005456D01*
X024224Y005472D01*
X024248Y005484D01*
X024272Y005492D01*
X024298Y005497D01*
X024325Y005498D01*
X024351Y005495D01*
X024376Y005488D01*
X024400Y005478D01*
X024423Y005464D01*
X024443Y005448D01*
X024460Y005428D01*
X024475Y005406D01*
X024486Y005382D01*
X024494Y005357D01*
X024498Y005331D01*
X024498Y005305D01*
X024494Y005279D01*
X024486Y005254D01*
X024475Y005230D01*
X024460Y005208D01*
X024443Y005188D01*
X024423Y005172D01*
X024400Y005158D01*
X024376Y005148D01*
X024351Y005141D01*
X024325Y005138D01*
X024298Y005139D01*
X024272Y005144D01*
X024248Y005152D01*
X024224Y005164D01*
X024203Y005180D01*
X024184Y005198D01*
X024168Y005219D01*
X024155Y005242D01*
X024146Y005266D01*
X024140Y005292D01*
X024138Y005318D01*
X021299Y005309D02*
X021301Y005335D01*
X021307Y005361D01*
X021316Y005385D01*
X021329Y005408D01*
X021345Y005429D01*
X021364Y005447D01*
X021385Y005463D01*
X021409Y005475D01*
X021433Y005483D01*
X021459Y005488D01*
X021486Y005489D01*
X021512Y005486D01*
X021537Y005479D01*
X021561Y005469D01*
X021584Y005455D01*
X021604Y005439D01*
X021621Y005419D01*
X021636Y005397D01*
X021647Y005373D01*
X021655Y005348D01*
X021659Y005322D01*
X021659Y005296D01*
X021655Y005270D01*
X021647Y005245D01*
X021636Y005221D01*
X021621Y005199D01*
X021604Y005179D01*
X021584Y005163D01*
X021561Y005149D01*
X021537Y005139D01*
X021512Y005132D01*
X021486Y005129D01*
X021459Y005130D01*
X021433Y005135D01*
X021409Y005143D01*
X021385Y005155D01*
X021364Y005171D01*
X021345Y005189D01*
X021329Y005210D01*
X021316Y005233D01*
X021307Y005257D01*
X021301Y005283D01*
X021299Y005309D01*
X016698Y003306D02*
X016700Y003332D01*
X016706Y003358D01*
X016715Y003382D01*
X016728Y003405D01*
X016744Y003426D01*
X016763Y003444D01*
X016784Y003460D01*
X016808Y003472D01*
X016832Y003480D01*
X016858Y003485D01*
X016885Y003486D01*
X016911Y003483D01*
X016936Y003476D01*
X016960Y003466D01*
X016983Y003452D01*
X017003Y003436D01*
X017020Y003416D01*
X017035Y003394D01*
X017046Y003370D01*
X017054Y003345D01*
X017058Y003319D01*
X017058Y003293D01*
X017054Y003267D01*
X017046Y003242D01*
X017035Y003218D01*
X017020Y003196D01*
X017003Y003176D01*
X016983Y003160D01*
X016960Y003146D01*
X016936Y003136D01*
X016911Y003129D01*
X016885Y003126D01*
X016858Y003127D01*
X016832Y003132D01*
X016808Y003140D01*
X016784Y003152D01*
X016763Y003168D01*
X016744Y003186D01*
X016728Y003207D01*
X016715Y003230D01*
X016706Y003254D01*
X016700Y003280D01*
X016698Y003306D01*
X014336Y002519D02*
X014338Y002545D01*
X014344Y002571D01*
X014353Y002595D01*
X014366Y002618D01*
X014382Y002639D01*
X014401Y002657D01*
X014422Y002673D01*
X014446Y002685D01*
X014470Y002693D01*
X014496Y002698D01*
X014523Y002699D01*
X014549Y002696D01*
X014574Y002689D01*
X014598Y002679D01*
X014621Y002665D01*
X014641Y002649D01*
X014658Y002629D01*
X014673Y002607D01*
X014684Y002583D01*
X014692Y002558D01*
X014696Y002532D01*
X014696Y002506D01*
X014692Y002480D01*
X014684Y002455D01*
X014673Y002431D01*
X014658Y002409D01*
X014641Y002389D01*
X014621Y002373D01*
X014598Y002359D01*
X014574Y002349D01*
X014549Y002342D01*
X014523Y002339D01*
X014496Y002340D01*
X014470Y002345D01*
X014446Y002353D01*
X014422Y002365D01*
X014401Y002381D01*
X014382Y002399D01*
X014366Y002420D01*
X014353Y002443D01*
X014344Y002467D01*
X014338Y002493D01*
X014336Y002519D01*
X011232Y001425D02*
X011234Y001451D01*
X011240Y001477D01*
X011249Y001501D01*
X011262Y001524D01*
X011278Y001545D01*
X011297Y001563D01*
X011318Y001579D01*
X011342Y001591D01*
X011366Y001599D01*
X011392Y001604D01*
X011419Y001605D01*
X011445Y001602D01*
X011470Y001595D01*
X011494Y001585D01*
X011517Y001571D01*
X011537Y001555D01*
X011554Y001535D01*
X011569Y001513D01*
X011580Y001489D01*
X011588Y001464D01*
X011592Y001438D01*
X011592Y001412D01*
X011588Y001386D01*
X011580Y001361D01*
X011569Y001337D01*
X011554Y001315D01*
X011537Y001295D01*
X011517Y001279D01*
X011494Y001265D01*
X011470Y001255D01*
X011445Y001248D01*
X011419Y001245D01*
X011392Y001246D01*
X011366Y001251D01*
X011342Y001259D01*
X011318Y001271D01*
X011297Y001287D01*
X011278Y001305D01*
X011262Y001326D01*
X011249Y001349D01*
X011240Y001373D01*
X011234Y001399D01*
X011232Y001425D01*
X026611Y003885D02*
X026613Y003911D01*
X026619Y003937D01*
X026628Y003961D01*
X026641Y003984D01*
X026657Y004005D01*
X026676Y004023D01*
X026697Y004039D01*
X026721Y004051D01*
X026745Y004059D01*
X026771Y004064D01*
X026798Y004065D01*
X026824Y004062D01*
X026849Y004055D01*
X026873Y004045D01*
X026896Y004031D01*
X026916Y004015D01*
X026933Y003995D01*
X026948Y003973D01*
X026959Y003949D01*
X026967Y003924D01*
X026971Y003898D01*
X026971Y003872D01*
X026967Y003846D01*
X026959Y003821D01*
X026948Y003797D01*
X026933Y003775D01*
X026916Y003755D01*
X026896Y003739D01*
X026873Y003725D01*
X026849Y003715D01*
X026824Y003708D01*
X026798Y003705D01*
X026771Y003706D01*
X026745Y003711D01*
X026721Y003719D01*
X026697Y003731D01*
X026676Y003747D01*
X026657Y003765D01*
X026641Y003786D01*
X026628Y003809D01*
X026619Y003833D01*
X026613Y003859D01*
X026611Y003885D01*
D12*
X005877Y011398D03*
X005877Y011772D03*
X005877Y012146D03*
X004775Y012146D03*
X004775Y011398D03*
D13*
X005002Y010328D02*
X004555Y009823D01*
X004555Y009329D01*
X005676Y009151D02*
X005676Y008000D01*
X003856Y008000D02*
X003856Y010410D01*
X003508Y010759D01*
X002477Y010770D01*
X001862Y011428D02*
X001878Y007744D01*
X001858Y006799D01*
X001175Y006120D01*
X002236Y005540D02*
X002236Y004619D01*
X002246Y004610D01*
X001201Y004582D02*
X001201Y003233D01*
X001207Y003233D02*
X001207Y001971D01*
X002246Y001971D01*
X002329Y001797D02*
X003963Y001797D01*
X004193Y001797D01*
X001862Y011428D02*
X002160Y011742D01*
X002477Y011754D01*
X002473Y012313D01*
X002989Y012643D01*
X004665Y012642D01*
X004981Y012644D01*
X005513Y012510D02*
X005877Y012146D01*
X006586Y012146D01*
X006898Y012459D01*
X011330Y013246D02*
X011672Y014184D01*
X012142Y014013D02*
X011800Y013075D01*
X012270Y012904D02*
X012612Y013842D01*
X013082Y013671D02*
X012740Y012733D01*
X013210Y012562D02*
X013552Y013500D01*
X014022Y013329D02*
X013680Y012391D01*
X014149Y012220D02*
X014491Y013158D01*
X014961Y012987D02*
X014619Y012049D01*
X015089Y011878D02*
X015431Y012816D01*
X015901Y012645D02*
X015559Y011707D01*
X016029Y011536D02*
X016371Y012474D01*
X017825Y016501D02*
X018167Y017439D01*
X017697Y017610D02*
X017355Y016672D01*
X016886Y016843D02*
X017228Y017781D01*
X016758Y017952D02*
X016416Y017014D01*
X015946Y017185D02*
X016288Y018123D01*
X015818Y018294D02*
X015476Y017356D01*
X015006Y017527D02*
X015348Y018465D01*
X014878Y018636D02*
X014536Y017698D01*
X018017Y006880D02*
X018056Y006840D01*
D14*
X016111Y006910D03*
X016098Y007107D03*
X016098Y007304D03*
X016098Y007501D03*
X016098Y007698D03*
X016111Y007895D03*
X014543Y007698D03*
X014543Y007501D03*
X014543Y007304D03*
X014543Y007107D03*
X014531Y006910D03*
X014531Y007895D03*
D15*
X014829Y008193D03*
X015025Y008180D03*
X015222Y008180D03*
X015419Y008180D03*
X015616Y008180D03*
X015813Y008193D03*
X015616Y006625D03*
X015419Y006625D03*
X015222Y006625D03*
X015025Y006625D03*
X014829Y006613D03*
X015813Y006613D03*
D16*
X015321Y007403D03*
D17*
X014267Y007498D03*
X014266Y007698D03*
X014266Y007898D03*
X014267Y007298D03*
X014266Y007110D03*
X014266Y006910D03*
X016367Y006910D03*
X016367Y007110D03*
X016368Y007298D03*
X016368Y007498D03*
X016367Y007698D03*
X016367Y007898D03*
D18*
X015816Y008459D03*
X015616Y008459D03*
X015416Y008458D03*
X015216Y008458D03*
X015028Y008459D03*
X014828Y008459D03*
X014826Y006348D03*
X015026Y006348D03*
X015226Y006349D03*
X015426Y006349D03*
X015613Y006348D03*
X015813Y006348D03*
D19*
X019647Y009313D03*
X019647Y009568D03*
X019647Y009824D03*
X019647Y010080D03*
X019647Y010336D03*
X019647Y010592D03*
X019647Y010848D03*
X019647Y011104D03*
X019647Y011360D03*
X019647Y011616D03*
X019647Y011872D03*
X019647Y012127D03*
X022526Y012127D03*
X022526Y011872D03*
X022526Y011616D03*
X022526Y011360D03*
X022526Y011104D03*
X022526Y010848D03*
X022526Y010592D03*
X022526Y010336D03*
X022526Y010080D03*
X022526Y009824D03*
X022526Y009568D03*
X022526Y009313D03*
D20*
X007361Y004165D03*
X007361Y003915D03*
X007361Y003665D03*
X007361Y003415D03*
X007361Y003165D03*
X007361Y002915D03*
X007361Y002665D03*
X007361Y002415D03*
X007361Y002165D03*
X007361Y001915D03*
X005251Y001915D03*
X005251Y002165D03*
X005251Y002415D03*
X005251Y002665D03*
X005251Y002915D03*
X005251Y003165D03*
X005251Y003415D03*
X005251Y003665D03*
X005251Y003915D03*
X005251Y004165D03*
D21*
X001878Y007744D03*
X001366Y007744D03*
X005090Y010960D03*
X005602Y010960D03*
X016078Y010129D03*
X016590Y010129D03*
D22*
X007764Y012469D03*
X006898Y012459D03*
D23*
X005657Y009329D03*
X004555Y009329D03*
X002277Y006120D03*
X001175Y006120D03*
X011325Y010870D03*
X012427Y010870D03*
D24*
X018010Y008778D03*
X018010Y008109D03*
X018017Y007550D03*
X018017Y006880D03*
X014986Y004545D03*
X014123Y004548D03*
X014123Y003879D03*
X014986Y003875D03*
X008230Y003475D03*
X008230Y002806D03*
X003963Y002466D03*
X003963Y001797D03*
D25*
X004266Y003795D03*
X004266Y004465D03*
X003465Y004470D03*
X003465Y003801D03*
X005002Y010328D03*
X005671Y010328D03*
X016038Y009508D03*
X016707Y009508D03*
X025352Y006339D03*
X026022Y006339D03*
D26*
X026061Y007069D03*
X025746Y007069D03*
X025431Y007069D03*
X025116Y007069D03*
X025116Y007561D03*
X025431Y007561D03*
X025746Y007561D03*
X026061Y007561D03*
D27*
X005493Y012644D03*
X004981Y012644D03*
D28*
X017740Y011712D03*
X018232Y011712D03*
X018232Y011397D03*
X018232Y011083D03*
X018232Y010768D03*
X017740Y010768D03*
X017740Y011083D03*
X017740Y011397D03*
X017740Y010302D03*
X018232Y010302D03*
X018232Y009987D03*
X018232Y009673D03*
X018232Y009358D03*
X017740Y009358D03*
X017740Y009673D03*
X017740Y009987D03*
D29*
X014973Y010255D03*
X014973Y010767D03*
D30*
X023867Y010073D03*
X024867Y010073D03*
X025576Y008590D03*
X026576Y008590D03*
D31*
X005676Y008000D03*
X004766Y008000D03*
X003856Y008000D03*
D32*
X004766Y005560D03*
D33*
X003366Y002750D03*
X012266Y001550D03*
X013769Y006053D03*
X007294Y011772D03*
X004285Y011002D03*
X016254Y020058D03*
X018266Y012550D03*
X026266Y005050D03*
D34*
X002266Y003758D03*
X002266Y003502D03*
X002266Y003246D03*
X002266Y002990D03*
X002266Y002734D03*
D35*
X002246Y001840D03*
X002246Y004610D03*
D36*
X001201Y004582D03*
X001222Y003233D03*
X001207Y001971D03*
D37*
X001203Y003244D03*
D38*
X001176Y008440D03*
X002593Y008440D03*
D39*
X002477Y009786D03*
X001178Y009786D03*
X001178Y010770D03*
X001178Y011754D03*
X002477Y011754D03*
X002477Y010770D03*
D40*
X006715Y008591D03*
X006715Y008197D03*
X006715Y007804D03*
X006715Y007410D03*
X006715Y007016D03*
X006715Y006623D03*
D41*
X008241Y006111D03*
X008241Y009103D03*
D42*
X012219Y005273D03*
X012236Y004402D03*
X012333Y003720D03*
X012482Y003069D03*
X012659Y002393D03*
D43*
X018017Y006801D02*
X018017Y006880D01*
X017026Y008096D02*
X017028Y008408D01*
X017246Y008630D01*
X017246Y008807D01*
X017805Y008807D01*
X017805Y009608D01*
X017740Y009673D01*
X017246Y009810D02*
X017068Y010098D01*
X016632Y010098D01*
X017246Y009810D02*
X017246Y008807D01*
X017805Y008807D02*
X017981Y008807D01*
X018010Y008778D01*
X015646Y011290D02*
X015946Y012080D01*
X013381Y013031D02*
X013115Y012300D01*
X012868Y011521D01*
X012428Y011511D01*
X012427Y011135D01*
X012427Y010870D01*
X006796Y008200D02*
X006152Y008193D01*
X005657Y009329D02*
X005657Y010257D01*
X005671Y010328D02*
X005671Y010851D01*
X005877Y011398D02*
X005865Y011410D01*
X005408Y011412D01*
X005068Y011752D01*
X003866Y011750D01*
X004555Y009329D02*
X004555Y008871D01*
X004766Y008660D01*
X003168Y008442D02*
X002857Y008440D01*
X002593Y008440D01*
X001366Y007744D02*
X001169Y007834D01*
X001176Y008440D01*
X014707Y018167D02*
X015036Y019030D01*
X015679Y019264D01*
X024867Y010073D02*
X024847Y009803D01*
X024848Y007836D01*
X025116Y007561D01*
X025116Y007069D02*
X024132Y007069D01*
X023780Y006717D01*
X025116Y006575D02*
X025352Y006339D01*
X025116Y006575D02*
X025116Y007069D01*
X025431Y007069D01*
X025746Y007069D01*
X026061Y007069D01*
X026061Y007561D02*
X026061Y008105D01*
X025576Y008590D01*
D44*
X023780Y006717D03*
X021006Y009310D03*
X018821Y009450D03*
X018784Y009850D03*
X018724Y010237D03*
X018757Y010661D03*
X018768Y011059D03*
X018766Y011450D03*
X019152Y013450D03*
X019866Y013450D03*
X018649Y014531D03*
X017855Y013461D03*
X015266Y013450D03*
X015646Y011290D03*
X014966Y011150D03*
X012428Y011511D03*
X011166Y009850D03*
X013585Y008308D03*
X016006Y008918D03*
X017026Y008096D03*
X017023Y006657D03*
X015928Y005241D03*
X014155Y005047D03*
X011568Y004025D03*
X011566Y003074D03*
X006866Y003170D03*
X006466Y002430D03*
X005401Y004808D03*
X006152Y008193D03*
X004766Y008660D03*
X003168Y008442D03*
X003866Y011750D03*
X015679Y019264D03*
X018057Y017849D03*
X016735Y016460D03*
X021566Y011950D03*
D45*
X006466Y011250D03*
X006396Y010100D03*
X002236Y005540D03*
D46*
X010500Y007864D02*
X010492Y008864D01*
X010597Y011039D01*
X010660Y011633D01*
X010691Y011602D01*
X010849Y011537D01*
X011020Y011537D01*
X011179Y011602D01*
X011299Y011723D01*
X011365Y011881D01*
X011365Y012052D01*
X011299Y012210D01*
X011179Y012331D01*
X011020Y012397D01*
X010849Y012397D01*
X010737Y012350D01*
X010785Y012808D01*
X012671Y012122D01*
X012596Y011885D01*
X012585Y011885D01*
X012508Y011916D01*
X012347Y011916D01*
X012199Y011855D01*
X012085Y011741D01*
X012023Y011592D01*
X012023Y011431D01*
X012033Y011406D01*
X012010Y011397D01*
X011940Y011327D01*
X011902Y011235D01*
X011902Y010505D01*
X011940Y010413D01*
X011996Y010357D01*
X011947Y010336D01*
X011891Y010313D01*
X011890Y010312D01*
X011890Y010312D01*
X011847Y010269D01*
X011803Y010226D01*
X011803Y010225D01*
X011045Y009460D01*
X011001Y009416D01*
X011001Y009416D01*
X011001Y009416D01*
X010978Y009359D01*
X010954Y009303D01*
X010954Y009302D01*
X010954Y009301D01*
X010954Y009240D01*
X010955Y007839D01*
X010947Y007847D01*
X010789Y007913D01*
X010618Y007913D01*
X010500Y007864D01*
X010500Y007938D02*
X010955Y007938D01*
X010955Y008036D02*
X010499Y008036D01*
X010498Y008135D02*
X010955Y008135D01*
X010955Y008233D02*
X010497Y008233D01*
X010496Y008332D02*
X010955Y008332D01*
X010955Y008430D02*
X010495Y008430D01*
X010494Y008529D02*
X010955Y008529D01*
X010955Y008627D02*
X010494Y008627D01*
X010493Y008726D02*
X010955Y008726D01*
X010955Y008824D02*
X010492Y008824D01*
X010494Y008923D02*
X010955Y008923D01*
X010955Y009021D02*
X010499Y009021D01*
X010504Y009120D02*
X010954Y009120D01*
X010954Y009218D02*
X010509Y009218D01*
X010514Y009317D02*
X010960Y009317D01*
X011001Y009415D02*
X010518Y009415D01*
X010523Y009514D02*
X011098Y009514D01*
X011196Y009612D02*
X010528Y009612D01*
X010533Y009711D02*
X011293Y009711D01*
X011391Y009809D02*
X010537Y009809D01*
X010542Y009908D02*
X011489Y009908D01*
X011586Y010006D02*
X010547Y010006D01*
X010552Y010105D02*
X011684Y010105D01*
X011781Y010203D02*
X010557Y010203D01*
X010561Y010302D02*
X011879Y010302D01*
X011953Y010400D02*
X010566Y010400D01*
X010571Y010499D02*
X010909Y010499D01*
X010910Y010497D02*
X010929Y010463D01*
X010957Y010435D01*
X010992Y010415D01*
X011030Y010405D01*
X011275Y010405D01*
X011275Y010820D01*
X010899Y010820D01*
X010899Y010535D01*
X010910Y010497D01*
X010899Y010597D02*
X010576Y010597D01*
X010581Y010696D02*
X010899Y010696D01*
X010899Y010794D02*
X010585Y010794D01*
X010590Y010893D02*
X011275Y010893D01*
X011275Y010920D02*
X011275Y010820D01*
X011375Y010820D01*
X011375Y010405D01*
X011620Y010405D01*
X011659Y010415D01*
X011693Y010435D01*
X011721Y010463D01*
X011740Y010497D01*
X011751Y010535D01*
X011751Y010820D01*
X011375Y010820D01*
X011375Y010920D01*
X011275Y010920D01*
X010899Y010920D01*
X010899Y011205D01*
X010910Y011243D01*
X010929Y011277D01*
X010957Y011305D01*
X010992Y011325D01*
X011030Y011335D01*
X011275Y011335D01*
X011275Y010920D01*
X011275Y010991D02*
X011375Y010991D01*
X011375Y010920D02*
X011375Y011335D01*
X011620Y011335D01*
X011659Y011325D01*
X011693Y011305D01*
X011721Y011277D01*
X011740Y011243D01*
X011751Y011205D01*
X011751Y010920D01*
X011375Y010920D01*
X011375Y010893D02*
X011902Y010893D01*
X011902Y010991D02*
X011751Y010991D01*
X011751Y011090D02*
X011902Y011090D01*
X011902Y011188D02*
X011751Y011188D01*
X011711Y011287D02*
X011923Y011287D01*
X011998Y011385D02*
X010634Y011385D01*
X010624Y011287D02*
X010939Y011287D01*
X010899Y011188D02*
X010613Y011188D01*
X010603Y011090D02*
X010899Y011090D01*
X010899Y010991D02*
X010595Y010991D01*
X010644Y011484D02*
X012023Y011484D01*
X012023Y011582D02*
X011130Y011582D01*
X011257Y011681D02*
X012060Y011681D01*
X012123Y011779D02*
X011323Y011779D01*
X011363Y011878D02*
X012253Y011878D01*
X012624Y011976D02*
X011365Y011976D01*
X011356Y012075D02*
X012656Y012075D01*
X012531Y012173D02*
X011315Y012173D01*
X011238Y012272D02*
X012260Y012272D01*
X011990Y012370D02*
X011085Y012370D01*
X010785Y012370D02*
X010739Y012370D01*
X010749Y012469D02*
X011719Y012469D01*
X011448Y012567D02*
X010760Y012567D01*
X010770Y012666D02*
X011178Y012666D01*
X010907Y012764D02*
X010780Y012764D01*
X010740Y011582D02*
X010655Y011582D01*
X011275Y011287D02*
X011375Y011287D01*
X011375Y011188D02*
X011275Y011188D01*
X011275Y011090D02*
X011375Y011090D01*
X011375Y010794D02*
X011275Y010794D01*
X011275Y010696D02*
X011375Y010696D01*
X011375Y010597D02*
X011275Y010597D01*
X011275Y010499D02*
X011375Y010499D01*
X011741Y010499D02*
X011905Y010499D01*
X011902Y010597D02*
X011751Y010597D01*
X011751Y010696D02*
X011902Y010696D01*
X011902Y010794D02*
X011751Y010794D01*
X013361Y009344D02*
X013407Y009390D01*
X014196Y010176D01*
X014198Y010176D01*
X014243Y010222D01*
X014288Y010267D01*
X014289Y010268D01*
X014290Y010270D01*
X014314Y010329D01*
X014338Y010388D01*
X014338Y010390D01*
X014339Y010392D01*
X014339Y010455D01*
X014339Y010519D01*
X014338Y010521D01*
X014335Y010857D01*
X014382Y010900D01*
X014569Y011050D01*
X014578Y011030D01*
X014546Y010954D01*
X014546Y010579D01*
X014575Y010511D01*
X014546Y010443D01*
X014546Y010239D01*
X014519Y010172D01*
X014519Y008445D01*
X014504Y008410D01*
X014504Y008162D01*
X014430Y008193D01*
X014101Y008193D01*
X014009Y008155D01*
X013939Y008084D01*
X013901Y007992D01*
X013901Y007803D01*
X013903Y007798D01*
X013901Y007792D01*
X013901Y007603D01*
X013903Y007596D01*
X013902Y007592D01*
X013902Y007403D01*
X013904Y007398D01*
X013902Y007392D01*
X013902Y007208D01*
X013901Y007205D01*
X013901Y007015D01*
X013903Y007010D01*
X013901Y007005D01*
X013901Y006815D01*
X013939Y006724D01*
X014009Y006653D01*
X014101Y006615D01*
X014242Y006615D01*
X014314Y006586D01*
X014504Y006586D01*
X014504Y006396D01*
X014531Y006331D01*
X014531Y006183D01*
X014569Y006091D01*
X014639Y006021D01*
X014726Y005985D01*
X014726Y005540D01*
X014289Y005540D01*
X014178Y005494D01*
X014136Y005452D01*
X014075Y005452D01*
X013926Y005390D01*
X013812Y005276D01*
X013750Y005128D01*
X013750Y004967D01*
X013757Y004950D01*
X013714Y004907D01*
X013676Y004815D01*
X013676Y004282D01*
X013714Y004190D01*
X013779Y004126D01*
X013776Y004115D01*
X013776Y003928D01*
X014074Y003928D01*
X014074Y003831D01*
X013776Y003831D01*
X013776Y003680D01*
X012858Y003680D01*
X012858Y003824D01*
X012779Y004017D01*
X012631Y004165D01*
X012598Y004178D01*
X012599Y004179D01*
X012629Y004239D01*
X012650Y004303D01*
X012660Y004365D01*
X012273Y004365D01*
X012273Y004440D01*
X012660Y004440D01*
X012650Y004502D01*
X012629Y004565D01*
X012599Y004625D01*
X012560Y004679D01*
X012512Y004726D01*
X012458Y004766D01*
X012417Y004787D01*
X012516Y004828D01*
X012664Y004976D01*
X012744Y005169D01*
X012744Y005378D01*
X012664Y005571D01*
X012516Y005718D01*
X012323Y005798D01*
X012114Y005798D01*
X011921Y005718D01*
X011892Y005690D01*
X011891Y006089D01*
X011981Y006185D01*
X012023Y006227D01*
X012025Y006233D01*
X012030Y006238D01*
X012051Y006294D01*
X012073Y006348D01*
X012073Y006355D01*
X012076Y006361D01*
X012074Y006420D01*
X012080Y008946D01*
X012415Y009289D01*
X013173Y009293D01*
X013238Y009293D01*
X013239Y009294D01*
X013240Y009294D01*
X013300Y009319D01*
X013359Y009343D01*
X013360Y009344D01*
X013361Y009344D01*
X013295Y009317D02*
X014519Y009317D01*
X014519Y009415D02*
X013432Y009415D01*
X013531Y009514D02*
X014519Y009514D01*
X014519Y009612D02*
X013630Y009612D01*
X013729Y009711D02*
X014519Y009711D01*
X014519Y009809D02*
X013828Y009809D01*
X013927Y009908D02*
X014519Y009908D01*
X014519Y010006D02*
X014026Y010006D01*
X014125Y010105D02*
X014519Y010105D01*
X014532Y010203D02*
X014224Y010203D01*
X014303Y010302D02*
X014546Y010302D01*
X014546Y010400D02*
X014339Y010400D01*
X014339Y010499D02*
X014569Y010499D01*
X014546Y010597D02*
X014337Y010597D01*
X014337Y010696D02*
X014546Y010696D01*
X014546Y010794D02*
X014336Y010794D01*
X014374Y010893D02*
X014546Y010893D01*
X014561Y010991D02*
X014496Y010991D01*
X015564Y010138D02*
X016078Y010129D01*
X016073Y010037D01*
X016066Y010042D02*
X016078Y010129D01*
X015564Y010138D02*
X015025Y009599D01*
X015025Y008180D01*
X014504Y008233D02*
X012078Y008233D01*
X012078Y008135D02*
X013989Y008135D01*
X013919Y008036D02*
X012078Y008036D01*
X012078Y007938D02*
X013901Y007938D01*
X013901Y007839D02*
X012077Y007839D01*
X012077Y007741D02*
X013901Y007741D01*
X013901Y007642D02*
X012077Y007642D01*
X012077Y007544D02*
X013902Y007544D01*
X013902Y007445D02*
X012076Y007445D01*
X012076Y007347D02*
X013902Y007347D01*
X013902Y007248D02*
X012076Y007248D01*
X012076Y007150D02*
X013901Y007150D01*
X013901Y007051D02*
X012075Y007051D01*
X012075Y006953D02*
X013901Y006953D01*
X013901Y006854D02*
X012075Y006854D01*
X012074Y006756D02*
X013926Y006756D01*
X014005Y006657D02*
X012074Y006657D01*
X012074Y006559D02*
X014504Y006559D01*
X014504Y006460D02*
X013955Y006460D01*
X014023Y006432D02*
X013858Y006500D01*
X013681Y006500D01*
X013516Y006432D01*
X013391Y006306D01*
X013323Y006142D01*
X013323Y005964D01*
X013391Y005800D01*
X013516Y005675D01*
X013681Y005607D01*
X013858Y005607D01*
X014023Y005675D01*
X014148Y005800D01*
X014216Y005964D01*
X014216Y006142D01*
X014148Y006306D01*
X014023Y006432D01*
X014093Y006362D02*
X014518Y006362D01*
X014531Y006263D02*
X014166Y006263D01*
X014207Y006165D02*
X014538Y006165D01*
X014594Y006066D02*
X014216Y006066D01*
X014216Y005968D02*
X014726Y005968D01*
X014726Y005869D02*
X014177Y005869D01*
X014119Y005771D02*
X014726Y005771D01*
X014726Y005672D02*
X014016Y005672D01*
X014159Y005475D02*
X012703Y005475D01*
X012744Y005377D02*
X013912Y005377D01*
X013813Y005278D02*
X012744Y005278D01*
X012744Y005180D02*
X013772Y005180D01*
X013750Y005081D02*
X012707Y005081D01*
X012666Y004983D02*
X013750Y004983D01*
X013705Y004884D02*
X012572Y004884D01*
X012419Y004786D02*
X013676Y004786D01*
X013676Y004687D02*
X012552Y004687D01*
X012618Y004589D02*
X013676Y004589D01*
X013676Y004490D02*
X012652Y004490D01*
X012647Y004293D02*
X013676Y004293D01*
X013676Y004392D02*
X012273Y004392D01*
X012607Y004195D02*
X013712Y004195D01*
X013776Y004096D02*
X012700Y004096D01*
X012787Y003998D02*
X013776Y003998D01*
X013776Y003801D02*
X012858Y003801D01*
X012858Y003702D02*
X013776Y003702D01*
X014074Y003899D02*
X012828Y003899D01*
X013007Y003020D02*
X015332Y003020D01*
X015453Y003070D01*
X015546Y003163D01*
X016046Y003663D01*
X016096Y003784D01*
X016096Y004120D01*
X016232Y004120D01*
X016353Y004170D01*
X016446Y004263D01*
X017146Y004963D01*
X017196Y005084D01*
X017196Y005513D01*
X017203Y005520D01*
X018232Y005520D01*
X018353Y005570D01*
X018446Y005663D01*
X019146Y006363D01*
X019196Y006484D01*
X019196Y008013D01*
X019803Y008620D01*
X023532Y008620D01*
X023653Y008670D01*
X023746Y008763D01*
X024146Y009163D01*
X024196Y009284D01*
X024196Y009710D01*
X024282Y009796D01*
X024357Y009976D01*
X024357Y010171D01*
X024282Y010351D01*
X024145Y010489D01*
X023964Y010563D01*
X023769Y010563D01*
X023589Y010489D01*
X023452Y010351D01*
X023377Y010171D01*
X023377Y009976D01*
X023452Y009796D01*
X023536Y009711D01*
X023536Y009487D01*
X023330Y009280D01*
X022951Y009280D01*
X022951Y009296D01*
X023013Y009358D01*
X023051Y009450D01*
X023051Y009687D01*
X023013Y009779D01*
X022967Y009824D01*
X023013Y009870D01*
X023051Y009962D01*
X023051Y010198D01*
X023047Y010208D01*
X023051Y010218D01*
X023051Y010454D01*
X023047Y010464D01*
X023051Y010474D01*
X023051Y010710D01*
X023047Y010720D01*
X023051Y010730D01*
X023051Y010966D01*
X023047Y010976D01*
X023051Y010986D01*
X023051Y011222D01*
X023047Y011232D01*
X023051Y011242D01*
X023051Y011478D01*
X023047Y011488D01*
X023051Y011497D01*
X023051Y011734D01*
X023047Y011744D01*
X023051Y011753D01*
X023051Y011990D01*
X023047Y012000D01*
X023051Y012009D01*
X023051Y012246D01*
X023013Y012338D01*
X022942Y012408D01*
X022850Y012446D01*
X022201Y012446D01*
X022180Y012437D01*
X021682Y012437D01*
X021576Y012394D01*
X021576Y012912D01*
X021529Y013026D01*
X020776Y013778D01*
X020776Y013873D01*
X020777Y013872D01*
X020898Y013751D01*
X021056Y013686D01*
X021227Y013686D01*
X021385Y013751D01*
X021506Y013872D01*
X021543Y013960D01*
X022038Y013422D01*
X021938Y013381D01*
X021817Y013260D01*
X021752Y013102D01*
X021752Y012931D01*
X021817Y012773D01*
X021938Y012652D01*
X022096Y012586D01*
X022267Y012586D01*
X022425Y012652D01*
X022546Y012773D01*
X022574Y012840D01*
X022682Y012722D01*
X023715Y011693D01*
X023630Y011607D01*
X023564Y011449D01*
X023564Y011278D01*
X023630Y011120D01*
X023751Y010999D01*
X023909Y010934D01*
X024080Y010934D01*
X024238Y010999D01*
X024325Y011086D01*
X024747Y010666D01*
X024859Y010563D01*
X024769Y010563D01*
X024589Y010489D01*
X024452Y010351D01*
X024377Y010171D01*
X024377Y009976D01*
X024452Y009796D01*
X024474Y009773D01*
X024473Y009757D01*
X024477Y009744D01*
X024478Y007839D01*
X019196Y007839D01*
X019196Y007741D02*
X024487Y007741D01*
X024478Y007763D02*
X024505Y007697D01*
X024531Y007631D01*
X024533Y007629D01*
X024534Y007627D01*
X024584Y007576D01*
X024719Y007439D01*
X024058Y007439D01*
X023922Y007382D01*
X023818Y007278D01*
X023635Y007095D01*
X023550Y007060D01*
X023436Y006946D01*
X023375Y006797D01*
X023375Y006636D01*
X023436Y006487D01*
X023550Y006373D01*
X023699Y006312D01*
X023860Y006312D01*
X024009Y006373D01*
X024123Y006487D01*
X024158Y006572D01*
X024285Y006699D01*
X024746Y006699D01*
X024746Y006502D01*
X024803Y006366D01*
X024886Y006283D01*
X024886Y006093D01*
X024924Y006001D01*
X024994Y005931D01*
X025086Y005893D01*
X025618Y005893D01*
X025710Y005931D01*
X025775Y005995D01*
X025785Y005993D01*
X025973Y005993D01*
X025973Y006291D01*
X026070Y006291D01*
X026070Y006388D01*
X025973Y006388D01*
X025973Y006686D01*
X025785Y006686D01*
X025775Y006684D01*
X025768Y006691D01*
X025894Y006691D01*
X025904Y006695D01*
X025913Y006691D01*
X026209Y006691D01*
X026301Y006729D01*
X026372Y006799D01*
X026410Y006891D01*
X026410Y006943D01*
X026431Y006995D01*
X026431Y007142D01*
X026410Y007194D01*
X026410Y007246D01*
X026381Y007315D01*
X026410Y007383D01*
X026410Y007435D01*
X026431Y007487D01*
X026431Y008179D01*
X026407Y008238D01*
X026462Y008215D01*
X026538Y008200D01*
X026546Y008200D01*
X026546Y008560D01*
X026186Y008560D01*
X026186Y008552D01*
X026198Y008491D01*
X026066Y008623D01*
X026066Y008687D01*
X025992Y008868D01*
X025854Y009005D01*
X025674Y009080D01*
X025479Y009080D01*
X025299Y009005D01*
X025217Y008924D01*
X025217Y009285D01*
X025251Y009252D01*
X025409Y009186D01*
X025580Y009186D01*
X025738Y009252D01*
X025859Y009373D01*
X025925Y009531D01*
X025925Y009591D01*
X026606Y008968D01*
X026606Y008620D01*
X026546Y008620D01*
X026546Y008560D01*
X026606Y008560D01*
X026606Y008200D01*
X026615Y008200D01*
X026690Y008215D01*
X026761Y008244D01*
X026825Y008287D01*
X026879Y008341D01*
X026922Y008405D01*
X026951Y008476D01*
X026966Y008552D01*
X026966Y008560D01*
X026606Y008560D01*
X026606Y008620D01*
X026966Y008620D01*
X026966Y008628D01*
X026962Y008648D01*
X028009Y007774D01*
X028180Y007609D01*
X028124Y007632D01*
X027953Y007632D01*
X027795Y007566D01*
X027674Y007445D01*
X026414Y007445D01*
X026431Y007544D02*
X027772Y007544D01*
X027674Y007445D02*
X027609Y007287D01*
X027609Y007116D01*
X027674Y006958D01*
X027795Y006837D01*
X027953Y006772D01*
X028124Y006772D01*
X028282Y006837D01*
X028403Y006958D01*
X028436Y007038D01*
X028441Y007010D01*
X028408Y006754D01*
X028365Y006636D01*
X028361Y006627D01*
X028336Y006572D01*
X028336Y006567D01*
X027249Y003961D01*
X027221Y003907D01*
X027221Y003971D01*
X027155Y004129D01*
X027034Y004250D01*
X026876Y004315D01*
X026705Y004315D01*
X026547Y004250D01*
X026426Y004129D01*
X026361Y003971D01*
X026361Y003881D01*
X024581Y004974D01*
X024682Y005075D01*
X024748Y005233D01*
X024748Y005404D01*
X024682Y005562D01*
X024561Y005683D01*
X024403Y005748D01*
X024232Y005748D01*
X024074Y005683D01*
X023953Y005562D01*
X023891Y005412D01*
X023821Y005467D01*
X023438Y005638D01*
X023438Y005638D01*
X023024Y005710D01*
X022606Y005680D01*
X022606Y005680D01*
X022207Y005547D01*
X022053Y005449D01*
X021909Y005388D01*
X021909Y005395D01*
X021843Y005553D01*
X021722Y005674D01*
X021564Y005739D01*
X021393Y005739D01*
X021235Y005674D01*
X021114Y005553D01*
X021049Y005395D01*
X021049Y005223D01*
X021114Y005065D01*
X021126Y005054D01*
X017296Y003420D01*
X017243Y003549D01*
X017122Y003670D01*
X016964Y003736D01*
X016793Y003736D01*
X016634Y003670D01*
X016514Y003549D01*
X016448Y003391D01*
X016448Y003220D01*
X016505Y003082D01*
X014938Y002414D01*
X014946Y002433D01*
X014946Y002604D01*
X014880Y002762D01*
X014759Y002883D01*
X014601Y002949D01*
X014430Y002949D01*
X014272Y002883D01*
X014151Y002762D01*
X014086Y002604D01*
X014086Y002433D01*
X014151Y002275D01*
X014272Y002154D01*
X014301Y002142D01*
X012713Y001465D01*
X012713Y001639D01*
X012645Y001803D01*
X012580Y001868D01*
X012763Y001868D01*
X012956Y001948D01*
X013104Y002096D01*
X013184Y002289D01*
X013184Y002498D01*
X013104Y002691D01*
X012956Y002838D01*
X012955Y002839D01*
X013007Y002965D01*
X013007Y003020D01*
X013007Y003013D02*
X016341Y003013D01*
X016493Y003111D02*
X015494Y003111D01*
X015592Y003210D02*
X016453Y003210D01*
X016448Y003308D02*
X015691Y003308D01*
X015789Y003407D02*
X016454Y003407D01*
X016495Y003505D02*
X015888Y003505D01*
X015986Y003604D02*
X016568Y003604D01*
X016711Y003702D02*
X016062Y003702D01*
X016096Y003801D02*
X018188Y003801D01*
X017958Y003702D02*
X017045Y003702D01*
X017189Y003604D02*
X017727Y003604D01*
X017496Y003505D02*
X017261Y003505D01*
X016476Y004293D02*
X019343Y004293D01*
X019574Y004392D02*
X016574Y004392D01*
X016673Y004490D02*
X019805Y004490D01*
X020035Y004589D02*
X016771Y004589D01*
X016870Y004687D02*
X020266Y004687D01*
X020497Y004786D02*
X016968Y004786D01*
X017067Y004884D02*
X020728Y004884D01*
X020959Y004983D02*
X017154Y004983D01*
X017195Y005081D02*
X021108Y005081D01*
X021067Y005180D02*
X017196Y005180D01*
X017196Y005278D02*
X021049Y005278D01*
X021049Y005377D02*
X017196Y005377D01*
X017196Y005475D02*
X021082Y005475D01*
X021135Y005574D02*
X018356Y005574D01*
X018455Y005672D02*
X021234Y005672D01*
X021724Y005672D02*
X022583Y005672D01*
X022286Y005574D02*
X021822Y005574D01*
X021876Y005475D02*
X022093Y005475D01*
X022207Y005547D02*
X022207Y005547D01*
X023024Y005710D02*
X023024Y005710D01*
X023244Y005672D02*
X024063Y005672D01*
X023965Y005574D02*
X023582Y005574D01*
X023803Y005475D02*
X023917Y005475D01*
X023821Y005467D02*
X023821Y005467D01*
X024572Y005672D02*
X027963Y005672D01*
X028004Y005771D02*
X018553Y005771D01*
X018652Y005869D02*
X028045Y005869D01*
X028086Y005968D02*
X025747Y005968D01*
X025973Y006066D02*
X026070Y006066D01*
X026070Y005993D02*
X026258Y005993D01*
X026296Y006003D01*
X026330Y006023D01*
X026358Y006050D01*
X026378Y006085D01*
X026388Y006123D01*
X026388Y006291D01*
X026070Y006291D01*
X026070Y005993D01*
X026070Y006165D02*
X025973Y006165D01*
X025973Y006263D02*
X026070Y006263D01*
X026070Y006362D02*
X028251Y006362D01*
X028292Y006460D02*
X026388Y006460D01*
X026388Y006388D02*
X026388Y006556D01*
X026378Y006594D01*
X026358Y006628D01*
X026330Y006656D01*
X026296Y006676D01*
X026258Y006686D01*
X026070Y006686D01*
X026070Y006388D01*
X026388Y006388D01*
X026388Y006263D02*
X028210Y006263D01*
X028168Y006165D02*
X026388Y006165D01*
X026367Y006066D02*
X028127Y006066D01*
X027922Y005574D02*
X024671Y005574D01*
X024718Y005475D02*
X026125Y005475D01*
X026177Y005497D02*
X026013Y005429D01*
X025887Y005303D01*
X025819Y005139D01*
X025819Y004961D01*
X025887Y004797D01*
X026013Y004671D01*
X026177Y004603D01*
X026355Y004603D01*
X026519Y004671D01*
X026645Y004797D01*
X026713Y004961D01*
X026713Y005139D01*
X026645Y005303D01*
X026519Y005429D01*
X026355Y005497D01*
X026177Y005497D01*
X026408Y005475D02*
X027881Y005475D01*
X027840Y005377D02*
X026572Y005377D01*
X026655Y005278D02*
X027798Y005278D01*
X027757Y005180D02*
X026696Y005180D01*
X026713Y005081D02*
X027716Y005081D01*
X027675Y004983D02*
X026713Y004983D01*
X026681Y004884D02*
X027634Y004884D01*
X027593Y004786D02*
X026634Y004786D01*
X026535Y004687D02*
X027552Y004687D01*
X027511Y004589D02*
X025209Y004589D01*
X025048Y004687D02*
X025997Y004687D01*
X025899Y004786D02*
X024888Y004786D01*
X024728Y004884D02*
X025851Y004884D01*
X025819Y004983D02*
X024590Y004983D01*
X024685Y005081D02*
X025819Y005081D01*
X025836Y005180D02*
X024726Y005180D01*
X024748Y005278D02*
X025877Y005278D01*
X025961Y005377D02*
X024748Y005377D01*
X024957Y005968D02*
X018750Y005968D01*
X018849Y006066D02*
X024897Y006066D01*
X024886Y006165D02*
X018947Y006165D01*
X019046Y006263D02*
X024886Y006263D01*
X024807Y006362D02*
X023981Y006362D01*
X024096Y006460D02*
X024764Y006460D01*
X024746Y006559D02*
X024153Y006559D01*
X024243Y006657D02*
X024746Y006657D01*
X024712Y007445D02*
X019196Y007445D01*
X019196Y007347D02*
X023886Y007347D01*
X023788Y007248D02*
X019196Y007248D01*
X019196Y007150D02*
X023689Y007150D01*
X023541Y007051D02*
X019196Y007051D01*
X019196Y006953D02*
X023443Y006953D01*
X023398Y006854D02*
X019196Y006854D01*
X019196Y006756D02*
X023375Y006756D01*
X023375Y006657D02*
X019196Y006657D01*
X019196Y006559D02*
X023407Y006559D01*
X023464Y006460D02*
X019186Y006460D01*
X019144Y006362D02*
X023579Y006362D01*
X024617Y007544D02*
X019196Y007544D01*
X019196Y007642D02*
X024527Y007642D01*
X024478Y007763D02*
X024478Y007765D01*
X024477Y007768D01*
X024478Y007839D01*
X024478Y007938D02*
X019196Y007938D01*
X019219Y008036D02*
X024478Y008036D01*
X024478Y008135D02*
X019317Y008135D01*
X019416Y008233D02*
X024478Y008233D01*
X024478Y008332D02*
X019514Y008332D01*
X019613Y008430D02*
X024478Y008430D01*
X024478Y008529D02*
X019711Y008529D01*
X019271Y009021D02*
X018457Y009021D01*
X018457Y009029D02*
X018502Y009047D01*
X018502Y009048D01*
X018639Y009048D01*
X018665Y009042D01*
X018700Y009048D01*
X018734Y009048D01*
X018740Y009045D01*
X018901Y009045D01*
X019050Y009107D01*
X019123Y009179D01*
X019142Y009187D01*
X019185Y009231D01*
X019222Y009267D01*
X019222Y009224D01*
X019232Y009186D01*
X019252Y009152D01*
X019280Y009124D01*
X019314Y009104D01*
X019345Y009096D01*
X018679Y008430D01*
X018586Y008337D01*
X018536Y008216D01*
X018536Y006687D01*
X018464Y006614D01*
X018464Y006750D01*
X018465Y006752D01*
X018467Y006915D01*
X018464Y006924D01*
X018464Y007147D01*
X018426Y007239D01*
X018361Y007303D01*
X018364Y007313D01*
X018364Y007501D01*
X018066Y007501D01*
X018066Y007598D01*
X018364Y007598D01*
X018364Y007786D01*
X018354Y007824D01*
X018347Y007836D01*
X018357Y007873D01*
X018357Y008061D01*
X018058Y008061D01*
X018058Y007743D01*
X018066Y007743D01*
X018066Y007598D01*
X017969Y007598D01*
X017969Y007916D01*
X017962Y007916D01*
X017962Y008061D01*
X017663Y008061D01*
X017663Y007873D01*
X017673Y007835D01*
X017680Y007823D01*
X017670Y007786D01*
X017670Y007598D01*
X017969Y007598D01*
X017969Y007501D01*
X017670Y007501D01*
X017670Y007313D01*
X017673Y007303D01*
X017608Y007239D01*
X017570Y007147D01*
X017570Y006962D01*
X017288Y006965D01*
X017252Y007000D01*
X017104Y007062D01*
X017013Y007062D01*
X016913Y007141D01*
X016882Y007173D01*
X016865Y007180D01*
X016852Y007191D01*
X016809Y007203D01*
X016768Y007220D01*
X016750Y007220D01*
X016733Y007225D01*
X016733Y007392D01*
X016731Y007398D01*
X016733Y007403D01*
X016733Y007592D01*
X016730Y007599D01*
X016732Y007603D01*
X016732Y007792D01*
X016730Y007798D01*
X016732Y007803D01*
X016732Y007817D01*
X016797Y007753D01*
X016945Y007691D01*
X017107Y007691D01*
X017255Y007753D01*
X017369Y007867D01*
X017431Y008015D01*
X017431Y008177D01*
X017398Y008256D01*
X017509Y008370D01*
X017560Y008420D01*
X017561Y008422D01*
X017562Y008424D01*
X017567Y008437D01*
X017594Y008437D01*
X017601Y008420D01*
X017666Y008356D01*
X017663Y008345D01*
X017663Y008157D01*
X017962Y008157D01*
X017962Y008061D01*
X018058Y008061D01*
X018058Y008157D01*
X018357Y008157D01*
X018357Y008345D01*
X018354Y008356D01*
X018419Y008420D01*
X018457Y008512D01*
X018457Y009029D01*
X018457Y008923D02*
X019172Y008923D01*
X019074Y008824D02*
X018457Y008824D01*
X018457Y008726D02*
X018975Y008726D01*
X018877Y008627D02*
X018457Y008627D01*
X018457Y008529D02*
X018778Y008529D01*
X018680Y008430D02*
X018423Y008430D01*
X018357Y008332D02*
X018584Y008332D01*
X018543Y008233D02*
X018357Y008233D01*
X018357Y008036D02*
X018536Y008036D01*
X018536Y007938D02*
X018357Y007938D01*
X018348Y007839D02*
X018536Y007839D01*
X018536Y007741D02*
X018364Y007741D01*
X018364Y007642D02*
X018536Y007642D01*
X018536Y007544D02*
X018066Y007544D01*
X017969Y007544D02*
X016733Y007544D01*
X016732Y007642D02*
X017670Y007642D01*
X017670Y007741D02*
X017226Y007741D01*
X017342Y007839D02*
X017672Y007839D01*
X017663Y007938D02*
X017399Y007938D01*
X017431Y008036D02*
X017663Y008036D01*
X017663Y008233D02*
X017408Y008233D01*
X017431Y008135D02*
X017962Y008135D01*
X018058Y008135D02*
X018536Y008135D01*
X018058Y008036D02*
X017962Y008036D01*
X017962Y007938D02*
X018058Y007938D01*
X018058Y007839D02*
X017969Y007839D01*
X017969Y007741D02*
X018066Y007741D01*
X018066Y007642D02*
X017969Y007642D01*
X017670Y007445D02*
X016733Y007445D01*
X016733Y007347D02*
X017670Y007347D01*
X017618Y007248D02*
X016733Y007248D01*
X016733Y007225D02*
X016733Y007225D01*
X016905Y007150D02*
X017572Y007150D01*
X017570Y007051D02*
X017130Y007051D01*
X016826Y007741D02*
X016732Y007741D01*
X016621Y008156D02*
X016532Y008193D01*
X016202Y008193D01*
X016138Y008166D01*
X016138Y008410D01*
X016111Y008475D01*
X016111Y008623D01*
X016073Y008715D01*
X016002Y008786D01*
X015926Y008817D01*
X015926Y008961D01*
X016026Y009062D01*
X016304Y009062D01*
X016396Y009100D01*
X016460Y009164D01*
X016471Y009162D01*
X016658Y009162D01*
X016658Y009460D01*
X016755Y009460D01*
X016755Y009162D01*
X016876Y009162D01*
X016876Y008781D01*
X016766Y008669D01*
X016716Y008619D01*
X016715Y008616D01*
X016713Y008614D01*
X016686Y008549D01*
X016659Y008484D01*
X016659Y008480D01*
X016658Y008477D01*
X016658Y008407D01*
X016657Y008264D01*
X016621Y008177D01*
X016621Y008156D01*
X016644Y008233D02*
X016138Y008233D01*
X016138Y008332D02*
X016658Y008332D01*
X016658Y008430D02*
X016129Y008430D01*
X016111Y008529D02*
X016678Y008529D01*
X016724Y008627D02*
X016109Y008627D01*
X016062Y008726D02*
X016822Y008726D01*
X016876Y008824D02*
X015926Y008824D01*
X015926Y008923D02*
X016876Y008923D01*
X016876Y009021D02*
X015986Y009021D01*
X016416Y009120D02*
X016876Y009120D01*
X016755Y009218D02*
X016658Y009218D01*
X016658Y009317D02*
X016755Y009317D01*
X016755Y009415D02*
X016658Y009415D01*
X017565Y008430D02*
X017597Y008430D01*
X017663Y008332D02*
X017472Y008332D01*
X018364Y007445D02*
X018536Y007445D01*
X018536Y007347D02*
X018364Y007347D01*
X018416Y007248D02*
X018536Y007248D01*
X018536Y007150D02*
X018463Y007150D01*
X018464Y007051D02*
X018536Y007051D01*
X018536Y006953D02*
X018464Y006953D01*
X018467Y006854D02*
X018536Y006854D01*
X018536Y006756D02*
X018465Y006756D01*
X018464Y006657D02*
X018507Y006657D01*
X016111Y006910D02*
X016099Y006910D01*
X015616Y006625D02*
X015621Y004756D01*
X015616Y004800D01*
X015416Y004930D02*
X015416Y006622D01*
X015419Y006625D01*
X015426Y006618D01*
X015222Y006625D02*
X015222Y005206D01*
X014966Y004950D01*
X014766Y004950D01*
X014566Y004750D01*
X014566Y003979D01*
X014466Y003879D01*
X014470Y003831D02*
X014171Y003831D01*
X014171Y003928D01*
X014470Y003928D01*
X014470Y004115D01*
X014467Y004126D01*
X014532Y004190D01*
X014554Y004244D01*
X014577Y004186D01*
X014642Y004122D01*
X014639Y004112D01*
X014639Y003924D01*
X014938Y003924D01*
X014938Y003827D01*
X014639Y003827D01*
X014639Y003680D01*
X014470Y003680D01*
X014470Y003831D01*
X014470Y003801D02*
X014639Y003801D01*
X014639Y003702D02*
X014470Y003702D01*
X014470Y003998D02*
X014639Y003998D01*
X014639Y004096D02*
X014470Y004096D01*
X014533Y004195D02*
X014574Y004195D01*
X014938Y003899D02*
X014171Y003899D01*
X014123Y004548D02*
X014123Y004907D01*
X014155Y005047D01*
X014348Y005240D01*
X014876Y005240D01*
X015026Y005380D01*
X015026Y006624D01*
X015025Y006625D01*
X013584Y006460D02*
X012074Y006460D01*
X012076Y006362D02*
X013446Y006362D01*
X013373Y006263D02*
X012039Y006263D01*
X011961Y006165D02*
X013332Y006165D01*
X013323Y006066D02*
X011891Y006066D01*
X011892Y005968D02*
X013323Y005968D01*
X013362Y005869D02*
X011892Y005869D01*
X011892Y005771D02*
X012047Y005771D01*
X012390Y005771D02*
X013420Y005771D01*
X013522Y005672D02*
X012562Y005672D01*
X012661Y005574D02*
X014726Y005574D01*
X015416Y004930D02*
X015031Y004545D01*
X014986Y004545D01*
X015035Y003924D02*
X015333Y003924D01*
X015333Y003968D01*
X015418Y003968D01*
X015276Y003827D01*
X015035Y003827D01*
X015035Y003924D01*
X015035Y003899D02*
X015349Y003899D01*
X014992Y003870D02*
X014986Y003875D01*
X014982Y003879D01*
X016096Y003899D02*
X018419Y003899D01*
X018650Y003998D02*
X016096Y003998D01*
X016096Y004096D02*
X018881Y004096D01*
X019112Y004195D02*
X016377Y004195D01*
X016111Y002914D02*
X014685Y002914D01*
X014827Y002816D02*
X015880Y002816D01*
X015649Y002717D02*
X014899Y002717D01*
X014940Y002619D02*
X015418Y002619D01*
X015187Y002520D02*
X014946Y002520D01*
X014941Y002422D02*
X014956Y002422D01*
X014264Y002126D02*
X013116Y002126D01*
X013157Y002225D02*
X014202Y002225D01*
X014131Y002323D02*
X013184Y002323D01*
X013184Y002422D02*
X014091Y002422D01*
X014086Y002520D02*
X013174Y002520D01*
X013134Y002619D02*
X014092Y002619D01*
X014133Y002717D02*
X013077Y002717D01*
X012979Y002816D02*
X014205Y002816D01*
X014347Y002914D02*
X012986Y002914D01*
X013035Y002028D02*
X014033Y002028D01*
X013802Y001929D02*
X012910Y001929D01*
X012675Y001732D02*
X013340Y001732D01*
X013109Y001634D02*
X012713Y001634D01*
X012713Y001535D02*
X012878Y001535D01*
X012618Y001831D02*
X013571Y001831D01*
X014504Y008332D02*
X012079Y008332D01*
X012079Y008430D02*
X014512Y008430D01*
X014519Y008529D02*
X012079Y008529D01*
X012079Y008627D02*
X014519Y008627D01*
X014519Y008726D02*
X012080Y008726D01*
X012080Y008824D02*
X014519Y008824D01*
X014519Y008923D02*
X012080Y008923D01*
X012153Y009021D02*
X014519Y009021D01*
X014519Y009120D02*
X012249Y009120D01*
X012345Y009218D02*
X014519Y009218D01*
X015748Y012138D02*
X016011Y012042D01*
X016011Y012042D01*
X016136Y011996D01*
X016156Y012053D01*
X015919Y012139D01*
X015919Y012139D01*
X015768Y012194D01*
X015748Y012138D01*
X015761Y012173D02*
X015826Y012173D01*
X015921Y012075D02*
X016096Y012075D01*
X019142Y009187D02*
X019142Y009187D01*
X019142Y009187D01*
X019173Y009218D02*
X019224Y009218D01*
X019288Y009120D02*
X019063Y009120D01*
X022971Y009317D02*
X023366Y009317D01*
X023465Y009415D02*
X023036Y009415D01*
X023051Y009514D02*
X023536Y009514D01*
X023536Y009612D02*
X023051Y009612D01*
X023041Y009711D02*
X023536Y009711D01*
X023446Y009809D02*
X022982Y009809D01*
X023028Y009908D02*
X023405Y009908D01*
X023377Y010006D02*
X023051Y010006D01*
X023051Y010105D02*
X023377Y010105D01*
X023390Y010203D02*
X023049Y010203D01*
X023051Y010302D02*
X023431Y010302D01*
X023501Y010400D02*
X023051Y010400D01*
X023051Y010499D02*
X023613Y010499D01*
X024121Y010499D02*
X024613Y010499D01*
X024501Y010400D02*
X024233Y010400D01*
X024303Y010302D02*
X024431Y010302D01*
X024390Y010203D02*
X024344Y010203D01*
X024357Y010105D02*
X024377Y010105D01*
X024377Y010006D02*
X024357Y010006D01*
X024329Y009908D02*
X024405Y009908D01*
X024446Y009809D02*
X024288Y009809D01*
X024197Y009711D02*
X024477Y009711D01*
X024477Y009612D02*
X024196Y009612D01*
X024196Y009514D02*
X024477Y009514D01*
X024477Y009415D02*
X024196Y009415D01*
X024196Y009317D02*
X024477Y009317D01*
X024477Y009218D02*
X024169Y009218D01*
X024102Y009120D02*
X024477Y009120D01*
X024477Y009021D02*
X024004Y009021D01*
X023905Y008923D02*
X024477Y008923D01*
X024477Y008824D02*
X023807Y008824D01*
X023708Y008726D02*
X024477Y008726D01*
X024478Y008627D02*
X023549Y008627D01*
X025217Y009021D02*
X025336Y009021D01*
X025217Y009120D02*
X026441Y009120D01*
X026333Y009218D02*
X025657Y009218D01*
X025803Y009317D02*
X026225Y009317D01*
X026117Y009415D02*
X025877Y009415D01*
X025917Y009514D02*
X026009Y009514D01*
X025816Y009021D02*
X026549Y009021D01*
X026546Y008980D02*
X026538Y008980D01*
X026462Y008965D01*
X026392Y008936D01*
X026328Y008893D01*
X026273Y008839D01*
X026231Y008775D01*
X026201Y008704D01*
X026186Y008628D01*
X026186Y008620D01*
X026546Y008620D01*
X026546Y008980D01*
X026546Y008923D02*
X026606Y008923D01*
X026606Y008824D02*
X026546Y008824D01*
X026546Y008726D02*
X026606Y008726D01*
X026606Y008627D02*
X026546Y008627D01*
X026546Y008529D02*
X026606Y008529D01*
X026606Y008430D02*
X026546Y008430D01*
X026546Y008332D02*
X026606Y008332D01*
X026606Y008233D02*
X026546Y008233D01*
X026419Y008233D02*
X026409Y008233D01*
X026431Y008135D02*
X027577Y008135D01*
X027459Y008233D02*
X026734Y008233D01*
X026869Y008332D02*
X027341Y008332D01*
X027224Y008430D02*
X026932Y008430D01*
X026962Y008529D02*
X027106Y008529D01*
X026988Y008627D02*
X026966Y008627D01*
X026372Y008923D02*
X025937Y008923D01*
X026010Y008824D02*
X026264Y008824D01*
X026210Y008726D02*
X026050Y008726D01*
X026066Y008627D02*
X026186Y008627D01*
X026191Y008529D02*
X026161Y008529D01*
X026431Y008036D02*
X027695Y008036D01*
X027813Y007938D02*
X026431Y007938D01*
X026431Y007839D02*
X027931Y007839D01*
X028043Y007741D02*
X026431Y007741D01*
X026431Y007642D02*
X028145Y007642D01*
X027633Y007347D02*
X026394Y007347D01*
X026409Y007248D02*
X027609Y007248D01*
X027609Y007150D02*
X026428Y007150D01*
X026431Y007051D02*
X027636Y007051D01*
X027680Y006953D02*
X026414Y006953D01*
X026394Y006854D02*
X027779Y006854D01*
X028299Y006854D02*
X028421Y006854D01*
X028409Y006756D02*
X026328Y006756D01*
X026329Y006657D02*
X028373Y006657D01*
X028333Y006559D02*
X026387Y006559D01*
X026070Y006559D02*
X025973Y006559D01*
X025973Y006657D02*
X026070Y006657D01*
X026070Y006460D02*
X025973Y006460D01*
X028398Y006953D02*
X028434Y006953D01*
X025333Y009218D02*
X025217Y009218D01*
X024822Y010597D02*
X023051Y010597D01*
X023051Y010696D02*
X024717Y010696D01*
X024618Y010794D02*
X023051Y010794D01*
X023051Y010893D02*
X024519Y010893D01*
X024420Y010991D02*
X024218Y010991D01*
X023770Y010991D02*
X023051Y010991D01*
X023051Y011090D02*
X023660Y011090D01*
X023601Y011188D02*
X023051Y011188D01*
X023051Y011287D02*
X023564Y011287D01*
X023564Y011385D02*
X023051Y011385D01*
X023048Y011484D02*
X023578Y011484D01*
X023619Y011582D02*
X023051Y011582D01*
X023051Y011681D02*
X023703Y011681D01*
X023629Y011779D02*
X023051Y011779D01*
X023051Y011878D02*
X023530Y011878D01*
X023431Y011976D02*
X023051Y011976D01*
X023051Y012075D02*
X023332Y012075D01*
X023233Y012173D02*
X023051Y012173D01*
X023040Y012272D02*
X023134Y012272D01*
X023035Y012370D02*
X022980Y012370D01*
X022936Y012469D02*
X021576Y012469D01*
X021576Y012567D02*
X022838Y012567D01*
X022739Y012666D02*
X022439Y012666D01*
X022537Y012764D02*
X022643Y012764D01*
X022682Y012722D02*
X022682Y012722D01*
X021924Y012666D02*
X021576Y012666D01*
X021576Y012764D02*
X021826Y012764D01*
X021780Y012863D02*
X021576Y012863D01*
X021556Y012961D02*
X021752Y012961D01*
X021752Y013060D02*
X021495Y013060D01*
X021397Y013158D02*
X021775Y013158D01*
X021816Y013257D02*
X021298Y013257D01*
X021200Y013355D02*
X021912Y013355D01*
X022009Y013454D02*
X021101Y013454D01*
X021003Y013552D02*
X021918Y013552D01*
X021828Y013651D02*
X020904Y013651D01*
X020903Y013749D02*
X020806Y013749D01*
X020801Y013848D02*
X020776Y013848D01*
X021380Y013749D02*
X021737Y013749D01*
X021646Y013848D02*
X021481Y013848D01*
X021537Y013946D02*
X021556Y013946D01*
X019773Y015157D02*
X017477Y015170D01*
X016539Y016103D01*
X016655Y016055D01*
X016816Y016055D01*
X016965Y016117D01*
X017079Y016230D01*
X017140Y016379D01*
X017140Y016448D01*
X017168Y016422D01*
X017221Y016390D01*
X017488Y017123D01*
X017544Y017103D01*
X017278Y016370D01*
X017278Y016369D02*
X017338Y016360D01*
X017399Y016363D01*
X017459Y016377D01*
X017514Y016403D01*
X017527Y016413D01*
X017531Y016397D01*
X017557Y016341D01*
X017593Y016292D01*
X017638Y016251D01*
X017691Y016219D01*
X017958Y016952D01*
X018014Y016932D01*
X018035Y016988D01*
X018298Y016892D01*
X018469Y017363D01*
X018478Y017423D01*
X018476Y017484D01*
X018461Y017543D01*
X018435Y017599D01*
X018399Y017648D01*
X018354Y017689D01*
X018373Y017689D01*
X018354Y017689D02*
X018302Y017721D01*
X018301Y017721D01*
X018035Y016988D01*
X017978Y017008D01*
X017958Y016952D01*
X017695Y017048D01*
X017695Y017048D01*
X017544Y017103D01*
X017565Y017159D01*
X017508Y017179D01*
X017775Y017912D01*
X017775Y017913D01*
X017714Y017922D01*
X017653Y017919D01*
X017620Y017911D01*
X017565Y018029D01*
X017444Y018139D01*
X017291Y018195D01*
X017128Y018188D01*
X017105Y018177D01*
X017095Y018200D01*
X016975Y018310D01*
X016821Y018366D01*
X016658Y018359D01*
X016636Y018348D01*
X016625Y018371D01*
X016505Y018481D01*
X016351Y018537D01*
X016189Y018530D01*
X016166Y018519D01*
X016155Y018542D01*
X016035Y018652D01*
X015882Y018708D01*
X015719Y018701D01*
X015696Y018690D01*
X015685Y018713D01*
X015565Y018823D01*
X015412Y018879D01*
X015357Y018877D01*
X015563Y019443D01*
X015559Y019543D01*
X015517Y019633D01*
X015444Y019700D01*
X014028Y020215D01*
X014891Y020757D01*
X014873Y020714D01*
X014873Y020543D01*
X014939Y020385D01*
X015060Y020264D01*
X015218Y020199D01*
X015389Y020199D01*
X015547Y020264D01*
X015668Y020385D01*
X015733Y020543D01*
X015733Y020714D01*
X015668Y020872D01*
X015619Y020921D01*
X015650Y020919D01*
X015909Y020829D01*
X016135Y020673D01*
X016225Y020580D01*
X016278Y020504D01*
X016165Y020504D01*
X016000Y020436D01*
X015875Y020311D01*
X015807Y020146D01*
X015807Y019969D01*
X015875Y019804D01*
X016000Y019679D01*
X016165Y019611D01*
X016342Y019611D01*
X016507Y019679D01*
X016632Y019804D01*
X016684Y019928D01*
X017051Y019405D01*
X018830Y017096D01*
X018977Y016922D01*
X018961Y016922D01*
X018803Y016856D01*
X018682Y016735D01*
X018617Y016577D01*
X018617Y016406D01*
X018682Y016248D01*
X018803Y016127D01*
X018961Y016062D01*
X019132Y016062D01*
X019290Y016127D01*
X019411Y016248D01*
X019455Y016355D01*
X019840Y015898D01*
X019784Y015875D01*
X019663Y015754D01*
X019598Y015596D01*
X019598Y015425D01*
X019663Y015267D01*
X019773Y015157D01*
X019704Y015227D02*
X017420Y015227D01*
X017321Y015325D02*
X019639Y015325D01*
X019598Y015424D02*
X017222Y015424D01*
X017123Y015522D02*
X019598Y015522D01*
X019608Y015621D02*
X017024Y015621D01*
X016925Y015719D02*
X019649Y015719D01*
X019726Y015818D02*
X016826Y015818D01*
X016727Y015916D02*
X019825Y015916D01*
X019742Y016015D02*
X016628Y016015D01*
X016956Y016113D02*
X018837Y016113D01*
X018719Y016212D02*
X017940Y016212D01*
X017929Y016206D02*
X017984Y016232D01*
X018033Y016268D01*
X018074Y016313D01*
X018106Y016365D01*
X018277Y016836D01*
X018014Y016932D01*
X017747Y016199D01*
X017748Y016198D01*
X017808Y016189D01*
X017869Y016192D01*
X017929Y016206D01*
X017788Y016310D02*
X017724Y016310D01*
X017691Y016219D02*
X017691Y016219D01*
X017752Y016212D02*
X017060Y016212D01*
X017112Y016310D02*
X017580Y016310D01*
X017529Y016409D02*
X017521Y016409D01*
X017328Y016507D02*
X017264Y016507D01*
X017292Y016409D02*
X017228Y016409D01*
X017221Y016390D02*
X017221Y016390D01*
X017191Y016409D02*
X017140Y016409D01*
X017278Y016370D02*
X017278Y016369D01*
X017300Y016606D02*
X017363Y016606D01*
X017335Y016704D02*
X017399Y016704D01*
X017371Y016803D02*
X017435Y016803D01*
X017407Y016901D02*
X017471Y016901D01*
X017443Y017000D02*
X017507Y017000D01*
X017479Y017098D02*
X017543Y017098D01*
X017557Y017098D02*
X017732Y017098D01*
X017828Y017063D02*
X017978Y017008D01*
X018245Y017741D01*
X018245Y017742D01*
X018184Y017751D01*
X018123Y017748D01*
X018064Y017734D01*
X018009Y017708D01*
X017995Y017698D01*
X017991Y017714D01*
X017965Y017770D01*
X017929Y017819D01*
X017884Y017860D01*
X017832Y017892D01*
X017832Y017892D01*
X017565Y017159D01*
X017828Y017063D01*
X017828Y017063D01*
X017827Y017000D02*
X017975Y017000D01*
X018003Y017000D02*
X018039Y017000D01*
X018011Y017098D02*
X018075Y017098D01*
X018047Y017197D02*
X018111Y017197D01*
X018083Y017295D02*
X018146Y017295D01*
X018118Y017394D02*
X018182Y017394D01*
X018154Y017492D02*
X018218Y017492D01*
X018190Y017591D02*
X018254Y017591D01*
X018226Y017689D02*
X018290Y017689D01*
X018298Y017788D02*
X017952Y017788D01*
X017841Y017886D02*
X018222Y017886D01*
X018146Y017985D02*
X017585Y017985D01*
X017506Y018083D02*
X018070Y018083D01*
X017994Y018182D02*
X017328Y018182D01*
X017115Y018182D02*
X017103Y018182D01*
X017008Y018280D02*
X017918Y018280D01*
X017842Y018379D02*
X016617Y018379D01*
X016509Y018477D02*
X017766Y018477D01*
X017690Y018576D02*
X016119Y018576D01*
X015975Y018674D02*
X017614Y018674D01*
X017539Y018773D02*
X015620Y018773D01*
X015434Y018871D02*
X017463Y018871D01*
X017387Y018970D02*
X015391Y018970D01*
X015427Y019068D02*
X017311Y019068D01*
X017235Y019167D02*
X015463Y019167D01*
X015499Y019265D02*
X017159Y019265D01*
X017083Y019364D02*
X015534Y019364D01*
X015563Y019462D02*
X017011Y019462D01*
X017051Y019405D02*
X017051Y019405D01*
X016942Y019561D02*
X015551Y019561D01*
X015488Y019659D02*
X016048Y019659D01*
X015922Y019758D02*
X015286Y019758D01*
X015015Y019856D02*
X015853Y019856D01*
X015813Y019955D02*
X014744Y019955D01*
X014474Y020053D02*
X015807Y020053D01*
X015809Y020152D02*
X014203Y020152D01*
X014084Y020250D02*
X015094Y020250D01*
X014975Y020349D02*
X014241Y020349D01*
X014398Y020447D02*
X014913Y020447D01*
X014873Y020546D02*
X014555Y020546D01*
X014712Y020644D02*
X014873Y020644D01*
X014869Y020743D02*
X014885Y020743D01*
X015513Y020250D02*
X015850Y020250D01*
X015913Y020349D02*
X015631Y020349D01*
X015693Y020447D02*
X016026Y020447D01*
X016163Y020644D02*
X015733Y020644D01*
X015733Y020546D02*
X016249Y020546D01*
X016035Y020743D02*
X015722Y020743D01*
X015681Y020841D02*
X015874Y020841D01*
X016654Y019856D02*
X016734Y019856D01*
X016803Y019758D02*
X016586Y019758D01*
X016459Y019659D02*
X016873Y019659D01*
X017766Y017886D02*
X017830Y017886D01*
X017794Y017788D02*
X017730Y017788D01*
X017758Y017689D02*
X017694Y017689D01*
X017722Y017591D02*
X017658Y017591D01*
X017686Y017492D02*
X017622Y017492D01*
X017650Y017394D02*
X017586Y017394D01*
X017614Y017295D02*
X017551Y017295D01*
X017579Y017197D02*
X017515Y017197D01*
X017939Y016901D02*
X018003Y016901D01*
X018098Y016901D02*
X018273Y016901D01*
X018301Y016901D02*
X018911Y016901D01*
X018912Y017000D02*
X018337Y017000D01*
X018373Y017098D02*
X018829Y017098D01*
X018830Y017096D02*
X018830Y017096D01*
X018753Y017197D02*
X018409Y017197D01*
X018444Y017295D02*
X018677Y017295D01*
X018601Y017394D02*
X018474Y017394D01*
X018474Y017492D02*
X018525Y017492D01*
X018449Y017591D02*
X018439Y017591D01*
X018265Y016803D02*
X018749Y016803D01*
X018669Y016704D02*
X018229Y016704D01*
X018193Y016606D02*
X018628Y016606D01*
X018617Y016507D02*
X018158Y016507D01*
X018122Y016409D02*
X018617Y016409D01*
X018656Y016310D02*
X018072Y016310D01*
X017824Y016409D02*
X017760Y016409D01*
X017796Y016507D02*
X017860Y016507D01*
X017832Y016606D02*
X017896Y016606D01*
X017868Y016704D02*
X017931Y016704D01*
X017903Y016803D02*
X017967Y016803D01*
X019256Y016113D02*
X019659Y016113D01*
X019576Y016212D02*
X019374Y016212D01*
X019437Y016310D02*
X019493Y016310D01*
X025369Y004490D02*
X027470Y004490D01*
X027428Y004392D02*
X025530Y004392D01*
X025690Y004293D02*
X026651Y004293D01*
X026492Y004195D02*
X025850Y004195D01*
X026011Y004096D02*
X026412Y004096D01*
X026372Y003998D02*
X026171Y003998D01*
X026332Y003899D02*
X026361Y003899D01*
X026930Y004293D02*
X027387Y004293D01*
X027346Y004195D02*
X027089Y004195D01*
X027169Y004096D02*
X027305Y004096D01*
X027264Y003998D02*
X027210Y003998D01*
D47*
X022996Y009310D02*
X022528Y009310D01*
X022526Y009313D01*
X021006Y009310D01*
X019647Y009313D01*
X019645Y009311D01*
X019144Y009311D01*
X018824Y008991D01*
X018824Y008469D01*
X018464Y008109D01*
X018010Y008109D01*
X018010Y007557D01*
X018017Y007550D01*
X018017Y006801D02*
X017866Y006650D01*
X017023Y006657D01*
X016966Y006619D01*
X016966Y006249D01*
X016582Y005865D01*
X016582Y005380D01*
X016442Y005241D01*
X015928Y005241D01*
X015621Y004756D02*
X015401Y004536D01*
X015401Y004005D01*
X015236Y003870D01*
X014992Y003870D01*
X012659Y002393D02*
X012602Y002450D01*
X011699Y002454D01*
X010988Y003190D01*
X010990Y006415D01*
X011266Y006703D01*
X011264Y009241D01*
X012066Y010050D01*
X012966Y010050D01*
X013516Y010600D01*
X013516Y012020D01*
X013851Y012860D01*
X014790Y012974D02*
X014790Y012518D01*
X014473Y011719D01*
X013766Y011101D01*
X013766Y010550D01*
X013066Y009850D01*
X012166Y009850D01*
X011473Y009128D01*
X011480Y006564D01*
X011249Y006312D01*
X011248Y003861D01*
X011492Y003624D01*
X012054Y003621D01*
X012333Y003720D01*
X016099Y006910D02*
X016706Y006910D01*
X017023Y006657D01*
X016497Y007895D02*
X016306Y007895D01*
X016111Y007895D01*
X016497Y007895D02*
X016646Y008069D01*
X016649Y008732D01*
X016644Y009306D01*
X016707Y009508D01*
X016497Y008930D02*
X016649Y008732D01*
X016497Y008930D02*
X016006Y008918D01*
X015616Y009090D02*
X015836Y009310D01*
X016038Y009508D01*
X015616Y009090D02*
X015616Y008180D01*
X014829Y008193D02*
X014829Y010110D01*
X014973Y010255D01*
X016370Y011259D01*
X016366Y011250D01*
X016966Y011250D01*
X017166Y011450D01*
X017166Y013450D01*
X016966Y013650D01*
X016566Y013650D01*
X014866Y015350D01*
X014866Y017250D01*
X015177Y017996D01*
X015647Y017825D02*
X015366Y017150D01*
X015366Y015350D01*
X016766Y013950D01*
X017166Y013950D01*
X017466Y013650D01*
X017466Y011405D01*
X017073Y011005D01*
X016471Y011005D01*
X016331Y010870D01*
X016066Y010710D01*
X016066Y010042D01*
X016590Y010129D02*
X016632Y010098D01*
X017740Y009987D02*
X017740Y009673D01*
X017740Y009358D01*
X018232Y009358D02*
X018674Y009358D01*
X018821Y009450D01*
X018966Y009450D01*
X019181Y009664D01*
X019181Y009910D01*
X019362Y010087D01*
X019647Y010080D01*
X019647Y009824D02*
X020441Y009824D01*
X020666Y010050D01*
X020666Y012650D01*
X019866Y013450D01*
X020166Y013550D02*
X020166Y014062D01*
X019705Y014523D01*
X018649Y014531D01*
X019166Y014050D02*
X017666Y014050D01*
X015846Y015870D01*
X015846Y016940D01*
X016117Y017654D01*
X016587Y017483D02*
X016159Y016364D01*
X016168Y016034D01*
X017349Y014860D01*
X019844Y014847D01*
X020466Y014232D01*
X020466Y013650D01*
X021266Y012850D01*
X021266Y009850D01*
X021548Y009568D01*
X022526Y009568D01*
X022996Y009310D02*
X023206Y009520D01*
X023206Y009620D01*
X023002Y009824D01*
X022526Y009824D01*
X020966Y009850D02*
X020966Y012750D01*
X020166Y013550D01*
X019466Y013750D02*
X019466Y013170D01*
X018966Y012830D01*
X018966Y012350D01*
X019168Y012119D01*
X019647Y012127D01*
X018856Y011360D02*
X018766Y011450D01*
X018330Y011089D01*
X018232Y011083D01*
X018232Y010768D02*
X018373Y010761D01*
X018768Y011059D01*
X018820Y011104D01*
X019647Y011104D01*
X019647Y011360D02*
X018856Y011360D01*
X019047Y010850D02*
X019647Y010848D01*
X019647Y010592D02*
X019152Y010592D01*
X018724Y010237D01*
X018412Y009981D01*
X018232Y009987D01*
X018232Y009673D02*
X018547Y009670D01*
X018784Y009850D01*
X018900Y009855D01*
X018974Y009931D01*
X018972Y010064D01*
X019248Y010333D01*
X019643Y010340D01*
X019647Y010336D01*
X019047Y010850D02*
X018757Y010661D01*
X018336Y010296D01*
X018232Y010302D01*
X017740Y010302D02*
X017740Y009987D01*
X017740Y010302D02*
X017740Y010768D01*
X017740Y011083D01*
X019647Y009568D02*
X020685Y009568D01*
X020966Y009850D01*
X019647Y009313D02*
X019639Y009320D01*
X021566Y011950D02*
X021744Y012127D01*
X022526Y012127D01*
X019466Y013750D02*
X019166Y014050D01*
X019152Y013450D02*
X017855Y013461D01*
X015266Y013450D02*
X014790Y012974D01*
X014966Y011150D02*
X014973Y011143D01*
X014973Y010767D01*
X013585Y008308D02*
X013889Y007895D01*
X014531Y007895D01*
X011325Y010009D02*
X011166Y009850D01*
X011325Y010009D02*
X011325Y010870D01*
X006796Y008200D02*
X006715Y008197D01*
X005766Y007397D02*
X005766Y007289D01*
X005763Y007286D01*
X005726Y007198D01*
X005726Y003150D01*
X005311Y003150D01*
X005299Y003155D01*
X005204Y003155D01*
X005191Y003150D01*
X004866Y003150D01*
X004866Y003689D01*
X004892Y003688D01*
X004894Y003690D01*
X004950Y003690D01*
X004960Y003680D01*
X005174Y003680D01*
X005199Y003670D01*
X005294Y003670D01*
X005318Y003680D01*
X005543Y003680D01*
X005636Y003774D01*
X005636Y004306D01*
X005543Y004400D01*
X005311Y004400D01*
X005299Y004405D01*
X005204Y004405D01*
X005191Y004400D01*
X005047Y004400D01*
X004892Y004556D01*
X004866Y004581D01*
X004866Y004850D01*
X003466Y004850D01*
X003466Y007484D01*
X003550Y007400D01*
X004163Y007400D01*
X004256Y007494D01*
X004256Y008506D01*
X004176Y008586D01*
X004176Y008917D01*
X005253Y008917D01*
X005316Y008854D01*
X005356Y008854D01*
X005356Y008586D01*
X005276Y008506D01*
X005276Y007494D01*
X005370Y007400D01*
X005764Y007400D01*
X005766Y007397D01*
X005766Y007305D02*
X003466Y007305D01*
X003466Y007423D02*
X003527Y007423D01*
X003466Y007186D02*
X005726Y007186D01*
X005726Y007068D02*
X003466Y007068D01*
X003466Y006949D02*
X005726Y006949D01*
X005726Y006831D02*
X003466Y006831D01*
X003466Y006712D02*
X005726Y006712D01*
X005726Y006594D02*
X003466Y006594D01*
X003466Y006475D02*
X005726Y006475D01*
X005726Y006357D02*
X003466Y006357D01*
X003466Y006238D02*
X005726Y006238D01*
X005726Y006120D02*
X003466Y006120D01*
X003466Y006001D02*
X005726Y006001D01*
X005726Y005883D02*
X003466Y005883D01*
X003466Y005764D02*
X005726Y005764D01*
X005726Y005646D02*
X003466Y005646D01*
X003466Y005527D02*
X005726Y005527D01*
X005726Y005409D02*
X003466Y005409D01*
X003466Y005290D02*
X005726Y005290D01*
X005726Y005172D02*
X003466Y005172D01*
X003466Y005053D02*
X005726Y005053D01*
X005726Y004935D02*
X003466Y004935D01*
X003486Y004470D02*
X003826Y004130D01*
X004596Y004130D01*
X004806Y003910D01*
X005246Y003910D01*
X005246Y004160D02*
X004976Y004160D01*
X004672Y004465D01*
X004266Y004465D01*
X004868Y004579D02*
X005726Y004579D01*
X005726Y004461D02*
X004987Y004461D01*
X004892Y004556D02*
X004892Y004556D01*
X004866Y004698D02*
X005726Y004698D01*
X005726Y004816D02*
X004866Y004816D01*
X005601Y004342D02*
X005726Y004342D01*
X005726Y004224D02*
X005636Y004224D01*
X005636Y004105D02*
X005726Y004105D01*
X005726Y003987D02*
X005636Y003987D01*
X005636Y003868D02*
X005726Y003868D01*
X005726Y003750D02*
X005612Y003750D01*
X005726Y003631D02*
X004866Y003631D01*
X004866Y003513D02*
X005726Y003513D01*
X005726Y003394D02*
X004866Y003394D01*
X004866Y003276D02*
X005726Y003276D01*
X005726Y003157D02*
X004866Y003157D01*
X005347Y007423D02*
X004186Y007423D01*
X004256Y007542D02*
X005276Y007542D01*
X005276Y007660D02*
X004256Y007660D01*
X004256Y007779D02*
X005276Y007779D01*
X005276Y007897D02*
X004256Y007897D01*
X004256Y008016D02*
X005276Y008016D01*
X005276Y008134D02*
X004256Y008134D01*
X004256Y008253D02*
X005276Y008253D01*
X005276Y008371D02*
X004256Y008371D01*
X004256Y008490D02*
X005276Y008490D01*
X005356Y008608D02*
X004176Y008608D01*
X004176Y008727D02*
X005356Y008727D01*
X005356Y008845D02*
X004176Y008845D01*
X016735Y016460D02*
X017057Y017312D01*
X017526Y017141D02*
X017761Y017050D01*
X018057Y017849D01*
X017996Y016970D02*
X017526Y017141D01*
D48*
X027021Y006955D03*
X019395Y005496D03*
D49*
X013728Y004787D02*
X013728Y004138D01*
X011913Y004127D01*
X011913Y004758D01*
X013728Y004787D01*
X013728Y004762D02*
X012164Y004762D01*
X011913Y004704D02*
X013728Y004704D01*
X013728Y004645D02*
X011913Y004645D01*
X011913Y004587D02*
X013728Y004587D01*
X013728Y004528D02*
X011913Y004528D01*
X011913Y004470D02*
X013728Y004470D01*
X013728Y004411D02*
X011913Y004411D01*
X011913Y004353D02*
X013728Y004353D01*
X013728Y004294D02*
X011913Y004294D01*
X011913Y004236D02*
X013728Y004236D01*
X013728Y004177D02*
X011913Y004177D01*
M02*
